G75*
%MOIN*%
%OFA0B0*%
%FSLAX25Y25*%
%IPPOS*%
%LPD*%
%AMOC8*
5,1,8,0,0,1.08239X$1,22.5*
%
%ADD10C,0.00300*%
%ADD11C,0.00800*%
%ADD12C,0.00100*%
%ADD13C,0.00600*%
%ADD14C,0.00500*%
%ADD15C,0.00400*%
%ADD16R,0.03000X0.01800*%
%ADD17C,0.01000*%
D10*
X0335505Y0066950D02*
X0337106Y0066950D01*
X0337640Y0067484D01*
X0337640Y0069619D01*
X0337106Y0070153D01*
X0335505Y0070153D01*
X0335505Y0066950D01*
X0338727Y0067484D02*
X0338727Y0068018D01*
X0339261Y0068551D01*
X0340329Y0068551D01*
X0340862Y0068018D01*
X0340862Y0067484D01*
X0340329Y0066950D01*
X0339261Y0066950D01*
X0338727Y0067484D01*
X0339261Y0068551D02*
X0338727Y0069085D01*
X0338727Y0069619D01*
X0339261Y0070153D01*
X0340329Y0070153D01*
X0340862Y0069619D01*
X0340862Y0069085D01*
X0340329Y0068551D01*
X0338727Y0076950D02*
X0338727Y0077484D01*
X0340862Y0079619D01*
X0340862Y0080153D01*
X0338727Y0080153D01*
X0337640Y0079619D02*
X0337106Y0080153D01*
X0335505Y0080153D01*
X0335505Y0076950D01*
X0337106Y0076950D01*
X0337640Y0077484D01*
X0337640Y0079619D01*
X0337106Y0086950D02*
X0335505Y0086950D01*
X0335505Y0090153D01*
X0337106Y0090153D01*
X0337640Y0089619D01*
X0337640Y0087484D01*
X0337106Y0086950D01*
X0338727Y0087484D02*
X0339261Y0086950D01*
X0340329Y0086950D01*
X0340862Y0087484D01*
X0340862Y0088018D01*
X0340329Y0088551D01*
X0338727Y0088551D01*
X0338727Y0087484D01*
X0338727Y0088551D02*
X0339795Y0089619D01*
X0340862Y0090153D01*
X0340329Y0096950D02*
X0339261Y0096950D01*
X0338727Y0097484D01*
X0338727Y0098551D02*
X0339795Y0099085D01*
X0340329Y0099085D01*
X0340862Y0098551D01*
X0340862Y0097484D01*
X0340329Y0096950D01*
X0338727Y0098551D02*
X0338727Y0100153D01*
X0340862Y0100153D01*
X0337640Y0099619D02*
X0337106Y0100153D01*
X0335505Y0100153D01*
X0335505Y0096950D01*
X0337106Y0096950D01*
X0337640Y0097484D01*
X0337640Y0099619D01*
X0337106Y0106950D02*
X0335505Y0106950D01*
X0335505Y0110153D01*
X0337106Y0110153D01*
X0337640Y0109619D01*
X0337640Y0107484D01*
X0337106Y0106950D01*
X0338727Y0108551D02*
X0340862Y0108551D01*
X0340329Y0106950D02*
X0340329Y0110153D01*
X0338727Y0108551D01*
X0339261Y0116950D02*
X0338727Y0117484D01*
X0339261Y0116950D02*
X0340329Y0116950D01*
X0340862Y0117484D01*
X0340862Y0118018D01*
X0340329Y0118551D01*
X0339795Y0118551D01*
X0340329Y0118551D02*
X0340862Y0119085D01*
X0340862Y0119619D01*
X0340329Y0120153D01*
X0339261Y0120153D01*
X0338727Y0119619D01*
X0337640Y0119619D02*
X0337106Y0120153D01*
X0335505Y0120153D01*
X0335505Y0116950D01*
X0337106Y0116950D01*
X0337640Y0117484D01*
X0337640Y0119619D01*
X0337106Y0126950D02*
X0335505Y0126950D01*
X0335505Y0130153D01*
X0337106Y0130153D01*
X0337640Y0129619D01*
X0337640Y0127484D01*
X0337106Y0126950D01*
X0338727Y0126950D02*
X0340862Y0129085D01*
X0340862Y0129619D01*
X0340329Y0130153D01*
X0339261Y0130153D01*
X0338727Y0129619D01*
X0338727Y0126950D02*
X0340862Y0126950D01*
X0340862Y0136950D02*
X0338727Y0136950D01*
X0339795Y0136950D02*
X0339795Y0140153D01*
X0338727Y0139085D01*
X0337640Y0139619D02*
X0337106Y0140153D01*
X0335505Y0140153D01*
X0335505Y0136950D01*
X0337106Y0136950D01*
X0337640Y0137484D01*
X0337640Y0139619D01*
X0393447Y0193316D02*
X0396650Y0193316D01*
X0395049Y0193316D02*
X0395049Y0195452D01*
X0394515Y0196539D02*
X0394515Y0197073D01*
X0396650Y0197073D01*
X0396650Y0196539D02*
X0396650Y0197607D01*
X0396116Y0198688D02*
X0396650Y0199222D01*
X0396650Y0200823D01*
X0397184Y0200823D02*
X0394515Y0200823D01*
X0394515Y0199222D01*
X0395049Y0198688D01*
X0396116Y0198688D01*
X0397718Y0199755D02*
X0397718Y0200289D01*
X0397184Y0200823D01*
X0396650Y0201910D02*
X0393447Y0201910D01*
X0394515Y0202444D02*
X0394515Y0203512D01*
X0395049Y0204046D01*
X0396650Y0204046D01*
X0395049Y0201910D02*
X0394515Y0202444D01*
X0395049Y0208356D02*
X0394515Y0208890D01*
X0394515Y0209957D01*
X0395049Y0210491D01*
X0396116Y0210491D01*
X0396650Y0209957D01*
X0396650Y0208890D01*
X0396116Y0208356D01*
X0395049Y0208356D01*
X0394515Y0211579D02*
X0396116Y0211579D01*
X0396650Y0212112D01*
X0396650Y0213714D01*
X0394515Y0213714D01*
X0394515Y0214801D02*
X0394515Y0215869D01*
X0393981Y0215335D02*
X0396116Y0215335D01*
X0396650Y0215869D01*
X0393447Y0197073D02*
X0392913Y0197073D01*
X0393447Y0195452D02*
X0396650Y0195452D01*
X0396650Y0245465D02*
X0393447Y0245465D01*
X0396650Y0245465D02*
X0396650Y0247600D01*
X0396116Y0248688D02*
X0396650Y0249222D01*
X0396650Y0250289D01*
X0396116Y0250823D01*
X0395049Y0250823D01*
X0394515Y0250289D01*
X0394515Y0249222D01*
X0395049Y0248688D01*
X0396116Y0248688D01*
X0396116Y0251910D02*
X0394515Y0251910D01*
X0396116Y0251910D02*
X0396650Y0252444D01*
X0396116Y0252978D01*
X0396650Y0253512D01*
X0396116Y0254046D01*
X0394515Y0254046D01*
X0395049Y0258356D02*
X0394515Y0258890D01*
X0394515Y0259957D01*
X0395049Y0260491D01*
X0396116Y0260491D01*
X0396650Y0259957D01*
X0396650Y0258890D01*
X0396116Y0258356D01*
X0395049Y0258356D01*
X0394515Y0261579D02*
X0396116Y0261579D01*
X0396650Y0262112D01*
X0396650Y0263714D01*
X0394515Y0263714D01*
X0394515Y0264801D02*
X0394515Y0265869D01*
X0393981Y0265335D02*
X0396116Y0265335D01*
X0396650Y0265869D01*
D11*
X0310658Y0275973D02*
X0310658Y0247627D01*
X0252784Y0247627D01*
X0252784Y0275973D01*
X0310658Y0275973D01*
X0250737Y0261249D02*
X0250737Y0255737D01*
X0249556Y0252981D02*
X0246800Y0252981D01*
X0249162Y0250619D01*
X0244438Y0250619D01*
X0246800Y0252981D01*
X0244044Y0252981D01*
X0242863Y0255737D02*
X0242863Y0261249D01*
X0250737Y0261249D01*
X0250737Y0247863D02*
X0250737Y0242351D01*
X0242863Y0242351D01*
X0242863Y0247863D01*
X0235658Y0247627D02*
X0235658Y0275973D01*
X0177784Y0275973D01*
X0177784Y0247627D01*
X0235658Y0247627D01*
X0244241Y0288257D02*
X0244241Y0293769D01*
X0249359Y0293769D01*
X0249359Y0288257D01*
X0249359Y0293769D02*
X0249359Y0295343D01*
X0244241Y0295343D02*
X0244241Y0293769D01*
X0174359Y0293769D02*
X0174359Y0288257D01*
X0169241Y0288257D02*
X0169241Y0293769D01*
X0174359Y0293769D01*
X0174359Y0295343D01*
X0169241Y0295343D02*
X0169241Y0293769D01*
X0160658Y0275973D02*
X0102784Y0275973D01*
X0102784Y0247627D01*
X0160658Y0247627D01*
X0160658Y0275973D01*
X0167863Y0261249D02*
X0175737Y0261249D01*
X0175737Y0255737D01*
X0174556Y0252981D02*
X0171800Y0252981D01*
X0174162Y0250619D01*
X0169438Y0250619D01*
X0171800Y0252981D01*
X0169044Y0252981D01*
X0167863Y0255737D02*
X0167863Y0261249D01*
X0167863Y0247863D02*
X0167863Y0242351D01*
X0175737Y0242351D01*
X0175737Y0247863D01*
X0100737Y0247863D02*
X0100737Y0242351D01*
X0092863Y0242351D01*
X0092863Y0247863D01*
X0094438Y0250619D02*
X0099162Y0250619D01*
X0096800Y0252981D01*
X0094438Y0250619D01*
X0094044Y0252981D02*
X0096800Y0252981D01*
X0099556Y0252981D01*
X0100737Y0255737D02*
X0100737Y0261249D01*
X0092863Y0261249D01*
X0092863Y0255737D01*
X0085658Y0247627D02*
X0085658Y0275973D01*
X0027784Y0275973D01*
X0027784Y0247627D01*
X0085658Y0247627D01*
X0094241Y0288257D02*
X0094241Y0293769D01*
X0099359Y0293769D01*
X0099359Y0288257D01*
X0099359Y0293769D02*
X0099359Y0295343D01*
X0094241Y0295343D02*
X0094241Y0293769D01*
X0024359Y0293769D02*
X0024359Y0288257D01*
X0019241Y0288257D02*
X0019241Y0293769D01*
X0024359Y0293769D01*
X0024359Y0295343D01*
X0019241Y0295343D02*
X0019241Y0293769D01*
X0017863Y0261249D02*
X0025737Y0261249D01*
X0025737Y0255737D01*
X0024556Y0252981D02*
X0021800Y0252981D01*
X0024162Y0250619D01*
X0019438Y0250619D01*
X0021800Y0252981D01*
X0019044Y0252981D01*
X0017863Y0255737D02*
X0017863Y0261249D01*
X0017863Y0247863D02*
X0017863Y0242351D01*
X0025737Y0242351D01*
X0025737Y0247863D01*
X0024359Y0130343D02*
X0024359Y0128769D01*
X0019241Y0128769D01*
X0019241Y0123257D01*
X0024359Y0123257D02*
X0024359Y0128769D01*
X0019241Y0128769D02*
X0019241Y0130343D01*
X0027784Y0120973D02*
X0027784Y0092627D01*
X0085658Y0092627D01*
X0085658Y0120973D01*
X0027784Y0120973D01*
X0025737Y0096249D02*
X0017863Y0096249D01*
X0017863Y0090737D01*
X0019044Y0087981D02*
X0021800Y0087981D01*
X0024162Y0085619D01*
X0019438Y0085619D01*
X0021800Y0087981D01*
X0024556Y0087981D01*
X0025737Y0090737D02*
X0025737Y0096249D01*
X0025737Y0082863D02*
X0025737Y0077351D01*
X0017863Y0077351D01*
X0017863Y0082863D01*
X0092863Y0082863D02*
X0092863Y0077351D01*
X0100737Y0077351D01*
X0100737Y0082863D01*
X0099162Y0085619D02*
X0096800Y0087981D01*
X0094438Y0085619D01*
X0099162Y0085619D01*
X0099556Y0087981D02*
X0096800Y0087981D01*
X0094044Y0087981D01*
X0092863Y0090737D02*
X0092863Y0096249D01*
X0100737Y0096249D01*
X0100737Y0090737D01*
X0102784Y0092627D02*
X0102784Y0120973D01*
X0160658Y0120973D01*
X0160658Y0092627D01*
X0102784Y0092627D01*
X0099359Y0123257D02*
X0099359Y0128769D01*
X0094241Y0128769D01*
X0094241Y0123257D01*
X0094241Y0128769D02*
X0094241Y0130343D01*
X0099359Y0130343D02*
X0099359Y0128769D01*
X0169241Y0128769D02*
X0169241Y0123257D01*
X0174359Y0123257D02*
X0174359Y0128769D01*
X0169241Y0128769D01*
X0169241Y0130343D01*
X0174359Y0130343D02*
X0174359Y0128769D01*
X0177784Y0120973D02*
X0177784Y0092627D01*
X0235658Y0092627D01*
X0235658Y0120973D01*
X0177784Y0120973D01*
X0175737Y0096249D02*
X0167863Y0096249D01*
X0167863Y0090737D01*
X0169044Y0087981D02*
X0171800Y0087981D01*
X0174162Y0085619D01*
X0169438Y0085619D01*
X0171800Y0087981D01*
X0174556Y0087981D01*
X0175737Y0090737D02*
X0175737Y0096249D01*
X0175737Y0082863D02*
X0175737Y0077351D01*
X0167863Y0077351D01*
X0167863Y0082863D01*
X0242863Y0082863D02*
X0242863Y0077351D01*
X0250737Y0077351D01*
X0250737Y0082863D01*
X0249162Y0085619D02*
X0246800Y0087981D01*
X0244438Y0085619D01*
X0249162Y0085619D01*
X0249556Y0087981D02*
X0246800Y0087981D01*
X0244044Y0087981D01*
X0242863Y0090737D02*
X0242863Y0096249D01*
X0250737Y0096249D01*
X0250737Y0090737D01*
X0252784Y0092627D02*
X0252784Y0120973D01*
X0310658Y0120973D01*
X0310658Y0092627D01*
X0252784Y0092627D01*
X0249359Y0123257D02*
X0249359Y0128769D01*
X0244241Y0128769D01*
X0244241Y0123257D01*
X0244241Y0128769D02*
X0244241Y0130343D01*
X0249359Y0130343D02*
X0249359Y0128769D01*
X0346800Y0129300D02*
X0346800Y0124300D01*
X0349300Y0121800D01*
X0346800Y0119300D01*
X0346800Y0114300D01*
X0349300Y0111800D01*
X0346800Y0109300D01*
X0346800Y0104300D01*
X0349300Y0101800D01*
X0346800Y0099300D01*
X0346800Y0094300D01*
X0349300Y0091800D01*
X0346800Y0089300D01*
X0346800Y0084300D01*
X0349300Y0081800D01*
X0346800Y0079300D01*
X0346800Y0074300D01*
X0349300Y0071800D01*
X0346800Y0069300D01*
X0346800Y0064300D01*
X0349300Y0061800D01*
X0354300Y0061800D01*
X0356800Y0064300D01*
X0356800Y0069300D01*
X0354300Y0071800D01*
X0356800Y0074300D01*
X0356800Y0079300D01*
X0354300Y0081800D01*
X0356800Y0084300D01*
X0356800Y0089300D01*
X0354300Y0091800D01*
X0356800Y0094300D01*
X0356800Y0099300D01*
X0354300Y0101800D01*
X0356800Y0104300D01*
X0356800Y0109300D01*
X0354300Y0111800D01*
X0356800Y0114300D01*
X0356800Y0119300D01*
X0354300Y0121800D01*
X0356800Y0124300D01*
X0356800Y0129300D01*
X0354300Y0131800D01*
X0356800Y0134300D01*
X0356800Y0139300D01*
X0354300Y0141800D01*
X0349300Y0141800D01*
X0346800Y0139300D01*
X0346800Y0134300D01*
X0349300Y0131800D01*
X0346800Y0129300D01*
X0349300Y0151800D02*
X0354300Y0151800D01*
X0356800Y0154300D01*
X0356800Y0159300D01*
X0354300Y0161800D01*
X0356800Y0164300D01*
X0356800Y0169300D01*
X0354300Y0171800D01*
X0349300Y0171800D01*
X0346800Y0169300D01*
X0346800Y0164300D01*
X0349300Y0161800D01*
X0346800Y0159300D01*
X0346800Y0154300D01*
X0349300Y0151800D01*
X0369005Y0161800D02*
X0369009Y0162114D01*
X0369020Y0162428D01*
X0369040Y0162741D01*
X0369067Y0163054D01*
X0369101Y0163366D01*
X0369143Y0163677D01*
X0369193Y0163987D01*
X0369251Y0164296D01*
X0369316Y0164603D01*
X0369388Y0164909D01*
X0369468Y0165213D01*
X0369556Y0165514D01*
X0369651Y0165814D01*
X0369753Y0166111D01*
X0369862Y0166405D01*
X0369979Y0166696D01*
X0370103Y0166985D01*
X0370233Y0167271D01*
X0370371Y0167553D01*
X0370516Y0167832D01*
X0370667Y0168107D01*
X0370825Y0168378D01*
X0370990Y0168645D01*
X0371161Y0168909D01*
X0371339Y0169167D01*
X0371523Y0169422D01*
X0371713Y0169672D01*
X0371909Y0169917D01*
X0372112Y0170157D01*
X0372320Y0170393D01*
X0372533Y0170623D01*
X0372753Y0170847D01*
X0372977Y0171067D01*
X0373207Y0171280D01*
X0373443Y0171488D01*
X0373683Y0171691D01*
X0373928Y0171887D01*
X0374178Y0172077D01*
X0374433Y0172261D01*
X0374691Y0172439D01*
X0374955Y0172610D01*
X0375222Y0172775D01*
X0375493Y0172933D01*
X0375768Y0173084D01*
X0376047Y0173229D01*
X0376329Y0173367D01*
X0376615Y0173497D01*
X0376904Y0173621D01*
X0377195Y0173738D01*
X0377489Y0173847D01*
X0377786Y0173949D01*
X0378086Y0174044D01*
X0378387Y0174132D01*
X0378691Y0174212D01*
X0378997Y0174284D01*
X0379304Y0174349D01*
X0379613Y0174407D01*
X0379923Y0174457D01*
X0380234Y0174499D01*
X0380546Y0174533D01*
X0380859Y0174560D01*
X0381172Y0174580D01*
X0381486Y0174591D01*
X0381800Y0174595D01*
X0382114Y0174591D01*
X0382428Y0174580D01*
X0382741Y0174560D01*
X0383054Y0174533D01*
X0383366Y0174499D01*
X0383677Y0174457D01*
X0383987Y0174407D01*
X0384296Y0174349D01*
X0384603Y0174284D01*
X0384909Y0174212D01*
X0385213Y0174132D01*
X0385514Y0174044D01*
X0385814Y0173949D01*
X0386111Y0173847D01*
X0386405Y0173738D01*
X0386696Y0173621D01*
X0386985Y0173497D01*
X0387271Y0173367D01*
X0387553Y0173229D01*
X0387832Y0173084D01*
X0388107Y0172933D01*
X0388378Y0172775D01*
X0388645Y0172610D01*
X0388909Y0172439D01*
X0389167Y0172261D01*
X0389422Y0172077D01*
X0389672Y0171887D01*
X0389917Y0171691D01*
X0390157Y0171488D01*
X0390393Y0171280D01*
X0390623Y0171067D01*
X0390847Y0170847D01*
X0391067Y0170623D01*
X0391280Y0170393D01*
X0391488Y0170157D01*
X0391691Y0169917D01*
X0391887Y0169672D01*
X0392077Y0169422D01*
X0392261Y0169167D01*
X0392439Y0168909D01*
X0392610Y0168645D01*
X0392775Y0168378D01*
X0392933Y0168107D01*
X0393084Y0167832D01*
X0393229Y0167553D01*
X0393367Y0167271D01*
X0393497Y0166985D01*
X0393621Y0166696D01*
X0393738Y0166405D01*
X0393847Y0166111D01*
X0393949Y0165814D01*
X0394044Y0165514D01*
X0394132Y0165213D01*
X0394212Y0164909D01*
X0394284Y0164603D01*
X0394349Y0164296D01*
X0394407Y0163987D01*
X0394457Y0163677D01*
X0394499Y0163366D01*
X0394533Y0163054D01*
X0394560Y0162741D01*
X0394580Y0162428D01*
X0394591Y0162114D01*
X0394595Y0161800D01*
X0394591Y0161486D01*
X0394580Y0161172D01*
X0394560Y0160859D01*
X0394533Y0160546D01*
X0394499Y0160234D01*
X0394457Y0159923D01*
X0394407Y0159613D01*
X0394349Y0159304D01*
X0394284Y0158997D01*
X0394212Y0158691D01*
X0394132Y0158387D01*
X0394044Y0158086D01*
X0393949Y0157786D01*
X0393847Y0157489D01*
X0393738Y0157195D01*
X0393621Y0156904D01*
X0393497Y0156615D01*
X0393367Y0156329D01*
X0393229Y0156047D01*
X0393084Y0155768D01*
X0392933Y0155493D01*
X0392775Y0155222D01*
X0392610Y0154955D01*
X0392439Y0154691D01*
X0392261Y0154433D01*
X0392077Y0154178D01*
X0391887Y0153928D01*
X0391691Y0153683D01*
X0391488Y0153443D01*
X0391280Y0153207D01*
X0391067Y0152977D01*
X0390847Y0152753D01*
X0390623Y0152533D01*
X0390393Y0152320D01*
X0390157Y0152112D01*
X0389917Y0151909D01*
X0389672Y0151713D01*
X0389422Y0151523D01*
X0389167Y0151339D01*
X0388909Y0151161D01*
X0388645Y0150990D01*
X0388378Y0150825D01*
X0388107Y0150667D01*
X0387832Y0150516D01*
X0387553Y0150371D01*
X0387271Y0150233D01*
X0386985Y0150103D01*
X0386696Y0149979D01*
X0386405Y0149862D01*
X0386111Y0149753D01*
X0385814Y0149651D01*
X0385514Y0149556D01*
X0385213Y0149468D01*
X0384909Y0149388D01*
X0384603Y0149316D01*
X0384296Y0149251D01*
X0383987Y0149193D01*
X0383677Y0149143D01*
X0383366Y0149101D01*
X0383054Y0149067D01*
X0382741Y0149040D01*
X0382428Y0149020D01*
X0382114Y0149009D01*
X0381800Y0149005D01*
X0381486Y0149009D01*
X0381172Y0149020D01*
X0380859Y0149040D01*
X0380546Y0149067D01*
X0380234Y0149101D01*
X0379923Y0149143D01*
X0379613Y0149193D01*
X0379304Y0149251D01*
X0378997Y0149316D01*
X0378691Y0149388D01*
X0378387Y0149468D01*
X0378086Y0149556D01*
X0377786Y0149651D01*
X0377489Y0149753D01*
X0377195Y0149862D01*
X0376904Y0149979D01*
X0376615Y0150103D01*
X0376329Y0150233D01*
X0376047Y0150371D01*
X0375768Y0150516D01*
X0375493Y0150667D01*
X0375222Y0150825D01*
X0374955Y0150990D01*
X0374691Y0151161D01*
X0374433Y0151339D01*
X0374178Y0151523D01*
X0373928Y0151713D01*
X0373683Y0151909D01*
X0373443Y0152112D01*
X0373207Y0152320D01*
X0372977Y0152533D01*
X0372753Y0152753D01*
X0372533Y0152977D01*
X0372320Y0153207D01*
X0372112Y0153443D01*
X0371909Y0153683D01*
X0371713Y0153928D01*
X0371523Y0154178D01*
X0371339Y0154433D01*
X0371161Y0154691D01*
X0370990Y0154955D01*
X0370825Y0155222D01*
X0370667Y0155493D01*
X0370516Y0155768D01*
X0370371Y0156047D01*
X0370233Y0156329D01*
X0370103Y0156615D01*
X0369979Y0156904D01*
X0369862Y0157195D01*
X0369753Y0157489D01*
X0369651Y0157786D01*
X0369556Y0158086D01*
X0369468Y0158387D01*
X0369388Y0158691D01*
X0369316Y0158997D01*
X0369251Y0159304D01*
X0369193Y0159613D01*
X0369143Y0159923D01*
X0369101Y0160234D01*
X0369067Y0160546D01*
X0369040Y0160859D01*
X0369020Y0161172D01*
X0369009Y0161486D01*
X0369005Y0161800D01*
X0384300Y0156800D02*
X0389300Y0156800D01*
D12*
X0384378Y0155001D02*
X0384127Y0155251D01*
X0383627Y0155251D01*
X0383377Y0155001D01*
X0382904Y0155001D02*
X0382654Y0155251D01*
X0382154Y0155251D01*
X0381903Y0155001D01*
X0381903Y0154000D01*
X0382154Y0153750D01*
X0382654Y0153750D01*
X0382904Y0154000D01*
X0383377Y0153750D02*
X0384378Y0154751D01*
X0384378Y0155001D01*
X0384378Y0153750D02*
X0383377Y0153750D01*
X0252350Y0129627D02*
X0252100Y0129878D01*
X0251099Y0129878D01*
X0250849Y0129627D01*
X0250849Y0129127D01*
X0251099Y0128877D01*
X0251349Y0128877D01*
X0251599Y0129127D01*
X0251599Y0129878D01*
X0252350Y0129627D02*
X0252350Y0129127D01*
X0252100Y0128877D01*
X0252100Y0128404D02*
X0251099Y0128404D01*
X0250849Y0128154D01*
X0250849Y0127403D01*
X0252350Y0127403D01*
X0252350Y0128154D01*
X0252100Y0128404D01*
X0251350Y0109878D02*
X0251350Y0108877D01*
X0251350Y0108404D02*
X0250850Y0107904D01*
X0250850Y0108154D02*
X0250850Y0107403D01*
X0251350Y0107403D02*
X0249849Y0107403D01*
X0249849Y0108154D01*
X0250099Y0108404D01*
X0250599Y0108404D01*
X0250850Y0108154D01*
X0250349Y0108877D02*
X0249849Y0109377D01*
X0251350Y0109377D01*
X0241250Y0085824D02*
X0241250Y0084823D01*
X0241250Y0085324D02*
X0239749Y0085324D01*
X0240249Y0084823D01*
X0239999Y0084351D02*
X0239749Y0084101D01*
X0239749Y0083350D01*
X0241250Y0083350D01*
X0241250Y0084101D01*
X0241000Y0084351D01*
X0239999Y0084351D01*
X0177350Y0125930D02*
X0177350Y0126681D01*
X0177100Y0126931D01*
X0176099Y0126931D01*
X0175849Y0126681D01*
X0175849Y0125930D01*
X0177350Y0125930D01*
X0177350Y0127403D02*
X0177350Y0128404D01*
X0177350Y0127904D02*
X0175849Y0127904D01*
X0176349Y0127403D01*
X0176099Y0128877D02*
X0175849Y0129127D01*
X0175849Y0129627D01*
X0176099Y0129878D01*
X0177100Y0128877D01*
X0177350Y0129127D01*
X0177350Y0129627D01*
X0177100Y0129878D01*
X0176099Y0129878D01*
X0176099Y0128877D02*
X0177100Y0128877D01*
X0176350Y0109878D02*
X0176350Y0108877D01*
X0175349Y0109878D01*
X0175099Y0109878D01*
X0174849Y0109627D01*
X0174849Y0109127D01*
X0175099Y0108877D01*
X0175099Y0108404D02*
X0175599Y0108404D01*
X0175850Y0108154D01*
X0175850Y0107403D01*
X0176350Y0107403D02*
X0174849Y0107403D01*
X0174849Y0108154D01*
X0175099Y0108404D01*
X0175850Y0107904D02*
X0176350Y0108404D01*
X0166250Y0085824D02*
X0166250Y0084823D01*
X0165249Y0085824D01*
X0164999Y0085824D01*
X0164749Y0085574D01*
X0164749Y0085073D01*
X0164999Y0084823D01*
X0164999Y0084351D02*
X0164749Y0084101D01*
X0164749Y0083350D01*
X0166250Y0083350D01*
X0166250Y0084101D01*
X0166000Y0084351D01*
X0164999Y0084351D01*
X0101350Y0107403D02*
X0099849Y0107403D01*
X0099849Y0108154D01*
X0100099Y0108404D01*
X0100599Y0108404D01*
X0100850Y0108154D01*
X0100850Y0107403D01*
X0100850Y0107904D02*
X0101350Y0108404D01*
X0101100Y0108877D02*
X0101350Y0109127D01*
X0101350Y0109627D01*
X0101100Y0109878D01*
X0100850Y0109878D01*
X0100599Y0109627D01*
X0100599Y0109377D01*
X0100599Y0109627D02*
X0100349Y0109878D01*
X0100099Y0109878D01*
X0099849Y0109627D01*
X0099849Y0109127D01*
X0100099Y0108877D01*
X0100849Y0125930D02*
X0100849Y0126681D01*
X0101099Y0126931D01*
X0102100Y0126931D01*
X0102350Y0126681D01*
X0102350Y0125930D01*
X0100849Y0125930D01*
X0101349Y0127403D02*
X0100849Y0127904D01*
X0102350Y0127904D01*
X0102350Y0128404D02*
X0102350Y0127403D01*
X0102350Y0128877D02*
X0102350Y0129878D01*
X0102350Y0129377D02*
X0100849Y0129377D01*
X0101349Y0128877D01*
X0091000Y0085824D02*
X0091250Y0085574D01*
X0091250Y0085073D01*
X0091000Y0084823D01*
X0091000Y0084351D02*
X0089999Y0084351D01*
X0089749Y0084101D01*
X0089749Y0083350D01*
X0091250Y0083350D01*
X0091250Y0084101D01*
X0091000Y0084351D01*
X0090499Y0085324D02*
X0090499Y0085574D01*
X0090750Y0085824D01*
X0091000Y0085824D01*
X0090499Y0085574D02*
X0090249Y0085824D01*
X0089999Y0085824D01*
X0089749Y0085574D01*
X0089749Y0085073D01*
X0089999Y0084823D01*
X0027350Y0125930D02*
X0027350Y0126681D01*
X0027100Y0126931D01*
X0026099Y0126931D01*
X0025849Y0126681D01*
X0025849Y0125930D01*
X0027350Y0125930D01*
X0027350Y0127403D02*
X0027350Y0128404D01*
X0027350Y0128877D02*
X0026349Y0129878D01*
X0026099Y0129878D01*
X0025849Y0129627D01*
X0025849Y0129127D01*
X0026099Y0128877D01*
X0025849Y0127904D02*
X0027350Y0127904D01*
X0027350Y0128877D02*
X0027350Y0129878D01*
X0025849Y0127904D02*
X0026349Y0127403D01*
X0025599Y0109878D02*
X0025599Y0108877D01*
X0024849Y0109627D01*
X0026350Y0109627D01*
X0026350Y0108404D02*
X0025850Y0107904D01*
X0025850Y0108154D02*
X0025850Y0107403D01*
X0026350Y0107403D02*
X0024849Y0107403D01*
X0024849Y0108154D01*
X0025099Y0108404D01*
X0025599Y0108404D01*
X0025850Y0108154D01*
X0016250Y0085574D02*
X0014749Y0085574D01*
X0015499Y0084823D01*
X0015499Y0085824D01*
X0014999Y0084351D02*
X0014749Y0084101D01*
X0014749Y0083350D01*
X0016250Y0083350D01*
X0016250Y0084101D01*
X0016000Y0084351D01*
X0014999Y0084351D01*
X0014749Y0248350D02*
X0014749Y0249101D01*
X0014999Y0249351D01*
X0016000Y0249351D01*
X0016250Y0249101D01*
X0016250Y0248350D01*
X0014749Y0248350D01*
X0014999Y0249823D02*
X0015249Y0249823D01*
X0015499Y0250073D01*
X0015499Y0250574D01*
X0015750Y0250824D01*
X0016000Y0250824D01*
X0016250Y0250574D01*
X0016250Y0250073D01*
X0016000Y0249823D01*
X0015750Y0249823D01*
X0015499Y0250073D01*
X0015499Y0250574D02*
X0015249Y0250824D01*
X0014999Y0250824D01*
X0014749Y0250574D01*
X0014749Y0250073D01*
X0014999Y0249823D01*
X0024849Y0272403D02*
X0024849Y0273154D01*
X0025099Y0273404D01*
X0025599Y0273404D01*
X0025850Y0273154D01*
X0025850Y0272403D01*
X0026350Y0272403D02*
X0024849Y0272403D01*
X0025850Y0272904D02*
X0026350Y0273404D01*
X0026100Y0273877D02*
X0026350Y0274127D01*
X0026350Y0274627D01*
X0026100Y0274878D01*
X0025599Y0274878D01*
X0025349Y0274627D01*
X0025349Y0274377D01*
X0025599Y0273877D01*
X0024849Y0273877D01*
X0024849Y0274878D01*
X0025849Y0290930D02*
X0025849Y0291681D01*
X0026099Y0291931D01*
X0027100Y0291931D01*
X0027350Y0291681D01*
X0027350Y0290930D01*
X0025849Y0290930D01*
X0026349Y0292403D02*
X0025849Y0292904D01*
X0027350Y0292904D01*
X0027350Y0293404D02*
X0027350Y0292403D01*
X0027100Y0293877D02*
X0027350Y0294127D01*
X0027350Y0294627D01*
X0027100Y0294878D01*
X0026599Y0294878D01*
X0026349Y0294627D01*
X0026349Y0294377D01*
X0026599Y0293877D01*
X0025849Y0293877D01*
X0025849Y0294878D01*
X0089749Y0250824D02*
X0089749Y0249823D01*
X0089999Y0249351D02*
X0089749Y0249101D01*
X0089749Y0248350D01*
X0091250Y0248350D01*
X0091250Y0249101D01*
X0091000Y0249351D01*
X0089999Y0249351D01*
X0091000Y0249823D02*
X0089999Y0250824D01*
X0089749Y0250824D01*
X0091000Y0249823D02*
X0091250Y0249823D01*
X0099849Y0272403D02*
X0099849Y0273154D01*
X0100099Y0273404D01*
X0100599Y0273404D01*
X0100850Y0273154D01*
X0100850Y0272403D01*
X0101350Y0272403D02*
X0099849Y0272403D01*
X0100850Y0272904D02*
X0101350Y0273404D01*
X0101100Y0273877D02*
X0101350Y0274127D01*
X0101350Y0274627D01*
X0101100Y0274878D01*
X0100850Y0274878D01*
X0100599Y0274627D01*
X0100599Y0273877D01*
X0101100Y0273877D01*
X0100599Y0273877D02*
X0100099Y0274377D01*
X0099849Y0274878D01*
X0100849Y0290930D02*
X0100849Y0291681D01*
X0101099Y0291931D01*
X0102100Y0291931D01*
X0102350Y0291681D01*
X0102350Y0290930D01*
X0100849Y0290930D01*
X0101349Y0292403D02*
X0100849Y0292904D01*
X0102350Y0292904D01*
X0102350Y0293404D02*
X0102350Y0292403D01*
X0102100Y0293877D02*
X0102350Y0294127D01*
X0102350Y0294627D01*
X0102100Y0294878D01*
X0101850Y0294878D01*
X0101599Y0294627D01*
X0101599Y0293877D01*
X0102100Y0293877D01*
X0101599Y0293877D02*
X0101099Y0294377D01*
X0100849Y0294878D01*
X0164749Y0250824D02*
X0164999Y0250324D01*
X0165499Y0249823D01*
X0165499Y0250574D01*
X0165750Y0250824D01*
X0166000Y0250824D01*
X0166250Y0250574D01*
X0166250Y0250073D01*
X0166000Y0249823D01*
X0165499Y0249823D01*
X0164999Y0249351D02*
X0164749Y0249101D01*
X0164749Y0248350D01*
X0166250Y0248350D01*
X0166250Y0249101D01*
X0166000Y0249351D01*
X0164999Y0249351D01*
X0174849Y0272403D02*
X0174849Y0273154D01*
X0175099Y0273404D01*
X0175599Y0273404D01*
X0175850Y0273154D01*
X0175850Y0272403D01*
X0176350Y0272403D02*
X0174849Y0272403D01*
X0175850Y0272904D02*
X0176350Y0273404D01*
X0176350Y0273877D02*
X0176100Y0273877D01*
X0175099Y0274878D01*
X0174849Y0274878D01*
X0174849Y0273877D01*
X0175849Y0290930D02*
X0175849Y0291681D01*
X0176099Y0291931D01*
X0177100Y0291931D01*
X0177350Y0291681D01*
X0177350Y0290930D01*
X0175849Y0290930D01*
X0176349Y0292403D02*
X0175849Y0292904D01*
X0177350Y0292904D01*
X0177350Y0293404D02*
X0177350Y0292403D01*
X0176599Y0293877D02*
X0176599Y0294878D01*
X0175849Y0294627D02*
X0176599Y0293877D01*
X0175849Y0294627D02*
X0177350Y0294627D01*
X0239749Y0250824D02*
X0239749Y0249823D01*
X0240499Y0249823D01*
X0240249Y0250324D01*
X0240249Y0250574D01*
X0240499Y0250824D01*
X0241000Y0250824D01*
X0241250Y0250574D01*
X0241250Y0250073D01*
X0241000Y0249823D01*
X0241000Y0249351D02*
X0239999Y0249351D01*
X0239749Y0249101D01*
X0239749Y0248350D01*
X0241250Y0248350D01*
X0241250Y0249101D01*
X0241000Y0249351D01*
X0249849Y0272403D02*
X0249849Y0273154D01*
X0250099Y0273404D01*
X0250599Y0273404D01*
X0250850Y0273154D01*
X0250850Y0272403D01*
X0251350Y0272403D02*
X0249849Y0272403D01*
X0250850Y0272904D02*
X0251350Y0273404D01*
X0251100Y0273877D02*
X0250850Y0273877D01*
X0250599Y0274127D01*
X0250599Y0274627D01*
X0250850Y0274878D01*
X0251100Y0274878D01*
X0251350Y0274627D01*
X0251350Y0274127D01*
X0251100Y0273877D01*
X0250599Y0274127D02*
X0250349Y0273877D01*
X0250099Y0273877D01*
X0249849Y0274127D01*
X0249849Y0274627D01*
X0250099Y0274878D01*
X0250349Y0274878D01*
X0250599Y0274627D01*
X0250849Y0290930D02*
X0250849Y0291681D01*
X0251099Y0291931D01*
X0252100Y0291931D01*
X0252350Y0291681D01*
X0252350Y0290930D01*
X0250849Y0290930D01*
X0251349Y0292403D02*
X0250849Y0292904D01*
X0252350Y0292904D01*
X0252350Y0293404D02*
X0252350Y0292403D01*
X0252100Y0293877D02*
X0252350Y0294127D01*
X0252350Y0294627D01*
X0252100Y0294878D01*
X0251850Y0294878D01*
X0251599Y0294627D01*
X0251599Y0294377D01*
X0251599Y0294627D02*
X0251349Y0294878D01*
X0251099Y0294878D01*
X0250849Y0294627D01*
X0250849Y0294127D01*
X0251099Y0293877D01*
D13*
X0375300Y0141800D02*
X0382800Y0141800D01*
X0382802Y0141674D01*
X0382808Y0141549D01*
X0382818Y0141424D01*
X0382832Y0141299D01*
X0382849Y0141174D01*
X0382871Y0141050D01*
X0382896Y0140927D01*
X0382926Y0140805D01*
X0382959Y0140684D01*
X0382996Y0140564D01*
X0383036Y0140445D01*
X0383081Y0140328D01*
X0383129Y0140211D01*
X0383181Y0140097D01*
X0383236Y0139984D01*
X0383295Y0139873D01*
X0383357Y0139764D01*
X0383423Y0139657D01*
X0383492Y0139552D01*
X0383564Y0139449D01*
X0383639Y0139348D01*
X0383718Y0139250D01*
X0383800Y0139155D01*
X0383884Y0139062D01*
X0383972Y0138972D01*
X0384062Y0138884D01*
X0384155Y0138800D01*
X0384250Y0138718D01*
X0384348Y0138639D01*
X0384449Y0138564D01*
X0384552Y0138492D01*
X0384657Y0138423D01*
X0384764Y0138357D01*
X0384873Y0138295D01*
X0384984Y0138236D01*
X0385097Y0138181D01*
X0385211Y0138129D01*
X0385328Y0138081D01*
X0385445Y0138036D01*
X0385564Y0137996D01*
X0385684Y0137959D01*
X0385805Y0137926D01*
X0385927Y0137896D01*
X0386050Y0137871D01*
X0386174Y0137849D01*
X0386299Y0137832D01*
X0386424Y0137818D01*
X0386549Y0137808D01*
X0386674Y0137802D01*
X0386800Y0137800D01*
X0386926Y0137802D01*
X0387051Y0137808D01*
X0387176Y0137818D01*
X0387301Y0137832D01*
X0387426Y0137849D01*
X0387550Y0137871D01*
X0387673Y0137896D01*
X0387795Y0137926D01*
X0387916Y0137959D01*
X0388036Y0137996D01*
X0388155Y0138036D01*
X0388272Y0138081D01*
X0388389Y0138129D01*
X0388503Y0138181D01*
X0388616Y0138236D01*
X0388727Y0138295D01*
X0388836Y0138357D01*
X0388943Y0138423D01*
X0389048Y0138492D01*
X0389151Y0138564D01*
X0389252Y0138639D01*
X0389350Y0138718D01*
X0389445Y0138800D01*
X0389538Y0138884D01*
X0389628Y0138972D01*
X0389716Y0139062D01*
X0389800Y0139155D01*
X0389882Y0139250D01*
X0389961Y0139348D01*
X0390036Y0139449D01*
X0390108Y0139552D01*
X0390177Y0139657D01*
X0390243Y0139764D01*
X0390305Y0139873D01*
X0390364Y0139984D01*
X0390419Y0140097D01*
X0390471Y0140211D01*
X0390519Y0140328D01*
X0390564Y0140445D01*
X0390604Y0140564D01*
X0390641Y0140684D01*
X0390674Y0140805D01*
X0390704Y0140927D01*
X0390729Y0141050D01*
X0390751Y0141174D01*
X0390768Y0141299D01*
X0390782Y0141424D01*
X0390792Y0141549D01*
X0390798Y0141674D01*
X0390800Y0141800D01*
X0398300Y0141800D01*
X0398300Y0051800D01*
X0375300Y0051800D01*
X0375300Y0141800D01*
D14*
X0034792Y0061800D02*
X0034800Y0062463D01*
X0034825Y0063125D01*
X0034865Y0063787D01*
X0034922Y0064447D01*
X0034995Y0065106D01*
X0035084Y0065763D01*
X0035190Y0066417D01*
X0035311Y0067069D01*
X0035448Y0067717D01*
X0035601Y0068362D01*
X0035770Y0069003D01*
X0035955Y0069640D01*
X0036155Y0070272D01*
X0036371Y0070899D01*
X0036602Y0071520D01*
X0036848Y0072136D01*
X0037109Y0072745D01*
X0037385Y0073347D01*
X0037676Y0073943D01*
X0037981Y0074531D01*
X0038301Y0075112D01*
X0038634Y0075685D01*
X0038982Y0076249D01*
X0039344Y0076805D01*
X0039719Y0077351D01*
X0040107Y0077889D01*
X0040508Y0078416D01*
X0040923Y0078934D01*
X0041349Y0079441D01*
X0041788Y0079937D01*
X0042240Y0080423D01*
X0042702Y0080898D01*
X0043177Y0081360D01*
X0043663Y0081812D01*
X0044159Y0082251D01*
X0044666Y0082677D01*
X0045184Y0083092D01*
X0045711Y0083493D01*
X0046249Y0083881D01*
X0046795Y0084256D01*
X0047351Y0084618D01*
X0047915Y0084966D01*
X0048488Y0085299D01*
X0049069Y0085619D01*
X0049657Y0085924D01*
X0050253Y0086215D01*
X0050855Y0086491D01*
X0051464Y0086752D01*
X0052080Y0086998D01*
X0052701Y0087229D01*
X0053328Y0087445D01*
X0053960Y0087645D01*
X0054597Y0087830D01*
X0055238Y0087999D01*
X0055883Y0088152D01*
X0056531Y0088289D01*
X0057183Y0088410D01*
X0057837Y0088516D01*
X0058494Y0088605D01*
X0059153Y0088678D01*
X0059813Y0088735D01*
X0060475Y0088775D01*
X0061137Y0088800D01*
X0061800Y0088808D01*
X0062463Y0088800D01*
X0063125Y0088775D01*
X0063787Y0088735D01*
X0064447Y0088678D01*
X0065106Y0088605D01*
X0065763Y0088516D01*
X0066417Y0088410D01*
X0067069Y0088289D01*
X0067717Y0088152D01*
X0068362Y0087999D01*
X0069003Y0087830D01*
X0069640Y0087645D01*
X0070272Y0087445D01*
X0070899Y0087229D01*
X0071520Y0086998D01*
X0072136Y0086752D01*
X0072745Y0086491D01*
X0073347Y0086215D01*
X0073943Y0085924D01*
X0074531Y0085619D01*
X0075112Y0085299D01*
X0075685Y0084966D01*
X0076249Y0084618D01*
X0076805Y0084256D01*
X0077351Y0083881D01*
X0077889Y0083493D01*
X0078416Y0083092D01*
X0078934Y0082677D01*
X0079441Y0082251D01*
X0079937Y0081812D01*
X0080423Y0081360D01*
X0080898Y0080898D01*
X0081360Y0080423D01*
X0081812Y0079937D01*
X0082251Y0079441D01*
X0082677Y0078934D01*
X0083092Y0078416D01*
X0083493Y0077889D01*
X0083881Y0077351D01*
X0084256Y0076805D01*
X0084618Y0076249D01*
X0084966Y0075685D01*
X0085299Y0075112D01*
X0085619Y0074531D01*
X0085924Y0073943D01*
X0086215Y0073347D01*
X0086491Y0072745D01*
X0086752Y0072136D01*
X0086998Y0071520D01*
X0087229Y0070899D01*
X0087445Y0070272D01*
X0087645Y0069640D01*
X0087830Y0069003D01*
X0087999Y0068362D01*
X0088152Y0067717D01*
X0088289Y0067069D01*
X0088410Y0066417D01*
X0088516Y0065763D01*
X0088605Y0065106D01*
X0088678Y0064447D01*
X0088735Y0063787D01*
X0088775Y0063125D01*
X0088800Y0062463D01*
X0088808Y0061800D01*
X0088800Y0061137D01*
X0088775Y0060475D01*
X0088735Y0059813D01*
X0088678Y0059153D01*
X0088605Y0058494D01*
X0088516Y0057837D01*
X0088410Y0057183D01*
X0088289Y0056531D01*
X0088152Y0055883D01*
X0087999Y0055238D01*
X0087830Y0054597D01*
X0087645Y0053960D01*
X0087445Y0053328D01*
X0087229Y0052701D01*
X0086998Y0052080D01*
X0086752Y0051464D01*
X0086491Y0050855D01*
X0086215Y0050253D01*
X0085924Y0049657D01*
X0085619Y0049069D01*
X0085299Y0048488D01*
X0084966Y0047915D01*
X0084618Y0047351D01*
X0084256Y0046795D01*
X0083881Y0046249D01*
X0083493Y0045711D01*
X0083092Y0045184D01*
X0082677Y0044666D01*
X0082251Y0044159D01*
X0081812Y0043663D01*
X0081360Y0043177D01*
X0080898Y0042702D01*
X0080423Y0042240D01*
X0079937Y0041788D01*
X0079441Y0041349D01*
X0078934Y0040923D01*
X0078416Y0040508D01*
X0077889Y0040107D01*
X0077351Y0039719D01*
X0076805Y0039344D01*
X0076249Y0038982D01*
X0075685Y0038634D01*
X0075112Y0038301D01*
X0074531Y0037981D01*
X0073943Y0037676D01*
X0073347Y0037385D01*
X0072745Y0037109D01*
X0072136Y0036848D01*
X0071520Y0036602D01*
X0070899Y0036371D01*
X0070272Y0036155D01*
X0069640Y0035955D01*
X0069003Y0035770D01*
X0068362Y0035601D01*
X0067717Y0035448D01*
X0067069Y0035311D01*
X0066417Y0035190D01*
X0065763Y0035084D01*
X0065106Y0034995D01*
X0064447Y0034922D01*
X0063787Y0034865D01*
X0063125Y0034825D01*
X0062463Y0034800D01*
X0061800Y0034792D01*
X0061137Y0034800D01*
X0060475Y0034825D01*
X0059813Y0034865D01*
X0059153Y0034922D01*
X0058494Y0034995D01*
X0057837Y0035084D01*
X0057183Y0035190D01*
X0056531Y0035311D01*
X0055883Y0035448D01*
X0055238Y0035601D01*
X0054597Y0035770D01*
X0053960Y0035955D01*
X0053328Y0036155D01*
X0052701Y0036371D01*
X0052080Y0036602D01*
X0051464Y0036848D01*
X0050855Y0037109D01*
X0050253Y0037385D01*
X0049657Y0037676D01*
X0049069Y0037981D01*
X0048488Y0038301D01*
X0047915Y0038634D01*
X0047351Y0038982D01*
X0046795Y0039344D01*
X0046249Y0039719D01*
X0045711Y0040107D01*
X0045184Y0040508D01*
X0044666Y0040923D01*
X0044159Y0041349D01*
X0043663Y0041788D01*
X0043177Y0042240D01*
X0042702Y0042702D01*
X0042240Y0043177D01*
X0041788Y0043663D01*
X0041349Y0044159D01*
X0040923Y0044666D01*
X0040508Y0045184D01*
X0040107Y0045711D01*
X0039719Y0046249D01*
X0039344Y0046795D01*
X0038982Y0047351D01*
X0038634Y0047915D01*
X0038301Y0048488D01*
X0037981Y0049069D01*
X0037676Y0049657D01*
X0037385Y0050253D01*
X0037109Y0050855D01*
X0036848Y0051464D01*
X0036602Y0052080D01*
X0036371Y0052701D01*
X0036155Y0053328D01*
X0035955Y0053960D01*
X0035770Y0054597D01*
X0035601Y0055238D01*
X0035448Y0055883D01*
X0035311Y0056531D01*
X0035190Y0057183D01*
X0035084Y0057837D01*
X0034995Y0058494D01*
X0034922Y0059153D01*
X0034865Y0059813D01*
X0034825Y0060475D01*
X0034800Y0061137D01*
X0034792Y0061800D01*
X0109792Y0061800D02*
X0109800Y0062463D01*
X0109825Y0063125D01*
X0109865Y0063787D01*
X0109922Y0064447D01*
X0109995Y0065106D01*
X0110084Y0065763D01*
X0110190Y0066417D01*
X0110311Y0067069D01*
X0110448Y0067717D01*
X0110601Y0068362D01*
X0110770Y0069003D01*
X0110955Y0069640D01*
X0111155Y0070272D01*
X0111371Y0070899D01*
X0111602Y0071520D01*
X0111848Y0072136D01*
X0112109Y0072745D01*
X0112385Y0073347D01*
X0112676Y0073943D01*
X0112981Y0074531D01*
X0113301Y0075112D01*
X0113634Y0075685D01*
X0113982Y0076249D01*
X0114344Y0076805D01*
X0114719Y0077351D01*
X0115107Y0077889D01*
X0115508Y0078416D01*
X0115923Y0078934D01*
X0116349Y0079441D01*
X0116788Y0079937D01*
X0117240Y0080423D01*
X0117702Y0080898D01*
X0118177Y0081360D01*
X0118663Y0081812D01*
X0119159Y0082251D01*
X0119666Y0082677D01*
X0120184Y0083092D01*
X0120711Y0083493D01*
X0121249Y0083881D01*
X0121795Y0084256D01*
X0122351Y0084618D01*
X0122915Y0084966D01*
X0123488Y0085299D01*
X0124069Y0085619D01*
X0124657Y0085924D01*
X0125253Y0086215D01*
X0125855Y0086491D01*
X0126464Y0086752D01*
X0127080Y0086998D01*
X0127701Y0087229D01*
X0128328Y0087445D01*
X0128960Y0087645D01*
X0129597Y0087830D01*
X0130238Y0087999D01*
X0130883Y0088152D01*
X0131531Y0088289D01*
X0132183Y0088410D01*
X0132837Y0088516D01*
X0133494Y0088605D01*
X0134153Y0088678D01*
X0134813Y0088735D01*
X0135475Y0088775D01*
X0136137Y0088800D01*
X0136800Y0088808D01*
X0137463Y0088800D01*
X0138125Y0088775D01*
X0138787Y0088735D01*
X0139447Y0088678D01*
X0140106Y0088605D01*
X0140763Y0088516D01*
X0141417Y0088410D01*
X0142069Y0088289D01*
X0142717Y0088152D01*
X0143362Y0087999D01*
X0144003Y0087830D01*
X0144640Y0087645D01*
X0145272Y0087445D01*
X0145899Y0087229D01*
X0146520Y0086998D01*
X0147136Y0086752D01*
X0147745Y0086491D01*
X0148347Y0086215D01*
X0148943Y0085924D01*
X0149531Y0085619D01*
X0150112Y0085299D01*
X0150685Y0084966D01*
X0151249Y0084618D01*
X0151805Y0084256D01*
X0152351Y0083881D01*
X0152889Y0083493D01*
X0153416Y0083092D01*
X0153934Y0082677D01*
X0154441Y0082251D01*
X0154937Y0081812D01*
X0155423Y0081360D01*
X0155898Y0080898D01*
X0156360Y0080423D01*
X0156812Y0079937D01*
X0157251Y0079441D01*
X0157677Y0078934D01*
X0158092Y0078416D01*
X0158493Y0077889D01*
X0158881Y0077351D01*
X0159256Y0076805D01*
X0159618Y0076249D01*
X0159966Y0075685D01*
X0160299Y0075112D01*
X0160619Y0074531D01*
X0160924Y0073943D01*
X0161215Y0073347D01*
X0161491Y0072745D01*
X0161752Y0072136D01*
X0161998Y0071520D01*
X0162229Y0070899D01*
X0162445Y0070272D01*
X0162645Y0069640D01*
X0162830Y0069003D01*
X0162999Y0068362D01*
X0163152Y0067717D01*
X0163289Y0067069D01*
X0163410Y0066417D01*
X0163516Y0065763D01*
X0163605Y0065106D01*
X0163678Y0064447D01*
X0163735Y0063787D01*
X0163775Y0063125D01*
X0163800Y0062463D01*
X0163808Y0061800D01*
X0163800Y0061137D01*
X0163775Y0060475D01*
X0163735Y0059813D01*
X0163678Y0059153D01*
X0163605Y0058494D01*
X0163516Y0057837D01*
X0163410Y0057183D01*
X0163289Y0056531D01*
X0163152Y0055883D01*
X0162999Y0055238D01*
X0162830Y0054597D01*
X0162645Y0053960D01*
X0162445Y0053328D01*
X0162229Y0052701D01*
X0161998Y0052080D01*
X0161752Y0051464D01*
X0161491Y0050855D01*
X0161215Y0050253D01*
X0160924Y0049657D01*
X0160619Y0049069D01*
X0160299Y0048488D01*
X0159966Y0047915D01*
X0159618Y0047351D01*
X0159256Y0046795D01*
X0158881Y0046249D01*
X0158493Y0045711D01*
X0158092Y0045184D01*
X0157677Y0044666D01*
X0157251Y0044159D01*
X0156812Y0043663D01*
X0156360Y0043177D01*
X0155898Y0042702D01*
X0155423Y0042240D01*
X0154937Y0041788D01*
X0154441Y0041349D01*
X0153934Y0040923D01*
X0153416Y0040508D01*
X0152889Y0040107D01*
X0152351Y0039719D01*
X0151805Y0039344D01*
X0151249Y0038982D01*
X0150685Y0038634D01*
X0150112Y0038301D01*
X0149531Y0037981D01*
X0148943Y0037676D01*
X0148347Y0037385D01*
X0147745Y0037109D01*
X0147136Y0036848D01*
X0146520Y0036602D01*
X0145899Y0036371D01*
X0145272Y0036155D01*
X0144640Y0035955D01*
X0144003Y0035770D01*
X0143362Y0035601D01*
X0142717Y0035448D01*
X0142069Y0035311D01*
X0141417Y0035190D01*
X0140763Y0035084D01*
X0140106Y0034995D01*
X0139447Y0034922D01*
X0138787Y0034865D01*
X0138125Y0034825D01*
X0137463Y0034800D01*
X0136800Y0034792D01*
X0136137Y0034800D01*
X0135475Y0034825D01*
X0134813Y0034865D01*
X0134153Y0034922D01*
X0133494Y0034995D01*
X0132837Y0035084D01*
X0132183Y0035190D01*
X0131531Y0035311D01*
X0130883Y0035448D01*
X0130238Y0035601D01*
X0129597Y0035770D01*
X0128960Y0035955D01*
X0128328Y0036155D01*
X0127701Y0036371D01*
X0127080Y0036602D01*
X0126464Y0036848D01*
X0125855Y0037109D01*
X0125253Y0037385D01*
X0124657Y0037676D01*
X0124069Y0037981D01*
X0123488Y0038301D01*
X0122915Y0038634D01*
X0122351Y0038982D01*
X0121795Y0039344D01*
X0121249Y0039719D01*
X0120711Y0040107D01*
X0120184Y0040508D01*
X0119666Y0040923D01*
X0119159Y0041349D01*
X0118663Y0041788D01*
X0118177Y0042240D01*
X0117702Y0042702D01*
X0117240Y0043177D01*
X0116788Y0043663D01*
X0116349Y0044159D01*
X0115923Y0044666D01*
X0115508Y0045184D01*
X0115107Y0045711D01*
X0114719Y0046249D01*
X0114344Y0046795D01*
X0113982Y0047351D01*
X0113634Y0047915D01*
X0113301Y0048488D01*
X0112981Y0049069D01*
X0112676Y0049657D01*
X0112385Y0050253D01*
X0112109Y0050855D01*
X0111848Y0051464D01*
X0111602Y0052080D01*
X0111371Y0052701D01*
X0111155Y0053328D01*
X0110955Y0053960D01*
X0110770Y0054597D01*
X0110601Y0055238D01*
X0110448Y0055883D01*
X0110311Y0056531D01*
X0110190Y0057183D01*
X0110084Y0057837D01*
X0109995Y0058494D01*
X0109922Y0059153D01*
X0109865Y0059813D01*
X0109825Y0060475D01*
X0109800Y0061137D01*
X0109792Y0061800D01*
X0184792Y0061800D02*
X0184800Y0062463D01*
X0184825Y0063125D01*
X0184865Y0063787D01*
X0184922Y0064447D01*
X0184995Y0065106D01*
X0185084Y0065763D01*
X0185190Y0066417D01*
X0185311Y0067069D01*
X0185448Y0067717D01*
X0185601Y0068362D01*
X0185770Y0069003D01*
X0185955Y0069640D01*
X0186155Y0070272D01*
X0186371Y0070899D01*
X0186602Y0071520D01*
X0186848Y0072136D01*
X0187109Y0072745D01*
X0187385Y0073347D01*
X0187676Y0073943D01*
X0187981Y0074531D01*
X0188301Y0075112D01*
X0188634Y0075685D01*
X0188982Y0076249D01*
X0189344Y0076805D01*
X0189719Y0077351D01*
X0190107Y0077889D01*
X0190508Y0078416D01*
X0190923Y0078934D01*
X0191349Y0079441D01*
X0191788Y0079937D01*
X0192240Y0080423D01*
X0192702Y0080898D01*
X0193177Y0081360D01*
X0193663Y0081812D01*
X0194159Y0082251D01*
X0194666Y0082677D01*
X0195184Y0083092D01*
X0195711Y0083493D01*
X0196249Y0083881D01*
X0196795Y0084256D01*
X0197351Y0084618D01*
X0197915Y0084966D01*
X0198488Y0085299D01*
X0199069Y0085619D01*
X0199657Y0085924D01*
X0200253Y0086215D01*
X0200855Y0086491D01*
X0201464Y0086752D01*
X0202080Y0086998D01*
X0202701Y0087229D01*
X0203328Y0087445D01*
X0203960Y0087645D01*
X0204597Y0087830D01*
X0205238Y0087999D01*
X0205883Y0088152D01*
X0206531Y0088289D01*
X0207183Y0088410D01*
X0207837Y0088516D01*
X0208494Y0088605D01*
X0209153Y0088678D01*
X0209813Y0088735D01*
X0210475Y0088775D01*
X0211137Y0088800D01*
X0211800Y0088808D01*
X0212463Y0088800D01*
X0213125Y0088775D01*
X0213787Y0088735D01*
X0214447Y0088678D01*
X0215106Y0088605D01*
X0215763Y0088516D01*
X0216417Y0088410D01*
X0217069Y0088289D01*
X0217717Y0088152D01*
X0218362Y0087999D01*
X0219003Y0087830D01*
X0219640Y0087645D01*
X0220272Y0087445D01*
X0220899Y0087229D01*
X0221520Y0086998D01*
X0222136Y0086752D01*
X0222745Y0086491D01*
X0223347Y0086215D01*
X0223943Y0085924D01*
X0224531Y0085619D01*
X0225112Y0085299D01*
X0225685Y0084966D01*
X0226249Y0084618D01*
X0226805Y0084256D01*
X0227351Y0083881D01*
X0227889Y0083493D01*
X0228416Y0083092D01*
X0228934Y0082677D01*
X0229441Y0082251D01*
X0229937Y0081812D01*
X0230423Y0081360D01*
X0230898Y0080898D01*
X0231360Y0080423D01*
X0231812Y0079937D01*
X0232251Y0079441D01*
X0232677Y0078934D01*
X0233092Y0078416D01*
X0233493Y0077889D01*
X0233881Y0077351D01*
X0234256Y0076805D01*
X0234618Y0076249D01*
X0234966Y0075685D01*
X0235299Y0075112D01*
X0235619Y0074531D01*
X0235924Y0073943D01*
X0236215Y0073347D01*
X0236491Y0072745D01*
X0236752Y0072136D01*
X0236998Y0071520D01*
X0237229Y0070899D01*
X0237445Y0070272D01*
X0237645Y0069640D01*
X0237830Y0069003D01*
X0237999Y0068362D01*
X0238152Y0067717D01*
X0238289Y0067069D01*
X0238410Y0066417D01*
X0238516Y0065763D01*
X0238605Y0065106D01*
X0238678Y0064447D01*
X0238735Y0063787D01*
X0238775Y0063125D01*
X0238800Y0062463D01*
X0238808Y0061800D01*
X0238800Y0061137D01*
X0238775Y0060475D01*
X0238735Y0059813D01*
X0238678Y0059153D01*
X0238605Y0058494D01*
X0238516Y0057837D01*
X0238410Y0057183D01*
X0238289Y0056531D01*
X0238152Y0055883D01*
X0237999Y0055238D01*
X0237830Y0054597D01*
X0237645Y0053960D01*
X0237445Y0053328D01*
X0237229Y0052701D01*
X0236998Y0052080D01*
X0236752Y0051464D01*
X0236491Y0050855D01*
X0236215Y0050253D01*
X0235924Y0049657D01*
X0235619Y0049069D01*
X0235299Y0048488D01*
X0234966Y0047915D01*
X0234618Y0047351D01*
X0234256Y0046795D01*
X0233881Y0046249D01*
X0233493Y0045711D01*
X0233092Y0045184D01*
X0232677Y0044666D01*
X0232251Y0044159D01*
X0231812Y0043663D01*
X0231360Y0043177D01*
X0230898Y0042702D01*
X0230423Y0042240D01*
X0229937Y0041788D01*
X0229441Y0041349D01*
X0228934Y0040923D01*
X0228416Y0040508D01*
X0227889Y0040107D01*
X0227351Y0039719D01*
X0226805Y0039344D01*
X0226249Y0038982D01*
X0225685Y0038634D01*
X0225112Y0038301D01*
X0224531Y0037981D01*
X0223943Y0037676D01*
X0223347Y0037385D01*
X0222745Y0037109D01*
X0222136Y0036848D01*
X0221520Y0036602D01*
X0220899Y0036371D01*
X0220272Y0036155D01*
X0219640Y0035955D01*
X0219003Y0035770D01*
X0218362Y0035601D01*
X0217717Y0035448D01*
X0217069Y0035311D01*
X0216417Y0035190D01*
X0215763Y0035084D01*
X0215106Y0034995D01*
X0214447Y0034922D01*
X0213787Y0034865D01*
X0213125Y0034825D01*
X0212463Y0034800D01*
X0211800Y0034792D01*
X0211137Y0034800D01*
X0210475Y0034825D01*
X0209813Y0034865D01*
X0209153Y0034922D01*
X0208494Y0034995D01*
X0207837Y0035084D01*
X0207183Y0035190D01*
X0206531Y0035311D01*
X0205883Y0035448D01*
X0205238Y0035601D01*
X0204597Y0035770D01*
X0203960Y0035955D01*
X0203328Y0036155D01*
X0202701Y0036371D01*
X0202080Y0036602D01*
X0201464Y0036848D01*
X0200855Y0037109D01*
X0200253Y0037385D01*
X0199657Y0037676D01*
X0199069Y0037981D01*
X0198488Y0038301D01*
X0197915Y0038634D01*
X0197351Y0038982D01*
X0196795Y0039344D01*
X0196249Y0039719D01*
X0195711Y0040107D01*
X0195184Y0040508D01*
X0194666Y0040923D01*
X0194159Y0041349D01*
X0193663Y0041788D01*
X0193177Y0042240D01*
X0192702Y0042702D01*
X0192240Y0043177D01*
X0191788Y0043663D01*
X0191349Y0044159D01*
X0190923Y0044666D01*
X0190508Y0045184D01*
X0190107Y0045711D01*
X0189719Y0046249D01*
X0189344Y0046795D01*
X0188982Y0047351D01*
X0188634Y0047915D01*
X0188301Y0048488D01*
X0187981Y0049069D01*
X0187676Y0049657D01*
X0187385Y0050253D01*
X0187109Y0050855D01*
X0186848Y0051464D01*
X0186602Y0052080D01*
X0186371Y0052701D01*
X0186155Y0053328D01*
X0185955Y0053960D01*
X0185770Y0054597D01*
X0185601Y0055238D01*
X0185448Y0055883D01*
X0185311Y0056531D01*
X0185190Y0057183D01*
X0185084Y0057837D01*
X0184995Y0058494D01*
X0184922Y0059153D01*
X0184865Y0059813D01*
X0184825Y0060475D01*
X0184800Y0061137D01*
X0184792Y0061800D01*
X0259792Y0061800D02*
X0259800Y0062463D01*
X0259825Y0063125D01*
X0259865Y0063787D01*
X0259922Y0064447D01*
X0259995Y0065106D01*
X0260084Y0065763D01*
X0260190Y0066417D01*
X0260311Y0067069D01*
X0260448Y0067717D01*
X0260601Y0068362D01*
X0260770Y0069003D01*
X0260955Y0069640D01*
X0261155Y0070272D01*
X0261371Y0070899D01*
X0261602Y0071520D01*
X0261848Y0072136D01*
X0262109Y0072745D01*
X0262385Y0073347D01*
X0262676Y0073943D01*
X0262981Y0074531D01*
X0263301Y0075112D01*
X0263634Y0075685D01*
X0263982Y0076249D01*
X0264344Y0076805D01*
X0264719Y0077351D01*
X0265107Y0077889D01*
X0265508Y0078416D01*
X0265923Y0078934D01*
X0266349Y0079441D01*
X0266788Y0079937D01*
X0267240Y0080423D01*
X0267702Y0080898D01*
X0268177Y0081360D01*
X0268663Y0081812D01*
X0269159Y0082251D01*
X0269666Y0082677D01*
X0270184Y0083092D01*
X0270711Y0083493D01*
X0271249Y0083881D01*
X0271795Y0084256D01*
X0272351Y0084618D01*
X0272915Y0084966D01*
X0273488Y0085299D01*
X0274069Y0085619D01*
X0274657Y0085924D01*
X0275253Y0086215D01*
X0275855Y0086491D01*
X0276464Y0086752D01*
X0277080Y0086998D01*
X0277701Y0087229D01*
X0278328Y0087445D01*
X0278960Y0087645D01*
X0279597Y0087830D01*
X0280238Y0087999D01*
X0280883Y0088152D01*
X0281531Y0088289D01*
X0282183Y0088410D01*
X0282837Y0088516D01*
X0283494Y0088605D01*
X0284153Y0088678D01*
X0284813Y0088735D01*
X0285475Y0088775D01*
X0286137Y0088800D01*
X0286800Y0088808D01*
X0287463Y0088800D01*
X0288125Y0088775D01*
X0288787Y0088735D01*
X0289447Y0088678D01*
X0290106Y0088605D01*
X0290763Y0088516D01*
X0291417Y0088410D01*
X0292069Y0088289D01*
X0292717Y0088152D01*
X0293362Y0087999D01*
X0294003Y0087830D01*
X0294640Y0087645D01*
X0295272Y0087445D01*
X0295899Y0087229D01*
X0296520Y0086998D01*
X0297136Y0086752D01*
X0297745Y0086491D01*
X0298347Y0086215D01*
X0298943Y0085924D01*
X0299531Y0085619D01*
X0300112Y0085299D01*
X0300685Y0084966D01*
X0301249Y0084618D01*
X0301805Y0084256D01*
X0302351Y0083881D01*
X0302889Y0083493D01*
X0303416Y0083092D01*
X0303934Y0082677D01*
X0304441Y0082251D01*
X0304937Y0081812D01*
X0305423Y0081360D01*
X0305898Y0080898D01*
X0306360Y0080423D01*
X0306812Y0079937D01*
X0307251Y0079441D01*
X0307677Y0078934D01*
X0308092Y0078416D01*
X0308493Y0077889D01*
X0308881Y0077351D01*
X0309256Y0076805D01*
X0309618Y0076249D01*
X0309966Y0075685D01*
X0310299Y0075112D01*
X0310619Y0074531D01*
X0310924Y0073943D01*
X0311215Y0073347D01*
X0311491Y0072745D01*
X0311752Y0072136D01*
X0311998Y0071520D01*
X0312229Y0070899D01*
X0312445Y0070272D01*
X0312645Y0069640D01*
X0312830Y0069003D01*
X0312999Y0068362D01*
X0313152Y0067717D01*
X0313289Y0067069D01*
X0313410Y0066417D01*
X0313516Y0065763D01*
X0313605Y0065106D01*
X0313678Y0064447D01*
X0313735Y0063787D01*
X0313775Y0063125D01*
X0313800Y0062463D01*
X0313808Y0061800D01*
X0313800Y0061137D01*
X0313775Y0060475D01*
X0313735Y0059813D01*
X0313678Y0059153D01*
X0313605Y0058494D01*
X0313516Y0057837D01*
X0313410Y0057183D01*
X0313289Y0056531D01*
X0313152Y0055883D01*
X0312999Y0055238D01*
X0312830Y0054597D01*
X0312645Y0053960D01*
X0312445Y0053328D01*
X0312229Y0052701D01*
X0311998Y0052080D01*
X0311752Y0051464D01*
X0311491Y0050855D01*
X0311215Y0050253D01*
X0310924Y0049657D01*
X0310619Y0049069D01*
X0310299Y0048488D01*
X0309966Y0047915D01*
X0309618Y0047351D01*
X0309256Y0046795D01*
X0308881Y0046249D01*
X0308493Y0045711D01*
X0308092Y0045184D01*
X0307677Y0044666D01*
X0307251Y0044159D01*
X0306812Y0043663D01*
X0306360Y0043177D01*
X0305898Y0042702D01*
X0305423Y0042240D01*
X0304937Y0041788D01*
X0304441Y0041349D01*
X0303934Y0040923D01*
X0303416Y0040508D01*
X0302889Y0040107D01*
X0302351Y0039719D01*
X0301805Y0039344D01*
X0301249Y0038982D01*
X0300685Y0038634D01*
X0300112Y0038301D01*
X0299531Y0037981D01*
X0298943Y0037676D01*
X0298347Y0037385D01*
X0297745Y0037109D01*
X0297136Y0036848D01*
X0296520Y0036602D01*
X0295899Y0036371D01*
X0295272Y0036155D01*
X0294640Y0035955D01*
X0294003Y0035770D01*
X0293362Y0035601D01*
X0292717Y0035448D01*
X0292069Y0035311D01*
X0291417Y0035190D01*
X0290763Y0035084D01*
X0290106Y0034995D01*
X0289447Y0034922D01*
X0288787Y0034865D01*
X0288125Y0034825D01*
X0287463Y0034800D01*
X0286800Y0034792D01*
X0286137Y0034800D01*
X0285475Y0034825D01*
X0284813Y0034865D01*
X0284153Y0034922D01*
X0283494Y0034995D01*
X0282837Y0035084D01*
X0282183Y0035190D01*
X0281531Y0035311D01*
X0280883Y0035448D01*
X0280238Y0035601D01*
X0279597Y0035770D01*
X0278960Y0035955D01*
X0278328Y0036155D01*
X0277701Y0036371D01*
X0277080Y0036602D01*
X0276464Y0036848D01*
X0275855Y0037109D01*
X0275253Y0037385D01*
X0274657Y0037676D01*
X0274069Y0037981D01*
X0273488Y0038301D01*
X0272915Y0038634D01*
X0272351Y0038982D01*
X0271795Y0039344D01*
X0271249Y0039719D01*
X0270711Y0040107D01*
X0270184Y0040508D01*
X0269666Y0040923D01*
X0269159Y0041349D01*
X0268663Y0041788D01*
X0268177Y0042240D01*
X0267702Y0042702D01*
X0267240Y0043177D01*
X0266788Y0043663D01*
X0266349Y0044159D01*
X0265923Y0044666D01*
X0265508Y0045184D01*
X0265107Y0045711D01*
X0264719Y0046249D01*
X0264344Y0046795D01*
X0263982Y0047351D01*
X0263634Y0047915D01*
X0263301Y0048488D01*
X0262981Y0049069D01*
X0262676Y0049657D01*
X0262385Y0050253D01*
X0262109Y0050855D01*
X0261848Y0051464D01*
X0261602Y0052080D01*
X0261371Y0052701D01*
X0261155Y0053328D01*
X0260955Y0053960D01*
X0260770Y0054597D01*
X0260601Y0055238D01*
X0260448Y0055883D01*
X0260311Y0056531D01*
X0260190Y0057183D01*
X0260084Y0057837D01*
X0259995Y0058494D01*
X0259922Y0059153D01*
X0259865Y0059813D01*
X0259825Y0060475D01*
X0259800Y0061137D01*
X0259792Y0061800D01*
X0359246Y0130039D02*
X0359246Y0131541D01*
X0359246Y0130790D02*
X0362999Y0130790D01*
X0363750Y0130039D01*
X0363750Y0129289D01*
X0362999Y0128538D01*
X0362249Y0133142D02*
X0362249Y0135394D01*
X0361498Y0136145D01*
X0359997Y0136145D01*
X0359246Y0135394D01*
X0359246Y0133142D01*
X0363750Y0133142D01*
X0363750Y0137746D02*
X0363750Y0140749D01*
X0363750Y0139247D02*
X0359246Y0139247D01*
X0360747Y0137746D01*
X0375050Y0143050D02*
X0376551Y0143050D01*
X0375801Y0143050D02*
X0375801Y0147554D01*
X0376551Y0147554D02*
X0375050Y0147554D01*
X0378119Y0146803D02*
X0378119Y0143801D01*
X0378870Y0143050D01*
X0380371Y0143050D01*
X0381122Y0143801D01*
X0382723Y0143050D02*
X0385726Y0143050D01*
X0384224Y0143050D02*
X0384224Y0147554D01*
X0382723Y0146053D01*
X0381122Y0146803D02*
X0380371Y0147554D01*
X0378870Y0147554D01*
X0378119Y0146803D01*
X0363750Y0159289D02*
X0363750Y0160039D01*
X0362999Y0160790D01*
X0359246Y0160790D01*
X0359246Y0160039D02*
X0359246Y0161541D01*
X0359246Y0163142D02*
X0359246Y0165394D01*
X0359997Y0166145D01*
X0361498Y0166145D01*
X0362249Y0165394D01*
X0362249Y0163142D01*
X0363750Y0163142D02*
X0359246Y0163142D01*
X0359997Y0167746D02*
X0359246Y0168497D01*
X0359246Y0169998D01*
X0359997Y0170749D01*
X0360747Y0170749D01*
X0363750Y0167746D01*
X0363750Y0170749D01*
X0363750Y0159289D02*
X0362999Y0158538D01*
X0329792Y0201800D02*
X0329800Y0202463D01*
X0329825Y0203125D01*
X0329865Y0203787D01*
X0329922Y0204447D01*
X0329995Y0205106D01*
X0330084Y0205763D01*
X0330190Y0206417D01*
X0330311Y0207069D01*
X0330448Y0207717D01*
X0330601Y0208362D01*
X0330770Y0209003D01*
X0330955Y0209640D01*
X0331155Y0210272D01*
X0331371Y0210899D01*
X0331602Y0211520D01*
X0331848Y0212136D01*
X0332109Y0212745D01*
X0332385Y0213347D01*
X0332676Y0213943D01*
X0332981Y0214531D01*
X0333301Y0215112D01*
X0333634Y0215685D01*
X0333982Y0216249D01*
X0334344Y0216805D01*
X0334719Y0217351D01*
X0335107Y0217889D01*
X0335508Y0218416D01*
X0335923Y0218934D01*
X0336349Y0219441D01*
X0336788Y0219937D01*
X0337240Y0220423D01*
X0337702Y0220898D01*
X0338177Y0221360D01*
X0338663Y0221812D01*
X0339159Y0222251D01*
X0339666Y0222677D01*
X0340184Y0223092D01*
X0340711Y0223493D01*
X0341249Y0223881D01*
X0341795Y0224256D01*
X0342351Y0224618D01*
X0342915Y0224966D01*
X0343488Y0225299D01*
X0344069Y0225619D01*
X0344657Y0225924D01*
X0345253Y0226215D01*
X0345855Y0226491D01*
X0346464Y0226752D01*
X0347080Y0226998D01*
X0347701Y0227229D01*
X0348328Y0227445D01*
X0348960Y0227645D01*
X0349597Y0227830D01*
X0350238Y0227999D01*
X0350883Y0228152D01*
X0351531Y0228289D01*
X0352183Y0228410D01*
X0352837Y0228516D01*
X0353494Y0228605D01*
X0354153Y0228678D01*
X0354813Y0228735D01*
X0355475Y0228775D01*
X0356137Y0228800D01*
X0356800Y0228808D01*
X0357463Y0228800D01*
X0358125Y0228775D01*
X0358787Y0228735D01*
X0359447Y0228678D01*
X0360106Y0228605D01*
X0360763Y0228516D01*
X0361417Y0228410D01*
X0362069Y0228289D01*
X0362717Y0228152D01*
X0363362Y0227999D01*
X0364003Y0227830D01*
X0364640Y0227645D01*
X0365272Y0227445D01*
X0365899Y0227229D01*
X0366520Y0226998D01*
X0367136Y0226752D01*
X0367745Y0226491D01*
X0368347Y0226215D01*
X0368943Y0225924D01*
X0369531Y0225619D01*
X0370112Y0225299D01*
X0370685Y0224966D01*
X0371249Y0224618D01*
X0371805Y0224256D01*
X0372351Y0223881D01*
X0372889Y0223493D01*
X0373416Y0223092D01*
X0373934Y0222677D01*
X0374441Y0222251D01*
X0374937Y0221812D01*
X0375423Y0221360D01*
X0375898Y0220898D01*
X0376360Y0220423D01*
X0376812Y0219937D01*
X0377251Y0219441D01*
X0377677Y0218934D01*
X0378092Y0218416D01*
X0378493Y0217889D01*
X0378881Y0217351D01*
X0379256Y0216805D01*
X0379618Y0216249D01*
X0379966Y0215685D01*
X0380299Y0215112D01*
X0380619Y0214531D01*
X0380924Y0213943D01*
X0381215Y0213347D01*
X0381491Y0212745D01*
X0381752Y0212136D01*
X0381998Y0211520D01*
X0382229Y0210899D01*
X0382445Y0210272D01*
X0382645Y0209640D01*
X0382830Y0209003D01*
X0382999Y0208362D01*
X0383152Y0207717D01*
X0383289Y0207069D01*
X0383410Y0206417D01*
X0383516Y0205763D01*
X0383605Y0205106D01*
X0383678Y0204447D01*
X0383735Y0203787D01*
X0383775Y0203125D01*
X0383800Y0202463D01*
X0383808Y0201800D01*
X0383800Y0201137D01*
X0383775Y0200475D01*
X0383735Y0199813D01*
X0383678Y0199153D01*
X0383605Y0198494D01*
X0383516Y0197837D01*
X0383410Y0197183D01*
X0383289Y0196531D01*
X0383152Y0195883D01*
X0382999Y0195238D01*
X0382830Y0194597D01*
X0382645Y0193960D01*
X0382445Y0193328D01*
X0382229Y0192701D01*
X0381998Y0192080D01*
X0381752Y0191464D01*
X0381491Y0190855D01*
X0381215Y0190253D01*
X0380924Y0189657D01*
X0380619Y0189069D01*
X0380299Y0188488D01*
X0379966Y0187915D01*
X0379618Y0187351D01*
X0379256Y0186795D01*
X0378881Y0186249D01*
X0378493Y0185711D01*
X0378092Y0185184D01*
X0377677Y0184666D01*
X0377251Y0184159D01*
X0376812Y0183663D01*
X0376360Y0183177D01*
X0375898Y0182702D01*
X0375423Y0182240D01*
X0374937Y0181788D01*
X0374441Y0181349D01*
X0373934Y0180923D01*
X0373416Y0180508D01*
X0372889Y0180107D01*
X0372351Y0179719D01*
X0371805Y0179344D01*
X0371249Y0178982D01*
X0370685Y0178634D01*
X0370112Y0178301D01*
X0369531Y0177981D01*
X0368943Y0177676D01*
X0368347Y0177385D01*
X0367745Y0177109D01*
X0367136Y0176848D01*
X0366520Y0176602D01*
X0365899Y0176371D01*
X0365272Y0176155D01*
X0364640Y0175955D01*
X0364003Y0175770D01*
X0363362Y0175601D01*
X0362717Y0175448D01*
X0362069Y0175311D01*
X0361417Y0175190D01*
X0360763Y0175084D01*
X0360106Y0174995D01*
X0359447Y0174922D01*
X0358787Y0174865D01*
X0358125Y0174825D01*
X0357463Y0174800D01*
X0356800Y0174792D01*
X0356137Y0174800D01*
X0355475Y0174825D01*
X0354813Y0174865D01*
X0354153Y0174922D01*
X0353494Y0174995D01*
X0352837Y0175084D01*
X0352183Y0175190D01*
X0351531Y0175311D01*
X0350883Y0175448D01*
X0350238Y0175601D01*
X0349597Y0175770D01*
X0348960Y0175955D01*
X0348328Y0176155D01*
X0347701Y0176371D01*
X0347080Y0176602D01*
X0346464Y0176848D01*
X0345855Y0177109D01*
X0345253Y0177385D01*
X0344657Y0177676D01*
X0344069Y0177981D01*
X0343488Y0178301D01*
X0342915Y0178634D01*
X0342351Y0178982D01*
X0341795Y0179344D01*
X0341249Y0179719D01*
X0340711Y0180107D01*
X0340184Y0180508D01*
X0339666Y0180923D01*
X0339159Y0181349D01*
X0338663Y0181788D01*
X0338177Y0182240D01*
X0337702Y0182702D01*
X0337240Y0183177D01*
X0336788Y0183663D01*
X0336349Y0184159D01*
X0335923Y0184666D01*
X0335508Y0185184D01*
X0335107Y0185711D01*
X0334719Y0186249D01*
X0334344Y0186795D01*
X0333982Y0187351D01*
X0333634Y0187915D01*
X0333301Y0188488D01*
X0332981Y0189069D01*
X0332676Y0189657D01*
X0332385Y0190253D01*
X0332109Y0190855D01*
X0331848Y0191464D01*
X0331602Y0192080D01*
X0331371Y0192701D01*
X0331155Y0193328D01*
X0330955Y0193960D01*
X0330770Y0194597D01*
X0330601Y0195238D01*
X0330448Y0195883D01*
X0330311Y0196531D01*
X0330190Y0197183D01*
X0330084Y0197837D01*
X0329995Y0198494D01*
X0329922Y0199153D01*
X0329865Y0199813D01*
X0329825Y0200475D01*
X0329800Y0201137D01*
X0329792Y0201800D01*
X0259792Y0211800D02*
X0259800Y0212463D01*
X0259825Y0213125D01*
X0259865Y0213787D01*
X0259922Y0214447D01*
X0259995Y0215106D01*
X0260084Y0215763D01*
X0260190Y0216417D01*
X0260311Y0217069D01*
X0260448Y0217717D01*
X0260601Y0218362D01*
X0260770Y0219003D01*
X0260955Y0219640D01*
X0261155Y0220272D01*
X0261371Y0220899D01*
X0261602Y0221520D01*
X0261848Y0222136D01*
X0262109Y0222745D01*
X0262385Y0223347D01*
X0262676Y0223943D01*
X0262981Y0224531D01*
X0263301Y0225112D01*
X0263634Y0225685D01*
X0263982Y0226249D01*
X0264344Y0226805D01*
X0264719Y0227351D01*
X0265107Y0227889D01*
X0265508Y0228416D01*
X0265923Y0228934D01*
X0266349Y0229441D01*
X0266788Y0229937D01*
X0267240Y0230423D01*
X0267702Y0230898D01*
X0268177Y0231360D01*
X0268663Y0231812D01*
X0269159Y0232251D01*
X0269666Y0232677D01*
X0270184Y0233092D01*
X0270711Y0233493D01*
X0271249Y0233881D01*
X0271795Y0234256D01*
X0272351Y0234618D01*
X0272915Y0234966D01*
X0273488Y0235299D01*
X0274069Y0235619D01*
X0274657Y0235924D01*
X0275253Y0236215D01*
X0275855Y0236491D01*
X0276464Y0236752D01*
X0277080Y0236998D01*
X0277701Y0237229D01*
X0278328Y0237445D01*
X0278960Y0237645D01*
X0279597Y0237830D01*
X0280238Y0237999D01*
X0280883Y0238152D01*
X0281531Y0238289D01*
X0282183Y0238410D01*
X0282837Y0238516D01*
X0283494Y0238605D01*
X0284153Y0238678D01*
X0284813Y0238735D01*
X0285475Y0238775D01*
X0286137Y0238800D01*
X0286800Y0238808D01*
X0287463Y0238800D01*
X0288125Y0238775D01*
X0288787Y0238735D01*
X0289447Y0238678D01*
X0290106Y0238605D01*
X0290763Y0238516D01*
X0291417Y0238410D01*
X0292069Y0238289D01*
X0292717Y0238152D01*
X0293362Y0237999D01*
X0294003Y0237830D01*
X0294640Y0237645D01*
X0295272Y0237445D01*
X0295899Y0237229D01*
X0296520Y0236998D01*
X0297136Y0236752D01*
X0297745Y0236491D01*
X0298347Y0236215D01*
X0298943Y0235924D01*
X0299531Y0235619D01*
X0300112Y0235299D01*
X0300685Y0234966D01*
X0301249Y0234618D01*
X0301805Y0234256D01*
X0302351Y0233881D01*
X0302889Y0233493D01*
X0303416Y0233092D01*
X0303934Y0232677D01*
X0304441Y0232251D01*
X0304937Y0231812D01*
X0305423Y0231360D01*
X0305898Y0230898D01*
X0306360Y0230423D01*
X0306812Y0229937D01*
X0307251Y0229441D01*
X0307677Y0228934D01*
X0308092Y0228416D01*
X0308493Y0227889D01*
X0308881Y0227351D01*
X0309256Y0226805D01*
X0309618Y0226249D01*
X0309966Y0225685D01*
X0310299Y0225112D01*
X0310619Y0224531D01*
X0310924Y0223943D01*
X0311215Y0223347D01*
X0311491Y0222745D01*
X0311752Y0222136D01*
X0311998Y0221520D01*
X0312229Y0220899D01*
X0312445Y0220272D01*
X0312645Y0219640D01*
X0312830Y0219003D01*
X0312999Y0218362D01*
X0313152Y0217717D01*
X0313289Y0217069D01*
X0313410Y0216417D01*
X0313516Y0215763D01*
X0313605Y0215106D01*
X0313678Y0214447D01*
X0313735Y0213787D01*
X0313775Y0213125D01*
X0313800Y0212463D01*
X0313808Y0211800D01*
X0313800Y0211137D01*
X0313775Y0210475D01*
X0313735Y0209813D01*
X0313678Y0209153D01*
X0313605Y0208494D01*
X0313516Y0207837D01*
X0313410Y0207183D01*
X0313289Y0206531D01*
X0313152Y0205883D01*
X0312999Y0205238D01*
X0312830Y0204597D01*
X0312645Y0203960D01*
X0312445Y0203328D01*
X0312229Y0202701D01*
X0311998Y0202080D01*
X0311752Y0201464D01*
X0311491Y0200855D01*
X0311215Y0200253D01*
X0310924Y0199657D01*
X0310619Y0199069D01*
X0310299Y0198488D01*
X0309966Y0197915D01*
X0309618Y0197351D01*
X0309256Y0196795D01*
X0308881Y0196249D01*
X0308493Y0195711D01*
X0308092Y0195184D01*
X0307677Y0194666D01*
X0307251Y0194159D01*
X0306812Y0193663D01*
X0306360Y0193177D01*
X0305898Y0192702D01*
X0305423Y0192240D01*
X0304937Y0191788D01*
X0304441Y0191349D01*
X0303934Y0190923D01*
X0303416Y0190508D01*
X0302889Y0190107D01*
X0302351Y0189719D01*
X0301805Y0189344D01*
X0301249Y0188982D01*
X0300685Y0188634D01*
X0300112Y0188301D01*
X0299531Y0187981D01*
X0298943Y0187676D01*
X0298347Y0187385D01*
X0297745Y0187109D01*
X0297136Y0186848D01*
X0296520Y0186602D01*
X0295899Y0186371D01*
X0295272Y0186155D01*
X0294640Y0185955D01*
X0294003Y0185770D01*
X0293362Y0185601D01*
X0292717Y0185448D01*
X0292069Y0185311D01*
X0291417Y0185190D01*
X0290763Y0185084D01*
X0290106Y0184995D01*
X0289447Y0184922D01*
X0288787Y0184865D01*
X0288125Y0184825D01*
X0287463Y0184800D01*
X0286800Y0184792D01*
X0286137Y0184800D01*
X0285475Y0184825D01*
X0284813Y0184865D01*
X0284153Y0184922D01*
X0283494Y0184995D01*
X0282837Y0185084D01*
X0282183Y0185190D01*
X0281531Y0185311D01*
X0280883Y0185448D01*
X0280238Y0185601D01*
X0279597Y0185770D01*
X0278960Y0185955D01*
X0278328Y0186155D01*
X0277701Y0186371D01*
X0277080Y0186602D01*
X0276464Y0186848D01*
X0275855Y0187109D01*
X0275253Y0187385D01*
X0274657Y0187676D01*
X0274069Y0187981D01*
X0273488Y0188301D01*
X0272915Y0188634D01*
X0272351Y0188982D01*
X0271795Y0189344D01*
X0271249Y0189719D01*
X0270711Y0190107D01*
X0270184Y0190508D01*
X0269666Y0190923D01*
X0269159Y0191349D01*
X0268663Y0191788D01*
X0268177Y0192240D01*
X0267702Y0192702D01*
X0267240Y0193177D01*
X0266788Y0193663D01*
X0266349Y0194159D01*
X0265923Y0194666D01*
X0265508Y0195184D01*
X0265107Y0195711D01*
X0264719Y0196249D01*
X0264344Y0196795D01*
X0263982Y0197351D01*
X0263634Y0197915D01*
X0263301Y0198488D01*
X0262981Y0199069D01*
X0262676Y0199657D01*
X0262385Y0200253D01*
X0262109Y0200855D01*
X0261848Y0201464D01*
X0261602Y0202080D01*
X0261371Y0202701D01*
X0261155Y0203328D01*
X0260955Y0203960D01*
X0260770Y0204597D01*
X0260601Y0205238D01*
X0260448Y0205883D01*
X0260311Y0206531D01*
X0260190Y0207183D01*
X0260084Y0207837D01*
X0259995Y0208494D01*
X0259922Y0209153D01*
X0259865Y0209813D01*
X0259825Y0210475D01*
X0259800Y0211137D01*
X0259792Y0211800D01*
X0184792Y0211800D02*
X0184800Y0212463D01*
X0184825Y0213125D01*
X0184865Y0213787D01*
X0184922Y0214447D01*
X0184995Y0215106D01*
X0185084Y0215763D01*
X0185190Y0216417D01*
X0185311Y0217069D01*
X0185448Y0217717D01*
X0185601Y0218362D01*
X0185770Y0219003D01*
X0185955Y0219640D01*
X0186155Y0220272D01*
X0186371Y0220899D01*
X0186602Y0221520D01*
X0186848Y0222136D01*
X0187109Y0222745D01*
X0187385Y0223347D01*
X0187676Y0223943D01*
X0187981Y0224531D01*
X0188301Y0225112D01*
X0188634Y0225685D01*
X0188982Y0226249D01*
X0189344Y0226805D01*
X0189719Y0227351D01*
X0190107Y0227889D01*
X0190508Y0228416D01*
X0190923Y0228934D01*
X0191349Y0229441D01*
X0191788Y0229937D01*
X0192240Y0230423D01*
X0192702Y0230898D01*
X0193177Y0231360D01*
X0193663Y0231812D01*
X0194159Y0232251D01*
X0194666Y0232677D01*
X0195184Y0233092D01*
X0195711Y0233493D01*
X0196249Y0233881D01*
X0196795Y0234256D01*
X0197351Y0234618D01*
X0197915Y0234966D01*
X0198488Y0235299D01*
X0199069Y0235619D01*
X0199657Y0235924D01*
X0200253Y0236215D01*
X0200855Y0236491D01*
X0201464Y0236752D01*
X0202080Y0236998D01*
X0202701Y0237229D01*
X0203328Y0237445D01*
X0203960Y0237645D01*
X0204597Y0237830D01*
X0205238Y0237999D01*
X0205883Y0238152D01*
X0206531Y0238289D01*
X0207183Y0238410D01*
X0207837Y0238516D01*
X0208494Y0238605D01*
X0209153Y0238678D01*
X0209813Y0238735D01*
X0210475Y0238775D01*
X0211137Y0238800D01*
X0211800Y0238808D01*
X0212463Y0238800D01*
X0213125Y0238775D01*
X0213787Y0238735D01*
X0214447Y0238678D01*
X0215106Y0238605D01*
X0215763Y0238516D01*
X0216417Y0238410D01*
X0217069Y0238289D01*
X0217717Y0238152D01*
X0218362Y0237999D01*
X0219003Y0237830D01*
X0219640Y0237645D01*
X0220272Y0237445D01*
X0220899Y0237229D01*
X0221520Y0236998D01*
X0222136Y0236752D01*
X0222745Y0236491D01*
X0223347Y0236215D01*
X0223943Y0235924D01*
X0224531Y0235619D01*
X0225112Y0235299D01*
X0225685Y0234966D01*
X0226249Y0234618D01*
X0226805Y0234256D01*
X0227351Y0233881D01*
X0227889Y0233493D01*
X0228416Y0233092D01*
X0228934Y0232677D01*
X0229441Y0232251D01*
X0229937Y0231812D01*
X0230423Y0231360D01*
X0230898Y0230898D01*
X0231360Y0230423D01*
X0231812Y0229937D01*
X0232251Y0229441D01*
X0232677Y0228934D01*
X0233092Y0228416D01*
X0233493Y0227889D01*
X0233881Y0227351D01*
X0234256Y0226805D01*
X0234618Y0226249D01*
X0234966Y0225685D01*
X0235299Y0225112D01*
X0235619Y0224531D01*
X0235924Y0223943D01*
X0236215Y0223347D01*
X0236491Y0222745D01*
X0236752Y0222136D01*
X0236998Y0221520D01*
X0237229Y0220899D01*
X0237445Y0220272D01*
X0237645Y0219640D01*
X0237830Y0219003D01*
X0237999Y0218362D01*
X0238152Y0217717D01*
X0238289Y0217069D01*
X0238410Y0216417D01*
X0238516Y0215763D01*
X0238605Y0215106D01*
X0238678Y0214447D01*
X0238735Y0213787D01*
X0238775Y0213125D01*
X0238800Y0212463D01*
X0238808Y0211800D01*
X0238800Y0211137D01*
X0238775Y0210475D01*
X0238735Y0209813D01*
X0238678Y0209153D01*
X0238605Y0208494D01*
X0238516Y0207837D01*
X0238410Y0207183D01*
X0238289Y0206531D01*
X0238152Y0205883D01*
X0237999Y0205238D01*
X0237830Y0204597D01*
X0237645Y0203960D01*
X0237445Y0203328D01*
X0237229Y0202701D01*
X0236998Y0202080D01*
X0236752Y0201464D01*
X0236491Y0200855D01*
X0236215Y0200253D01*
X0235924Y0199657D01*
X0235619Y0199069D01*
X0235299Y0198488D01*
X0234966Y0197915D01*
X0234618Y0197351D01*
X0234256Y0196795D01*
X0233881Y0196249D01*
X0233493Y0195711D01*
X0233092Y0195184D01*
X0232677Y0194666D01*
X0232251Y0194159D01*
X0231812Y0193663D01*
X0231360Y0193177D01*
X0230898Y0192702D01*
X0230423Y0192240D01*
X0229937Y0191788D01*
X0229441Y0191349D01*
X0228934Y0190923D01*
X0228416Y0190508D01*
X0227889Y0190107D01*
X0227351Y0189719D01*
X0226805Y0189344D01*
X0226249Y0188982D01*
X0225685Y0188634D01*
X0225112Y0188301D01*
X0224531Y0187981D01*
X0223943Y0187676D01*
X0223347Y0187385D01*
X0222745Y0187109D01*
X0222136Y0186848D01*
X0221520Y0186602D01*
X0220899Y0186371D01*
X0220272Y0186155D01*
X0219640Y0185955D01*
X0219003Y0185770D01*
X0218362Y0185601D01*
X0217717Y0185448D01*
X0217069Y0185311D01*
X0216417Y0185190D01*
X0215763Y0185084D01*
X0215106Y0184995D01*
X0214447Y0184922D01*
X0213787Y0184865D01*
X0213125Y0184825D01*
X0212463Y0184800D01*
X0211800Y0184792D01*
X0211137Y0184800D01*
X0210475Y0184825D01*
X0209813Y0184865D01*
X0209153Y0184922D01*
X0208494Y0184995D01*
X0207837Y0185084D01*
X0207183Y0185190D01*
X0206531Y0185311D01*
X0205883Y0185448D01*
X0205238Y0185601D01*
X0204597Y0185770D01*
X0203960Y0185955D01*
X0203328Y0186155D01*
X0202701Y0186371D01*
X0202080Y0186602D01*
X0201464Y0186848D01*
X0200855Y0187109D01*
X0200253Y0187385D01*
X0199657Y0187676D01*
X0199069Y0187981D01*
X0198488Y0188301D01*
X0197915Y0188634D01*
X0197351Y0188982D01*
X0196795Y0189344D01*
X0196249Y0189719D01*
X0195711Y0190107D01*
X0195184Y0190508D01*
X0194666Y0190923D01*
X0194159Y0191349D01*
X0193663Y0191788D01*
X0193177Y0192240D01*
X0192702Y0192702D01*
X0192240Y0193177D01*
X0191788Y0193663D01*
X0191349Y0194159D01*
X0190923Y0194666D01*
X0190508Y0195184D01*
X0190107Y0195711D01*
X0189719Y0196249D01*
X0189344Y0196795D01*
X0188982Y0197351D01*
X0188634Y0197915D01*
X0188301Y0198488D01*
X0187981Y0199069D01*
X0187676Y0199657D01*
X0187385Y0200253D01*
X0187109Y0200855D01*
X0186848Y0201464D01*
X0186602Y0202080D01*
X0186371Y0202701D01*
X0186155Y0203328D01*
X0185955Y0203960D01*
X0185770Y0204597D01*
X0185601Y0205238D01*
X0185448Y0205883D01*
X0185311Y0206531D01*
X0185190Y0207183D01*
X0185084Y0207837D01*
X0184995Y0208494D01*
X0184922Y0209153D01*
X0184865Y0209813D01*
X0184825Y0210475D01*
X0184800Y0211137D01*
X0184792Y0211800D01*
X0109792Y0211800D02*
X0109800Y0212463D01*
X0109825Y0213125D01*
X0109865Y0213787D01*
X0109922Y0214447D01*
X0109995Y0215106D01*
X0110084Y0215763D01*
X0110190Y0216417D01*
X0110311Y0217069D01*
X0110448Y0217717D01*
X0110601Y0218362D01*
X0110770Y0219003D01*
X0110955Y0219640D01*
X0111155Y0220272D01*
X0111371Y0220899D01*
X0111602Y0221520D01*
X0111848Y0222136D01*
X0112109Y0222745D01*
X0112385Y0223347D01*
X0112676Y0223943D01*
X0112981Y0224531D01*
X0113301Y0225112D01*
X0113634Y0225685D01*
X0113982Y0226249D01*
X0114344Y0226805D01*
X0114719Y0227351D01*
X0115107Y0227889D01*
X0115508Y0228416D01*
X0115923Y0228934D01*
X0116349Y0229441D01*
X0116788Y0229937D01*
X0117240Y0230423D01*
X0117702Y0230898D01*
X0118177Y0231360D01*
X0118663Y0231812D01*
X0119159Y0232251D01*
X0119666Y0232677D01*
X0120184Y0233092D01*
X0120711Y0233493D01*
X0121249Y0233881D01*
X0121795Y0234256D01*
X0122351Y0234618D01*
X0122915Y0234966D01*
X0123488Y0235299D01*
X0124069Y0235619D01*
X0124657Y0235924D01*
X0125253Y0236215D01*
X0125855Y0236491D01*
X0126464Y0236752D01*
X0127080Y0236998D01*
X0127701Y0237229D01*
X0128328Y0237445D01*
X0128960Y0237645D01*
X0129597Y0237830D01*
X0130238Y0237999D01*
X0130883Y0238152D01*
X0131531Y0238289D01*
X0132183Y0238410D01*
X0132837Y0238516D01*
X0133494Y0238605D01*
X0134153Y0238678D01*
X0134813Y0238735D01*
X0135475Y0238775D01*
X0136137Y0238800D01*
X0136800Y0238808D01*
X0137463Y0238800D01*
X0138125Y0238775D01*
X0138787Y0238735D01*
X0139447Y0238678D01*
X0140106Y0238605D01*
X0140763Y0238516D01*
X0141417Y0238410D01*
X0142069Y0238289D01*
X0142717Y0238152D01*
X0143362Y0237999D01*
X0144003Y0237830D01*
X0144640Y0237645D01*
X0145272Y0237445D01*
X0145899Y0237229D01*
X0146520Y0236998D01*
X0147136Y0236752D01*
X0147745Y0236491D01*
X0148347Y0236215D01*
X0148943Y0235924D01*
X0149531Y0235619D01*
X0150112Y0235299D01*
X0150685Y0234966D01*
X0151249Y0234618D01*
X0151805Y0234256D01*
X0152351Y0233881D01*
X0152889Y0233493D01*
X0153416Y0233092D01*
X0153934Y0232677D01*
X0154441Y0232251D01*
X0154937Y0231812D01*
X0155423Y0231360D01*
X0155898Y0230898D01*
X0156360Y0230423D01*
X0156812Y0229937D01*
X0157251Y0229441D01*
X0157677Y0228934D01*
X0158092Y0228416D01*
X0158493Y0227889D01*
X0158881Y0227351D01*
X0159256Y0226805D01*
X0159618Y0226249D01*
X0159966Y0225685D01*
X0160299Y0225112D01*
X0160619Y0224531D01*
X0160924Y0223943D01*
X0161215Y0223347D01*
X0161491Y0222745D01*
X0161752Y0222136D01*
X0161998Y0221520D01*
X0162229Y0220899D01*
X0162445Y0220272D01*
X0162645Y0219640D01*
X0162830Y0219003D01*
X0162999Y0218362D01*
X0163152Y0217717D01*
X0163289Y0217069D01*
X0163410Y0216417D01*
X0163516Y0215763D01*
X0163605Y0215106D01*
X0163678Y0214447D01*
X0163735Y0213787D01*
X0163775Y0213125D01*
X0163800Y0212463D01*
X0163808Y0211800D01*
X0163800Y0211137D01*
X0163775Y0210475D01*
X0163735Y0209813D01*
X0163678Y0209153D01*
X0163605Y0208494D01*
X0163516Y0207837D01*
X0163410Y0207183D01*
X0163289Y0206531D01*
X0163152Y0205883D01*
X0162999Y0205238D01*
X0162830Y0204597D01*
X0162645Y0203960D01*
X0162445Y0203328D01*
X0162229Y0202701D01*
X0161998Y0202080D01*
X0161752Y0201464D01*
X0161491Y0200855D01*
X0161215Y0200253D01*
X0160924Y0199657D01*
X0160619Y0199069D01*
X0160299Y0198488D01*
X0159966Y0197915D01*
X0159618Y0197351D01*
X0159256Y0196795D01*
X0158881Y0196249D01*
X0158493Y0195711D01*
X0158092Y0195184D01*
X0157677Y0194666D01*
X0157251Y0194159D01*
X0156812Y0193663D01*
X0156360Y0193177D01*
X0155898Y0192702D01*
X0155423Y0192240D01*
X0154937Y0191788D01*
X0154441Y0191349D01*
X0153934Y0190923D01*
X0153416Y0190508D01*
X0152889Y0190107D01*
X0152351Y0189719D01*
X0151805Y0189344D01*
X0151249Y0188982D01*
X0150685Y0188634D01*
X0150112Y0188301D01*
X0149531Y0187981D01*
X0148943Y0187676D01*
X0148347Y0187385D01*
X0147745Y0187109D01*
X0147136Y0186848D01*
X0146520Y0186602D01*
X0145899Y0186371D01*
X0145272Y0186155D01*
X0144640Y0185955D01*
X0144003Y0185770D01*
X0143362Y0185601D01*
X0142717Y0185448D01*
X0142069Y0185311D01*
X0141417Y0185190D01*
X0140763Y0185084D01*
X0140106Y0184995D01*
X0139447Y0184922D01*
X0138787Y0184865D01*
X0138125Y0184825D01*
X0137463Y0184800D01*
X0136800Y0184792D01*
X0136137Y0184800D01*
X0135475Y0184825D01*
X0134813Y0184865D01*
X0134153Y0184922D01*
X0133494Y0184995D01*
X0132837Y0185084D01*
X0132183Y0185190D01*
X0131531Y0185311D01*
X0130883Y0185448D01*
X0130238Y0185601D01*
X0129597Y0185770D01*
X0128960Y0185955D01*
X0128328Y0186155D01*
X0127701Y0186371D01*
X0127080Y0186602D01*
X0126464Y0186848D01*
X0125855Y0187109D01*
X0125253Y0187385D01*
X0124657Y0187676D01*
X0124069Y0187981D01*
X0123488Y0188301D01*
X0122915Y0188634D01*
X0122351Y0188982D01*
X0121795Y0189344D01*
X0121249Y0189719D01*
X0120711Y0190107D01*
X0120184Y0190508D01*
X0119666Y0190923D01*
X0119159Y0191349D01*
X0118663Y0191788D01*
X0118177Y0192240D01*
X0117702Y0192702D01*
X0117240Y0193177D01*
X0116788Y0193663D01*
X0116349Y0194159D01*
X0115923Y0194666D01*
X0115508Y0195184D01*
X0115107Y0195711D01*
X0114719Y0196249D01*
X0114344Y0196795D01*
X0113982Y0197351D01*
X0113634Y0197915D01*
X0113301Y0198488D01*
X0112981Y0199069D01*
X0112676Y0199657D01*
X0112385Y0200253D01*
X0112109Y0200855D01*
X0111848Y0201464D01*
X0111602Y0202080D01*
X0111371Y0202701D01*
X0111155Y0203328D01*
X0110955Y0203960D01*
X0110770Y0204597D01*
X0110601Y0205238D01*
X0110448Y0205883D01*
X0110311Y0206531D01*
X0110190Y0207183D01*
X0110084Y0207837D01*
X0109995Y0208494D01*
X0109922Y0209153D01*
X0109865Y0209813D01*
X0109825Y0210475D01*
X0109800Y0211137D01*
X0109792Y0211800D01*
X0034792Y0211800D02*
X0034800Y0212463D01*
X0034825Y0213125D01*
X0034865Y0213787D01*
X0034922Y0214447D01*
X0034995Y0215106D01*
X0035084Y0215763D01*
X0035190Y0216417D01*
X0035311Y0217069D01*
X0035448Y0217717D01*
X0035601Y0218362D01*
X0035770Y0219003D01*
X0035955Y0219640D01*
X0036155Y0220272D01*
X0036371Y0220899D01*
X0036602Y0221520D01*
X0036848Y0222136D01*
X0037109Y0222745D01*
X0037385Y0223347D01*
X0037676Y0223943D01*
X0037981Y0224531D01*
X0038301Y0225112D01*
X0038634Y0225685D01*
X0038982Y0226249D01*
X0039344Y0226805D01*
X0039719Y0227351D01*
X0040107Y0227889D01*
X0040508Y0228416D01*
X0040923Y0228934D01*
X0041349Y0229441D01*
X0041788Y0229937D01*
X0042240Y0230423D01*
X0042702Y0230898D01*
X0043177Y0231360D01*
X0043663Y0231812D01*
X0044159Y0232251D01*
X0044666Y0232677D01*
X0045184Y0233092D01*
X0045711Y0233493D01*
X0046249Y0233881D01*
X0046795Y0234256D01*
X0047351Y0234618D01*
X0047915Y0234966D01*
X0048488Y0235299D01*
X0049069Y0235619D01*
X0049657Y0235924D01*
X0050253Y0236215D01*
X0050855Y0236491D01*
X0051464Y0236752D01*
X0052080Y0236998D01*
X0052701Y0237229D01*
X0053328Y0237445D01*
X0053960Y0237645D01*
X0054597Y0237830D01*
X0055238Y0237999D01*
X0055883Y0238152D01*
X0056531Y0238289D01*
X0057183Y0238410D01*
X0057837Y0238516D01*
X0058494Y0238605D01*
X0059153Y0238678D01*
X0059813Y0238735D01*
X0060475Y0238775D01*
X0061137Y0238800D01*
X0061800Y0238808D01*
X0062463Y0238800D01*
X0063125Y0238775D01*
X0063787Y0238735D01*
X0064447Y0238678D01*
X0065106Y0238605D01*
X0065763Y0238516D01*
X0066417Y0238410D01*
X0067069Y0238289D01*
X0067717Y0238152D01*
X0068362Y0237999D01*
X0069003Y0237830D01*
X0069640Y0237645D01*
X0070272Y0237445D01*
X0070899Y0237229D01*
X0071520Y0236998D01*
X0072136Y0236752D01*
X0072745Y0236491D01*
X0073347Y0236215D01*
X0073943Y0235924D01*
X0074531Y0235619D01*
X0075112Y0235299D01*
X0075685Y0234966D01*
X0076249Y0234618D01*
X0076805Y0234256D01*
X0077351Y0233881D01*
X0077889Y0233493D01*
X0078416Y0233092D01*
X0078934Y0232677D01*
X0079441Y0232251D01*
X0079937Y0231812D01*
X0080423Y0231360D01*
X0080898Y0230898D01*
X0081360Y0230423D01*
X0081812Y0229937D01*
X0082251Y0229441D01*
X0082677Y0228934D01*
X0083092Y0228416D01*
X0083493Y0227889D01*
X0083881Y0227351D01*
X0084256Y0226805D01*
X0084618Y0226249D01*
X0084966Y0225685D01*
X0085299Y0225112D01*
X0085619Y0224531D01*
X0085924Y0223943D01*
X0086215Y0223347D01*
X0086491Y0222745D01*
X0086752Y0222136D01*
X0086998Y0221520D01*
X0087229Y0220899D01*
X0087445Y0220272D01*
X0087645Y0219640D01*
X0087830Y0219003D01*
X0087999Y0218362D01*
X0088152Y0217717D01*
X0088289Y0217069D01*
X0088410Y0216417D01*
X0088516Y0215763D01*
X0088605Y0215106D01*
X0088678Y0214447D01*
X0088735Y0213787D01*
X0088775Y0213125D01*
X0088800Y0212463D01*
X0088808Y0211800D01*
X0088800Y0211137D01*
X0088775Y0210475D01*
X0088735Y0209813D01*
X0088678Y0209153D01*
X0088605Y0208494D01*
X0088516Y0207837D01*
X0088410Y0207183D01*
X0088289Y0206531D01*
X0088152Y0205883D01*
X0087999Y0205238D01*
X0087830Y0204597D01*
X0087645Y0203960D01*
X0087445Y0203328D01*
X0087229Y0202701D01*
X0086998Y0202080D01*
X0086752Y0201464D01*
X0086491Y0200855D01*
X0086215Y0200253D01*
X0085924Y0199657D01*
X0085619Y0199069D01*
X0085299Y0198488D01*
X0084966Y0197915D01*
X0084618Y0197351D01*
X0084256Y0196795D01*
X0083881Y0196249D01*
X0083493Y0195711D01*
X0083092Y0195184D01*
X0082677Y0194666D01*
X0082251Y0194159D01*
X0081812Y0193663D01*
X0081360Y0193177D01*
X0080898Y0192702D01*
X0080423Y0192240D01*
X0079937Y0191788D01*
X0079441Y0191349D01*
X0078934Y0190923D01*
X0078416Y0190508D01*
X0077889Y0190107D01*
X0077351Y0189719D01*
X0076805Y0189344D01*
X0076249Y0188982D01*
X0075685Y0188634D01*
X0075112Y0188301D01*
X0074531Y0187981D01*
X0073943Y0187676D01*
X0073347Y0187385D01*
X0072745Y0187109D01*
X0072136Y0186848D01*
X0071520Y0186602D01*
X0070899Y0186371D01*
X0070272Y0186155D01*
X0069640Y0185955D01*
X0069003Y0185770D01*
X0068362Y0185601D01*
X0067717Y0185448D01*
X0067069Y0185311D01*
X0066417Y0185190D01*
X0065763Y0185084D01*
X0065106Y0184995D01*
X0064447Y0184922D01*
X0063787Y0184865D01*
X0063125Y0184825D01*
X0062463Y0184800D01*
X0061800Y0184792D01*
X0061137Y0184800D01*
X0060475Y0184825D01*
X0059813Y0184865D01*
X0059153Y0184922D01*
X0058494Y0184995D01*
X0057837Y0185084D01*
X0057183Y0185190D01*
X0056531Y0185311D01*
X0055883Y0185448D01*
X0055238Y0185601D01*
X0054597Y0185770D01*
X0053960Y0185955D01*
X0053328Y0186155D01*
X0052701Y0186371D01*
X0052080Y0186602D01*
X0051464Y0186848D01*
X0050855Y0187109D01*
X0050253Y0187385D01*
X0049657Y0187676D01*
X0049069Y0187981D01*
X0048488Y0188301D01*
X0047915Y0188634D01*
X0047351Y0188982D01*
X0046795Y0189344D01*
X0046249Y0189719D01*
X0045711Y0190107D01*
X0045184Y0190508D01*
X0044666Y0190923D01*
X0044159Y0191349D01*
X0043663Y0191788D01*
X0043177Y0192240D01*
X0042702Y0192702D01*
X0042240Y0193177D01*
X0041788Y0193663D01*
X0041349Y0194159D01*
X0040923Y0194666D01*
X0040508Y0195184D01*
X0040107Y0195711D01*
X0039719Y0196249D01*
X0039344Y0196795D01*
X0038982Y0197351D01*
X0038634Y0197915D01*
X0038301Y0198488D01*
X0037981Y0199069D01*
X0037676Y0199657D01*
X0037385Y0200253D01*
X0037109Y0200855D01*
X0036848Y0201464D01*
X0036602Y0202080D01*
X0036371Y0202701D01*
X0036155Y0203328D01*
X0035955Y0203960D01*
X0035770Y0204597D01*
X0035601Y0205238D01*
X0035448Y0205883D01*
X0035311Y0206531D01*
X0035190Y0207183D01*
X0035084Y0207837D01*
X0034995Y0208494D01*
X0034922Y0209153D01*
X0034865Y0209813D01*
X0034825Y0210475D01*
X0034800Y0211137D01*
X0034792Y0211800D01*
X0034792Y0151800D02*
X0034800Y0152463D01*
X0034825Y0153125D01*
X0034865Y0153787D01*
X0034922Y0154447D01*
X0034995Y0155106D01*
X0035084Y0155763D01*
X0035190Y0156417D01*
X0035311Y0157069D01*
X0035448Y0157717D01*
X0035601Y0158362D01*
X0035770Y0159003D01*
X0035955Y0159640D01*
X0036155Y0160272D01*
X0036371Y0160899D01*
X0036602Y0161520D01*
X0036848Y0162136D01*
X0037109Y0162745D01*
X0037385Y0163347D01*
X0037676Y0163943D01*
X0037981Y0164531D01*
X0038301Y0165112D01*
X0038634Y0165685D01*
X0038982Y0166249D01*
X0039344Y0166805D01*
X0039719Y0167351D01*
X0040107Y0167889D01*
X0040508Y0168416D01*
X0040923Y0168934D01*
X0041349Y0169441D01*
X0041788Y0169937D01*
X0042240Y0170423D01*
X0042702Y0170898D01*
X0043177Y0171360D01*
X0043663Y0171812D01*
X0044159Y0172251D01*
X0044666Y0172677D01*
X0045184Y0173092D01*
X0045711Y0173493D01*
X0046249Y0173881D01*
X0046795Y0174256D01*
X0047351Y0174618D01*
X0047915Y0174966D01*
X0048488Y0175299D01*
X0049069Y0175619D01*
X0049657Y0175924D01*
X0050253Y0176215D01*
X0050855Y0176491D01*
X0051464Y0176752D01*
X0052080Y0176998D01*
X0052701Y0177229D01*
X0053328Y0177445D01*
X0053960Y0177645D01*
X0054597Y0177830D01*
X0055238Y0177999D01*
X0055883Y0178152D01*
X0056531Y0178289D01*
X0057183Y0178410D01*
X0057837Y0178516D01*
X0058494Y0178605D01*
X0059153Y0178678D01*
X0059813Y0178735D01*
X0060475Y0178775D01*
X0061137Y0178800D01*
X0061800Y0178808D01*
X0062463Y0178800D01*
X0063125Y0178775D01*
X0063787Y0178735D01*
X0064447Y0178678D01*
X0065106Y0178605D01*
X0065763Y0178516D01*
X0066417Y0178410D01*
X0067069Y0178289D01*
X0067717Y0178152D01*
X0068362Y0177999D01*
X0069003Y0177830D01*
X0069640Y0177645D01*
X0070272Y0177445D01*
X0070899Y0177229D01*
X0071520Y0176998D01*
X0072136Y0176752D01*
X0072745Y0176491D01*
X0073347Y0176215D01*
X0073943Y0175924D01*
X0074531Y0175619D01*
X0075112Y0175299D01*
X0075685Y0174966D01*
X0076249Y0174618D01*
X0076805Y0174256D01*
X0077351Y0173881D01*
X0077889Y0173493D01*
X0078416Y0173092D01*
X0078934Y0172677D01*
X0079441Y0172251D01*
X0079937Y0171812D01*
X0080423Y0171360D01*
X0080898Y0170898D01*
X0081360Y0170423D01*
X0081812Y0169937D01*
X0082251Y0169441D01*
X0082677Y0168934D01*
X0083092Y0168416D01*
X0083493Y0167889D01*
X0083881Y0167351D01*
X0084256Y0166805D01*
X0084618Y0166249D01*
X0084966Y0165685D01*
X0085299Y0165112D01*
X0085619Y0164531D01*
X0085924Y0163943D01*
X0086215Y0163347D01*
X0086491Y0162745D01*
X0086752Y0162136D01*
X0086998Y0161520D01*
X0087229Y0160899D01*
X0087445Y0160272D01*
X0087645Y0159640D01*
X0087830Y0159003D01*
X0087999Y0158362D01*
X0088152Y0157717D01*
X0088289Y0157069D01*
X0088410Y0156417D01*
X0088516Y0155763D01*
X0088605Y0155106D01*
X0088678Y0154447D01*
X0088735Y0153787D01*
X0088775Y0153125D01*
X0088800Y0152463D01*
X0088808Y0151800D01*
X0088800Y0151137D01*
X0088775Y0150475D01*
X0088735Y0149813D01*
X0088678Y0149153D01*
X0088605Y0148494D01*
X0088516Y0147837D01*
X0088410Y0147183D01*
X0088289Y0146531D01*
X0088152Y0145883D01*
X0087999Y0145238D01*
X0087830Y0144597D01*
X0087645Y0143960D01*
X0087445Y0143328D01*
X0087229Y0142701D01*
X0086998Y0142080D01*
X0086752Y0141464D01*
X0086491Y0140855D01*
X0086215Y0140253D01*
X0085924Y0139657D01*
X0085619Y0139069D01*
X0085299Y0138488D01*
X0084966Y0137915D01*
X0084618Y0137351D01*
X0084256Y0136795D01*
X0083881Y0136249D01*
X0083493Y0135711D01*
X0083092Y0135184D01*
X0082677Y0134666D01*
X0082251Y0134159D01*
X0081812Y0133663D01*
X0081360Y0133177D01*
X0080898Y0132702D01*
X0080423Y0132240D01*
X0079937Y0131788D01*
X0079441Y0131349D01*
X0078934Y0130923D01*
X0078416Y0130508D01*
X0077889Y0130107D01*
X0077351Y0129719D01*
X0076805Y0129344D01*
X0076249Y0128982D01*
X0075685Y0128634D01*
X0075112Y0128301D01*
X0074531Y0127981D01*
X0073943Y0127676D01*
X0073347Y0127385D01*
X0072745Y0127109D01*
X0072136Y0126848D01*
X0071520Y0126602D01*
X0070899Y0126371D01*
X0070272Y0126155D01*
X0069640Y0125955D01*
X0069003Y0125770D01*
X0068362Y0125601D01*
X0067717Y0125448D01*
X0067069Y0125311D01*
X0066417Y0125190D01*
X0065763Y0125084D01*
X0065106Y0124995D01*
X0064447Y0124922D01*
X0063787Y0124865D01*
X0063125Y0124825D01*
X0062463Y0124800D01*
X0061800Y0124792D01*
X0061137Y0124800D01*
X0060475Y0124825D01*
X0059813Y0124865D01*
X0059153Y0124922D01*
X0058494Y0124995D01*
X0057837Y0125084D01*
X0057183Y0125190D01*
X0056531Y0125311D01*
X0055883Y0125448D01*
X0055238Y0125601D01*
X0054597Y0125770D01*
X0053960Y0125955D01*
X0053328Y0126155D01*
X0052701Y0126371D01*
X0052080Y0126602D01*
X0051464Y0126848D01*
X0050855Y0127109D01*
X0050253Y0127385D01*
X0049657Y0127676D01*
X0049069Y0127981D01*
X0048488Y0128301D01*
X0047915Y0128634D01*
X0047351Y0128982D01*
X0046795Y0129344D01*
X0046249Y0129719D01*
X0045711Y0130107D01*
X0045184Y0130508D01*
X0044666Y0130923D01*
X0044159Y0131349D01*
X0043663Y0131788D01*
X0043177Y0132240D01*
X0042702Y0132702D01*
X0042240Y0133177D01*
X0041788Y0133663D01*
X0041349Y0134159D01*
X0040923Y0134666D01*
X0040508Y0135184D01*
X0040107Y0135711D01*
X0039719Y0136249D01*
X0039344Y0136795D01*
X0038982Y0137351D01*
X0038634Y0137915D01*
X0038301Y0138488D01*
X0037981Y0139069D01*
X0037676Y0139657D01*
X0037385Y0140253D01*
X0037109Y0140855D01*
X0036848Y0141464D01*
X0036602Y0142080D01*
X0036371Y0142701D01*
X0036155Y0143328D01*
X0035955Y0143960D01*
X0035770Y0144597D01*
X0035601Y0145238D01*
X0035448Y0145883D01*
X0035311Y0146531D01*
X0035190Y0147183D01*
X0035084Y0147837D01*
X0034995Y0148494D01*
X0034922Y0149153D01*
X0034865Y0149813D01*
X0034825Y0150475D01*
X0034800Y0151137D01*
X0034792Y0151800D01*
X0109792Y0151800D02*
X0109800Y0152463D01*
X0109825Y0153125D01*
X0109865Y0153787D01*
X0109922Y0154447D01*
X0109995Y0155106D01*
X0110084Y0155763D01*
X0110190Y0156417D01*
X0110311Y0157069D01*
X0110448Y0157717D01*
X0110601Y0158362D01*
X0110770Y0159003D01*
X0110955Y0159640D01*
X0111155Y0160272D01*
X0111371Y0160899D01*
X0111602Y0161520D01*
X0111848Y0162136D01*
X0112109Y0162745D01*
X0112385Y0163347D01*
X0112676Y0163943D01*
X0112981Y0164531D01*
X0113301Y0165112D01*
X0113634Y0165685D01*
X0113982Y0166249D01*
X0114344Y0166805D01*
X0114719Y0167351D01*
X0115107Y0167889D01*
X0115508Y0168416D01*
X0115923Y0168934D01*
X0116349Y0169441D01*
X0116788Y0169937D01*
X0117240Y0170423D01*
X0117702Y0170898D01*
X0118177Y0171360D01*
X0118663Y0171812D01*
X0119159Y0172251D01*
X0119666Y0172677D01*
X0120184Y0173092D01*
X0120711Y0173493D01*
X0121249Y0173881D01*
X0121795Y0174256D01*
X0122351Y0174618D01*
X0122915Y0174966D01*
X0123488Y0175299D01*
X0124069Y0175619D01*
X0124657Y0175924D01*
X0125253Y0176215D01*
X0125855Y0176491D01*
X0126464Y0176752D01*
X0127080Y0176998D01*
X0127701Y0177229D01*
X0128328Y0177445D01*
X0128960Y0177645D01*
X0129597Y0177830D01*
X0130238Y0177999D01*
X0130883Y0178152D01*
X0131531Y0178289D01*
X0132183Y0178410D01*
X0132837Y0178516D01*
X0133494Y0178605D01*
X0134153Y0178678D01*
X0134813Y0178735D01*
X0135475Y0178775D01*
X0136137Y0178800D01*
X0136800Y0178808D01*
X0137463Y0178800D01*
X0138125Y0178775D01*
X0138787Y0178735D01*
X0139447Y0178678D01*
X0140106Y0178605D01*
X0140763Y0178516D01*
X0141417Y0178410D01*
X0142069Y0178289D01*
X0142717Y0178152D01*
X0143362Y0177999D01*
X0144003Y0177830D01*
X0144640Y0177645D01*
X0145272Y0177445D01*
X0145899Y0177229D01*
X0146520Y0176998D01*
X0147136Y0176752D01*
X0147745Y0176491D01*
X0148347Y0176215D01*
X0148943Y0175924D01*
X0149531Y0175619D01*
X0150112Y0175299D01*
X0150685Y0174966D01*
X0151249Y0174618D01*
X0151805Y0174256D01*
X0152351Y0173881D01*
X0152889Y0173493D01*
X0153416Y0173092D01*
X0153934Y0172677D01*
X0154441Y0172251D01*
X0154937Y0171812D01*
X0155423Y0171360D01*
X0155898Y0170898D01*
X0156360Y0170423D01*
X0156812Y0169937D01*
X0157251Y0169441D01*
X0157677Y0168934D01*
X0158092Y0168416D01*
X0158493Y0167889D01*
X0158881Y0167351D01*
X0159256Y0166805D01*
X0159618Y0166249D01*
X0159966Y0165685D01*
X0160299Y0165112D01*
X0160619Y0164531D01*
X0160924Y0163943D01*
X0161215Y0163347D01*
X0161491Y0162745D01*
X0161752Y0162136D01*
X0161998Y0161520D01*
X0162229Y0160899D01*
X0162445Y0160272D01*
X0162645Y0159640D01*
X0162830Y0159003D01*
X0162999Y0158362D01*
X0163152Y0157717D01*
X0163289Y0157069D01*
X0163410Y0156417D01*
X0163516Y0155763D01*
X0163605Y0155106D01*
X0163678Y0154447D01*
X0163735Y0153787D01*
X0163775Y0153125D01*
X0163800Y0152463D01*
X0163808Y0151800D01*
X0163800Y0151137D01*
X0163775Y0150475D01*
X0163735Y0149813D01*
X0163678Y0149153D01*
X0163605Y0148494D01*
X0163516Y0147837D01*
X0163410Y0147183D01*
X0163289Y0146531D01*
X0163152Y0145883D01*
X0162999Y0145238D01*
X0162830Y0144597D01*
X0162645Y0143960D01*
X0162445Y0143328D01*
X0162229Y0142701D01*
X0161998Y0142080D01*
X0161752Y0141464D01*
X0161491Y0140855D01*
X0161215Y0140253D01*
X0160924Y0139657D01*
X0160619Y0139069D01*
X0160299Y0138488D01*
X0159966Y0137915D01*
X0159618Y0137351D01*
X0159256Y0136795D01*
X0158881Y0136249D01*
X0158493Y0135711D01*
X0158092Y0135184D01*
X0157677Y0134666D01*
X0157251Y0134159D01*
X0156812Y0133663D01*
X0156360Y0133177D01*
X0155898Y0132702D01*
X0155423Y0132240D01*
X0154937Y0131788D01*
X0154441Y0131349D01*
X0153934Y0130923D01*
X0153416Y0130508D01*
X0152889Y0130107D01*
X0152351Y0129719D01*
X0151805Y0129344D01*
X0151249Y0128982D01*
X0150685Y0128634D01*
X0150112Y0128301D01*
X0149531Y0127981D01*
X0148943Y0127676D01*
X0148347Y0127385D01*
X0147745Y0127109D01*
X0147136Y0126848D01*
X0146520Y0126602D01*
X0145899Y0126371D01*
X0145272Y0126155D01*
X0144640Y0125955D01*
X0144003Y0125770D01*
X0143362Y0125601D01*
X0142717Y0125448D01*
X0142069Y0125311D01*
X0141417Y0125190D01*
X0140763Y0125084D01*
X0140106Y0124995D01*
X0139447Y0124922D01*
X0138787Y0124865D01*
X0138125Y0124825D01*
X0137463Y0124800D01*
X0136800Y0124792D01*
X0136137Y0124800D01*
X0135475Y0124825D01*
X0134813Y0124865D01*
X0134153Y0124922D01*
X0133494Y0124995D01*
X0132837Y0125084D01*
X0132183Y0125190D01*
X0131531Y0125311D01*
X0130883Y0125448D01*
X0130238Y0125601D01*
X0129597Y0125770D01*
X0128960Y0125955D01*
X0128328Y0126155D01*
X0127701Y0126371D01*
X0127080Y0126602D01*
X0126464Y0126848D01*
X0125855Y0127109D01*
X0125253Y0127385D01*
X0124657Y0127676D01*
X0124069Y0127981D01*
X0123488Y0128301D01*
X0122915Y0128634D01*
X0122351Y0128982D01*
X0121795Y0129344D01*
X0121249Y0129719D01*
X0120711Y0130107D01*
X0120184Y0130508D01*
X0119666Y0130923D01*
X0119159Y0131349D01*
X0118663Y0131788D01*
X0118177Y0132240D01*
X0117702Y0132702D01*
X0117240Y0133177D01*
X0116788Y0133663D01*
X0116349Y0134159D01*
X0115923Y0134666D01*
X0115508Y0135184D01*
X0115107Y0135711D01*
X0114719Y0136249D01*
X0114344Y0136795D01*
X0113982Y0137351D01*
X0113634Y0137915D01*
X0113301Y0138488D01*
X0112981Y0139069D01*
X0112676Y0139657D01*
X0112385Y0140253D01*
X0112109Y0140855D01*
X0111848Y0141464D01*
X0111602Y0142080D01*
X0111371Y0142701D01*
X0111155Y0143328D01*
X0110955Y0143960D01*
X0110770Y0144597D01*
X0110601Y0145238D01*
X0110448Y0145883D01*
X0110311Y0146531D01*
X0110190Y0147183D01*
X0110084Y0147837D01*
X0109995Y0148494D01*
X0109922Y0149153D01*
X0109865Y0149813D01*
X0109825Y0150475D01*
X0109800Y0151137D01*
X0109792Y0151800D01*
X0184792Y0151800D02*
X0184800Y0152463D01*
X0184825Y0153125D01*
X0184865Y0153787D01*
X0184922Y0154447D01*
X0184995Y0155106D01*
X0185084Y0155763D01*
X0185190Y0156417D01*
X0185311Y0157069D01*
X0185448Y0157717D01*
X0185601Y0158362D01*
X0185770Y0159003D01*
X0185955Y0159640D01*
X0186155Y0160272D01*
X0186371Y0160899D01*
X0186602Y0161520D01*
X0186848Y0162136D01*
X0187109Y0162745D01*
X0187385Y0163347D01*
X0187676Y0163943D01*
X0187981Y0164531D01*
X0188301Y0165112D01*
X0188634Y0165685D01*
X0188982Y0166249D01*
X0189344Y0166805D01*
X0189719Y0167351D01*
X0190107Y0167889D01*
X0190508Y0168416D01*
X0190923Y0168934D01*
X0191349Y0169441D01*
X0191788Y0169937D01*
X0192240Y0170423D01*
X0192702Y0170898D01*
X0193177Y0171360D01*
X0193663Y0171812D01*
X0194159Y0172251D01*
X0194666Y0172677D01*
X0195184Y0173092D01*
X0195711Y0173493D01*
X0196249Y0173881D01*
X0196795Y0174256D01*
X0197351Y0174618D01*
X0197915Y0174966D01*
X0198488Y0175299D01*
X0199069Y0175619D01*
X0199657Y0175924D01*
X0200253Y0176215D01*
X0200855Y0176491D01*
X0201464Y0176752D01*
X0202080Y0176998D01*
X0202701Y0177229D01*
X0203328Y0177445D01*
X0203960Y0177645D01*
X0204597Y0177830D01*
X0205238Y0177999D01*
X0205883Y0178152D01*
X0206531Y0178289D01*
X0207183Y0178410D01*
X0207837Y0178516D01*
X0208494Y0178605D01*
X0209153Y0178678D01*
X0209813Y0178735D01*
X0210475Y0178775D01*
X0211137Y0178800D01*
X0211800Y0178808D01*
X0212463Y0178800D01*
X0213125Y0178775D01*
X0213787Y0178735D01*
X0214447Y0178678D01*
X0215106Y0178605D01*
X0215763Y0178516D01*
X0216417Y0178410D01*
X0217069Y0178289D01*
X0217717Y0178152D01*
X0218362Y0177999D01*
X0219003Y0177830D01*
X0219640Y0177645D01*
X0220272Y0177445D01*
X0220899Y0177229D01*
X0221520Y0176998D01*
X0222136Y0176752D01*
X0222745Y0176491D01*
X0223347Y0176215D01*
X0223943Y0175924D01*
X0224531Y0175619D01*
X0225112Y0175299D01*
X0225685Y0174966D01*
X0226249Y0174618D01*
X0226805Y0174256D01*
X0227351Y0173881D01*
X0227889Y0173493D01*
X0228416Y0173092D01*
X0228934Y0172677D01*
X0229441Y0172251D01*
X0229937Y0171812D01*
X0230423Y0171360D01*
X0230898Y0170898D01*
X0231360Y0170423D01*
X0231812Y0169937D01*
X0232251Y0169441D01*
X0232677Y0168934D01*
X0233092Y0168416D01*
X0233493Y0167889D01*
X0233881Y0167351D01*
X0234256Y0166805D01*
X0234618Y0166249D01*
X0234966Y0165685D01*
X0235299Y0165112D01*
X0235619Y0164531D01*
X0235924Y0163943D01*
X0236215Y0163347D01*
X0236491Y0162745D01*
X0236752Y0162136D01*
X0236998Y0161520D01*
X0237229Y0160899D01*
X0237445Y0160272D01*
X0237645Y0159640D01*
X0237830Y0159003D01*
X0237999Y0158362D01*
X0238152Y0157717D01*
X0238289Y0157069D01*
X0238410Y0156417D01*
X0238516Y0155763D01*
X0238605Y0155106D01*
X0238678Y0154447D01*
X0238735Y0153787D01*
X0238775Y0153125D01*
X0238800Y0152463D01*
X0238808Y0151800D01*
X0238800Y0151137D01*
X0238775Y0150475D01*
X0238735Y0149813D01*
X0238678Y0149153D01*
X0238605Y0148494D01*
X0238516Y0147837D01*
X0238410Y0147183D01*
X0238289Y0146531D01*
X0238152Y0145883D01*
X0237999Y0145238D01*
X0237830Y0144597D01*
X0237645Y0143960D01*
X0237445Y0143328D01*
X0237229Y0142701D01*
X0236998Y0142080D01*
X0236752Y0141464D01*
X0236491Y0140855D01*
X0236215Y0140253D01*
X0235924Y0139657D01*
X0235619Y0139069D01*
X0235299Y0138488D01*
X0234966Y0137915D01*
X0234618Y0137351D01*
X0234256Y0136795D01*
X0233881Y0136249D01*
X0233493Y0135711D01*
X0233092Y0135184D01*
X0232677Y0134666D01*
X0232251Y0134159D01*
X0231812Y0133663D01*
X0231360Y0133177D01*
X0230898Y0132702D01*
X0230423Y0132240D01*
X0229937Y0131788D01*
X0229441Y0131349D01*
X0228934Y0130923D01*
X0228416Y0130508D01*
X0227889Y0130107D01*
X0227351Y0129719D01*
X0226805Y0129344D01*
X0226249Y0128982D01*
X0225685Y0128634D01*
X0225112Y0128301D01*
X0224531Y0127981D01*
X0223943Y0127676D01*
X0223347Y0127385D01*
X0222745Y0127109D01*
X0222136Y0126848D01*
X0221520Y0126602D01*
X0220899Y0126371D01*
X0220272Y0126155D01*
X0219640Y0125955D01*
X0219003Y0125770D01*
X0218362Y0125601D01*
X0217717Y0125448D01*
X0217069Y0125311D01*
X0216417Y0125190D01*
X0215763Y0125084D01*
X0215106Y0124995D01*
X0214447Y0124922D01*
X0213787Y0124865D01*
X0213125Y0124825D01*
X0212463Y0124800D01*
X0211800Y0124792D01*
X0211137Y0124800D01*
X0210475Y0124825D01*
X0209813Y0124865D01*
X0209153Y0124922D01*
X0208494Y0124995D01*
X0207837Y0125084D01*
X0207183Y0125190D01*
X0206531Y0125311D01*
X0205883Y0125448D01*
X0205238Y0125601D01*
X0204597Y0125770D01*
X0203960Y0125955D01*
X0203328Y0126155D01*
X0202701Y0126371D01*
X0202080Y0126602D01*
X0201464Y0126848D01*
X0200855Y0127109D01*
X0200253Y0127385D01*
X0199657Y0127676D01*
X0199069Y0127981D01*
X0198488Y0128301D01*
X0197915Y0128634D01*
X0197351Y0128982D01*
X0196795Y0129344D01*
X0196249Y0129719D01*
X0195711Y0130107D01*
X0195184Y0130508D01*
X0194666Y0130923D01*
X0194159Y0131349D01*
X0193663Y0131788D01*
X0193177Y0132240D01*
X0192702Y0132702D01*
X0192240Y0133177D01*
X0191788Y0133663D01*
X0191349Y0134159D01*
X0190923Y0134666D01*
X0190508Y0135184D01*
X0190107Y0135711D01*
X0189719Y0136249D01*
X0189344Y0136795D01*
X0188982Y0137351D01*
X0188634Y0137915D01*
X0188301Y0138488D01*
X0187981Y0139069D01*
X0187676Y0139657D01*
X0187385Y0140253D01*
X0187109Y0140855D01*
X0186848Y0141464D01*
X0186602Y0142080D01*
X0186371Y0142701D01*
X0186155Y0143328D01*
X0185955Y0143960D01*
X0185770Y0144597D01*
X0185601Y0145238D01*
X0185448Y0145883D01*
X0185311Y0146531D01*
X0185190Y0147183D01*
X0185084Y0147837D01*
X0184995Y0148494D01*
X0184922Y0149153D01*
X0184865Y0149813D01*
X0184825Y0150475D01*
X0184800Y0151137D01*
X0184792Y0151800D01*
X0259792Y0151800D02*
X0259800Y0152463D01*
X0259825Y0153125D01*
X0259865Y0153787D01*
X0259922Y0154447D01*
X0259995Y0155106D01*
X0260084Y0155763D01*
X0260190Y0156417D01*
X0260311Y0157069D01*
X0260448Y0157717D01*
X0260601Y0158362D01*
X0260770Y0159003D01*
X0260955Y0159640D01*
X0261155Y0160272D01*
X0261371Y0160899D01*
X0261602Y0161520D01*
X0261848Y0162136D01*
X0262109Y0162745D01*
X0262385Y0163347D01*
X0262676Y0163943D01*
X0262981Y0164531D01*
X0263301Y0165112D01*
X0263634Y0165685D01*
X0263982Y0166249D01*
X0264344Y0166805D01*
X0264719Y0167351D01*
X0265107Y0167889D01*
X0265508Y0168416D01*
X0265923Y0168934D01*
X0266349Y0169441D01*
X0266788Y0169937D01*
X0267240Y0170423D01*
X0267702Y0170898D01*
X0268177Y0171360D01*
X0268663Y0171812D01*
X0269159Y0172251D01*
X0269666Y0172677D01*
X0270184Y0173092D01*
X0270711Y0173493D01*
X0271249Y0173881D01*
X0271795Y0174256D01*
X0272351Y0174618D01*
X0272915Y0174966D01*
X0273488Y0175299D01*
X0274069Y0175619D01*
X0274657Y0175924D01*
X0275253Y0176215D01*
X0275855Y0176491D01*
X0276464Y0176752D01*
X0277080Y0176998D01*
X0277701Y0177229D01*
X0278328Y0177445D01*
X0278960Y0177645D01*
X0279597Y0177830D01*
X0280238Y0177999D01*
X0280883Y0178152D01*
X0281531Y0178289D01*
X0282183Y0178410D01*
X0282837Y0178516D01*
X0283494Y0178605D01*
X0284153Y0178678D01*
X0284813Y0178735D01*
X0285475Y0178775D01*
X0286137Y0178800D01*
X0286800Y0178808D01*
X0287463Y0178800D01*
X0288125Y0178775D01*
X0288787Y0178735D01*
X0289447Y0178678D01*
X0290106Y0178605D01*
X0290763Y0178516D01*
X0291417Y0178410D01*
X0292069Y0178289D01*
X0292717Y0178152D01*
X0293362Y0177999D01*
X0294003Y0177830D01*
X0294640Y0177645D01*
X0295272Y0177445D01*
X0295899Y0177229D01*
X0296520Y0176998D01*
X0297136Y0176752D01*
X0297745Y0176491D01*
X0298347Y0176215D01*
X0298943Y0175924D01*
X0299531Y0175619D01*
X0300112Y0175299D01*
X0300685Y0174966D01*
X0301249Y0174618D01*
X0301805Y0174256D01*
X0302351Y0173881D01*
X0302889Y0173493D01*
X0303416Y0173092D01*
X0303934Y0172677D01*
X0304441Y0172251D01*
X0304937Y0171812D01*
X0305423Y0171360D01*
X0305898Y0170898D01*
X0306360Y0170423D01*
X0306812Y0169937D01*
X0307251Y0169441D01*
X0307677Y0168934D01*
X0308092Y0168416D01*
X0308493Y0167889D01*
X0308881Y0167351D01*
X0309256Y0166805D01*
X0309618Y0166249D01*
X0309966Y0165685D01*
X0310299Y0165112D01*
X0310619Y0164531D01*
X0310924Y0163943D01*
X0311215Y0163347D01*
X0311491Y0162745D01*
X0311752Y0162136D01*
X0311998Y0161520D01*
X0312229Y0160899D01*
X0312445Y0160272D01*
X0312645Y0159640D01*
X0312830Y0159003D01*
X0312999Y0158362D01*
X0313152Y0157717D01*
X0313289Y0157069D01*
X0313410Y0156417D01*
X0313516Y0155763D01*
X0313605Y0155106D01*
X0313678Y0154447D01*
X0313735Y0153787D01*
X0313775Y0153125D01*
X0313800Y0152463D01*
X0313808Y0151800D01*
X0313800Y0151137D01*
X0313775Y0150475D01*
X0313735Y0149813D01*
X0313678Y0149153D01*
X0313605Y0148494D01*
X0313516Y0147837D01*
X0313410Y0147183D01*
X0313289Y0146531D01*
X0313152Y0145883D01*
X0312999Y0145238D01*
X0312830Y0144597D01*
X0312645Y0143960D01*
X0312445Y0143328D01*
X0312229Y0142701D01*
X0311998Y0142080D01*
X0311752Y0141464D01*
X0311491Y0140855D01*
X0311215Y0140253D01*
X0310924Y0139657D01*
X0310619Y0139069D01*
X0310299Y0138488D01*
X0309966Y0137915D01*
X0309618Y0137351D01*
X0309256Y0136795D01*
X0308881Y0136249D01*
X0308493Y0135711D01*
X0308092Y0135184D01*
X0307677Y0134666D01*
X0307251Y0134159D01*
X0306812Y0133663D01*
X0306360Y0133177D01*
X0305898Y0132702D01*
X0305423Y0132240D01*
X0304937Y0131788D01*
X0304441Y0131349D01*
X0303934Y0130923D01*
X0303416Y0130508D01*
X0302889Y0130107D01*
X0302351Y0129719D01*
X0301805Y0129344D01*
X0301249Y0128982D01*
X0300685Y0128634D01*
X0300112Y0128301D01*
X0299531Y0127981D01*
X0298943Y0127676D01*
X0298347Y0127385D01*
X0297745Y0127109D01*
X0297136Y0126848D01*
X0296520Y0126602D01*
X0295899Y0126371D01*
X0295272Y0126155D01*
X0294640Y0125955D01*
X0294003Y0125770D01*
X0293362Y0125601D01*
X0292717Y0125448D01*
X0292069Y0125311D01*
X0291417Y0125190D01*
X0290763Y0125084D01*
X0290106Y0124995D01*
X0289447Y0124922D01*
X0288787Y0124865D01*
X0288125Y0124825D01*
X0287463Y0124800D01*
X0286800Y0124792D01*
X0286137Y0124800D01*
X0285475Y0124825D01*
X0284813Y0124865D01*
X0284153Y0124922D01*
X0283494Y0124995D01*
X0282837Y0125084D01*
X0282183Y0125190D01*
X0281531Y0125311D01*
X0280883Y0125448D01*
X0280238Y0125601D01*
X0279597Y0125770D01*
X0278960Y0125955D01*
X0278328Y0126155D01*
X0277701Y0126371D01*
X0277080Y0126602D01*
X0276464Y0126848D01*
X0275855Y0127109D01*
X0275253Y0127385D01*
X0274657Y0127676D01*
X0274069Y0127981D01*
X0273488Y0128301D01*
X0272915Y0128634D01*
X0272351Y0128982D01*
X0271795Y0129344D01*
X0271249Y0129719D01*
X0270711Y0130107D01*
X0270184Y0130508D01*
X0269666Y0130923D01*
X0269159Y0131349D01*
X0268663Y0131788D01*
X0268177Y0132240D01*
X0267702Y0132702D01*
X0267240Y0133177D01*
X0266788Y0133663D01*
X0266349Y0134159D01*
X0265923Y0134666D01*
X0265508Y0135184D01*
X0265107Y0135711D01*
X0264719Y0136249D01*
X0264344Y0136795D01*
X0263982Y0137351D01*
X0263634Y0137915D01*
X0263301Y0138488D01*
X0262981Y0139069D01*
X0262676Y0139657D01*
X0262385Y0140253D01*
X0262109Y0140855D01*
X0261848Y0141464D01*
X0261602Y0142080D01*
X0261371Y0142701D01*
X0261155Y0143328D01*
X0260955Y0143960D01*
X0260770Y0144597D01*
X0260601Y0145238D01*
X0260448Y0145883D01*
X0260311Y0146531D01*
X0260190Y0147183D01*
X0260084Y0147837D01*
X0259995Y0148494D01*
X0259922Y0149153D01*
X0259865Y0149813D01*
X0259825Y0150475D01*
X0259800Y0151137D01*
X0259792Y0151800D01*
X0329792Y0256800D02*
X0329800Y0257463D01*
X0329825Y0258125D01*
X0329865Y0258787D01*
X0329922Y0259447D01*
X0329995Y0260106D01*
X0330084Y0260763D01*
X0330190Y0261417D01*
X0330311Y0262069D01*
X0330448Y0262717D01*
X0330601Y0263362D01*
X0330770Y0264003D01*
X0330955Y0264640D01*
X0331155Y0265272D01*
X0331371Y0265899D01*
X0331602Y0266520D01*
X0331848Y0267136D01*
X0332109Y0267745D01*
X0332385Y0268347D01*
X0332676Y0268943D01*
X0332981Y0269531D01*
X0333301Y0270112D01*
X0333634Y0270685D01*
X0333982Y0271249D01*
X0334344Y0271805D01*
X0334719Y0272351D01*
X0335107Y0272889D01*
X0335508Y0273416D01*
X0335923Y0273934D01*
X0336349Y0274441D01*
X0336788Y0274937D01*
X0337240Y0275423D01*
X0337702Y0275898D01*
X0338177Y0276360D01*
X0338663Y0276812D01*
X0339159Y0277251D01*
X0339666Y0277677D01*
X0340184Y0278092D01*
X0340711Y0278493D01*
X0341249Y0278881D01*
X0341795Y0279256D01*
X0342351Y0279618D01*
X0342915Y0279966D01*
X0343488Y0280299D01*
X0344069Y0280619D01*
X0344657Y0280924D01*
X0345253Y0281215D01*
X0345855Y0281491D01*
X0346464Y0281752D01*
X0347080Y0281998D01*
X0347701Y0282229D01*
X0348328Y0282445D01*
X0348960Y0282645D01*
X0349597Y0282830D01*
X0350238Y0282999D01*
X0350883Y0283152D01*
X0351531Y0283289D01*
X0352183Y0283410D01*
X0352837Y0283516D01*
X0353494Y0283605D01*
X0354153Y0283678D01*
X0354813Y0283735D01*
X0355475Y0283775D01*
X0356137Y0283800D01*
X0356800Y0283808D01*
X0357463Y0283800D01*
X0358125Y0283775D01*
X0358787Y0283735D01*
X0359447Y0283678D01*
X0360106Y0283605D01*
X0360763Y0283516D01*
X0361417Y0283410D01*
X0362069Y0283289D01*
X0362717Y0283152D01*
X0363362Y0282999D01*
X0364003Y0282830D01*
X0364640Y0282645D01*
X0365272Y0282445D01*
X0365899Y0282229D01*
X0366520Y0281998D01*
X0367136Y0281752D01*
X0367745Y0281491D01*
X0368347Y0281215D01*
X0368943Y0280924D01*
X0369531Y0280619D01*
X0370112Y0280299D01*
X0370685Y0279966D01*
X0371249Y0279618D01*
X0371805Y0279256D01*
X0372351Y0278881D01*
X0372889Y0278493D01*
X0373416Y0278092D01*
X0373934Y0277677D01*
X0374441Y0277251D01*
X0374937Y0276812D01*
X0375423Y0276360D01*
X0375898Y0275898D01*
X0376360Y0275423D01*
X0376812Y0274937D01*
X0377251Y0274441D01*
X0377677Y0273934D01*
X0378092Y0273416D01*
X0378493Y0272889D01*
X0378881Y0272351D01*
X0379256Y0271805D01*
X0379618Y0271249D01*
X0379966Y0270685D01*
X0380299Y0270112D01*
X0380619Y0269531D01*
X0380924Y0268943D01*
X0381215Y0268347D01*
X0381491Y0267745D01*
X0381752Y0267136D01*
X0381998Y0266520D01*
X0382229Y0265899D01*
X0382445Y0265272D01*
X0382645Y0264640D01*
X0382830Y0264003D01*
X0382999Y0263362D01*
X0383152Y0262717D01*
X0383289Y0262069D01*
X0383410Y0261417D01*
X0383516Y0260763D01*
X0383605Y0260106D01*
X0383678Y0259447D01*
X0383735Y0258787D01*
X0383775Y0258125D01*
X0383800Y0257463D01*
X0383808Y0256800D01*
X0383800Y0256137D01*
X0383775Y0255475D01*
X0383735Y0254813D01*
X0383678Y0254153D01*
X0383605Y0253494D01*
X0383516Y0252837D01*
X0383410Y0252183D01*
X0383289Y0251531D01*
X0383152Y0250883D01*
X0382999Y0250238D01*
X0382830Y0249597D01*
X0382645Y0248960D01*
X0382445Y0248328D01*
X0382229Y0247701D01*
X0381998Y0247080D01*
X0381752Y0246464D01*
X0381491Y0245855D01*
X0381215Y0245253D01*
X0380924Y0244657D01*
X0380619Y0244069D01*
X0380299Y0243488D01*
X0379966Y0242915D01*
X0379618Y0242351D01*
X0379256Y0241795D01*
X0378881Y0241249D01*
X0378493Y0240711D01*
X0378092Y0240184D01*
X0377677Y0239666D01*
X0377251Y0239159D01*
X0376812Y0238663D01*
X0376360Y0238177D01*
X0375898Y0237702D01*
X0375423Y0237240D01*
X0374937Y0236788D01*
X0374441Y0236349D01*
X0373934Y0235923D01*
X0373416Y0235508D01*
X0372889Y0235107D01*
X0372351Y0234719D01*
X0371805Y0234344D01*
X0371249Y0233982D01*
X0370685Y0233634D01*
X0370112Y0233301D01*
X0369531Y0232981D01*
X0368943Y0232676D01*
X0368347Y0232385D01*
X0367745Y0232109D01*
X0367136Y0231848D01*
X0366520Y0231602D01*
X0365899Y0231371D01*
X0365272Y0231155D01*
X0364640Y0230955D01*
X0364003Y0230770D01*
X0363362Y0230601D01*
X0362717Y0230448D01*
X0362069Y0230311D01*
X0361417Y0230190D01*
X0360763Y0230084D01*
X0360106Y0229995D01*
X0359447Y0229922D01*
X0358787Y0229865D01*
X0358125Y0229825D01*
X0357463Y0229800D01*
X0356800Y0229792D01*
X0356137Y0229800D01*
X0355475Y0229825D01*
X0354813Y0229865D01*
X0354153Y0229922D01*
X0353494Y0229995D01*
X0352837Y0230084D01*
X0352183Y0230190D01*
X0351531Y0230311D01*
X0350883Y0230448D01*
X0350238Y0230601D01*
X0349597Y0230770D01*
X0348960Y0230955D01*
X0348328Y0231155D01*
X0347701Y0231371D01*
X0347080Y0231602D01*
X0346464Y0231848D01*
X0345855Y0232109D01*
X0345253Y0232385D01*
X0344657Y0232676D01*
X0344069Y0232981D01*
X0343488Y0233301D01*
X0342915Y0233634D01*
X0342351Y0233982D01*
X0341795Y0234344D01*
X0341249Y0234719D01*
X0340711Y0235107D01*
X0340184Y0235508D01*
X0339666Y0235923D01*
X0339159Y0236349D01*
X0338663Y0236788D01*
X0338177Y0237240D01*
X0337702Y0237702D01*
X0337240Y0238177D01*
X0336788Y0238663D01*
X0336349Y0239159D01*
X0335923Y0239666D01*
X0335508Y0240184D01*
X0335107Y0240711D01*
X0334719Y0241249D01*
X0334344Y0241795D01*
X0333982Y0242351D01*
X0333634Y0242915D01*
X0333301Y0243488D01*
X0332981Y0244069D01*
X0332676Y0244657D01*
X0332385Y0245253D01*
X0332109Y0245855D01*
X0331848Y0246464D01*
X0331602Y0247080D01*
X0331371Y0247701D01*
X0331155Y0248328D01*
X0330955Y0248960D01*
X0330770Y0249597D01*
X0330601Y0250238D01*
X0330448Y0250883D01*
X0330311Y0251531D01*
X0330190Y0252183D01*
X0330084Y0252837D01*
X0329995Y0253494D01*
X0329922Y0254153D01*
X0329865Y0254813D01*
X0329825Y0255475D01*
X0329800Y0256137D01*
X0329792Y0256800D01*
X0259792Y0306800D02*
X0259800Y0307463D01*
X0259825Y0308125D01*
X0259865Y0308787D01*
X0259922Y0309447D01*
X0259995Y0310106D01*
X0260084Y0310763D01*
X0260190Y0311417D01*
X0260311Y0312069D01*
X0260448Y0312717D01*
X0260601Y0313362D01*
X0260770Y0314003D01*
X0260955Y0314640D01*
X0261155Y0315272D01*
X0261371Y0315899D01*
X0261602Y0316520D01*
X0261848Y0317136D01*
X0262109Y0317745D01*
X0262385Y0318347D01*
X0262676Y0318943D01*
X0262981Y0319531D01*
X0263301Y0320112D01*
X0263634Y0320685D01*
X0263982Y0321249D01*
X0264344Y0321805D01*
X0264719Y0322351D01*
X0265107Y0322889D01*
X0265508Y0323416D01*
X0265923Y0323934D01*
X0266349Y0324441D01*
X0266788Y0324937D01*
X0267240Y0325423D01*
X0267702Y0325898D01*
X0268177Y0326360D01*
X0268663Y0326812D01*
X0269159Y0327251D01*
X0269666Y0327677D01*
X0270184Y0328092D01*
X0270711Y0328493D01*
X0271249Y0328881D01*
X0271795Y0329256D01*
X0272351Y0329618D01*
X0272915Y0329966D01*
X0273488Y0330299D01*
X0274069Y0330619D01*
X0274657Y0330924D01*
X0275253Y0331215D01*
X0275855Y0331491D01*
X0276464Y0331752D01*
X0277080Y0331998D01*
X0277701Y0332229D01*
X0278328Y0332445D01*
X0278960Y0332645D01*
X0279597Y0332830D01*
X0280238Y0332999D01*
X0280883Y0333152D01*
X0281531Y0333289D01*
X0282183Y0333410D01*
X0282837Y0333516D01*
X0283494Y0333605D01*
X0284153Y0333678D01*
X0284813Y0333735D01*
X0285475Y0333775D01*
X0286137Y0333800D01*
X0286800Y0333808D01*
X0287463Y0333800D01*
X0288125Y0333775D01*
X0288787Y0333735D01*
X0289447Y0333678D01*
X0290106Y0333605D01*
X0290763Y0333516D01*
X0291417Y0333410D01*
X0292069Y0333289D01*
X0292717Y0333152D01*
X0293362Y0332999D01*
X0294003Y0332830D01*
X0294640Y0332645D01*
X0295272Y0332445D01*
X0295899Y0332229D01*
X0296520Y0331998D01*
X0297136Y0331752D01*
X0297745Y0331491D01*
X0298347Y0331215D01*
X0298943Y0330924D01*
X0299531Y0330619D01*
X0300112Y0330299D01*
X0300685Y0329966D01*
X0301249Y0329618D01*
X0301805Y0329256D01*
X0302351Y0328881D01*
X0302889Y0328493D01*
X0303416Y0328092D01*
X0303934Y0327677D01*
X0304441Y0327251D01*
X0304937Y0326812D01*
X0305423Y0326360D01*
X0305898Y0325898D01*
X0306360Y0325423D01*
X0306812Y0324937D01*
X0307251Y0324441D01*
X0307677Y0323934D01*
X0308092Y0323416D01*
X0308493Y0322889D01*
X0308881Y0322351D01*
X0309256Y0321805D01*
X0309618Y0321249D01*
X0309966Y0320685D01*
X0310299Y0320112D01*
X0310619Y0319531D01*
X0310924Y0318943D01*
X0311215Y0318347D01*
X0311491Y0317745D01*
X0311752Y0317136D01*
X0311998Y0316520D01*
X0312229Y0315899D01*
X0312445Y0315272D01*
X0312645Y0314640D01*
X0312830Y0314003D01*
X0312999Y0313362D01*
X0313152Y0312717D01*
X0313289Y0312069D01*
X0313410Y0311417D01*
X0313516Y0310763D01*
X0313605Y0310106D01*
X0313678Y0309447D01*
X0313735Y0308787D01*
X0313775Y0308125D01*
X0313800Y0307463D01*
X0313808Y0306800D01*
X0313800Y0306137D01*
X0313775Y0305475D01*
X0313735Y0304813D01*
X0313678Y0304153D01*
X0313605Y0303494D01*
X0313516Y0302837D01*
X0313410Y0302183D01*
X0313289Y0301531D01*
X0313152Y0300883D01*
X0312999Y0300238D01*
X0312830Y0299597D01*
X0312645Y0298960D01*
X0312445Y0298328D01*
X0312229Y0297701D01*
X0311998Y0297080D01*
X0311752Y0296464D01*
X0311491Y0295855D01*
X0311215Y0295253D01*
X0310924Y0294657D01*
X0310619Y0294069D01*
X0310299Y0293488D01*
X0309966Y0292915D01*
X0309618Y0292351D01*
X0309256Y0291795D01*
X0308881Y0291249D01*
X0308493Y0290711D01*
X0308092Y0290184D01*
X0307677Y0289666D01*
X0307251Y0289159D01*
X0306812Y0288663D01*
X0306360Y0288177D01*
X0305898Y0287702D01*
X0305423Y0287240D01*
X0304937Y0286788D01*
X0304441Y0286349D01*
X0303934Y0285923D01*
X0303416Y0285508D01*
X0302889Y0285107D01*
X0302351Y0284719D01*
X0301805Y0284344D01*
X0301249Y0283982D01*
X0300685Y0283634D01*
X0300112Y0283301D01*
X0299531Y0282981D01*
X0298943Y0282676D01*
X0298347Y0282385D01*
X0297745Y0282109D01*
X0297136Y0281848D01*
X0296520Y0281602D01*
X0295899Y0281371D01*
X0295272Y0281155D01*
X0294640Y0280955D01*
X0294003Y0280770D01*
X0293362Y0280601D01*
X0292717Y0280448D01*
X0292069Y0280311D01*
X0291417Y0280190D01*
X0290763Y0280084D01*
X0290106Y0279995D01*
X0289447Y0279922D01*
X0288787Y0279865D01*
X0288125Y0279825D01*
X0287463Y0279800D01*
X0286800Y0279792D01*
X0286137Y0279800D01*
X0285475Y0279825D01*
X0284813Y0279865D01*
X0284153Y0279922D01*
X0283494Y0279995D01*
X0282837Y0280084D01*
X0282183Y0280190D01*
X0281531Y0280311D01*
X0280883Y0280448D01*
X0280238Y0280601D01*
X0279597Y0280770D01*
X0278960Y0280955D01*
X0278328Y0281155D01*
X0277701Y0281371D01*
X0277080Y0281602D01*
X0276464Y0281848D01*
X0275855Y0282109D01*
X0275253Y0282385D01*
X0274657Y0282676D01*
X0274069Y0282981D01*
X0273488Y0283301D01*
X0272915Y0283634D01*
X0272351Y0283982D01*
X0271795Y0284344D01*
X0271249Y0284719D01*
X0270711Y0285107D01*
X0270184Y0285508D01*
X0269666Y0285923D01*
X0269159Y0286349D01*
X0268663Y0286788D01*
X0268177Y0287240D01*
X0267702Y0287702D01*
X0267240Y0288177D01*
X0266788Y0288663D01*
X0266349Y0289159D01*
X0265923Y0289666D01*
X0265508Y0290184D01*
X0265107Y0290711D01*
X0264719Y0291249D01*
X0264344Y0291795D01*
X0263982Y0292351D01*
X0263634Y0292915D01*
X0263301Y0293488D01*
X0262981Y0294069D01*
X0262676Y0294657D01*
X0262385Y0295253D01*
X0262109Y0295855D01*
X0261848Y0296464D01*
X0261602Y0297080D01*
X0261371Y0297701D01*
X0261155Y0298328D01*
X0260955Y0298960D01*
X0260770Y0299597D01*
X0260601Y0300238D01*
X0260448Y0300883D01*
X0260311Y0301531D01*
X0260190Y0302183D01*
X0260084Y0302837D01*
X0259995Y0303494D01*
X0259922Y0304153D01*
X0259865Y0304813D01*
X0259825Y0305475D01*
X0259800Y0306137D01*
X0259792Y0306800D01*
X0184792Y0306800D02*
X0184800Y0307463D01*
X0184825Y0308125D01*
X0184865Y0308787D01*
X0184922Y0309447D01*
X0184995Y0310106D01*
X0185084Y0310763D01*
X0185190Y0311417D01*
X0185311Y0312069D01*
X0185448Y0312717D01*
X0185601Y0313362D01*
X0185770Y0314003D01*
X0185955Y0314640D01*
X0186155Y0315272D01*
X0186371Y0315899D01*
X0186602Y0316520D01*
X0186848Y0317136D01*
X0187109Y0317745D01*
X0187385Y0318347D01*
X0187676Y0318943D01*
X0187981Y0319531D01*
X0188301Y0320112D01*
X0188634Y0320685D01*
X0188982Y0321249D01*
X0189344Y0321805D01*
X0189719Y0322351D01*
X0190107Y0322889D01*
X0190508Y0323416D01*
X0190923Y0323934D01*
X0191349Y0324441D01*
X0191788Y0324937D01*
X0192240Y0325423D01*
X0192702Y0325898D01*
X0193177Y0326360D01*
X0193663Y0326812D01*
X0194159Y0327251D01*
X0194666Y0327677D01*
X0195184Y0328092D01*
X0195711Y0328493D01*
X0196249Y0328881D01*
X0196795Y0329256D01*
X0197351Y0329618D01*
X0197915Y0329966D01*
X0198488Y0330299D01*
X0199069Y0330619D01*
X0199657Y0330924D01*
X0200253Y0331215D01*
X0200855Y0331491D01*
X0201464Y0331752D01*
X0202080Y0331998D01*
X0202701Y0332229D01*
X0203328Y0332445D01*
X0203960Y0332645D01*
X0204597Y0332830D01*
X0205238Y0332999D01*
X0205883Y0333152D01*
X0206531Y0333289D01*
X0207183Y0333410D01*
X0207837Y0333516D01*
X0208494Y0333605D01*
X0209153Y0333678D01*
X0209813Y0333735D01*
X0210475Y0333775D01*
X0211137Y0333800D01*
X0211800Y0333808D01*
X0212463Y0333800D01*
X0213125Y0333775D01*
X0213787Y0333735D01*
X0214447Y0333678D01*
X0215106Y0333605D01*
X0215763Y0333516D01*
X0216417Y0333410D01*
X0217069Y0333289D01*
X0217717Y0333152D01*
X0218362Y0332999D01*
X0219003Y0332830D01*
X0219640Y0332645D01*
X0220272Y0332445D01*
X0220899Y0332229D01*
X0221520Y0331998D01*
X0222136Y0331752D01*
X0222745Y0331491D01*
X0223347Y0331215D01*
X0223943Y0330924D01*
X0224531Y0330619D01*
X0225112Y0330299D01*
X0225685Y0329966D01*
X0226249Y0329618D01*
X0226805Y0329256D01*
X0227351Y0328881D01*
X0227889Y0328493D01*
X0228416Y0328092D01*
X0228934Y0327677D01*
X0229441Y0327251D01*
X0229937Y0326812D01*
X0230423Y0326360D01*
X0230898Y0325898D01*
X0231360Y0325423D01*
X0231812Y0324937D01*
X0232251Y0324441D01*
X0232677Y0323934D01*
X0233092Y0323416D01*
X0233493Y0322889D01*
X0233881Y0322351D01*
X0234256Y0321805D01*
X0234618Y0321249D01*
X0234966Y0320685D01*
X0235299Y0320112D01*
X0235619Y0319531D01*
X0235924Y0318943D01*
X0236215Y0318347D01*
X0236491Y0317745D01*
X0236752Y0317136D01*
X0236998Y0316520D01*
X0237229Y0315899D01*
X0237445Y0315272D01*
X0237645Y0314640D01*
X0237830Y0314003D01*
X0237999Y0313362D01*
X0238152Y0312717D01*
X0238289Y0312069D01*
X0238410Y0311417D01*
X0238516Y0310763D01*
X0238605Y0310106D01*
X0238678Y0309447D01*
X0238735Y0308787D01*
X0238775Y0308125D01*
X0238800Y0307463D01*
X0238808Y0306800D01*
X0238800Y0306137D01*
X0238775Y0305475D01*
X0238735Y0304813D01*
X0238678Y0304153D01*
X0238605Y0303494D01*
X0238516Y0302837D01*
X0238410Y0302183D01*
X0238289Y0301531D01*
X0238152Y0300883D01*
X0237999Y0300238D01*
X0237830Y0299597D01*
X0237645Y0298960D01*
X0237445Y0298328D01*
X0237229Y0297701D01*
X0236998Y0297080D01*
X0236752Y0296464D01*
X0236491Y0295855D01*
X0236215Y0295253D01*
X0235924Y0294657D01*
X0235619Y0294069D01*
X0235299Y0293488D01*
X0234966Y0292915D01*
X0234618Y0292351D01*
X0234256Y0291795D01*
X0233881Y0291249D01*
X0233493Y0290711D01*
X0233092Y0290184D01*
X0232677Y0289666D01*
X0232251Y0289159D01*
X0231812Y0288663D01*
X0231360Y0288177D01*
X0230898Y0287702D01*
X0230423Y0287240D01*
X0229937Y0286788D01*
X0229441Y0286349D01*
X0228934Y0285923D01*
X0228416Y0285508D01*
X0227889Y0285107D01*
X0227351Y0284719D01*
X0226805Y0284344D01*
X0226249Y0283982D01*
X0225685Y0283634D01*
X0225112Y0283301D01*
X0224531Y0282981D01*
X0223943Y0282676D01*
X0223347Y0282385D01*
X0222745Y0282109D01*
X0222136Y0281848D01*
X0221520Y0281602D01*
X0220899Y0281371D01*
X0220272Y0281155D01*
X0219640Y0280955D01*
X0219003Y0280770D01*
X0218362Y0280601D01*
X0217717Y0280448D01*
X0217069Y0280311D01*
X0216417Y0280190D01*
X0215763Y0280084D01*
X0215106Y0279995D01*
X0214447Y0279922D01*
X0213787Y0279865D01*
X0213125Y0279825D01*
X0212463Y0279800D01*
X0211800Y0279792D01*
X0211137Y0279800D01*
X0210475Y0279825D01*
X0209813Y0279865D01*
X0209153Y0279922D01*
X0208494Y0279995D01*
X0207837Y0280084D01*
X0207183Y0280190D01*
X0206531Y0280311D01*
X0205883Y0280448D01*
X0205238Y0280601D01*
X0204597Y0280770D01*
X0203960Y0280955D01*
X0203328Y0281155D01*
X0202701Y0281371D01*
X0202080Y0281602D01*
X0201464Y0281848D01*
X0200855Y0282109D01*
X0200253Y0282385D01*
X0199657Y0282676D01*
X0199069Y0282981D01*
X0198488Y0283301D01*
X0197915Y0283634D01*
X0197351Y0283982D01*
X0196795Y0284344D01*
X0196249Y0284719D01*
X0195711Y0285107D01*
X0195184Y0285508D01*
X0194666Y0285923D01*
X0194159Y0286349D01*
X0193663Y0286788D01*
X0193177Y0287240D01*
X0192702Y0287702D01*
X0192240Y0288177D01*
X0191788Y0288663D01*
X0191349Y0289159D01*
X0190923Y0289666D01*
X0190508Y0290184D01*
X0190107Y0290711D01*
X0189719Y0291249D01*
X0189344Y0291795D01*
X0188982Y0292351D01*
X0188634Y0292915D01*
X0188301Y0293488D01*
X0187981Y0294069D01*
X0187676Y0294657D01*
X0187385Y0295253D01*
X0187109Y0295855D01*
X0186848Y0296464D01*
X0186602Y0297080D01*
X0186371Y0297701D01*
X0186155Y0298328D01*
X0185955Y0298960D01*
X0185770Y0299597D01*
X0185601Y0300238D01*
X0185448Y0300883D01*
X0185311Y0301531D01*
X0185190Y0302183D01*
X0185084Y0302837D01*
X0184995Y0303494D01*
X0184922Y0304153D01*
X0184865Y0304813D01*
X0184825Y0305475D01*
X0184800Y0306137D01*
X0184792Y0306800D01*
X0109792Y0306800D02*
X0109800Y0307463D01*
X0109825Y0308125D01*
X0109865Y0308787D01*
X0109922Y0309447D01*
X0109995Y0310106D01*
X0110084Y0310763D01*
X0110190Y0311417D01*
X0110311Y0312069D01*
X0110448Y0312717D01*
X0110601Y0313362D01*
X0110770Y0314003D01*
X0110955Y0314640D01*
X0111155Y0315272D01*
X0111371Y0315899D01*
X0111602Y0316520D01*
X0111848Y0317136D01*
X0112109Y0317745D01*
X0112385Y0318347D01*
X0112676Y0318943D01*
X0112981Y0319531D01*
X0113301Y0320112D01*
X0113634Y0320685D01*
X0113982Y0321249D01*
X0114344Y0321805D01*
X0114719Y0322351D01*
X0115107Y0322889D01*
X0115508Y0323416D01*
X0115923Y0323934D01*
X0116349Y0324441D01*
X0116788Y0324937D01*
X0117240Y0325423D01*
X0117702Y0325898D01*
X0118177Y0326360D01*
X0118663Y0326812D01*
X0119159Y0327251D01*
X0119666Y0327677D01*
X0120184Y0328092D01*
X0120711Y0328493D01*
X0121249Y0328881D01*
X0121795Y0329256D01*
X0122351Y0329618D01*
X0122915Y0329966D01*
X0123488Y0330299D01*
X0124069Y0330619D01*
X0124657Y0330924D01*
X0125253Y0331215D01*
X0125855Y0331491D01*
X0126464Y0331752D01*
X0127080Y0331998D01*
X0127701Y0332229D01*
X0128328Y0332445D01*
X0128960Y0332645D01*
X0129597Y0332830D01*
X0130238Y0332999D01*
X0130883Y0333152D01*
X0131531Y0333289D01*
X0132183Y0333410D01*
X0132837Y0333516D01*
X0133494Y0333605D01*
X0134153Y0333678D01*
X0134813Y0333735D01*
X0135475Y0333775D01*
X0136137Y0333800D01*
X0136800Y0333808D01*
X0137463Y0333800D01*
X0138125Y0333775D01*
X0138787Y0333735D01*
X0139447Y0333678D01*
X0140106Y0333605D01*
X0140763Y0333516D01*
X0141417Y0333410D01*
X0142069Y0333289D01*
X0142717Y0333152D01*
X0143362Y0332999D01*
X0144003Y0332830D01*
X0144640Y0332645D01*
X0145272Y0332445D01*
X0145899Y0332229D01*
X0146520Y0331998D01*
X0147136Y0331752D01*
X0147745Y0331491D01*
X0148347Y0331215D01*
X0148943Y0330924D01*
X0149531Y0330619D01*
X0150112Y0330299D01*
X0150685Y0329966D01*
X0151249Y0329618D01*
X0151805Y0329256D01*
X0152351Y0328881D01*
X0152889Y0328493D01*
X0153416Y0328092D01*
X0153934Y0327677D01*
X0154441Y0327251D01*
X0154937Y0326812D01*
X0155423Y0326360D01*
X0155898Y0325898D01*
X0156360Y0325423D01*
X0156812Y0324937D01*
X0157251Y0324441D01*
X0157677Y0323934D01*
X0158092Y0323416D01*
X0158493Y0322889D01*
X0158881Y0322351D01*
X0159256Y0321805D01*
X0159618Y0321249D01*
X0159966Y0320685D01*
X0160299Y0320112D01*
X0160619Y0319531D01*
X0160924Y0318943D01*
X0161215Y0318347D01*
X0161491Y0317745D01*
X0161752Y0317136D01*
X0161998Y0316520D01*
X0162229Y0315899D01*
X0162445Y0315272D01*
X0162645Y0314640D01*
X0162830Y0314003D01*
X0162999Y0313362D01*
X0163152Y0312717D01*
X0163289Y0312069D01*
X0163410Y0311417D01*
X0163516Y0310763D01*
X0163605Y0310106D01*
X0163678Y0309447D01*
X0163735Y0308787D01*
X0163775Y0308125D01*
X0163800Y0307463D01*
X0163808Y0306800D01*
X0163800Y0306137D01*
X0163775Y0305475D01*
X0163735Y0304813D01*
X0163678Y0304153D01*
X0163605Y0303494D01*
X0163516Y0302837D01*
X0163410Y0302183D01*
X0163289Y0301531D01*
X0163152Y0300883D01*
X0162999Y0300238D01*
X0162830Y0299597D01*
X0162645Y0298960D01*
X0162445Y0298328D01*
X0162229Y0297701D01*
X0161998Y0297080D01*
X0161752Y0296464D01*
X0161491Y0295855D01*
X0161215Y0295253D01*
X0160924Y0294657D01*
X0160619Y0294069D01*
X0160299Y0293488D01*
X0159966Y0292915D01*
X0159618Y0292351D01*
X0159256Y0291795D01*
X0158881Y0291249D01*
X0158493Y0290711D01*
X0158092Y0290184D01*
X0157677Y0289666D01*
X0157251Y0289159D01*
X0156812Y0288663D01*
X0156360Y0288177D01*
X0155898Y0287702D01*
X0155423Y0287240D01*
X0154937Y0286788D01*
X0154441Y0286349D01*
X0153934Y0285923D01*
X0153416Y0285508D01*
X0152889Y0285107D01*
X0152351Y0284719D01*
X0151805Y0284344D01*
X0151249Y0283982D01*
X0150685Y0283634D01*
X0150112Y0283301D01*
X0149531Y0282981D01*
X0148943Y0282676D01*
X0148347Y0282385D01*
X0147745Y0282109D01*
X0147136Y0281848D01*
X0146520Y0281602D01*
X0145899Y0281371D01*
X0145272Y0281155D01*
X0144640Y0280955D01*
X0144003Y0280770D01*
X0143362Y0280601D01*
X0142717Y0280448D01*
X0142069Y0280311D01*
X0141417Y0280190D01*
X0140763Y0280084D01*
X0140106Y0279995D01*
X0139447Y0279922D01*
X0138787Y0279865D01*
X0138125Y0279825D01*
X0137463Y0279800D01*
X0136800Y0279792D01*
X0136137Y0279800D01*
X0135475Y0279825D01*
X0134813Y0279865D01*
X0134153Y0279922D01*
X0133494Y0279995D01*
X0132837Y0280084D01*
X0132183Y0280190D01*
X0131531Y0280311D01*
X0130883Y0280448D01*
X0130238Y0280601D01*
X0129597Y0280770D01*
X0128960Y0280955D01*
X0128328Y0281155D01*
X0127701Y0281371D01*
X0127080Y0281602D01*
X0126464Y0281848D01*
X0125855Y0282109D01*
X0125253Y0282385D01*
X0124657Y0282676D01*
X0124069Y0282981D01*
X0123488Y0283301D01*
X0122915Y0283634D01*
X0122351Y0283982D01*
X0121795Y0284344D01*
X0121249Y0284719D01*
X0120711Y0285107D01*
X0120184Y0285508D01*
X0119666Y0285923D01*
X0119159Y0286349D01*
X0118663Y0286788D01*
X0118177Y0287240D01*
X0117702Y0287702D01*
X0117240Y0288177D01*
X0116788Y0288663D01*
X0116349Y0289159D01*
X0115923Y0289666D01*
X0115508Y0290184D01*
X0115107Y0290711D01*
X0114719Y0291249D01*
X0114344Y0291795D01*
X0113982Y0292351D01*
X0113634Y0292915D01*
X0113301Y0293488D01*
X0112981Y0294069D01*
X0112676Y0294657D01*
X0112385Y0295253D01*
X0112109Y0295855D01*
X0111848Y0296464D01*
X0111602Y0297080D01*
X0111371Y0297701D01*
X0111155Y0298328D01*
X0110955Y0298960D01*
X0110770Y0299597D01*
X0110601Y0300238D01*
X0110448Y0300883D01*
X0110311Y0301531D01*
X0110190Y0302183D01*
X0110084Y0302837D01*
X0109995Y0303494D01*
X0109922Y0304153D01*
X0109865Y0304813D01*
X0109825Y0305475D01*
X0109800Y0306137D01*
X0109792Y0306800D01*
X0034792Y0306800D02*
X0034800Y0307463D01*
X0034825Y0308125D01*
X0034865Y0308787D01*
X0034922Y0309447D01*
X0034995Y0310106D01*
X0035084Y0310763D01*
X0035190Y0311417D01*
X0035311Y0312069D01*
X0035448Y0312717D01*
X0035601Y0313362D01*
X0035770Y0314003D01*
X0035955Y0314640D01*
X0036155Y0315272D01*
X0036371Y0315899D01*
X0036602Y0316520D01*
X0036848Y0317136D01*
X0037109Y0317745D01*
X0037385Y0318347D01*
X0037676Y0318943D01*
X0037981Y0319531D01*
X0038301Y0320112D01*
X0038634Y0320685D01*
X0038982Y0321249D01*
X0039344Y0321805D01*
X0039719Y0322351D01*
X0040107Y0322889D01*
X0040508Y0323416D01*
X0040923Y0323934D01*
X0041349Y0324441D01*
X0041788Y0324937D01*
X0042240Y0325423D01*
X0042702Y0325898D01*
X0043177Y0326360D01*
X0043663Y0326812D01*
X0044159Y0327251D01*
X0044666Y0327677D01*
X0045184Y0328092D01*
X0045711Y0328493D01*
X0046249Y0328881D01*
X0046795Y0329256D01*
X0047351Y0329618D01*
X0047915Y0329966D01*
X0048488Y0330299D01*
X0049069Y0330619D01*
X0049657Y0330924D01*
X0050253Y0331215D01*
X0050855Y0331491D01*
X0051464Y0331752D01*
X0052080Y0331998D01*
X0052701Y0332229D01*
X0053328Y0332445D01*
X0053960Y0332645D01*
X0054597Y0332830D01*
X0055238Y0332999D01*
X0055883Y0333152D01*
X0056531Y0333289D01*
X0057183Y0333410D01*
X0057837Y0333516D01*
X0058494Y0333605D01*
X0059153Y0333678D01*
X0059813Y0333735D01*
X0060475Y0333775D01*
X0061137Y0333800D01*
X0061800Y0333808D01*
X0062463Y0333800D01*
X0063125Y0333775D01*
X0063787Y0333735D01*
X0064447Y0333678D01*
X0065106Y0333605D01*
X0065763Y0333516D01*
X0066417Y0333410D01*
X0067069Y0333289D01*
X0067717Y0333152D01*
X0068362Y0332999D01*
X0069003Y0332830D01*
X0069640Y0332645D01*
X0070272Y0332445D01*
X0070899Y0332229D01*
X0071520Y0331998D01*
X0072136Y0331752D01*
X0072745Y0331491D01*
X0073347Y0331215D01*
X0073943Y0330924D01*
X0074531Y0330619D01*
X0075112Y0330299D01*
X0075685Y0329966D01*
X0076249Y0329618D01*
X0076805Y0329256D01*
X0077351Y0328881D01*
X0077889Y0328493D01*
X0078416Y0328092D01*
X0078934Y0327677D01*
X0079441Y0327251D01*
X0079937Y0326812D01*
X0080423Y0326360D01*
X0080898Y0325898D01*
X0081360Y0325423D01*
X0081812Y0324937D01*
X0082251Y0324441D01*
X0082677Y0323934D01*
X0083092Y0323416D01*
X0083493Y0322889D01*
X0083881Y0322351D01*
X0084256Y0321805D01*
X0084618Y0321249D01*
X0084966Y0320685D01*
X0085299Y0320112D01*
X0085619Y0319531D01*
X0085924Y0318943D01*
X0086215Y0318347D01*
X0086491Y0317745D01*
X0086752Y0317136D01*
X0086998Y0316520D01*
X0087229Y0315899D01*
X0087445Y0315272D01*
X0087645Y0314640D01*
X0087830Y0314003D01*
X0087999Y0313362D01*
X0088152Y0312717D01*
X0088289Y0312069D01*
X0088410Y0311417D01*
X0088516Y0310763D01*
X0088605Y0310106D01*
X0088678Y0309447D01*
X0088735Y0308787D01*
X0088775Y0308125D01*
X0088800Y0307463D01*
X0088808Y0306800D01*
X0088800Y0306137D01*
X0088775Y0305475D01*
X0088735Y0304813D01*
X0088678Y0304153D01*
X0088605Y0303494D01*
X0088516Y0302837D01*
X0088410Y0302183D01*
X0088289Y0301531D01*
X0088152Y0300883D01*
X0087999Y0300238D01*
X0087830Y0299597D01*
X0087645Y0298960D01*
X0087445Y0298328D01*
X0087229Y0297701D01*
X0086998Y0297080D01*
X0086752Y0296464D01*
X0086491Y0295855D01*
X0086215Y0295253D01*
X0085924Y0294657D01*
X0085619Y0294069D01*
X0085299Y0293488D01*
X0084966Y0292915D01*
X0084618Y0292351D01*
X0084256Y0291795D01*
X0083881Y0291249D01*
X0083493Y0290711D01*
X0083092Y0290184D01*
X0082677Y0289666D01*
X0082251Y0289159D01*
X0081812Y0288663D01*
X0081360Y0288177D01*
X0080898Y0287702D01*
X0080423Y0287240D01*
X0079937Y0286788D01*
X0079441Y0286349D01*
X0078934Y0285923D01*
X0078416Y0285508D01*
X0077889Y0285107D01*
X0077351Y0284719D01*
X0076805Y0284344D01*
X0076249Y0283982D01*
X0075685Y0283634D01*
X0075112Y0283301D01*
X0074531Y0282981D01*
X0073943Y0282676D01*
X0073347Y0282385D01*
X0072745Y0282109D01*
X0072136Y0281848D01*
X0071520Y0281602D01*
X0070899Y0281371D01*
X0070272Y0281155D01*
X0069640Y0280955D01*
X0069003Y0280770D01*
X0068362Y0280601D01*
X0067717Y0280448D01*
X0067069Y0280311D01*
X0066417Y0280190D01*
X0065763Y0280084D01*
X0065106Y0279995D01*
X0064447Y0279922D01*
X0063787Y0279865D01*
X0063125Y0279825D01*
X0062463Y0279800D01*
X0061800Y0279792D01*
X0061137Y0279800D01*
X0060475Y0279825D01*
X0059813Y0279865D01*
X0059153Y0279922D01*
X0058494Y0279995D01*
X0057837Y0280084D01*
X0057183Y0280190D01*
X0056531Y0280311D01*
X0055883Y0280448D01*
X0055238Y0280601D01*
X0054597Y0280770D01*
X0053960Y0280955D01*
X0053328Y0281155D01*
X0052701Y0281371D01*
X0052080Y0281602D01*
X0051464Y0281848D01*
X0050855Y0282109D01*
X0050253Y0282385D01*
X0049657Y0282676D01*
X0049069Y0282981D01*
X0048488Y0283301D01*
X0047915Y0283634D01*
X0047351Y0283982D01*
X0046795Y0284344D01*
X0046249Y0284719D01*
X0045711Y0285107D01*
X0045184Y0285508D01*
X0044666Y0285923D01*
X0044159Y0286349D01*
X0043663Y0286788D01*
X0043177Y0287240D01*
X0042702Y0287702D01*
X0042240Y0288177D01*
X0041788Y0288663D01*
X0041349Y0289159D01*
X0040923Y0289666D01*
X0040508Y0290184D01*
X0040107Y0290711D01*
X0039719Y0291249D01*
X0039344Y0291795D01*
X0038982Y0292351D01*
X0038634Y0292915D01*
X0038301Y0293488D01*
X0037981Y0294069D01*
X0037676Y0294657D01*
X0037385Y0295253D01*
X0037109Y0295855D01*
X0036848Y0296464D01*
X0036602Y0297080D01*
X0036371Y0297701D01*
X0036155Y0298328D01*
X0035955Y0298960D01*
X0035770Y0299597D01*
X0035601Y0300238D01*
X0035448Y0300883D01*
X0035311Y0301531D01*
X0035190Y0302183D01*
X0035084Y0302837D01*
X0034995Y0303494D01*
X0034922Y0304153D01*
X0034865Y0304813D01*
X0034825Y0305475D01*
X0034800Y0306137D01*
X0034792Y0306800D01*
D15*
X0052000Y0332000D02*
X0055069Y0336604D01*
X0056604Y0335069D02*
X0058139Y0336604D01*
X0058139Y0332000D01*
X0059673Y0332000D02*
X0056604Y0332000D01*
X0055069Y0332000D02*
X0052000Y0336604D01*
X0061208Y0334302D02*
X0063510Y0334302D01*
X0064277Y0333535D01*
X0064277Y0332767D01*
X0063510Y0332000D01*
X0061975Y0332000D01*
X0061208Y0332767D01*
X0061208Y0334302D01*
X0062742Y0335837D01*
X0064277Y0336604D01*
X0127000Y0336604D02*
X0130069Y0332000D01*
X0131604Y0332000D02*
X0134673Y0332000D01*
X0133139Y0332000D02*
X0133139Y0336604D01*
X0131604Y0335069D01*
X0130069Y0336604D02*
X0127000Y0332000D01*
X0136208Y0334302D02*
X0139277Y0334302D01*
X0138510Y0336604D02*
X0136208Y0334302D01*
X0138510Y0332000D02*
X0138510Y0336604D01*
X0202000Y0336604D02*
X0205069Y0332000D01*
X0206604Y0332000D02*
X0209673Y0332000D01*
X0208139Y0332000D02*
X0208139Y0336604D01*
X0206604Y0335069D01*
X0205069Y0336604D02*
X0202000Y0332000D01*
X0211208Y0332000D02*
X0214277Y0335069D01*
X0214277Y0335837D01*
X0213510Y0336604D01*
X0211975Y0336604D01*
X0211208Y0335837D01*
X0211208Y0332000D02*
X0214277Y0332000D01*
X0277000Y0332000D02*
X0280069Y0336604D01*
X0281604Y0335069D02*
X0283139Y0336604D01*
X0283139Y0332000D01*
X0284673Y0332000D02*
X0281604Y0332000D01*
X0280069Y0332000D02*
X0277000Y0336604D01*
X0286208Y0335837D02*
X0286975Y0336604D01*
X0288510Y0336604D01*
X0289277Y0335837D01*
X0286208Y0332767D01*
X0286975Y0332000D01*
X0288510Y0332000D01*
X0289277Y0332767D01*
X0289277Y0335837D01*
X0286208Y0335837D02*
X0286208Y0332767D01*
X0347000Y0285837D02*
X0347000Y0282767D01*
X0347767Y0282000D01*
X0349302Y0282000D01*
X0350069Y0282767D01*
X0350069Y0285837D01*
X0349302Y0286604D01*
X0347767Y0286604D01*
X0347000Y0285837D01*
X0351604Y0286604D02*
X0351604Y0282767D01*
X0352371Y0282000D01*
X0353906Y0282000D01*
X0354673Y0282767D01*
X0354673Y0286604D01*
X0356208Y0286604D02*
X0359277Y0286604D01*
X0357742Y0286604D02*
X0357742Y0282000D01*
X0360812Y0282000D02*
X0360812Y0286604D01*
X0363881Y0282000D01*
X0363881Y0286604D01*
X0365416Y0286604D02*
X0365416Y0282000D01*
X0368485Y0282000D01*
X0370020Y0282767D02*
X0370787Y0282000D01*
X0372322Y0282000D01*
X0373089Y0282767D01*
X0373089Y0284302D01*
X0371554Y0284302D01*
X0370020Y0285837D02*
X0370020Y0282767D01*
X0370020Y0285837D02*
X0370787Y0286604D01*
X0372322Y0286604D01*
X0373089Y0285837D01*
X0368485Y0286604D02*
X0365416Y0286604D01*
X0365416Y0284302D02*
X0366950Y0284302D01*
X0366183Y0231604D02*
X0365416Y0230837D01*
X0365416Y0227767D01*
X0366183Y0227000D01*
X0367718Y0227000D01*
X0368485Y0227767D01*
X0368485Y0230837D01*
X0367718Y0231604D01*
X0366183Y0231604D01*
X0363881Y0230837D02*
X0363881Y0229302D01*
X0363114Y0228535D01*
X0360812Y0228535D01*
X0360812Y0227000D02*
X0360812Y0231604D01*
X0363114Y0231604D01*
X0363881Y0230837D01*
X0359277Y0231604D02*
X0356208Y0231604D01*
X0357742Y0231604D02*
X0357742Y0227000D01*
X0354673Y0227767D02*
X0354673Y0231604D01*
X0351604Y0231604D02*
X0351604Y0227767D01*
X0352371Y0227000D01*
X0353906Y0227000D01*
X0354673Y0227767D01*
X0350069Y0227767D02*
X0350069Y0230837D01*
X0349302Y0231604D01*
X0347767Y0231604D01*
X0347000Y0230837D01*
X0347000Y0227767D01*
X0347767Y0227000D01*
X0349302Y0227000D01*
X0350069Y0227767D01*
X0370020Y0227767D02*
X0370787Y0227000D01*
X0372322Y0227000D01*
X0373089Y0227767D01*
X0373089Y0228535D01*
X0372322Y0229302D01*
X0370787Y0229302D01*
X0370020Y0230069D01*
X0370020Y0230837D01*
X0370787Y0231604D01*
X0372322Y0231604D01*
X0373089Y0230837D01*
X0284673Y0237767D02*
X0284673Y0240837D01*
X0283906Y0241604D01*
X0282371Y0241604D01*
X0281604Y0240837D01*
X0281604Y0240069D01*
X0282371Y0239302D01*
X0284673Y0239302D01*
X0284673Y0237767D02*
X0283906Y0237000D01*
X0282371Y0237000D01*
X0281604Y0237767D01*
X0280069Y0237000D02*
X0277000Y0241604D01*
X0280069Y0241604D02*
X0277000Y0237000D01*
X0263906Y0262000D02*
X0262371Y0262000D01*
X0261604Y0262767D01*
X0261604Y0263535D01*
X0262371Y0264302D01*
X0263906Y0264302D01*
X0264673Y0263535D01*
X0264673Y0262767D01*
X0263906Y0262000D01*
X0263906Y0264302D02*
X0264673Y0265069D01*
X0264673Y0265837D01*
X0263906Y0266604D01*
X0262371Y0266604D01*
X0261604Y0265837D01*
X0261604Y0265069D01*
X0262371Y0264302D01*
X0260069Y0266604D02*
X0257000Y0263535D01*
X0257767Y0264302D02*
X0260069Y0262000D01*
X0257000Y0262000D02*
X0257000Y0266604D01*
X0214277Y0237000D02*
X0211208Y0237000D01*
X0212742Y0237000D02*
X0212742Y0241604D01*
X0211208Y0240069D01*
X0209673Y0237000D02*
X0206604Y0237000D01*
X0208139Y0237000D02*
X0208139Y0241604D01*
X0206604Y0240069D01*
X0205069Y0241604D02*
X0202000Y0237000D01*
X0205069Y0237000D02*
X0202000Y0241604D01*
X0189673Y0262000D02*
X0186604Y0262000D01*
X0188139Y0262000D02*
X0188139Y0266604D01*
X0186604Y0265069D01*
X0185069Y0266604D02*
X0182000Y0263535D01*
X0182767Y0264302D02*
X0185069Y0262000D01*
X0182000Y0262000D02*
X0182000Y0266604D01*
X0139277Y0240837D02*
X0139277Y0240069D01*
X0138510Y0239302D01*
X0139277Y0238535D01*
X0139277Y0237767D01*
X0138510Y0237000D01*
X0136975Y0237000D01*
X0136208Y0237767D01*
X0134673Y0237000D02*
X0131604Y0237000D01*
X0133139Y0237000D02*
X0133139Y0241604D01*
X0131604Y0240069D01*
X0130069Y0241604D02*
X0127000Y0237000D01*
X0130069Y0237000D02*
X0127000Y0241604D01*
X0136208Y0240837D02*
X0136975Y0241604D01*
X0138510Y0241604D01*
X0139277Y0240837D01*
X0138510Y0239302D02*
X0137742Y0239302D01*
X0114673Y0262000D02*
X0111604Y0262000D01*
X0114673Y0265069D01*
X0114673Y0265837D01*
X0113906Y0266604D01*
X0112371Y0266604D01*
X0111604Y0265837D01*
X0110069Y0266604D02*
X0107000Y0263535D01*
X0107767Y0264302D02*
X0110069Y0262000D01*
X0107000Y0262000D02*
X0107000Y0266604D01*
X0064277Y0241604D02*
X0061208Y0241604D01*
X0061208Y0239302D01*
X0062742Y0240069D01*
X0063510Y0240069D01*
X0064277Y0239302D01*
X0064277Y0237767D01*
X0063510Y0237000D01*
X0061975Y0237000D01*
X0061208Y0237767D01*
X0059673Y0237000D02*
X0056604Y0237000D01*
X0058139Y0237000D02*
X0058139Y0241604D01*
X0056604Y0240069D01*
X0055069Y0241604D02*
X0052000Y0237000D01*
X0055069Y0237000D02*
X0052000Y0241604D01*
X0038906Y0262000D02*
X0037371Y0262000D01*
X0036604Y0262767D01*
X0035069Y0262000D02*
X0032767Y0264302D01*
X0032000Y0263535D02*
X0035069Y0266604D01*
X0036604Y0265837D02*
X0037371Y0266604D01*
X0038906Y0266604D01*
X0039673Y0265837D01*
X0039673Y0265069D01*
X0038906Y0264302D01*
X0039673Y0263535D01*
X0039673Y0262767D01*
X0038906Y0262000D01*
X0038906Y0264302D02*
X0038139Y0264302D01*
X0032000Y0266604D02*
X0032000Y0262000D01*
X0052000Y0181604D02*
X0055069Y0177000D01*
X0056604Y0177767D02*
X0056604Y0178535D01*
X0057371Y0179302D01*
X0058906Y0179302D01*
X0059673Y0178535D01*
X0059673Y0177767D01*
X0058906Y0177000D01*
X0057371Y0177000D01*
X0056604Y0177767D01*
X0057371Y0179302D02*
X0056604Y0180069D01*
X0056604Y0180837D01*
X0057371Y0181604D01*
X0058906Y0181604D01*
X0059673Y0180837D01*
X0059673Y0180069D01*
X0058906Y0179302D01*
X0055069Y0181604D02*
X0052000Y0177000D01*
X0127000Y0177000D02*
X0130069Y0181604D01*
X0131604Y0179302D02*
X0133906Y0179302D01*
X0134673Y0178535D01*
X0134673Y0177767D01*
X0133906Y0177000D01*
X0132371Y0177000D01*
X0131604Y0177767D01*
X0131604Y0179302D01*
X0133139Y0180837D01*
X0134673Y0181604D01*
X0130069Y0177000D02*
X0127000Y0181604D01*
X0202000Y0181604D02*
X0205069Y0177000D01*
X0206604Y0179302D02*
X0209673Y0179302D01*
X0208906Y0177000D02*
X0208906Y0181604D01*
X0206604Y0179302D01*
X0205069Y0181604D02*
X0202000Y0177000D01*
X0277000Y0177000D02*
X0280069Y0181604D01*
X0281604Y0180837D02*
X0282371Y0181604D01*
X0283906Y0181604D01*
X0284673Y0180837D01*
X0284673Y0180069D01*
X0281604Y0177000D01*
X0284673Y0177000D01*
X0280069Y0177000D02*
X0277000Y0181604D01*
X0263906Y0111604D02*
X0261604Y0109302D01*
X0264673Y0109302D01*
X0263906Y0107000D02*
X0263906Y0111604D01*
X0260069Y0111604D02*
X0257000Y0108535D01*
X0257767Y0109302D02*
X0260069Y0107000D01*
X0257000Y0107000D02*
X0257000Y0111604D01*
X0277000Y0091604D02*
X0280069Y0087000D01*
X0281604Y0087000D02*
X0284673Y0087000D01*
X0283139Y0087000D02*
X0283139Y0091604D01*
X0281604Y0090069D01*
X0280069Y0091604D02*
X0277000Y0087000D01*
X0209673Y0087767D02*
X0208906Y0087000D01*
X0207371Y0087000D01*
X0206604Y0087767D01*
X0205069Y0087000D02*
X0202000Y0091604D01*
X0205069Y0091604D02*
X0202000Y0087000D01*
X0206604Y0090837D02*
X0207371Y0091604D01*
X0208906Y0091604D01*
X0209673Y0090837D01*
X0209673Y0090069D01*
X0208906Y0089302D01*
X0209673Y0088535D01*
X0209673Y0087767D01*
X0208906Y0089302D02*
X0208139Y0089302D01*
X0189673Y0107767D02*
X0188906Y0107000D01*
X0187371Y0107000D01*
X0186604Y0107767D01*
X0186604Y0109302D02*
X0188139Y0110069D01*
X0188906Y0110069D01*
X0189673Y0109302D01*
X0189673Y0107767D01*
X0186604Y0109302D02*
X0186604Y0111604D01*
X0189673Y0111604D01*
X0185069Y0111604D02*
X0182000Y0108535D01*
X0182767Y0109302D02*
X0185069Y0107000D01*
X0182000Y0107000D02*
X0182000Y0111604D01*
X0134673Y0091604D02*
X0131604Y0091604D01*
X0131604Y0089302D01*
X0133139Y0090069D01*
X0133906Y0090069D01*
X0134673Y0089302D01*
X0134673Y0087767D01*
X0133906Y0087000D01*
X0132371Y0087000D01*
X0131604Y0087767D01*
X0130069Y0087000D02*
X0127000Y0091604D01*
X0130069Y0091604D02*
X0127000Y0087000D01*
X0113906Y0107000D02*
X0112371Y0107000D01*
X0111604Y0107767D01*
X0111604Y0109302D01*
X0113906Y0109302D01*
X0114673Y0108535D01*
X0114673Y0107767D01*
X0113906Y0107000D01*
X0111604Y0109302D02*
X0113139Y0110837D01*
X0114673Y0111604D01*
X0110069Y0111604D02*
X0107000Y0108535D01*
X0107767Y0109302D02*
X0110069Y0107000D01*
X0107000Y0107000D02*
X0107000Y0111604D01*
X0059673Y0091604D02*
X0059673Y0090837D01*
X0056604Y0087767D01*
X0056604Y0087000D01*
X0055069Y0087000D02*
X0052000Y0091604D01*
X0055069Y0091604D02*
X0052000Y0087000D01*
X0056604Y0091604D02*
X0059673Y0091604D01*
X0036604Y0107000D02*
X0036604Y0107767D01*
X0039673Y0110837D01*
X0039673Y0111604D01*
X0036604Y0111604D01*
X0035069Y0111604D02*
X0032000Y0108535D01*
X0032767Y0109302D02*
X0035069Y0107000D01*
X0032000Y0107000D02*
X0032000Y0111604D01*
D16*
X0021800Y0106800D03*
X0096800Y0106800D03*
X0171800Y0106800D03*
X0246800Y0106800D03*
X0246800Y0271800D03*
X0171800Y0271800D03*
X0096800Y0271800D03*
X0021800Y0271800D03*
D17*
X0361300Y0046800D02*
X0361300Y0036800D01*
X0382300Y0036800D01*
X0382300Y0046800D01*
X0361300Y0046800D01*
X0371800Y0044300D02*
X0371800Y0039300D01*
M02*
