%
M48
M72
T01C0.02362
T02C0.02756
T03C0.03150
T04C0.03200
T05C0.03937
T06C0.04000
T07C0.04331
T08C0.05118
T09C0.07874
T10C0.08661
T11C0.09606
%
T01
X356800Y231800
T02
X376800Y161800
X386800Y161800
T03
X296800Y116800
X286800Y116800
X276800Y116800
X256800Y116800
X256800Y96800
X276800Y96800
X286800Y96800
X296800Y96800
X221800Y96800
X211800Y96800
X201800Y96800
X181800Y96800
X181800Y116800
X201800Y116800
X211800Y116800
X221800Y116800
X146800Y116800
X136800Y116800
X126800Y116800
X106800Y116800
X106800Y96800
X126800Y96800
X136800Y96800
X146800Y96800
X71800Y96800
X61800Y96800
X51800Y96800
X31800Y96800
X31800Y116800
X51800Y116800
X61800Y116800
X71800Y116800
X71800Y251800
X61800Y251800
X51800Y251800
X31800Y251800
X31800Y271800
X51800Y271800
X61800Y271800
X71800Y271800
X106800Y271800
X126800Y271800
X136800Y271800
X146800Y271800
X146800Y251800
X136800Y251800
X126800Y251800
X106800Y251800
X181800Y251800
X201800Y251800
X211800Y251800
X221800Y251800
X221800Y271800
X211800Y271800
X201800Y271800
X181800Y271800
X256800Y271800
X256800Y251800
X276800Y251800
X286800Y251800
X296800Y251800
X296800Y271800
X286800Y271800
X276800Y271800
T04
X371800Y136800
X371800Y126800
X371800Y116800
X371800Y106800
X371800Y96800
X371800Y86800
X371800Y76800
X371800Y66800
X371800Y56800
X401800Y56800
X401800Y66800
X401800Y76800
X401800Y86800
X401800Y96800
X401800Y106800
X401800Y116800
X401800Y126800
X401800Y136800
T05
X31800Y41800
X21800Y61800
X31800Y76800
X21800Y116800
X96800Y116800
X106800Y146800
X96800Y156800
X106800Y176800
X96800Y186800
X161800Y176800
X171800Y186800
X181800Y176800
X171800Y156800
X181800Y146800
X171800Y116800
X106800Y76800
X96800Y61800
X106800Y46800
X171800Y61800
X246800Y61800
X256800Y76800
X246800Y116800
X246800Y156800
X236800Y176800
X246800Y186800
X236800Y231800
X256800Y261800
X246800Y281800
X181800Y261800
X171800Y281800
X161800Y231800
X106800Y261800
X96800Y281800
X31800Y261800
X22272Y281800
X311800Y186800
X321800Y211800
X321800Y231800
X376800Y171800
X311800Y131800
X411800Y66800
T06
X377300Y41800
X366300Y41800
X351800Y66800
X351800Y76800
X351800Y86800
X351800Y96800
X351800Y106800
X351800Y116800
X351800Y126800
X351800Y136800
X351800Y156800
X351800Y166800
T07
X181800Y76800
X181800Y31800
T08
X211800Y61800
X136800Y61800
X61800Y61800
X61800Y151800
X61800Y211800
X136800Y211800
X136800Y151800
X211800Y151800
X211800Y211800
X286800Y211800
X356800Y201800
X356800Y256800
X286800Y306800
X211800Y306800
X136800Y306800
X61800Y306800
X286800Y151800
X286800Y61800
T09
X421800Y351800
T10
X21800Y221800
X21800Y171800
X431800Y21800
T11
X300304Y48296
X273296Y48296
X273296Y75304
X300304Y75304
X300304Y138296
X273296Y138296
X273296Y165304
X300304Y165304
X300304Y198296
X273296Y198296
X273296Y225304
X300304Y225304
X343296Y215304
X370304Y215304
X370304Y188296
X343296Y188296
X343296Y243296
X370304Y243296
X370304Y270304
X343296Y270304
X300304Y293296
X273296Y293296
X273296Y320304
X300304Y320304
X225304Y320304
X198296Y320304
X198296Y293296
X225304Y293296
X150304Y293296
X123296Y293296
X123296Y320304
X150304Y320304
X75304Y320304
X48296Y320304
X48296Y293296
X75304Y293296
X75304Y225304
X48296Y225304
X48296Y198296
X75304Y198296
X75304Y165304
X48296Y165304
X48296Y138296
X75304Y138296
X123296Y138296
X150304Y138296
X150304Y165304
X123296Y165304
X123296Y198296
X150304Y198296
X150304Y225304
X123296Y225304
X198296Y225304
X225304Y225304
X225304Y198296
X198296Y198296
X198296Y165304
X225304Y165304
X225304Y138296
X198296Y138296
X198296Y75304
X225304Y75304
X225304Y48296
X198296Y48296
X150304Y48296
X123296Y48296
X123296Y75304
X150304Y75304
X75304Y75304
X48296Y75304
X48296Y48296
X75304Y48296
M30
