%
M48
M72
T01C0.0236
T02C0.0276
T03C0.0315
T04C0.0320
T05C0.0400
T06C0.0512
T07C0.0787
T08C0.0866
T09C0.0961
%
T01
X3300Y6737
X6300Y7487
X12300Y7987
X19300Y8487
X28300Y7487
X32800Y14487
X35300Y15487
X27300Y15487
X20800Y15487
X14300Y15487
X7800Y15487
T02
X35300Y4487
X36300Y4487
T03
X30300Y9487
X28300Y9487
X28300Y11487
X28300Y12487
X28300Y13487
X30300Y13487
X30300Y12487
X30300Y11487
X23800Y11487
X23800Y12487
X23800Y13487
X21800Y13487
X21800Y12487
X21800Y11487
X21800Y9487
X23800Y9487
X17300Y9487
X15300Y9487
X15300Y11487
X15300Y12487
X15300Y13487
X17300Y13487
X17300Y12487
X17300Y11487
X10800Y11487
X10800Y12487
X10800Y13487
X8800Y13487
X8800Y12487
X8800Y11487
X8800Y9487
X10800Y9487
X4300Y9487
X2300Y9487
X2300Y11487
X2300Y12487
X2300Y13487
X4300Y13487
X4300Y12487
X4300Y11487
T04
X23300Y5987
X24300Y5987
X25300Y5987
X26300Y5987
X27300Y5987
X28300Y5987
X29300Y5987
X30300Y5987
X31300Y5987
X31300Y2987
X30300Y2987
X29300Y2987
X28300Y2987
X27300Y2987
X26300Y2987
X25300Y2987
X24300Y2987
X23300Y2987
T05
X23300Y1487
X24300Y1487
X25300Y1487
X26300Y1487
X27300Y1487
X28300Y1487
X29300Y1487
X30300Y1487
X33300Y1487
X34300Y1487
X35300Y1487
X36300Y1487
X32800Y3937
X32800Y5037
T06
X29300Y18987
X22800Y18987
X16300Y18987
X9800Y18987
X3300Y18987
X3300Y25487
X9800Y25487
X16300Y25487
X22800Y25487
X29300Y25487
X36800Y25487
X36800Y18987
T07
X1300Y1487
X39300Y1487
T08
X39300Y28987
X1300Y28987
T09
X1950Y26837
X4650Y26837
X4650Y24136
X1950Y24136
X1950Y20337
X4650Y20337
X4650Y17636
X1950Y17636
X8450Y17636
X11150Y17636
X11150Y20337
X8450Y20337
X8450Y24136
X11150Y24136
X11150Y26837
X8450Y26837
X14950Y26837
X17650Y26837
X17650Y24136
X14950Y24136
X14950Y20337
X17650Y20337
X17650Y17636
X14950Y17636
X21450Y17636
X24150Y17636
X24150Y20337
X21450Y20337
X21450Y24136
X24150Y24136
X24150Y26837
X21450Y26837
X27950Y26837
X30650Y26837
X30650Y24136
X27950Y24136
X27950Y20337
X30650Y20337
X30650Y17636
X27950Y17636
X35450Y17636
X38150Y17636
X38150Y20337
X35450Y20337
X35450Y24136
X38150Y24136
X38150Y26837
X35450Y26837
M30
