G75*
G70*
%OFA0B0*%
%FSLAX24Y24*%
%IPPOS*%
%LPD*%
%AMOC8*
5,1,8,0,0,1.08239X$1,22.5*
%
%ADD10C,0.0160*%
%ADD11C,0.0000*%
%ADD12R,0.0551X0.0472*%
%ADD13C,0.0560*%
%ADD14C,0.0740*%
%ADD15C,0.0555*%
%ADD16C,0.0768*%
%ADD17C,0.1361*%
%ADD18R,0.0248X0.0327*%
%ADD19C,0.0800*%
%ADD20C,0.0650*%
%ADD21R,0.0650X0.0650*%
%ADD22R,0.0472X0.0709*%
%ADD23C,0.0400*%
%ADD24R,0.0436X0.0436*%
D10*
X000300Y000487D02*
X000300Y029987D01*
X040300Y029987D01*
X040300Y000487D01*
X000300Y000487D01*
X004300Y004077D02*
X004300Y005737D01*
X003300Y006737D01*
X003347Y008487D02*
X002800Y008487D01*
X002300Y008987D01*
X002300Y009487D01*
X005800Y006987D02*
X006300Y007487D01*
X005800Y006987D02*
X005800Y004077D01*
X007300Y004077D02*
X007300Y004987D01*
X007800Y005487D01*
X009800Y005487D01*
X012300Y007987D01*
X009847Y008487D02*
X009300Y008487D01*
X008800Y008987D01*
X008800Y009487D01*
X009300Y004987D02*
X015800Y004987D01*
X019300Y008487D01*
X021300Y006987D02*
X027800Y006987D01*
X028300Y007487D01*
X028800Y008487D02*
X028300Y008987D01*
X028300Y009487D01*
X028800Y008487D02*
X029347Y008487D01*
X031149Y011987D02*
X031309Y012147D01*
X033030Y013869D01*
X033098Y013869D01*
X033245Y013929D01*
X033357Y014042D01*
X033418Y014189D01*
X033418Y014784D01*
X033376Y014887D01*
X034959Y014887D01*
X035002Y014869D01*
X035598Y014869D01*
X035745Y014929D01*
X035857Y015042D01*
X035918Y015189D01*
X035918Y015784D01*
X035857Y015931D01*
X035745Y016044D01*
X035598Y016105D01*
X035002Y016105D01*
X034959Y016087D01*
X027641Y016087D01*
X027598Y016105D01*
X027002Y016105D01*
X026959Y016087D01*
X021141Y016087D01*
X021098Y016105D01*
X020502Y016105D01*
X020459Y016087D01*
X014641Y016087D01*
X014598Y016105D01*
X014002Y016105D01*
X013959Y016087D01*
X008141Y016087D01*
X008098Y016105D01*
X007502Y016105D01*
X007459Y016087D01*
X001681Y016087D01*
X001460Y015995D01*
X000780Y015315D01*
X000780Y028329D01*
X000828Y028280D01*
X001134Y028154D01*
X001466Y028154D01*
X001772Y028280D01*
X002006Y028515D01*
X002133Y028821D01*
X002133Y029152D01*
X002006Y029459D01*
X001958Y029507D01*
X038642Y029507D01*
X038594Y029459D01*
X038467Y029152D01*
X038467Y028821D01*
X038594Y028515D01*
X038828Y028280D01*
X039134Y028154D01*
X039466Y028154D01*
X039772Y028280D01*
X039820Y028329D01*
X039820Y011987D01*
X031149Y011987D01*
X031219Y012057D02*
X039820Y012057D01*
X039820Y012216D02*
X031378Y012216D01*
X031309Y012147D02*
X031309Y012147D01*
X031536Y012374D02*
X039820Y012374D01*
X039820Y012533D02*
X031695Y012533D01*
X031853Y012691D02*
X039820Y012691D01*
X039820Y012850D02*
X032012Y012850D01*
X032170Y013008D02*
X039820Y013008D01*
X039820Y013167D02*
X032329Y013167D01*
X032487Y013325D02*
X039820Y013325D01*
X039820Y013484D02*
X032646Y013484D01*
X032804Y013642D02*
X039820Y013642D01*
X039820Y013801D02*
X032963Y013801D01*
X033274Y013959D02*
X039820Y013959D01*
X039820Y014118D02*
X033389Y014118D01*
X033418Y014276D02*
X039820Y014276D01*
X039820Y014435D02*
X033418Y014435D01*
X033418Y014593D02*
X039820Y014593D01*
X039820Y014752D02*
X033418Y014752D01*
X035698Y014910D02*
X039820Y014910D01*
X039820Y015069D02*
X035868Y015069D01*
X035918Y015227D02*
X039820Y015227D01*
X039820Y015386D02*
X035918Y015386D01*
X035918Y015544D02*
X039820Y015544D01*
X039820Y015703D02*
X035918Y015703D01*
X035886Y015861D02*
X039820Y015861D01*
X039820Y016020D02*
X035769Y016020D01*
X035618Y016791D02*
X035727Y016820D01*
X035831Y016863D01*
X035929Y016919D01*
X036018Y016988D01*
X036098Y017068D01*
X036166Y017157D01*
X036223Y017255D01*
X036266Y017359D01*
X036295Y017468D01*
X036307Y017556D01*
X035530Y017556D01*
X035530Y017716D01*
X036307Y017716D01*
X036295Y017804D01*
X036266Y017913D01*
X036223Y018018D01*
X036166Y018115D01*
X036098Y018205D01*
X036018Y018284D01*
X035929Y018353D01*
X035831Y018410D01*
X035727Y018453D01*
X035618Y018482D01*
X035530Y018493D01*
X035530Y017716D01*
X035370Y017716D01*
X035370Y017556D01*
X035530Y017556D01*
X035530Y016779D01*
X035618Y016791D01*
X035698Y016812D02*
X037902Y016812D01*
X037873Y016820D02*
X037982Y016791D01*
X038070Y016779D01*
X038070Y017556D01*
X037293Y017556D01*
X037305Y017468D01*
X037334Y017359D01*
X037377Y017255D01*
X037434Y017157D01*
X037502Y017068D01*
X037582Y016988D01*
X037671Y016919D01*
X037769Y016863D01*
X037873Y016820D01*
X038070Y016812D02*
X038230Y016812D01*
X038230Y016779D02*
X038319Y016791D01*
X038428Y016820D01*
X038532Y016863D01*
X038629Y016919D01*
X038719Y016988D01*
X038799Y017068D01*
X038867Y017157D01*
X038924Y017255D01*
X038967Y017359D01*
X038996Y017468D01*
X039008Y017556D01*
X038230Y017556D01*
X038230Y016779D01*
X038399Y016812D02*
X039820Y016812D01*
X039820Y016654D02*
X000780Y016654D01*
X000780Y016812D02*
X001701Y016812D01*
X001672Y016820D02*
X001781Y016791D01*
X001870Y016779D01*
X001870Y017556D01*
X002030Y017556D01*
X002030Y017716D01*
X002807Y017716D01*
X002795Y017804D01*
X002766Y017913D01*
X002723Y018018D01*
X002666Y018115D01*
X002598Y018205D01*
X002518Y018284D01*
X002429Y018353D01*
X002331Y018410D01*
X002227Y018453D01*
X002118Y018482D01*
X002030Y018493D01*
X002030Y017716D01*
X001870Y017716D01*
X001870Y017556D01*
X001092Y017556D01*
X001104Y017468D01*
X001133Y017359D01*
X001176Y017255D01*
X001233Y017157D01*
X001301Y017068D01*
X001381Y016988D01*
X001471Y016919D01*
X001568Y016863D01*
X001672Y016820D01*
X001870Y016812D02*
X002030Y016812D01*
X002030Y016779D02*
X002118Y016791D01*
X002227Y016820D01*
X002331Y016863D01*
X002429Y016919D01*
X002518Y016988D01*
X002598Y017068D01*
X002666Y017157D01*
X002723Y017255D01*
X002766Y017359D01*
X002795Y017468D01*
X002807Y017556D01*
X002030Y017556D01*
X002030Y016779D01*
X002198Y016812D02*
X004402Y016812D01*
X004373Y016820D02*
X004482Y016791D01*
X004570Y016779D01*
X004570Y017556D01*
X003793Y017556D01*
X003805Y017468D01*
X003834Y017359D01*
X003877Y017255D01*
X003934Y017157D01*
X004002Y017068D01*
X004082Y016988D01*
X004171Y016919D01*
X004269Y016863D01*
X004373Y016820D01*
X004570Y016812D02*
X004730Y016812D01*
X004730Y016779D02*
X004819Y016791D01*
X004928Y016820D01*
X005032Y016863D01*
X005129Y016919D01*
X005219Y016988D01*
X005299Y017068D01*
X005367Y017157D01*
X005424Y017255D01*
X005467Y017359D01*
X005496Y017468D01*
X005508Y017556D01*
X004730Y017556D01*
X004730Y016779D01*
X004899Y016812D02*
X008201Y016812D01*
X008172Y016820D02*
X008281Y016791D01*
X008370Y016779D01*
X008370Y017556D01*
X008530Y017556D01*
X008530Y017716D01*
X009307Y017716D01*
X009295Y017804D01*
X009266Y017913D01*
X009223Y018018D01*
X009166Y018115D01*
X009098Y018205D01*
X009018Y018284D01*
X008929Y018353D01*
X008831Y018410D01*
X008727Y018453D01*
X008618Y018482D01*
X008530Y018493D01*
X008530Y017716D01*
X008370Y017716D01*
X008370Y017556D01*
X007592Y017556D01*
X007604Y017468D01*
X007633Y017359D01*
X007676Y017255D01*
X007733Y017157D01*
X007801Y017068D01*
X007881Y016988D01*
X007971Y016919D01*
X008068Y016863D01*
X008172Y016820D01*
X008370Y016812D02*
X008530Y016812D01*
X008530Y016779D02*
X008618Y016791D01*
X008727Y016820D01*
X008831Y016863D01*
X008929Y016919D01*
X009018Y016988D01*
X009098Y017068D01*
X009166Y017157D01*
X009223Y017255D01*
X009266Y017359D01*
X009295Y017468D01*
X009307Y017556D01*
X008530Y017556D01*
X008530Y016779D01*
X008698Y016812D02*
X010902Y016812D01*
X010873Y016820D02*
X010982Y016791D01*
X011070Y016779D01*
X011070Y017556D01*
X010293Y017556D01*
X010305Y017468D01*
X010334Y017359D01*
X010377Y017255D01*
X010434Y017157D01*
X010502Y017068D01*
X010582Y016988D01*
X010671Y016919D01*
X010769Y016863D01*
X010873Y016820D01*
X011070Y016812D02*
X011230Y016812D01*
X011230Y016779D02*
X011319Y016791D01*
X011428Y016820D01*
X011532Y016863D01*
X011629Y016919D01*
X011719Y016988D01*
X011799Y017068D01*
X011867Y017157D01*
X011924Y017255D01*
X011967Y017359D01*
X011996Y017468D01*
X012008Y017556D01*
X011230Y017556D01*
X011230Y016779D01*
X011399Y016812D02*
X014701Y016812D01*
X014672Y016820D02*
X014781Y016791D01*
X014870Y016779D01*
X014870Y017556D01*
X015030Y017556D01*
X015030Y017716D01*
X015807Y017716D01*
X015795Y017804D01*
X015766Y017913D01*
X015723Y018018D01*
X015666Y018115D01*
X015598Y018205D01*
X015518Y018284D01*
X015429Y018353D01*
X015331Y018410D01*
X015227Y018453D01*
X015118Y018482D01*
X015030Y018493D01*
X015030Y017716D01*
X014870Y017716D01*
X014870Y017556D01*
X014092Y017556D01*
X014104Y017468D01*
X014133Y017359D01*
X014176Y017255D01*
X014233Y017157D01*
X014301Y017068D01*
X014381Y016988D01*
X014471Y016919D01*
X014568Y016863D01*
X014672Y016820D01*
X014870Y016812D02*
X015030Y016812D01*
X015030Y016779D02*
X015118Y016791D01*
X015227Y016820D01*
X015331Y016863D01*
X015429Y016919D01*
X015518Y016988D01*
X015598Y017068D01*
X015666Y017157D01*
X015723Y017255D01*
X015766Y017359D01*
X015795Y017468D01*
X015807Y017556D01*
X015030Y017556D01*
X015030Y016779D01*
X015198Y016812D02*
X017402Y016812D01*
X017373Y016820D02*
X017482Y016791D01*
X017570Y016779D01*
X017570Y017556D01*
X016793Y017556D01*
X016805Y017468D01*
X016834Y017359D01*
X016877Y017255D01*
X016934Y017157D01*
X017002Y017068D01*
X017082Y016988D01*
X017171Y016919D01*
X017269Y016863D01*
X017373Y016820D01*
X017570Y016812D02*
X017730Y016812D01*
X017730Y016779D02*
X017819Y016791D01*
X017928Y016820D01*
X018032Y016863D01*
X018129Y016919D01*
X018219Y016988D01*
X018299Y017068D01*
X018367Y017157D01*
X018424Y017255D01*
X018467Y017359D01*
X018496Y017468D01*
X018508Y017556D01*
X017730Y017556D01*
X017730Y016779D01*
X017899Y016812D02*
X021201Y016812D01*
X021172Y016820D02*
X021281Y016791D01*
X021370Y016779D01*
X021370Y017556D01*
X021530Y017556D01*
X021530Y017716D01*
X022307Y017716D01*
X022295Y017804D01*
X022266Y017913D01*
X022223Y018018D01*
X022166Y018115D01*
X022098Y018205D01*
X022018Y018284D01*
X021929Y018353D01*
X021831Y018410D01*
X021727Y018453D01*
X021618Y018482D01*
X021530Y018493D01*
X021530Y017716D01*
X021370Y017716D01*
X021370Y017556D01*
X020592Y017556D01*
X020604Y017468D01*
X020633Y017359D01*
X020676Y017255D01*
X020733Y017157D01*
X020801Y017068D01*
X020881Y016988D01*
X020971Y016919D01*
X021068Y016863D01*
X021172Y016820D01*
X021370Y016812D02*
X021530Y016812D01*
X021530Y016779D02*
X021618Y016791D01*
X021727Y016820D01*
X021831Y016863D01*
X021929Y016919D01*
X022018Y016988D01*
X022098Y017068D01*
X022166Y017157D01*
X022223Y017255D01*
X022266Y017359D01*
X022295Y017468D01*
X022307Y017556D01*
X021530Y017556D01*
X021530Y016779D01*
X021698Y016812D02*
X023902Y016812D01*
X023873Y016820D02*
X023982Y016791D01*
X024070Y016779D01*
X024070Y017556D01*
X023293Y017556D01*
X023305Y017468D01*
X023334Y017359D01*
X023377Y017255D01*
X023434Y017157D01*
X023502Y017068D01*
X023582Y016988D01*
X023671Y016919D01*
X023769Y016863D01*
X023873Y016820D01*
X024070Y016812D02*
X024230Y016812D01*
X024230Y016779D02*
X024319Y016791D01*
X024428Y016820D01*
X024532Y016863D01*
X024629Y016919D01*
X024719Y016988D01*
X024799Y017068D01*
X024867Y017157D01*
X024924Y017255D01*
X024967Y017359D01*
X024996Y017468D01*
X025008Y017556D01*
X024230Y017556D01*
X024230Y016779D01*
X024399Y016812D02*
X027701Y016812D01*
X027672Y016820D02*
X027781Y016791D01*
X027870Y016779D01*
X027870Y017556D01*
X028030Y017556D01*
X028030Y017716D01*
X028807Y017716D01*
X028795Y017804D01*
X028766Y017913D01*
X028723Y018018D01*
X028666Y018115D01*
X028598Y018205D01*
X028518Y018284D01*
X028429Y018353D01*
X028331Y018410D01*
X028227Y018453D01*
X028118Y018482D01*
X028030Y018493D01*
X028030Y017716D01*
X027870Y017716D01*
X027870Y017556D01*
X027092Y017556D01*
X027104Y017468D01*
X027133Y017359D01*
X027176Y017255D01*
X027233Y017157D01*
X027301Y017068D01*
X027381Y016988D01*
X027471Y016919D01*
X027568Y016863D01*
X027672Y016820D01*
X027870Y016812D02*
X028030Y016812D01*
X028030Y016779D02*
X028118Y016791D01*
X028227Y016820D01*
X028331Y016863D01*
X028429Y016919D01*
X028518Y016988D01*
X028598Y017068D01*
X028666Y017157D01*
X028723Y017255D01*
X028766Y017359D01*
X028795Y017468D01*
X028807Y017556D01*
X028030Y017556D01*
X028030Y016779D01*
X028198Y016812D02*
X030402Y016812D01*
X030373Y016820D02*
X030482Y016791D01*
X030570Y016779D01*
X030570Y017556D01*
X029793Y017556D01*
X029805Y017468D01*
X029834Y017359D01*
X029877Y017255D01*
X029934Y017157D01*
X030002Y017068D01*
X030082Y016988D01*
X030171Y016919D01*
X030269Y016863D01*
X030373Y016820D01*
X030570Y016812D02*
X030730Y016812D01*
X030730Y016779D02*
X030819Y016791D01*
X030928Y016820D01*
X031032Y016863D01*
X031129Y016919D01*
X031219Y016988D01*
X031299Y017068D01*
X031367Y017157D01*
X031424Y017255D01*
X031467Y017359D01*
X031496Y017468D01*
X031508Y017556D01*
X030730Y017556D01*
X030730Y016779D01*
X030899Y016812D02*
X035201Y016812D01*
X035172Y016820D02*
X035281Y016791D01*
X035370Y016779D01*
X035370Y017556D01*
X034592Y017556D01*
X034604Y017468D01*
X034633Y017359D01*
X034676Y017255D01*
X034733Y017157D01*
X034801Y017068D01*
X034881Y016988D01*
X034971Y016919D01*
X035068Y016863D01*
X035172Y016820D01*
X035370Y016812D02*
X035530Y016812D01*
X035530Y016971D02*
X035370Y016971D01*
X035370Y017129D02*
X035530Y017129D01*
X035530Y017288D02*
X035370Y017288D01*
X035370Y017446D02*
X035530Y017446D01*
X035530Y017605D02*
X038070Y017605D01*
X038070Y017556D02*
X038070Y017716D01*
X037293Y017716D01*
X037305Y017804D01*
X037334Y017913D01*
X037377Y018018D01*
X037434Y018115D01*
X037502Y018205D01*
X037582Y018284D01*
X037671Y018353D01*
X037769Y018410D01*
X037873Y018453D01*
X037982Y018482D01*
X038070Y018493D01*
X038070Y017716D01*
X038230Y017716D01*
X038230Y018493D01*
X038319Y018482D01*
X038428Y018453D01*
X038532Y018410D01*
X038629Y018353D01*
X038719Y018284D01*
X038799Y018205D01*
X038867Y018115D01*
X038924Y018018D01*
X038967Y017913D01*
X038996Y017804D01*
X039008Y017716D01*
X038230Y017716D01*
X038230Y017556D01*
X038070Y017556D01*
X038070Y017446D02*
X038230Y017446D01*
X038230Y017288D02*
X038070Y017288D01*
X038070Y017129D02*
X038230Y017129D01*
X038230Y016971D02*
X038070Y016971D01*
X037605Y016971D02*
X035995Y016971D01*
X036145Y017129D02*
X037455Y017129D01*
X037364Y017288D02*
X036236Y017288D01*
X036289Y017446D02*
X037311Y017446D01*
X037299Y017763D02*
X036301Y017763D01*
X036263Y017922D02*
X037337Y017922D01*
X037413Y018080D02*
X036187Y018080D01*
X036064Y018239D02*
X036557Y018239D01*
X036644Y018203D02*
X036956Y018203D01*
X037244Y018322D01*
X037465Y018543D01*
X037584Y018831D01*
X037584Y019143D01*
X037465Y019431D01*
X037244Y019651D01*
X036956Y019771D01*
X036644Y019771D01*
X036356Y019651D01*
X036135Y019431D01*
X036016Y019143D01*
X036016Y018831D01*
X036135Y018543D01*
X036356Y018322D01*
X036644Y018203D01*
X037043Y018239D02*
X037536Y018239D01*
X037748Y018397D02*
X037319Y018397D01*
X037470Y018556D02*
X039820Y018556D01*
X039820Y018714D02*
X037536Y018714D01*
X037584Y018873D02*
X039820Y018873D01*
X039820Y019031D02*
X037584Y019031D01*
X037564Y019190D02*
X039820Y019190D01*
X039820Y019348D02*
X037499Y019348D01*
X037389Y019507D02*
X037925Y019507D01*
X037873Y019521D02*
X037982Y019491D01*
X038070Y019480D01*
X038070Y020257D01*
X037293Y020257D01*
X037305Y020169D01*
X037334Y020060D01*
X037377Y019956D01*
X037434Y019858D01*
X037502Y019769D01*
X037582Y019689D01*
X037671Y019620D01*
X037769Y019564D01*
X037873Y019521D01*
X038070Y019507D02*
X038230Y019507D01*
X038230Y019480D02*
X038319Y019491D01*
X038428Y019521D01*
X038532Y019564D01*
X038629Y019620D01*
X038719Y019689D01*
X038799Y019769D01*
X038867Y019858D01*
X038924Y019956D01*
X038967Y020060D01*
X038996Y020169D01*
X039008Y020257D01*
X038230Y020257D01*
X038230Y019480D01*
X038375Y019507D02*
X039820Y019507D01*
X039820Y019665D02*
X038688Y019665D01*
X038841Y019824D02*
X039820Y019824D01*
X039820Y019982D02*
X038935Y019982D01*
X038988Y020141D02*
X039820Y020141D01*
X039820Y020299D02*
X038230Y020299D01*
X038230Y020257D02*
X038230Y020417D01*
X038070Y020417D01*
X038070Y020257D01*
X038230Y020257D01*
X038230Y020141D02*
X038070Y020141D01*
X038070Y020299D02*
X035530Y020299D01*
X035530Y020257D02*
X035530Y020417D01*
X036307Y020417D01*
X036295Y020505D01*
X036266Y020614D01*
X036223Y020718D01*
X036166Y020816D01*
X036098Y020906D01*
X036018Y020985D01*
X035929Y021054D01*
X035831Y021110D01*
X035727Y021153D01*
X035618Y021183D01*
X035530Y021194D01*
X035530Y020417D01*
X035370Y020417D01*
X035370Y021194D01*
X035281Y021183D01*
X035172Y021153D01*
X035068Y021110D01*
X034971Y021054D01*
X034881Y020985D01*
X034801Y020906D01*
X034733Y020816D01*
X034676Y020718D01*
X034633Y020614D01*
X034604Y020505D01*
X034592Y020417D01*
X035370Y020417D01*
X035370Y020257D01*
X035530Y020257D01*
X036307Y020257D01*
X036295Y020169D01*
X036266Y020060D01*
X036223Y019956D01*
X036166Y019858D01*
X036098Y019769D01*
X036018Y019689D01*
X035929Y019620D01*
X035831Y019564D01*
X035727Y019521D01*
X035618Y019491D01*
X035530Y019480D01*
X035530Y020257D01*
X035530Y020141D02*
X035370Y020141D01*
X035370Y020257D02*
X035370Y019480D01*
X035281Y019491D01*
X035172Y019521D01*
X035068Y019564D01*
X034971Y019620D01*
X034881Y019689D01*
X034801Y019769D01*
X034733Y019858D01*
X034676Y019956D01*
X034633Y020060D01*
X034604Y020169D01*
X034592Y020257D01*
X035370Y020257D01*
X035370Y020299D02*
X030730Y020299D01*
X030730Y020257D02*
X030730Y020417D01*
X030570Y020417D01*
X030570Y020257D01*
X029793Y020257D01*
X029805Y020169D01*
X029834Y020060D01*
X029877Y019956D01*
X029934Y019858D01*
X030002Y019769D01*
X030082Y019689D01*
X030171Y019620D01*
X030269Y019564D01*
X030373Y019521D01*
X030482Y019491D01*
X030570Y019480D01*
X030570Y020257D01*
X030730Y020257D01*
X030730Y019480D01*
X030819Y019491D01*
X030928Y019521D01*
X031032Y019564D01*
X031129Y019620D01*
X031219Y019689D01*
X031299Y019769D01*
X031367Y019858D01*
X031424Y019956D01*
X031467Y020060D01*
X031496Y020169D01*
X031508Y020257D01*
X030730Y020257D01*
X030730Y020141D02*
X030570Y020141D01*
X030570Y020299D02*
X028030Y020299D01*
X028030Y020257D02*
X028030Y020417D01*
X028807Y020417D01*
X028795Y020505D01*
X028766Y020614D01*
X028723Y020718D01*
X028666Y020816D01*
X028598Y020906D01*
X028518Y020985D01*
X028429Y021054D01*
X028331Y021110D01*
X028227Y021153D01*
X028118Y021183D01*
X028030Y021194D01*
X028030Y020417D01*
X027870Y020417D01*
X027870Y021194D01*
X027781Y021183D01*
X027672Y021153D01*
X027568Y021110D01*
X027471Y021054D01*
X027381Y020985D01*
X027301Y020906D01*
X027233Y020816D01*
X027176Y020718D01*
X027133Y020614D01*
X027104Y020505D01*
X027092Y020417D01*
X027870Y020417D01*
X027870Y020257D01*
X028030Y020257D01*
X028807Y020257D01*
X028795Y020169D01*
X028766Y020060D01*
X028723Y019956D01*
X028666Y019858D01*
X028598Y019769D01*
X028518Y019689D01*
X028429Y019620D01*
X028331Y019564D01*
X028227Y019521D01*
X028118Y019491D01*
X028030Y019480D01*
X028030Y020257D01*
X028030Y020141D02*
X027870Y020141D01*
X027870Y020257D02*
X027870Y019480D01*
X027781Y019491D01*
X027672Y019521D01*
X027568Y019564D01*
X027471Y019620D01*
X027381Y019689D01*
X027301Y019769D01*
X027233Y019858D01*
X027176Y019956D01*
X027133Y020060D01*
X027104Y020169D01*
X027092Y020257D01*
X027870Y020257D01*
X027870Y020299D02*
X024230Y020299D01*
X024230Y020257D02*
X024230Y020417D01*
X024070Y020417D01*
X024070Y020257D01*
X023293Y020257D01*
X023305Y020169D01*
X023334Y020060D01*
X023377Y019956D01*
X023434Y019858D01*
X023502Y019769D01*
X023582Y019689D01*
X023671Y019620D01*
X023769Y019564D01*
X023873Y019521D01*
X023982Y019491D01*
X024070Y019480D01*
X024070Y020257D01*
X024230Y020257D01*
X024230Y019480D01*
X024319Y019491D01*
X024428Y019521D01*
X024532Y019564D01*
X024629Y019620D01*
X024719Y019689D01*
X024799Y019769D01*
X024867Y019858D01*
X024924Y019956D01*
X024967Y020060D01*
X024996Y020169D01*
X025008Y020257D01*
X024230Y020257D01*
X024230Y020141D02*
X024070Y020141D01*
X024070Y020299D02*
X021530Y020299D01*
X021530Y020257D02*
X021530Y020417D01*
X022307Y020417D01*
X022295Y020505D01*
X022266Y020614D01*
X022223Y020718D01*
X022166Y020816D01*
X022098Y020906D01*
X022018Y020985D01*
X021929Y021054D01*
X021831Y021110D01*
X021727Y021153D01*
X021618Y021183D01*
X021530Y021194D01*
X021530Y020417D01*
X021370Y020417D01*
X021370Y021194D01*
X021281Y021183D01*
X021172Y021153D01*
X021068Y021110D01*
X020971Y021054D01*
X020881Y020985D01*
X020801Y020906D01*
X020733Y020816D01*
X020676Y020718D01*
X020633Y020614D01*
X020604Y020505D01*
X020592Y020417D01*
X021370Y020417D01*
X021370Y020257D01*
X021530Y020257D01*
X022307Y020257D01*
X022295Y020169D01*
X022266Y020060D01*
X022223Y019956D01*
X022166Y019858D01*
X022098Y019769D01*
X022018Y019689D01*
X021929Y019620D01*
X021831Y019564D01*
X021727Y019521D01*
X021618Y019491D01*
X021530Y019480D01*
X021530Y020257D01*
X021530Y020141D02*
X021370Y020141D01*
X021370Y020257D02*
X021370Y019480D01*
X021281Y019491D01*
X021172Y019521D01*
X021068Y019564D01*
X020971Y019620D01*
X020881Y019689D01*
X020801Y019769D01*
X020733Y019858D01*
X020676Y019956D01*
X020633Y020060D01*
X020604Y020169D01*
X020592Y020257D01*
X021370Y020257D01*
X021370Y020299D02*
X017730Y020299D01*
X017730Y020257D02*
X017730Y020417D01*
X017570Y020417D01*
X017570Y020257D01*
X016793Y020257D01*
X016805Y020169D01*
X016834Y020060D01*
X016877Y019956D01*
X016934Y019858D01*
X017002Y019769D01*
X017082Y019689D01*
X017171Y019620D01*
X017269Y019564D01*
X017373Y019521D01*
X017482Y019491D01*
X017570Y019480D01*
X017570Y020257D01*
X017730Y020257D01*
X017730Y019480D01*
X017819Y019491D01*
X017928Y019521D01*
X018032Y019564D01*
X018129Y019620D01*
X018219Y019689D01*
X018299Y019769D01*
X018367Y019858D01*
X018424Y019956D01*
X018467Y020060D01*
X018496Y020169D01*
X018508Y020257D01*
X017730Y020257D01*
X017730Y020141D02*
X017570Y020141D01*
X017570Y020299D02*
X015030Y020299D01*
X015030Y020257D02*
X015030Y020417D01*
X015807Y020417D01*
X015795Y020505D01*
X015766Y020614D01*
X015723Y020718D01*
X015666Y020816D01*
X015598Y020906D01*
X015518Y020985D01*
X015429Y021054D01*
X015331Y021110D01*
X015227Y021153D01*
X015118Y021183D01*
X015030Y021194D01*
X015030Y020417D01*
X014870Y020417D01*
X014870Y021194D01*
X014781Y021183D01*
X014672Y021153D01*
X014568Y021110D01*
X014471Y021054D01*
X014381Y020985D01*
X014301Y020906D01*
X014233Y020816D01*
X014176Y020718D01*
X014133Y020614D01*
X014104Y020505D01*
X014092Y020417D01*
X014870Y020417D01*
X014870Y020257D01*
X015030Y020257D01*
X015807Y020257D01*
X015795Y020169D01*
X015766Y020060D01*
X015723Y019956D01*
X015666Y019858D01*
X015598Y019769D01*
X015518Y019689D01*
X015429Y019620D01*
X015331Y019564D01*
X015227Y019521D01*
X015118Y019491D01*
X015030Y019480D01*
X015030Y020257D01*
X015030Y020141D02*
X014870Y020141D01*
X014870Y020257D02*
X014870Y019480D01*
X014781Y019491D01*
X014672Y019521D01*
X014568Y019564D01*
X014471Y019620D01*
X014381Y019689D01*
X014301Y019769D01*
X014233Y019858D01*
X014176Y019956D01*
X014133Y020060D01*
X014104Y020169D01*
X014092Y020257D01*
X014870Y020257D01*
X014870Y020299D02*
X011230Y020299D01*
X011230Y020257D02*
X011230Y020417D01*
X011070Y020417D01*
X011070Y020257D01*
X010293Y020257D01*
X010305Y020169D01*
X010334Y020060D01*
X010377Y019956D01*
X010434Y019858D01*
X010502Y019769D01*
X010582Y019689D01*
X010671Y019620D01*
X010769Y019564D01*
X010873Y019521D01*
X010982Y019491D01*
X011070Y019480D01*
X011070Y020257D01*
X011230Y020257D01*
X011230Y019480D01*
X011319Y019491D01*
X011428Y019521D01*
X011532Y019564D01*
X011629Y019620D01*
X011719Y019689D01*
X011799Y019769D01*
X011867Y019858D01*
X011924Y019956D01*
X011967Y020060D01*
X011996Y020169D01*
X012008Y020257D01*
X011230Y020257D01*
X011230Y020141D02*
X011070Y020141D01*
X011070Y020299D02*
X008530Y020299D01*
X008530Y020257D02*
X008530Y020417D01*
X009307Y020417D01*
X009295Y020505D01*
X009266Y020614D01*
X009223Y020718D01*
X009166Y020816D01*
X009098Y020906D01*
X009018Y020985D01*
X008929Y021054D01*
X008831Y021110D01*
X008727Y021153D01*
X008618Y021183D01*
X008530Y021194D01*
X008530Y020417D01*
X008370Y020417D01*
X008370Y021194D01*
X008281Y021183D01*
X008172Y021153D01*
X008068Y021110D01*
X007971Y021054D01*
X007881Y020985D01*
X007801Y020906D01*
X007733Y020816D01*
X007676Y020718D01*
X007633Y020614D01*
X007604Y020505D01*
X007592Y020417D01*
X008370Y020417D01*
X008370Y020257D01*
X008530Y020257D01*
X009307Y020257D01*
X009295Y020169D01*
X009266Y020060D01*
X009223Y019956D01*
X009166Y019858D01*
X009098Y019769D01*
X009018Y019689D01*
X008929Y019620D01*
X008831Y019564D01*
X008727Y019521D01*
X008618Y019491D01*
X008530Y019480D01*
X008530Y020257D01*
X008530Y020141D02*
X008370Y020141D01*
X008370Y020257D02*
X008370Y019480D01*
X008281Y019491D01*
X008172Y019521D01*
X008068Y019564D01*
X007971Y019620D01*
X007881Y019689D01*
X007801Y019769D01*
X007733Y019858D01*
X007676Y019956D01*
X007633Y020060D01*
X007604Y020169D01*
X007592Y020257D01*
X008370Y020257D01*
X008370Y020299D02*
X004730Y020299D01*
X004730Y020257D02*
X004730Y020417D01*
X004570Y020417D01*
X004570Y020257D01*
X003793Y020257D01*
X003805Y020169D01*
X003834Y020060D01*
X003877Y019956D01*
X003934Y019858D01*
X004002Y019769D01*
X004082Y019689D01*
X004171Y019620D01*
X004269Y019564D01*
X004373Y019521D01*
X004482Y019491D01*
X004570Y019480D01*
X004570Y020257D01*
X004730Y020257D01*
X004730Y019480D01*
X004819Y019491D01*
X004928Y019521D01*
X005032Y019564D01*
X005129Y019620D01*
X005219Y019689D01*
X005299Y019769D01*
X005367Y019858D01*
X005424Y019956D01*
X005467Y020060D01*
X005496Y020169D01*
X005508Y020257D01*
X004730Y020257D01*
X004730Y020141D02*
X004570Y020141D01*
X004570Y020299D02*
X002030Y020299D01*
X002030Y020257D02*
X002030Y020417D01*
X002807Y020417D01*
X002795Y020505D01*
X002766Y020614D01*
X002723Y020718D01*
X002666Y020816D01*
X002598Y020906D01*
X002518Y020985D01*
X002429Y021054D01*
X002331Y021110D01*
X002227Y021153D01*
X002118Y021183D01*
X002030Y021194D01*
X002030Y020417D01*
X001870Y020417D01*
X001870Y021194D01*
X001781Y021183D01*
X001672Y021153D01*
X001568Y021110D01*
X001471Y021054D01*
X001381Y020985D01*
X001301Y020906D01*
X001233Y020816D01*
X001176Y020718D01*
X001133Y020614D01*
X001104Y020505D01*
X001092Y020417D01*
X001870Y020417D01*
X001870Y020257D01*
X002030Y020257D01*
X002807Y020257D01*
X002795Y020169D01*
X002766Y020060D01*
X002723Y019956D01*
X002666Y019858D01*
X002598Y019769D01*
X002518Y019689D01*
X002429Y019620D01*
X002331Y019564D01*
X002227Y019521D01*
X002118Y019491D01*
X002030Y019480D01*
X002030Y020257D01*
X002030Y020141D02*
X001870Y020141D01*
X001870Y020257D02*
X001870Y019480D01*
X001781Y019491D01*
X001672Y019521D01*
X001568Y019564D01*
X001471Y019620D01*
X001381Y019689D01*
X001301Y019769D01*
X001233Y019858D01*
X001176Y019956D01*
X001133Y020060D01*
X001104Y020169D01*
X001092Y020257D01*
X001870Y020257D01*
X001870Y020299D02*
X000780Y020299D01*
X000780Y020141D02*
X001112Y020141D01*
X001165Y019982D02*
X000780Y019982D01*
X000780Y019824D02*
X001259Y019824D01*
X001412Y019665D02*
X000780Y019665D01*
X000780Y019507D02*
X001725Y019507D01*
X001870Y019507D02*
X002030Y019507D01*
X002175Y019507D02*
X002711Y019507D01*
X002635Y019431D02*
X002516Y019143D01*
X002516Y018831D01*
X002635Y018543D01*
X002856Y018322D01*
X003144Y018203D01*
X003456Y018203D01*
X003744Y018322D01*
X003965Y018543D01*
X004084Y018831D01*
X004084Y019143D01*
X003965Y019431D01*
X003744Y019651D01*
X003456Y019771D01*
X003144Y019771D01*
X002856Y019651D01*
X002635Y019431D01*
X002601Y019348D02*
X000780Y019348D01*
X000780Y019190D02*
X002536Y019190D01*
X002516Y019031D02*
X000780Y019031D01*
X000780Y018873D02*
X002516Y018873D01*
X002564Y018714D02*
X000780Y018714D01*
X000780Y018556D02*
X002630Y018556D01*
X002781Y018397D02*
X002352Y018397D01*
X002564Y018239D02*
X003057Y018239D01*
X002687Y018080D02*
X003913Y018080D01*
X003934Y018115D02*
X003877Y018018D01*
X003834Y017913D01*
X003805Y017804D01*
X003793Y017716D01*
X004570Y017716D01*
X004570Y017556D01*
X004730Y017556D01*
X004730Y017716D01*
X004570Y017716D01*
X004570Y018493D01*
X004482Y018482D01*
X004373Y018453D01*
X004269Y018410D01*
X004171Y018353D01*
X004082Y018284D01*
X004002Y018205D01*
X003934Y018115D01*
X004036Y018239D02*
X003543Y018239D01*
X003819Y018397D02*
X004248Y018397D01*
X003970Y018556D02*
X009130Y018556D01*
X009135Y018543D02*
X009356Y018322D01*
X009644Y018203D01*
X009956Y018203D01*
X010244Y018322D01*
X010465Y018543D01*
X010584Y018831D01*
X010584Y019143D01*
X010465Y019431D01*
X010244Y019651D01*
X009956Y019771D01*
X009644Y019771D01*
X009356Y019651D01*
X009135Y019431D01*
X009016Y019143D01*
X009016Y018831D01*
X009135Y018543D01*
X009064Y018714D02*
X004036Y018714D01*
X004084Y018873D02*
X009016Y018873D01*
X009016Y019031D02*
X004084Y019031D01*
X004064Y019190D02*
X009036Y019190D01*
X009101Y019348D02*
X003999Y019348D01*
X003889Y019507D02*
X004425Y019507D01*
X004570Y019507D02*
X004730Y019507D01*
X004875Y019507D02*
X008225Y019507D01*
X008370Y019507D02*
X008530Y019507D01*
X008675Y019507D02*
X009211Y019507D01*
X009390Y019665D02*
X008987Y019665D01*
X009140Y019824D02*
X010460Y019824D01*
X010366Y019982D02*
X009234Y019982D01*
X009288Y020141D02*
X010312Y020141D01*
X010293Y020417D02*
X011070Y020417D01*
X011070Y021194D01*
X010982Y021183D01*
X010873Y021153D01*
X010769Y021110D01*
X010671Y021054D01*
X010582Y020985D01*
X010502Y020906D01*
X010434Y020816D01*
X010377Y020718D01*
X010334Y020614D01*
X010305Y020505D01*
X010293Y020417D01*
X010299Y020458D02*
X009301Y020458D01*
X009265Y020616D02*
X010335Y020616D01*
X010410Y020775D02*
X009190Y020775D01*
X009070Y020933D02*
X010530Y020933D01*
X010737Y021092D02*
X008863Y021092D01*
X008530Y021092D02*
X008370Y021092D01*
X008370Y020933D02*
X008530Y020933D01*
X008530Y020775D02*
X008370Y020775D01*
X008370Y020616D02*
X008530Y020616D01*
X008530Y020458D02*
X008370Y020458D01*
X008370Y019982D02*
X008530Y019982D01*
X008530Y019824D02*
X008370Y019824D01*
X008370Y019665D02*
X008530Y019665D01*
X007912Y019665D02*
X005188Y019665D01*
X005341Y019824D02*
X007759Y019824D01*
X007665Y019982D02*
X005435Y019982D01*
X005488Y020141D02*
X007612Y020141D01*
X007598Y020458D02*
X005502Y020458D01*
X005508Y020417D02*
X005496Y020505D01*
X005467Y020614D01*
X005424Y020718D01*
X005367Y020816D01*
X005299Y020906D01*
X005219Y020985D01*
X005129Y021054D01*
X005032Y021110D01*
X004928Y021153D01*
X004819Y021183D01*
X004730Y021194D01*
X004730Y020417D01*
X005508Y020417D01*
X005466Y020616D02*
X007634Y020616D01*
X007709Y020775D02*
X005391Y020775D01*
X005271Y020933D02*
X007829Y020933D01*
X008036Y021092D02*
X005064Y021092D01*
X004730Y021092D02*
X004570Y021092D01*
X004570Y021194D02*
X004482Y021183D01*
X004373Y021153D01*
X004269Y021110D01*
X004171Y021054D01*
X004082Y020985D01*
X004002Y020906D01*
X003934Y020816D01*
X003877Y020718D01*
X003834Y020614D01*
X003805Y020505D01*
X003793Y020417D01*
X004570Y020417D01*
X004570Y021194D01*
X004570Y020933D02*
X004730Y020933D01*
X004730Y020775D02*
X004570Y020775D01*
X004570Y020616D02*
X004730Y020616D01*
X004730Y020458D02*
X004570Y020458D01*
X004570Y019982D02*
X004730Y019982D01*
X004730Y019824D02*
X004570Y019824D01*
X004570Y019665D02*
X004730Y019665D01*
X004113Y019665D02*
X003710Y019665D01*
X003960Y019824D02*
X002640Y019824D01*
X002734Y019982D02*
X003866Y019982D01*
X003812Y020141D02*
X002788Y020141D01*
X002801Y020458D02*
X003799Y020458D01*
X003835Y020616D02*
X002765Y020616D01*
X002690Y020775D02*
X003910Y020775D01*
X004030Y020933D02*
X002570Y020933D01*
X002363Y021092D02*
X004237Y021092D01*
X002890Y019665D02*
X002487Y019665D01*
X002030Y019665D02*
X001870Y019665D01*
X001870Y019824D02*
X002030Y019824D01*
X002030Y019982D02*
X001870Y019982D01*
X001870Y020458D02*
X002030Y020458D01*
X002030Y020616D02*
X001870Y020616D01*
X001870Y020775D02*
X002030Y020775D01*
X002030Y020933D02*
X001870Y020933D01*
X001870Y021092D02*
X002030Y021092D01*
X001536Y021092D02*
X000780Y021092D01*
X000780Y021250D02*
X039820Y021250D01*
X039820Y021092D02*
X038564Y021092D01*
X038532Y021110D02*
X038428Y021153D01*
X038319Y021183D01*
X038230Y021194D01*
X038230Y020417D01*
X039008Y020417D01*
X038996Y020505D01*
X038967Y020614D01*
X038924Y020718D01*
X038867Y020816D01*
X038799Y020906D01*
X038719Y020985D01*
X038629Y021054D01*
X038532Y021110D01*
X038771Y020933D02*
X039820Y020933D01*
X039820Y020775D02*
X038891Y020775D01*
X038966Y020616D02*
X039820Y020616D01*
X039820Y020458D02*
X039002Y020458D01*
X038230Y020458D02*
X038070Y020458D01*
X038070Y020417D02*
X038070Y021194D01*
X037982Y021183D01*
X037873Y021153D01*
X037769Y021110D01*
X037671Y021054D01*
X037582Y020985D01*
X037502Y020906D01*
X037434Y020816D01*
X037377Y020718D01*
X037334Y020614D01*
X037305Y020505D01*
X037293Y020417D01*
X038070Y020417D01*
X038070Y020616D02*
X038230Y020616D01*
X038230Y020775D02*
X038070Y020775D01*
X038070Y020933D02*
X038230Y020933D01*
X038230Y021092D02*
X038070Y021092D01*
X037737Y021092D02*
X035863Y021092D01*
X036070Y020933D02*
X037530Y020933D01*
X037410Y020775D02*
X036190Y020775D01*
X036265Y020616D02*
X037335Y020616D01*
X037299Y020458D02*
X036301Y020458D01*
X036288Y020141D02*
X037312Y020141D01*
X037366Y019982D02*
X036234Y019982D01*
X036140Y019824D02*
X037460Y019824D01*
X037613Y019665D02*
X037210Y019665D01*
X036390Y019665D02*
X035987Y019665D01*
X036211Y019507D02*
X035675Y019507D01*
X035530Y019507D02*
X035370Y019507D01*
X035225Y019507D02*
X030875Y019507D01*
X030730Y019507D02*
X030570Y019507D01*
X030425Y019507D02*
X029889Y019507D01*
X029965Y019431D02*
X029744Y019651D01*
X029456Y019771D01*
X029144Y019771D01*
X028856Y019651D01*
X028635Y019431D01*
X028516Y019143D01*
X028516Y018831D01*
X028635Y018543D01*
X028856Y018322D01*
X029144Y018203D01*
X029456Y018203D01*
X029744Y018322D01*
X029965Y018543D01*
X030084Y018831D01*
X030084Y019143D01*
X029965Y019431D01*
X029999Y019348D02*
X036101Y019348D01*
X036036Y019190D02*
X030064Y019190D01*
X030084Y019031D02*
X036016Y019031D01*
X036016Y018873D02*
X030084Y018873D01*
X030036Y018714D02*
X036064Y018714D01*
X036130Y018556D02*
X029970Y018556D01*
X029819Y018397D02*
X030248Y018397D01*
X030269Y018410D02*
X030171Y018353D01*
X030082Y018284D01*
X030002Y018205D01*
X029934Y018115D01*
X029877Y018018D01*
X029834Y017913D01*
X029805Y017804D01*
X029793Y017716D01*
X030570Y017716D01*
X030570Y017556D01*
X030730Y017556D01*
X030730Y017716D01*
X030570Y017716D01*
X030570Y018493D01*
X030482Y018482D01*
X030373Y018453D01*
X030269Y018410D01*
X030036Y018239D02*
X029543Y018239D01*
X029913Y018080D02*
X028687Y018080D01*
X028763Y017922D02*
X029837Y017922D01*
X029799Y017763D02*
X028801Y017763D01*
X028789Y017446D02*
X029811Y017446D01*
X029864Y017288D02*
X028736Y017288D01*
X028645Y017129D02*
X029955Y017129D01*
X030105Y016971D02*
X028495Y016971D01*
X028030Y016971D02*
X027870Y016971D01*
X027870Y017129D02*
X028030Y017129D01*
X028030Y017288D02*
X027870Y017288D01*
X027870Y017446D02*
X028030Y017446D01*
X028030Y017605D02*
X030570Y017605D01*
X030570Y017763D02*
X030730Y017763D01*
X030730Y017716D02*
X030730Y018493D01*
X030819Y018482D01*
X030928Y018453D01*
X031032Y018410D01*
X031129Y018353D01*
X031219Y018284D01*
X031299Y018205D01*
X031367Y018115D01*
X031424Y018018D01*
X031467Y017913D01*
X031496Y017804D01*
X031508Y017716D01*
X030730Y017716D01*
X030730Y017605D02*
X035370Y017605D01*
X035370Y017716D02*
X034592Y017716D01*
X034604Y017804D01*
X034633Y017913D01*
X034676Y018018D01*
X034733Y018115D01*
X034801Y018205D01*
X034881Y018284D01*
X034971Y018353D01*
X035068Y018410D01*
X035172Y018453D01*
X035281Y018482D01*
X035370Y018493D01*
X035370Y017716D01*
X035370Y017763D02*
X035530Y017763D01*
X035530Y017922D02*
X035370Y017922D01*
X035370Y018080D02*
X035530Y018080D01*
X035530Y018239D02*
X035370Y018239D01*
X035370Y018397D02*
X035530Y018397D01*
X035852Y018397D02*
X036281Y018397D01*
X035047Y018397D02*
X031053Y018397D01*
X031265Y018239D02*
X034835Y018239D01*
X034712Y018080D02*
X031388Y018080D01*
X031463Y017922D02*
X034637Y017922D01*
X034599Y017763D02*
X031501Y017763D01*
X031490Y017446D02*
X034610Y017446D01*
X034663Y017288D02*
X031437Y017288D01*
X031346Y017129D02*
X034754Y017129D01*
X034904Y016971D02*
X031196Y016971D01*
X030730Y016971D02*
X030570Y016971D01*
X030570Y017129D02*
X030730Y017129D01*
X030730Y017288D02*
X030570Y017288D01*
X030570Y017446D02*
X030730Y017446D01*
X030730Y017922D02*
X030570Y017922D01*
X030570Y018080D02*
X030730Y018080D01*
X030730Y018239D02*
X030570Y018239D01*
X030570Y018397D02*
X030730Y018397D01*
X029057Y018239D02*
X028564Y018239D01*
X028352Y018397D02*
X028781Y018397D01*
X028630Y018556D02*
X023470Y018556D01*
X023465Y018543D02*
X023584Y018831D01*
X023584Y019143D01*
X023465Y019431D01*
X023244Y019651D01*
X022956Y019771D01*
X022644Y019771D01*
X022356Y019651D01*
X022135Y019431D01*
X022016Y019143D01*
X022016Y018831D01*
X022135Y018543D01*
X022356Y018322D01*
X022644Y018203D01*
X022956Y018203D01*
X023244Y018322D01*
X023465Y018543D01*
X023536Y018714D02*
X028564Y018714D01*
X028516Y018873D02*
X023584Y018873D01*
X023584Y019031D02*
X028516Y019031D01*
X028536Y019190D02*
X023564Y019190D01*
X023499Y019348D02*
X028601Y019348D01*
X028711Y019507D02*
X028175Y019507D01*
X028030Y019507D02*
X027870Y019507D01*
X027725Y019507D02*
X024375Y019507D01*
X024230Y019507D02*
X024070Y019507D01*
X023925Y019507D02*
X023389Y019507D01*
X023210Y019665D02*
X023613Y019665D01*
X023460Y019824D02*
X022140Y019824D01*
X022234Y019982D02*
X023366Y019982D01*
X023312Y020141D02*
X022288Y020141D01*
X022301Y020458D02*
X023299Y020458D01*
X023293Y020417D02*
X024070Y020417D01*
X024070Y021194D01*
X023982Y021183D01*
X023873Y021153D01*
X023769Y021110D01*
X023671Y021054D01*
X023582Y020985D01*
X023502Y020906D01*
X023434Y020816D01*
X023377Y020718D01*
X023334Y020614D01*
X023305Y020505D01*
X023293Y020417D01*
X023335Y020616D02*
X022265Y020616D01*
X022190Y020775D02*
X023410Y020775D01*
X023530Y020933D02*
X022070Y020933D01*
X021863Y021092D02*
X023737Y021092D01*
X024070Y021092D02*
X024230Y021092D01*
X024230Y021194D02*
X024319Y021183D01*
X024428Y021153D01*
X024532Y021110D01*
X024629Y021054D01*
X024719Y020985D01*
X024799Y020906D01*
X024867Y020816D01*
X024924Y020718D01*
X024967Y020614D01*
X024996Y020505D01*
X025008Y020417D01*
X024230Y020417D01*
X024230Y021194D01*
X024230Y020933D02*
X024070Y020933D01*
X024070Y020775D02*
X024230Y020775D01*
X024230Y020616D02*
X024070Y020616D01*
X024070Y020458D02*
X024230Y020458D01*
X024230Y019982D02*
X024070Y019982D01*
X024070Y019824D02*
X024230Y019824D01*
X024230Y019665D02*
X024070Y019665D01*
X024688Y019665D02*
X027412Y019665D01*
X027259Y019824D02*
X024841Y019824D01*
X024935Y019982D02*
X027165Y019982D01*
X027112Y020141D02*
X024988Y020141D01*
X025002Y020458D02*
X027098Y020458D01*
X027134Y020616D02*
X024966Y020616D01*
X024891Y020775D02*
X027209Y020775D01*
X027329Y020933D02*
X024771Y020933D01*
X024564Y021092D02*
X027536Y021092D01*
X027870Y021092D02*
X028030Y021092D01*
X028030Y020933D02*
X027870Y020933D01*
X027870Y020775D02*
X028030Y020775D01*
X028030Y020616D02*
X027870Y020616D01*
X027870Y020458D02*
X028030Y020458D01*
X028030Y019982D02*
X027870Y019982D01*
X027870Y019824D02*
X028030Y019824D01*
X028030Y019665D02*
X027870Y019665D01*
X028487Y019665D02*
X028890Y019665D01*
X028640Y019824D02*
X029960Y019824D01*
X029866Y019982D02*
X028734Y019982D01*
X028788Y020141D02*
X029812Y020141D01*
X029793Y020417D02*
X030570Y020417D01*
X030570Y021194D01*
X030482Y021183D01*
X030373Y021153D01*
X030269Y021110D01*
X030171Y021054D01*
X030082Y020985D01*
X030002Y020906D01*
X029934Y020816D01*
X029877Y020718D01*
X029834Y020614D01*
X029805Y020505D01*
X029793Y020417D01*
X029799Y020458D02*
X028801Y020458D01*
X028765Y020616D02*
X029835Y020616D01*
X029910Y020775D02*
X028690Y020775D01*
X028570Y020933D02*
X030030Y020933D01*
X030237Y021092D02*
X028363Y021092D01*
X029710Y019665D02*
X030113Y019665D01*
X030570Y019665D02*
X030730Y019665D01*
X030730Y019824D02*
X030570Y019824D01*
X030570Y019982D02*
X030730Y019982D01*
X030730Y020417D02*
X031508Y020417D01*
X031496Y020505D01*
X031467Y020614D01*
X031424Y020718D01*
X031367Y020816D01*
X031299Y020906D01*
X031219Y020985D01*
X031129Y021054D01*
X031032Y021110D01*
X030928Y021153D01*
X030819Y021183D01*
X030730Y021194D01*
X030730Y020417D01*
X030730Y020458D02*
X030570Y020458D01*
X030570Y020616D02*
X030730Y020616D01*
X030730Y020775D02*
X030570Y020775D01*
X030570Y020933D02*
X030730Y020933D01*
X030730Y021092D02*
X030570Y021092D01*
X031064Y021092D02*
X035036Y021092D01*
X034829Y020933D02*
X031271Y020933D01*
X031391Y020775D02*
X034709Y020775D01*
X034634Y020616D02*
X031466Y020616D01*
X031502Y020458D02*
X034598Y020458D01*
X034612Y020141D02*
X031488Y020141D01*
X031435Y019982D02*
X034665Y019982D01*
X034759Y019824D02*
X031341Y019824D01*
X031188Y019665D02*
X034912Y019665D01*
X035370Y019665D02*
X035530Y019665D01*
X035530Y019824D02*
X035370Y019824D01*
X035370Y019982D02*
X035530Y019982D01*
X035530Y020458D02*
X035370Y020458D01*
X035370Y020616D02*
X035530Y020616D01*
X035530Y020775D02*
X035370Y020775D01*
X035370Y020933D02*
X035530Y020933D01*
X035530Y021092D02*
X035370Y021092D01*
X038070Y019982D02*
X038230Y019982D01*
X038230Y019824D02*
X038070Y019824D01*
X038070Y019665D02*
X038230Y019665D01*
X038230Y018397D02*
X038070Y018397D01*
X038070Y018239D02*
X038230Y018239D01*
X038230Y018080D02*
X038070Y018080D01*
X038070Y017922D02*
X038230Y017922D01*
X038230Y017763D02*
X038070Y017763D01*
X038230Y017605D02*
X039820Y017605D01*
X039820Y017763D02*
X039001Y017763D01*
X038963Y017922D02*
X039820Y017922D01*
X039820Y018080D02*
X038888Y018080D01*
X038765Y018239D02*
X039820Y018239D01*
X039820Y018397D02*
X038553Y018397D01*
X038990Y017446D02*
X039820Y017446D01*
X039820Y017288D02*
X038937Y017288D01*
X038846Y017129D02*
X039820Y017129D01*
X039820Y016971D02*
X038696Y016971D01*
X039820Y016495D02*
X000780Y016495D01*
X000780Y016337D02*
X039820Y016337D01*
X039820Y016178D02*
X000780Y016178D01*
X000780Y016020D02*
X001519Y016020D01*
X001326Y015861D02*
X000780Y015861D01*
X000780Y015703D02*
X001167Y015703D01*
X001009Y015544D02*
X000780Y015544D01*
X000780Y015386D02*
X000850Y015386D01*
X000780Y016971D02*
X001404Y016971D01*
X001254Y017129D02*
X000780Y017129D01*
X000780Y017288D02*
X001163Y017288D01*
X001110Y017446D02*
X000780Y017446D01*
X000780Y017605D02*
X001870Y017605D01*
X001870Y017716D02*
X001092Y017716D01*
X001104Y017804D01*
X001133Y017913D01*
X001176Y018018D01*
X001233Y018115D01*
X001301Y018205D01*
X001381Y018284D01*
X001471Y018353D01*
X001568Y018410D01*
X001672Y018453D01*
X001781Y018482D01*
X001870Y018493D01*
X001870Y017716D01*
X001870Y017763D02*
X002030Y017763D01*
X002030Y017605D02*
X004570Y017605D01*
X004570Y017763D02*
X004730Y017763D01*
X004730Y017716D02*
X004730Y018493D01*
X004819Y018482D01*
X004928Y018453D01*
X005032Y018410D01*
X005129Y018353D01*
X005219Y018284D01*
X005299Y018205D01*
X005367Y018115D01*
X005424Y018018D01*
X005467Y017913D01*
X005496Y017804D01*
X005508Y017716D01*
X004730Y017716D01*
X004730Y017605D02*
X008370Y017605D01*
X008370Y017716D02*
X007592Y017716D01*
X007604Y017804D01*
X007633Y017913D01*
X007676Y018018D01*
X007733Y018115D01*
X007801Y018205D01*
X007881Y018284D01*
X007971Y018353D01*
X008068Y018410D01*
X008172Y018453D01*
X008281Y018482D01*
X008370Y018493D01*
X008370Y017716D01*
X008370Y017763D02*
X008530Y017763D01*
X008530Y017605D02*
X011070Y017605D01*
X011070Y017556D02*
X011070Y017716D01*
X010293Y017716D01*
X010305Y017804D01*
X010334Y017913D01*
X010377Y018018D01*
X010434Y018115D01*
X010502Y018205D01*
X010582Y018284D01*
X010671Y018353D01*
X010769Y018410D01*
X010873Y018453D01*
X010982Y018482D01*
X011070Y018493D01*
X011070Y017716D01*
X011230Y017716D01*
X011230Y018493D01*
X011319Y018482D01*
X011428Y018453D01*
X011532Y018410D01*
X011629Y018353D01*
X011719Y018284D01*
X011799Y018205D01*
X011867Y018115D01*
X011924Y018018D01*
X011967Y017913D01*
X011996Y017804D01*
X012008Y017716D01*
X011230Y017716D01*
X011230Y017556D01*
X011070Y017556D01*
X011070Y017446D02*
X011230Y017446D01*
X011230Y017288D02*
X011070Y017288D01*
X011070Y017129D02*
X011230Y017129D01*
X011230Y016971D02*
X011070Y016971D01*
X010605Y016971D02*
X008995Y016971D01*
X009145Y017129D02*
X010455Y017129D01*
X010364Y017288D02*
X009236Y017288D01*
X009289Y017446D02*
X010311Y017446D01*
X010299Y017763D02*
X009301Y017763D01*
X009263Y017922D02*
X010337Y017922D01*
X010413Y018080D02*
X009187Y018080D01*
X009064Y018239D02*
X009557Y018239D01*
X009281Y018397D02*
X008852Y018397D01*
X008530Y018397D02*
X008370Y018397D01*
X008370Y018239D02*
X008530Y018239D01*
X008530Y018080D02*
X008370Y018080D01*
X008370Y017922D02*
X008530Y017922D01*
X008530Y017446D02*
X008370Y017446D01*
X008370Y017288D02*
X008530Y017288D01*
X008530Y017129D02*
X008370Y017129D01*
X008370Y016971D02*
X008530Y016971D01*
X007904Y016971D02*
X005196Y016971D01*
X005346Y017129D02*
X007754Y017129D01*
X007663Y017288D02*
X005437Y017288D01*
X005490Y017446D02*
X007610Y017446D01*
X007599Y017763D02*
X005501Y017763D01*
X005463Y017922D02*
X007637Y017922D01*
X007712Y018080D02*
X005388Y018080D01*
X005265Y018239D02*
X007835Y018239D01*
X008047Y018397D02*
X005053Y018397D01*
X004730Y018397D02*
X004570Y018397D01*
X004570Y018239D02*
X004730Y018239D01*
X004730Y018080D02*
X004570Y018080D01*
X004570Y017922D02*
X004730Y017922D01*
X004730Y017446D02*
X004570Y017446D01*
X004570Y017288D02*
X004730Y017288D01*
X004730Y017129D02*
X004570Y017129D01*
X004570Y016971D02*
X004730Y016971D01*
X004105Y016971D02*
X002495Y016971D01*
X002645Y017129D02*
X003955Y017129D01*
X003864Y017288D02*
X002736Y017288D01*
X002789Y017446D02*
X003811Y017446D01*
X003799Y017763D02*
X002801Y017763D01*
X002763Y017922D02*
X003837Y017922D01*
X002030Y017922D02*
X001870Y017922D01*
X001870Y018080D02*
X002030Y018080D01*
X002030Y018239D02*
X001870Y018239D01*
X001870Y018397D02*
X002030Y018397D01*
X001547Y018397D02*
X000780Y018397D01*
X000780Y018239D02*
X001335Y018239D01*
X001212Y018080D02*
X000780Y018080D01*
X000780Y017922D02*
X001137Y017922D01*
X001099Y017763D02*
X000780Y017763D01*
X001870Y017446D02*
X002030Y017446D01*
X002030Y017288D02*
X001870Y017288D01*
X001870Y017129D02*
X002030Y017129D01*
X002030Y016971D02*
X001870Y016971D01*
X001098Y020458D02*
X000780Y020458D01*
X000780Y020616D02*
X001134Y020616D01*
X001209Y020775D02*
X000780Y020775D01*
X000780Y020933D02*
X001329Y020933D01*
X000780Y021409D02*
X039820Y021409D01*
X039820Y021567D02*
X000780Y021567D01*
X000780Y021726D02*
X039820Y021726D01*
X039820Y021884D02*
X000780Y021884D01*
X000780Y022043D02*
X039820Y022043D01*
X039820Y022201D02*
X000780Y022201D01*
X000780Y022360D02*
X039820Y022360D01*
X039820Y022518D02*
X000780Y022518D01*
X000780Y022677D02*
X039820Y022677D01*
X039820Y022835D02*
X000780Y022835D01*
X000780Y022994D02*
X039820Y022994D01*
X039820Y023152D02*
X000780Y023152D01*
X000780Y023311D02*
X001707Y023311D01*
X001672Y023320D02*
X001781Y023291D01*
X001870Y023279D01*
X001870Y024056D01*
X002030Y024056D01*
X002030Y024216D01*
X002807Y024216D01*
X002795Y024304D01*
X002766Y024413D01*
X002723Y024518D01*
X002666Y024615D01*
X002598Y024705D01*
X002518Y024784D01*
X002429Y024853D01*
X002331Y024910D01*
X002227Y024953D01*
X002118Y024982D01*
X002030Y024993D01*
X002030Y024216D01*
X001870Y024216D01*
X001870Y024056D01*
X001092Y024056D01*
X001104Y023968D01*
X001133Y023859D01*
X001176Y023755D01*
X001233Y023657D01*
X001301Y023568D01*
X001381Y023488D01*
X001471Y023419D01*
X001568Y023363D01*
X001672Y023320D01*
X001870Y023311D02*
X002030Y023311D01*
X002030Y023279D02*
X002118Y023291D01*
X002227Y023320D01*
X002331Y023363D01*
X002429Y023419D01*
X002518Y023488D01*
X002598Y023568D01*
X002666Y023657D01*
X002723Y023755D01*
X002766Y023859D01*
X002795Y023968D01*
X002807Y024056D01*
X002030Y024056D01*
X002030Y023279D01*
X002193Y023311D02*
X004407Y023311D01*
X004373Y023320D02*
X004482Y023291D01*
X004570Y023279D01*
X004570Y024056D01*
X003793Y024056D01*
X003805Y023968D01*
X003834Y023859D01*
X003877Y023755D01*
X003934Y023657D01*
X004002Y023568D01*
X004082Y023488D01*
X004171Y023419D01*
X004269Y023363D01*
X004373Y023320D01*
X004570Y023311D02*
X004730Y023311D01*
X004730Y023279D02*
X004819Y023291D01*
X004928Y023320D01*
X005032Y023363D01*
X005129Y023419D01*
X005219Y023488D01*
X005299Y023568D01*
X005367Y023657D01*
X005424Y023755D01*
X005467Y023859D01*
X005496Y023968D01*
X005508Y024056D01*
X004730Y024056D01*
X004730Y023279D01*
X004893Y023311D02*
X008207Y023311D01*
X008172Y023320D02*
X008281Y023291D01*
X008370Y023279D01*
X008370Y024056D01*
X008530Y024056D01*
X008530Y024216D01*
X009307Y024216D01*
X009295Y024304D01*
X009266Y024413D01*
X009223Y024518D01*
X009166Y024615D01*
X009098Y024705D01*
X009018Y024784D01*
X008929Y024853D01*
X008831Y024910D01*
X008727Y024953D01*
X008618Y024982D01*
X008530Y024993D01*
X008530Y024216D01*
X008370Y024216D01*
X008370Y024056D01*
X007592Y024056D01*
X007604Y023968D01*
X007633Y023859D01*
X007676Y023755D01*
X007733Y023657D01*
X007801Y023568D01*
X007881Y023488D01*
X007971Y023419D01*
X008068Y023363D01*
X008172Y023320D01*
X008370Y023311D02*
X008530Y023311D01*
X008530Y023279D02*
X008618Y023291D01*
X008727Y023320D01*
X008831Y023363D01*
X008929Y023419D01*
X009018Y023488D01*
X009098Y023568D01*
X009166Y023657D01*
X009223Y023755D01*
X009266Y023859D01*
X009295Y023968D01*
X009307Y024056D01*
X008530Y024056D01*
X008530Y023279D01*
X008693Y023311D02*
X010907Y023311D01*
X010873Y023320D02*
X010982Y023291D01*
X011070Y023279D01*
X011070Y024056D01*
X010293Y024056D01*
X010305Y023968D01*
X010334Y023859D01*
X010377Y023755D01*
X010434Y023657D01*
X010502Y023568D01*
X010582Y023488D01*
X010671Y023419D01*
X010769Y023363D01*
X010873Y023320D01*
X011070Y023311D02*
X011230Y023311D01*
X011230Y023279D02*
X011319Y023291D01*
X011428Y023320D01*
X011532Y023363D01*
X011629Y023419D01*
X011719Y023488D01*
X011799Y023568D01*
X011867Y023657D01*
X011924Y023755D01*
X011967Y023859D01*
X011996Y023968D01*
X012008Y024056D01*
X011230Y024056D01*
X011230Y023279D01*
X011393Y023311D02*
X014707Y023311D01*
X014672Y023320D02*
X014781Y023291D01*
X014870Y023279D01*
X014870Y024056D01*
X015030Y024056D01*
X015030Y024216D01*
X015807Y024216D01*
X015795Y024304D01*
X015766Y024413D01*
X015723Y024518D01*
X015666Y024615D01*
X015598Y024705D01*
X015518Y024784D01*
X015429Y024853D01*
X015331Y024910D01*
X015227Y024953D01*
X015118Y024982D01*
X015030Y024993D01*
X015030Y024216D01*
X014870Y024216D01*
X014870Y024056D01*
X014092Y024056D01*
X014104Y023968D01*
X014133Y023859D01*
X014176Y023755D01*
X014233Y023657D01*
X014301Y023568D01*
X014381Y023488D01*
X014471Y023419D01*
X014568Y023363D01*
X014672Y023320D01*
X014870Y023311D02*
X015030Y023311D01*
X015030Y023279D02*
X015118Y023291D01*
X015227Y023320D01*
X015331Y023363D01*
X015429Y023419D01*
X015518Y023488D01*
X015598Y023568D01*
X015666Y023657D01*
X015723Y023755D01*
X015766Y023859D01*
X015795Y023968D01*
X015807Y024056D01*
X015030Y024056D01*
X015030Y023279D01*
X015193Y023311D02*
X017407Y023311D01*
X017373Y023320D02*
X017482Y023291D01*
X017570Y023279D01*
X017570Y024056D01*
X016793Y024056D01*
X016805Y023968D01*
X016834Y023859D01*
X016877Y023755D01*
X016934Y023657D01*
X017002Y023568D01*
X017082Y023488D01*
X017171Y023419D01*
X017269Y023363D01*
X017373Y023320D01*
X017570Y023311D02*
X017730Y023311D01*
X017730Y023279D02*
X017819Y023291D01*
X017928Y023320D01*
X018032Y023363D01*
X018129Y023419D01*
X018219Y023488D01*
X018299Y023568D01*
X018367Y023657D01*
X018424Y023755D01*
X018467Y023859D01*
X018496Y023968D01*
X018508Y024056D01*
X017730Y024056D01*
X017730Y023279D01*
X017893Y023311D02*
X021207Y023311D01*
X021172Y023320D02*
X021281Y023291D01*
X021370Y023279D01*
X021370Y024056D01*
X021530Y024056D01*
X021530Y024216D01*
X022307Y024216D01*
X022295Y024304D01*
X022266Y024413D01*
X022223Y024518D01*
X022166Y024615D01*
X022098Y024705D01*
X022018Y024784D01*
X021929Y024853D01*
X021831Y024910D01*
X021727Y024953D01*
X021618Y024982D01*
X021530Y024993D01*
X021530Y024216D01*
X021370Y024216D01*
X021370Y024056D01*
X020592Y024056D01*
X020604Y023968D01*
X020633Y023859D01*
X020676Y023755D01*
X020733Y023657D01*
X020801Y023568D01*
X020881Y023488D01*
X020971Y023419D01*
X021068Y023363D01*
X021172Y023320D01*
X021370Y023311D02*
X021530Y023311D01*
X021530Y023279D02*
X021618Y023291D01*
X021727Y023320D01*
X021831Y023363D01*
X021929Y023419D01*
X022018Y023488D01*
X022098Y023568D01*
X022166Y023657D01*
X022223Y023755D01*
X022266Y023859D01*
X022295Y023968D01*
X022307Y024056D01*
X021530Y024056D01*
X021530Y023279D01*
X021693Y023311D02*
X023907Y023311D01*
X023873Y023320D02*
X023982Y023291D01*
X024070Y023279D01*
X024070Y024056D01*
X023293Y024056D01*
X023305Y023968D01*
X023334Y023859D01*
X023377Y023755D01*
X023434Y023657D01*
X023502Y023568D01*
X023582Y023488D01*
X023671Y023419D01*
X023769Y023363D01*
X023873Y023320D01*
X024070Y023311D02*
X024230Y023311D01*
X024230Y023279D02*
X024319Y023291D01*
X024428Y023320D01*
X024532Y023363D01*
X024629Y023419D01*
X024719Y023488D01*
X024799Y023568D01*
X024867Y023657D01*
X024924Y023755D01*
X024967Y023859D01*
X024996Y023968D01*
X025008Y024056D01*
X024230Y024056D01*
X024230Y023279D01*
X024393Y023311D02*
X027707Y023311D01*
X027672Y023320D02*
X027781Y023291D01*
X027870Y023279D01*
X027870Y024056D01*
X028030Y024056D01*
X028030Y024216D01*
X028807Y024216D01*
X028795Y024304D01*
X028766Y024413D01*
X028723Y024518D01*
X028666Y024615D01*
X028598Y024705D01*
X028518Y024784D01*
X028429Y024853D01*
X028331Y024910D01*
X028227Y024953D01*
X028118Y024982D01*
X028030Y024993D01*
X028030Y024216D01*
X027870Y024216D01*
X027870Y024056D01*
X027092Y024056D01*
X027104Y023968D01*
X027133Y023859D01*
X027176Y023755D01*
X027233Y023657D01*
X027301Y023568D01*
X027381Y023488D01*
X027471Y023419D01*
X027568Y023363D01*
X027672Y023320D01*
X027870Y023311D02*
X028030Y023311D01*
X028030Y023279D02*
X028118Y023291D01*
X028227Y023320D01*
X028331Y023363D01*
X028429Y023419D01*
X028518Y023488D01*
X028598Y023568D01*
X028666Y023657D01*
X028723Y023755D01*
X028766Y023859D01*
X028795Y023968D01*
X028807Y024056D01*
X028030Y024056D01*
X028030Y023279D01*
X028193Y023311D02*
X030407Y023311D01*
X030373Y023320D02*
X030482Y023291D01*
X030570Y023279D01*
X030570Y024056D01*
X029793Y024056D01*
X029805Y023968D01*
X029834Y023859D01*
X029877Y023755D01*
X029934Y023657D01*
X030002Y023568D01*
X030082Y023488D01*
X030171Y023419D01*
X030269Y023363D01*
X030373Y023320D01*
X030570Y023311D02*
X030730Y023311D01*
X030730Y023279D02*
X030819Y023291D01*
X030928Y023320D01*
X031032Y023363D01*
X031129Y023419D01*
X031219Y023488D01*
X031299Y023568D01*
X031367Y023657D01*
X031424Y023755D01*
X031467Y023859D01*
X031496Y023968D01*
X031508Y024056D01*
X030730Y024056D01*
X030730Y023279D01*
X030893Y023311D02*
X035207Y023311D01*
X035172Y023320D02*
X035281Y023291D01*
X035370Y023279D01*
X035370Y024056D01*
X035530Y024056D01*
X035530Y024216D01*
X036307Y024216D01*
X036295Y024304D01*
X036266Y024413D01*
X036223Y024518D01*
X036166Y024615D01*
X036098Y024705D01*
X036018Y024784D01*
X035929Y024853D01*
X035831Y024910D01*
X035727Y024953D01*
X035618Y024982D01*
X035530Y024993D01*
X035530Y024216D01*
X035370Y024216D01*
X035370Y024056D01*
X034592Y024056D01*
X034604Y023968D01*
X034633Y023859D01*
X034676Y023755D01*
X034733Y023657D01*
X034801Y023568D01*
X034881Y023488D01*
X034971Y023419D01*
X035068Y023363D01*
X035172Y023320D01*
X035370Y023311D02*
X035530Y023311D01*
X035530Y023279D02*
X035618Y023291D01*
X035727Y023320D01*
X035831Y023363D01*
X035929Y023419D01*
X036018Y023488D01*
X036098Y023568D01*
X036166Y023657D01*
X036223Y023755D01*
X036266Y023859D01*
X036295Y023968D01*
X036307Y024056D01*
X035530Y024056D01*
X035530Y023279D01*
X035693Y023311D02*
X037907Y023311D01*
X037873Y023320D02*
X037982Y023291D01*
X038070Y023279D01*
X038070Y024056D01*
X037293Y024056D01*
X037305Y023968D01*
X037334Y023859D01*
X037377Y023755D01*
X037434Y023657D01*
X037502Y023568D01*
X037582Y023488D01*
X037671Y023419D01*
X037769Y023363D01*
X037873Y023320D01*
X038070Y023311D02*
X038230Y023311D01*
X038230Y023279D02*
X038319Y023291D01*
X038428Y023320D01*
X038532Y023363D01*
X038629Y023419D01*
X038719Y023488D01*
X038799Y023568D01*
X038867Y023657D01*
X038924Y023755D01*
X038967Y023859D01*
X038996Y023968D01*
X039008Y024056D01*
X038230Y024056D01*
X038230Y023279D01*
X038393Y023311D02*
X039820Y023311D01*
X039820Y023469D02*
X038694Y023469D01*
X038845Y023628D02*
X039820Y023628D01*
X039820Y023786D02*
X038937Y023786D01*
X038990Y023945D02*
X039820Y023945D01*
X039820Y024103D02*
X038230Y024103D01*
X038230Y024056D02*
X038230Y024216D01*
X038070Y024216D01*
X038070Y024056D01*
X038230Y024056D01*
X038230Y023945D02*
X038070Y023945D01*
X038070Y024103D02*
X035530Y024103D01*
X035530Y023945D02*
X035370Y023945D01*
X035370Y024103D02*
X030730Y024103D01*
X030730Y024056D02*
X030730Y024216D01*
X030570Y024216D01*
X030570Y024056D01*
X030730Y024056D01*
X030730Y023945D02*
X030570Y023945D01*
X030570Y024103D02*
X028030Y024103D01*
X028030Y023945D02*
X027870Y023945D01*
X027870Y024103D02*
X024230Y024103D01*
X024230Y024056D02*
X024230Y024216D01*
X024070Y024216D01*
X024070Y024056D01*
X024230Y024056D01*
X024230Y023945D02*
X024070Y023945D01*
X024070Y024103D02*
X021530Y024103D01*
X021530Y023945D02*
X021370Y023945D01*
X021370Y024103D02*
X017730Y024103D01*
X017730Y024056D02*
X017730Y024216D01*
X017570Y024216D01*
X017570Y024056D01*
X017730Y024056D01*
X017730Y023945D02*
X017570Y023945D01*
X017570Y024103D02*
X015030Y024103D01*
X015030Y023945D02*
X014870Y023945D01*
X014870Y024103D02*
X011230Y024103D01*
X011230Y024056D02*
X011230Y024216D01*
X011070Y024216D01*
X011070Y024056D01*
X011230Y024056D01*
X011230Y023945D02*
X011070Y023945D01*
X011070Y024103D02*
X008530Y024103D01*
X008530Y023945D02*
X008370Y023945D01*
X008370Y024103D02*
X004730Y024103D01*
X004730Y024056D02*
X004730Y024216D01*
X004570Y024216D01*
X004570Y024056D01*
X004730Y024056D01*
X004730Y023945D02*
X004570Y023945D01*
X004570Y024103D02*
X002030Y024103D01*
X002030Y023945D02*
X001870Y023945D01*
X001870Y024103D02*
X000780Y024103D01*
X000780Y023945D02*
X001110Y023945D01*
X001163Y023786D02*
X000780Y023786D01*
X000780Y023628D02*
X001255Y023628D01*
X001406Y023469D02*
X000780Y023469D01*
X000780Y024262D02*
X001098Y024262D01*
X001104Y024304D02*
X001092Y024216D01*
X001870Y024216D01*
X001870Y024993D01*
X001781Y024982D01*
X001672Y024953D01*
X001568Y024910D01*
X001471Y024853D01*
X001381Y024784D01*
X001301Y024705D01*
X001233Y024615D01*
X001176Y024518D01*
X001133Y024413D01*
X001104Y024304D01*
X001136Y024420D02*
X000780Y024420D01*
X000780Y024579D02*
X001212Y024579D01*
X001334Y024737D02*
X000780Y024737D01*
X000780Y024896D02*
X001544Y024896D01*
X001870Y024896D02*
X002030Y024896D01*
X002030Y024737D02*
X001870Y024737D01*
X001870Y024579D02*
X002030Y024579D01*
X002030Y024420D02*
X001870Y024420D01*
X001870Y024262D02*
X002030Y024262D01*
X002688Y024579D02*
X003912Y024579D01*
X003934Y024615D02*
X003877Y024518D01*
X003834Y024413D01*
X003805Y024304D01*
X003793Y024216D01*
X004570Y024216D01*
X004570Y024993D01*
X004482Y024982D01*
X004373Y024953D01*
X004269Y024910D01*
X004171Y024853D01*
X004082Y024784D01*
X004002Y024705D01*
X003934Y024615D01*
X004035Y024737D02*
X003539Y024737D01*
X003456Y024703D02*
X003144Y024703D01*
X002856Y024822D01*
X002635Y025043D01*
X002516Y025331D01*
X002516Y025643D01*
X002635Y025931D01*
X002856Y026151D01*
X003144Y026271D01*
X003456Y026271D01*
X003744Y026151D01*
X003965Y025931D01*
X004084Y025643D01*
X004084Y025331D01*
X003965Y025043D01*
X003744Y024822D01*
X003456Y024703D01*
X003061Y024737D02*
X002565Y024737D01*
X002355Y024896D02*
X002782Y024896D01*
X002631Y025054D02*
X000780Y025054D01*
X000780Y025213D02*
X002565Y025213D01*
X002516Y025371D02*
X000780Y025371D01*
X000780Y025530D02*
X002516Y025530D01*
X002535Y025688D02*
X000780Y025688D01*
X000780Y025847D02*
X002601Y025847D01*
X002710Y026005D02*
X002169Y026005D01*
X002118Y025991D02*
X002227Y026021D01*
X002331Y026064D01*
X002429Y026120D01*
X002518Y026189D01*
X002598Y026269D01*
X002666Y026358D01*
X002723Y026456D01*
X002766Y026560D01*
X002795Y026669D01*
X002807Y026757D01*
X002030Y026757D01*
X002030Y026917D01*
X002807Y026917D01*
X002795Y027005D01*
X002766Y027114D01*
X002723Y027218D01*
X002666Y027316D01*
X002598Y027406D01*
X002518Y027485D01*
X002429Y027554D01*
X002331Y027610D01*
X002227Y027653D01*
X002118Y027683D01*
X002030Y027694D01*
X002030Y026917D01*
X001870Y026917D01*
X001870Y027694D01*
X001781Y027683D01*
X001672Y027653D01*
X001568Y027610D01*
X001471Y027554D01*
X001381Y027485D01*
X001301Y027406D01*
X001233Y027316D01*
X001176Y027218D01*
X001133Y027114D01*
X001104Y027005D01*
X001092Y026917D01*
X001870Y026917D01*
X001870Y026757D01*
X002030Y026757D01*
X002030Y025980D01*
X002118Y025991D01*
X002030Y026005D02*
X001870Y026005D01*
X001870Y025980D02*
X001870Y026757D01*
X001092Y026757D01*
X001104Y026669D01*
X001133Y026560D01*
X001176Y026456D01*
X001233Y026358D01*
X001301Y026269D01*
X001381Y026189D01*
X001471Y026120D01*
X001568Y026064D01*
X001672Y026021D01*
X001781Y025991D01*
X001870Y025980D01*
X001730Y026005D02*
X000780Y026005D01*
X000780Y026164D02*
X001414Y026164D01*
X001260Y026322D02*
X000780Y026322D01*
X000780Y026481D02*
X001166Y026481D01*
X001112Y026639D02*
X000780Y026639D01*
X000780Y026798D02*
X001870Y026798D01*
X001870Y026956D02*
X002030Y026956D01*
X002030Y026798D02*
X004570Y026798D01*
X004570Y026757D02*
X003793Y026757D01*
X003805Y026669D01*
X003834Y026560D01*
X003877Y026456D01*
X003934Y026358D01*
X004002Y026269D01*
X004082Y026189D01*
X004171Y026120D01*
X004269Y026064D01*
X004373Y026021D01*
X004482Y025991D01*
X004570Y025980D01*
X004570Y026757D01*
X004570Y026917D01*
X003793Y026917D01*
X003805Y027005D01*
X003834Y027114D01*
X003877Y027218D01*
X003934Y027316D01*
X004002Y027406D01*
X004082Y027485D01*
X004171Y027554D01*
X004269Y027610D01*
X004373Y027653D01*
X004482Y027683D01*
X004570Y027694D01*
X004570Y026917D01*
X004730Y026917D01*
X004730Y027694D01*
X004819Y027683D01*
X004928Y027653D01*
X005032Y027610D01*
X005129Y027554D01*
X005219Y027485D01*
X005299Y027406D01*
X005367Y027316D01*
X005424Y027218D01*
X005467Y027114D01*
X005496Y027005D01*
X005508Y026917D01*
X004730Y026917D01*
X004730Y026757D01*
X004730Y025980D01*
X004819Y025991D01*
X004928Y026021D01*
X005032Y026064D01*
X005129Y026120D01*
X005219Y026189D01*
X005299Y026269D01*
X005367Y026358D01*
X005424Y026456D01*
X005467Y026560D01*
X005496Y026669D01*
X005508Y026757D01*
X004730Y026757D01*
X004570Y026757D01*
X004570Y026639D02*
X004730Y026639D01*
X004730Y026481D02*
X004570Y026481D01*
X004570Y026322D02*
X004730Y026322D01*
X004730Y026164D02*
X004570Y026164D01*
X004570Y026005D02*
X004730Y026005D01*
X004870Y026005D02*
X008230Y026005D01*
X008281Y025991D02*
X008370Y025980D01*
X008370Y026757D01*
X008530Y026757D01*
X008530Y026917D01*
X009307Y026917D01*
X009295Y027005D01*
X009266Y027114D01*
X009223Y027218D01*
X009166Y027316D01*
X009098Y027406D01*
X009018Y027485D01*
X008929Y027554D01*
X008831Y027610D01*
X008727Y027653D01*
X008618Y027683D01*
X008530Y027694D01*
X008530Y026917D01*
X008370Y026917D01*
X008370Y027694D01*
X008281Y027683D01*
X008172Y027653D01*
X008068Y027610D01*
X007971Y027554D01*
X007881Y027485D01*
X007801Y027406D01*
X007733Y027316D01*
X007676Y027218D01*
X007633Y027114D01*
X007604Y027005D01*
X007592Y026917D01*
X008370Y026917D01*
X008370Y026757D01*
X007592Y026757D01*
X007604Y026669D01*
X007633Y026560D01*
X007676Y026456D01*
X007733Y026358D01*
X007801Y026269D01*
X007881Y026189D01*
X007971Y026120D01*
X008068Y026064D01*
X008172Y026021D01*
X008281Y025991D01*
X008370Y026005D02*
X008530Y026005D01*
X008530Y025980D02*
X008618Y025991D01*
X008727Y026021D01*
X008831Y026064D01*
X008929Y026120D01*
X009018Y026189D01*
X009098Y026269D01*
X009166Y026358D01*
X009223Y026456D01*
X009266Y026560D01*
X009295Y026669D01*
X009307Y026757D01*
X008530Y026757D01*
X008530Y025980D01*
X008669Y026005D02*
X009210Y026005D01*
X009135Y025931D02*
X009016Y025643D01*
X009016Y025331D01*
X009135Y025043D01*
X009356Y024822D01*
X009644Y024703D01*
X009956Y024703D01*
X010244Y024822D01*
X010465Y025043D01*
X010584Y025331D01*
X010584Y025643D01*
X010465Y025931D01*
X010244Y026151D01*
X009956Y026271D01*
X009644Y026271D01*
X009356Y026151D01*
X009135Y025931D01*
X009101Y025847D02*
X003999Y025847D01*
X004065Y025688D02*
X009035Y025688D01*
X009016Y025530D02*
X004084Y025530D01*
X004084Y025371D02*
X009016Y025371D01*
X009065Y025213D02*
X004035Y025213D01*
X003969Y025054D02*
X009131Y025054D01*
X009282Y024896D02*
X008855Y024896D01*
X009065Y024737D02*
X009561Y024737D01*
X009188Y024579D02*
X010412Y024579D01*
X010434Y024615D02*
X010377Y024518D01*
X010334Y024413D01*
X010305Y024304D01*
X010293Y024216D01*
X011070Y024216D01*
X011070Y024993D01*
X010982Y024982D01*
X010873Y024953D01*
X010769Y024910D01*
X010671Y024853D01*
X010582Y024784D01*
X010502Y024705D01*
X010434Y024615D01*
X010535Y024737D02*
X010039Y024737D01*
X010318Y024896D02*
X010745Y024896D01*
X010469Y025054D02*
X015631Y025054D01*
X015635Y025043D02*
X015856Y024822D01*
X016144Y024703D01*
X016456Y024703D01*
X016744Y024822D01*
X016965Y025043D01*
X017084Y025331D01*
X017084Y025643D01*
X016965Y025931D01*
X016744Y026151D01*
X016456Y026271D01*
X016144Y026271D01*
X015856Y026151D01*
X015635Y025931D01*
X015516Y025643D01*
X015516Y025331D01*
X015635Y025043D01*
X015565Y025213D02*
X010535Y025213D01*
X010584Y025371D02*
X015516Y025371D01*
X015516Y025530D02*
X010584Y025530D01*
X010565Y025688D02*
X015535Y025688D01*
X015601Y025847D02*
X010499Y025847D01*
X010390Y026005D02*
X010931Y026005D01*
X010982Y025991D02*
X010873Y026021D01*
X010769Y026064D01*
X010671Y026120D01*
X010582Y026189D01*
X010502Y026269D01*
X010434Y026358D01*
X010377Y026456D01*
X010334Y026560D01*
X010305Y026669D01*
X010293Y026757D01*
X011070Y026757D01*
X011070Y026917D01*
X010293Y026917D01*
X010305Y027005D01*
X010334Y027114D01*
X010377Y027218D01*
X010434Y027316D01*
X010502Y027406D01*
X010582Y027485D01*
X010671Y027554D01*
X010769Y027610D01*
X010873Y027653D01*
X010982Y027683D01*
X011070Y027694D01*
X011070Y026917D01*
X011230Y026917D01*
X011230Y027694D01*
X011319Y027683D01*
X011428Y027653D01*
X011532Y027610D01*
X011629Y027554D01*
X011719Y027485D01*
X011799Y027406D01*
X011867Y027316D01*
X011924Y027218D01*
X011967Y027114D01*
X011996Y027005D01*
X012008Y026917D01*
X011230Y026917D01*
X011230Y026757D01*
X011230Y025980D01*
X011319Y025991D01*
X011428Y026021D01*
X011532Y026064D01*
X011629Y026120D01*
X011719Y026189D01*
X011799Y026269D01*
X011867Y026358D01*
X011924Y026456D01*
X011967Y026560D01*
X011996Y026669D01*
X012008Y026757D01*
X011230Y026757D01*
X011070Y026757D01*
X011070Y025980D01*
X010982Y025991D01*
X011070Y026005D02*
X011230Y026005D01*
X011370Y026005D02*
X014730Y026005D01*
X014781Y025991D02*
X014870Y025980D01*
X014870Y026757D01*
X015030Y026757D01*
X015030Y026917D01*
X015807Y026917D01*
X015795Y027005D01*
X015766Y027114D01*
X015723Y027218D01*
X015666Y027316D01*
X015598Y027406D01*
X015518Y027485D01*
X015429Y027554D01*
X015331Y027610D01*
X015227Y027653D01*
X015118Y027683D01*
X015030Y027694D01*
X015030Y026917D01*
X014870Y026917D01*
X014870Y027694D01*
X014781Y027683D01*
X014672Y027653D01*
X014568Y027610D01*
X014471Y027554D01*
X014381Y027485D01*
X014301Y027406D01*
X014233Y027316D01*
X014176Y027218D01*
X014133Y027114D01*
X014104Y027005D01*
X014092Y026917D01*
X014870Y026917D01*
X014870Y026757D01*
X014092Y026757D01*
X014104Y026669D01*
X014133Y026560D01*
X014176Y026456D01*
X014233Y026358D01*
X014301Y026269D01*
X014381Y026189D01*
X014471Y026120D01*
X014568Y026064D01*
X014672Y026021D01*
X014781Y025991D01*
X014870Y026005D02*
X015030Y026005D01*
X015030Y025980D02*
X015118Y025991D01*
X015227Y026021D01*
X015331Y026064D01*
X015429Y026120D01*
X015518Y026189D01*
X015598Y026269D01*
X015666Y026358D01*
X015723Y026456D01*
X015766Y026560D01*
X015795Y026669D01*
X015807Y026757D01*
X015030Y026757D01*
X015030Y025980D01*
X015169Y026005D02*
X015710Y026005D01*
X015886Y026164D02*
X015485Y026164D01*
X015639Y026322D02*
X016961Y026322D01*
X016934Y026358D02*
X017002Y026269D01*
X017082Y026189D01*
X017171Y026120D01*
X017269Y026064D01*
X017373Y026021D01*
X017482Y025991D01*
X017570Y025980D01*
X017570Y026757D01*
X016793Y026757D01*
X016805Y026669D01*
X016834Y026560D01*
X016877Y026456D01*
X016934Y026358D01*
X016867Y026481D02*
X015733Y026481D01*
X015787Y026639D02*
X016813Y026639D01*
X016793Y026917D02*
X017570Y026917D01*
X017570Y026757D01*
X017730Y026757D01*
X017730Y025980D01*
X017819Y025991D01*
X017928Y026021D01*
X018032Y026064D01*
X018129Y026120D01*
X018219Y026189D01*
X018299Y026269D01*
X018367Y026358D01*
X018424Y026456D01*
X018467Y026560D01*
X018496Y026669D01*
X018508Y026757D01*
X017730Y026757D01*
X017730Y026917D01*
X017570Y026917D01*
X017570Y027694D01*
X017482Y027683D01*
X017373Y027653D01*
X017269Y027610D01*
X017171Y027554D01*
X017082Y027485D01*
X017002Y027406D01*
X016934Y027316D01*
X016877Y027218D01*
X016834Y027114D01*
X016805Y027005D01*
X016793Y026917D01*
X016798Y026956D02*
X015802Y026956D01*
X015766Y027115D02*
X016834Y027115D01*
X016909Y027273D02*
X015691Y027273D01*
X015572Y027432D02*
X017028Y027432D01*
X017234Y027590D02*
X015366Y027590D01*
X015030Y027590D02*
X014870Y027590D01*
X014870Y027432D02*
X015030Y027432D01*
X015030Y027273D02*
X014870Y027273D01*
X014870Y027115D02*
X015030Y027115D01*
X015030Y026956D02*
X014870Y026956D01*
X014870Y026798D02*
X011230Y026798D01*
X011230Y026956D02*
X011070Y026956D01*
X011070Y026798D02*
X008530Y026798D01*
X008530Y026956D02*
X008370Y026956D01*
X008370Y026798D02*
X004730Y026798D01*
X004730Y026956D02*
X004570Y026956D01*
X004570Y027115D02*
X004730Y027115D01*
X004730Y027273D02*
X004570Y027273D01*
X004570Y027432D02*
X004730Y027432D01*
X004730Y027590D02*
X004570Y027590D01*
X004234Y027590D02*
X002366Y027590D01*
X002572Y027432D02*
X004028Y027432D01*
X003909Y027273D02*
X002691Y027273D01*
X002766Y027115D02*
X003834Y027115D01*
X003798Y026956D02*
X002802Y026956D01*
X002787Y026639D02*
X003813Y026639D01*
X003867Y026481D02*
X002733Y026481D01*
X002639Y026322D02*
X003961Y026322D01*
X004115Y026164D02*
X003714Y026164D01*
X003890Y026005D02*
X004431Y026005D01*
X005186Y026164D02*
X007914Y026164D01*
X007760Y026322D02*
X005340Y026322D01*
X005434Y026481D02*
X007666Y026481D01*
X007612Y026639D02*
X005488Y026639D01*
X005502Y026956D02*
X007598Y026956D01*
X007633Y027115D02*
X005467Y027115D01*
X005392Y027273D02*
X007708Y027273D01*
X007828Y027432D02*
X005272Y027432D01*
X005067Y027590D02*
X008033Y027590D01*
X008370Y027590D02*
X008530Y027590D01*
X008530Y027432D02*
X008370Y027432D01*
X008370Y027273D02*
X008530Y027273D01*
X008530Y027115D02*
X008370Y027115D01*
X008370Y026639D02*
X008530Y026639D01*
X008530Y026481D02*
X008370Y026481D01*
X008370Y026322D02*
X008530Y026322D01*
X008530Y026164D02*
X008370Y026164D01*
X008985Y026164D02*
X009386Y026164D01*
X009139Y026322D02*
X010461Y026322D01*
X010367Y026481D02*
X009233Y026481D01*
X009287Y026639D02*
X010313Y026639D01*
X010298Y026956D02*
X009302Y026956D01*
X009266Y027115D02*
X010334Y027115D01*
X010409Y027273D02*
X009191Y027273D01*
X009072Y027432D02*
X010528Y027432D01*
X010734Y027590D02*
X008866Y027590D01*
X010214Y026164D02*
X010615Y026164D01*
X011070Y026164D02*
X011230Y026164D01*
X011230Y026322D02*
X011070Y026322D01*
X011070Y026481D02*
X011230Y026481D01*
X011230Y026639D02*
X011070Y026639D01*
X011070Y027115D02*
X011230Y027115D01*
X011230Y027273D02*
X011070Y027273D01*
X011070Y027432D02*
X011230Y027432D01*
X011230Y027590D02*
X011070Y027590D01*
X011567Y027590D02*
X014533Y027590D01*
X014328Y027432D02*
X011772Y027432D01*
X011892Y027273D02*
X014208Y027273D01*
X014133Y027115D02*
X011967Y027115D01*
X012002Y026956D02*
X014098Y026956D01*
X014112Y026639D02*
X011988Y026639D01*
X011934Y026481D02*
X014166Y026481D01*
X014260Y026322D02*
X011840Y026322D01*
X011686Y026164D02*
X014414Y026164D01*
X014870Y026164D02*
X015030Y026164D01*
X015030Y026322D02*
X014870Y026322D01*
X014870Y026481D02*
X015030Y026481D01*
X015030Y026639D02*
X014870Y026639D01*
X015030Y026798D02*
X017570Y026798D01*
X017570Y026956D02*
X017730Y026956D01*
X017730Y026917D02*
X017730Y027694D01*
X017819Y027683D01*
X017928Y027653D01*
X018032Y027610D01*
X018129Y027554D01*
X018219Y027485D01*
X018299Y027406D01*
X018367Y027316D01*
X018424Y027218D01*
X018467Y027114D01*
X018496Y027005D01*
X018508Y026917D01*
X017730Y026917D01*
X017730Y026798D02*
X021370Y026798D01*
X021370Y026757D02*
X020592Y026757D01*
X020604Y026669D01*
X020633Y026560D01*
X020676Y026456D01*
X020733Y026358D01*
X020801Y026269D01*
X020881Y026189D01*
X020971Y026120D01*
X021068Y026064D01*
X021172Y026021D01*
X021281Y025991D01*
X021370Y025980D01*
X021370Y026757D01*
X021530Y026757D01*
X021530Y026917D01*
X022307Y026917D01*
X022295Y027005D01*
X022266Y027114D01*
X022223Y027218D01*
X022166Y027316D01*
X022098Y027406D01*
X022018Y027485D01*
X021929Y027554D01*
X021831Y027610D01*
X021727Y027653D01*
X021618Y027683D01*
X021530Y027694D01*
X021530Y026917D01*
X021370Y026917D01*
X021370Y027694D01*
X021281Y027683D01*
X021172Y027653D01*
X021068Y027610D01*
X020971Y027554D01*
X020881Y027485D01*
X020801Y027406D01*
X020733Y027316D01*
X020676Y027218D01*
X020633Y027114D01*
X020604Y027005D01*
X020592Y026917D01*
X021370Y026917D01*
X021370Y026757D01*
X021370Y026639D02*
X021530Y026639D01*
X021530Y026757D02*
X021530Y025980D01*
X021618Y025991D01*
X021727Y026021D01*
X021831Y026064D01*
X021929Y026120D01*
X022018Y026189D01*
X022098Y026269D01*
X022166Y026358D01*
X022223Y026456D01*
X022266Y026560D01*
X022295Y026669D01*
X022307Y026757D01*
X021530Y026757D01*
X021530Y026798D02*
X024070Y026798D01*
X024070Y026757D02*
X023293Y026757D01*
X023305Y026669D01*
X023334Y026560D01*
X023377Y026456D01*
X023434Y026358D01*
X023502Y026269D01*
X023582Y026189D01*
X023671Y026120D01*
X023769Y026064D01*
X023873Y026021D01*
X023982Y025991D01*
X024070Y025980D01*
X024070Y026757D01*
X024070Y026917D01*
X023293Y026917D01*
X023305Y027005D01*
X023334Y027114D01*
X023377Y027218D01*
X023434Y027316D01*
X023502Y027406D01*
X023582Y027485D01*
X023671Y027554D01*
X023769Y027610D01*
X023873Y027653D01*
X023982Y027683D01*
X024070Y027694D01*
X024070Y026917D01*
X024230Y026917D01*
X024230Y027694D01*
X024319Y027683D01*
X024428Y027653D01*
X024532Y027610D01*
X024629Y027554D01*
X024719Y027485D01*
X024799Y027406D01*
X024867Y027316D01*
X024924Y027218D01*
X024967Y027114D01*
X024996Y027005D01*
X025008Y026917D01*
X024230Y026917D01*
X024230Y026757D01*
X024230Y025980D01*
X024319Y025991D01*
X024428Y026021D01*
X024532Y026064D01*
X024629Y026120D01*
X024719Y026189D01*
X024799Y026269D01*
X024867Y026358D01*
X024924Y026456D01*
X024967Y026560D01*
X024996Y026669D01*
X025008Y026757D01*
X024230Y026757D01*
X024070Y026757D01*
X024070Y026639D02*
X024230Y026639D01*
X024230Y026481D02*
X024070Y026481D01*
X024070Y026322D02*
X024230Y026322D01*
X024230Y026164D02*
X024070Y026164D01*
X024070Y026005D02*
X024230Y026005D01*
X024370Y026005D02*
X027730Y026005D01*
X027781Y025991D02*
X027870Y025980D01*
X027870Y026757D01*
X028030Y026757D01*
X028030Y026917D01*
X028807Y026917D01*
X028795Y027005D01*
X028766Y027114D01*
X028723Y027218D01*
X028666Y027316D01*
X028598Y027406D01*
X028518Y027485D01*
X028429Y027554D01*
X028331Y027610D01*
X028227Y027653D01*
X028118Y027683D01*
X028030Y027694D01*
X028030Y026917D01*
X027870Y026917D01*
X027870Y027694D01*
X027781Y027683D01*
X027672Y027653D01*
X027568Y027610D01*
X027471Y027554D01*
X027381Y027485D01*
X027301Y027406D01*
X027233Y027316D01*
X027176Y027218D01*
X027133Y027114D01*
X027104Y027005D01*
X027092Y026917D01*
X027870Y026917D01*
X027870Y026757D01*
X027092Y026757D01*
X027104Y026669D01*
X027133Y026560D01*
X027176Y026456D01*
X027233Y026358D01*
X027301Y026269D01*
X027381Y026189D01*
X027471Y026120D01*
X027568Y026064D01*
X027672Y026021D01*
X027781Y025991D01*
X027870Y026005D02*
X028030Y026005D01*
X028030Y025980D02*
X028118Y025991D01*
X028227Y026021D01*
X028331Y026064D01*
X028429Y026120D01*
X028518Y026189D01*
X028598Y026269D01*
X028666Y026358D01*
X028723Y026456D01*
X028766Y026560D01*
X028795Y026669D01*
X028807Y026757D01*
X028030Y026757D01*
X028030Y025980D01*
X028169Y026005D02*
X028710Y026005D01*
X028635Y025931D02*
X028516Y025643D01*
X028516Y025331D01*
X028635Y025043D01*
X028856Y024822D01*
X029144Y024703D01*
X029456Y024703D01*
X029744Y024822D01*
X029965Y025043D01*
X030084Y025331D01*
X030084Y025643D01*
X029965Y025931D01*
X029744Y026151D01*
X029456Y026271D01*
X029144Y026271D01*
X028856Y026151D01*
X028635Y025931D01*
X028601Y025847D02*
X023499Y025847D01*
X023465Y025931D02*
X023244Y026151D01*
X022956Y026271D01*
X022644Y026271D01*
X022356Y026151D01*
X022135Y025931D01*
X022016Y025643D01*
X022016Y025331D01*
X022135Y025043D01*
X022356Y024822D01*
X022644Y024703D01*
X022956Y024703D01*
X023244Y024822D01*
X023465Y025043D01*
X023584Y025331D01*
X023584Y025643D01*
X023465Y025931D01*
X023390Y026005D02*
X023931Y026005D01*
X023615Y026164D02*
X023214Y026164D01*
X023461Y026322D02*
X022139Y026322D01*
X022233Y026481D02*
X023367Y026481D01*
X023313Y026639D02*
X022287Y026639D01*
X022302Y026956D02*
X023298Y026956D01*
X023334Y027115D02*
X022266Y027115D01*
X022191Y027273D02*
X023409Y027273D01*
X023528Y027432D02*
X022072Y027432D01*
X021866Y027590D02*
X023734Y027590D01*
X024070Y027590D02*
X024230Y027590D01*
X024230Y027432D02*
X024070Y027432D01*
X024070Y027273D02*
X024230Y027273D01*
X024230Y027115D02*
X024070Y027115D01*
X024070Y026956D02*
X024230Y026956D01*
X024230Y026798D02*
X027870Y026798D01*
X027870Y026956D02*
X028030Y026956D01*
X028030Y026798D02*
X030570Y026798D01*
X030570Y026757D02*
X029793Y026757D01*
X029805Y026669D01*
X029834Y026560D01*
X029877Y026456D01*
X029934Y026358D01*
X030002Y026269D01*
X030082Y026189D01*
X030171Y026120D01*
X030269Y026064D01*
X030373Y026021D01*
X030482Y025991D01*
X030570Y025980D01*
X030570Y026757D01*
X030570Y026917D01*
X029793Y026917D01*
X029805Y027005D01*
X029834Y027114D01*
X029877Y027218D01*
X029934Y027316D01*
X030002Y027406D01*
X030082Y027485D01*
X030171Y027554D01*
X030269Y027610D01*
X030373Y027653D01*
X030482Y027683D01*
X030570Y027694D01*
X030570Y026917D01*
X030730Y026917D01*
X030730Y027694D01*
X030819Y027683D01*
X030928Y027653D01*
X031032Y027610D01*
X031129Y027554D01*
X031219Y027485D01*
X031299Y027406D01*
X031367Y027316D01*
X031424Y027218D01*
X031467Y027114D01*
X031496Y027005D01*
X031508Y026917D01*
X030730Y026917D01*
X030730Y026757D01*
X030730Y025980D01*
X030819Y025991D01*
X030928Y026021D01*
X031032Y026064D01*
X031129Y026120D01*
X031219Y026189D01*
X031299Y026269D01*
X031367Y026358D01*
X031424Y026456D01*
X031467Y026560D01*
X031496Y026669D01*
X031508Y026757D01*
X030730Y026757D01*
X030570Y026757D01*
X030570Y026639D02*
X030730Y026639D01*
X030730Y026481D02*
X030570Y026481D01*
X030570Y026322D02*
X030730Y026322D01*
X030730Y026164D02*
X030570Y026164D01*
X030570Y026005D02*
X030730Y026005D01*
X030870Y026005D02*
X035230Y026005D01*
X035281Y025991D02*
X035370Y025980D01*
X035370Y026757D01*
X035530Y026757D01*
X035530Y026917D01*
X036307Y026917D01*
X036295Y027005D01*
X036266Y027114D01*
X036223Y027218D01*
X036166Y027316D01*
X036098Y027406D01*
X036018Y027485D01*
X035929Y027554D01*
X035831Y027610D01*
X035727Y027653D01*
X035618Y027683D01*
X035530Y027694D01*
X035530Y026917D01*
X035370Y026917D01*
X035370Y027694D01*
X035281Y027683D01*
X035172Y027653D01*
X035068Y027610D01*
X034971Y027554D01*
X034881Y027485D01*
X034801Y027406D01*
X034733Y027316D01*
X034676Y027218D01*
X034633Y027114D01*
X034604Y027005D01*
X034592Y026917D01*
X035370Y026917D01*
X035370Y026757D01*
X034592Y026757D01*
X034604Y026669D01*
X034633Y026560D01*
X034676Y026456D01*
X034733Y026358D01*
X034801Y026269D01*
X034881Y026189D01*
X034971Y026120D01*
X035068Y026064D01*
X035172Y026021D01*
X035281Y025991D01*
X035370Y026005D02*
X035530Y026005D01*
X035530Y025980D02*
X035618Y025991D01*
X035727Y026021D01*
X035831Y026064D01*
X035929Y026120D01*
X036018Y026189D01*
X036098Y026269D01*
X036166Y026358D01*
X036223Y026456D01*
X036266Y026560D01*
X036295Y026669D01*
X036307Y026757D01*
X035530Y026757D01*
X035530Y025980D01*
X035669Y026005D02*
X036210Y026005D01*
X036135Y025931D02*
X036356Y026151D01*
X036644Y026271D01*
X036956Y026271D01*
X037244Y026151D01*
X037465Y025931D01*
X037584Y025643D01*
X037584Y025331D01*
X037465Y025043D01*
X037244Y024822D01*
X036956Y024703D01*
X036644Y024703D01*
X036356Y024822D01*
X036135Y025043D01*
X036016Y025331D01*
X036016Y025643D01*
X036135Y025931D01*
X036101Y025847D02*
X029999Y025847D01*
X030065Y025688D02*
X036035Y025688D01*
X036016Y025530D02*
X030084Y025530D01*
X030084Y025371D02*
X036016Y025371D01*
X036065Y025213D02*
X030035Y025213D01*
X029969Y025054D02*
X036131Y025054D01*
X036282Y024896D02*
X035855Y024896D01*
X036065Y024737D02*
X036561Y024737D01*
X036188Y024579D02*
X037412Y024579D01*
X037434Y024615D02*
X037377Y024518D01*
X037334Y024413D01*
X037305Y024304D01*
X037293Y024216D01*
X038070Y024216D01*
X038070Y024993D01*
X037982Y024982D01*
X037873Y024953D01*
X037769Y024910D01*
X037671Y024853D01*
X037582Y024784D01*
X037502Y024705D01*
X037434Y024615D01*
X037535Y024737D02*
X037039Y024737D01*
X037318Y024896D02*
X037745Y024896D01*
X037469Y025054D02*
X039820Y025054D01*
X039820Y024896D02*
X038556Y024896D01*
X038532Y024910D02*
X038428Y024953D01*
X038319Y024982D01*
X038230Y024993D01*
X038230Y024216D01*
X039008Y024216D01*
X038996Y024304D01*
X038967Y024413D01*
X038924Y024518D01*
X038867Y024615D01*
X038799Y024705D01*
X038719Y024784D01*
X038629Y024853D01*
X038532Y024910D01*
X038766Y024737D02*
X039820Y024737D01*
X039820Y024579D02*
X038888Y024579D01*
X038964Y024420D02*
X039820Y024420D01*
X039820Y024262D02*
X039002Y024262D01*
X038230Y024262D02*
X038070Y024262D01*
X038070Y024420D02*
X038230Y024420D01*
X038230Y024579D02*
X038070Y024579D01*
X038070Y024737D02*
X038230Y024737D01*
X038230Y024896D02*
X038070Y024896D01*
X037535Y025213D02*
X039820Y025213D01*
X039820Y025371D02*
X037584Y025371D01*
X037584Y025530D02*
X039820Y025530D01*
X039820Y025688D02*
X037565Y025688D01*
X037499Y025847D02*
X039820Y025847D01*
X039820Y026005D02*
X038370Y026005D01*
X038319Y025991D02*
X038428Y026021D01*
X038532Y026064D01*
X038629Y026120D01*
X038719Y026189D01*
X038799Y026269D01*
X038867Y026358D01*
X038924Y026456D01*
X038967Y026560D01*
X038996Y026669D01*
X039008Y026757D01*
X038230Y026757D01*
X038230Y025980D01*
X038319Y025991D01*
X038230Y026005D02*
X038070Y026005D01*
X038070Y025980D02*
X038070Y026757D01*
X037293Y026757D01*
X037305Y026669D01*
X037334Y026560D01*
X037377Y026456D01*
X037434Y026358D01*
X037502Y026269D01*
X037582Y026189D01*
X037671Y026120D01*
X037769Y026064D01*
X037873Y026021D01*
X037982Y025991D01*
X038070Y025980D01*
X037931Y026005D02*
X037390Y026005D01*
X037214Y026164D02*
X037615Y026164D01*
X037461Y026322D02*
X036139Y026322D01*
X036233Y026481D02*
X037367Y026481D01*
X037313Y026639D02*
X036287Y026639D01*
X036302Y026956D02*
X037298Y026956D01*
X037293Y026917D02*
X038070Y026917D01*
X038070Y026757D01*
X038230Y026757D01*
X038230Y026917D01*
X038070Y026917D01*
X038070Y027694D01*
X037982Y027683D01*
X037873Y027653D01*
X037769Y027610D01*
X037671Y027554D01*
X037582Y027485D01*
X037502Y027406D01*
X037434Y027316D01*
X037377Y027218D01*
X037334Y027114D01*
X037305Y027005D01*
X037293Y026917D01*
X037334Y027115D02*
X036266Y027115D01*
X036191Y027273D02*
X037409Y027273D01*
X037528Y027432D02*
X036072Y027432D01*
X035866Y027590D02*
X037734Y027590D01*
X038070Y027590D02*
X038230Y027590D01*
X038230Y027694D02*
X038319Y027683D01*
X038428Y027653D01*
X038532Y027610D01*
X038629Y027554D01*
X038719Y027485D01*
X038799Y027406D01*
X038867Y027316D01*
X038924Y027218D01*
X038967Y027114D01*
X038996Y027005D01*
X039008Y026917D01*
X038230Y026917D01*
X038230Y027694D01*
X038230Y027432D02*
X038070Y027432D01*
X038070Y027273D02*
X038230Y027273D01*
X038230Y027115D02*
X038070Y027115D01*
X038070Y026956D02*
X038230Y026956D01*
X038230Y026798D02*
X039820Y026798D01*
X039820Y026956D02*
X039002Y026956D01*
X038967Y027115D02*
X039820Y027115D01*
X039820Y027273D02*
X038892Y027273D01*
X038772Y027432D02*
X039820Y027432D01*
X039820Y027590D02*
X038567Y027590D01*
X038964Y028224D02*
X001636Y028224D01*
X001874Y028383D02*
X038726Y028383D01*
X038583Y028541D02*
X002017Y028541D01*
X002083Y028700D02*
X038517Y028700D01*
X038467Y028858D02*
X002133Y028858D01*
X002133Y029017D02*
X038467Y029017D01*
X038476Y029175D02*
X002124Y029175D01*
X002058Y029334D02*
X038542Y029334D01*
X038627Y029492D02*
X001973Y029492D01*
X000964Y028224D02*
X000780Y028224D01*
X000780Y028066D02*
X039820Y028066D01*
X039820Y028224D02*
X039636Y028224D01*
X039820Y027907D02*
X000780Y027907D01*
X000780Y027749D02*
X039820Y027749D01*
X039820Y026639D02*
X038988Y026639D01*
X038934Y026481D02*
X039820Y026481D01*
X039820Y026322D02*
X038840Y026322D01*
X038686Y026164D02*
X039820Y026164D01*
X038230Y026164D02*
X038070Y026164D01*
X038070Y026322D02*
X038230Y026322D01*
X038230Y026481D02*
X038070Y026481D01*
X038070Y026639D02*
X038230Y026639D01*
X038070Y026798D02*
X035530Y026798D01*
X035530Y026956D02*
X035370Y026956D01*
X035370Y026798D02*
X030730Y026798D01*
X030730Y026956D02*
X030570Y026956D01*
X030570Y027115D02*
X030730Y027115D01*
X030730Y027273D02*
X030570Y027273D01*
X030570Y027432D02*
X030730Y027432D01*
X030730Y027590D02*
X030570Y027590D01*
X030234Y027590D02*
X028366Y027590D01*
X028572Y027432D02*
X030028Y027432D01*
X029909Y027273D02*
X028691Y027273D01*
X028766Y027115D02*
X029834Y027115D01*
X029798Y026956D02*
X028802Y026956D01*
X028787Y026639D02*
X029813Y026639D01*
X029867Y026481D02*
X028733Y026481D01*
X028639Y026322D02*
X029961Y026322D01*
X030115Y026164D02*
X029714Y026164D01*
X029890Y026005D02*
X030431Y026005D01*
X031186Y026164D02*
X034914Y026164D01*
X034760Y026322D02*
X031340Y026322D01*
X031434Y026481D02*
X034666Y026481D01*
X034612Y026639D02*
X031488Y026639D01*
X031502Y026956D02*
X034598Y026956D01*
X034633Y027115D02*
X031467Y027115D01*
X031392Y027273D02*
X034708Y027273D01*
X034828Y027432D02*
X031272Y027432D01*
X031067Y027590D02*
X035033Y027590D01*
X035370Y027590D02*
X035530Y027590D01*
X035530Y027432D02*
X035370Y027432D01*
X035370Y027273D02*
X035530Y027273D01*
X035530Y027115D02*
X035370Y027115D01*
X035370Y026639D02*
X035530Y026639D01*
X035530Y026481D02*
X035370Y026481D01*
X035370Y026322D02*
X035530Y026322D01*
X035530Y026164D02*
X035370Y026164D01*
X035985Y026164D02*
X036386Y026164D01*
X035530Y024896D02*
X035370Y024896D01*
X035370Y024993D02*
X035281Y024982D01*
X035172Y024953D01*
X035068Y024910D01*
X034971Y024853D01*
X034881Y024784D01*
X034801Y024705D01*
X034733Y024615D01*
X034676Y024518D01*
X034633Y024413D01*
X034604Y024304D01*
X034592Y024216D01*
X035370Y024216D01*
X035370Y024993D01*
X035370Y024737D02*
X035530Y024737D01*
X035530Y024579D02*
X035370Y024579D01*
X035370Y024420D02*
X035530Y024420D01*
X035530Y024262D02*
X035370Y024262D01*
X035370Y023786D02*
X035530Y023786D01*
X035530Y023628D02*
X035370Y023628D01*
X035370Y023469D02*
X035530Y023469D01*
X035993Y023469D02*
X037607Y023469D01*
X037456Y023628D02*
X036144Y023628D01*
X036236Y023786D02*
X037364Y023786D01*
X037311Y023945D02*
X036289Y023945D01*
X036301Y024262D02*
X037299Y024262D01*
X037337Y024420D02*
X036263Y024420D01*
X035044Y024896D02*
X031056Y024896D01*
X031032Y024910D02*
X030928Y024953D01*
X030819Y024982D01*
X030730Y024993D01*
X030730Y024216D01*
X031508Y024216D01*
X031496Y024304D01*
X031467Y024413D01*
X031424Y024518D01*
X031367Y024615D01*
X031299Y024705D01*
X031219Y024784D01*
X031129Y024853D01*
X031032Y024910D01*
X031266Y024737D02*
X034834Y024737D01*
X034712Y024579D02*
X031388Y024579D01*
X031464Y024420D02*
X034636Y024420D01*
X034598Y024262D02*
X031502Y024262D01*
X031490Y023945D02*
X034610Y023945D01*
X034663Y023786D02*
X031437Y023786D01*
X031345Y023628D02*
X034755Y023628D01*
X034906Y023469D02*
X031194Y023469D01*
X030730Y023469D02*
X030570Y023469D01*
X030570Y023628D02*
X030730Y023628D01*
X030730Y023786D02*
X030570Y023786D01*
X030107Y023469D02*
X028493Y023469D01*
X028644Y023628D02*
X029956Y023628D01*
X029864Y023786D02*
X028736Y023786D01*
X028789Y023945D02*
X029811Y023945D01*
X029793Y024216D02*
X030570Y024216D01*
X030570Y024993D01*
X030482Y024982D01*
X030373Y024953D01*
X030269Y024910D01*
X030171Y024853D01*
X030082Y024784D01*
X030002Y024705D01*
X029934Y024615D01*
X029877Y024518D01*
X029834Y024413D01*
X029805Y024304D01*
X029793Y024216D01*
X029799Y024262D02*
X028801Y024262D01*
X028763Y024420D02*
X029837Y024420D01*
X029912Y024579D02*
X028688Y024579D01*
X028565Y024737D02*
X029061Y024737D01*
X028782Y024896D02*
X028355Y024896D01*
X028631Y025054D02*
X023469Y025054D01*
X023535Y025213D02*
X028565Y025213D01*
X028516Y025371D02*
X023584Y025371D01*
X023584Y025530D02*
X028516Y025530D01*
X028535Y025688D02*
X023565Y025688D01*
X024686Y026164D02*
X027414Y026164D01*
X027260Y026322D02*
X024840Y026322D01*
X024934Y026481D02*
X027166Y026481D01*
X027112Y026639D02*
X024988Y026639D01*
X025002Y026956D02*
X027098Y026956D01*
X027133Y027115D02*
X024967Y027115D01*
X024892Y027273D02*
X027208Y027273D01*
X027328Y027432D02*
X024772Y027432D01*
X024567Y027590D02*
X027533Y027590D01*
X027870Y027590D02*
X028030Y027590D01*
X028030Y027432D02*
X027870Y027432D01*
X027870Y027273D02*
X028030Y027273D01*
X028030Y027115D02*
X027870Y027115D01*
X027870Y026639D02*
X028030Y026639D01*
X028030Y026481D02*
X027870Y026481D01*
X027870Y026322D02*
X028030Y026322D01*
X028030Y026164D02*
X027870Y026164D01*
X028485Y026164D02*
X028886Y026164D01*
X028030Y024896D02*
X027870Y024896D01*
X027870Y024993D02*
X027781Y024982D01*
X027672Y024953D01*
X027568Y024910D01*
X027471Y024853D01*
X027381Y024784D01*
X027301Y024705D01*
X027233Y024615D01*
X027176Y024518D01*
X027133Y024413D01*
X027104Y024304D01*
X027092Y024216D01*
X027870Y024216D01*
X027870Y024993D01*
X027870Y024737D02*
X028030Y024737D01*
X028030Y024579D02*
X027870Y024579D01*
X027870Y024420D02*
X028030Y024420D01*
X028030Y024262D02*
X027870Y024262D01*
X027212Y024579D02*
X024888Y024579D01*
X024867Y024615D02*
X024799Y024705D01*
X024719Y024784D01*
X024629Y024853D01*
X024532Y024910D01*
X024428Y024953D01*
X024319Y024982D01*
X024230Y024993D01*
X024230Y024216D01*
X025008Y024216D01*
X024996Y024304D01*
X024967Y024413D01*
X024924Y024518D01*
X024867Y024615D01*
X024766Y024737D02*
X027334Y024737D01*
X027544Y024896D02*
X024556Y024896D01*
X024230Y024896D02*
X024070Y024896D01*
X024070Y024993D02*
X023982Y024982D01*
X023873Y024953D01*
X023769Y024910D01*
X023671Y024853D01*
X023582Y024784D01*
X023502Y024705D01*
X023434Y024615D01*
X023377Y024518D01*
X023334Y024413D01*
X023305Y024304D01*
X023293Y024216D01*
X024070Y024216D01*
X024070Y024993D01*
X024070Y024737D02*
X024230Y024737D01*
X024230Y024579D02*
X024070Y024579D01*
X024070Y024420D02*
X024230Y024420D01*
X024230Y024262D02*
X024070Y024262D01*
X024070Y023786D02*
X024230Y023786D01*
X024230Y023628D02*
X024070Y023628D01*
X024070Y023469D02*
X024230Y023469D01*
X024694Y023469D02*
X027406Y023469D01*
X027255Y023628D02*
X024845Y023628D01*
X024937Y023786D02*
X027163Y023786D01*
X027110Y023945D02*
X024990Y023945D01*
X025002Y024262D02*
X027098Y024262D01*
X027136Y024420D02*
X024964Y024420D01*
X023745Y024896D02*
X023318Y024896D01*
X023535Y024737D02*
X023039Y024737D01*
X023412Y024579D02*
X022188Y024579D01*
X022263Y024420D02*
X023337Y024420D01*
X023299Y024262D02*
X022301Y024262D01*
X022289Y023945D02*
X023311Y023945D01*
X023364Y023786D02*
X022236Y023786D01*
X022144Y023628D02*
X023456Y023628D01*
X023607Y023469D02*
X021993Y023469D01*
X021530Y023469D02*
X021370Y023469D01*
X021370Y023628D02*
X021530Y023628D01*
X021530Y023786D02*
X021370Y023786D01*
X020906Y023469D02*
X018194Y023469D01*
X018345Y023628D02*
X020755Y023628D01*
X020663Y023786D02*
X018437Y023786D01*
X018490Y023945D02*
X020610Y023945D01*
X020592Y024216D02*
X021370Y024216D01*
X021370Y024993D01*
X021281Y024982D01*
X021172Y024953D01*
X021068Y024910D01*
X020971Y024853D01*
X020881Y024784D01*
X020801Y024705D01*
X020733Y024615D01*
X020676Y024518D01*
X020633Y024413D01*
X020604Y024304D01*
X020592Y024216D01*
X020598Y024262D02*
X018502Y024262D01*
X018496Y024304D02*
X018467Y024413D01*
X018424Y024518D01*
X018367Y024615D01*
X018299Y024705D01*
X018219Y024784D01*
X018129Y024853D01*
X018032Y024910D01*
X017928Y024953D01*
X017819Y024982D01*
X017730Y024993D01*
X017730Y024216D01*
X018508Y024216D01*
X018496Y024304D01*
X018464Y024420D02*
X020636Y024420D01*
X020712Y024579D02*
X018388Y024579D01*
X018266Y024737D02*
X020834Y024737D01*
X021044Y024896D02*
X018056Y024896D01*
X017730Y024896D02*
X017570Y024896D01*
X017570Y024993D02*
X017482Y024982D01*
X017373Y024953D01*
X017269Y024910D01*
X017171Y024853D01*
X017082Y024784D01*
X017002Y024705D01*
X016934Y024615D01*
X016877Y024518D01*
X016834Y024413D01*
X016805Y024304D01*
X016793Y024216D01*
X017570Y024216D01*
X017570Y024993D01*
X017570Y024737D02*
X017730Y024737D01*
X017730Y024579D02*
X017570Y024579D01*
X017570Y024420D02*
X017730Y024420D01*
X017730Y024262D02*
X017570Y024262D01*
X017570Y023786D02*
X017730Y023786D01*
X017730Y023628D02*
X017570Y023628D01*
X017570Y023469D02*
X017730Y023469D01*
X017107Y023469D02*
X015493Y023469D01*
X015644Y023628D02*
X016956Y023628D01*
X016864Y023786D02*
X015736Y023786D01*
X015789Y023945D02*
X016811Y023945D01*
X016799Y024262D02*
X015801Y024262D01*
X015763Y024420D02*
X016837Y024420D01*
X016912Y024579D02*
X015688Y024579D01*
X015565Y024737D02*
X016061Y024737D01*
X015782Y024896D02*
X015355Y024896D01*
X015030Y024896D02*
X014870Y024896D01*
X014870Y024993D02*
X014781Y024982D01*
X014672Y024953D01*
X014568Y024910D01*
X014471Y024853D01*
X014381Y024784D01*
X014301Y024705D01*
X014233Y024615D01*
X014176Y024518D01*
X014133Y024413D01*
X014104Y024304D01*
X014092Y024216D01*
X014870Y024216D01*
X014870Y024993D01*
X014870Y024737D02*
X015030Y024737D01*
X015030Y024579D02*
X014870Y024579D01*
X014870Y024420D02*
X015030Y024420D01*
X015030Y024262D02*
X014870Y024262D01*
X014212Y024579D02*
X011888Y024579D01*
X011867Y024615D02*
X011799Y024705D01*
X011719Y024784D01*
X011629Y024853D01*
X011532Y024910D01*
X011428Y024953D01*
X011319Y024982D01*
X011230Y024993D01*
X011230Y024216D01*
X012008Y024216D01*
X011996Y024304D01*
X011967Y024413D01*
X011924Y024518D01*
X011867Y024615D01*
X011766Y024737D02*
X014334Y024737D01*
X014544Y024896D02*
X011556Y024896D01*
X011230Y024896D02*
X011070Y024896D01*
X011070Y024737D02*
X011230Y024737D01*
X011230Y024579D02*
X011070Y024579D01*
X011070Y024420D02*
X011230Y024420D01*
X011230Y024262D02*
X011070Y024262D01*
X011070Y023786D02*
X011230Y023786D01*
X011230Y023628D02*
X011070Y023628D01*
X011070Y023469D02*
X011230Y023469D01*
X011694Y023469D02*
X014406Y023469D01*
X014255Y023628D02*
X011845Y023628D01*
X011937Y023786D02*
X014163Y023786D01*
X014110Y023945D02*
X011990Y023945D01*
X012002Y024262D02*
X014098Y024262D01*
X014136Y024420D02*
X011964Y024420D01*
X010607Y023469D02*
X008993Y023469D01*
X009144Y023628D02*
X010456Y023628D01*
X010364Y023786D02*
X009236Y023786D01*
X009289Y023945D02*
X010311Y023945D01*
X010299Y024262D02*
X009301Y024262D01*
X009263Y024420D02*
X010337Y024420D01*
X008530Y024420D02*
X008370Y024420D01*
X008370Y024262D02*
X008530Y024262D01*
X008370Y024216D02*
X008370Y024993D01*
X008281Y024982D01*
X008172Y024953D01*
X008068Y024910D01*
X007971Y024853D01*
X007881Y024784D01*
X007801Y024705D01*
X007733Y024615D01*
X007676Y024518D01*
X007633Y024413D01*
X007604Y024304D01*
X007592Y024216D01*
X008370Y024216D01*
X008370Y024579D02*
X008530Y024579D01*
X008530Y024737D02*
X008370Y024737D01*
X008370Y024896D02*
X008530Y024896D01*
X008044Y024896D02*
X005056Y024896D01*
X005032Y024910D02*
X004928Y024953D01*
X004819Y024982D01*
X004730Y024993D01*
X004730Y024216D01*
X005508Y024216D01*
X005496Y024304D01*
X005467Y024413D01*
X005424Y024518D01*
X005367Y024615D01*
X005299Y024705D01*
X005219Y024784D01*
X005129Y024853D01*
X005032Y024910D01*
X005266Y024737D02*
X007834Y024737D01*
X007712Y024579D02*
X005388Y024579D01*
X005464Y024420D02*
X007636Y024420D01*
X007598Y024262D02*
X005502Y024262D01*
X005490Y023945D02*
X007610Y023945D01*
X007663Y023786D02*
X005437Y023786D01*
X005345Y023628D02*
X007755Y023628D01*
X007906Y023469D02*
X005194Y023469D01*
X004730Y023469D02*
X004570Y023469D01*
X004570Y023628D02*
X004730Y023628D01*
X004730Y023786D02*
X004570Y023786D01*
X004107Y023469D02*
X002493Y023469D01*
X002644Y023628D02*
X003956Y023628D01*
X003864Y023786D02*
X002736Y023786D01*
X002789Y023945D02*
X003811Y023945D01*
X003799Y024262D02*
X002801Y024262D01*
X002763Y024420D02*
X003837Y024420D01*
X003818Y024896D02*
X004245Y024896D01*
X004570Y024896D02*
X004730Y024896D01*
X004730Y024737D02*
X004570Y024737D01*
X004570Y024579D02*
X004730Y024579D01*
X004730Y024420D02*
X004570Y024420D01*
X004570Y024262D02*
X004730Y024262D01*
X002886Y026164D02*
X002485Y026164D01*
X002030Y026164D02*
X001870Y026164D01*
X001870Y026322D02*
X002030Y026322D01*
X002030Y026481D02*
X001870Y026481D01*
X001870Y026639D02*
X002030Y026639D01*
X002030Y027115D02*
X001870Y027115D01*
X001870Y027273D02*
X002030Y027273D01*
X002030Y027432D02*
X001870Y027432D01*
X001870Y027590D02*
X002030Y027590D01*
X001533Y027590D02*
X000780Y027590D01*
X000780Y027432D02*
X001328Y027432D01*
X001208Y027273D02*
X000780Y027273D01*
X000780Y027115D02*
X001133Y027115D01*
X001098Y026956D02*
X000780Y026956D01*
X001870Y023786D02*
X002030Y023786D01*
X002030Y023628D02*
X001870Y023628D01*
X001870Y023469D02*
X002030Y023469D01*
X008370Y023469D02*
X008530Y023469D01*
X008530Y023628D02*
X008370Y023628D01*
X008370Y023786D02*
X008530Y023786D01*
X011230Y021194D02*
X011319Y021183D01*
X011428Y021153D01*
X011532Y021110D01*
X011629Y021054D01*
X011719Y020985D01*
X011799Y020906D01*
X011867Y020816D01*
X011924Y020718D01*
X011967Y020614D01*
X011996Y020505D01*
X012008Y020417D01*
X011230Y020417D01*
X011230Y021194D01*
X011230Y021092D02*
X011070Y021092D01*
X011070Y020933D02*
X011230Y020933D01*
X011230Y020775D02*
X011070Y020775D01*
X011070Y020616D02*
X011230Y020616D01*
X011230Y020458D02*
X011070Y020458D01*
X011070Y019982D02*
X011230Y019982D01*
X011230Y019824D02*
X011070Y019824D01*
X011070Y019665D02*
X011230Y019665D01*
X011230Y019507D02*
X011070Y019507D01*
X010925Y019507D02*
X010389Y019507D01*
X010499Y019348D02*
X015601Y019348D01*
X015635Y019431D02*
X015516Y019143D01*
X015516Y018831D01*
X015635Y018543D01*
X015856Y018322D01*
X016144Y018203D01*
X016456Y018203D01*
X016744Y018322D01*
X016965Y018543D01*
X017084Y018831D01*
X017084Y019143D01*
X016965Y019431D01*
X016744Y019651D01*
X016456Y019771D01*
X016144Y019771D01*
X015856Y019651D01*
X015635Y019431D01*
X015711Y019507D02*
X015175Y019507D01*
X015030Y019507D02*
X014870Y019507D01*
X014725Y019507D02*
X011375Y019507D01*
X011688Y019665D02*
X014412Y019665D01*
X014259Y019824D02*
X011841Y019824D01*
X011935Y019982D02*
X014165Y019982D01*
X014112Y020141D02*
X011988Y020141D01*
X012002Y020458D02*
X014098Y020458D01*
X014134Y020616D02*
X011966Y020616D01*
X011891Y020775D02*
X014209Y020775D01*
X014329Y020933D02*
X011771Y020933D01*
X011564Y021092D02*
X014536Y021092D01*
X014870Y021092D02*
X015030Y021092D01*
X015030Y020933D02*
X014870Y020933D01*
X014870Y020775D02*
X015030Y020775D01*
X015030Y020616D02*
X014870Y020616D01*
X014870Y020458D02*
X015030Y020458D01*
X015030Y019982D02*
X014870Y019982D01*
X014870Y019824D02*
X015030Y019824D01*
X015030Y019665D02*
X014870Y019665D01*
X015487Y019665D02*
X015890Y019665D01*
X015640Y019824D02*
X016960Y019824D01*
X016866Y019982D02*
X015734Y019982D01*
X015788Y020141D02*
X016812Y020141D01*
X016793Y020417D02*
X017570Y020417D01*
X017570Y021194D01*
X017482Y021183D01*
X017373Y021153D01*
X017269Y021110D01*
X017171Y021054D01*
X017082Y020985D01*
X017002Y020906D01*
X016934Y020816D01*
X016877Y020718D01*
X016834Y020614D01*
X016805Y020505D01*
X016793Y020417D01*
X016799Y020458D02*
X015801Y020458D01*
X015765Y020616D02*
X016835Y020616D01*
X016910Y020775D02*
X015690Y020775D01*
X015570Y020933D02*
X017030Y020933D01*
X017237Y021092D02*
X015363Y021092D01*
X016710Y019665D02*
X017113Y019665D01*
X016889Y019507D02*
X017425Y019507D01*
X017570Y019507D02*
X017730Y019507D01*
X017875Y019507D02*
X021225Y019507D01*
X021370Y019507D02*
X021530Y019507D01*
X021675Y019507D02*
X022211Y019507D01*
X022101Y019348D02*
X016999Y019348D01*
X017064Y019190D02*
X022036Y019190D01*
X022016Y019031D02*
X017084Y019031D01*
X017084Y018873D02*
X022016Y018873D01*
X022064Y018714D02*
X017036Y018714D01*
X016970Y018556D02*
X022130Y018556D01*
X022281Y018397D02*
X021852Y018397D01*
X022064Y018239D02*
X022557Y018239D01*
X022187Y018080D02*
X023413Y018080D01*
X023434Y018115D02*
X023377Y018018D01*
X023334Y017913D01*
X023305Y017804D01*
X023293Y017716D01*
X024070Y017716D01*
X024070Y017556D01*
X024230Y017556D01*
X024230Y017716D01*
X024070Y017716D01*
X024070Y018493D01*
X023982Y018482D01*
X023873Y018453D01*
X023769Y018410D01*
X023671Y018353D01*
X023582Y018284D01*
X023502Y018205D01*
X023434Y018115D01*
X023536Y018239D02*
X023043Y018239D01*
X023319Y018397D02*
X023748Y018397D01*
X024070Y018397D02*
X024230Y018397D01*
X024230Y018493D02*
X024319Y018482D01*
X024428Y018453D01*
X024532Y018410D01*
X024629Y018353D01*
X024719Y018284D01*
X024799Y018205D01*
X024867Y018115D01*
X024924Y018018D01*
X024967Y017913D01*
X024996Y017804D01*
X025008Y017716D01*
X024230Y017716D01*
X024230Y018493D01*
X024230Y018239D02*
X024070Y018239D01*
X024070Y018080D02*
X024230Y018080D01*
X024230Y017922D02*
X024070Y017922D01*
X024070Y017763D02*
X024230Y017763D01*
X024230Y017605D02*
X027870Y017605D01*
X027870Y017716D02*
X027092Y017716D01*
X027104Y017804D01*
X027133Y017913D01*
X027176Y018018D01*
X027233Y018115D01*
X027301Y018205D01*
X027381Y018284D01*
X027471Y018353D01*
X027568Y018410D01*
X027672Y018453D01*
X027781Y018482D01*
X027870Y018493D01*
X027870Y017716D01*
X027870Y017763D02*
X028030Y017763D01*
X028030Y017922D02*
X027870Y017922D01*
X027870Y018080D02*
X028030Y018080D01*
X028030Y018239D02*
X027870Y018239D01*
X027870Y018397D02*
X028030Y018397D01*
X027547Y018397D02*
X024553Y018397D01*
X024765Y018239D02*
X027335Y018239D01*
X027212Y018080D02*
X024888Y018080D01*
X024963Y017922D02*
X027137Y017922D01*
X027099Y017763D02*
X025001Y017763D01*
X024990Y017446D02*
X027110Y017446D01*
X027163Y017288D02*
X024937Y017288D01*
X024846Y017129D02*
X027254Y017129D01*
X027404Y016971D02*
X024696Y016971D01*
X024230Y016971D02*
X024070Y016971D01*
X024070Y017129D02*
X024230Y017129D01*
X024230Y017288D02*
X024070Y017288D01*
X024070Y017446D02*
X024230Y017446D01*
X024070Y017605D02*
X021530Y017605D01*
X021530Y017763D02*
X021370Y017763D01*
X021370Y017716D02*
X021370Y018493D01*
X021281Y018482D01*
X021172Y018453D01*
X021068Y018410D01*
X020971Y018353D01*
X020881Y018284D01*
X020801Y018205D01*
X020733Y018115D01*
X020676Y018018D01*
X020633Y017913D01*
X020604Y017804D01*
X020592Y017716D01*
X021370Y017716D01*
X021370Y017605D02*
X017730Y017605D01*
X017730Y017556D02*
X017730Y017716D01*
X017570Y017716D01*
X017570Y017556D01*
X017730Y017556D01*
X017730Y017446D02*
X017570Y017446D01*
X017570Y017288D02*
X017730Y017288D01*
X017730Y017129D02*
X017570Y017129D01*
X017570Y016971D02*
X017730Y016971D01*
X018196Y016971D02*
X020904Y016971D01*
X020754Y017129D02*
X018346Y017129D01*
X018437Y017288D02*
X020663Y017288D01*
X020610Y017446D02*
X018490Y017446D01*
X018508Y017716D02*
X018496Y017804D01*
X018467Y017913D01*
X018424Y018018D01*
X018367Y018115D01*
X018299Y018205D01*
X018219Y018284D01*
X018129Y018353D01*
X018032Y018410D01*
X017928Y018453D01*
X017819Y018482D01*
X017730Y018493D01*
X017730Y017716D01*
X018508Y017716D01*
X018501Y017763D02*
X020599Y017763D01*
X020637Y017922D02*
X018463Y017922D01*
X018388Y018080D02*
X020712Y018080D01*
X020835Y018239D02*
X018265Y018239D01*
X018053Y018397D02*
X021047Y018397D01*
X021370Y018397D02*
X021530Y018397D01*
X021530Y018239D02*
X021370Y018239D01*
X021370Y018080D02*
X021530Y018080D01*
X021530Y017922D02*
X021370Y017922D01*
X021370Y017446D02*
X021530Y017446D01*
X021530Y017288D02*
X021370Y017288D01*
X021370Y017129D02*
X021530Y017129D01*
X021530Y016971D02*
X021370Y016971D01*
X021995Y016971D02*
X023605Y016971D01*
X023455Y017129D02*
X022145Y017129D01*
X022236Y017288D02*
X023364Y017288D01*
X023311Y017446D02*
X022289Y017446D01*
X022301Y017763D02*
X023299Y017763D01*
X023337Y017922D02*
X022263Y017922D01*
X022390Y019665D02*
X021987Y019665D01*
X021530Y019665D02*
X021370Y019665D01*
X021370Y019824D02*
X021530Y019824D01*
X021530Y019982D02*
X021370Y019982D01*
X021370Y020458D02*
X021530Y020458D01*
X021530Y020616D02*
X021370Y020616D01*
X021370Y020775D02*
X021530Y020775D01*
X021530Y020933D02*
X021370Y020933D01*
X021370Y021092D02*
X021530Y021092D01*
X021036Y021092D02*
X018064Y021092D01*
X018032Y021110D02*
X017928Y021153D01*
X017819Y021183D01*
X017730Y021194D01*
X017730Y020417D01*
X018508Y020417D01*
X018496Y020505D01*
X018467Y020614D01*
X018424Y020718D01*
X018367Y020816D01*
X018299Y020906D01*
X018219Y020985D01*
X018129Y021054D01*
X018032Y021110D01*
X018271Y020933D02*
X020829Y020933D01*
X020709Y020775D02*
X018391Y020775D01*
X018466Y020616D02*
X020634Y020616D01*
X020598Y020458D02*
X018502Y020458D01*
X018488Y020141D02*
X020612Y020141D01*
X020665Y019982D02*
X018435Y019982D01*
X018341Y019824D02*
X020759Y019824D01*
X020912Y019665D02*
X018188Y019665D01*
X017730Y019665D02*
X017570Y019665D01*
X017570Y019824D02*
X017730Y019824D01*
X017730Y019982D02*
X017570Y019982D01*
X017570Y020458D02*
X017730Y020458D01*
X017730Y020616D02*
X017570Y020616D01*
X017570Y020775D02*
X017730Y020775D01*
X017730Y020933D02*
X017570Y020933D01*
X017570Y021092D02*
X017730Y021092D01*
X015536Y019190D02*
X010564Y019190D01*
X010584Y019031D02*
X015516Y019031D01*
X015516Y018873D02*
X010584Y018873D01*
X010536Y018714D02*
X015564Y018714D01*
X015630Y018556D02*
X010470Y018556D01*
X010319Y018397D02*
X010748Y018397D01*
X010536Y018239D02*
X010043Y018239D01*
X011070Y018239D02*
X011230Y018239D01*
X011230Y018397D02*
X011070Y018397D01*
X011070Y018080D02*
X011230Y018080D01*
X011230Y017922D02*
X011070Y017922D01*
X011070Y017763D02*
X011230Y017763D01*
X011230Y017605D02*
X014870Y017605D01*
X014870Y017716D02*
X014092Y017716D01*
X014104Y017804D01*
X014133Y017913D01*
X014176Y018018D01*
X014233Y018115D01*
X014301Y018205D01*
X014381Y018284D01*
X014471Y018353D01*
X014568Y018410D01*
X014672Y018453D01*
X014781Y018482D01*
X014870Y018493D01*
X014870Y017716D01*
X014870Y017763D02*
X015030Y017763D01*
X015030Y017605D02*
X017570Y017605D01*
X017570Y017716D02*
X016793Y017716D01*
X016805Y017804D01*
X016834Y017913D01*
X016877Y018018D01*
X016934Y018115D01*
X017002Y018205D01*
X017082Y018284D01*
X017171Y018353D01*
X017269Y018410D01*
X017373Y018453D01*
X017482Y018482D01*
X017570Y018493D01*
X017570Y017716D01*
X017570Y017763D02*
X017730Y017763D01*
X017730Y017922D02*
X017570Y017922D01*
X017570Y018080D02*
X017730Y018080D01*
X017730Y018239D02*
X017570Y018239D01*
X017570Y018397D02*
X017730Y018397D01*
X017248Y018397D02*
X016819Y018397D01*
X017036Y018239D02*
X016543Y018239D01*
X016913Y018080D02*
X015687Y018080D01*
X015763Y017922D02*
X016837Y017922D01*
X016799Y017763D02*
X015801Y017763D01*
X015789Y017446D02*
X016811Y017446D01*
X016864Y017288D02*
X015736Y017288D01*
X015645Y017129D02*
X016955Y017129D01*
X017105Y016971D02*
X015495Y016971D01*
X015030Y016971D02*
X014870Y016971D01*
X014870Y017129D02*
X015030Y017129D01*
X015030Y017288D02*
X014870Y017288D01*
X014870Y017446D02*
X015030Y017446D01*
X015030Y017922D02*
X014870Y017922D01*
X014870Y018080D02*
X015030Y018080D01*
X015030Y018239D02*
X014870Y018239D01*
X014870Y018397D02*
X015030Y018397D01*
X015352Y018397D02*
X015781Y018397D01*
X015564Y018239D02*
X016057Y018239D01*
X014547Y018397D02*
X011553Y018397D01*
X011765Y018239D02*
X014335Y018239D01*
X014212Y018080D02*
X011888Y018080D01*
X011963Y017922D02*
X014137Y017922D01*
X014099Y017763D02*
X012001Y017763D01*
X011990Y017446D02*
X014110Y017446D01*
X014163Y017288D02*
X011937Y017288D01*
X011846Y017129D02*
X014254Y017129D01*
X014404Y016971D02*
X011696Y016971D01*
X010613Y019665D02*
X010210Y019665D01*
X014870Y023469D02*
X015030Y023469D01*
X015030Y023628D02*
X014870Y023628D01*
X014870Y023786D02*
X015030Y023786D01*
X016539Y024737D02*
X017035Y024737D01*
X017245Y024896D02*
X016818Y024896D01*
X016969Y025054D02*
X022131Y025054D01*
X022065Y025213D02*
X017035Y025213D01*
X017084Y025371D02*
X022016Y025371D01*
X022016Y025530D02*
X017084Y025530D01*
X017065Y025688D02*
X022035Y025688D01*
X022101Y025847D02*
X016999Y025847D01*
X016890Y026005D02*
X017431Y026005D01*
X017570Y026005D02*
X017730Y026005D01*
X017870Y026005D02*
X021230Y026005D01*
X021370Y026005D02*
X021530Y026005D01*
X021669Y026005D02*
X022210Y026005D01*
X022386Y026164D02*
X021985Y026164D01*
X021530Y026164D02*
X021370Y026164D01*
X021370Y026322D02*
X021530Y026322D01*
X021530Y026481D02*
X021370Y026481D01*
X020914Y026164D02*
X018186Y026164D01*
X018340Y026322D02*
X020760Y026322D01*
X020666Y026481D02*
X018434Y026481D01*
X018488Y026639D02*
X020612Y026639D01*
X020598Y026956D02*
X018502Y026956D01*
X018467Y027115D02*
X020633Y027115D01*
X020708Y027273D02*
X018392Y027273D01*
X018272Y027432D02*
X020828Y027432D01*
X021033Y027590D02*
X018067Y027590D01*
X017730Y027590D02*
X017570Y027590D01*
X017570Y027432D02*
X017730Y027432D01*
X017730Y027273D02*
X017570Y027273D01*
X017570Y027115D02*
X017730Y027115D01*
X017730Y026639D02*
X017570Y026639D01*
X017570Y026481D02*
X017730Y026481D01*
X017730Y026322D02*
X017570Y026322D01*
X017570Y026164D02*
X017730Y026164D01*
X017115Y026164D02*
X016714Y026164D01*
X021370Y026956D02*
X021530Y026956D01*
X021530Y027115D02*
X021370Y027115D01*
X021370Y027273D02*
X021530Y027273D01*
X021530Y027432D02*
X021370Y027432D01*
X021370Y027590D02*
X021530Y027590D01*
X021530Y024896D02*
X021370Y024896D01*
X021370Y024737D02*
X021530Y024737D01*
X021530Y024579D02*
X021370Y024579D01*
X021370Y024420D02*
X021530Y024420D01*
X021530Y024262D02*
X021370Y024262D01*
X021855Y024896D02*
X022282Y024896D01*
X022065Y024737D02*
X022561Y024737D01*
X027870Y023786D02*
X028030Y023786D01*
X028030Y023628D02*
X027870Y023628D01*
X027870Y023469D02*
X028030Y023469D01*
X029539Y024737D02*
X030035Y024737D01*
X030245Y024896D02*
X029818Y024896D01*
X030570Y024896D02*
X030730Y024896D01*
X030730Y024737D02*
X030570Y024737D01*
X030570Y024579D02*
X030730Y024579D01*
X030730Y024420D02*
X030570Y024420D01*
X030570Y024262D02*
X030730Y024262D01*
X038070Y023786D02*
X038230Y023786D01*
X038230Y023628D02*
X038070Y023628D01*
X038070Y023469D02*
X038230Y023469D01*
X021800Y009487D02*
X021800Y008987D01*
X022300Y008487D01*
X022847Y008487D01*
X021300Y006987D02*
X018800Y004487D01*
X010300Y004487D01*
X010300Y004077D01*
X009300Y004987D02*
X008800Y004487D01*
X008800Y004077D01*
X015300Y008987D02*
X015300Y009487D01*
X015300Y008987D02*
X015800Y008487D01*
X016347Y008487D01*
D11*
X000906Y001487D02*
X000908Y001526D01*
X000914Y001565D01*
X000924Y001603D01*
X000937Y001640D01*
X000954Y001675D01*
X000974Y001709D01*
X000998Y001740D01*
X001025Y001769D01*
X001054Y001795D01*
X001086Y001818D01*
X001120Y001838D01*
X001156Y001854D01*
X001193Y001866D01*
X001232Y001875D01*
X001271Y001880D01*
X001310Y001881D01*
X001349Y001878D01*
X001388Y001871D01*
X001425Y001860D01*
X001462Y001846D01*
X001497Y001828D01*
X001530Y001807D01*
X001561Y001782D01*
X001589Y001755D01*
X001614Y001725D01*
X001636Y001692D01*
X001655Y001658D01*
X001670Y001622D01*
X001682Y001584D01*
X001690Y001546D01*
X001694Y001507D01*
X001694Y001467D01*
X001690Y001428D01*
X001682Y001390D01*
X001670Y001352D01*
X001655Y001316D01*
X001636Y001282D01*
X001614Y001249D01*
X001589Y001219D01*
X001561Y001192D01*
X001530Y001167D01*
X001497Y001146D01*
X001462Y001128D01*
X001425Y001114D01*
X001388Y001103D01*
X001349Y001096D01*
X001310Y001093D01*
X001271Y001094D01*
X001232Y001099D01*
X001193Y001108D01*
X001156Y001120D01*
X001120Y001136D01*
X001086Y001156D01*
X001054Y001179D01*
X001025Y001205D01*
X000998Y001234D01*
X000974Y001265D01*
X000954Y001299D01*
X000937Y001334D01*
X000924Y001371D01*
X000914Y001409D01*
X000908Y001448D01*
X000906Y001487D01*
X000867Y028987D02*
X000869Y029028D01*
X000875Y029069D01*
X000885Y029109D01*
X000898Y029148D01*
X000915Y029185D01*
X000936Y029221D01*
X000960Y029255D01*
X000987Y029286D01*
X001016Y029314D01*
X001049Y029340D01*
X001083Y029362D01*
X001120Y029381D01*
X001158Y029396D01*
X001198Y029408D01*
X001238Y029416D01*
X001279Y029420D01*
X001321Y029420D01*
X001362Y029416D01*
X001402Y029408D01*
X001442Y029396D01*
X001480Y029381D01*
X001516Y029362D01*
X001551Y029340D01*
X001584Y029314D01*
X001613Y029286D01*
X001640Y029255D01*
X001664Y029221D01*
X001685Y029185D01*
X001702Y029148D01*
X001715Y029109D01*
X001725Y029069D01*
X001731Y029028D01*
X001733Y028987D01*
X001731Y028946D01*
X001725Y028905D01*
X001715Y028865D01*
X001702Y028826D01*
X001685Y028789D01*
X001664Y028753D01*
X001640Y028719D01*
X001613Y028688D01*
X001584Y028660D01*
X001551Y028634D01*
X001517Y028612D01*
X001480Y028593D01*
X001442Y028578D01*
X001402Y028566D01*
X001362Y028558D01*
X001321Y028554D01*
X001279Y028554D01*
X001238Y028558D01*
X001198Y028566D01*
X001158Y028578D01*
X001120Y028593D01*
X001084Y028612D01*
X001049Y028634D01*
X001016Y028660D01*
X000987Y028688D01*
X000960Y028719D01*
X000936Y028753D01*
X000915Y028789D01*
X000898Y028826D01*
X000885Y028865D01*
X000875Y028905D01*
X000869Y028946D01*
X000867Y028987D01*
X038867Y028987D02*
X038869Y029028D01*
X038875Y029069D01*
X038885Y029109D01*
X038898Y029148D01*
X038915Y029185D01*
X038936Y029221D01*
X038960Y029255D01*
X038987Y029286D01*
X039016Y029314D01*
X039049Y029340D01*
X039083Y029362D01*
X039120Y029381D01*
X039158Y029396D01*
X039198Y029408D01*
X039238Y029416D01*
X039279Y029420D01*
X039321Y029420D01*
X039362Y029416D01*
X039402Y029408D01*
X039442Y029396D01*
X039480Y029381D01*
X039516Y029362D01*
X039551Y029340D01*
X039584Y029314D01*
X039613Y029286D01*
X039640Y029255D01*
X039664Y029221D01*
X039685Y029185D01*
X039702Y029148D01*
X039715Y029109D01*
X039725Y029069D01*
X039731Y029028D01*
X039733Y028987D01*
X039731Y028946D01*
X039725Y028905D01*
X039715Y028865D01*
X039702Y028826D01*
X039685Y028789D01*
X039664Y028753D01*
X039640Y028719D01*
X039613Y028688D01*
X039584Y028660D01*
X039551Y028634D01*
X039517Y028612D01*
X039480Y028593D01*
X039442Y028578D01*
X039402Y028566D01*
X039362Y028558D01*
X039321Y028554D01*
X039279Y028554D01*
X039238Y028558D01*
X039198Y028566D01*
X039158Y028578D01*
X039120Y028593D01*
X039084Y028612D01*
X039049Y028634D01*
X039016Y028660D01*
X038987Y028688D01*
X038960Y028719D01*
X038936Y028753D01*
X038915Y028789D01*
X038898Y028826D01*
X038885Y028865D01*
X038875Y028905D01*
X038869Y028946D01*
X038867Y028987D01*
X038906Y001487D02*
X038908Y001526D01*
X038914Y001565D01*
X038924Y001603D01*
X038937Y001640D01*
X038954Y001675D01*
X038974Y001709D01*
X038998Y001740D01*
X039025Y001769D01*
X039054Y001795D01*
X039086Y001818D01*
X039120Y001838D01*
X039156Y001854D01*
X039193Y001866D01*
X039232Y001875D01*
X039271Y001880D01*
X039310Y001881D01*
X039349Y001878D01*
X039388Y001871D01*
X039425Y001860D01*
X039462Y001846D01*
X039497Y001828D01*
X039530Y001807D01*
X039561Y001782D01*
X039589Y001755D01*
X039614Y001725D01*
X039636Y001692D01*
X039655Y001658D01*
X039670Y001622D01*
X039682Y001584D01*
X039690Y001546D01*
X039694Y001507D01*
X039694Y001467D01*
X039690Y001428D01*
X039682Y001390D01*
X039670Y001352D01*
X039655Y001316D01*
X039636Y001282D01*
X039614Y001249D01*
X039589Y001219D01*
X039561Y001192D01*
X039530Y001167D01*
X039497Y001146D01*
X039462Y001128D01*
X039425Y001114D01*
X039388Y001103D01*
X039349Y001096D01*
X039310Y001093D01*
X039271Y001094D01*
X039232Y001099D01*
X039193Y001108D01*
X039156Y001120D01*
X039120Y001136D01*
X039086Y001156D01*
X039054Y001179D01*
X039025Y001205D01*
X038998Y001234D01*
X038974Y001265D01*
X038954Y001299D01*
X038937Y001334D01*
X038924Y001371D01*
X038914Y001409D01*
X038908Y001448D01*
X038906Y001487D01*
D12*
X010300Y002896D03*
X010300Y004077D03*
X008800Y004077D03*
X008800Y002896D03*
X007300Y002896D03*
X005800Y002896D03*
X005800Y004077D03*
X007300Y004077D03*
X004300Y004077D03*
X004300Y002896D03*
D13*
X023300Y002707D02*
X023300Y003267D01*
X024300Y003267D02*
X024300Y002707D01*
X025300Y002707D02*
X025300Y003267D01*
X026300Y003267D02*
X026300Y002707D01*
X027300Y002707D02*
X027300Y003267D01*
X028300Y003267D02*
X028300Y002707D01*
X029300Y002707D02*
X029300Y003267D01*
X030300Y003267D02*
X030300Y002707D01*
X031300Y002707D02*
X031300Y003267D01*
X031300Y005707D02*
X031300Y006267D01*
X030300Y006267D02*
X030300Y005707D01*
X029300Y005707D02*
X029300Y006267D01*
X028300Y006267D02*
X028300Y005707D01*
X027300Y005707D02*
X027300Y006267D01*
X026300Y006267D02*
X026300Y005707D01*
X025300Y005707D02*
X025300Y006267D01*
X024300Y006267D02*
X024300Y005707D01*
X023300Y005707D02*
X023300Y006267D01*
D14*
X023300Y001487D03*
X024300Y001487D03*
X025300Y001487D03*
X026300Y001487D03*
X027300Y001487D03*
X028300Y001487D03*
X029300Y001487D03*
X030300Y001487D03*
X033300Y001487D03*
X034300Y001487D03*
X035300Y001487D03*
X036300Y001487D03*
D15*
X030577Y009487D02*
X030023Y009487D01*
X028577Y009487D02*
X028023Y009487D01*
X028023Y011487D02*
X028577Y011487D01*
X028577Y012487D02*
X028023Y012487D01*
X028023Y013487D02*
X028577Y013487D01*
X030023Y013487D02*
X030577Y013487D01*
X030577Y012487D02*
X030023Y012487D01*
X030023Y011487D02*
X030577Y011487D01*
X024077Y011487D02*
X023523Y011487D01*
X023523Y012487D02*
X024077Y012487D01*
X024077Y013487D02*
X023523Y013487D01*
X022077Y013487D02*
X021523Y013487D01*
X021523Y012487D02*
X022077Y012487D01*
X022077Y011487D02*
X021523Y011487D01*
X021523Y009487D02*
X022077Y009487D01*
X023523Y009487D02*
X024077Y009487D01*
X017577Y009487D02*
X017023Y009487D01*
X015577Y009487D02*
X015023Y009487D01*
X015023Y011487D02*
X015577Y011487D01*
X015577Y012487D02*
X015023Y012487D01*
X015023Y013487D02*
X015577Y013487D01*
X017023Y013487D02*
X017577Y013487D01*
X017577Y012487D02*
X017023Y012487D01*
X017023Y011487D02*
X017577Y011487D01*
X011077Y011487D02*
X010523Y011487D01*
X010523Y012487D02*
X011077Y012487D01*
X011077Y013487D02*
X010523Y013487D01*
X009077Y013487D02*
X008523Y013487D01*
X008523Y012487D02*
X009077Y012487D01*
X009077Y011487D02*
X008523Y011487D01*
X008523Y009487D02*
X009077Y009487D01*
X010523Y009487D02*
X011077Y009487D01*
X004577Y009487D02*
X004023Y009487D01*
X002577Y009487D02*
X002023Y009487D01*
X002023Y011487D02*
X002577Y011487D01*
X002577Y012487D02*
X002023Y012487D01*
X002023Y013487D02*
X002577Y013487D01*
X004023Y013487D02*
X004577Y013487D01*
X004577Y012487D02*
X004023Y012487D01*
X004023Y011487D02*
X004577Y011487D01*
D16*
X003300Y018987D03*
X009800Y018987D03*
X016300Y018987D03*
X022800Y018987D03*
X029300Y018987D03*
X036800Y018987D03*
X036800Y025487D03*
X029300Y025487D03*
X022800Y025487D03*
X016300Y025487D03*
X009800Y025487D03*
X003300Y025487D03*
D17*
X001950Y026837D03*
X004650Y026837D03*
X004650Y024136D03*
X001950Y024136D03*
X001950Y020337D03*
X004650Y020337D03*
X004650Y017636D03*
X001950Y017636D03*
X008450Y017636D03*
X011150Y017636D03*
X011150Y020337D03*
X008450Y020337D03*
X008450Y024136D03*
X011150Y024136D03*
X011150Y026837D03*
X008450Y026837D03*
X014950Y026837D03*
X017650Y026837D03*
X017650Y024136D03*
X014950Y024136D03*
X014950Y020337D03*
X017650Y020337D03*
X017650Y017636D03*
X014950Y017636D03*
X021450Y017636D03*
X024150Y017636D03*
X024150Y020337D03*
X021450Y020337D03*
X021450Y024136D03*
X024150Y024136D03*
X024150Y026837D03*
X021450Y026837D03*
X027950Y026837D03*
X030650Y026837D03*
X030650Y024136D03*
X027950Y024136D03*
X027950Y020337D03*
X030650Y020337D03*
X030650Y017636D03*
X027950Y017636D03*
X035450Y017636D03*
X038150Y017636D03*
X038150Y020337D03*
X035450Y020337D03*
X035450Y024136D03*
X038150Y024136D03*
X038150Y026837D03*
X035450Y026837D03*
D18*
X030253Y008487D03*
X029347Y008487D03*
X023753Y008487D03*
X022847Y008487D03*
X017253Y008487D03*
X016347Y008487D03*
X010753Y008487D03*
X009847Y008487D03*
X004253Y008487D03*
X003347Y008487D03*
D19*
X032800Y005037D03*
X032800Y003937D03*
D20*
X035300Y004487D03*
D21*
X036300Y004487D03*
D22*
X002300Y004077D03*
X002300Y002897D03*
D23*
X004300Y002897D01*
X004300Y002896D01*
X005800Y002896D01*
X007300Y002896D01*
X008800Y002896D01*
X010300Y002896D01*
X011096Y002878D02*
X022500Y002878D01*
X022500Y002548D02*
X022622Y002254D01*
X022715Y002160D01*
X022545Y001991D01*
X022410Y001664D01*
X022410Y001310D01*
X022502Y001087D01*
X002123Y001087D01*
X002214Y001305D01*
X002214Y001668D01*
X002075Y002004D01*
X002057Y002022D01*
X002640Y002022D01*
X002831Y002101D01*
X002906Y002177D01*
X003833Y002177D01*
X003921Y002140D01*
X004679Y002140D01*
X004766Y002176D01*
X005334Y002176D01*
X005421Y002140D01*
X006179Y002140D01*
X006266Y002176D01*
X006834Y002176D01*
X006921Y002140D01*
X007679Y002140D01*
X007766Y002176D01*
X008334Y002176D01*
X008421Y002140D01*
X009179Y002140D01*
X009266Y002176D01*
X009834Y002176D01*
X009921Y002140D01*
X010679Y002140D01*
X010870Y002219D01*
X011016Y002365D01*
X011096Y002556D01*
X011096Y003236D01*
X011016Y003427D01*
X010957Y003487D01*
X011016Y003546D01*
X011096Y003738D01*
X011096Y003887D01*
X018919Y003887D01*
X019140Y003978D01*
X021549Y006387D01*
X022500Y006387D01*
X022500Y005548D01*
X022622Y005254D01*
X022847Y005028D01*
X023141Y004907D01*
X023459Y004907D01*
X023753Y005028D01*
X023800Y005075D01*
X023847Y005028D01*
X024141Y004907D01*
X024459Y004907D01*
X024753Y005028D01*
X024800Y005075D01*
X024847Y005028D01*
X025141Y004907D01*
X025459Y004907D01*
X025753Y005028D01*
X025800Y005075D01*
X025847Y005028D01*
X026141Y004907D01*
X026459Y004907D01*
X026753Y005028D01*
X026800Y005075D01*
X026847Y005028D01*
X027141Y004907D01*
X027459Y004907D01*
X027753Y005028D01*
X027800Y005075D01*
X027847Y005028D01*
X028141Y004907D01*
X028459Y004907D01*
X028753Y005028D01*
X028800Y005075D01*
X028847Y005028D01*
X029141Y004907D01*
X029459Y004907D01*
X029753Y005028D01*
X029800Y005075D01*
X029847Y005028D01*
X030141Y004907D01*
X030459Y004907D01*
X030753Y005028D01*
X030961Y005236D01*
X030996Y005211D01*
X031077Y005169D01*
X031164Y005141D01*
X031254Y005127D01*
X031300Y005127D01*
X031346Y005127D01*
X031436Y005141D01*
X031523Y005169D01*
X031604Y005211D01*
X031678Y005264D01*
X031742Y005329D01*
X031796Y005403D01*
X031838Y005484D01*
X031866Y005571D01*
X031880Y005661D01*
X031880Y005987D01*
X031880Y006312D01*
X031866Y006402D01*
X031838Y006489D01*
X031796Y006571D01*
X031742Y006645D01*
X031678Y006709D01*
X031604Y006763D01*
X031523Y006804D01*
X031436Y006832D01*
X031346Y006847D01*
X031300Y006847D01*
X031254Y006847D01*
X031164Y006832D01*
X031077Y006804D01*
X030996Y006763D01*
X030961Y006737D01*
X030753Y006945D01*
X030459Y007067D01*
X030141Y007067D01*
X029847Y006945D01*
X029800Y006898D01*
X029753Y006945D01*
X029459Y007067D01*
X029141Y007067D01*
X028968Y006995D01*
X029038Y007165D01*
X029038Y007808D01*
X029024Y007843D01*
X029120Y007803D01*
X029575Y007803D01*
X029766Y007882D01*
X029912Y008029D01*
X029938Y008090D01*
X029987Y008057D01*
X030041Y008035D01*
X030099Y008023D01*
X030253Y008023D01*
X030406Y008023D01*
X030464Y008035D01*
X030519Y008057D01*
X030568Y008090D01*
X030610Y008132D01*
X030643Y008181D01*
X030665Y008236D01*
X030677Y008294D01*
X030677Y008487D01*
X030677Y008680D01*
X030665Y008738D01*
X030643Y008792D01*
X030610Y008841D01*
X030568Y008883D01*
X030529Y008909D01*
X030623Y008909D01*
X030713Y008923D01*
X030799Y008951D01*
X030880Y008993D01*
X030954Y009046D01*
X031018Y009110D01*
X031071Y009184D01*
X031113Y009265D01*
X031141Y009351D01*
X031155Y009441D01*
X031155Y009487D01*
X030300Y009487D01*
X039700Y009487D01*
X039700Y002310D01*
X039482Y002400D01*
X039118Y002400D01*
X038782Y002261D01*
X038525Y002004D01*
X038386Y001668D01*
X038386Y001305D01*
X038477Y001087D01*
X037098Y001087D01*
X037190Y001310D01*
X037190Y001664D01*
X037055Y001991D01*
X036804Y002241D01*
X036477Y002377D01*
X036123Y002377D01*
X035800Y002243D01*
X035477Y002377D01*
X035123Y002377D01*
X034800Y002243D01*
X034477Y002377D01*
X034123Y002377D01*
X033796Y002241D01*
X033626Y002072D01*
X033597Y002089D01*
X033516Y002122D01*
X033431Y002145D01*
X033344Y002157D01*
X033300Y002157D01*
X033256Y002157D01*
X033169Y002145D01*
X033084Y002122D01*
X033003Y002089D01*
X032927Y002045D01*
X032857Y001991D01*
X032795Y001929D01*
X032742Y001860D01*
X032698Y001784D01*
X032664Y001702D01*
X032641Y001618D01*
X032630Y001531D01*
X032630Y001487D01*
X033300Y001487D01*
X033300Y002157D01*
X033300Y001487D01*
X033300Y001487D01*
X033300Y001487D01*
X032630Y001487D01*
X032630Y001443D01*
X032641Y001356D01*
X032664Y001271D01*
X032698Y001190D01*
X032742Y001114D01*
X032762Y001087D01*
X031098Y001087D01*
X031190Y001310D01*
X031190Y001664D01*
X031079Y001932D01*
X031141Y001907D01*
X031459Y001907D01*
X031753Y002028D01*
X031978Y002254D01*
X032100Y002548D01*
X032100Y003336D01*
X032279Y003157D01*
X032617Y003017D01*
X032983Y003017D01*
X033321Y003157D01*
X033580Y003416D01*
X033720Y003754D01*
X033720Y004120D01*
X033580Y004458D01*
X033386Y004652D01*
X033429Y004726D01*
X033464Y004811D01*
X033488Y004900D01*
X033500Y004991D01*
X033500Y005037D01*
X033500Y005083D01*
X033488Y005174D01*
X033464Y005262D01*
X033429Y005347D01*
X033383Y005426D01*
X033327Y005499D01*
X033263Y005564D01*
X033190Y005620D01*
X033110Y005666D01*
X033025Y005701D01*
X032937Y005725D01*
X032846Y005737D01*
X032800Y005737D01*
X032754Y005737D01*
X032663Y005725D01*
X032575Y005701D01*
X032490Y005666D01*
X032410Y005620D01*
X032337Y005564D01*
X032273Y005499D01*
X032217Y005426D01*
X032171Y005347D01*
X032136Y005262D01*
X032112Y005174D01*
X032100Y005083D01*
X032100Y005037D01*
X032800Y005037D01*
X032800Y005737D01*
X032800Y005037D01*
X032800Y005037D01*
X032800Y005037D01*
X033500Y005037D01*
X032800Y005037D01*
X032800Y005037D01*
X032100Y005037D01*
X032100Y004991D01*
X032112Y004900D01*
X032136Y004811D01*
X032171Y004726D01*
X032214Y004652D01*
X032020Y004458D01*
X031880Y004120D01*
X031880Y003818D01*
X031753Y003945D01*
X031459Y004067D01*
X031141Y004067D01*
X030847Y003945D01*
X030800Y003898D01*
X030753Y003945D01*
X030459Y004067D01*
X030141Y004067D01*
X029847Y003945D01*
X029800Y003898D01*
X029753Y003945D01*
X029459Y004067D01*
X029141Y004067D01*
X028847Y003945D01*
X028800Y003898D01*
X028753Y003945D01*
X028459Y004067D01*
X028141Y004067D01*
X027847Y003945D01*
X027800Y003898D01*
X027753Y003945D01*
X027459Y004067D01*
X027141Y004067D01*
X026847Y003945D01*
X026800Y003898D01*
X026753Y003945D01*
X026459Y004067D01*
X026141Y004067D01*
X025847Y003945D01*
X025800Y003898D01*
X025753Y003945D01*
X025459Y004067D01*
X025141Y004067D01*
X024847Y003945D01*
X024800Y003898D01*
X024753Y003945D01*
X024459Y004067D01*
X024141Y004067D01*
X023847Y003945D01*
X023800Y003898D01*
X023753Y003945D01*
X023459Y004067D01*
X023141Y004067D01*
X022847Y003945D01*
X022622Y003720D01*
X022500Y003426D01*
X022500Y002548D01*
X022528Y002479D02*
X011064Y002479D01*
X011079Y003276D02*
X022500Y003276D01*
X022603Y003675D02*
X011070Y003675D01*
X010749Y005587D02*
X012410Y007249D01*
X012622Y007249D01*
X012813Y007328D01*
X012959Y007474D01*
X013038Y007665D01*
X013038Y008308D01*
X012959Y008499D01*
X012813Y008646D01*
X012622Y008725D01*
X011978Y008725D01*
X011787Y008646D01*
X011641Y008499D01*
X011562Y008308D01*
X011562Y008097D01*
X009551Y006087D01*
X007681Y006087D01*
X007460Y005995D01*
X007291Y005827D01*
X006791Y005327D01*
X006700Y005106D01*
X006700Y004724D01*
X006584Y004608D01*
X006550Y004527D01*
X006516Y004608D01*
X006400Y004724D01*
X006400Y006738D01*
X006410Y006749D01*
X006622Y006749D01*
X006813Y006828D01*
X006959Y006974D01*
X007038Y007165D01*
X007038Y007808D01*
X006959Y007999D01*
X006813Y008146D01*
X006622Y008225D01*
X005978Y008225D01*
X005787Y008146D01*
X005641Y007999D01*
X005562Y007808D01*
X005562Y007597D01*
X005291Y007327D01*
X005200Y007106D01*
X005200Y004724D01*
X005084Y004608D01*
X005050Y004527D01*
X005016Y004608D01*
X004900Y004724D01*
X004900Y005856D01*
X004809Y006077D01*
X004038Y006847D01*
X004038Y007058D01*
X003959Y007249D01*
X003813Y007396D01*
X003622Y007475D01*
X002978Y007475D01*
X002787Y007396D01*
X002641Y007249D01*
X002562Y007058D01*
X002562Y006415D01*
X002641Y006224D01*
X002787Y006078D01*
X002978Y005999D01*
X003190Y005999D01*
X003700Y005488D01*
X003700Y004724D01*
X003584Y004608D01*
X003504Y004417D01*
X003504Y003738D01*
X003555Y003617D01*
X002906Y003617D01*
X002835Y003687D01*
X002836Y003693D01*
X002836Y004077D01*
X002836Y004461D01*
X002825Y004519D01*
X002802Y004573D01*
X002769Y004622D01*
X002727Y004664D01*
X002678Y004697D01*
X002624Y004720D01*
X002566Y004731D01*
X002300Y004731D01*
X002034Y004731D01*
X001976Y004720D01*
X001922Y004697D01*
X001873Y004664D01*
X001831Y004622D01*
X001798Y004573D01*
X001775Y004519D01*
X001764Y004461D01*
X001764Y004077D01*
X002300Y004077D01*
X002300Y004731D01*
X002300Y004077D01*
X002300Y004077D01*
X002300Y004077D01*
X002836Y004077D01*
X002300Y004077D01*
X002300Y004077D01*
X001764Y004077D01*
X001764Y003693D01*
X001765Y003687D01*
X001623Y003545D01*
X001544Y003354D01*
X001544Y002439D01*
X001576Y002361D01*
X001482Y002400D01*
X001118Y002400D01*
X000900Y002310D01*
X000900Y009487D01*
X001225Y009487D01*
X001225Y009328D01*
X001346Y009035D01*
X001571Y008811D01*
X001755Y008734D01*
X001791Y008647D01*
X001960Y008478D01*
X001960Y008478D01*
X002460Y007978D01*
X002681Y007887D01*
X002924Y007887D01*
X002929Y007882D01*
X003120Y007803D01*
X003575Y007803D01*
X003766Y007882D01*
X003912Y008029D01*
X003938Y008090D01*
X003987Y008057D01*
X004041Y008035D01*
X004099Y008023D01*
X004253Y008023D01*
X004406Y008023D01*
X004464Y008035D01*
X004519Y008057D01*
X004568Y008090D01*
X004610Y008132D01*
X004643Y008181D01*
X004665Y008236D01*
X004677Y008294D01*
X004677Y008487D01*
X004677Y008680D01*
X004665Y008738D01*
X004643Y008792D01*
X004610Y008841D01*
X004568Y008883D01*
X004529Y008909D01*
X004623Y008909D01*
X004713Y008923D01*
X004799Y008951D01*
X004880Y008993D01*
X004954Y009046D01*
X005018Y009110D01*
X005071Y009184D01*
X005113Y009265D01*
X005141Y009351D01*
X005155Y009441D01*
X005155Y009487D01*
X004300Y009487D01*
X007725Y009487D01*
X007725Y009328D01*
X007846Y009035D01*
X008071Y008811D01*
X008255Y008734D01*
X008291Y008647D01*
X008460Y008478D01*
X008960Y007978D01*
X009181Y007887D01*
X009424Y007887D01*
X009429Y007882D01*
X009620Y007803D01*
X010075Y007803D01*
X010266Y007882D01*
X010412Y008029D01*
X010438Y008090D01*
X010487Y008057D01*
X010541Y008035D01*
X010599Y008023D01*
X010753Y008023D01*
X010906Y008023D01*
X010964Y008035D01*
X011019Y008057D01*
X011068Y008090D01*
X011110Y008132D01*
X011143Y008181D01*
X011165Y008236D01*
X011177Y008294D01*
X011177Y008487D01*
X011177Y008680D01*
X011165Y008738D01*
X011143Y008792D01*
X011110Y008841D01*
X011068Y008883D01*
X011029Y008909D01*
X011123Y008909D01*
X011213Y008923D01*
X011299Y008951D01*
X011380Y008993D01*
X011454Y009046D01*
X011518Y009110D01*
X011571Y009184D01*
X011613Y009265D01*
X011641Y009351D01*
X011655Y009441D01*
X011655Y009487D01*
X010800Y009487D01*
X014225Y009487D01*
X014225Y009328D01*
X014346Y009035D01*
X014571Y008811D01*
X014755Y008734D01*
X014791Y008647D01*
X014960Y008478D01*
X015460Y007978D01*
X015681Y007887D01*
X015924Y007887D01*
X015929Y007882D01*
X016120Y007803D01*
X016575Y007803D01*
X016766Y007882D01*
X016912Y008029D01*
X016938Y008090D01*
X016987Y008057D01*
X017041Y008035D01*
X017099Y008023D01*
X017253Y008023D01*
X017406Y008023D01*
X017464Y008035D01*
X017519Y008057D01*
X017568Y008090D01*
X017610Y008132D01*
X017643Y008181D01*
X017665Y008236D01*
X017677Y008294D01*
X017677Y008487D01*
X017677Y008680D01*
X017665Y008738D01*
X017643Y008792D01*
X017610Y008841D01*
X017568Y008883D01*
X017529Y008909D01*
X017623Y008909D01*
X017713Y008923D01*
X017799Y008951D01*
X017880Y008993D01*
X017954Y009046D01*
X018018Y009110D01*
X018071Y009184D01*
X018113Y009265D01*
X018141Y009351D01*
X018155Y009441D01*
X018155Y009487D01*
X017300Y009487D01*
X020725Y009487D01*
X020725Y009328D01*
X020846Y009035D01*
X021071Y008811D01*
X021255Y008734D01*
X021291Y008647D01*
X021460Y008478D01*
X021960Y007978D01*
X022181Y007887D01*
X022424Y007887D01*
X022429Y007882D01*
X022620Y007803D01*
X023075Y007803D01*
X023266Y007882D01*
X023412Y008029D01*
X023438Y008090D01*
X023487Y008057D01*
X023541Y008035D01*
X023599Y008023D01*
X023753Y008023D01*
X023906Y008023D01*
X023964Y008035D01*
X024019Y008057D01*
X024068Y008090D01*
X024110Y008132D01*
X024143Y008181D01*
X024165Y008236D01*
X024177Y008294D01*
X024177Y008487D01*
X024177Y008680D01*
X024165Y008738D01*
X024143Y008792D01*
X024110Y008841D01*
X024068Y008883D01*
X024029Y008909D01*
X024123Y008909D01*
X024213Y008923D01*
X024299Y008951D01*
X024380Y008993D01*
X024454Y009046D01*
X024518Y009110D01*
X024571Y009184D01*
X024613Y009265D01*
X024641Y009351D01*
X024655Y009441D01*
X024655Y009487D01*
X023800Y009487D01*
X027225Y009487D01*
X027225Y009328D01*
X027346Y009035D01*
X027571Y008811D01*
X027755Y008734D01*
X027791Y008647D01*
X028213Y008225D01*
X027978Y008225D01*
X027787Y008146D01*
X027641Y007999D01*
X027562Y007808D01*
X027562Y007597D01*
X027551Y007587D01*
X021181Y007587D01*
X020960Y007495D01*
X020791Y007327D01*
X018551Y005087D01*
X016749Y005087D01*
X019410Y007749D01*
X019622Y007749D01*
X019813Y007828D01*
X019959Y007974D01*
X020038Y008165D01*
X020038Y008808D01*
X019959Y008999D01*
X019813Y009146D01*
X019622Y009225D01*
X018978Y009225D01*
X018787Y009146D01*
X018641Y008999D01*
X018562Y008808D01*
X018562Y008597D01*
X015551Y005587D01*
X010749Y005587D01*
X010829Y005667D02*
X015632Y005667D01*
X016030Y006066D02*
X011228Y006066D01*
X011626Y006464D02*
X016429Y006464D01*
X016827Y006863D02*
X012025Y006863D01*
X012652Y007261D02*
X017226Y007261D01*
X017624Y007660D02*
X013036Y007660D01*
X013038Y008058D02*
X015380Y008058D01*
X014981Y008457D02*
X012977Y008457D01*
X011623Y008457D02*
X011177Y008457D01*
X011177Y008487D02*
X010753Y008487D01*
X011177Y008487D01*
X011096Y008855D02*
X014526Y008855D01*
X014256Y009254D02*
X011607Y009254D01*
X010800Y009487D02*
X010800Y009487D01*
X010753Y008487D02*
X010753Y008487D01*
X010753Y008023D01*
X010753Y008487D01*
X010753Y008487D01*
X010753Y008457D02*
X010753Y008457D01*
X010753Y008058D02*
X010753Y008058D01*
X011020Y008058D02*
X011523Y008058D01*
X011124Y007660D02*
X007038Y007660D01*
X007038Y007261D02*
X010726Y007261D01*
X010327Y006863D02*
X006848Y006863D01*
X006400Y006464D02*
X009929Y006464D01*
X010424Y008058D02*
X010486Y008058D01*
X008880Y008058D02*
X006900Y008058D01*
X005700Y008058D02*
X004520Y008058D01*
X004253Y008058D02*
X004253Y008058D01*
X004253Y008023D02*
X004253Y008487D01*
X004677Y008487D01*
X004253Y008487D01*
X004253Y008487D01*
X004253Y008487D01*
X004253Y008023D01*
X003986Y008058D02*
X003924Y008058D01*
X004253Y008457D02*
X004253Y008457D01*
X004677Y008457D02*
X008481Y008457D01*
X008026Y008855D02*
X004596Y008855D01*
X005107Y009254D02*
X007756Y009254D01*
X005562Y007660D02*
X000900Y007660D01*
X000900Y008058D02*
X002380Y008058D01*
X001981Y008457D02*
X000900Y008457D01*
X000900Y008855D02*
X001526Y008855D01*
X001256Y009254D02*
X000900Y009254D01*
X000900Y007261D02*
X002653Y007261D01*
X002562Y006863D02*
X000900Y006863D01*
X000900Y006464D02*
X002562Y006464D01*
X002816Y006066D02*
X000900Y006066D01*
X000900Y005667D02*
X003521Y005667D01*
X003700Y005269D02*
X000900Y005269D01*
X000900Y004870D02*
X003700Y004870D01*
X003527Y004472D02*
X002834Y004472D01*
X002836Y004073D02*
X003504Y004073D01*
X003530Y003675D02*
X002848Y003675D01*
X002300Y004472D02*
X002300Y004472D01*
X001766Y004472D02*
X000900Y004472D01*
X000900Y004073D02*
X001764Y004073D01*
X001752Y003675D02*
X000900Y003675D01*
X000900Y003276D02*
X001544Y003276D01*
X001544Y002878D02*
X000900Y002878D01*
X000900Y002479D02*
X001544Y002479D01*
X002208Y001682D02*
X022418Y001682D01*
X022421Y001284D02*
X002205Y001284D01*
X002781Y002081D02*
X022635Y002081D01*
X019634Y004472D02*
X032034Y004472D01*
X031880Y004073D02*
X019235Y004073D01*
X020032Y004870D02*
X032120Y004870D01*
X032138Y005269D02*
X031682Y005269D01*
X031300Y005269D02*
X031300Y005269D01*
X031300Y005127D02*
X031300Y005987D01*
X031300Y006847D01*
X031300Y005987D01*
X031300Y005987D01*
X031880Y005987D01*
X031300Y005987D01*
X031300Y005987D01*
X031300Y005987D01*
X031300Y005127D01*
X031300Y005667D02*
X031300Y005667D01*
X031880Y005667D02*
X032493Y005667D01*
X032800Y005667D02*
X032800Y005667D01*
X033107Y005667D02*
X039700Y005667D01*
X039700Y005269D02*
X035620Y005269D01*
X035468Y005332D02*
X035132Y005332D01*
X034821Y005203D01*
X034584Y004965D01*
X034455Y004655D01*
X034455Y004319D01*
X034584Y004008D01*
X034821Y003770D01*
X035132Y003642D01*
X035468Y003642D01*
X035779Y003770D01*
X035883Y003875D01*
X035887Y003873D01*
X035945Y003862D01*
X036300Y003862D01*
X036655Y003862D01*
X036713Y003873D01*
X036767Y003896D01*
X036816Y003929D01*
X036858Y003970D01*
X036891Y004020D01*
X036913Y004074D01*
X036925Y004132D01*
X036925Y004487D01*
X036925Y004841D01*
X036913Y004899D01*
X036891Y004954D01*
X036858Y005003D01*
X036816Y005045D01*
X036767Y005078D01*
X036713Y005100D01*
X036655Y005112D01*
X036300Y005112D01*
X035945Y005112D01*
X035887Y005100D01*
X035883Y005098D01*
X035779Y005203D01*
X035468Y005332D01*
X034980Y005269D02*
X033462Y005269D01*
X033480Y004870D02*
X034544Y004870D01*
X034455Y004472D02*
X033566Y004472D01*
X033720Y004073D02*
X034557Y004073D01*
X035052Y003675D02*
X033687Y003675D01*
X033441Y003276D02*
X039700Y003276D01*
X039700Y002878D02*
X032100Y002878D01*
X032100Y003276D02*
X032159Y003276D01*
X032072Y002479D02*
X039700Y002479D01*
X038602Y002081D02*
X036965Y002081D01*
X037182Y001682D02*
X038392Y001682D01*
X038395Y001284D02*
X037179Y001284D01*
X036300Y003862D02*
X036300Y004487D01*
X036300Y005112D01*
X036300Y004487D01*
X036300Y004487D01*
X036925Y004487D01*
X036300Y004487D01*
X036300Y004487D01*
X036300Y004487D01*
X036300Y003862D01*
X036300Y004073D02*
X036300Y004073D01*
X036300Y004472D02*
X036300Y004472D01*
X036925Y004472D02*
X039700Y004472D01*
X039700Y004073D02*
X036913Y004073D01*
X036919Y004870D02*
X039700Y004870D01*
X039700Y003675D02*
X035548Y003675D01*
X036300Y004870D02*
X036300Y004870D01*
X039700Y006066D02*
X031880Y006066D01*
X031846Y006464D02*
X039700Y006464D01*
X039700Y006863D02*
X030835Y006863D01*
X031300Y006464D02*
X031300Y006464D01*
X031300Y006066D02*
X031300Y006066D01*
X032800Y005269D02*
X032800Y005269D01*
X030520Y008058D02*
X039700Y008058D01*
X039700Y007660D02*
X029038Y007660D01*
X029038Y007261D02*
X039700Y007261D01*
X039700Y008457D02*
X030677Y008457D01*
X030677Y008487D02*
X030253Y008487D01*
X030677Y008487D01*
X030596Y008855D02*
X039700Y008855D01*
X039700Y009254D02*
X031107Y009254D01*
X030300Y009487D02*
X030300Y009487D01*
X030253Y008487D02*
X030253Y008487D01*
X030253Y008023D01*
X030253Y008487D01*
X030253Y008487D01*
X030253Y008457D02*
X030253Y008457D01*
X030253Y008058D02*
X030253Y008058D01*
X029986Y008058D02*
X029924Y008058D01*
X027981Y008457D02*
X024177Y008457D01*
X024177Y008487D02*
X023753Y008487D01*
X024177Y008487D01*
X024096Y008855D02*
X027526Y008855D01*
X027256Y009254D02*
X024607Y009254D01*
X023800Y009487D02*
X023800Y009487D01*
X023753Y008487D02*
X023753Y008487D01*
X023753Y008023D01*
X023753Y008487D01*
X023753Y008487D01*
X023753Y008457D02*
X023753Y008457D01*
X023753Y008058D02*
X023753Y008058D01*
X024020Y008058D02*
X027700Y008058D01*
X027562Y007660D02*
X019322Y007660D01*
X018923Y007261D02*
X020726Y007261D01*
X020327Y006863D02*
X018525Y006863D01*
X018126Y006464D02*
X019929Y006464D01*
X019530Y006066D02*
X017728Y006066D01*
X017329Y005667D02*
X019132Y005667D01*
X018733Y005269D02*
X016931Y005269D01*
X017253Y008023D02*
X017253Y008487D01*
X017677Y008487D01*
X017253Y008487D01*
X017253Y008487D01*
X017253Y008023D01*
X017253Y008058D02*
X017253Y008058D01*
X017520Y008058D02*
X018023Y008058D01*
X017677Y008457D02*
X018421Y008457D01*
X018581Y008855D02*
X017596Y008855D01*
X017253Y008487D02*
X017253Y008487D01*
X017253Y008457D02*
X017253Y008457D01*
X016986Y008058D02*
X016924Y008058D01*
X018107Y009254D02*
X020756Y009254D01*
X021026Y008855D02*
X020019Y008855D01*
X020038Y008457D02*
X021481Y008457D01*
X021880Y008058D02*
X019994Y008058D01*
X021228Y006066D02*
X022500Y006066D01*
X022500Y005667D02*
X020829Y005667D01*
X020431Y005269D02*
X022616Y005269D01*
X023424Y008058D02*
X023486Y008058D01*
X023800Y012487D02*
X024300Y012487D01*
X026300Y014487D01*
X032800Y014487D01*
X030800Y012487D01*
X030300Y012487D01*
X027300Y015487D02*
X035300Y015487D01*
X027300Y015487D02*
X020800Y015487D01*
X014300Y015487D01*
X007800Y015487D01*
X001800Y015487D01*
X001050Y014737D01*
X001050Y012987D01*
X001550Y012487D01*
X002300Y012487D01*
X004300Y012487D02*
X004800Y012487D01*
X006800Y014487D01*
X013300Y014487D01*
X011300Y012487D01*
X010800Y012487D01*
X013300Y014487D02*
X019800Y014487D01*
X017800Y012487D01*
X017300Y012487D01*
X019800Y014487D02*
X026300Y014487D01*
X017300Y009487D02*
X017300Y009487D01*
X007630Y006066D02*
X006400Y006066D01*
X006400Y005667D02*
X007132Y005667D01*
X006767Y005269D02*
X006400Y005269D01*
X006400Y004870D02*
X006700Y004870D01*
X005200Y004870D02*
X004900Y004870D01*
X004900Y005269D02*
X005200Y005269D01*
X005200Y005667D02*
X004900Y005667D01*
X004813Y006066D02*
X005200Y006066D01*
X005200Y006464D02*
X004421Y006464D01*
X004038Y006863D02*
X005200Y006863D01*
X005264Y007261D02*
X003947Y007261D01*
X004300Y009487D02*
X004300Y009487D01*
X031182Y001682D02*
X032659Y001682D01*
X032661Y001284D02*
X031179Y001284D01*
X031805Y002081D02*
X032989Y002081D01*
X033300Y002081D02*
X033300Y002081D01*
X033611Y002081D02*
X033635Y002081D01*
X033300Y001682D02*
X033300Y001682D01*
D24*
X028300Y007487D03*
X019300Y008487D03*
X012300Y007987D03*
X006300Y007487D03*
X003300Y006737D03*
X007800Y015487D03*
X014300Y015487D03*
X020800Y015487D03*
X027300Y015487D03*
X032800Y014487D03*
X035300Y015487D03*
M02*
