G75*
%MOIN*%
%OFA0B0*%
%FSLAX25Y25*%
%IPPOS*%
%LPD*%
%AMOC8*
5,1,8,0,0,1.08239X$1,22.5*
%
%ADD10C,0.01100*%
%ADD11R,0.04724X0.05512*%
%ADD12R,0.03268X0.02480*%
%ADD13R,0.02480X0.03268*%
%ADD14C,0.05200*%
%ADD15C,0.07400*%
%ADD16C,0.05150*%
%ADD17R,0.04331X0.03937*%
%ADD18C,0.07677*%
%ADD19C,0.13606*%
%ADD20C,0.06500*%
%ADD21R,0.06500X0.06500*%
%ADD22C,0.08000*%
%ADD23C,0.04000*%
%ADD24R,0.05906X0.05906*%
%ADD25R,0.05315X0.05315*%
%ADD26C,0.06496*%
D10*
X0053550Y0153550D02*
X0053550Y0157487D01*
X0055518Y0159455D01*
X0057487Y0157487D01*
X0057487Y0153550D01*
X0057487Y0156503D02*
X0053550Y0156503D01*
X0108550Y0156503D02*
X0112487Y0156503D01*
X0112487Y0157487D02*
X0110518Y0159455D01*
X0108550Y0157487D01*
X0108550Y0153550D01*
X0112487Y0153550D02*
X0112487Y0157487D01*
X0106503Y0223550D02*
X0103550Y0223550D01*
X0103550Y0229455D01*
X0106503Y0229455D01*
X0107487Y0228471D01*
X0107487Y0227487D01*
X0106503Y0226503D01*
X0103550Y0226503D01*
X0106503Y0226503D02*
X0107487Y0225518D01*
X0107487Y0224534D01*
X0106503Y0223550D01*
X0108550Y0243550D02*
X0111503Y0243550D01*
X0112487Y0244534D01*
X0112487Y0245518D01*
X0111503Y0246503D01*
X0108550Y0246503D01*
X0108550Y0249455D02*
X0108550Y0243550D01*
X0111503Y0246503D02*
X0112487Y0247487D01*
X0112487Y0248471D01*
X0111503Y0249455D01*
X0108550Y0249455D01*
X0114995Y0249455D02*
X0114995Y0248471D01*
X0116964Y0246503D01*
X0116964Y0243550D01*
X0116964Y0246503D02*
X0118932Y0248471D01*
X0118932Y0249455D01*
X0121441Y0249455D02*
X0124394Y0249455D01*
X0125378Y0248471D01*
X0125378Y0246503D01*
X0124394Y0245518D01*
X0121441Y0245518D01*
X0121441Y0243550D02*
X0121441Y0249455D01*
X0127886Y0247487D02*
X0127886Y0243550D01*
X0127886Y0246503D02*
X0131823Y0246503D01*
X0131823Y0247487D02*
X0129855Y0249455D01*
X0127886Y0247487D01*
X0131823Y0247487D02*
X0131823Y0243550D01*
X0134332Y0244534D02*
X0135316Y0243550D01*
X0137285Y0243550D01*
X0138269Y0244534D01*
X0138269Y0245518D01*
X0137285Y0246503D01*
X0135316Y0246503D01*
X0134332Y0247487D01*
X0134332Y0248471D01*
X0135316Y0249455D01*
X0137285Y0249455D01*
X0138269Y0248471D01*
X0140777Y0248471D02*
X0140777Y0247487D01*
X0141762Y0246503D01*
X0143730Y0246503D01*
X0144714Y0245518D01*
X0144714Y0244534D01*
X0143730Y0243550D01*
X0141762Y0243550D01*
X0140777Y0244534D01*
X0140777Y0248471D02*
X0141762Y0249455D01*
X0143730Y0249455D01*
X0144714Y0248471D01*
X0062487Y0228471D02*
X0062487Y0227487D01*
X0061503Y0226503D01*
X0058550Y0226503D01*
X0058550Y0229455D02*
X0058550Y0223550D01*
X0061503Y0223550D01*
X0062487Y0224534D01*
X0062487Y0225518D01*
X0061503Y0226503D01*
X0062487Y0228471D02*
X0061503Y0229455D01*
X0058550Y0229455D01*
X0041784Y0243550D02*
X0041784Y0249455D01*
X0037847Y0249455D02*
X0041784Y0243550D01*
X0037847Y0243550D02*
X0037847Y0249455D01*
X0035518Y0249455D02*
X0033550Y0249455D01*
X0034534Y0249455D02*
X0034534Y0243550D01*
X0033550Y0243550D02*
X0035518Y0243550D01*
X0298550Y0221503D02*
X0302487Y0221503D01*
X0301503Y0224455D02*
X0301503Y0218550D01*
X0304995Y0218550D02*
X0308932Y0222487D01*
X0308932Y0223471D01*
X0307948Y0224455D01*
X0305980Y0224455D01*
X0304995Y0223471D01*
X0301503Y0224455D02*
X0298550Y0221503D01*
X0304995Y0218550D02*
X0308932Y0218550D01*
X0311441Y0219534D02*
X0315378Y0223471D01*
X0315378Y0219534D01*
X0314394Y0218550D01*
X0312425Y0218550D01*
X0311441Y0219534D01*
X0311441Y0223471D01*
X0312425Y0224455D01*
X0314394Y0224455D01*
X0315378Y0223471D01*
X0317886Y0224455D02*
X0320839Y0224455D01*
X0321823Y0223471D01*
X0321823Y0219534D01*
X0320839Y0218550D01*
X0317886Y0218550D01*
X0317886Y0224455D01*
X0319855Y0159455D02*
X0317886Y0157487D01*
X0317886Y0153550D01*
X0315378Y0154534D02*
X0314394Y0153550D01*
X0312425Y0153550D01*
X0311441Y0154534D01*
X0315378Y0158471D01*
X0315378Y0154534D01*
X0317886Y0156503D02*
X0321823Y0156503D01*
X0321823Y0157487D02*
X0321823Y0153550D01*
X0321823Y0157487D02*
X0319855Y0159455D01*
X0315378Y0158471D02*
X0314394Y0159455D01*
X0312425Y0159455D01*
X0311441Y0158471D01*
X0311441Y0154534D01*
X0308932Y0153550D02*
X0304995Y0153550D01*
X0308932Y0157487D01*
X0308932Y0158471D01*
X0307948Y0159455D01*
X0305980Y0159455D01*
X0304995Y0158471D01*
X0302487Y0156503D02*
X0298550Y0156503D01*
X0301503Y0159455D01*
X0301503Y0153550D01*
X0307487Y0094455D02*
X0305518Y0093471D01*
X0303550Y0091503D01*
X0306503Y0091503D01*
X0307487Y0090518D01*
X0307487Y0089534D01*
X0306503Y0088550D01*
X0304534Y0088550D01*
X0303550Y0089534D01*
X0303550Y0091503D01*
X0309995Y0091503D02*
X0309995Y0089534D01*
X0310980Y0088550D01*
X0312948Y0088550D01*
X0313932Y0089534D01*
X0313932Y0090518D01*
X0312948Y0091503D01*
X0309995Y0091503D01*
X0311964Y0093471D01*
X0313932Y0094455D01*
X0316441Y0093471D02*
X0317425Y0094455D01*
X0319394Y0094455D01*
X0320378Y0093471D01*
X0316441Y0089534D01*
X0317425Y0088550D01*
X0319394Y0088550D01*
X0320378Y0089534D01*
X0320378Y0093471D01*
X0322886Y0092487D02*
X0324855Y0094455D01*
X0326823Y0092487D01*
X0326823Y0088550D01*
X0326823Y0091503D02*
X0322886Y0091503D01*
X0322886Y0092487D02*
X0322886Y0088550D01*
X0316441Y0089534D02*
X0316441Y0093471D01*
X0317425Y0029455D02*
X0319394Y0029455D01*
X0320378Y0028471D01*
X0316441Y0024534D01*
X0317425Y0023550D01*
X0319394Y0023550D01*
X0320378Y0024534D01*
X0320378Y0028471D01*
X0322886Y0029455D02*
X0325839Y0029455D01*
X0326823Y0028471D01*
X0326823Y0024534D01*
X0325839Y0023550D01*
X0322886Y0023550D01*
X0322886Y0029455D01*
X0317425Y0029455D02*
X0316441Y0028471D01*
X0316441Y0024534D01*
X0313932Y0024534D02*
X0313932Y0025518D01*
X0312948Y0026503D01*
X0309995Y0026503D01*
X0309995Y0024534D01*
X0310980Y0023550D01*
X0312948Y0023550D01*
X0313932Y0024534D01*
X0311964Y0028471D02*
X0309995Y0026503D01*
X0307487Y0025518D02*
X0306503Y0026503D01*
X0303550Y0026503D01*
X0303550Y0024534D01*
X0304534Y0023550D01*
X0306503Y0023550D01*
X0307487Y0024534D01*
X0307487Y0025518D01*
X0305518Y0028471D02*
X0303550Y0026503D01*
X0305518Y0028471D02*
X0307487Y0029455D01*
X0311964Y0028471D02*
X0313932Y0029455D01*
D11*
X0278906Y0018000D03*
X0267094Y0018000D03*
X0203906Y0018000D03*
X0192094Y0018000D03*
X0123906Y0018000D03*
X0112094Y0018000D03*
X0048906Y0018000D03*
X0037094Y0018000D03*
D12*
X0013000Y0063472D03*
X0013000Y0072528D03*
X0088000Y0072528D03*
X0088000Y0063472D03*
X0240500Y0063472D03*
X0240500Y0072528D03*
D13*
X0170028Y0043000D03*
X0160972Y0043000D03*
D14*
X0188000Y0190400D02*
X0188000Y0195600D01*
X0198000Y0195600D02*
X0198000Y0190400D01*
X0208000Y0190400D02*
X0208000Y0195600D01*
X0218000Y0195600D02*
X0218000Y0190400D01*
X0228000Y0190400D02*
X0228000Y0195600D01*
X0238000Y0195600D02*
X0238000Y0190400D01*
X0248000Y0190400D02*
X0248000Y0195600D01*
X0258000Y0195600D02*
X0258000Y0190400D01*
X0268000Y0190400D02*
X0268000Y0195600D01*
X0268000Y0220400D02*
X0268000Y0225600D01*
X0258000Y0225600D02*
X0258000Y0220400D01*
X0248000Y0220400D02*
X0248000Y0225600D01*
X0238000Y0225600D02*
X0238000Y0220400D01*
X0228000Y0220400D02*
X0228000Y0225600D01*
X0218000Y0225600D02*
X0218000Y0220400D01*
X0208000Y0220400D02*
X0208000Y0225600D01*
X0198000Y0225600D02*
X0198000Y0220400D01*
X0188000Y0220400D02*
X0188000Y0225600D01*
D15*
X0188000Y0258000D03*
X0198000Y0258000D03*
X0228000Y0258000D03*
X0238000Y0258000D03*
X0248000Y0258000D03*
X0258000Y0258000D03*
X0268000Y0258000D03*
X0298000Y0258000D03*
X0308000Y0258000D03*
D16*
X0293000Y0065575D02*
X0293000Y0060425D01*
X0283000Y0060425D02*
X0283000Y0065575D01*
X0273000Y0065575D02*
X0273000Y0060425D01*
X0273000Y0045575D02*
X0273000Y0040425D01*
X0283000Y0040425D02*
X0283000Y0045575D01*
X0293000Y0045575D02*
X0293000Y0040425D01*
X0253000Y0040425D02*
X0253000Y0045575D01*
X0253000Y0060425D02*
X0253000Y0065575D01*
X0218000Y0065575D02*
X0218000Y0060425D01*
X0208000Y0060425D02*
X0208000Y0065575D01*
X0198000Y0065575D02*
X0198000Y0060425D01*
X0198000Y0045575D02*
X0198000Y0040425D01*
X0208000Y0040425D02*
X0208000Y0045575D01*
X0218000Y0045575D02*
X0218000Y0040425D01*
X0178000Y0040425D02*
X0178000Y0045575D01*
X0178000Y0060425D02*
X0178000Y0065575D01*
X0143000Y0065575D02*
X0143000Y0060425D01*
X0133000Y0060425D02*
X0133000Y0065575D01*
X0123000Y0065575D02*
X0123000Y0060425D01*
X0123000Y0045575D02*
X0123000Y0040425D01*
X0133000Y0040425D02*
X0133000Y0045575D01*
X0143000Y0045575D02*
X0143000Y0040425D01*
X0103000Y0040425D02*
X0103000Y0045575D01*
X0103000Y0060425D02*
X0103000Y0065575D01*
X0068000Y0065575D02*
X0068000Y0060425D01*
X0058000Y0060425D02*
X0058000Y0065575D01*
X0048000Y0065575D02*
X0048000Y0060425D01*
X0048000Y0045575D02*
X0048000Y0040425D01*
X0058000Y0040425D02*
X0058000Y0045575D01*
X0068000Y0045575D02*
X0068000Y0040425D01*
X0028000Y0040425D02*
X0028000Y0045575D01*
X0028000Y0060425D02*
X0028000Y0065575D01*
D17*
X0014654Y0018000D03*
X0021346Y0018000D03*
X0094654Y0018000D03*
X0101346Y0018000D03*
X0174654Y0018000D03*
X0181346Y0018000D03*
X0249654Y0018000D03*
X0256346Y0018000D03*
D18*
X0353000Y0045500D03*
X0353000Y0110500D03*
X0348000Y0175500D03*
X0348000Y0240500D03*
X0133000Y0198000D03*
X0038000Y0198000D03*
X0038000Y0128000D03*
X0133000Y0128000D03*
D19*
X0119496Y0114496D03*
X0146504Y0114496D03*
X0146504Y0141504D03*
X0119496Y0141504D03*
X0119496Y0184496D03*
X0146504Y0184496D03*
X0146504Y0211504D03*
X0119496Y0211504D03*
X0051504Y0211504D03*
X0024496Y0211504D03*
X0024496Y0184496D03*
X0051504Y0184496D03*
X0051504Y0141504D03*
X0024496Y0141504D03*
X0024496Y0114496D03*
X0051504Y0114496D03*
X0334496Y0161996D03*
X0361504Y0161996D03*
X0361504Y0189004D03*
X0334496Y0189004D03*
X0334496Y0226996D03*
X0361504Y0226996D03*
X0361504Y0254004D03*
X0334496Y0254004D03*
X0339496Y0124004D03*
X0366504Y0124004D03*
X0366504Y0096996D03*
X0339496Y0096996D03*
X0339496Y0059004D03*
X0366504Y0059004D03*
X0366504Y0031996D03*
X0339496Y0031996D03*
D20*
X0178000Y0243000D03*
D21*
X0168000Y0243000D03*
D22*
X0177500Y0173000D03*
X0188500Y0173000D03*
D23*
X0195500Y0173000D01*
X0195500Y0173459D01*
X0195380Y0174369D01*
X0195211Y0175000D01*
X0206609Y0175000D01*
X0206649Y0174961D01*
X0208854Y0174047D01*
X0217146Y0174047D01*
X0219351Y0174961D01*
X0221039Y0176649D01*
X0221953Y0178854D01*
X0221953Y0182729D01*
X0222872Y0183109D01*
X0223000Y0183238D01*
X0223128Y0183109D01*
X0226289Y0181800D01*
X0229711Y0181800D01*
X0232872Y0183109D01*
X0233000Y0183238D01*
X0233128Y0183109D01*
X0236289Y0181800D01*
X0239711Y0181800D01*
X0242872Y0183109D01*
X0243000Y0183238D01*
X0243128Y0183109D01*
X0246289Y0181800D01*
X0249711Y0181800D01*
X0252872Y0183109D01*
X0253000Y0183238D01*
X0253128Y0183109D01*
X0256289Y0181800D01*
X0259711Y0181800D01*
X0262872Y0183109D01*
X0263000Y0183238D01*
X0263128Y0183109D01*
X0266289Y0181800D01*
X0269711Y0181800D01*
X0272872Y0183109D01*
X0275291Y0185528D01*
X0276600Y0188689D01*
X0276600Y0197311D01*
X0275291Y0200472D01*
X0272872Y0202891D01*
X0269711Y0204200D01*
X0266289Y0204200D01*
X0263128Y0202891D01*
X0263000Y0202762D01*
X0262872Y0202891D01*
X0259711Y0204200D01*
X0256289Y0204200D01*
X0253128Y0202891D01*
X0253000Y0202762D01*
X0252872Y0202891D01*
X0249711Y0204200D01*
X0246289Y0204200D01*
X0243128Y0202891D01*
X0243000Y0202762D01*
X0242872Y0202891D01*
X0239711Y0204200D01*
X0236289Y0204200D01*
X0233128Y0202891D01*
X0233000Y0202762D01*
X0232872Y0202891D01*
X0229711Y0204200D01*
X0226289Y0204200D01*
X0223128Y0202891D01*
X0223000Y0202762D01*
X0222872Y0202891D01*
X0219711Y0204200D01*
X0216289Y0204200D01*
X0213128Y0202891D01*
X0213000Y0202762D01*
X0212872Y0202891D01*
X0209711Y0204200D01*
X0206289Y0204200D01*
X0203128Y0202891D01*
X0203000Y0202762D01*
X0202872Y0202891D01*
X0199711Y0204200D01*
X0196289Y0204200D01*
X0193128Y0202891D01*
X0190731Y0200493D01*
X0190150Y0200790D01*
X0189311Y0201062D01*
X0188441Y0201200D01*
X0188000Y0201200D01*
X0188000Y0193000D01*
X0188000Y0193000D01*
X0188000Y0193000D01*
X0188000Y0201200D01*
X0188441Y0201200D01*
X0189311Y0201062D01*
X0189805Y0200902D01*
X0189862Y0201038D01*
X0192562Y0203738D01*
X0196090Y0205200D01*
X0199910Y0205200D01*
X0203000Y0203920D01*
X0206090Y0205200D01*
X0209910Y0205200D01*
X0213000Y0203920D01*
X0216090Y0205200D01*
X0219910Y0205200D01*
X0223000Y0203920D01*
X0226090Y0205200D01*
X0229910Y0205200D01*
X0233000Y0203920D01*
X0236090Y0205200D01*
X0239910Y0205200D01*
X0243000Y0203920D01*
X0246090Y0205200D01*
X0249910Y0205200D01*
X0253000Y0203920D01*
X0256090Y0205200D01*
X0259910Y0205200D01*
X0263000Y0203920D01*
X0266090Y0205200D01*
X0269910Y0205200D01*
X0273438Y0203738D01*
X0276138Y0201038D01*
X0277600Y0197510D01*
X0277600Y0188490D01*
X0276138Y0184962D01*
X0273438Y0182262D01*
X0269910Y0180800D01*
X0266090Y0180800D01*
X0263000Y0182080D01*
X0259910Y0180800D01*
X0256090Y0180800D01*
X0253000Y0182080D01*
X0249910Y0180800D01*
X0246090Y0180800D01*
X0243000Y0182080D01*
X0239910Y0180800D01*
X0236090Y0180800D01*
X0233000Y0182080D01*
X0229910Y0180800D01*
X0226090Y0180800D01*
X0223000Y0182080D01*
X0222953Y0182061D01*
X0222953Y0178655D01*
X0221887Y0176082D01*
X0219918Y0174113D01*
X0217345Y0173047D01*
X0208655Y0173047D01*
X0206355Y0174000D01*
X0195429Y0174000D01*
X0195500Y0173459D01*
X0195500Y0173000D01*
X0188500Y0173000D01*
X0188500Y0173000D01*
X0188500Y0173000D01*
X0195500Y0173000D01*
X0195500Y0172541D01*
X0195380Y0171631D01*
X0195143Y0170745D01*
X0194792Y0169897D01*
X0194333Y0169103D01*
X0193870Y0168500D01*
X0261609Y0168500D01*
X0261649Y0168539D01*
X0263854Y0169453D01*
X0272146Y0169453D01*
X0274351Y0168539D01*
X0276039Y0166851D01*
X0276953Y0164646D01*
X0276953Y0163000D01*
X0283000Y0163000D01*
X0283000Y0228000D01*
X0276314Y0228000D01*
X0276600Y0227311D01*
X0276600Y0218689D01*
X0275291Y0215528D01*
X0272872Y0213109D01*
X0269711Y0211800D01*
X0266289Y0211800D01*
X0263128Y0213109D01*
X0263000Y0213238D01*
X0262872Y0213109D01*
X0259711Y0211800D01*
X0256289Y0211800D01*
X0253128Y0213109D01*
X0253000Y0213238D01*
X0252872Y0213109D01*
X0249711Y0211800D01*
X0246289Y0211800D01*
X0243128Y0213109D01*
X0243000Y0213238D01*
X0242872Y0213109D01*
X0239711Y0211800D01*
X0236289Y0211800D01*
X0233128Y0213109D01*
X0233000Y0213238D01*
X0232872Y0213109D01*
X0229711Y0211800D01*
X0226289Y0211800D01*
X0223128Y0213109D01*
X0223000Y0213238D01*
X0222872Y0213109D01*
X0219711Y0211800D01*
X0216289Y0211800D01*
X0213128Y0213109D01*
X0213000Y0213238D01*
X0212872Y0213109D01*
X0209711Y0211800D01*
X0206289Y0211800D01*
X0203128Y0213109D01*
X0203000Y0213238D01*
X0202872Y0213109D01*
X0199711Y0211800D01*
X0196289Y0211800D01*
X0193128Y0213109D01*
X0193000Y0213238D01*
X0192872Y0213109D01*
X0189711Y0211800D01*
X0186289Y0211800D01*
X0183128Y0213109D01*
X0180709Y0215528D01*
X0179400Y0218689D01*
X0179400Y0227311D01*
X0179686Y0228000D01*
X0159314Y0228000D01*
X0174782Y0212532D01*
X0176000Y0209591D01*
X0176000Y0191314D01*
X0176314Y0191000D01*
X0182400Y0191000D01*
X0182400Y0193000D01*
X0188000Y0193000D01*
X0188000Y0193000D01*
X0188000Y0201200D01*
X0187559Y0201200D01*
X0186689Y0201062D01*
X0185850Y0200790D01*
X0185065Y0200390D01*
X0184352Y0199871D01*
X0183729Y0199248D01*
X0183210Y0198535D01*
X0182810Y0197750D01*
X0182538Y0196911D01*
X0182400Y0196041D01*
X0182400Y0193000D01*
X0188000Y0193000D01*
X0188000Y0193000D01*
X0188000Y0201200D01*
X0187559Y0201200D01*
X0186689Y0201062D01*
X0185850Y0200790D01*
X0185065Y0200390D01*
X0184352Y0199871D01*
X0183729Y0199248D01*
X0183210Y0198535D01*
X0182810Y0197750D01*
X0182538Y0196911D01*
X0182400Y0196041D01*
X0182400Y0193000D01*
X0188000Y0193000D01*
X0182400Y0193000D01*
X0182400Y0192000D01*
X0177000Y0192000D01*
X0177000Y0209790D01*
X0175630Y0213098D01*
X0150630Y0238098D01*
X0149793Y0238935D01*
X0150131Y0239273D01*
X0151115Y0240257D01*
X0152264Y0243032D01*
X0152264Y0245551D01*
X0152264Y0247020D01*
X0152264Y0247020D01*
X0152264Y0247020D01*
X0152264Y0249973D01*
X0151115Y0252748D01*
X0150131Y0253732D01*
X0149537Y0254326D01*
X0148007Y0255856D01*
X0146498Y0256481D01*
X0145232Y0257005D01*
X0145232Y0257005D01*
X0145232Y0257005D01*
X0143263Y0257005D01*
X0142729Y0257005D01*
X0142228Y0257005D01*
X0140260Y0257005D01*
X0140260Y0257005D01*
X0140260Y0257005D01*
X0139523Y0256700D01*
X0138786Y0257005D01*
X0136818Y0257005D01*
X0136818Y0257005D01*
X0136284Y0257005D01*
X0135783Y0257005D01*
X0135783Y0257005D01*
X0133814Y0257005D01*
X0132585Y0256496D01*
X0131357Y0257005D01*
X0128353Y0257005D01*
X0127124Y0256496D01*
X0125895Y0257005D01*
X0124410Y0257005D01*
X0122892Y0257005D01*
X0122892Y0257005D01*
X0117430Y0257005D01*
X0116964Y0256812D01*
X0116497Y0257005D01*
X0113494Y0257005D01*
X0113249Y0256904D01*
X0113004Y0257005D01*
X0111519Y0257005D01*
X0110001Y0257005D01*
X0110001Y0257005D01*
X0107048Y0257005D01*
X0104273Y0255856D01*
X0102149Y0253732D01*
X0101000Y0250957D01*
X0101000Y0242048D01*
X0102149Y0239273D01*
X0104273Y0237149D01*
X0104622Y0237005D01*
X0102048Y0237005D01*
X0099273Y0235856D01*
X0097149Y0233732D01*
X0096000Y0230957D01*
X0096000Y0222048D01*
X0097149Y0219273D01*
X0099273Y0217149D01*
X0102048Y0216000D01*
X0106411Y0216000D01*
X0105693Y0213321D01*
X0105693Y0209687D01*
X0106634Y0206176D01*
X0108451Y0203029D01*
X0111021Y0200459D01*
X0114168Y0198641D01*
X0116562Y0198000D01*
X0114168Y0197359D01*
X0111021Y0195541D01*
X0108451Y0192971D01*
X0106634Y0189824D01*
X0105693Y0186313D01*
X0105693Y0182679D01*
X0106634Y0179168D01*
X0108451Y0176021D01*
X0111021Y0173451D01*
X0114168Y0171634D01*
X0117679Y0170693D01*
X0121313Y0170693D01*
X0124824Y0171634D01*
X0127971Y0173451D01*
X0130541Y0176021D01*
X0132359Y0179168D01*
X0133000Y0181562D01*
X0133641Y0179168D01*
X0135459Y0176021D01*
X0138029Y0173451D01*
X0141176Y0171634D01*
X0144687Y0170693D01*
X0148321Y0170693D01*
X0151832Y0171634D01*
X0154979Y0173451D01*
X0157549Y0176021D01*
X0159366Y0179168D01*
X0160307Y0182679D01*
X0160307Y0183054D01*
X0160370Y0182902D01*
X0162902Y0180370D01*
X0166991Y0176281D01*
X0166500Y0174448D01*
X0166500Y0171552D01*
X0166795Y0170453D01*
X0166155Y0170453D01*
X0163582Y0169387D01*
X0161613Y0167418D01*
X0160547Y0164845D01*
X0160547Y0156155D01*
X0161613Y0153582D01*
X0163582Y0151613D01*
X0166155Y0150547D01*
X0174845Y0150547D01*
X0177145Y0151500D01*
X0258047Y0151500D01*
X0258047Y0143655D01*
X0259000Y0141355D01*
X0259000Y0137000D01*
X0206210Y0137000D01*
X0202902Y0135630D01*
X0200370Y0133098D01*
X0191976Y0124704D01*
X0191887Y0124918D01*
X0189918Y0126887D01*
X0187345Y0127953D01*
X0178655Y0127953D01*
X0176082Y0126887D01*
X0174113Y0124918D01*
X0173047Y0122345D01*
X0173047Y0120775D01*
X0172870Y0120598D01*
X0171500Y0117290D01*
X0171500Y0089728D01*
X0170598Y0090630D01*
X0167290Y0092000D01*
X0126728Y0092000D01*
X0122953Y0095775D01*
X0122953Y0097345D01*
X0121887Y0099918D01*
X0121112Y0100693D01*
X0121313Y0100693D01*
X0124824Y0101634D01*
X0127971Y0103451D01*
X0130541Y0106021D01*
X0132359Y0109168D01*
X0133000Y0111562D01*
X0133641Y0109168D01*
X0135459Y0106021D01*
X0138029Y0103451D01*
X0141176Y0101634D01*
X0144687Y0100693D01*
X0148321Y0100693D01*
X0151832Y0101634D01*
X0154979Y0103451D01*
X0157549Y0106021D01*
X0159366Y0109168D01*
X0160307Y0112679D01*
X0160307Y0116313D01*
X0159366Y0119824D01*
X0157549Y0122971D01*
X0154979Y0125541D01*
X0151832Y0127359D01*
X0149438Y0128000D01*
X0151832Y0128641D01*
X0154979Y0130459D01*
X0157549Y0133029D01*
X0159366Y0136176D01*
X0160307Y0139687D01*
X0160307Y0143321D01*
X0159366Y0146832D01*
X0157549Y0149979D01*
X0154979Y0152549D01*
X0151832Y0154366D01*
X0148321Y0155307D01*
X0144687Y0155307D01*
X0141176Y0154366D01*
X0138029Y0152549D01*
X0135459Y0149979D01*
X0133641Y0146832D01*
X0133000Y0144438D01*
X0132359Y0146832D01*
X0130541Y0149979D01*
X0127971Y0152549D01*
X0124824Y0154366D01*
X0121313Y0155307D01*
X0120037Y0155307D01*
X0120037Y0158988D01*
X0119354Y0160637D01*
X0118887Y0161763D01*
X0118887Y0161763D01*
X0118856Y0161795D01*
X0116919Y0163732D01*
X0115853Y0164797D01*
X0114795Y0165856D01*
X0113938Y0166211D01*
X0112020Y0167005D01*
X0109017Y0167005D01*
X0107126Y0166222D01*
X0106242Y0165856D01*
X0106242Y0165856D01*
X0106242Y0165856D01*
X0105216Y0164830D01*
X0104118Y0163732D01*
X0104118Y0163732D01*
X0102149Y0161763D01*
X0101664Y0160591D01*
X0101000Y0158988D01*
X0101000Y0152048D01*
X0101661Y0150453D01*
X0093655Y0150453D01*
X0091082Y0149387D01*
X0089113Y0147418D01*
X0088047Y0144845D01*
X0088047Y0136155D01*
X0089000Y0133855D01*
X0089000Y0076768D01*
X0088000Y0076768D01*
X0087000Y0076768D01*
X0087000Y0133855D01*
X0087953Y0136155D01*
X0087953Y0144845D01*
X0086887Y0147418D01*
X0084918Y0149387D01*
X0082345Y0150453D01*
X0077000Y0150453D01*
X0077000Y0174272D01*
X0091070Y0188343D01*
X0092050Y0188343D01*
X0094623Y0189408D01*
X0096592Y0191377D01*
X0097657Y0193950D01*
X0097657Y0202050D01*
X0096592Y0204623D01*
X0094623Y0206592D01*
X0092050Y0207657D01*
X0083950Y0207657D01*
X0081377Y0206592D01*
X0079408Y0204623D01*
X0078343Y0202050D01*
X0078343Y0201070D01*
X0064943Y0187671D01*
X0064366Y0189824D01*
X0062549Y0192971D01*
X0059979Y0195541D01*
X0056832Y0197359D01*
X0054438Y0198000D01*
X0056832Y0198641D01*
X0059979Y0200459D01*
X0062549Y0203029D01*
X0064366Y0206176D01*
X0065307Y0209687D01*
X0065307Y0213321D01*
X0064431Y0216591D01*
X0065779Y0217149D01*
X0067903Y0219273D01*
X0068887Y0220257D01*
X0070037Y0223032D01*
X0070037Y0225551D01*
X0070037Y0227020D01*
X0070037Y0227020D01*
X0070037Y0228504D01*
X0070037Y0229973D01*
X0069718Y0230741D01*
X0068887Y0232748D01*
X0068863Y0232771D01*
X0067903Y0233732D01*
X0067357Y0234278D01*
X0065779Y0235856D01*
X0064316Y0236462D01*
X0063004Y0237005D01*
X0061519Y0237005D01*
X0060001Y0237005D01*
X0060001Y0237005D01*
X0057048Y0237005D01*
X0054273Y0235856D01*
X0052149Y0233732D01*
X0051000Y0230957D01*
X0051000Y0225307D01*
X0049687Y0225307D01*
X0046176Y0224366D01*
X0043029Y0222549D01*
X0040459Y0219979D01*
X0038641Y0216832D01*
X0038000Y0214438D01*
X0037359Y0216832D01*
X0035541Y0219979D01*
X0032971Y0222549D01*
X0029824Y0224366D01*
X0026313Y0225307D01*
X0022679Y0225307D01*
X0022000Y0225125D01*
X0022000Y0226355D01*
X0022953Y0228655D01*
X0022953Y0237345D01*
X0021887Y0239918D01*
X0019918Y0241887D01*
X0017345Y0242953D01*
X0010000Y0242953D01*
X0010000Y0254976D01*
X0011043Y0253933D01*
X0013627Y0252441D01*
X0016508Y0251669D01*
X0019492Y0251669D01*
X0022373Y0252441D01*
X0024957Y0253933D01*
X0027067Y0256043D01*
X0028559Y0258627D01*
X0029331Y0261508D01*
X0029331Y0264492D01*
X0028559Y0267373D01*
X0027067Y0269957D01*
X0026063Y0270961D01*
X0374937Y0270961D01*
X0373933Y0269957D01*
X0372441Y0267373D01*
X0371669Y0264492D01*
X0371669Y0263359D01*
X0369979Y0265049D01*
X0366832Y0266866D01*
X0363321Y0267807D01*
X0359687Y0267807D01*
X0356176Y0266866D01*
X0353029Y0265049D01*
X0350459Y0262479D01*
X0348641Y0259332D01*
X0348000Y0256938D01*
X0347359Y0259332D01*
X0345541Y0262479D01*
X0342971Y0265049D01*
X0339824Y0266866D01*
X0336313Y0267807D01*
X0332679Y0267807D01*
X0329168Y0266866D01*
X0326021Y0265049D01*
X0323451Y0262479D01*
X0321634Y0259332D01*
X0320693Y0255821D01*
X0320693Y0252187D01*
X0321634Y0248676D01*
X0323451Y0245529D01*
X0326021Y0242959D01*
X0329168Y0241141D01*
X0331562Y0240500D01*
X0329168Y0239859D01*
X0326021Y0238041D01*
X0323451Y0235471D01*
X0321634Y0232324D01*
X0321548Y0232005D01*
X0320823Y0232005D01*
X0319337Y0232005D01*
X0316385Y0232005D01*
X0316140Y0231904D01*
X0315895Y0232005D01*
X0313927Y0232005D01*
X0313927Y0232005D01*
X0313426Y0232005D01*
X0312892Y0232005D01*
X0312892Y0232005D01*
X0310923Y0232005D01*
X0310187Y0231700D01*
X0309450Y0232005D01*
X0309450Y0232005D01*
X0309450Y0232005D01*
X0307481Y0232005D01*
X0306947Y0232005D01*
X0306446Y0232005D01*
X0304478Y0232005D01*
X0304478Y0232005D01*
X0304478Y0232005D01*
X0303741Y0231700D01*
X0303004Y0232005D01*
X0300001Y0232005D01*
X0297226Y0230856D01*
X0294273Y0227903D01*
X0292149Y0225779D01*
X0291000Y0223004D01*
X0291000Y0220001D01*
X0292149Y0217226D01*
X0294273Y0215102D01*
X0294859Y0214859D01*
X0295102Y0214273D01*
X0297226Y0212149D01*
X0300001Y0211000D01*
X0303004Y0211000D01*
X0303249Y0211101D01*
X0303494Y0211000D01*
X0310434Y0211000D01*
X0310679Y0211101D01*
X0310923Y0211000D01*
X0315895Y0211000D01*
X0316140Y0211101D01*
X0316385Y0211000D01*
X0322341Y0211000D01*
X0325116Y0212149D01*
X0327857Y0214891D01*
X0329168Y0214134D01*
X0332679Y0213193D01*
X0336313Y0213193D01*
X0339824Y0214134D01*
X0342971Y0215951D01*
X0345541Y0218521D01*
X0347359Y0221668D01*
X0348000Y0224062D01*
X0348641Y0221668D01*
X0350459Y0218521D01*
X0353029Y0215951D01*
X0356176Y0214134D01*
X0359687Y0213193D01*
X0363321Y0213193D01*
X0366832Y0214134D01*
X0369979Y0215951D01*
X0372549Y0218521D01*
X0374366Y0221668D01*
X0375307Y0225179D01*
X0375307Y0228813D01*
X0374366Y0232324D01*
X0372549Y0235471D01*
X0369979Y0238041D01*
X0366832Y0239859D01*
X0364438Y0240500D01*
X0366832Y0241141D01*
X0369979Y0242959D01*
X0372549Y0245529D01*
X0374366Y0248676D01*
X0375307Y0252187D01*
X0375307Y0254669D01*
X0376043Y0253933D01*
X0378627Y0252441D01*
X0381508Y0251669D01*
X0384492Y0251669D01*
X0387373Y0252441D01*
X0389701Y0253785D01*
X0389701Y0027215D01*
X0387373Y0028559D01*
X0384492Y0029331D01*
X0381508Y0029331D01*
X0379969Y0028918D01*
X0380307Y0030179D01*
X0380307Y0033813D01*
X0379366Y0037324D01*
X0377549Y0040471D01*
X0374979Y0043041D01*
X0371832Y0044859D01*
X0369438Y0045500D01*
X0371832Y0046141D01*
X0374979Y0047959D01*
X0377549Y0050529D01*
X0379366Y0053676D01*
X0380307Y0057187D01*
X0380307Y0060821D01*
X0379366Y0064332D01*
X0377549Y0067479D01*
X0374979Y0070049D01*
X0371832Y0071866D01*
X0368321Y0072807D01*
X0364687Y0072807D01*
X0361176Y0071866D01*
X0358029Y0070049D01*
X0355459Y0067479D01*
X0353641Y0064332D01*
X0353000Y0061938D01*
X0352359Y0064332D01*
X0350541Y0067479D01*
X0347971Y0070049D01*
X0344824Y0071866D01*
X0341313Y0072807D01*
X0337679Y0072807D01*
X0334168Y0071866D01*
X0331021Y0070049D01*
X0328451Y0067479D01*
X0326634Y0064332D01*
X0325693Y0060821D01*
X0325693Y0057187D01*
X0326634Y0053676D01*
X0328451Y0050529D01*
X0331021Y0047959D01*
X0334168Y0046141D01*
X0336562Y0045500D01*
X0334168Y0044859D01*
X0331021Y0043041D01*
X0328451Y0040471D01*
X0326634Y0037324D01*
X0326548Y0037005D01*
X0325823Y0037005D01*
X0324337Y0037005D01*
X0321385Y0037005D01*
X0321140Y0036904D01*
X0320895Y0037005D01*
X0318927Y0037005D01*
X0318927Y0037005D01*
X0318426Y0037005D01*
X0317892Y0037005D01*
X0317892Y0037005D01*
X0315923Y0037005D01*
X0315582Y0036864D01*
X0314895Y0037092D01*
X0311899Y0036880D01*
X0310775Y0036317D01*
X0308449Y0037092D01*
X0305453Y0036880D01*
X0302381Y0035344D01*
X0301242Y0034871D01*
X0301046Y0034676D01*
X0300799Y0034552D01*
X0299990Y0033620D01*
X0299273Y0032903D01*
X0297149Y0030779D01*
X0296000Y0028004D01*
X0296000Y0023032D01*
X0297149Y0020257D01*
X0298134Y0019273D01*
X0300257Y0017149D01*
X0303032Y0016000D01*
X0308004Y0016000D01*
X0308741Y0016305D01*
X0309478Y0016000D01*
X0314450Y0016000D01*
X0315187Y0016305D01*
X0315923Y0016000D01*
X0320895Y0016000D01*
X0321140Y0016101D01*
X0321385Y0016000D01*
X0327341Y0016000D01*
X0330116Y0017149D01*
X0331100Y0018134D01*
X0332857Y0019891D01*
X0334168Y0019134D01*
X0337679Y0018193D01*
X0341313Y0018193D01*
X0344824Y0019134D01*
X0347971Y0020951D01*
X0350541Y0023521D01*
X0352359Y0026668D01*
X0353000Y0029062D01*
X0353641Y0026668D01*
X0355459Y0023521D01*
X0358029Y0020951D01*
X0361176Y0019134D01*
X0364687Y0018193D01*
X0368321Y0018193D01*
X0371669Y0019090D01*
X0371669Y0016508D01*
X0372441Y0013627D01*
X0373933Y0011043D01*
X0374976Y0010000D01*
X0274112Y0010000D01*
X0275391Y0011279D01*
X0275826Y0012328D01*
X0276248Y0012244D01*
X0278905Y0012244D01*
X0278905Y0018000D01*
X0278906Y0018000D01*
X0284268Y0018000D01*
X0284268Y0021051D01*
X0284152Y0021631D01*
X0283926Y0022177D01*
X0283825Y0022329D01*
X0297089Y0023018D01*
X0297997Y0020824D01*
X0298981Y0019840D01*
X0300824Y0017997D01*
X0303231Y0017000D01*
X0307805Y0017000D01*
X0308741Y0017388D01*
X0309677Y0017000D01*
X0314251Y0017000D01*
X0315187Y0017388D01*
X0316122Y0017000D01*
X0320696Y0017000D01*
X0321140Y0017184D01*
X0321584Y0017000D01*
X0327142Y0017000D01*
X0329549Y0017997D01*
X0330533Y0018981D01*
X0332376Y0020824D01*
X0332543Y0021227D01*
X0334554Y0020065D01*
X0337810Y0019193D01*
X0341182Y0019193D01*
X0344438Y0020065D01*
X0347357Y0021751D01*
X0349741Y0024135D01*
X0350704Y0025803D01*
X0355162Y0026034D01*
X0356259Y0024135D01*
X0358643Y0021751D01*
X0361562Y0020065D01*
X0364818Y0019193D01*
X0368190Y0019193D01*
X0371446Y0020065D01*
X0373117Y0021030D01*
X0372669Y0019360D01*
X0372669Y0016640D01*
X0373373Y0014012D01*
X0374733Y0011657D01*
X0376657Y0009733D01*
X0377927Y0009000D01*
X0027250Y0009000D01*
X0033362Y0009317D01*
X0033539Y0009244D01*
X0040650Y0009244D01*
X0041898Y0009761D01*
X0082801Y0011886D01*
X0083468Y0011218D01*
X0086409Y0010000D01*
X0096245Y0010000D01*
X0096321Y0010031D01*
X0099679Y0010031D01*
X0099755Y0010000D01*
X0106714Y0010000D01*
X0108539Y0009244D01*
X0115650Y0009244D01*
X0117855Y0010158D01*
X0119543Y0011845D01*
X0119909Y0012728D01*
X0120122Y0012586D01*
X0120668Y0012359D01*
X0121248Y0012244D01*
X0123905Y0012244D01*
X0123905Y0014021D01*
X0123906Y0014021D01*
X0123906Y0012244D01*
X0126563Y0012244D01*
X0127143Y0012359D01*
X0127689Y0012586D01*
X0128180Y0012914D01*
X0128598Y0013332D01*
X0128926Y0013823D01*
X0129120Y0014292D01*
X0165103Y0016161D01*
X0166218Y0013468D01*
X0168468Y0011218D01*
X0169063Y0010972D01*
X0169089Y0010945D01*
X0171295Y0010031D01*
X0171333Y0010031D01*
X0171409Y0010000D01*
X0176245Y0010000D01*
X0176321Y0010031D01*
X0179679Y0010031D01*
X0179755Y0010000D01*
X0186714Y0010000D01*
X0188539Y0009244D01*
X0195650Y0009244D01*
X0197855Y0010158D01*
X0199543Y0011845D01*
X0199909Y0012728D01*
X0200122Y0012586D01*
X0200668Y0012359D01*
X0201248Y0012244D01*
X0203905Y0012244D01*
X0203905Y0018000D01*
X0203906Y0018000D01*
X0209268Y0018000D01*
X0209268Y0018455D01*
X0232500Y0019662D01*
X0232500Y0016409D01*
X0233718Y0013468D01*
X0235968Y0011218D01*
X0238909Y0010000D01*
X0251245Y0010000D01*
X0251321Y0010031D01*
X0254679Y0010031D01*
X0254755Y0010000D01*
X0261714Y0010000D01*
X0263539Y0009244D01*
X0270650Y0009244D01*
X0272855Y0010158D01*
X0274543Y0011845D01*
X0274909Y0012728D01*
X0275122Y0012586D01*
X0275668Y0012359D01*
X0276248Y0012244D01*
X0278905Y0012244D01*
X0278905Y0018000D01*
X0278905Y0023756D01*
X0276248Y0023756D01*
X0275826Y0023672D01*
X0275391Y0024721D01*
X0273422Y0026690D01*
X0270849Y0027756D01*
X0263340Y0027756D01*
X0261515Y0027000D01*
X0254556Y0027000D01*
X0254480Y0026968D01*
X0251520Y0026968D01*
X0251444Y0027000D01*
X0249500Y0027000D01*
X0249500Y0036077D01*
X0250078Y0035657D01*
X0250860Y0035259D01*
X0251695Y0034988D01*
X0252561Y0034850D01*
X0253000Y0034850D01*
X0253439Y0034850D01*
X0254305Y0034988D01*
X0255140Y0035259D01*
X0255922Y0035657D01*
X0256632Y0036173D01*
X0257252Y0036793D01*
X0257768Y0037503D01*
X0258166Y0038285D01*
X0258438Y0039120D01*
X0258575Y0039986D01*
X0258575Y0043000D01*
X0258575Y0046014D01*
X0258438Y0046880D01*
X0258166Y0047715D01*
X0257768Y0048497D01*
X0257252Y0049207D01*
X0256632Y0049827D01*
X0255922Y0050343D01*
X0255140Y0050741D01*
X0254804Y0050850D01*
X0254905Y0050850D01*
X0258424Y0052308D01*
X0261117Y0055002D01*
X0262575Y0058521D01*
X0262575Y0067479D01*
X0261117Y0070998D01*
X0258424Y0073692D01*
X0254905Y0075150D01*
X0251095Y0075150D01*
X0247576Y0073692D01*
X0245166Y0071281D01*
X0245134Y0071295D01*
X0245134Y0072527D01*
X0240500Y0072527D01*
X0235866Y0072527D01*
X0235866Y0071295D01*
X0235402Y0071102D01*
X0234979Y0070679D01*
X0234901Y0070647D01*
X0232932Y0068678D01*
X0232900Y0068600D01*
X0232870Y0068571D01*
X0231500Y0065263D01*
X0231500Y0057145D01*
X0230547Y0054845D01*
X0230547Y0046155D01*
X0231500Y0043855D01*
X0231500Y0016210D01*
X0232870Y0012902D01*
X0235402Y0010370D01*
X0236296Y0010000D01*
X0199112Y0010000D01*
X0200391Y0011279D01*
X0200826Y0012328D01*
X0201248Y0012244D01*
X0203905Y0012244D01*
X0203905Y0018000D01*
X0203905Y0023756D01*
X0201248Y0023756D01*
X0200826Y0023672D01*
X0200391Y0024721D01*
X0198422Y0026690D01*
X0195849Y0027756D01*
X0188340Y0027756D01*
X0186515Y0027000D01*
X0182000Y0027000D01*
X0182000Y0032290D01*
X0180660Y0035524D01*
X0180922Y0035657D01*
X0181632Y0036173D01*
X0182252Y0036793D01*
X0182768Y0037503D01*
X0183166Y0038285D01*
X0183438Y0039120D01*
X0183575Y0039986D01*
X0183575Y0043000D01*
X0183575Y0043080D01*
X0183655Y0043047D01*
X0188425Y0043047D01*
X0188425Y0038521D01*
X0189883Y0035002D01*
X0192576Y0032308D01*
X0196095Y0030850D01*
X0199905Y0030850D01*
X0203000Y0032133D01*
X0206095Y0030850D01*
X0209905Y0030850D01*
X0213000Y0032133D01*
X0216095Y0030850D01*
X0219905Y0030850D01*
X0223424Y0032308D01*
X0226117Y0035002D01*
X0227575Y0038521D01*
X0227575Y0047479D01*
X0226117Y0050998D01*
X0224116Y0053000D01*
X0226117Y0055002D01*
X0227575Y0058521D01*
X0227575Y0067479D01*
X0226117Y0070998D01*
X0223424Y0073692D01*
X0219905Y0075150D01*
X0217953Y0075150D01*
X0217953Y0077345D01*
X0217109Y0079381D01*
X0226728Y0089000D01*
X0259272Y0089000D01*
X0273047Y0075225D01*
X0273047Y0075150D01*
X0271095Y0075150D01*
X0267576Y0073692D01*
X0264883Y0070998D01*
X0263425Y0067479D01*
X0263425Y0058521D01*
X0264883Y0055002D01*
X0266884Y0053000D01*
X0264883Y0050998D01*
X0263425Y0047479D01*
X0263425Y0038521D01*
X0264883Y0035002D01*
X0267576Y0032308D01*
X0271095Y0030850D01*
X0274905Y0030850D01*
X0278000Y0032133D01*
X0281095Y0030850D01*
X0284905Y0030850D01*
X0288000Y0032133D01*
X0291095Y0030850D01*
X0294905Y0030850D01*
X0298424Y0032308D01*
X0301117Y0035002D01*
X0302575Y0038521D01*
X0302575Y0047479D01*
X0301117Y0050998D01*
X0299116Y0053000D01*
X0301117Y0055002D01*
X0302575Y0058521D01*
X0302575Y0067479D01*
X0301117Y0070998D01*
X0298424Y0073692D01*
X0294905Y0075150D01*
X0292953Y0075150D01*
X0292953Y0082345D01*
X0291887Y0084918D01*
X0289918Y0086887D01*
X0287345Y0087953D01*
X0285775Y0087953D01*
X0268098Y0105630D01*
X0264790Y0107000D01*
X0221210Y0107000D01*
X0217902Y0105630D01*
X0215370Y0103098D01*
X0200370Y0088098D01*
X0199000Y0084790D01*
X0199000Y0079645D01*
X0198047Y0077345D01*
X0198047Y0075150D01*
X0197000Y0075150D01*
X0197000Y0104272D01*
X0211728Y0119000D01*
X0269790Y0119000D01*
X0273098Y0120370D01*
X0275630Y0122902D01*
X0277000Y0126210D01*
X0277000Y0141355D01*
X0277953Y0143655D01*
X0277953Y0152345D01*
X0277164Y0154250D01*
X0277953Y0156155D01*
X0277953Y0164845D01*
X0276887Y0167418D01*
X0274918Y0169387D01*
X0272345Y0170453D01*
X0263655Y0170453D01*
X0261355Y0169500D01*
X0194562Y0169500D01*
X0194792Y0169897D01*
X0195143Y0170745D01*
X0195380Y0171631D01*
X0195500Y0172541D01*
X0195500Y0173000D01*
X0188500Y0173000D01*
X0195228Y0174936D02*
X0206708Y0174936D01*
X0195194Y0170937D02*
X0283000Y0170937D01*
X0283000Y0166939D02*
X0275952Y0166939D01*
X0277085Y0166939D02*
X0299841Y0166939D01*
X0300001Y0167005D02*
X0297226Y0165856D01*
X0294273Y0162903D01*
X0292149Y0160779D01*
X0291000Y0158004D01*
X0291000Y0155001D01*
X0292149Y0152226D01*
X0294273Y0150102D01*
X0294859Y0149859D01*
X0295102Y0149273D01*
X0297226Y0147149D01*
X0300001Y0146000D01*
X0303004Y0146000D01*
X0303249Y0146101D01*
X0303494Y0146000D01*
X0310434Y0146000D01*
X0310679Y0146101D01*
X0310923Y0146000D01*
X0315895Y0146000D01*
X0316140Y0146101D01*
X0316385Y0146000D01*
X0319388Y0146000D01*
X0319855Y0146193D01*
X0320321Y0146000D01*
X0323325Y0146000D01*
X0326100Y0147149D01*
X0328224Y0149273D01*
X0328359Y0149601D01*
X0329168Y0149134D01*
X0332679Y0148193D01*
X0336313Y0148193D01*
X0339824Y0149134D01*
X0342971Y0150951D01*
X0345541Y0153521D01*
X0347359Y0156668D01*
X0348000Y0159062D01*
X0348641Y0156668D01*
X0350459Y0153521D01*
X0353029Y0150951D01*
X0356176Y0149134D01*
X0359687Y0148193D01*
X0363321Y0148193D01*
X0366832Y0149134D01*
X0369979Y0150951D01*
X0372549Y0153521D01*
X0374366Y0156668D01*
X0375307Y0160179D01*
X0375307Y0163813D01*
X0374366Y0167324D01*
X0372549Y0170471D01*
X0369979Y0173041D01*
X0366832Y0174859D01*
X0364438Y0175500D01*
X0366832Y0176141D01*
X0369979Y0177959D01*
X0372549Y0180529D01*
X0374366Y0183676D01*
X0375307Y0187187D01*
X0375307Y0190821D01*
X0374366Y0194332D01*
X0372549Y0197479D01*
X0369979Y0200049D01*
X0366832Y0201866D01*
X0363321Y0202807D01*
X0359687Y0202807D01*
X0356176Y0201866D01*
X0353029Y0200049D01*
X0350459Y0197479D01*
X0348641Y0194332D01*
X0348000Y0191938D01*
X0347359Y0194332D01*
X0345541Y0197479D01*
X0342971Y0200049D01*
X0339824Y0201866D01*
X0336313Y0202807D01*
X0332679Y0202807D01*
X0329168Y0201866D01*
X0326021Y0200049D01*
X0323451Y0197479D01*
X0321634Y0194332D01*
X0320693Y0190821D01*
X0320693Y0187187D01*
X0321634Y0183676D01*
X0323451Y0180529D01*
X0326021Y0177959D01*
X0329168Y0176141D01*
X0331562Y0175500D01*
X0329168Y0174859D01*
X0326021Y0173041D01*
X0323451Y0170471D01*
X0321634Y0167324D01*
X0321529Y0166934D01*
X0321357Y0167005D01*
X0318353Y0167005D01*
X0317124Y0166496D01*
X0315895Y0167005D01*
X0313927Y0167005D01*
X0313927Y0167005D01*
X0313426Y0167005D01*
X0312892Y0167005D01*
X0312892Y0167005D01*
X0310923Y0167005D01*
X0310187Y0166700D01*
X0309450Y0167005D01*
X0309450Y0167005D01*
X0309450Y0167005D01*
X0307481Y0167005D01*
X0306947Y0167005D01*
X0306446Y0167005D01*
X0304478Y0167005D01*
X0304478Y0167005D01*
X0304478Y0167005D01*
X0303741Y0166700D01*
X0303004Y0167005D01*
X0300001Y0167005D01*
X0303164Y0166939D02*
X0304318Y0166939D01*
X0306446Y0167005D02*
X0306446Y0167005D01*
X0307481Y0167005D02*
X0307481Y0167005D01*
X0309609Y0166939D02*
X0310764Y0166939D01*
X0310923Y0167005D02*
X0310923Y0167005D01*
X0310923Y0167005D01*
X0315895Y0167005D02*
X0315895Y0167005D01*
X0315895Y0167005D01*
X0316055Y0166939D02*
X0318194Y0166939D01*
X0321516Y0166939D02*
X0321530Y0166939D01*
X0323917Y0170937D02*
X0195194Y0170937D01*
X0213000Y0183000D02*
X0173000Y0183000D01*
X0168000Y0188000D01*
X0168000Y0208000D01*
X0143000Y0233000D01*
X0123000Y0233000D01*
X0102511Y0238912D02*
X0047823Y0238912D01*
X0047645Y0238734D02*
X0048184Y0239273D01*
X0048473Y0239970D01*
X0048893Y0240597D01*
X0049042Y0241344D01*
X0049334Y0242048D01*
X0049334Y0242802D01*
X0049482Y0243542D01*
X0049334Y0244290D01*
X0049334Y0250957D01*
X0048184Y0253732D01*
X0046060Y0255856D01*
X0043285Y0257005D01*
X0040282Y0257005D01*
X0039815Y0256812D01*
X0039349Y0257005D01*
X0038595Y0257005D01*
X0037855Y0257153D01*
X0037107Y0257005D01*
X0032048Y0257005D01*
X0029273Y0255856D01*
X0027149Y0253732D01*
X0026000Y0250957D01*
X0026000Y0247953D01*
X0026601Y0246503D01*
X0026000Y0245052D01*
X0026000Y0242048D01*
X0027149Y0239273D01*
X0029273Y0237149D01*
X0032048Y0236000D01*
X0039349Y0236000D01*
X0039815Y0236193D01*
X0040282Y0236000D01*
X0041036Y0236000D01*
X0041776Y0235852D01*
X0042523Y0236000D01*
X0043285Y0236000D01*
X0043982Y0236289D01*
X0044722Y0236435D01*
X0045356Y0236858D01*
X0046060Y0237149D01*
X0046594Y0237683D01*
X0047221Y0238101D01*
X0047645Y0238734D01*
X0049355Y0242911D02*
X0101000Y0242911D01*
X0101000Y0246909D02*
X0049334Y0246909D01*
X0049334Y0250908D02*
X0101000Y0250908D01*
X0103324Y0254906D02*
X0047010Y0254906D01*
X0028324Y0254906D02*
X0025930Y0254906D01*
X0026000Y0250908D02*
X0010000Y0250908D01*
X0010000Y0254906D02*
X0010070Y0254906D01*
X0010000Y0246909D02*
X0026432Y0246909D01*
X0026000Y0242911D02*
X0017447Y0242911D01*
X0022304Y0238912D02*
X0027511Y0238912D01*
X0022953Y0234914D02*
X0053331Y0234914D01*
X0051000Y0230915D02*
X0022953Y0230915D01*
X0022233Y0226917D02*
X0051000Y0226917D01*
X0043668Y0222918D02*
X0032332Y0222918D01*
X0036153Y0218920D02*
X0039847Y0218920D01*
X0038130Y0214921D02*
X0037870Y0214921D01*
X0057326Y0198927D02*
X0076199Y0198927D01*
X0072201Y0194929D02*
X0060592Y0194929D01*
X0063728Y0190930D02*
X0068202Y0190930D01*
X0068000Y0178000D02*
X0088000Y0198000D01*
X0097657Y0198927D02*
X0113674Y0198927D01*
X0110408Y0194929D02*
X0097657Y0194929D01*
X0096144Y0190930D02*
X0107272Y0190930D01*
X0105859Y0186932D02*
X0089659Y0186932D01*
X0085661Y0182933D02*
X0105693Y0182933D01*
X0106769Y0178934D02*
X0081662Y0178934D01*
X0077664Y0174936D02*
X0109536Y0174936D01*
X0116766Y0170937D02*
X0077000Y0170937D01*
X0077000Y0166939D02*
X0108857Y0166939D01*
X0112180Y0166939D02*
X0161415Y0166939D01*
X0166665Y0170937D02*
X0149234Y0170937D01*
X0143774Y0170937D02*
X0122226Y0170937D01*
X0129457Y0174936D02*
X0136543Y0174936D01*
X0133776Y0178934D02*
X0132224Y0178934D01*
X0116919Y0163732D02*
X0116919Y0163732D01*
X0117710Y0162940D02*
X0160547Y0162940D01*
X0160547Y0158942D02*
X0120037Y0158942D01*
X0122670Y0154943D02*
X0143330Y0154943D01*
X0149678Y0154943D02*
X0161049Y0154943D01*
X0165195Y0150945D02*
X0156584Y0150945D01*
X0159300Y0146946D02*
X0258047Y0146946D01*
X0258047Y0150945D02*
X0175805Y0150945D01*
X0170500Y0160500D02*
X0268000Y0160500D01*
X0277953Y0158942D02*
X0291388Y0158942D01*
X0291024Y0154943D02*
X0277451Y0154943D01*
X0277953Y0150945D02*
X0293430Y0150945D01*
X0297716Y0146946D02*
X0277953Y0146946D01*
X0277660Y0142948D02*
X0389701Y0142948D01*
X0389701Y0138949D02*
X0277000Y0138949D01*
X0277000Y0134951D02*
X0330922Y0134951D01*
X0331021Y0135049D02*
X0328451Y0132479D01*
X0326634Y0129332D01*
X0325693Y0125821D01*
X0325693Y0122187D01*
X0326634Y0118676D01*
X0328451Y0115529D01*
X0331021Y0112959D01*
X0334168Y0111141D01*
X0336562Y0110500D01*
X0334168Y0109859D01*
X0331021Y0108041D01*
X0328451Y0105471D01*
X0326634Y0102324D01*
X0326529Y0101934D01*
X0326357Y0102005D01*
X0323353Y0102005D01*
X0322124Y0101496D01*
X0320895Y0102005D01*
X0318927Y0102005D01*
X0318927Y0102005D01*
X0318426Y0102005D01*
X0317892Y0102005D01*
X0317892Y0102005D01*
X0315923Y0102005D01*
X0315582Y0101864D01*
X0314895Y0102092D01*
X0311899Y0101880D01*
X0310775Y0101317D01*
X0308449Y0102092D01*
X0305453Y0101880D01*
X0302381Y0100344D01*
X0301242Y0099871D01*
X0301046Y0099676D01*
X0300799Y0099552D01*
X0299990Y0098620D01*
X0299273Y0097903D01*
X0297149Y0095779D01*
X0296000Y0093004D01*
X0296000Y0088032D01*
X0297149Y0085257D01*
X0298134Y0084273D01*
X0300257Y0082149D01*
X0303032Y0081000D01*
X0308004Y0081000D01*
X0308741Y0081305D01*
X0309478Y0081000D01*
X0314450Y0081000D01*
X0315187Y0081305D01*
X0315923Y0081000D01*
X0320895Y0081000D01*
X0321140Y0081101D01*
X0321385Y0081000D01*
X0324388Y0081000D01*
X0324855Y0081193D01*
X0325321Y0081000D01*
X0328325Y0081000D01*
X0331100Y0082149D01*
X0333224Y0084273D01*
X0333359Y0084601D01*
X0334168Y0084134D01*
X0337679Y0083193D01*
X0341313Y0083193D01*
X0344824Y0084134D01*
X0347971Y0085951D01*
X0350541Y0088521D01*
X0352359Y0091668D01*
X0353000Y0094062D01*
X0353641Y0091668D01*
X0355459Y0088521D01*
X0358029Y0085951D01*
X0361176Y0084134D01*
X0364687Y0083193D01*
X0368321Y0083193D01*
X0371832Y0084134D01*
X0374979Y0085951D01*
X0377549Y0088521D01*
X0379366Y0091668D01*
X0380307Y0095179D01*
X0380307Y0098813D01*
X0379366Y0102324D01*
X0377549Y0105471D01*
X0374979Y0108041D01*
X0371832Y0109859D01*
X0369438Y0110500D01*
X0371832Y0111141D01*
X0374979Y0112959D01*
X0377549Y0115529D01*
X0379366Y0118676D01*
X0380307Y0122187D01*
X0380307Y0125821D01*
X0379366Y0129332D01*
X0377549Y0132479D01*
X0374979Y0135049D01*
X0371832Y0136866D01*
X0368321Y0137807D01*
X0364687Y0137807D01*
X0361176Y0136866D01*
X0358029Y0135049D01*
X0355459Y0132479D01*
X0353641Y0129332D01*
X0353000Y0126938D01*
X0352359Y0129332D01*
X0350541Y0132479D01*
X0347971Y0135049D01*
X0344824Y0136866D01*
X0341313Y0137807D01*
X0337679Y0137807D01*
X0334168Y0136866D01*
X0331021Y0135049D01*
X0327569Y0130952D02*
X0277000Y0130952D01*
X0277000Y0126954D02*
X0325996Y0126954D01*
X0325693Y0122955D02*
X0275652Y0122955D01*
X0268000Y0128000D02*
X0268000Y0148000D01*
X0258340Y0142948D02*
X0160307Y0142948D01*
X0160109Y0138949D02*
X0259000Y0138949D01*
X0268000Y0128000D02*
X0208000Y0128000D01*
X0188000Y0108000D01*
X0188000Y0053000D01*
X0188425Y0042985D02*
X0183575Y0042985D01*
X0183575Y0043000D02*
X0179500Y0043000D01*
X0183575Y0043000D01*
X0179500Y0043000D02*
X0179500Y0043000D01*
X0183394Y0038987D02*
X0188425Y0038987D01*
X0189896Y0034988D02*
X0180882Y0034988D01*
X0182000Y0030990D02*
X0195759Y0030990D01*
X0200241Y0030990D02*
X0205759Y0030990D01*
X0210241Y0030990D02*
X0215759Y0030990D01*
X0220241Y0030990D02*
X0231500Y0030990D01*
X0231500Y0034988D02*
X0226104Y0034988D01*
X0227575Y0038987D02*
X0231500Y0038987D01*
X0231500Y0042985D02*
X0227575Y0042985D01*
X0227575Y0046984D02*
X0230547Y0046984D01*
X0230547Y0050982D02*
X0226124Y0050982D01*
X0226096Y0054981D02*
X0230603Y0054981D01*
X0231500Y0058979D02*
X0227575Y0058979D01*
X0227575Y0062978D02*
X0231500Y0062978D01*
X0232210Y0066976D02*
X0227575Y0066976D01*
X0226127Y0070975D02*
X0235274Y0070975D01*
X0235866Y0072528D02*
X0240500Y0072528D01*
X0240500Y0076768D01*
X0238571Y0076768D01*
X0237991Y0076652D01*
X0237445Y0076426D01*
X0236954Y0076098D01*
X0236536Y0075680D01*
X0236208Y0075189D01*
X0235981Y0074643D01*
X0235866Y0074063D01*
X0235866Y0072528D01*
X0236118Y0074973D02*
X0220330Y0074973D01*
X0217279Y0078972D02*
X0269300Y0078972D01*
X0265302Y0082970D02*
X0220698Y0082970D01*
X0224697Y0086969D02*
X0261303Y0086969D01*
X0263000Y0098000D02*
X0283000Y0078000D01*
X0292953Y0078972D02*
X0389701Y0078972D01*
X0389701Y0082970D02*
X0331921Y0082970D01*
X0332624Y0070975D02*
X0301127Y0070975D01*
X0295330Y0074973D02*
X0389701Y0074973D01*
X0389701Y0070975D02*
X0373376Y0070975D01*
X0377840Y0066976D02*
X0389701Y0066976D01*
X0389701Y0062978D02*
X0379729Y0062978D01*
X0380307Y0058979D02*
X0389701Y0058979D01*
X0389701Y0054981D02*
X0379716Y0054981D01*
X0377811Y0050982D02*
X0389701Y0050982D01*
X0389701Y0046984D02*
X0373290Y0046984D01*
X0375035Y0042985D02*
X0389701Y0042985D01*
X0389701Y0038987D02*
X0378406Y0038987D01*
X0379992Y0034988D02*
X0389701Y0034988D01*
X0389701Y0030990D02*
X0380307Y0030990D01*
X0372669Y0018994D02*
X0330546Y0018994D01*
X0331960Y0018994D02*
X0334689Y0018994D01*
X0344303Y0018994D02*
X0361697Y0018994D01*
X0357401Y0022993D02*
X0348599Y0022993D01*
X0350013Y0022993D02*
X0355987Y0022993D01*
X0353555Y0026991D02*
X0352445Y0026991D01*
X0371311Y0018994D02*
X0371669Y0018994D01*
X0372075Y0014996D02*
X0284268Y0014996D01*
X0373110Y0014996D01*
X0373979Y0010997D02*
X0275109Y0010997D01*
X0273695Y0010997D02*
X0375393Y0010997D01*
X0330965Y0042985D02*
X0302575Y0042985D01*
X0302575Y0046984D02*
X0332710Y0046984D01*
X0328189Y0050982D02*
X0301124Y0050982D01*
X0301096Y0054981D02*
X0326284Y0054981D01*
X0325693Y0058979D02*
X0302575Y0058979D01*
X0302575Y0062978D02*
X0326271Y0062978D01*
X0328160Y0066976D02*
X0302575Y0066976D01*
X0299437Y0082970D02*
X0292694Y0082970D01*
X0289721Y0086969D02*
X0296441Y0086969D01*
X0296000Y0090967D02*
X0282761Y0090967D01*
X0278762Y0094966D02*
X0296812Y0094966D01*
X0300289Y0098964D02*
X0274764Y0098964D01*
X0270765Y0102963D02*
X0327002Y0102963D01*
X0329941Y0106961D02*
X0264884Y0106961D01*
X0263000Y0098000D02*
X0223000Y0098000D01*
X0208000Y0083000D01*
X0208000Y0073000D01*
X0198721Y0078972D02*
X0197000Y0078972D01*
X0197000Y0082970D02*
X0199000Y0082970D01*
X0199902Y0086969D02*
X0197000Y0086969D01*
X0197000Y0090967D02*
X0203239Y0090967D01*
X0207238Y0094966D02*
X0197000Y0094966D01*
X0197000Y0098964D02*
X0211236Y0098964D01*
X0215235Y0102963D02*
X0197000Y0102963D01*
X0199689Y0106961D02*
X0221116Y0106961D01*
X0207686Y0114958D02*
X0329021Y0114958D01*
X0326558Y0118957D02*
X0211685Y0118957D01*
X0203688Y0110960D02*
X0334846Y0110960D01*
X0320895Y0102005D02*
X0320895Y0102005D01*
X0320895Y0102005D01*
X0315923Y0102005D02*
X0315923Y0102005D01*
X0315923Y0102005D01*
X0348989Y0086969D02*
X0357011Y0086969D01*
X0354046Y0090967D02*
X0351954Y0090967D01*
X0375997Y0086969D02*
X0389701Y0086969D01*
X0389701Y0090967D02*
X0378962Y0090967D01*
X0380250Y0094966D02*
X0389701Y0094966D01*
X0389701Y0098964D02*
X0380267Y0098964D01*
X0378998Y0102963D02*
X0389701Y0102963D01*
X0389701Y0106961D02*
X0376059Y0106961D01*
X0371154Y0110960D02*
X0389701Y0110960D01*
X0389701Y0114958D02*
X0376979Y0114958D01*
X0379442Y0118957D02*
X0389701Y0118957D01*
X0389701Y0122955D02*
X0380307Y0122955D01*
X0380004Y0126954D02*
X0389701Y0126954D01*
X0389701Y0130952D02*
X0378431Y0130952D01*
X0375078Y0134951D02*
X0389701Y0134951D01*
X0389701Y0146946D02*
X0325610Y0146946D01*
X0342961Y0150945D02*
X0353039Y0150945D01*
X0349637Y0154943D02*
X0346363Y0154943D01*
X0347968Y0158942D02*
X0348032Y0158942D01*
X0369969Y0150945D02*
X0389701Y0150945D01*
X0389701Y0154943D02*
X0373371Y0154943D01*
X0374976Y0158942D02*
X0389701Y0158942D01*
X0389701Y0162940D02*
X0375307Y0162940D01*
X0374470Y0166939D02*
X0389701Y0166939D01*
X0389701Y0170937D02*
X0372083Y0170937D01*
X0366543Y0174936D02*
X0389701Y0174936D01*
X0389701Y0178934D02*
X0370955Y0178934D01*
X0373937Y0182933D02*
X0389701Y0182933D01*
X0389701Y0186932D02*
X0375239Y0186932D01*
X0375278Y0190930D02*
X0389701Y0190930D01*
X0389701Y0194929D02*
X0374022Y0194929D01*
X0371101Y0198927D02*
X0389701Y0198927D01*
X0389701Y0202926D02*
X0274251Y0202926D01*
X0272787Y0202926D02*
X0283000Y0202926D01*
X0283000Y0206924D02*
X0176000Y0206924D01*
X0177000Y0206924D02*
X0389701Y0206924D01*
X0389701Y0210923D02*
X0270206Y0210923D01*
X0269910Y0210800D02*
X0273438Y0212262D01*
X0276138Y0214962D01*
X0277600Y0218490D01*
X0277600Y0227510D01*
X0276138Y0231038D01*
X0273438Y0233738D01*
X0269910Y0235200D01*
X0266090Y0235200D01*
X0263000Y0233920D01*
X0259910Y0235200D01*
X0256090Y0235200D01*
X0253000Y0233920D01*
X0249910Y0235200D01*
X0246090Y0235200D01*
X0243000Y0233920D01*
X0239910Y0235200D01*
X0236090Y0235200D01*
X0233000Y0233920D01*
X0229910Y0235200D01*
X0226090Y0235200D01*
X0223000Y0233920D01*
X0219910Y0235200D01*
X0216090Y0235200D01*
X0213000Y0233920D01*
X0209910Y0235200D01*
X0206090Y0235200D01*
X0203000Y0233920D01*
X0199910Y0235200D01*
X0196090Y0235200D01*
X0193000Y0233920D01*
X0189910Y0235200D01*
X0186090Y0235200D01*
X0182562Y0233738D01*
X0179862Y0231038D01*
X0178400Y0227510D01*
X0178400Y0218490D01*
X0179862Y0214962D01*
X0182562Y0212262D01*
X0186090Y0210800D01*
X0189910Y0210800D01*
X0193000Y0212080D01*
X0196090Y0210800D01*
X0199910Y0210800D01*
X0203000Y0212080D01*
X0206090Y0210800D01*
X0209910Y0210800D01*
X0213000Y0212080D01*
X0216090Y0210800D01*
X0219910Y0210800D01*
X0223000Y0212080D01*
X0226090Y0210800D01*
X0229910Y0210800D01*
X0233000Y0212080D01*
X0236090Y0210800D01*
X0239910Y0210800D01*
X0243000Y0212080D01*
X0246090Y0210800D01*
X0249910Y0210800D01*
X0253000Y0212080D01*
X0256090Y0210800D01*
X0259910Y0210800D01*
X0263000Y0212080D01*
X0266090Y0210800D01*
X0269910Y0210800D01*
X0265794Y0210923D02*
X0260206Y0210923D01*
X0255794Y0210923D02*
X0250205Y0210923D01*
X0245794Y0210923D02*
X0240205Y0210923D01*
X0235794Y0210923D02*
X0230205Y0210923D01*
X0225794Y0210923D02*
X0220205Y0210923D01*
X0215794Y0210923D02*
X0210205Y0210923D01*
X0205794Y0210923D02*
X0200205Y0210923D01*
X0195794Y0210923D02*
X0190205Y0210923D01*
X0185794Y0210923D02*
X0176531Y0210923D01*
X0175449Y0210923D02*
X0283000Y0210923D01*
X0283000Y0214921D02*
X0274683Y0214921D01*
X0276098Y0214921D02*
X0294710Y0214921D01*
X0291448Y0218920D02*
X0277600Y0218920D01*
X0276600Y0218920D02*
X0283000Y0218920D01*
X0283000Y0222918D02*
X0276600Y0222918D01*
X0277600Y0222918D02*
X0291000Y0222918D01*
X0293287Y0226917D02*
X0277600Y0226917D01*
X0276600Y0226917D02*
X0283000Y0226917D01*
X0276189Y0230915D02*
X0297370Y0230915D01*
X0306446Y0232005D02*
X0306446Y0232005D01*
X0307481Y0232005D02*
X0307481Y0232005D01*
X0310923Y0232005D02*
X0310923Y0232005D01*
X0310923Y0232005D01*
X0315895Y0232005D02*
X0315895Y0232005D01*
X0315895Y0232005D01*
X0319337Y0232005D02*
X0319337Y0232005D01*
X0323129Y0234914D02*
X0270601Y0234914D01*
X0265399Y0234914D02*
X0260601Y0234914D01*
X0255399Y0234914D02*
X0250601Y0234914D01*
X0245399Y0234914D02*
X0240601Y0234914D01*
X0235399Y0234914D02*
X0230601Y0234914D01*
X0225399Y0234914D02*
X0220601Y0234914D01*
X0215399Y0234914D02*
X0210601Y0234914D01*
X0205399Y0234914D02*
X0200601Y0234914D01*
X0195399Y0234914D02*
X0190601Y0234914D01*
X0186202Y0236706D02*
X0187551Y0239044D01*
X0188250Y0241651D01*
X0188250Y0244349D01*
X0187551Y0246956D01*
X0186202Y0249294D01*
X0184294Y0251202D01*
X0181956Y0252551D01*
X0179349Y0253250D01*
X0176651Y0253250D01*
X0174044Y0252551D01*
X0171706Y0251202D01*
X0169798Y0249294D01*
X0169773Y0249250D01*
X0168000Y0249250D01*
X0168000Y0245283D01*
X0168000Y0245282D01*
X0168000Y0249250D01*
X0164455Y0249250D01*
X0163875Y0249135D01*
X0163329Y0248909D01*
X0162838Y0248580D01*
X0162420Y0248162D01*
X0162091Y0247671D01*
X0161865Y0247125D01*
X0161750Y0246545D01*
X0161750Y0243000D01*
X0167750Y0243000D01*
X0167750Y0243000D01*
X0161750Y0243000D01*
X0161750Y0239455D01*
X0161865Y0238875D01*
X0162091Y0238329D01*
X0162420Y0237838D01*
X0162838Y0237420D01*
X0163329Y0237091D01*
X0163875Y0236865D01*
X0164455Y0236750D01*
X0168000Y0236750D01*
X0169773Y0236750D01*
X0169798Y0236706D01*
X0171706Y0234798D01*
X0174044Y0233449D01*
X0176651Y0232750D01*
X0179349Y0232750D01*
X0181956Y0233449D01*
X0184294Y0234798D01*
X0186202Y0236706D01*
X0185399Y0234914D02*
X0184409Y0234914D01*
X0179811Y0230915D02*
X0157813Y0230915D01*
X0153814Y0234914D02*
X0171591Y0234914D01*
X0168000Y0236750D02*
X0168000Y0240717D01*
X0168000Y0240718D01*
X0168000Y0236750D01*
X0168000Y0238912D02*
X0168000Y0238912D01*
X0161858Y0238912D02*
X0149816Y0238912D01*
X0152214Y0242911D02*
X0161750Y0242911D01*
X0161822Y0246909D02*
X0152264Y0246909D01*
X0152264Y0247020D02*
X0152264Y0247020D01*
X0151877Y0250908D02*
X0171412Y0250908D01*
X0168000Y0246909D02*
X0168000Y0246909D01*
X0181978Y0255030D02*
X0182417Y0254270D01*
X0182952Y0253573D01*
X0183573Y0252952D01*
X0184270Y0252417D01*
X0185030Y0251978D01*
X0185842Y0251642D01*
X0186690Y0251415D01*
X0187561Y0251300D01*
X0188000Y0251300D01*
X0188439Y0251300D01*
X0189310Y0251415D01*
X0189428Y0251446D01*
X0189438Y0251430D01*
X0191430Y0249438D01*
X0193870Y0248029D01*
X0196591Y0247300D01*
X0199409Y0247300D01*
X0202130Y0248029D01*
X0204570Y0249438D01*
X0206562Y0251430D01*
X0207971Y0253870D01*
X0208700Y0256591D01*
X0208700Y0259409D01*
X0207971Y0262130D01*
X0206562Y0264570D01*
X0204570Y0266562D01*
X0202130Y0267971D01*
X0199409Y0268700D01*
X0196591Y0268700D01*
X0193870Y0267971D01*
X0191430Y0266562D01*
X0189438Y0264570D01*
X0189428Y0264554D01*
X0189310Y0264585D01*
X0188439Y0264700D01*
X0188000Y0264700D01*
X0188000Y0262021D01*
X0188000Y0264700D01*
X0187561Y0264700D01*
X0186690Y0264585D01*
X0185842Y0264358D01*
X0185030Y0264022D01*
X0184270Y0263583D01*
X0183573Y0263048D01*
X0182952Y0262427D01*
X0182417Y0261730D01*
X0181978Y0260970D01*
X0181642Y0260158D01*
X0181415Y0259310D01*
X0181300Y0258439D01*
X0181300Y0258000D01*
X0187300Y0258000D01*
X0187300Y0258000D01*
X0181300Y0258000D01*
X0181300Y0257561D01*
X0181415Y0256690D01*
X0181642Y0255842D01*
X0181978Y0255030D01*
X0182050Y0254906D02*
X0148956Y0254906D01*
X0148007Y0255856D02*
X0148007Y0255856D01*
X0148007Y0255856D01*
X0150131Y0253732D02*
X0150131Y0253732D01*
X0143263Y0257005D02*
X0143263Y0257005D01*
X0142228Y0257005D02*
X0142228Y0257005D01*
X0138786Y0257005D02*
X0138786Y0257005D01*
X0138786Y0257005D01*
X0133814Y0257005D02*
X0133814Y0257005D01*
X0133814Y0257005D01*
X0125895Y0257005D02*
X0125895Y0257005D01*
X0125895Y0257005D01*
X0113004Y0257005D02*
X0113004Y0257005D01*
X0113004Y0257005D01*
X0098331Y0234914D02*
X0066721Y0234914D01*
X0065779Y0235856D02*
X0065779Y0235856D01*
X0065779Y0235856D01*
X0063004Y0237005D02*
X0063004Y0237005D01*
X0063004Y0237005D01*
X0067903Y0233732D02*
X0067903Y0233732D01*
X0068887Y0232748D02*
X0068887Y0232748D01*
X0069646Y0230915D02*
X0096000Y0230915D01*
X0096000Y0226917D02*
X0070037Y0226917D01*
X0070037Y0229973D02*
X0070037Y0229973D01*
X0070037Y0229973D01*
X0069989Y0222918D02*
X0096000Y0222918D01*
X0097503Y0218920D02*
X0067549Y0218920D01*
X0064878Y0214921D02*
X0106122Y0214921D01*
X0105693Y0210923D02*
X0065307Y0210923D01*
X0064567Y0206924D02*
X0082180Y0206924D01*
X0078705Y0202926D02*
X0062446Y0202926D01*
X0093820Y0206924D02*
X0106433Y0206924D01*
X0108554Y0202926D02*
X0097295Y0202926D01*
X0068000Y0178000D02*
X0068000Y0078000D01*
X0058047Y0078972D02*
X0022953Y0078972D01*
X0022953Y0078655D02*
X0022953Y0087345D01*
X0022000Y0089645D01*
X0022000Y0100875D01*
X0022679Y0100693D01*
X0026313Y0100693D01*
X0029824Y0101634D01*
X0032971Y0103451D01*
X0035541Y0106021D01*
X0037359Y0109168D01*
X0038000Y0111562D01*
X0038641Y0109168D01*
X0040459Y0106021D01*
X0043029Y0103451D01*
X0046176Y0101634D01*
X0049687Y0100693D01*
X0053321Y0100693D01*
X0056832Y0101634D01*
X0059000Y0102885D01*
X0059000Y0084645D01*
X0058047Y0082345D01*
X0058047Y0075150D01*
X0056095Y0075150D01*
X0053000Y0073867D01*
X0049905Y0075150D01*
X0046095Y0075150D01*
X0042576Y0073692D01*
X0039883Y0070998D01*
X0038425Y0067479D01*
X0038425Y0058521D01*
X0039883Y0055002D01*
X0041884Y0053000D01*
X0039883Y0050998D01*
X0038425Y0047479D01*
X0038425Y0038521D01*
X0039883Y0035002D01*
X0042576Y0032308D01*
X0046095Y0030850D01*
X0049905Y0030850D01*
X0053000Y0032133D01*
X0056095Y0030850D01*
X0059826Y0030850D01*
X0058933Y0029957D01*
X0057441Y0027373D01*
X0056669Y0024492D01*
X0056669Y0021508D01*
X0057441Y0018627D01*
X0058933Y0016043D01*
X0061043Y0013933D01*
X0063627Y0012441D01*
X0066508Y0011669D01*
X0069492Y0011669D01*
X0072373Y0012441D01*
X0074957Y0013933D01*
X0077067Y0016043D01*
X0078559Y0018627D01*
X0079000Y0020274D01*
X0079000Y0016210D01*
X0080370Y0012902D01*
X0082902Y0010370D01*
X0083796Y0010000D01*
X0044112Y0010000D01*
X0045391Y0011279D01*
X0045826Y0012328D01*
X0046248Y0012244D01*
X0048905Y0012244D01*
X0048905Y0018000D01*
X0048905Y0023756D01*
X0046248Y0023756D01*
X0045826Y0023672D01*
X0045391Y0024721D01*
X0043422Y0026690D01*
X0040849Y0027756D01*
X0033340Y0027756D01*
X0031515Y0027000D01*
X0022000Y0027000D01*
X0022000Y0041355D01*
X0022425Y0042381D01*
X0022425Y0039986D01*
X0022562Y0039120D01*
X0022834Y0038285D01*
X0023232Y0037503D01*
X0023748Y0036793D01*
X0024368Y0036173D01*
X0025078Y0035657D01*
X0025860Y0035259D01*
X0026695Y0034988D01*
X0027561Y0034850D01*
X0028000Y0034850D01*
X0028439Y0034850D01*
X0029305Y0034988D01*
X0030140Y0035259D01*
X0030922Y0035657D01*
X0031632Y0036173D01*
X0032252Y0036793D01*
X0032768Y0037503D01*
X0033166Y0038285D01*
X0033438Y0039120D01*
X0033575Y0039986D01*
X0033575Y0043000D01*
X0033575Y0046014D01*
X0033438Y0046880D01*
X0033166Y0047715D01*
X0032768Y0048497D01*
X0032252Y0049207D01*
X0031632Y0049827D01*
X0030922Y0050343D01*
X0030140Y0050741D01*
X0029804Y0050850D01*
X0029905Y0050850D01*
X0033424Y0052308D01*
X0036117Y0055002D01*
X0037575Y0058521D01*
X0037575Y0067479D01*
X0036117Y0070998D01*
X0033424Y0073692D01*
X0029905Y0075150D01*
X0026095Y0075150D01*
X0022576Y0073692D01*
X0019883Y0070998D01*
X0019404Y0069842D01*
X0018599Y0070647D01*
X0018521Y0070679D01*
X0018098Y0071102D01*
X0017634Y0071295D01*
X0017634Y0072527D01*
X0013000Y0072527D01*
X0013000Y0072528D01*
X0017634Y0072528D01*
X0017634Y0073167D01*
X0019918Y0074113D01*
X0021887Y0076082D01*
X0022953Y0078655D01*
X0020778Y0074973D02*
X0025670Y0074973D01*
X0030330Y0074973D02*
X0045670Y0074973D01*
X0050330Y0074973D02*
X0055670Y0074973D01*
X0058306Y0082970D02*
X0022953Y0082970D01*
X0022953Y0086969D02*
X0059000Y0086969D01*
X0059000Y0090967D02*
X0022000Y0090967D01*
X0022000Y0094966D02*
X0059000Y0094966D01*
X0059000Y0098964D02*
X0022000Y0098964D01*
X0032126Y0102963D02*
X0043874Y0102963D01*
X0039916Y0106961D02*
X0036084Y0106961D01*
X0037839Y0110960D02*
X0038161Y0110960D01*
X0013000Y0083000D02*
X0013000Y0233000D01*
X0028633Y0258905D02*
X0181361Y0258905D01*
X0183428Y0262903D02*
X0029331Y0262903D01*
X0028685Y0266902D02*
X0192018Y0266902D01*
X0188000Y0262903D02*
X0188000Y0262903D01*
X0188000Y0262021D02*
X0188000Y0262021D01*
X0188000Y0253979D02*
X0188000Y0253979D01*
X0188000Y0251300D01*
X0188000Y0253979D01*
X0189960Y0250908D02*
X0184588Y0250908D01*
X0187564Y0246909D02*
X0322654Y0246909D01*
X0326104Y0242911D02*
X0188250Y0242911D01*
X0187476Y0238912D02*
X0327529Y0238912D01*
X0316562Y0251430D02*
X0314570Y0249438D01*
X0312130Y0248029D01*
X0309409Y0247300D01*
X0306591Y0247300D01*
X0303870Y0248029D01*
X0303000Y0248531D01*
X0302130Y0248029D01*
X0299409Y0247300D01*
X0296591Y0247300D01*
X0293870Y0248029D01*
X0291430Y0249438D01*
X0289438Y0251430D01*
X0288029Y0253870D01*
X0287300Y0256591D01*
X0287300Y0259409D01*
X0288029Y0262130D01*
X0289438Y0264570D01*
X0291430Y0266562D01*
X0293870Y0267971D01*
X0296591Y0268700D01*
X0299409Y0268700D01*
X0302130Y0267971D01*
X0303000Y0267469D01*
X0303870Y0267971D01*
X0306591Y0268700D01*
X0309409Y0268700D01*
X0312130Y0267971D01*
X0314570Y0266562D01*
X0316562Y0264570D01*
X0317971Y0262130D01*
X0318700Y0259409D01*
X0318700Y0256591D01*
X0317971Y0253870D01*
X0316562Y0251430D01*
X0316040Y0250908D02*
X0321036Y0250908D01*
X0320693Y0254906D02*
X0318248Y0254906D01*
X0318700Y0258905D02*
X0321519Y0258905D01*
X0323875Y0262903D02*
X0317524Y0262903D01*
X0313982Y0266902D02*
X0329300Y0266902D01*
X0339692Y0266902D02*
X0356308Y0266902D01*
X0350883Y0262903D02*
X0345117Y0262903D01*
X0347473Y0258905D02*
X0348527Y0258905D01*
X0366700Y0266902D02*
X0372315Y0266902D01*
X0374876Y0270900D02*
X0026124Y0270900D01*
X0160397Y0226917D02*
X0179400Y0226917D01*
X0178400Y0226917D02*
X0161811Y0226917D01*
X0164396Y0222918D02*
X0179400Y0222918D01*
X0178400Y0222918D02*
X0165810Y0222918D01*
X0168394Y0218920D02*
X0179400Y0218920D01*
X0178400Y0218920D02*
X0169808Y0218920D01*
X0172393Y0214921D02*
X0181317Y0214921D01*
X0179902Y0214921D02*
X0173807Y0214921D01*
X0176000Y0202926D02*
X0193213Y0202926D01*
X0191749Y0202926D02*
X0177000Y0202926D01*
X0177000Y0198927D02*
X0183495Y0198927D01*
X0176000Y0198927D01*
X0176000Y0194929D02*
X0182400Y0194929D01*
X0177000Y0194929D01*
X0188000Y0194929D02*
X0188000Y0194929D01*
X0188000Y0194929D01*
X0188000Y0198927D02*
X0188000Y0198927D01*
X0188000Y0198927D01*
X0202787Y0202926D02*
X0203213Y0202926D01*
X0212787Y0202926D02*
X0213213Y0202926D01*
X0222787Y0202926D02*
X0223213Y0202926D01*
X0232787Y0202926D02*
X0233213Y0202926D01*
X0242787Y0202926D02*
X0243213Y0202926D01*
X0252787Y0202926D02*
X0253213Y0202926D01*
X0262787Y0202926D02*
X0263213Y0202926D01*
X0275930Y0198927D02*
X0283000Y0198927D01*
X0283000Y0194929D02*
X0276600Y0194929D01*
X0277600Y0194929D02*
X0321978Y0194929D01*
X0324899Y0198927D02*
X0277013Y0198927D01*
X0276600Y0190930D02*
X0283000Y0190930D01*
X0283000Y0186932D02*
X0275872Y0186932D01*
X0276954Y0186932D02*
X0320761Y0186932D01*
X0320722Y0190930D02*
X0277600Y0190930D01*
X0274109Y0182933D02*
X0322063Y0182933D01*
X0325045Y0178934D02*
X0222953Y0178934D01*
X0221953Y0178934D02*
X0283000Y0178934D01*
X0283000Y0174936D02*
X0219292Y0174936D01*
X0220741Y0174936D02*
X0329457Y0174936D01*
X0347014Y0194929D02*
X0348986Y0194929D01*
X0351906Y0198927D02*
X0344094Y0198927D01*
X0341188Y0214921D02*
X0354812Y0214921D01*
X0350228Y0218920D02*
X0345772Y0218920D01*
X0347693Y0222918D02*
X0348307Y0222918D01*
X0368196Y0214921D02*
X0389701Y0214921D01*
X0389701Y0218920D02*
X0372779Y0218920D01*
X0374701Y0222918D02*
X0389701Y0222918D01*
X0389701Y0226917D02*
X0375307Y0226917D01*
X0374744Y0230915D02*
X0389701Y0230915D01*
X0389701Y0234914D02*
X0372871Y0234914D01*
X0368471Y0238912D02*
X0389701Y0238912D01*
X0389701Y0242911D02*
X0369896Y0242911D01*
X0373346Y0246909D02*
X0389701Y0246909D01*
X0389701Y0250908D02*
X0374964Y0250908D01*
X0292018Y0266902D02*
X0273982Y0266902D01*
X0274570Y0266562D02*
X0272130Y0267971D01*
X0269409Y0268700D01*
X0266591Y0268700D01*
X0263870Y0267971D01*
X0263000Y0267469D01*
X0262130Y0267971D01*
X0259409Y0268700D01*
X0256591Y0268700D01*
X0253870Y0267971D01*
X0253000Y0267469D01*
X0252130Y0267971D01*
X0249409Y0268700D01*
X0246591Y0268700D01*
X0243870Y0267971D01*
X0243000Y0267469D01*
X0242130Y0267971D01*
X0239409Y0268700D01*
X0236591Y0268700D01*
X0233870Y0267971D01*
X0233000Y0267469D01*
X0232130Y0267971D01*
X0229409Y0268700D01*
X0226591Y0268700D01*
X0223870Y0267971D01*
X0221430Y0266562D01*
X0219438Y0264570D01*
X0218029Y0262130D01*
X0217300Y0259409D01*
X0217300Y0256591D01*
X0218029Y0253870D01*
X0219438Y0251430D01*
X0221430Y0249438D01*
X0223870Y0248029D01*
X0226591Y0247300D01*
X0229409Y0247300D01*
X0232130Y0248029D01*
X0233000Y0248531D01*
X0233870Y0248029D01*
X0236591Y0247300D01*
X0239409Y0247300D01*
X0242130Y0248029D01*
X0243000Y0248531D01*
X0243870Y0248029D01*
X0246591Y0247300D01*
X0249409Y0247300D01*
X0252130Y0248029D01*
X0253000Y0248531D01*
X0253870Y0248029D01*
X0256591Y0247300D01*
X0259409Y0247300D01*
X0262130Y0248029D01*
X0263000Y0248531D01*
X0263870Y0248029D01*
X0266591Y0247300D01*
X0269409Y0247300D01*
X0272130Y0248029D01*
X0274570Y0249438D01*
X0276562Y0251430D01*
X0277971Y0253870D01*
X0278700Y0256591D01*
X0278700Y0259409D01*
X0277971Y0262130D01*
X0276562Y0264570D01*
X0274570Y0266562D01*
X0277524Y0262903D02*
X0288476Y0262903D01*
X0287300Y0258905D02*
X0278700Y0258905D01*
X0278248Y0254906D02*
X0287752Y0254906D01*
X0289960Y0250908D02*
X0276040Y0250908D01*
X0219960Y0250908D02*
X0206040Y0250908D01*
X0208248Y0254906D02*
X0217752Y0254906D01*
X0217300Y0258905D02*
X0208700Y0258905D01*
X0207524Y0262903D02*
X0218476Y0262903D01*
X0222018Y0266902D02*
X0203982Y0266902D01*
X0222446Y0182933D02*
X0223554Y0182933D01*
X0232446Y0182933D02*
X0233554Y0182933D01*
X0242446Y0182933D02*
X0243554Y0182933D01*
X0252446Y0182933D02*
X0253554Y0182933D01*
X0262446Y0182933D02*
X0263554Y0182933D01*
X0272446Y0182933D02*
X0283000Y0182933D01*
X0277953Y0162940D02*
X0294311Y0162940D01*
X0348070Y0134951D02*
X0357930Y0134951D01*
X0354577Y0130952D02*
X0351423Y0130952D01*
X0352996Y0126954D02*
X0353004Y0126954D01*
X0346368Y0070975D02*
X0359632Y0070975D01*
X0355168Y0066976D02*
X0350832Y0066976D01*
X0352721Y0062978D02*
X0353279Y0062978D01*
X0327594Y0038987D02*
X0302575Y0038987D01*
X0301523Y0034988D02*
X0301104Y0034988D01*
X0297360Y0030990D02*
X0295241Y0030990D01*
X0290759Y0030990D02*
X0285241Y0030990D01*
X0280759Y0030990D02*
X0275241Y0030990D01*
X0270759Y0030990D02*
X0249500Y0030990D01*
X0249500Y0034988D02*
X0251693Y0034988D01*
X0253000Y0034988D02*
X0253000Y0034988D01*
X0253000Y0034850D02*
X0253000Y0043000D01*
X0258575Y0043000D01*
X0253000Y0043000D01*
X0253000Y0043000D01*
X0253000Y0034850D01*
X0254307Y0034988D02*
X0264896Y0034988D01*
X0263425Y0038987D02*
X0258394Y0038987D01*
X0253000Y0038987D02*
X0253000Y0038987D01*
X0253000Y0042985D02*
X0253000Y0042985D01*
X0253000Y0043000D02*
X0253000Y0043000D01*
X0258404Y0046984D02*
X0263425Y0046984D01*
X0263425Y0042985D02*
X0258575Y0042985D01*
X0255223Y0050982D02*
X0264876Y0050982D01*
X0264904Y0054981D02*
X0261096Y0054981D01*
X0262575Y0058979D02*
X0263425Y0058979D01*
X0263425Y0062978D02*
X0262575Y0062978D01*
X0262575Y0066976D02*
X0263425Y0066976D01*
X0264873Y0070975D02*
X0261127Y0070975D01*
X0255330Y0074973D02*
X0270670Y0074973D01*
X0250670Y0074973D02*
X0244882Y0074973D01*
X0244792Y0075189D02*
X0244464Y0075680D01*
X0244046Y0076098D01*
X0243555Y0076426D01*
X0243009Y0076652D01*
X0242429Y0076768D01*
X0240500Y0076768D01*
X0240500Y0072528D01*
X0240500Y0072528D01*
X0240500Y0072527D01*
X0240500Y0072528D01*
X0245134Y0072528D01*
X0245134Y0074063D01*
X0245019Y0074643D01*
X0244792Y0075189D01*
X0240500Y0074973D02*
X0240500Y0074973D01*
X0240500Y0063472D02*
X0240500Y0050500D01*
X0240500Y0018000D01*
X0249654Y0018000D01*
X0256346Y0018000D02*
X0267094Y0018000D01*
X0272696Y0026991D02*
X0296000Y0026991D01*
X0296016Y0022993D02*
X0283274Y0022993D01*
X0283180Y0023086D02*
X0282689Y0023414D01*
X0282143Y0023641D01*
X0281563Y0023756D01*
X0278906Y0023756D01*
X0278906Y0018000D01*
X0278906Y0018000D01*
X0284268Y0018000D01*
X0284268Y0014949D01*
X0284152Y0014369D01*
X0283926Y0013823D01*
X0283598Y0013332D01*
X0283180Y0012914D01*
X0282689Y0012586D01*
X0282143Y0012359D01*
X0281563Y0012244D01*
X0278906Y0012244D01*
X0278906Y0018000D01*
X0284268Y0018000D01*
X0284268Y0021051D01*
X0284152Y0021631D01*
X0283926Y0022177D01*
X0283598Y0022668D01*
X0283180Y0023086D01*
X0278906Y0022993D02*
X0278905Y0022993D01*
X0278905Y0018994D02*
X0278906Y0018994D01*
X0278906Y0018000D02*
X0278905Y0018000D01*
X0278906Y0018000D01*
X0278906Y0018000D01*
X0284268Y0018000D01*
X0284268Y0014949D01*
X0284152Y0014369D01*
X0283926Y0013823D01*
X0283598Y0013332D01*
X0283180Y0012914D01*
X0282689Y0012586D01*
X0282143Y0012359D01*
X0281563Y0012244D01*
X0278906Y0012244D01*
X0278906Y0018000D01*
X0278905Y0014996D02*
X0278906Y0014996D01*
X0278905Y0014996D01*
X0284268Y0018994D02*
X0299827Y0018994D01*
X0298413Y0018994D02*
X0284268Y0018994D01*
X0296607Y0022993D02*
X0297099Y0022993D01*
X0315923Y0037005D02*
X0315923Y0037005D01*
X0315923Y0037005D01*
X0320895Y0037005D02*
X0320895Y0037005D01*
X0320895Y0037005D01*
X0324337Y0037005D02*
X0324337Y0037005D01*
X0254535Y0026991D02*
X0251465Y0026991D01*
X0231500Y0026991D02*
X0197696Y0026991D01*
X0203906Y0023756D02*
X0203906Y0018000D01*
X0203906Y0018000D01*
X0209268Y0018000D01*
X0209268Y0014949D01*
X0209152Y0014369D01*
X0208926Y0013823D01*
X0208598Y0013332D01*
X0208180Y0012914D01*
X0207689Y0012586D01*
X0207143Y0012359D01*
X0206563Y0012244D01*
X0203906Y0012244D01*
X0203906Y0018000D01*
X0209268Y0018000D01*
X0209268Y0021051D01*
X0209152Y0021631D01*
X0208926Y0022177D01*
X0208598Y0022668D01*
X0208180Y0023086D01*
X0207689Y0023414D01*
X0207143Y0023641D01*
X0206563Y0023756D01*
X0203906Y0023756D01*
X0203905Y0022993D02*
X0203906Y0022993D01*
X0208274Y0022993D02*
X0231500Y0022993D01*
X0231500Y0018994D02*
X0209268Y0018994D01*
X0209268Y0018000D02*
X0203906Y0018000D01*
X0203906Y0018000D01*
X0203905Y0018000D01*
X0203906Y0018000D01*
X0203906Y0012244D01*
X0206563Y0012244D01*
X0207143Y0012359D01*
X0207689Y0012586D01*
X0208180Y0012914D01*
X0208598Y0013332D01*
X0208926Y0013823D01*
X0209152Y0014369D01*
X0209268Y0014949D01*
X0209268Y0018000D01*
X0209268Y0014996D02*
X0233085Y0014996D01*
X0232003Y0014996D02*
X0209268Y0014996D01*
X0203906Y0014996D02*
X0203905Y0014996D01*
X0203906Y0014996D01*
X0203905Y0018994D02*
X0203906Y0018994D01*
X0200109Y0010997D02*
X0234775Y0010997D01*
X0236502Y0010997D02*
X0198695Y0010997D01*
X0192094Y0018000D02*
X0181346Y0018000D01*
X0174654Y0018000D02*
X0173000Y0018000D01*
X0173000Y0030500D01*
X0170500Y0033000D01*
X0170500Y0042528D01*
X0170028Y0043000D01*
X0170028Y0055972D01*
X0168000Y0058000D01*
X0180500Y0070500D01*
X0180500Y0115500D01*
X0183000Y0118000D01*
X0172190Y0118957D02*
X0159599Y0118957D01*
X0157558Y0122955D02*
X0173300Y0122955D01*
X0176243Y0126954D02*
X0152533Y0126954D01*
X0155473Y0130952D02*
X0198224Y0130952D01*
X0200370Y0133098D02*
X0200370Y0133098D01*
X0202223Y0134951D02*
X0158659Y0134951D01*
X0136424Y0150945D02*
X0129576Y0150945D01*
X0132292Y0146946D02*
X0133708Y0146946D01*
X0114795Y0165856D02*
X0114795Y0165856D01*
X0114795Y0165856D01*
X0103326Y0162940D02*
X0077000Y0162940D01*
X0077000Y0158942D02*
X0101000Y0158942D01*
X0101000Y0154943D02*
X0077000Y0154943D01*
X0077000Y0150945D02*
X0101457Y0150945D01*
X0098000Y0140500D02*
X0098000Y0068000D01*
X0088000Y0058000D01*
X0088000Y0048000D01*
X0088000Y0018000D01*
X0094654Y0018000D01*
X0101346Y0018000D02*
X0112094Y0018000D01*
X0120826Y0012328D02*
X0121248Y0012244D01*
X0123905Y0012244D01*
X0123905Y0018000D01*
X0123905Y0023756D01*
X0121248Y0023756D01*
X0120826Y0023672D01*
X0120391Y0024721D01*
X0118422Y0026690D01*
X0115849Y0027756D01*
X0108340Y0027756D01*
X0106515Y0027000D01*
X0099556Y0027000D01*
X0099480Y0026968D01*
X0097000Y0026968D01*
X0097000Y0041355D01*
X0097425Y0042381D01*
X0097425Y0039986D01*
X0097562Y0039120D01*
X0097834Y0038285D01*
X0098232Y0037503D01*
X0098748Y0036793D01*
X0099368Y0036173D01*
X0100078Y0035657D01*
X0100860Y0035259D01*
X0101695Y0034988D01*
X0102561Y0034850D01*
X0103000Y0034850D01*
X0103439Y0034850D01*
X0104305Y0034988D01*
X0105140Y0035259D01*
X0105922Y0035657D01*
X0106632Y0036173D01*
X0107252Y0036793D01*
X0107768Y0037503D01*
X0108166Y0038285D01*
X0108438Y0039120D01*
X0108575Y0039986D01*
X0108575Y0043000D01*
X0108575Y0046014D01*
X0108438Y0046880D01*
X0108166Y0047715D01*
X0107768Y0048497D01*
X0107252Y0049207D01*
X0106632Y0049827D01*
X0105922Y0050343D01*
X0105140Y0050741D01*
X0104804Y0050850D01*
X0104905Y0050850D01*
X0108424Y0052308D01*
X0111117Y0055002D01*
X0112575Y0058521D01*
X0112575Y0067479D01*
X0111117Y0070998D01*
X0108424Y0073692D01*
X0107000Y0074282D01*
X0107000Y0083733D01*
X0108655Y0083047D01*
X0110225Y0083047D01*
X0115370Y0077902D01*
X0117902Y0075370D01*
X0119765Y0074598D01*
X0117576Y0073692D01*
X0114883Y0070998D01*
X0113425Y0067479D01*
X0113425Y0058521D01*
X0114883Y0055002D01*
X0116884Y0053000D01*
X0114883Y0050998D01*
X0113425Y0047479D01*
X0113425Y0038521D01*
X0114883Y0035002D01*
X0117576Y0032308D01*
X0121095Y0030850D01*
X0124905Y0030850D01*
X0128000Y0032133D01*
X0131095Y0030850D01*
X0134905Y0030850D01*
X0138000Y0032133D01*
X0141095Y0030850D01*
X0144905Y0030850D01*
X0148424Y0032308D01*
X0151117Y0035002D01*
X0152575Y0038521D01*
X0152575Y0047479D01*
X0151117Y0050998D01*
X0149116Y0053000D01*
X0151117Y0055002D01*
X0152575Y0058521D01*
X0152575Y0063047D01*
X0157345Y0063047D01*
X0158544Y0063544D01*
X0158047Y0062345D01*
X0158047Y0053655D01*
X0159113Y0051082D01*
X0161028Y0049167D01*
X0161028Y0047634D01*
X0160972Y0047634D01*
X0159437Y0047634D01*
X0158857Y0047519D01*
X0158311Y0047292D01*
X0157820Y0046964D01*
X0157402Y0046546D01*
X0157074Y0046055D01*
X0156848Y0045509D01*
X0156732Y0044929D01*
X0156732Y0043000D01*
X0156732Y0041071D01*
X0156848Y0040491D01*
X0157074Y0039945D01*
X0157402Y0039454D01*
X0157820Y0039036D01*
X0158311Y0038708D01*
X0158857Y0038481D01*
X0159437Y0038366D01*
X0160972Y0038366D01*
X0160972Y0043000D01*
X0156732Y0043000D01*
X0160972Y0043000D01*
X0160972Y0043000D01*
X0160972Y0043000D01*
X0160972Y0047634D01*
X0160972Y0043000D01*
X0160972Y0043000D01*
X0160972Y0038366D01*
X0161500Y0038366D01*
X0161500Y0031210D01*
X0162870Y0027902D01*
X0164000Y0026772D01*
X0164000Y0016210D01*
X0165370Y0012902D01*
X0167902Y0010370D01*
X0168496Y0010124D01*
X0168523Y0010097D01*
X0168758Y0010000D01*
X0119112Y0010000D01*
X0120391Y0011279D01*
X0120826Y0012328D01*
X0120109Y0010997D02*
X0167275Y0010997D01*
X0169002Y0010997D02*
X0118695Y0010997D01*
X0123906Y0012244D02*
X0126563Y0012244D01*
X0127143Y0012359D01*
X0127689Y0012586D01*
X0128180Y0012914D01*
X0128598Y0013332D01*
X0128926Y0013823D01*
X0129152Y0014369D01*
X0129268Y0014949D01*
X0129268Y0018000D01*
X0129268Y0021051D01*
X0129152Y0021631D01*
X0128926Y0022177D01*
X0128598Y0022668D01*
X0128180Y0023086D01*
X0127689Y0023414D01*
X0127143Y0023641D01*
X0126563Y0023756D01*
X0123906Y0023756D01*
X0123906Y0018000D01*
X0129268Y0018000D01*
X0123906Y0018000D01*
X0123906Y0018000D01*
X0123905Y0018000D01*
X0123906Y0018000D01*
X0123906Y0012244D01*
X0123905Y0014996D02*
X0123906Y0014996D01*
X0123905Y0018994D02*
X0123906Y0018994D01*
X0129268Y0018994D02*
X0164000Y0018994D01*
X0164503Y0014996D02*
X0129268Y0014996D01*
X0128274Y0022993D02*
X0164000Y0022993D01*
X0163781Y0026991D02*
X0117696Y0026991D01*
X0120759Y0030990D02*
X0097000Y0030990D01*
X0097000Y0034988D02*
X0101693Y0034988D01*
X0103000Y0034988D02*
X0103000Y0034988D01*
X0103000Y0034850D02*
X0103000Y0043000D01*
X0108575Y0043000D01*
X0103000Y0043000D01*
X0103000Y0043000D01*
X0103000Y0034850D01*
X0104307Y0034988D02*
X0114896Y0034988D01*
X0113425Y0038987D02*
X0108394Y0038987D01*
X0108575Y0042985D02*
X0113425Y0042985D01*
X0113425Y0046984D02*
X0108404Y0046984D01*
X0105223Y0050982D02*
X0114876Y0050982D01*
X0114904Y0054981D02*
X0111096Y0054981D01*
X0112575Y0058979D02*
X0113425Y0058979D01*
X0113425Y0062978D02*
X0112575Y0062978D01*
X0112575Y0066976D02*
X0113425Y0066976D01*
X0114873Y0070975D02*
X0111127Y0070975D01*
X0107000Y0074973D02*
X0118860Y0074973D01*
X0114300Y0078972D02*
X0107000Y0078972D01*
X0107000Y0082970D02*
X0110302Y0082970D01*
X0113000Y0093000D02*
X0123000Y0083000D01*
X0165500Y0083000D01*
X0173000Y0075500D01*
X0158309Y0062978D02*
X0152575Y0062978D01*
X0152575Y0058979D02*
X0158047Y0058979D01*
X0158047Y0054981D02*
X0151096Y0054981D01*
X0151124Y0050982D02*
X0159213Y0050982D01*
X0157849Y0046984D02*
X0152575Y0046984D01*
X0152575Y0042985D02*
X0156732Y0042985D01*
X0160972Y0042985D02*
X0160972Y0042985D01*
X0160972Y0046984D02*
X0160972Y0046984D01*
X0160972Y0038987D02*
X0160972Y0038987D01*
X0157894Y0038987D02*
X0152575Y0038987D01*
X0151104Y0034988D02*
X0161500Y0034988D01*
X0161591Y0030990D02*
X0145241Y0030990D01*
X0140759Y0030990D02*
X0135241Y0030990D01*
X0130759Y0030990D02*
X0125241Y0030990D01*
X0123905Y0022993D02*
X0123906Y0022993D01*
X0142664Y0014996D02*
X0165585Y0014996D01*
X0219635Y0018994D02*
X0232500Y0018994D01*
X0153000Y0073000D02*
X0133000Y0073000D01*
X0123762Y0094966D02*
X0171500Y0094966D01*
X0171500Y0090967D02*
X0169783Y0090967D01*
X0171500Y0098964D02*
X0122282Y0098964D01*
X0127126Y0102963D02*
X0138874Y0102963D01*
X0134916Y0106961D02*
X0131084Y0106961D01*
X0132839Y0110960D02*
X0133161Y0110960D01*
X0154134Y0102963D02*
X0171500Y0102963D01*
X0171500Y0106961D02*
X0158092Y0106961D01*
X0159846Y0110960D02*
X0171500Y0110960D01*
X0171500Y0114958D02*
X0160307Y0114958D01*
X0189757Y0126954D02*
X0194226Y0126954D01*
X0166631Y0174936D02*
X0156464Y0174936D01*
X0159231Y0178934D02*
X0164338Y0178934D01*
X0162902Y0180370D02*
X0162902Y0180370D01*
X0160357Y0182933D02*
X0160307Y0182933D01*
X0088918Y0146946D02*
X0087082Y0146946D01*
X0087953Y0142948D02*
X0088047Y0142948D01*
X0088047Y0138949D02*
X0087953Y0138949D01*
X0087454Y0134951D02*
X0088546Y0134951D01*
X0089000Y0130952D02*
X0087000Y0130952D01*
X0087000Y0126954D02*
X0089000Y0126954D01*
X0089000Y0122955D02*
X0087000Y0122955D01*
X0087000Y0118957D02*
X0089000Y0118957D01*
X0089000Y0114958D02*
X0087000Y0114958D01*
X0087000Y0110960D02*
X0089000Y0110960D01*
X0089000Y0106961D02*
X0087000Y0106961D01*
X0087000Y0102963D02*
X0089000Y0102963D01*
X0089000Y0098964D02*
X0087000Y0098964D01*
X0087000Y0094966D02*
X0089000Y0094966D01*
X0089000Y0090967D02*
X0087000Y0090967D01*
X0087000Y0086969D02*
X0089000Y0086969D01*
X0089000Y0082970D02*
X0087000Y0082970D01*
X0087000Y0078972D02*
X0089000Y0078972D01*
X0088000Y0076768D02*
X0088000Y0072528D01*
X0088000Y0076768D01*
X0088000Y0074973D02*
X0088000Y0074973D01*
X0088000Y0072528D02*
X0088000Y0072528D01*
X0088000Y0063472D02*
X0088000Y0058000D01*
X0078000Y0058000D02*
X0078000Y0140500D01*
X0039873Y0070975D02*
X0036127Y0070975D01*
X0037575Y0066976D02*
X0038425Y0066976D01*
X0038425Y0062978D02*
X0037575Y0062978D01*
X0037575Y0058979D02*
X0038425Y0058979D01*
X0039904Y0054981D02*
X0036096Y0054981D01*
X0039876Y0050982D02*
X0030223Y0050982D01*
X0033404Y0046984D02*
X0038425Y0046984D01*
X0038425Y0042985D02*
X0033575Y0042985D01*
X0033575Y0043000D02*
X0028000Y0043000D01*
X0033575Y0043000D01*
X0028000Y0043000D02*
X0028000Y0043000D01*
X0028000Y0034850D01*
X0028000Y0043000D01*
X0028000Y0043000D01*
X0028000Y0042985D02*
X0028000Y0042985D01*
X0028000Y0038987D02*
X0028000Y0038987D01*
X0028000Y0034988D02*
X0028000Y0034988D01*
X0029307Y0034988D02*
X0039896Y0034988D01*
X0038425Y0038987D02*
X0033394Y0038987D01*
X0026693Y0034988D02*
X0022000Y0034988D01*
X0022000Y0030990D02*
X0045759Y0030990D01*
X0050241Y0030990D02*
X0055759Y0030990D01*
X0057339Y0026991D02*
X0042696Y0026991D01*
X0048906Y0023756D02*
X0048906Y0018000D01*
X0054268Y0018000D01*
X0054268Y0021051D01*
X0054152Y0021631D01*
X0053926Y0022177D01*
X0053598Y0022668D01*
X0053180Y0023086D01*
X0052689Y0023414D01*
X0052143Y0023641D01*
X0051563Y0023756D01*
X0048906Y0023756D01*
X0048905Y0022993D02*
X0048906Y0022993D01*
X0053274Y0022993D02*
X0056669Y0022993D01*
X0057343Y0018994D02*
X0054268Y0018994D01*
X0054268Y0018000D02*
X0048906Y0018000D01*
X0048906Y0018000D01*
X0048905Y0018000D01*
X0048906Y0018000D01*
X0048906Y0012244D01*
X0051563Y0012244D01*
X0052143Y0012359D01*
X0052689Y0012586D01*
X0053180Y0012914D01*
X0053598Y0013332D01*
X0053926Y0013823D01*
X0054152Y0014369D01*
X0054268Y0014949D01*
X0054268Y0018000D01*
X0054268Y0014996D02*
X0059980Y0014996D01*
X0065693Y0010997D02*
X0084002Y0010997D01*
X0082275Y0010997D02*
X0045109Y0010997D01*
X0048905Y0014996D02*
X0048906Y0014996D01*
X0048905Y0018994D02*
X0048906Y0018994D01*
X0037094Y0018000D02*
X0021346Y0018000D01*
X0014654Y0018000D02*
X0013000Y0019654D01*
X0013000Y0063472D01*
X0013000Y0048000D01*
X0022000Y0038987D02*
X0022606Y0038987D01*
X0019873Y0070975D02*
X0018226Y0070975D01*
X0078657Y0018994D02*
X0079000Y0018994D01*
X0079503Y0014996D02*
X0076020Y0014996D01*
X0097000Y0026991D02*
X0099535Y0026991D01*
X0097606Y0038987D02*
X0097000Y0038987D01*
X0103000Y0038987D02*
X0103000Y0038987D01*
X0103000Y0042985D02*
X0103000Y0042985D01*
X0103000Y0043000D02*
X0103000Y0043000D01*
D24*
X0110500Y0043000D03*
X0088000Y0048000D03*
X0078000Y0058000D03*
X0068000Y0078000D03*
X0113000Y0093000D03*
X0133000Y0073000D03*
X0153000Y0073000D03*
X0173000Y0075500D03*
X0168000Y0058000D03*
X0188000Y0053000D03*
X0188000Y0038000D03*
X0208000Y0073000D03*
X0240500Y0050500D03*
X0263000Y0038000D03*
X0283000Y0078000D03*
X0268000Y0148000D03*
X0268000Y0160500D03*
X0213000Y0183000D03*
X0178000Y0203000D03*
X0123000Y0233000D03*
X0170500Y0160500D03*
X0183000Y0118000D03*
X0098000Y0140500D03*
X0078000Y0140500D03*
X0013000Y0083000D03*
X0013000Y0048000D03*
X0028000Y0030500D03*
X0013000Y0233000D03*
D25*
X0088000Y0198000D03*
D26*
X0168000Y0258000D03*
M02*
