%
M48
M72
T01C0.02756
T02C0.03150
T03C0.03200
T04C0.03543
T05C0.03937
T06C0.04000
T07C0.04331
T08C0.05118
T09C0.08661
T10C0.09606
%
T01
X168000Y243000
X178000Y243000
T02
X178000Y63000
X198000Y63000
X208000Y63000
X218000Y63000
X218000Y43000
X208000Y43000
X198000Y43000
X178000Y43000
X143000Y43000
X133000Y43000
X123000Y43000
X103000Y43000
X103000Y63000
X123000Y63000
X133000Y63000
X143000Y63000
X68000Y63000
X58000Y63000
X48000Y63000
X28000Y63000
X28000Y43000
X48000Y43000
X58000Y43000
X68000Y43000
X253000Y43000
X273000Y43000
X283000Y43000
X293000Y43000
X293000Y63000
X283000Y63000
X273000Y63000
X253000Y63000
T03
X248000Y193000
X258000Y193000
X268000Y193000
X238000Y193000
X228000Y193000
X218000Y193000
X208000Y193000
X198000Y193000
X188000Y193000
X188000Y223000
X198000Y223000
X208000Y223000
X218000Y223000
X228000Y223000
X238000Y223000
X248000Y223000
X258000Y223000
X268000Y223000
T04
X88000Y198000
T05
X28000Y30500
X13000Y48000
X13000Y83000
X68000Y78000
X78000Y58000
X88000Y48000
X110500Y43000
X133000Y73000
X153000Y73000
X173000Y75500
X168000Y58000
X188000Y53000
X188000Y38000
X208000Y73000
X240500Y50500
X263000Y38000
X283000Y78000
X268000Y148000
X268000Y160500
X213000Y183000
X178000Y203000
X123000Y233000
X170500Y160500
X183000Y118000
X113000Y93000
X98000Y140500
X78000Y140500
X13000Y233000
T06
X177500Y173000
X188500Y173000
X188000Y258000
X198000Y258000
X228000Y258000
X238000Y258000
X248000Y258000
X258000Y258000
X268000Y258000
X298000Y258000
X308000Y258000
T07
X168000Y258000
T08
X133000Y198000
X38000Y198000
X38000Y128000
X133000Y128000
X348000Y175500
X348000Y240500
X353000Y110500
X353000Y45500
T09
X383000Y18000
X68000Y23000
X18000Y263000
X383000Y263000
T10
X361504Y254004
X334496Y254004
X334496Y226996
X361504Y226996
X361504Y189004
X334496Y189004
X334496Y161996
X361504Y161996
X366504Y124004
X339496Y124004
X339496Y96996
X366504Y96996
X366504Y59004
X339496Y59004
X339496Y31996
X366504Y31996
X146504Y114496
X119496Y114496
X119496Y141504
X146504Y141504
X146504Y184496
X119496Y184496
X119496Y211504
X146504Y211504
X51504Y211504
X24496Y211504
X24496Y184496
X51504Y184496
X51504Y141504
X24496Y141504
X24496Y114496
X51504Y114496
M30
