G75*
%MOIN*%
%OFA0B0*%
%FSLAX25Y25*%
%IPPOS*%
%LPD*%
%AMOC8*
5,1,8,0,0,1.08239X$1,22.5*
%
%ADD10C,0.01100*%
%ADD11R,0.05512X0.04724*%
%ADD12R,0.02480X0.03268*%
%ADD13C,0.05200*%
%ADD14C,0.07400*%
%ADD15C,0.05150*%
%ADD16R,0.04331X0.03937*%
%ADD17C,0.07677*%
%ADD18C,0.13606*%
%ADD19C,0.06500*%
%ADD20R,0.06500X0.06500*%
%ADD21C,0.04000*%
%ADD22R,0.05906X0.05906*%
D10*
X0018550Y0061050D02*
X0018550Y0064987D01*
X0020518Y0066955D01*
X0022487Y0064987D01*
X0022487Y0061050D01*
X0022487Y0064003D02*
X0018550Y0064003D01*
X0017847Y0078550D02*
X0017847Y0084455D01*
X0021784Y0078550D01*
X0021784Y0084455D01*
X0015518Y0084455D02*
X0013550Y0084455D01*
X0014534Y0084455D02*
X0014534Y0078550D01*
X0013550Y0078550D02*
X0015518Y0078550D01*
X0083550Y0064987D02*
X0083550Y0061050D01*
X0083550Y0064003D02*
X0087487Y0064003D01*
X0087487Y0064987D02*
X0087487Y0061050D01*
X0087487Y0064987D02*
X0085518Y0066955D01*
X0083550Y0064987D01*
X0133550Y0078550D02*
X0133550Y0084455D01*
X0135518Y0082487D01*
X0137487Y0084455D01*
X0137487Y0078550D01*
X0139995Y0079534D02*
X0140980Y0078550D01*
X0142948Y0078550D01*
X0143932Y0079534D01*
X0143932Y0083471D01*
X0142948Y0084455D01*
X0140980Y0084455D01*
X0139995Y0083471D01*
X0139995Y0079534D01*
X0146441Y0078550D02*
X0146441Y0084455D01*
X0150378Y0078550D01*
X0150378Y0084455D01*
X0163550Y0079455D02*
X0166503Y0079455D01*
X0167487Y0078471D01*
X0167487Y0077487D01*
X0166503Y0076503D01*
X0163550Y0076503D01*
X0163550Y0079455D02*
X0163550Y0073550D01*
X0166503Y0073550D01*
X0167487Y0074534D01*
X0167487Y0075518D01*
X0166503Y0076503D01*
X0178550Y0076503D02*
X0182487Y0076503D01*
X0182487Y0077487D02*
X0182487Y0073550D01*
X0182487Y0077487D02*
X0180518Y0079455D01*
X0178550Y0077487D01*
X0178550Y0073550D01*
X0193550Y0073550D02*
X0197487Y0073550D01*
X0195518Y0073550D02*
X0195518Y0079455D01*
X0193550Y0077487D01*
X0199995Y0077487D02*
X0199995Y0073550D01*
X0199995Y0076503D02*
X0203932Y0076503D01*
X0203932Y0077487D02*
X0203932Y0073550D01*
X0203932Y0077487D02*
X0201964Y0079455D01*
X0199995Y0077487D01*
X0268550Y0077487D02*
X0270518Y0079455D01*
X0270518Y0073550D01*
X0268550Y0073550D02*
X0272487Y0073550D01*
X0274995Y0073550D02*
X0277948Y0073550D01*
X0278932Y0074534D01*
X0278932Y0078471D01*
X0277948Y0079455D01*
X0274995Y0079455D01*
X0274995Y0073550D01*
X0276964Y0019455D02*
X0274995Y0017487D01*
X0274995Y0013550D01*
X0272487Y0013550D02*
X0268550Y0013550D01*
X0272487Y0017487D01*
X0272487Y0018471D01*
X0271503Y0019455D01*
X0269534Y0019455D01*
X0268550Y0018471D01*
X0274995Y0016503D02*
X0278932Y0016503D01*
X0278932Y0017487D02*
X0278932Y0013550D01*
X0278932Y0017487D02*
X0276964Y0019455D01*
X0198932Y0018471D02*
X0198932Y0014534D01*
X0197948Y0013550D01*
X0194995Y0013550D01*
X0194995Y0019455D01*
X0197948Y0019455D01*
X0198932Y0018471D01*
X0192487Y0018471D02*
X0191503Y0019455D01*
X0189534Y0019455D01*
X0188550Y0018471D01*
X0192487Y0018471D02*
X0192487Y0017487D01*
X0188550Y0013550D01*
X0192487Y0013550D01*
X0086503Y0128550D02*
X0083550Y0128550D01*
X0083550Y0134455D01*
X0086503Y0134455D01*
X0087487Y0133471D01*
X0087487Y0132487D01*
X0086503Y0131503D01*
X0083550Y0131503D01*
X0086503Y0131503D02*
X0087487Y0130518D01*
X0087487Y0129534D01*
X0086503Y0128550D01*
X0022487Y0129534D02*
X0021503Y0128550D01*
X0018550Y0128550D01*
X0018550Y0134455D01*
X0021503Y0134455D01*
X0022487Y0133471D01*
X0022487Y0132487D01*
X0021503Y0131503D01*
X0018550Y0131503D01*
X0021503Y0131503D02*
X0022487Y0130518D01*
X0022487Y0129534D01*
D11*
X0058000Y0204594D03*
X0058000Y0216406D03*
X0133000Y0216406D03*
X0133000Y0204594D03*
X0208000Y0204594D03*
X0208000Y0216406D03*
X0283000Y0216406D03*
X0283000Y0204594D03*
D12*
X0298472Y0193000D03*
X0307528Y0193000D03*
X0232528Y0193000D03*
X0223472Y0193000D03*
X0157528Y0193000D03*
X0148472Y0193000D03*
X0082528Y0193000D03*
X0073472Y0193000D03*
D13*
X0337900Y0195500D02*
X0343100Y0195500D01*
X0343100Y0185500D02*
X0337900Y0185500D01*
X0337900Y0175500D02*
X0343100Y0175500D01*
X0343100Y0165500D02*
X0337900Y0165500D01*
X0337900Y0155500D02*
X0343100Y0155500D01*
X0367900Y0155500D02*
X0373100Y0155500D01*
X0373100Y0165500D02*
X0367900Y0165500D01*
X0367900Y0175500D02*
X0373100Y0175500D01*
X0373100Y0185500D02*
X0367900Y0185500D01*
X0367900Y0195500D02*
X0373100Y0195500D01*
X0373100Y0205500D02*
X0367900Y0205500D01*
X0367900Y0215500D02*
X0373100Y0215500D01*
X0373100Y0225500D02*
X0367900Y0225500D01*
X0367900Y0235500D02*
X0373100Y0235500D01*
X0343100Y0235500D02*
X0337900Y0235500D01*
X0337900Y0225500D02*
X0343100Y0225500D01*
X0343100Y0215500D02*
X0337900Y0215500D01*
X0337900Y0205500D02*
X0343100Y0205500D01*
D14*
X0385500Y0195500D03*
X0385500Y0185500D03*
X0385500Y0175500D03*
X0385500Y0165500D03*
X0385500Y0155500D03*
X0385500Y0235500D03*
X0385500Y0245500D03*
X0178000Y0093000D03*
X0168000Y0093000D03*
D15*
X0153000Y0160425D02*
X0153000Y0165575D01*
X0133000Y0165575D02*
X0133000Y0160425D01*
X0123000Y0160425D02*
X0123000Y0165575D01*
X0113000Y0165575D02*
X0113000Y0160425D01*
X0113000Y0180425D02*
X0113000Y0185575D01*
X0123000Y0185575D02*
X0123000Y0180425D01*
X0133000Y0180425D02*
X0133000Y0185575D01*
X0153000Y0185575D02*
X0153000Y0180425D01*
X0188000Y0180425D02*
X0188000Y0185575D01*
X0198000Y0185575D02*
X0198000Y0180425D01*
X0208000Y0180425D02*
X0208000Y0185575D01*
X0228000Y0185575D02*
X0228000Y0180425D01*
X0228000Y0165575D02*
X0228000Y0160425D01*
X0208000Y0160425D02*
X0208000Y0165575D01*
X0198000Y0165575D02*
X0198000Y0160425D01*
X0188000Y0160425D02*
X0188000Y0165575D01*
X0263000Y0165575D02*
X0263000Y0160425D01*
X0273000Y0160425D02*
X0273000Y0165575D01*
X0283000Y0165575D02*
X0283000Y0160425D01*
X0303000Y0160425D02*
X0303000Y0165575D01*
X0303000Y0180425D02*
X0303000Y0185575D01*
X0283000Y0185575D02*
X0283000Y0180425D01*
X0273000Y0180425D02*
X0273000Y0185575D01*
X0263000Y0185575D02*
X0263000Y0180425D01*
X0078000Y0180425D02*
X0078000Y0185575D01*
X0058000Y0185575D02*
X0058000Y0180425D01*
X0048000Y0180425D02*
X0048000Y0185575D01*
X0038000Y0185575D02*
X0038000Y0180425D01*
X0038000Y0165575D02*
X0038000Y0160425D01*
X0048000Y0160425D02*
X0048000Y0165575D01*
X0058000Y0165575D02*
X0058000Y0160425D01*
X0078000Y0160425D02*
X0078000Y0165575D01*
D16*
X0074654Y0203000D03*
X0081346Y0203000D03*
X0149654Y0203000D03*
X0156346Y0203000D03*
X0224654Y0203000D03*
X0231346Y0203000D03*
X0299654Y0203000D03*
X0306346Y0203000D03*
X0319654Y0235500D03*
X0326346Y0235500D03*
D17*
X0303000Y0100500D03*
X0228000Y0100500D03*
X0228000Y0035500D03*
X0308000Y0035500D03*
X0113000Y0043000D03*
X0048000Y0043000D03*
X0048000Y0108000D03*
X0113000Y0108000D03*
D18*
X0099496Y0094496D03*
X0126504Y0094496D03*
X0126504Y0121504D03*
X0099496Y0121504D03*
X0061504Y0121504D03*
X0034496Y0121504D03*
X0034496Y0094496D03*
X0061504Y0094496D03*
X0061504Y0056504D03*
X0034496Y0056504D03*
X0034496Y0029496D03*
X0061504Y0029496D03*
X0099496Y0029496D03*
X0126504Y0029496D03*
X0126504Y0056504D03*
X0099496Y0056504D03*
X0214496Y0049004D03*
X0241504Y0049004D03*
X0241504Y0021996D03*
X0214496Y0021996D03*
X0294496Y0021996D03*
X0321504Y0021996D03*
X0321504Y0049004D03*
X0294496Y0049004D03*
X0289496Y0086996D03*
X0316504Y0086996D03*
X0316504Y0114004D03*
X0289496Y0114004D03*
X0241504Y0114004D03*
X0214496Y0114004D03*
X0214496Y0086996D03*
X0241504Y0086996D03*
D19*
X0305500Y0253000D03*
D20*
X0295500Y0253000D03*
D21*
X0027067Y0011043D02*
X0026024Y0010000D01*
X0181848Y0010000D01*
X0181000Y0012048D01*
X0181000Y0015052D01*
X0181397Y0016010D01*
X0181000Y0016969D01*
X0181000Y0019973D01*
X0182149Y0022748D01*
X0183134Y0023732D01*
X0183134Y0023732D01*
X0183679Y0024278D01*
X0185257Y0025856D01*
X0185257Y0025856D01*
X0185257Y0025856D01*
X0186720Y0026462D01*
X0188032Y0027005D01*
X0188032Y0027005D01*
X0188032Y0027005D01*
X0190001Y0027005D01*
X0190001Y0027005D01*
X0190502Y0027005D01*
X0191036Y0027005D01*
X0191036Y0027005D01*
X0193004Y0027005D01*
X0193004Y0027005D01*
X0193004Y0027005D01*
X0193249Y0026904D01*
X0193494Y0027005D01*
X0196446Y0027005D01*
X0196446Y0027005D01*
X0197932Y0027005D01*
X0199450Y0027005D01*
X0199450Y0027005D01*
X0200716Y0026481D01*
X0202225Y0025856D01*
X0202225Y0025856D01*
X0202225Y0025856D01*
X0203755Y0024326D01*
X0204349Y0023732D01*
X0204349Y0023732D01*
X0204778Y0023302D01*
X0204816Y0023641D01*
X0205061Y0024714D01*
X0205425Y0025753D01*
X0205903Y0026745D01*
X0206488Y0027678D01*
X0207175Y0028539D01*
X0207953Y0029317D01*
X0208814Y0030004D01*
X0209747Y0030590D01*
X0210739Y0031067D01*
X0211778Y0031431D01*
X0212851Y0031676D01*
X0213946Y0031799D01*
X0214094Y0031799D01*
X0214094Y0022398D01*
X0214898Y0022398D01*
X0214898Y0031799D01*
X0215047Y0031799D01*
X0216141Y0031676D01*
X0217214Y0031431D01*
X0217991Y0031159D01*
X0217900Y0031316D01*
X0217161Y0034073D01*
X0217161Y0036927D01*
X0217900Y0039684D01*
X0217991Y0039841D01*
X0217214Y0039569D01*
X0216141Y0039324D01*
X0215047Y0039201D01*
X0214898Y0039201D01*
X0214898Y0048602D01*
X0214898Y0049406D01*
X0214094Y0049406D01*
X0214094Y0058807D01*
X0213946Y0058807D01*
X0212851Y0058684D01*
X0211778Y0058439D01*
X0210739Y0058075D01*
X0209747Y0057597D01*
X0208814Y0057012D01*
X0207953Y0056325D01*
X0207175Y0055547D01*
X0206488Y0054686D01*
X0205903Y0053753D01*
X0205425Y0052761D01*
X0205061Y0051722D01*
X0204816Y0050649D01*
X0204693Y0049554D01*
X0204693Y0049406D01*
X0214094Y0049406D01*
X0214094Y0048602D01*
X0204693Y0048602D01*
X0204693Y0048453D01*
X0204816Y0047359D01*
X0205061Y0046286D01*
X0205425Y0045247D01*
X0205903Y0044254D01*
X0206488Y0043322D01*
X0207175Y0042461D01*
X0207953Y0041683D01*
X0208814Y0040996D01*
X0209747Y0040410D01*
X0210739Y0039933D01*
X0211778Y0039569D01*
X0212851Y0039324D01*
X0213946Y0039201D01*
X0214094Y0039201D01*
X0214094Y0048602D01*
X0214898Y0048602D01*
X0224299Y0048602D01*
X0224299Y0048453D01*
X0224176Y0047359D01*
X0223931Y0046286D01*
X0223659Y0045509D01*
X0223816Y0045600D01*
X0226573Y0046339D01*
X0229427Y0046339D01*
X0232184Y0045600D01*
X0232341Y0045509D01*
X0232069Y0046286D01*
X0231824Y0047359D01*
X0231701Y0048453D01*
X0231701Y0048602D01*
X0241102Y0048602D01*
X0241102Y0049406D01*
X0241102Y0058807D01*
X0240953Y0058807D01*
X0239859Y0058684D01*
X0238786Y0058439D01*
X0237747Y0058075D01*
X0236754Y0057597D01*
X0235822Y0057012D01*
X0234961Y0056325D01*
X0234183Y0055547D01*
X0233496Y0054686D01*
X0232910Y0053753D01*
X0232433Y0052761D01*
X0232069Y0051722D01*
X0231824Y0050649D01*
X0231701Y0049554D01*
X0231701Y0049406D01*
X0241102Y0049406D01*
X0241906Y0049406D01*
X0241906Y0058807D01*
X0242054Y0058807D01*
X0243149Y0058684D01*
X0244222Y0058439D01*
X0245261Y0058075D01*
X0246253Y0057597D01*
X0247186Y0057012D01*
X0248047Y0056325D01*
X0248825Y0055547D01*
X0249512Y0054686D01*
X0250097Y0053753D01*
X0250575Y0052761D01*
X0250939Y0051722D01*
X0251184Y0050649D01*
X0251307Y0049554D01*
X0251307Y0049406D01*
X0241906Y0049406D01*
X0241906Y0048602D01*
X0251307Y0048602D01*
X0251307Y0048453D01*
X0251184Y0047359D01*
X0250939Y0046286D01*
X0250575Y0045247D01*
X0250097Y0044254D01*
X0249512Y0043322D01*
X0248825Y0042461D01*
X0248047Y0041683D01*
X0247186Y0040996D01*
X0246253Y0040410D01*
X0245261Y0039933D01*
X0244222Y0039569D01*
X0243149Y0039324D01*
X0242054Y0039201D01*
X0241906Y0039201D01*
X0241906Y0048602D01*
X0241102Y0048602D01*
X0241102Y0039201D01*
X0240953Y0039201D01*
X0239859Y0039324D01*
X0238786Y0039569D01*
X0238009Y0039841D01*
X0238100Y0039684D01*
X0238839Y0036927D01*
X0238839Y0034073D01*
X0238100Y0031316D01*
X0238009Y0031159D01*
X0238786Y0031431D01*
X0239859Y0031676D01*
X0240953Y0031799D01*
X0241102Y0031799D01*
X0241102Y0022398D01*
X0241906Y0022398D01*
X0251307Y0022398D01*
X0251307Y0022547D01*
X0251184Y0023641D01*
X0250939Y0024714D01*
X0250575Y0025753D01*
X0250097Y0026745D01*
X0249512Y0027678D01*
X0248825Y0028539D01*
X0248047Y0029317D01*
X0247186Y0030004D01*
X0246253Y0030590D01*
X0245261Y0031067D01*
X0244222Y0031431D01*
X0243149Y0031676D01*
X0242054Y0031799D01*
X0241906Y0031799D01*
X0241906Y0022398D01*
X0241906Y0021594D01*
X0251307Y0021594D01*
X0251307Y0021446D01*
X0251184Y0020351D01*
X0250939Y0019278D01*
X0250575Y0018239D01*
X0250097Y0017247D01*
X0249512Y0016314D01*
X0248825Y0015453D01*
X0248047Y0014675D01*
X0247186Y0013988D01*
X0246253Y0013403D01*
X0245261Y0012925D01*
X0244222Y0012561D01*
X0243149Y0012316D01*
X0242054Y0012193D01*
X0241906Y0012193D01*
X0241906Y0021594D01*
X0241102Y0021594D01*
X0241102Y0012193D01*
X0240953Y0012193D01*
X0239859Y0012316D01*
X0238786Y0012561D01*
X0237747Y0012925D01*
X0236754Y0013403D01*
X0235822Y0013988D01*
X0234961Y0014675D01*
X0234183Y0015453D01*
X0233496Y0016314D01*
X0232910Y0017247D01*
X0232433Y0018239D01*
X0232069Y0019278D01*
X0231824Y0020351D01*
X0231701Y0021446D01*
X0231701Y0021594D01*
X0241102Y0021594D01*
X0241102Y0022398D01*
X0231701Y0022398D01*
X0231701Y0022547D01*
X0231824Y0023641D01*
X0232069Y0024714D01*
X0232341Y0025491D01*
X0232184Y0025400D01*
X0229427Y0024661D01*
X0226573Y0024661D01*
X0223816Y0025400D01*
X0223659Y0025491D01*
X0223931Y0024714D01*
X0224176Y0023641D01*
X0224299Y0022547D01*
X0224299Y0022398D01*
X0214898Y0022398D01*
X0214898Y0021594D01*
X0214898Y0012193D01*
X0215047Y0012193D01*
X0216141Y0012316D01*
X0217214Y0012561D01*
X0218253Y0012925D01*
X0219245Y0013403D01*
X0220178Y0013988D01*
X0221039Y0014675D01*
X0221817Y0015453D01*
X0222504Y0016314D01*
X0223090Y0017247D01*
X0223567Y0018239D01*
X0223931Y0019278D01*
X0224176Y0020351D01*
X0224299Y0021446D01*
X0224299Y0021594D01*
X0214898Y0021594D01*
X0214094Y0021594D01*
X0214094Y0012193D01*
X0213946Y0012193D01*
X0212851Y0012316D01*
X0211778Y0012561D01*
X0210739Y0012925D01*
X0209747Y0013403D01*
X0208814Y0013988D01*
X0207953Y0014675D01*
X0207175Y0015453D01*
X0206488Y0016314D01*
X0206482Y0016324D01*
X0206482Y0013032D01*
X0205333Y0010257D01*
X0205075Y0010000D01*
X0261848Y0010000D01*
X0261000Y0012048D01*
X0261000Y0015052D01*
X0261397Y0016010D01*
X0261000Y0016969D01*
X0261000Y0019973D01*
X0262149Y0022748D01*
X0263134Y0023732D01*
X0263134Y0023732D01*
X0263679Y0024278D01*
X0265257Y0025856D01*
X0265257Y0025856D01*
X0265257Y0025856D01*
X0266720Y0026462D01*
X0268032Y0027005D01*
X0268032Y0027005D01*
X0268032Y0027005D01*
X0270001Y0027005D01*
X0270001Y0027005D01*
X0270502Y0027005D01*
X0271036Y0027005D01*
X0271036Y0027005D01*
X0273004Y0027005D01*
X0273004Y0027005D01*
X0273004Y0027005D01*
X0274233Y0026496D01*
X0275462Y0027005D01*
X0278466Y0027005D01*
X0280384Y0026211D01*
X0281241Y0025856D01*
X0281241Y0025856D01*
X0282299Y0024797D01*
X0283364Y0023732D01*
X0283364Y0023732D01*
X0284693Y0022403D01*
X0284693Y0022547D01*
X0284816Y0023641D01*
X0285061Y0024714D01*
X0285425Y0025753D01*
X0285903Y0026745D01*
X0286488Y0027678D01*
X0287175Y0028539D01*
X0287953Y0029317D01*
X0288814Y0030004D01*
X0289747Y0030590D01*
X0290739Y0031067D01*
X0291778Y0031431D01*
X0292851Y0031676D01*
X0293946Y0031799D01*
X0294094Y0031799D01*
X0294094Y0022398D01*
X0294898Y0022398D01*
X0294898Y0031799D01*
X0295047Y0031799D01*
X0296141Y0031676D01*
X0297214Y0031431D01*
X0297991Y0031159D01*
X0297900Y0031316D01*
X0297161Y0034073D01*
X0297161Y0036927D01*
X0297900Y0039684D01*
X0297991Y0039841D01*
X0297214Y0039569D01*
X0296141Y0039324D01*
X0295047Y0039201D01*
X0294898Y0039201D01*
X0294898Y0048602D01*
X0294898Y0049406D01*
X0294094Y0049406D01*
X0294094Y0058807D01*
X0293946Y0058807D01*
X0292851Y0058684D01*
X0291778Y0058439D01*
X0290739Y0058075D01*
X0289747Y0057597D01*
X0288814Y0057012D01*
X0287953Y0056325D01*
X0287175Y0055547D01*
X0286488Y0054686D01*
X0285903Y0053753D01*
X0285425Y0052761D01*
X0285061Y0051722D01*
X0284816Y0050649D01*
X0284693Y0049554D01*
X0284693Y0049406D01*
X0294094Y0049406D01*
X0294094Y0048602D01*
X0284693Y0048602D01*
X0284693Y0048453D01*
X0284816Y0047359D01*
X0285061Y0046286D01*
X0285425Y0045247D01*
X0285903Y0044254D01*
X0286488Y0043322D01*
X0287175Y0042461D01*
X0287953Y0041683D01*
X0288814Y0040996D01*
X0289747Y0040410D01*
X0290739Y0039933D01*
X0291778Y0039569D01*
X0292851Y0039324D01*
X0293946Y0039201D01*
X0294094Y0039201D01*
X0294094Y0048602D01*
X0294898Y0048602D01*
X0304299Y0048602D01*
X0304299Y0048453D01*
X0304176Y0047359D01*
X0303931Y0046286D01*
X0303659Y0045509D01*
X0303816Y0045600D01*
X0306573Y0046339D01*
X0309427Y0046339D01*
X0312184Y0045600D01*
X0312341Y0045509D01*
X0312069Y0046286D01*
X0311824Y0047359D01*
X0311701Y0048453D01*
X0311701Y0048602D01*
X0321102Y0048602D01*
X0321102Y0049406D01*
X0321102Y0058807D01*
X0320953Y0058807D01*
X0319859Y0058684D01*
X0318786Y0058439D01*
X0317747Y0058075D01*
X0316754Y0057597D01*
X0315822Y0057012D01*
X0314961Y0056325D01*
X0314183Y0055547D01*
X0313496Y0054686D01*
X0312910Y0053753D01*
X0312433Y0052761D01*
X0312069Y0051722D01*
X0311824Y0050649D01*
X0311701Y0049554D01*
X0311701Y0049406D01*
X0321102Y0049406D01*
X0321906Y0049406D01*
X0321906Y0058807D01*
X0322054Y0058807D01*
X0323149Y0058684D01*
X0324222Y0058439D01*
X0325261Y0058075D01*
X0326253Y0057597D01*
X0327186Y0057012D01*
X0328047Y0056325D01*
X0328825Y0055547D01*
X0329512Y0054686D01*
X0330097Y0053753D01*
X0330575Y0052761D01*
X0330939Y0051722D01*
X0331184Y0050649D01*
X0331307Y0049554D01*
X0331307Y0049406D01*
X0321906Y0049406D01*
X0321906Y0048602D01*
X0331307Y0048602D01*
X0331307Y0048453D01*
X0331184Y0047359D01*
X0330939Y0046286D01*
X0330575Y0045247D01*
X0330097Y0044254D01*
X0329512Y0043322D01*
X0328825Y0042461D01*
X0328047Y0041683D01*
X0327186Y0040996D01*
X0326253Y0040410D01*
X0325261Y0039933D01*
X0324222Y0039569D01*
X0323149Y0039324D01*
X0322054Y0039201D01*
X0321906Y0039201D01*
X0321906Y0048602D01*
X0321102Y0048602D01*
X0321102Y0039201D01*
X0320953Y0039201D01*
X0319859Y0039324D01*
X0318786Y0039569D01*
X0318009Y0039841D01*
X0318100Y0039684D01*
X0318839Y0036927D01*
X0318839Y0034073D01*
X0318100Y0031316D01*
X0318009Y0031159D01*
X0318786Y0031431D01*
X0319859Y0031676D01*
X0320953Y0031799D01*
X0321102Y0031799D01*
X0321102Y0022398D01*
X0321906Y0022398D01*
X0331307Y0022398D01*
X0331307Y0022547D01*
X0331184Y0023641D01*
X0330939Y0024714D01*
X0330575Y0025753D01*
X0330097Y0026745D01*
X0329512Y0027678D01*
X0328825Y0028539D01*
X0328047Y0029317D01*
X0327186Y0030004D01*
X0326253Y0030590D01*
X0325261Y0031067D01*
X0324222Y0031431D01*
X0323149Y0031676D01*
X0322054Y0031799D01*
X0321906Y0031799D01*
X0321906Y0022398D01*
X0321906Y0021594D01*
X0331307Y0021594D01*
X0331307Y0021446D01*
X0331184Y0020351D01*
X0330939Y0019278D01*
X0330575Y0018239D01*
X0330097Y0017247D01*
X0329512Y0016314D01*
X0328825Y0015453D01*
X0328047Y0014675D01*
X0327186Y0013988D01*
X0326253Y0013403D01*
X0325261Y0012925D01*
X0324222Y0012561D01*
X0323149Y0012316D01*
X0322054Y0012193D01*
X0321906Y0012193D01*
X0321906Y0021594D01*
X0321102Y0021594D01*
X0321102Y0012193D01*
X0320953Y0012193D01*
X0319859Y0012316D01*
X0318786Y0012561D01*
X0317747Y0012925D01*
X0316754Y0013403D01*
X0315822Y0013988D01*
X0314961Y0014675D01*
X0314183Y0015453D01*
X0313496Y0016314D01*
X0312910Y0017247D01*
X0312433Y0018239D01*
X0312069Y0019278D01*
X0311824Y0020351D01*
X0311701Y0021446D01*
X0311701Y0021594D01*
X0321102Y0021594D01*
X0321102Y0022398D01*
X0311701Y0022398D01*
X0311701Y0022547D01*
X0311824Y0023641D01*
X0312069Y0024714D01*
X0312341Y0025491D01*
X0312184Y0025400D01*
X0309427Y0024661D01*
X0306573Y0024661D01*
X0303816Y0025400D01*
X0303659Y0025491D01*
X0303931Y0024714D01*
X0304176Y0023641D01*
X0304299Y0022547D01*
X0304299Y0022398D01*
X0294898Y0022398D01*
X0294898Y0021594D01*
X0294898Y0012193D01*
X0295047Y0012193D01*
X0296141Y0012316D01*
X0297214Y0012561D01*
X0298253Y0012925D01*
X0299245Y0013403D01*
X0300178Y0013988D01*
X0301039Y0014675D01*
X0301817Y0015453D01*
X0302504Y0016314D01*
X0303090Y0017247D01*
X0303567Y0018239D01*
X0303931Y0019278D01*
X0304176Y0020351D01*
X0304299Y0021446D01*
X0304299Y0021594D01*
X0294898Y0021594D01*
X0294094Y0021594D01*
X0294094Y0012193D01*
X0293946Y0012193D01*
X0292851Y0012316D01*
X0291778Y0012561D01*
X0290739Y0012925D01*
X0289747Y0013403D01*
X0288814Y0013988D01*
X0287953Y0014675D01*
X0287175Y0015453D01*
X0286488Y0016314D01*
X0286482Y0016324D01*
X0286482Y0012048D01*
X0285634Y0010000D01*
X0333000Y0010000D01*
X0333000Y0147139D01*
X0332462Y0147362D01*
X0331824Y0148000D01*
X0282681Y0148000D01*
X0282953Y0147345D01*
X0282953Y0138655D01*
X0282000Y0136355D01*
X0282000Y0136210D01*
X0280630Y0132902D01*
X0275630Y0127902D01*
X0273098Y0125370D01*
X0269790Y0124000D01*
X0211210Y0124000D01*
X0207902Y0125370D01*
X0197953Y0135319D01*
X0197953Y0128655D01*
X0196887Y0126082D01*
X0194918Y0124113D01*
X0192345Y0123047D01*
X0183655Y0123047D01*
X0181082Y0124113D01*
X0179113Y0126082D01*
X0178047Y0128655D01*
X0178047Y0130225D01*
X0165225Y0143047D01*
X0163655Y0143047D01*
X0161082Y0144113D01*
X0159113Y0146082D01*
X0158319Y0148000D01*
X0142000Y0148000D01*
X0142000Y0146728D01*
X0170775Y0117953D01*
X0172345Y0117953D01*
X0174918Y0116887D01*
X0176887Y0114918D01*
X0177953Y0112345D01*
X0177953Y0103700D01*
X0179409Y0103700D01*
X0182130Y0102971D01*
X0184570Y0101562D01*
X0186562Y0099570D01*
X0187971Y0097130D01*
X0188700Y0094409D01*
X0188700Y0091591D01*
X0187971Y0088870D01*
X0186562Y0086430D01*
X0185391Y0085259D01*
X0185853Y0084797D01*
X0186919Y0083732D01*
X0186919Y0083732D01*
X0188018Y0082632D01*
X0189118Y0083732D01*
X0189227Y0083841D01*
X0191242Y0085856D01*
X0191242Y0085856D01*
X0191242Y0085856D01*
X0191750Y0086066D01*
X0194017Y0087005D01*
X0197020Y0087005D01*
X0198669Y0086322D01*
X0198741Y0086292D01*
X0200462Y0087005D01*
X0203466Y0087005D01*
X0204693Y0086497D01*
X0204693Y0086594D01*
X0214094Y0086594D01*
X0214094Y0087398D01*
X0204693Y0087398D01*
X0204693Y0087547D01*
X0204816Y0088641D01*
X0205061Y0089714D01*
X0205425Y0090753D01*
X0205903Y0091745D01*
X0206488Y0092678D01*
X0207175Y0093539D01*
X0207953Y0094317D01*
X0208814Y0095004D01*
X0209747Y0095590D01*
X0210739Y0096067D01*
X0211778Y0096431D01*
X0212851Y0096676D01*
X0213946Y0096799D01*
X0214094Y0096799D01*
X0214094Y0087398D01*
X0214898Y0087398D01*
X0214898Y0096799D01*
X0215047Y0096799D01*
X0216141Y0096676D01*
X0217214Y0096431D01*
X0217991Y0096159D01*
X0217900Y0096316D01*
X0217161Y0099073D01*
X0217161Y0101927D01*
X0217900Y0104684D01*
X0217991Y0104841D01*
X0217214Y0104569D01*
X0216141Y0104324D01*
X0215047Y0104201D01*
X0214898Y0104201D01*
X0214898Y0113602D01*
X0214898Y0114406D01*
X0214094Y0114406D01*
X0214094Y0123807D01*
X0213946Y0123807D01*
X0212851Y0123684D01*
X0211778Y0123439D01*
X0210739Y0123075D01*
X0209747Y0122597D01*
X0208814Y0122012D01*
X0207953Y0121325D01*
X0207175Y0120547D01*
X0206488Y0119686D01*
X0205903Y0118753D01*
X0205425Y0117761D01*
X0205061Y0116722D01*
X0204816Y0115649D01*
X0204693Y0114554D01*
X0204693Y0114406D01*
X0214094Y0114406D01*
X0214094Y0113602D01*
X0204693Y0113602D01*
X0204693Y0113453D01*
X0204816Y0112359D01*
X0205061Y0111286D01*
X0205425Y0110247D01*
X0205903Y0109254D01*
X0206488Y0108322D01*
X0207175Y0107461D01*
X0207953Y0106683D01*
X0208814Y0105996D01*
X0209747Y0105410D01*
X0210739Y0104933D01*
X0211778Y0104569D01*
X0212851Y0104324D01*
X0213946Y0104201D01*
X0214094Y0104201D01*
X0214094Y0113602D01*
X0214898Y0113602D01*
X0224299Y0113602D01*
X0224299Y0113453D01*
X0224176Y0112359D01*
X0223931Y0111286D01*
X0223659Y0110509D01*
X0223816Y0110600D01*
X0226573Y0111339D01*
X0229427Y0111339D01*
X0232184Y0110600D01*
X0232341Y0110509D01*
X0232069Y0111286D01*
X0231824Y0112359D01*
X0231701Y0113453D01*
X0231701Y0113602D01*
X0241102Y0113602D01*
X0241102Y0114406D01*
X0241102Y0123807D01*
X0240953Y0123807D01*
X0239859Y0123684D01*
X0238786Y0123439D01*
X0237747Y0123075D01*
X0236754Y0122597D01*
X0235822Y0122012D01*
X0234961Y0121325D01*
X0234183Y0120547D01*
X0233496Y0119686D01*
X0232910Y0118753D01*
X0232433Y0117761D01*
X0232069Y0116722D01*
X0231824Y0115649D01*
X0231701Y0114554D01*
X0231701Y0114406D01*
X0241102Y0114406D01*
X0241906Y0114406D01*
X0241906Y0123807D01*
X0242054Y0123807D01*
X0243149Y0123684D01*
X0244222Y0123439D01*
X0245261Y0123075D01*
X0246253Y0122597D01*
X0247186Y0122012D01*
X0248047Y0121325D01*
X0248825Y0120547D01*
X0249512Y0119686D01*
X0250097Y0118753D01*
X0250575Y0117761D01*
X0250939Y0116722D01*
X0251184Y0115649D01*
X0251307Y0114554D01*
X0251307Y0114406D01*
X0241906Y0114406D01*
X0241906Y0113602D01*
X0251307Y0113602D01*
X0251307Y0113453D01*
X0251184Y0112359D01*
X0250939Y0111286D01*
X0250575Y0110247D01*
X0250097Y0109254D01*
X0249512Y0108322D01*
X0248825Y0107461D01*
X0248047Y0106683D01*
X0247186Y0105996D01*
X0246253Y0105410D01*
X0245261Y0104933D01*
X0244222Y0104569D01*
X0243149Y0104324D01*
X0242054Y0104201D01*
X0241906Y0104201D01*
X0241906Y0113602D01*
X0241102Y0113602D01*
X0241102Y0104201D01*
X0240953Y0104201D01*
X0239859Y0104324D01*
X0238786Y0104569D01*
X0238009Y0104841D01*
X0238100Y0104684D01*
X0238839Y0101927D01*
X0238839Y0099073D01*
X0238100Y0096316D01*
X0238009Y0096159D01*
X0238786Y0096431D01*
X0239859Y0096676D01*
X0240953Y0096799D01*
X0241102Y0096799D01*
X0241102Y0087398D01*
X0241906Y0087398D01*
X0251307Y0087398D01*
X0251307Y0087547D01*
X0251184Y0088641D01*
X0250939Y0089714D01*
X0250575Y0090753D01*
X0250097Y0091745D01*
X0249512Y0092678D01*
X0248825Y0093539D01*
X0248047Y0094317D01*
X0247186Y0095004D01*
X0246253Y0095590D01*
X0245261Y0096067D01*
X0244222Y0096431D01*
X0243149Y0096676D01*
X0242054Y0096799D01*
X0241906Y0096799D01*
X0241906Y0087398D01*
X0241906Y0086594D01*
X0251307Y0086594D01*
X0251307Y0086446D01*
X0251184Y0085351D01*
X0250939Y0084278D01*
X0250575Y0083239D01*
X0250097Y0082247D01*
X0249512Y0081314D01*
X0248825Y0080453D01*
X0248047Y0079675D01*
X0247186Y0078988D01*
X0246253Y0078403D01*
X0245261Y0077925D01*
X0244222Y0077561D01*
X0243149Y0077316D01*
X0242054Y0077193D01*
X0241906Y0077193D01*
X0241906Y0086594D01*
X0241102Y0086594D01*
X0241102Y0077193D01*
X0240953Y0077193D01*
X0239859Y0077316D01*
X0238786Y0077561D01*
X0237747Y0077925D01*
X0236754Y0078403D01*
X0235822Y0078988D01*
X0234961Y0079675D01*
X0234183Y0080453D01*
X0233496Y0081314D01*
X0232910Y0082247D01*
X0232433Y0083239D01*
X0232069Y0084278D01*
X0231824Y0085351D01*
X0231701Y0086446D01*
X0231701Y0086594D01*
X0241102Y0086594D01*
X0241102Y0087398D01*
X0231701Y0087398D01*
X0231701Y0087547D01*
X0231824Y0088641D01*
X0232069Y0089714D01*
X0232341Y0090491D01*
X0232184Y0090400D01*
X0229427Y0089661D01*
X0226573Y0089661D01*
X0223816Y0090400D01*
X0223659Y0090491D01*
X0223931Y0089714D01*
X0224176Y0088641D01*
X0224299Y0087547D01*
X0224299Y0087398D01*
X0214898Y0087398D01*
X0214898Y0086594D01*
X0214898Y0077193D01*
X0215047Y0077193D01*
X0216141Y0077316D01*
X0217214Y0077561D01*
X0218253Y0077925D01*
X0219245Y0078403D01*
X0220178Y0078988D01*
X0221039Y0079675D01*
X0221817Y0080453D01*
X0222504Y0081314D01*
X0223090Y0082247D01*
X0223567Y0083239D01*
X0223931Y0084278D01*
X0224176Y0085351D01*
X0224299Y0086446D01*
X0224299Y0086594D01*
X0214898Y0086594D01*
X0214094Y0086594D01*
X0214094Y0077193D01*
X0213946Y0077193D01*
X0212851Y0077316D01*
X0211778Y0077561D01*
X0211482Y0077665D01*
X0211482Y0072048D01*
X0210333Y0069273D01*
X0208209Y0067149D01*
X0205434Y0066000D01*
X0202430Y0066000D01*
X0201964Y0066193D01*
X0201497Y0066000D01*
X0192048Y0066000D01*
X0189273Y0067149D01*
X0188018Y0068404D01*
X0186763Y0067149D01*
X0183988Y0066000D01*
X0180985Y0066000D01*
X0180518Y0066193D01*
X0180052Y0066000D01*
X0177048Y0066000D01*
X0174273Y0067149D01*
X0172526Y0068896D01*
X0170779Y0067149D01*
X0168004Y0066000D01*
X0162048Y0066000D01*
X0159273Y0067149D01*
X0157149Y0069273D01*
X0156000Y0072048D01*
X0156000Y0073377D01*
X0155815Y0073101D01*
X0155188Y0072683D01*
X0154654Y0072149D01*
X0153950Y0071858D01*
X0153316Y0071435D01*
X0152576Y0071289D01*
X0151879Y0071000D01*
X0151117Y0071000D01*
X0150370Y0070852D01*
X0149630Y0071000D01*
X0148876Y0071000D01*
X0148409Y0071193D01*
X0147943Y0071000D01*
X0144939Y0071000D01*
X0144695Y0071101D01*
X0144450Y0071000D01*
X0139478Y0071000D01*
X0139233Y0071101D01*
X0138988Y0071000D01*
X0135985Y0071000D01*
X0135518Y0071193D01*
X0135052Y0071000D01*
X0132048Y0071000D01*
X0129273Y0072149D01*
X0127149Y0074273D01*
X0126000Y0077048D01*
X0126000Y0084693D01*
X0125953Y0084693D01*
X0124859Y0084816D01*
X0123786Y0085061D01*
X0122747Y0085425D01*
X0121754Y0085903D01*
X0120822Y0086488D01*
X0119961Y0087175D01*
X0119183Y0087953D01*
X0118496Y0088814D01*
X0117910Y0089747D01*
X0117433Y0090739D01*
X0117069Y0091778D01*
X0116824Y0092851D01*
X0116701Y0093946D01*
X0116701Y0094094D01*
X0126102Y0094094D01*
X0126102Y0094898D01*
X0126102Y0104299D01*
X0125953Y0104299D01*
X0124859Y0104176D01*
X0123786Y0103931D01*
X0123009Y0103659D01*
X0123100Y0103816D01*
X0123839Y0106573D01*
X0123839Y0109427D01*
X0123100Y0112184D01*
X0123009Y0112341D01*
X0123786Y0112069D01*
X0124859Y0111824D01*
X0125953Y0111701D01*
X0126102Y0111701D01*
X0126102Y0121102D01*
X0116701Y0121102D01*
X0116701Y0120953D01*
X0116824Y0119859D01*
X0117069Y0118786D01*
X0117341Y0118009D01*
X0117184Y0118100D01*
X0114427Y0118839D01*
X0111573Y0118839D01*
X0108816Y0118100D01*
X0108659Y0118009D01*
X0108931Y0118786D01*
X0109176Y0119859D01*
X0109299Y0120953D01*
X0109299Y0121102D01*
X0099898Y0121102D01*
X0099898Y0121906D01*
X0099094Y0121906D01*
X0099094Y0131307D01*
X0098946Y0131307D01*
X0097851Y0131184D01*
X0096778Y0130939D01*
X0095739Y0130575D01*
X0095037Y0130237D01*
X0095037Y0130551D01*
X0095037Y0132020D01*
X0095037Y0132020D01*
X0095037Y0133504D01*
X0095037Y0134973D01*
X0094718Y0135741D01*
X0093887Y0137748D01*
X0093863Y0137771D01*
X0092903Y0138732D01*
X0091495Y0140140D01*
X0090779Y0140856D01*
X0088483Y0141807D01*
X0088004Y0142005D01*
X0085930Y0142005D01*
X0085001Y0142005D01*
X0085001Y0142005D01*
X0082048Y0142005D01*
X0079273Y0140856D01*
X0077149Y0138732D01*
X0076000Y0135957D01*
X0076000Y0127048D01*
X0077149Y0124273D01*
X0079273Y0122149D01*
X0082048Y0121000D01*
X0088004Y0121000D01*
X0090190Y0121906D01*
X0099094Y0121906D01*
X0099094Y0121102D01*
X0089693Y0121102D01*
X0089693Y0120953D01*
X0089816Y0119859D01*
X0090061Y0118786D01*
X0090425Y0117747D01*
X0090903Y0116754D01*
X0091488Y0115822D01*
X0092175Y0114961D01*
X0092953Y0114183D01*
X0093814Y0113496D01*
X0094747Y0112910D01*
X0095739Y0112433D01*
X0096778Y0112069D01*
X0097851Y0111824D01*
X0098946Y0111701D01*
X0099094Y0111701D01*
X0099094Y0121102D01*
X0099898Y0121102D01*
X0099898Y0111701D01*
X0100047Y0111701D01*
X0101141Y0111824D01*
X0102214Y0112069D01*
X0102991Y0112341D01*
X0102900Y0112184D01*
X0102161Y0109427D01*
X0102161Y0106573D01*
X0102900Y0103816D01*
X0102991Y0103659D01*
X0102214Y0103931D01*
X0101141Y0104176D01*
X0100047Y0104299D01*
X0099898Y0104299D01*
X0099898Y0094898D01*
X0109299Y0094898D01*
X0109299Y0095047D01*
X0109176Y0096141D01*
X0108931Y0097214D01*
X0108659Y0097991D01*
X0108816Y0097900D01*
X0111573Y0097161D01*
X0114427Y0097161D01*
X0117184Y0097900D01*
X0117341Y0097991D01*
X0117069Y0097214D01*
X0116824Y0096141D01*
X0116701Y0095047D01*
X0116701Y0094898D01*
X0126102Y0094898D01*
X0126906Y0094898D01*
X0136307Y0094898D01*
X0136307Y0095047D01*
X0136184Y0096141D01*
X0135939Y0097214D01*
X0135575Y0098253D01*
X0135097Y0099245D01*
X0134512Y0100178D01*
X0133825Y0101039D01*
X0133047Y0101817D01*
X0132186Y0102504D01*
X0131253Y0103090D01*
X0130261Y0103567D01*
X0129222Y0103931D01*
X0128149Y0104176D01*
X0127054Y0104299D01*
X0126906Y0104299D01*
X0126906Y0094898D01*
X0126906Y0094094D01*
X0136307Y0094094D01*
X0136307Y0093946D01*
X0136184Y0092851D01*
X0135991Y0092005D01*
X0138988Y0092005D01*
X0139233Y0091904D01*
X0139478Y0092005D01*
X0139478Y0092005D01*
X0141446Y0092005D01*
X0141446Y0092005D01*
X0142013Y0092005D01*
X0142481Y0092005D01*
X0142481Y0092005D01*
X0144450Y0092005D01*
X0144450Y0092005D01*
X0144695Y0091904D01*
X0144939Y0092005D01*
X0145701Y0092005D01*
X0146449Y0092153D01*
X0147189Y0092005D01*
X0147943Y0092005D01*
X0148409Y0091812D01*
X0148876Y0092005D01*
X0151879Y0092005D01*
X0154654Y0090856D01*
X0156778Y0088732D01*
X0157928Y0085957D01*
X0157928Y0084510D01*
X0159273Y0085856D01*
X0159796Y0086072D01*
X0159438Y0086430D01*
X0158029Y0088870D01*
X0157300Y0091591D01*
X0157300Y0094409D01*
X0158029Y0097130D01*
X0159438Y0099570D01*
X0160031Y0100164D01*
X0159113Y0101082D01*
X0158047Y0103655D01*
X0158047Y0105225D01*
X0125370Y0137902D01*
X0124000Y0141210D01*
X0124000Y0144000D01*
X0104645Y0144000D01*
X0102345Y0143047D01*
X0093655Y0143047D01*
X0091082Y0144113D01*
X0089113Y0146082D01*
X0088319Y0148000D01*
X0010000Y0148000D01*
X0010000Y0091157D01*
X0012048Y0092005D01*
X0017107Y0092005D01*
X0017855Y0092153D01*
X0018595Y0092005D01*
X0019349Y0092005D01*
X0019815Y0091812D01*
X0020282Y0092005D01*
X0023285Y0092005D01*
X0025269Y0091183D01*
X0025061Y0091778D01*
X0024816Y0092851D01*
X0024693Y0093946D01*
X0024693Y0094094D01*
X0034094Y0094094D01*
X0034094Y0094898D01*
X0024693Y0094898D01*
X0024693Y0095047D01*
X0024816Y0096141D01*
X0025061Y0097214D01*
X0025425Y0098253D01*
X0025903Y0099245D01*
X0026488Y0100178D01*
X0027175Y0101039D01*
X0027953Y0101817D01*
X0028814Y0102504D01*
X0029747Y0103090D01*
X0030739Y0103567D01*
X0031778Y0103931D01*
X0032851Y0104176D01*
X0033946Y0104299D01*
X0034094Y0104299D01*
X0034094Y0094898D01*
X0034898Y0094898D01*
X0034898Y0104299D01*
X0035047Y0104299D01*
X0036141Y0104176D01*
X0037214Y0103931D01*
X0037991Y0103659D01*
X0037900Y0103816D01*
X0037161Y0106573D01*
X0037161Y0109427D01*
X0037900Y0112184D01*
X0037991Y0112341D01*
X0037214Y0112069D01*
X0036141Y0111824D01*
X0035047Y0111701D01*
X0034898Y0111701D01*
X0034898Y0121102D01*
X0034898Y0121906D01*
X0034094Y0121906D01*
X0034094Y0131307D01*
X0033946Y0131307D01*
X0032851Y0131184D01*
X0031778Y0130939D01*
X0030739Y0130575D01*
X0030037Y0130237D01*
X0030037Y0130551D01*
X0030037Y0132020D01*
X0030037Y0132020D01*
X0030037Y0133504D01*
X0030037Y0134973D01*
X0029718Y0135741D01*
X0028887Y0137748D01*
X0028863Y0137771D01*
X0027903Y0138732D01*
X0027357Y0139278D01*
X0025779Y0140856D01*
X0024316Y0141462D01*
X0023004Y0142005D01*
X0021519Y0142005D01*
X0020001Y0142005D01*
X0020001Y0142005D01*
X0017048Y0142005D01*
X0014273Y0140856D01*
X0012149Y0138732D01*
X0011000Y0135957D01*
X0011000Y0127048D01*
X0012149Y0124273D01*
X0014273Y0122149D01*
X0017048Y0121000D01*
X0023004Y0121000D01*
X0025190Y0121906D01*
X0034094Y0121906D01*
X0034094Y0121102D01*
X0024693Y0121102D01*
X0024693Y0120953D01*
X0024816Y0119859D01*
X0025061Y0118786D01*
X0025425Y0117747D01*
X0025903Y0116754D01*
X0026488Y0115822D01*
X0027175Y0114961D01*
X0027953Y0114183D01*
X0028814Y0113496D01*
X0029747Y0112910D01*
X0030739Y0112433D01*
X0031778Y0112069D01*
X0032851Y0111824D01*
X0033946Y0111701D01*
X0034094Y0111701D01*
X0034094Y0121102D01*
X0034898Y0121102D01*
X0044299Y0121102D01*
X0044299Y0120953D01*
X0044176Y0119859D01*
X0043931Y0118786D01*
X0043659Y0118009D01*
X0043816Y0118100D01*
X0046573Y0118839D01*
X0049427Y0118839D01*
X0052184Y0118100D01*
X0052341Y0118009D01*
X0052069Y0118786D01*
X0051824Y0119859D01*
X0051701Y0120953D01*
X0051701Y0121102D01*
X0061102Y0121102D01*
X0061102Y0121906D01*
X0061102Y0131307D01*
X0060953Y0131307D01*
X0059859Y0131184D01*
X0058786Y0130939D01*
X0057747Y0130575D01*
X0056754Y0130097D01*
X0055822Y0129512D01*
X0054961Y0128825D01*
X0054183Y0128047D01*
X0053496Y0127186D01*
X0052910Y0126253D01*
X0052433Y0125261D01*
X0052069Y0124222D01*
X0051824Y0123149D01*
X0051701Y0122054D01*
X0051701Y0121906D01*
X0061102Y0121906D01*
X0061906Y0121906D01*
X0061906Y0131307D01*
X0062054Y0131307D01*
X0063149Y0131184D01*
X0064222Y0130939D01*
X0065261Y0130575D01*
X0066253Y0130097D01*
X0067186Y0129512D01*
X0068047Y0128825D01*
X0068825Y0128047D01*
X0069512Y0127186D01*
X0070097Y0126253D01*
X0070575Y0125261D01*
X0070939Y0124222D01*
X0071184Y0123149D01*
X0071307Y0122054D01*
X0071307Y0121906D01*
X0061906Y0121906D01*
X0061906Y0121102D01*
X0071307Y0121102D01*
X0071307Y0120953D01*
X0071184Y0119859D01*
X0070939Y0118786D01*
X0070575Y0117747D01*
X0070097Y0116754D01*
X0069512Y0115822D01*
X0068825Y0114961D01*
X0068047Y0114183D01*
X0067186Y0113496D01*
X0066253Y0112910D01*
X0065261Y0112433D01*
X0064222Y0112069D01*
X0063149Y0111824D01*
X0062054Y0111701D01*
X0061906Y0111701D01*
X0061906Y0121102D01*
X0061102Y0121102D01*
X0061102Y0111701D01*
X0060953Y0111701D01*
X0059859Y0111824D01*
X0058786Y0112069D01*
X0058009Y0112341D01*
X0058100Y0112184D01*
X0058839Y0109427D01*
X0058839Y0106573D01*
X0058100Y0103816D01*
X0058009Y0103659D01*
X0058786Y0103931D01*
X0059859Y0104176D01*
X0060953Y0104299D01*
X0061102Y0104299D01*
X0061102Y0094898D01*
X0061906Y0094898D01*
X0071307Y0094898D01*
X0071307Y0095047D01*
X0071184Y0096141D01*
X0070939Y0097214D01*
X0070575Y0098253D01*
X0070097Y0099245D01*
X0069512Y0100178D01*
X0068825Y0101039D01*
X0068047Y0101817D01*
X0067186Y0102504D01*
X0066253Y0103090D01*
X0065261Y0103567D01*
X0064222Y0103931D01*
X0063149Y0104176D01*
X0062054Y0104299D01*
X0061906Y0104299D01*
X0061906Y0094898D01*
X0061906Y0094094D01*
X0071307Y0094094D01*
X0071307Y0093946D01*
X0071184Y0092851D01*
X0070939Y0091778D01*
X0070575Y0090739D01*
X0070097Y0089747D01*
X0069512Y0088814D01*
X0068825Y0087953D01*
X0068047Y0087175D01*
X0067186Y0086488D01*
X0066253Y0085903D01*
X0065261Y0085425D01*
X0064222Y0085061D01*
X0063149Y0084816D01*
X0062054Y0084693D01*
X0061906Y0084693D01*
X0061906Y0094094D01*
X0061102Y0094094D01*
X0061102Y0084693D01*
X0060953Y0084693D01*
X0059859Y0084816D01*
X0058786Y0085061D01*
X0057747Y0085425D01*
X0056754Y0085903D01*
X0055822Y0086488D01*
X0054961Y0087175D01*
X0054183Y0087953D01*
X0053496Y0088814D01*
X0052910Y0089747D01*
X0052433Y0090739D01*
X0052069Y0091778D01*
X0051824Y0092851D01*
X0051701Y0093946D01*
X0051701Y0094094D01*
X0061102Y0094094D01*
X0061102Y0094898D01*
X0051701Y0094898D01*
X0051701Y0095047D01*
X0051824Y0096141D01*
X0052069Y0097214D01*
X0052341Y0097991D01*
X0052184Y0097900D01*
X0049427Y0097161D01*
X0046573Y0097161D01*
X0043816Y0097900D01*
X0043659Y0097991D01*
X0043931Y0097214D01*
X0044176Y0096141D01*
X0044299Y0095047D01*
X0044299Y0094898D01*
X0034898Y0094898D01*
X0034898Y0094094D01*
X0034898Y0084693D01*
X0035047Y0084693D01*
X0036141Y0084816D01*
X0037214Y0085061D01*
X0038253Y0085425D01*
X0039245Y0085903D01*
X0040178Y0086488D01*
X0041039Y0087175D01*
X0041817Y0087953D01*
X0042504Y0088814D01*
X0043090Y0089747D01*
X0043567Y0090739D01*
X0043931Y0091778D01*
X0044176Y0092851D01*
X0044299Y0093946D01*
X0044299Y0094094D01*
X0034898Y0094094D01*
X0034094Y0094094D01*
X0034094Y0084693D01*
X0033946Y0084693D01*
X0032851Y0084816D01*
X0031778Y0085061D01*
X0030739Y0085425D01*
X0029747Y0085903D01*
X0029219Y0086234D01*
X0029334Y0085957D01*
X0029334Y0079290D01*
X0029482Y0078542D01*
X0029334Y0077802D01*
X0029334Y0077048D01*
X0029042Y0076344D01*
X0028893Y0075597D01*
X0028473Y0074970D01*
X0028184Y0074273D01*
X0027645Y0073734D01*
X0027221Y0073101D01*
X0026594Y0072683D01*
X0026060Y0072149D01*
X0026019Y0072132D01*
X0026919Y0071232D01*
X0026919Y0071232D01*
X0028856Y0069295D01*
X0028887Y0069263D01*
X0028887Y0069263D01*
X0029354Y0068137D01*
X0030037Y0066488D01*
X0030037Y0065237D01*
X0030739Y0065575D01*
X0031778Y0065939D01*
X0032851Y0066184D01*
X0033946Y0066307D01*
X0034094Y0066307D01*
X0034094Y0056906D01*
X0034898Y0056906D01*
X0034898Y0066307D01*
X0035047Y0066307D01*
X0036141Y0066184D01*
X0037214Y0065939D01*
X0038253Y0065575D01*
X0039245Y0065097D01*
X0040178Y0064512D01*
X0041039Y0063825D01*
X0041817Y0063047D01*
X0042504Y0062186D01*
X0043090Y0061253D01*
X0043567Y0060261D01*
X0043931Y0059222D01*
X0044176Y0058149D01*
X0044299Y0057054D01*
X0044299Y0056906D01*
X0034898Y0056906D01*
X0034898Y0056102D01*
X0044299Y0056102D01*
X0044299Y0055953D01*
X0044176Y0054859D01*
X0043931Y0053786D01*
X0043659Y0053009D01*
X0043816Y0053100D01*
X0046573Y0053839D01*
X0049427Y0053839D01*
X0052184Y0053100D01*
X0052341Y0053009D01*
X0052069Y0053786D01*
X0051824Y0054859D01*
X0051701Y0055953D01*
X0051701Y0056102D01*
X0061102Y0056102D01*
X0061102Y0056906D01*
X0061102Y0066307D01*
X0060953Y0066307D01*
X0059859Y0066184D01*
X0058786Y0065939D01*
X0057747Y0065575D01*
X0056754Y0065097D01*
X0055822Y0064512D01*
X0054961Y0063825D01*
X0054183Y0063047D01*
X0053496Y0062186D01*
X0052910Y0061253D01*
X0052433Y0060261D01*
X0052069Y0059222D01*
X0051824Y0058149D01*
X0051701Y0057054D01*
X0051701Y0056906D01*
X0061102Y0056906D01*
X0061906Y0056906D01*
X0061906Y0066307D01*
X0062054Y0066307D01*
X0063149Y0066184D01*
X0064222Y0065939D01*
X0065261Y0065575D01*
X0066253Y0065097D01*
X0067186Y0064512D01*
X0068047Y0063825D01*
X0068825Y0063047D01*
X0069512Y0062186D01*
X0070097Y0061253D01*
X0070575Y0060261D01*
X0070939Y0059222D01*
X0071184Y0058149D01*
X0071307Y0057054D01*
X0071307Y0056906D01*
X0061906Y0056906D01*
X0061906Y0056102D01*
X0071307Y0056102D01*
X0071307Y0055953D01*
X0071184Y0054859D01*
X0070939Y0053786D01*
X0070575Y0052747D01*
X0070097Y0051754D01*
X0069512Y0050822D01*
X0068825Y0049961D01*
X0068047Y0049183D01*
X0067186Y0048496D01*
X0066253Y0047910D01*
X0065261Y0047433D01*
X0064222Y0047069D01*
X0063149Y0046824D01*
X0062054Y0046701D01*
X0061906Y0046701D01*
X0061906Y0056102D01*
X0061102Y0056102D01*
X0061102Y0046701D01*
X0060953Y0046701D01*
X0059859Y0046824D01*
X0058786Y0047069D01*
X0058009Y0047341D01*
X0058100Y0047184D01*
X0058839Y0044427D01*
X0058839Y0041573D01*
X0058100Y0038816D01*
X0058009Y0038659D01*
X0058786Y0038931D01*
X0059859Y0039176D01*
X0060953Y0039299D01*
X0061102Y0039299D01*
X0061102Y0029898D01*
X0061906Y0029898D01*
X0071307Y0029898D01*
X0071307Y0030047D01*
X0071184Y0031141D01*
X0070939Y0032214D01*
X0070575Y0033253D01*
X0070097Y0034245D01*
X0069512Y0035178D01*
X0068825Y0036039D01*
X0068047Y0036817D01*
X0067186Y0037504D01*
X0066253Y0038090D01*
X0065261Y0038567D01*
X0064222Y0038931D01*
X0063149Y0039176D01*
X0062054Y0039299D01*
X0061906Y0039299D01*
X0061906Y0029898D01*
X0061906Y0029094D01*
X0071307Y0029094D01*
X0071307Y0028946D01*
X0071184Y0027851D01*
X0070939Y0026778D01*
X0070575Y0025739D01*
X0070097Y0024747D01*
X0069512Y0023814D01*
X0068825Y0022953D01*
X0068047Y0022175D01*
X0067186Y0021488D01*
X0066253Y0020903D01*
X0065261Y0020425D01*
X0064222Y0020061D01*
X0063149Y0019816D01*
X0062054Y0019693D01*
X0061906Y0019693D01*
X0061906Y0029094D01*
X0061102Y0029094D01*
X0061102Y0019693D01*
X0060953Y0019693D01*
X0059859Y0019816D01*
X0058786Y0020061D01*
X0057747Y0020425D01*
X0056754Y0020903D01*
X0055822Y0021488D01*
X0054961Y0022175D01*
X0054183Y0022953D01*
X0053496Y0023814D01*
X0052910Y0024747D01*
X0052433Y0025739D01*
X0052069Y0026778D01*
X0051824Y0027851D01*
X0051701Y0028946D01*
X0051701Y0029094D01*
X0061102Y0029094D01*
X0061102Y0029898D01*
X0051701Y0029898D01*
X0051701Y0030047D01*
X0051824Y0031141D01*
X0052069Y0032214D01*
X0052341Y0032991D01*
X0052184Y0032900D01*
X0049427Y0032161D01*
X0046573Y0032161D01*
X0043816Y0032900D01*
X0043659Y0032991D01*
X0043931Y0032214D01*
X0044176Y0031141D01*
X0044299Y0030047D01*
X0044299Y0029898D01*
X0034898Y0029898D01*
X0034898Y0029094D01*
X0034898Y0019693D01*
X0035047Y0019693D01*
X0036141Y0019816D01*
X0037214Y0020061D01*
X0038253Y0020425D01*
X0039245Y0020903D01*
X0040178Y0021488D01*
X0041039Y0022175D01*
X0041817Y0022953D01*
X0042504Y0023814D01*
X0043090Y0024747D01*
X0043567Y0025739D01*
X0043931Y0026778D01*
X0044176Y0027851D01*
X0044299Y0028946D01*
X0044299Y0029094D01*
X0034898Y0029094D01*
X0034094Y0029094D01*
X0034094Y0019693D01*
X0033946Y0019693D01*
X0032851Y0019816D01*
X0031778Y0020061D01*
X0030739Y0020425D01*
X0029747Y0020903D01*
X0028814Y0021488D01*
X0028791Y0021507D01*
X0029331Y0019492D01*
X0029331Y0016508D01*
X0028559Y0013627D01*
X0027067Y0011043D01*
X0027021Y0010997D02*
X0181435Y0010997D01*
X0181000Y0014996D02*
X0028925Y0014996D01*
X0029331Y0018994D02*
X0181000Y0018994D01*
X0182394Y0022993D02*
X0133856Y0022993D01*
X0133825Y0022953D02*
X0134512Y0023814D01*
X0135097Y0024747D01*
X0135575Y0025739D01*
X0135939Y0026778D01*
X0136184Y0027851D01*
X0136307Y0028946D01*
X0136307Y0029094D01*
X0126906Y0029094D01*
X0126906Y0029898D01*
X0136307Y0029898D01*
X0136307Y0030047D01*
X0136184Y0031141D01*
X0135939Y0032214D01*
X0135575Y0033253D01*
X0135097Y0034245D01*
X0134512Y0035178D01*
X0133825Y0036039D01*
X0133047Y0036817D01*
X0132186Y0037504D01*
X0131253Y0038090D01*
X0130261Y0038567D01*
X0129222Y0038931D01*
X0128149Y0039176D01*
X0127054Y0039299D01*
X0126906Y0039299D01*
X0126906Y0029898D01*
X0126102Y0029898D01*
X0126102Y0039299D01*
X0125953Y0039299D01*
X0124859Y0039176D01*
X0123786Y0038931D01*
X0123009Y0038659D01*
X0123100Y0038816D01*
X0123839Y0041573D01*
X0123839Y0044427D01*
X0123100Y0047184D01*
X0123009Y0047341D01*
X0123786Y0047069D01*
X0124859Y0046824D01*
X0125953Y0046701D01*
X0126102Y0046701D01*
X0126102Y0056102D01*
X0116701Y0056102D01*
X0116701Y0055953D01*
X0116824Y0054859D01*
X0117069Y0053786D01*
X0117341Y0053009D01*
X0117184Y0053100D01*
X0114427Y0053839D01*
X0111573Y0053839D01*
X0108816Y0053100D01*
X0108659Y0053009D01*
X0108931Y0053786D01*
X0109176Y0054859D01*
X0109299Y0055953D01*
X0109299Y0056102D01*
X0099898Y0056102D01*
X0099898Y0056906D01*
X0099094Y0056906D01*
X0099094Y0066307D01*
X0098946Y0066307D01*
X0097851Y0066184D01*
X0096778Y0065939D01*
X0095739Y0065575D01*
X0095037Y0065237D01*
X0095037Y0066488D01*
X0094354Y0068137D01*
X0093887Y0069263D01*
X0093887Y0069263D01*
X0093887Y0069263D01*
X0093856Y0069295D01*
X0091919Y0071232D01*
X0090853Y0072297D01*
X0089795Y0073356D01*
X0088938Y0073711D01*
X0087020Y0074505D01*
X0084017Y0074505D01*
X0082126Y0073722D01*
X0081242Y0073356D01*
X0081242Y0073356D01*
X0081242Y0073356D01*
X0080216Y0072330D01*
X0079118Y0071232D01*
X0079118Y0071232D01*
X0077149Y0069263D01*
X0076664Y0068091D01*
X0076000Y0066488D01*
X0076000Y0059548D01*
X0077149Y0056773D01*
X0079273Y0054649D01*
X0082048Y0053500D01*
X0085052Y0053500D01*
X0085518Y0053693D01*
X0085985Y0053500D01*
X0088988Y0053500D01*
X0090028Y0053931D01*
X0090061Y0053786D01*
X0090425Y0052747D01*
X0090903Y0051754D01*
X0091488Y0050822D01*
X0092175Y0049961D01*
X0092953Y0049183D01*
X0093814Y0048496D01*
X0094747Y0047910D01*
X0095739Y0047433D01*
X0096778Y0047069D01*
X0097851Y0046824D01*
X0098946Y0046701D01*
X0099094Y0046701D01*
X0099094Y0056102D01*
X0099898Y0056102D01*
X0099898Y0046701D01*
X0100047Y0046701D01*
X0101141Y0046824D01*
X0102214Y0047069D01*
X0102991Y0047341D01*
X0102900Y0047184D01*
X0102161Y0044427D01*
X0102161Y0041573D01*
X0102900Y0038816D01*
X0102991Y0038659D01*
X0102214Y0038931D01*
X0101141Y0039176D01*
X0100047Y0039299D01*
X0099898Y0039299D01*
X0099898Y0029898D01*
X0109299Y0029898D01*
X0109299Y0030047D01*
X0109176Y0031141D01*
X0108931Y0032214D01*
X0108659Y0032991D01*
X0108816Y0032900D01*
X0111573Y0032161D01*
X0114427Y0032161D01*
X0117184Y0032900D01*
X0117341Y0032991D01*
X0117069Y0032214D01*
X0116824Y0031141D01*
X0116701Y0030047D01*
X0116701Y0029898D01*
X0126102Y0029898D01*
X0126102Y0029094D01*
X0126906Y0029094D01*
X0126906Y0019693D01*
X0127054Y0019693D01*
X0128149Y0019816D01*
X0129222Y0020061D01*
X0130261Y0020425D01*
X0131253Y0020903D01*
X0132186Y0021488D01*
X0133047Y0022175D01*
X0133825Y0022953D01*
X0135987Y0026991D02*
X0187999Y0026991D01*
X0193038Y0026991D02*
X0193460Y0026991D01*
X0199450Y0027005D02*
X0199450Y0027005D01*
X0199484Y0026991D02*
X0206057Y0026991D01*
X0210577Y0030990D02*
X0136201Y0030990D01*
X0134631Y0034988D02*
X0217161Y0034988D01*
X0217713Y0038987D02*
X0128978Y0038987D01*
X0126906Y0038987D02*
X0126102Y0038987D01*
X0124030Y0038987D02*
X0123146Y0038987D01*
X0126102Y0034988D02*
X0126906Y0034988D01*
X0126906Y0030990D02*
X0126102Y0030990D01*
X0126102Y0029094D02*
X0116701Y0029094D01*
X0116701Y0028946D01*
X0116824Y0027851D01*
X0117069Y0026778D01*
X0117433Y0025739D01*
X0117910Y0024747D01*
X0118496Y0023814D01*
X0119183Y0022953D01*
X0119961Y0022175D01*
X0120822Y0021488D01*
X0121754Y0020903D01*
X0122747Y0020425D01*
X0123786Y0020061D01*
X0124859Y0019816D01*
X0125953Y0019693D01*
X0126102Y0019693D01*
X0126102Y0029094D01*
X0126102Y0026991D02*
X0126906Y0026991D01*
X0126906Y0022993D02*
X0126102Y0022993D01*
X0119152Y0022993D02*
X0106848Y0022993D01*
X0106817Y0022953D02*
X0107504Y0023814D01*
X0108090Y0024747D01*
X0108567Y0025739D01*
X0108931Y0026778D01*
X0109176Y0027851D01*
X0109299Y0028946D01*
X0109299Y0029094D01*
X0099898Y0029094D01*
X0099898Y0019693D01*
X0100047Y0019693D01*
X0101141Y0019816D01*
X0102214Y0020061D01*
X0103253Y0020425D01*
X0104245Y0020903D01*
X0105178Y0021488D01*
X0106039Y0022175D01*
X0106817Y0022953D01*
X0108980Y0026991D02*
X0117020Y0026991D01*
X0116807Y0030990D02*
X0109193Y0030990D01*
X0102854Y0038987D02*
X0101970Y0038987D01*
X0099898Y0038987D02*
X0099094Y0038987D01*
X0099094Y0039299D02*
X0098946Y0039299D01*
X0097851Y0039176D01*
X0096778Y0038931D01*
X0095739Y0038567D01*
X0094747Y0038090D01*
X0093814Y0037504D01*
X0092953Y0036817D01*
X0092175Y0036039D01*
X0091488Y0035178D01*
X0090903Y0034245D01*
X0090425Y0033253D01*
X0090061Y0032214D01*
X0089816Y0031141D01*
X0089693Y0030047D01*
X0089693Y0029898D01*
X0099094Y0029898D01*
X0099094Y0029094D01*
X0099898Y0029094D01*
X0099898Y0029898D01*
X0099094Y0029898D01*
X0099094Y0039299D01*
X0097022Y0038987D02*
X0063978Y0038987D01*
X0061906Y0038987D02*
X0061102Y0038987D01*
X0059030Y0038987D02*
X0058146Y0038987D01*
X0061102Y0034988D02*
X0061906Y0034988D01*
X0061906Y0030990D02*
X0061102Y0030990D01*
X0061102Y0026991D02*
X0061906Y0026991D01*
X0061906Y0022993D02*
X0061102Y0022993D01*
X0054152Y0022993D02*
X0041848Y0022993D01*
X0043980Y0026991D02*
X0052020Y0026991D01*
X0051807Y0030990D02*
X0044193Y0030990D01*
X0037991Y0038659D02*
X0037214Y0038931D01*
X0036141Y0039176D01*
X0035047Y0039299D01*
X0034898Y0039299D01*
X0034898Y0029898D01*
X0034094Y0029898D01*
X0034094Y0029094D01*
X0024693Y0029094D01*
X0024693Y0028946D01*
X0024816Y0027851D01*
X0025007Y0027017D01*
X0024957Y0027067D01*
X0022373Y0028559D01*
X0019492Y0029331D01*
X0016508Y0029331D01*
X0013627Y0028559D01*
X0011043Y0027067D01*
X0010000Y0026024D01*
X0010000Y0071848D01*
X0012048Y0071000D01*
X0013886Y0071000D01*
X0012149Y0069263D01*
X0011664Y0068091D01*
X0011000Y0066488D01*
X0011000Y0059548D01*
X0012149Y0056773D01*
X0014273Y0054649D01*
X0017048Y0053500D01*
X0020052Y0053500D01*
X0020518Y0053693D01*
X0020985Y0053500D01*
X0023988Y0053500D01*
X0025028Y0053931D01*
X0025061Y0053786D01*
X0025425Y0052747D01*
X0025903Y0051754D01*
X0026488Y0050822D01*
X0027175Y0049961D01*
X0027953Y0049183D01*
X0028814Y0048496D01*
X0029747Y0047910D01*
X0030739Y0047433D01*
X0031778Y0047069D01*
X0032851Y0046824D01*
X0033946Y0046701D01*
X0034094Y0046701D01*
X0034094Y0056102D01*
X0034898Y0056102D01*
X0034898Y0046701D01*
X0035047Y0046701D01*
X0036141Y0046824D01*
X0037214Y0047069D01*
X0037991Y0047341D01*
X0037900Y0047184D01*
X0037161Y0044427D01*
X0037161Y0041573D01*
X0037900Y0038816D01*
X0037991Y0038659D01*
X0037854Y0038987D02*
X0036970Y0038987D01*
X0034898Y0038987D02*
X0034094Y0038987D01*
X0034094Y0039299D02*
X0033946Y0039299D01*
X0032851Y0039176D01*
X0031778Y0038931D01*
X0030739Y0038567D01*
X0029747Y0038090D01*
X0028814Y0037504D01*
X0027953Y0036817D01*
X0027175Y0036039D01*
X0026488Y0035178D01*
X0025903Y0034245D01*
X0025425Y0033253D01*
X0025061Y0032214D01*
X0024816Y0031141D01*
X0024693Y0030047D01*
X0024693Y0029898D01*
X0034094Y0029898D01*
X0034094Y0039299D01*
X0032022Y0038987D02*
X0010000Y0038987D01*
X0010000Y0034988D02*
X0026369Y0034988D01*
X0024799Y0030990D02*
X0010000Y0030990D01*
X0010000Y0026991D02*
X0010967Y0026991D01*
X0010000Y0042985D02*
X0037161Y0042985D01*
X0036840Y0046984D02*
X0037846Y0046984D01*
X0034898Y0046984D02*
X0034094Y0046984D01*
X0032152Y0046984D02*
X0010000Y0046984D01*
X0010000Y0050982D02*
X0026388Y0050982D01*
X0034094Y0050982D02*
X0034898Y0050982D01*
X0034898Y0054981D02*
X0034094Y0054981D01*
X0034094Y0058979D02*
X0034898Y0058979D01*
X0034898Y0062978D02*
X0034094Y0062978D01*
X0029835Y0066976D02*
X0076202Y0066976D01*
X0076000Y0062978D02*
X0068880Y0062978D01*
X0070994Y0058979D02*
X0076236Y0058979D01*
X0078942Y0054981D02*
X0071197Y0054981D01*
X0069612Y0050982D02*
X0091388Y0050982D01*
X0097152Y0046984D02*
X0063848Y0046984D01*
X0061906Y0046984D02*
X0061102Y0046984D01*
X0059160Y0046984D02*
X0058154Y0046984D01*
X0058839Y0042985D02*
X0102161Y0042985D01*
X0101840Y0046984D02*
X0102846Y0046984D01*
X0099898Y0046984D02*
X0099094Y0046984D01*
X0099094Y0050982D02*
X0099898Y0050982D01*
X0099898Y0054981D02*
X0099094Y0054981D01*
X0099898Y0056906D02*
X0109299Y0056906D01*
X0109299Y0057054D01*
X0109176Y0058149D01*
X0108931Y0059222D01*
X0108567Y0060261D01*
X0108090Y0061253D01*
X0107504Y0062186D01*
X0106817Y0063047D01*
X0106039Y0063825D01*
X0105178Y0064512D01*
X0104245Y0065097D01*
X0103253Y0065575D01*
X0102214Y0065939D01*
X0101141Y0066184D01*
X0100047Y0066307D01*
X0099898Y0066307D01*
X0099898Y0056906D01*
X0099898Y0058979D02*
X0099094Y0058979D01*
X0099094Y0062978D02*
X0099898Y0062978D01*
X0094835Y0066976D02*
X0159691Y0066976D01*
X0156445Y0070975D02*
X0150989Y0070975D01*
X0149757Y0070975D02*
X0092176Y0070975D01*
X0091919Y0071232D02*
X0091919Y0071232D01*
X0089795Y0073356D02*
X0089795Y0073356D01*
X0089795Y0073356D01*
X0078861Y0070975D02*
X0027176Y0070975D01*
X0028475Y0074973D02*
X0126859Y0074973D01*
X0126000Y0078972D02*
X0029397Y0078972D01*
X0029334Y0082970D02*
X0126000Y0082970D01*
X0120220Y0086969D02*
X0105780Y0086969D01*
X0106039Y0087175D02*
X0105178Y0086488D01*
X0104245Y0085903D01*
X0103253Y0085425D01*
X0102214Y0085061D01*
X0101141Y0084816D01*
X0100047Y0084693D01*
X0099898Y0084693D01*
X0099898Y0094094D01*
X0099094Y0094094D01*
X0099094Y0084693D01*
X0098946Y0084693D01*
X0097851Y0084816D01*
X0096778Y0085061D01*
X0095739Y0085425D01*
X0094747Y0085903D01*
X0093814Y0086488D01*
X0092953Y0087175D01*
X0092175Y0087953D01*
X0091488Y0088814D01*
X0090903Y0089747D01*
X0090425Y0090739D01*
X0090061Y0091778D01*
X0089816Y0092851D01*
X0089693Y0093946D01*
X0089693Y0094094D01*
X0099094Y0094094D01*
X0099094Y0094898D01*
X0089693Y0094898D01*
X0089693Y0095047D01*
X0089816Y0096141D01*
X0090061Y0097214D01*
X0090425Y0098253D01*
X0090903Y0099245D01*
X0091488Y0100178D01*
X0092175Y0101039D01*
X0092953Y0101817D01*
X0093814Y0102504D01*
X0094747Y0103090D01*
X0095739Y0103567D01*
X0096778Y0103931D01*
X0097851Y0104176D01*
X0098946Y0104299D01*
X0099094Y0104299D01*
X0099094Y0094898D01*
X0099898Y0094898D01*
X0099898Y0094094D01*
X0109299Y0094094D01*
X0109299Y0093946D01*
X0109176Y0092851D01*
X0108931Y0091778D01*
X0108567Y0090739D01*
X0108090Y0089747D01*
X0107504Y0088814D01*
X0106817Y0087953D01*
X0106039Y0087175D01*
X0108647Y0090967D02*
X0117353Y0090967D01*
X0116701Y0094966D02*
X0109299Y0094966D01*
X0099898Y0094966D02*
X0099094Y0094966D01*
X0099094Y0090967D02*
X0099898Y0090967D01*
X0099898Y0086969D02*
X0099094Y0086969D01*
X0093212Y0086969D02*
X0067788Y0086969D01*
X0061906Y0086969D02*
X0061102Y0086969D01*
X0061102Y0090967D02*
X0061906Y0090967D01*
X0061906Y0094966D02*
X0061102Y0094966D01*
X0061102Y0098964D02*
X0061906Y0098964D01*
X0061906Y0102963D02*
X0061102Y0102963D01*
X0066455Y0102963D02*
X0094545Y0102963D01*
X0099094Y0102963D02*
X0099898Y0102963D01*
X0099898Y0098964D02*
X0099094Y0098964D01*
X0090767Y0098964D02*
X0070233Y0098964D01*
X0071307Y0094966D02*
X0089693Y0094966D01*
X0090345Y0090967D02*
X0070655Y0090967D01*
X0055220Y0086969D02*
X0040780Y0086969D01*
X0043647Y0090967D02*
X0052353Y0090967D01*
X0051701Y0094966D02*
X0044299Y0094966D01*
X0034898Y0094966D02*
X0034094Y0094966D01*
X0034094Y0090967D02*
X0034898Y0090967D01*
X0034898Y0086969D02*
X0034094Y0086969D01*
X0024693Y0094966D02*
X0010000Y0094966D01*
X0010000Y0098964D02*
X0025767Y0098964D01*
X0029545Y0102963D02*
X0010000Y0102963D01*
X0010000Y0106961D02*
X0037161Y0106961D01*
X0037572Y0110960D02*
X0010000Y0110960D01*
X0010000Y0114958D02*
X0027178Y0114958D01*
X0025022Y0118957D02*
X0010000Y0118957D01*
X0010000Y0122955D02*
X0013467Y0122955D01*
X0011039Y0126954D02*
X0010000Y0126954D01*
X0010000Y0130952D02*
X0011000Y0130952D01*
X0011000Y0134951D02*
X0010000Y0134951D01*
X0010000Y0138949D02*
X0012367Y0138949D01*
X0010000Y0142948D02*
X0124000Y0142948D01*
X0124936Y0138949D02*
X0092685Y0138949D01*
X0092903Y0138732D02*
X0092903Y0138732D01*
X0093887Y0137748D02*
X0093887Y0137748D01*
X0093887Y0137748D01*
X0095037Y0134973D02*
X0095037Y0134973D01*
X0095037Y0134973D01*
X0095037Y0134951D02*
X0128321Y0134951D01*
X0128149Y0131184D02*
X0127054Y0131307D01*
X0126906Y0131307D01*
X0126906Y0121906D01*
X0126102Y0121906D01*
X0126102Y0131307D01*
X0125953Y0131307D01*
X0124859Y0131184D01*
X0123786Y0130939D01*
X0122747Y0130575D01*
X0121754Y0130097D01*
X0120822Y0129512D01*
X0119961Y0128825D01*
X0119183Y0128047D01*
X0118496Y0127186D01*
X0117910Y0126253D01*
X0117433Y0125261D01*
X0117069Y0124222D01*
X0116824Y0123149D01*
X0116701Y0122054D01*
X0116701Y0121906D01*
X0126102Y0121906D01*
X0126102Y0121102D01*
X0126906Y0121102D01*
X0126906Y0121906D01*
X0136307Y0121906D01*
X0136307Y0122054D01*
X0136184Y0123149D01*
X0135939Y0124222D01*
X0135575Y0125261D01*
X0135097Y0126253D01*
X0134512Y0127186D01*
X0133825Y0128047D01*
X0133047Y0128825D01*
X0132186Y0129512D01*
X0131253Y0130097D01*
X0130261Y0130575D01*
X0129222Y0130939D01*
X0128149Y0131184D01*
X0129163Y0130952D02*
X0132320Y0130952D01*
X0134657Y0126954D02*
X0136318Y0126954D01*
X0136206Y0122955D02*
X0140317Y0122955D01*
X0136307Y0121102D02*
X0126906Y0121102D01*
X0126906Y0111701D01*
X0127054Y0111701D01*
X0128149Y0111824D01*
X0129222Y0112069D01*
X0130261Y0112433D01*
X0131253Y0112910D01*
X0132186Y0113496D01*
X0133047Y0114183D01*
X0133825Y0114961D01*
X0134512Y0115822D01*
X0135097Y0116754D01*
X0135575Y0117747D01*
X0135939Y0118786D01*
X0136184Y0119859D01*
X0136307Y0120953D01*
X0136307Y0121102D01*
X0135978Y0118957D02*
X0144315Y0118957D01*
X0148314Y0114958D02*
X0133822Y0114958D01*
X0126906Y0114958D02*
X0126102Y0114958D01*
X0123428Y0110960D02*
X0152312Y0110960D01*
X0156311Y0106961D02*
X0123839Y0106961D01*
X0126102Y0102963D02*
X0126906Y0102963D01*
X0126906Y0098964D02*
X0126102Y0098964D01*
X0131455Y0102963D02*
X0158334Y0102963D01*
X0159088Y0098964D02*
X0135233Y0098964D01*
X0136307Y0094966D02*
X0157449Y0094966D01*
X0157467Y0090967D02*
X0154385Y0090967D01*
X0157509Y0086969D02*
X0159127Y0086969D01*
X0144450Y0092005D02*
X0144450Y0092005D01*
X0139478Y0092005D02*
X0139478Y0092005D01*
X0126906Y0094966D02*
X0126102Y0094966D01*
X0102161Y0106961D02*
X0058839Y0106961D01*
X0058428Y0110960D02*
X0102572Y0110960D01*
X0099898Y0114958D02*
X0099094Y0114958D01*
X0099094Y0118957D02*
X0099898Y0118957D01*
X0099898Y0121906D02*
X0109299Y0121906D01*
X0109299Y0122054D01*
X0109176Y0123149D01*
X0108931Y0124222D01*
X0108567Y0125261D01*
X0108090Y0126253D01*
X0107504Y0127186D01*
X0106817Y0128047D01*
X0106039Y0128825D01*
X0105178Y0129512D01*
X0104245Y0130097D01*
X0103253Y0130575D01*
X0102214Y0130939D01*
X0101141Y0131184D01*
X0100047Y0131307D01*
X0099898Y0131307D01*
X0099898Y0121906D01*
X0099898Y0122955D02*
X0099094Y0122955D01*
X0099094Y0126954D02*
X0099898Y0126954D01*
X0099898Y0130952D02*
X0099094Y0130952D01*
X0096837Y0130952D02*
X0095037Y0130952D01*
X0102155Y0130952D02*
X0123845Y0130952D01*
X0126102Y0130952D02*
X0126906Y0130952D01*
X0126906Y0126954D02*
X0126102Y0126954D01*
X0126102Y0122955D02*
X0126906Y0122955D01*
X0126906Y0118957D02*
X0126102Y0118957D01*
X0117030Y0118957D02*
X0108970Y0118957D01*
X0109198Y0122955D02*
X0116802Y0122955D01*
X0118351Y0126954D02*
X0107649Y0126954D01*
X0090022Y0118957D02*
X0070978Y0118957D01*
X0071206Y0122955D02*
X0078467Y0122955D01*
X0076039Y0126954D02*
X0069657Y0126954D01*
X0064163Y0130952D02*
X0076000Y0130952D01*
X0076000Y0134951D02*
X0030037Y0134951D01*
X0030037Y0134973D02*
X0030037Y0134973D01*
X0030037Y0134973D01*
X0028887Y0137748D02*
X0028887Y0137748D01*
X0027903Y0138732D02*
X0027903Y0138732D01*
X0027685Y0138949D02*
X0077367Y0138949D01*
X0088004Y0142005D02*
X0088004Y0142005D01*
X0088004Y0142005D01*
X0090779Y0140856D02*
X0090779Y0140856D01*
X0090779Y0140856D01*
X0088755Y0146946D02*
X0010000Y0146946D01*
X0023004Y0142005D02*
X0023004Y0142005D01*
X0023004Y0142005D01*
X0025779Y0140856D02*
X0025779Y0140856D01*
X0025779Y0140856D01*
X0030037Y0130952D02*
X0031837Y0130952D01*
X0034094Y0130952D02*
X0034898Y0130952D01*
X0034898Y0131307D02*
X0034898Y0121906D01*
X0044299Y0121906D01*
X0044299Y0122054D01*
X0044176Y0123149D01*
X0043931Y0124222D01*
X0043567Y0125261D01*
X0043090Y0126253D01*
X0042504Y0127186D01*
X0041817Y0128047D01*
X0041039Y0128825D01*
X0040178Y0129512D01*
X0039245Y0130097D01*
X0038253Y0130575D01*
X0037214Y0130939D01*
X0036141Y0131184D01*
X0035047Y0131307D01*
X0034898Y0131307D01*
X0037155Y0130952D02*
X0058845Y0130952D01*
X0061102Y0130952D02*
X0061906Y0130952D01*
X0061906Y0126954D02*
X0061102Y0126954D01*
X0061102Y0122955D02*
X0061906Y0122955D01*
X0061906Y0118957D02*
X0061102Y0118957D01*
X0061102Y0114958D02*
X0061906Y0114958D01*
X0068822Y0114958D02*
X0092178Y0114958D01*
X0053351Y0126954D02*
X0042649Y0126954D01*
X0044198Y0122955D02*
X0051802Y0122955D01*
X0052030Y0118957D02*
X0043970Y0118957D01*
X0034898Y0118957D02*
X0034094Y0118957D01*
X0034094Y0122955D02*
X0034898Y0122955D01*
X0034898Y0126954D02*
X0034094Y0126954D01*
X0034094Y0114958D02*
X0034898Y0114958D01*
X0034898Y0102963D02*
X0034094Y0102963D01*
X0034094Y0098964D02*
X0034898Y0098964D01*
X0013861Y0070975D02*
X0010000Y0070975D01*
X0010000Y0066976D02*
X0011202Y0066976D01*
X0011000Y0062978D02*
X0010000Y0062978D01*
X0010000Y0058979D02*
X0011236Y0058979D01*
X0010000Y0054981D02*
X0013942Y0054981D01*
X0034094Y0034988D02*
X0034898Y0034988D01*
X0034898Y0030990D02*
X0034094Y0030990D01*
X0034094Y0026991D02*
X0034898Y0026991D01*
X0034898Y0022993D02*
X0034094Y0022993D01*
X0068856Y0022993D02*
X0092144Y0022993D01*
X0092175Y0022953D02*
X0092953Y0022175D01*
X0093814Y0021488D01*
X0094747Y0020903D01*
X0095739Y0020425D01*
X0096778Y0020061D01*
X0097851Y0019816D01*
X0098946Y0019693D01*
X0099094Y0019693D01*
X0099094Y0029094D01*
X0089693Y0029094D01*
X0089693Y0028946D01*
X0089816Y0027851D01*
X0090061Y0026778D01*
X0090425Y0025739D01*
X0090903Y0024747D01*
X0091488Y0023814D01*
X0092175Y0022953D01*
X0090013Y0026991D02*
X0070987Y0026991D01*
X0071201Y0030990D02*
X0089799Y0030990D01*
X0091369Y0034988D02*
X0069631Y0034988D01*
X0061906Y0050982D02*
X0061102Y0050982D01*
X0061102Y0054981D02*
X0061906Y0054981D01*
X0061906Y0058979D02*
X0061102Y0058979D01*
X0061102Y0062978D02*
X0061906Y0062978D01*
X0054128Y0062978D02*
X0041872Y0062978D01*
X0043986Y0058979D02*
X0052014Y0058979D01*
X0051810Y0054981D02*
X0044190Y0054981D01*
X0099094Y0034988D02*
X0099898Y0034988D01*
X0099898Y0030990D02*
X0099094Y0030990D01*
X0099094Y0026991D02*
X0099898Y0026991D01*
X0099898Y0022993D02*
X0099094Y0022993D01*
X0123839Y0042985D02*
X0206757Y0042985D01*
X0204902Y0046984D02*
X0128848Y0046984D01*
X0129222Y0047069D02*
X0130261Y0047433D01*
X0131253Y0047910D01*
X0132186Y0048496D01*
X0133047Y0049183D01*
X0133825Y0049961D01*
X0134512Y0050822D01*
X0135097Y0051754D01*
X0135575Y0052747D01*
X0135939Y0053786D01*
X0136184Y0054859D01*
X0136307Y0055953D01*
X0136307Y0056102D01*
X0126906Y0056102D01*
X0126906Y0056906D01*
X0126102Y0056906D01*
X0126102Y0066307D01*
X0125953Y0066307D01*
X0124859Y0066184D01*
X0123786Y0065939D01*
X0122747Y0065575D01*
X0121754Y0065097D01*
X0120822Y0064512D01*
X0119961Y0063825D01*
X0119183Y0063047D01*
X0118496Y0062186D01*
X0117910Y0061253D01*
X0117433Y0060261D01*
X0117069Y0059222D01*
X0116824Y0058149D01*
X0116701Y0057054D01*
X0116701Y0056906D01*
X0126102Y0056906D01*
X0126102Y0056102D01*
X0126906Y0056102D01*
X0126906Y0046701D01*
X0127054Y0046701D01*
X0128149Y0046824D01*
X0129222Y0047069D01*
X0126906Y0046984D02*
X0126102Y0046984D01*
X0124160Y0046984D02*
X0123154Y0046984D01*
X0126102Y0050982D02*
X0126906Y0050982D01*
X0126906Y0054981D02*
X0126102Y0054981D01*
X0126906Y0056906D02*
X0136307Y0056906D01*
X0136307Y0057054D01*
X0136184Y0058149D01*
X0135939Y0059222D01*
X0135575Y0060261D01*
X0135097Y0061253D01*
X0134512Y0062186D01*
X0133825Y0063047D01*
X0133047Y0063825D01*
X0132186Y0064512D01*
X0131253Y0065097D01*
X0130261Y0065575D01*
X0129222Y0065939D01*
X0128149Y0066184D01*
X0127054Y0066307D01*
X0126906Y0066307D01*
X0126906Y0056906D01*
X0126906Y0058979D02*
X0126102Y0058979D01*
X0126102Y0062978D02*
X0126906Y0062978D01*
X0133880Y0062978D02*
X0333000Y0062978D01*
X0333000Y0066976D02*
X0281806Y0066976D01*
X0282225Y0067149D02*
X0283209Y0068134D01*
X0285333Y0070257D01*
X0286482Y0073032D01*
X0286482Y0077665D01*
X0286778Y0077561D01*
X0287851Y0077316D01*
X0288946Y0077193D01*
X0289094Y0077193D01*
X0289094Y0086594D01*
X0280441Y0086594D01*
X0279450Y0087005D01*
X0279450Y0087005D01*
X0279450Y0087005D01*
X0277932Y0087005D01*
X0276446Y0087005D01*
X0273494Y0087005D01*
X0272757Y0086700D01*
X0272020Y0087005D01*
X0269017Y0087005D01*
X0266750Y0086066D01*
X0266242Y0085856D01*
X0266242Y0085856D01*
X0266242Y0085856D01*
X0264227Y0083841D01*
X0264118Y0083732D01*
X0264118Y0083732D01*
X0262149Y0081763D01*
X0261000Y0078988D01*
X0261000Y0075985D01*
X0261193Y0075518D01*
X0261000Y0075052D01*
X0261000Y0072048D01*
X0262149Y0069273D01*
X0264273Y0067149D01*
X0267048Y0066000D01*
X0279450Y0066000D01*
X0282225Y0067149D01*
X0285630Y0070975D02*
X0333000Y0070975D01*
X0333000Y0074973D02*
X0286482Y0074973D01*
X0289898Y0077193D02*
X0290047Y0077193D01*
X0291141Y0077316D01*
X0292214Y0077561D01*
X0293253Y0077925D01*
X0294245Y0078403D01*
X0295178Y0078988D01*
X0296039Y0079675D01*
X0296817Y0080453D01*
X0297504Y0081314D01*
X0298090Y0082247D01*
X0298567Y0083239D01*
X0298931Y0084278D01*
X0299176Y0085351D01*
X0299299Y0086446D01*
X0299299Y0086594D01*
X0289898Y0086594D01*
X0289898Y0077193D01*
X0289898Y0078972D02*
X0289094Y0078972D01*
X0289094Y0082970D02*
X0289898Y0082970D01*
X0289898Y0086594D02*
X0289094Y0086594D01*
X0289094Y0087398D01*
X0279693Y0087398D01*
X0279693Y0087547D01*
X0279816Y0088641D01*
X0280061Y0089714D01*
X0280425Y0090753D01*
X0280903Y0091745D01*
X0281488Y0092678D01*
X0282175Y0093539D01*
X0282953Y0094317D01*
X0283814Y0095004D01*
X0284747Y0095590D01*
X0285739Y0096067D01*
X0286778Y0096431D01*
X0287851Y0096676D01*
X0288946Y0096799D01*
X0289094Y0096799D01*
X0289094Y0087398D01*
X0289898Y0087398D01*
X0289898Y0096799D01*
X0290047Y0096799D01*
X0291141Y0096676D01*
X0292214Y0096431D01*
X0292991Y0096159D01*
X0292900Y0096316D01*
X0292161Y0099073D01*
X0292161Y0101927D01*
X0292900Y0104684D01*
X0292991Y0104841D01*
X0292214Y0104569D01*
X0291141Y0104324D01*
X0290047Y0104201D01*
X0289898Y0104201D01*
X0289898Y0113602D01*
X0289898Y0114406D01*
X0289094Y0114406D01*
X0289094Y0123807D01*
X0288946Y0123807D01*
X0287851Y0123684D01*
X0286778Y0123439D01*
X0285739Y0123075D01*
X0284747Y0122597D01*
X0283814Y0122012D01*
X0282953Y0121325D01*
X0282175Y0120547D01*
X0281488Y0119686D01*
X0280903Y0118753D01*
X0280425Y0117761D01*
X0280061Y0116722D01*
X0279816Y0115649D01*
X0279693Y0114554D01*
X0279693Y0114406D01*
X0289094Y0114406D01*
X0289094Y0113602D01*
X0279693Y0113602D01*
X0279693Y0113453D01*
X0279816Y0112359D01*
X0280061Y0111286D01*
X0280425Y0110247D01*
X0280903Y0109254D01*
X0281488Y0108322D01*
X0282175Y0107461D01*
X0282953Y0106683D01*
X0283814Y0105996D01*
X0284747Y0105410D01*
X0285739Y0104933D01*
X0286778Y0104569D01*
X0287851Y0104324D01*
X0288946Y0104201D01*
X0289094Y0104201D01*
X0289094Y0113602D01*
X0289898Y0113602D01*
X0299299Y0113602D01*
X0299299Y0113453D01*
X0299176Y0112359D01*
X0298931Y0111286D01*
X0298659Y0110509D01*
X0298816Y0110600D01*
X0301573Y0111339D01*
X0304427Y0111339D01*
X0307184Y0110600D01*
X0307341Y0110509D01*
X0307069Y0111286D01*
X0306824Y0112359D01*
X0306701Y0113453D01*
X0306701Y0113602D01*
X0316102Y0113602D01*
X0316102Y0114406D01*
X0316102Y0123807D01*
X0315953Y0123807D01*
X0314859Y0123684D01*
X0313786Y0123439D01*
X0312747Y0123075D01*
X0311754Y0122597D01*
X0310822Y0122012D01*
X0309961Y0121325D01*
X0309183Y0120547D01*
X0308496Y0119686D01*
X0307910Y0118753D01*
X0307433Y0117761D01*
X0307069Y0116722D01*
X0306824Y0115649D01*
X0306701Y0114554D01*
X0306701Y0114406D01*
X0316102Y0114406D01*
X0316906Y0114406D01*
X0316906Y0123807D01*
X0317054Y0123807D01*
X0318149Y0123684D01*
X0319222Y0123439D01*
X0320261Y0123075D01*
X0321253Y0122597D01*
X0322186Y0122012D01*
X0323047Y0121325D01*
X0323825Y0120547D01*
X0324512Y0119686D01*
X0325097Y0118753D01*
X0325575Y0117761D01*
X0325939Y0116722D01*
X0326184Y0115649D01*
X0326307Y0114554D01*
X0326307Y0114406D01*
X0316906Y0114406D01*
X0316906Y0113602D01*
X0326307Y0113602D01*
X0326307Y0113453D01*
X0326184Y0112359D01*
X0325939Y0111286D01*
X0325575Y0110247D01*
X0325097Y0109254D01*
X0324512Y0108322D01*
X0323825Y0107461D01*
X0323047Y0106683D01*
X0322186Y0105996D01*
X0321253Y0105410D01*
X0320261Y0104933D01*
X0319222Y0104569D01*
X0318149Y0104324D01*
X0317054Y0104201D01*
X0316906Y0104201D01*
X0316906Y0113602D01*
X0316102Y0113602D01*
X0316102Y0104201D01*
X0315953Y0104201D01*
X0314859Y0104324D01*
X0313786Y0104569D01*
X0313009Y0104841D01*
X0313100Y0104684D01*
X0313839Y0101927D01*
X0313839Y0099073D01*
X0313100Y0096316D01*
X0313009Y0096159D01*
X0313786Y0096431D01*
X0314859Y0096676D01*
X0315953Y0096799D01*
X0316102Y0096799D01*
X0316102Y0087398D01*
X0316906Y0087398D01*
X0326307Y0087398D01*
X0326307Y0087547D01*
X0326184Y0088641D01*
X0325939Y0089714D01*
X0325575Y0090753D01*
X0325097Y0091745D01*
X0324512Y0092678D01*
X0323825Y0093539D01*
X0323047Y0094317D01*
X0322186Y0095004D01*
X0321253Y0095590D01*
X0320261Y0096067D01*
X0319222Y0096431D01*
X0318149Y0096676D01*
X0317054Y0096799D01*
X0316906Y0096799D01*
X0316906Y0087398D01*
X0316906Y0086594D01*
X0326307Y0086594D01*
X0326307Y0086446D01*
X0326184Y0085351D01*
X0325939Y0084278D01*
X0325575Y0083239D01*
X0325097Y0082247D01*
X0324512Y0081314D01*
X0323825Y0080453D01*
X0323047Y0079675D01*
X0322186Y0078988D01*
X0321253Y0078403D01*
X0320261Y0077925D01*
X0319222Y0077561D01*
X0318149Y0077316D01*
X0317054Y0077193D01*
X0316906Y0077193D01*
X0316906Y0086594D01*
X0316102Y0086594D01*
X0316102Y0077193D01*
X0315953Y0077193D01*
X0314859Y0077316D01*
X0313786Y0077561D01*
X0312747Y0077925D01*
X0311754Y0078403D01*
X0310822Y0078988D01*
X0309961Y0079675D01*
X0309183Y0080453D01*
X0308496Y0081314D01*
X0307910Y0082247D01*
X0307433Y0083239D01*
X0307069Y0084278D01*
X0306824Y0085351D01*
X0306701Y0086446D01*
X0306701Y0086594D01*
X0316102Y0086594D01*
X0316102Y0087398D01*
X0306701Y0087398D01*
X0306701Y0087547D01*
X0306824Y0088641D01*
X0307069Y0089714D01*
X0307341Y0090491D01*
X0307184Y0090400D01*
X0304427Y0089661D01*
X0301573Y0089661D01*
X0298816Y0090400D01*
X0298659Y0090491D01*
X0298931Y0089714D01*
X0299176Y0088641D01*
X0299299Y0087547D01*
X0299299Y0087398D01*
X0289898Y0087398D01*
X0289898Y0086594D01*
X0289898Y0086969D02*
X0316102Y0086969D01*
X0316906Y0086969D02*
X0333000Y0086969D01*
X0333000Y0082970D02*
X0325446Y0082970D01*
X0322159Y0078972D02*
X0333000Y0078972D01*
X0333000Y0090967D02*
X0325472Y0090967D01*
X0322233Y0094966D02*
X0333000Y0094966D01*
X0333000Y0098964D02*
X0313809Y0098964D01*
X0313561Y0102963D02*
X0333000Y0102963D01*
X0333000Y0106961D02*
X0323325Y0106961D01*
X0325825Y0110960D02*
X0333000Y0110960D01*
X0333000Y0114958D02*
X0326262Y0114958D01*
X0324970Y0118957D02*
X0333000Y0118957D01*
X0333000Y0122955D02*
X0320510Y0122955D01*
X0316906Y0122955D02*
X0316102Y0122955D01*
X0312498Y0122955D02*
X0293502Y0122955D01*
X0293253Y0123075D02*
X0292214Y0123439D01*
X0291141Y0123684D01*
X0290047Y0123807D01*
X0289898Y0123807D01*
X0289898Y0114406D01*
X0299299Y0114406D01*
X0299299Y0114554D01*
X0299176Y0115649D01*
X0298931Y0116722D01*
X0298567Y0117761D01*
X0298090Y0118753D01*
X0297504Y0119686D01*
X0296817Y0120547D01*
X0296039Y0121325D01*
X0295178Y0122012D01*
X0294245Y0122597D01*
X0293253Y0123075D01*
X0289898Y0122955D02*
X0289094Y0122955D01*
X0285490Y0122955D02*
X0245510Y0122955D01*
X0241906Y0122955D02*
X0241102Y0122955D01*
X0237498Y0122955D02*
X0218502Y0122955D01*
X0218253Y0123075D02*
X0217214Y0123439D01*
X0216141Y0123684D01*
X0215047Y0123807D01*
X0214898Y0123807D01*
X0214898Y0114406D01*
X0224299Y0114406D01*
X0224299Y0114554D01*
X0224176Y0115649D01*
X0223931Y0116722D01*
X0223567Y0117761D01*
X0223090Y0118753D01*
X0222504Y0119686D01*
X0221817Y0120547D01*
X0221039Y0121325D01*
X0220178Y0122012D01*
X0219245Y0122597D01*
X0218253Y0123075D01*
X0214898Y0122955D02*
X0214094Y0122955D01*
X0210490Y0122955D02*
X0165773Y0122955D01*
X0169771Y0118957D02*
X0206030Y0118957D01*
X0204738Y0114958D02*
X0176847Y0114958D01*
X0177953Y0110960D02*
X0205175Y0110960D01*
X0207675Y0106961D02*
X0177953Y0106961D01*
X0182144Y0102963D02*
X0217439Y0102963D01*
X0217191Y0098964D02*
X0186912Y0098964D01*
X0188551Y0094966D02*
X0208767Y0094966D01*
X0205528Y0090967D02*
X0188533Y0090967D01*
X0186873Y0086969D02*
X0193929Y0086969D01*
X0197108Y0086969D02*
X0200374Y0086969D01*
X0203553Y0086969D02*
X0214094Y0086969D01*
X0214898Y0086969D02*
X0241102Y0086969D01*
X0241906Y0086969D02*
X0268929Y0086969D01*
X0272108Y0086969D02*
X0273406Y0086969D01*
X0276446Y0087005D02*
X0276446Y0087005D01*
X0279537Y0086969D02*
X0289094Y0086969D01*
X0289094Y0090967D02*
X0289898Y0090967D01*
X0289898Y0094966D02*
X0289094Y0094966D01*
X0292191Y0098964D02*
X0238809Y0098964D01*
X0238561Y0102963D02*
X0292439Y0102963D01*
X0289898Y0106961D02*
X0289094Y0106961D01*
X0289094Y0110960D02*
X0289898Y0110960D01*
X0289898Y0114958D02*
X0289094Y0114958D01*
X0289094Y0118957D02*
X0289898Y0118957D01*
X0297962Y0118957D02*
X0308038Y0118957D01*
X0306746Y0114958D02*
X0299254Y0114958D01*
X0298817Y0110960D02*
X0300160Y0110960D01*
X0305840Y0110960D02*
X0307183Y0110960D01*
X0316102Y0110960D02*
X0316906Y0110960D01*
X0316906Y0114958D02*
X0316102Y0114958D01*
X0316102Y0118957D02*
X0316906Y0118957D01*
X0316906Y0106961D02*
X0316102Y0106961D01*
X0316102Y0094966D02*
X0316906Y0094966D01*
X0316906Y0090967D02*
X0316102Y0090967D01*
X0316102Y0082970D02*
X0316906Y0082970D01*
X0316906Y0078972D02*
X0316102Y0078972D01*
X0310849Y0078972D02*
X0295151Y0078972D01*
X0298438Y0082970D02*
X0307562Y0082970D01*
X0283767Y0094966D02*
X0247233Y0094966D01*
X0250472Y0090967D02*
X0280528Y0090967D01*
X0263356Y0082970D02*
X0250446Y0082970D01*
X0247159Y0078972D02*
X0261000Y0078972D01*
X0261000Y0074973D02*
X0211482Y0074973D01*
X0211037Y0070975D02*
X0261445Y0070975D01*
X0264691Y0066976D02*
X0207791Y0066976D01*
X0214898Y0058807D02*
X0214898Y0049406D01*
X0224299Y0049406D01*
X0224299Y0049554D01*
X0224176Y0050649D01*
X0223931Y0051722D01*
X0223567Y0052761D01*
X0223090Y0053753D01*
X0222504Y0054686D01*
X0221817Y0055547D01*
X0221039Y0056325D01*
X0220178Y0057012D01*
X0219245Y0057597D01*
X0218253Y0058075D01*
X0217214Y0058439D01*
X0216141Y0058684D01*
X0215047Y0058807D01*
X0214898Y0058807D01*
X0214898Y0054981D02*
X0214094Y0054981D01*
X0214094Y0050982D02*
X0214898Y0050982D01*
X0214898Y0046984D02*
X0214094Y0046984D01*
X0214094Y0042985D02*
X0214898Y0042985D01*
X0224090Y0046984D02*
X0231910Y0046984D01*
X0231900Y0050982D02*
X0224100Y0050982D01*
X0222268Y0054981D02*
X0233732Y0054981D01*
X0241102Y0054981D02*
X0241906Y0054981D01*
X0241906Y0050982D02*
X0241102Y0050982D01*
X0241102Y0046984D02*
X0241906Y0046984D01*
X0241906Y0042985D02*
X0241102Y0042985D01*
X0238287Y0038987D02*
X0297713Y0038987D01*
X0297161Y0034988D02*
X0238839Y0034988D01*
X0241102Y0030990D02*
X0241906Y0030990D01*
X0245423Y0030990D02*
X0290577Y0030990D01*
X0294094Y0030990D02*
X0294898Y0030990D01*
X0294898Y0026991D02*
X0294094Y0026991D01*
X0294094Y0022993D02*
X0294898Y0022993D01*
X0294898Y0018994D02*
X0294094Y0018994D01*
X0294094Y0014996D02*
X0294898Y0014996D01*
X0301359Y0014996D02*
X0314641Y0014996D01*
X0312168Y0018994D02*
X0303832Y0018994D01*
X0304249Y0022993D02*
X0311751Y0022993D01*
X0321102Y0022993D02*
X0321906Y0022993D01*
X0321906Y0026991D02*
X0321102Y0026991D01*
X0321102Y0030990D02*
X0321906Y0030990D01*
X0325423Y0030990D02*
X0333000Y0030990D01*
X0333000Y0034988D02*
X0318839Y0034988D01*
X0318287Y0038987D02*
X0333000Y0038987D01*
X0333000Y0042985D02*
X0329243Y0042985D01*
X0331098Y0046984D02*
X0333000Y0046984D01*
X0333000Y0050982D02*
X0331108Y0050982D01*
X0329276Y0054981D02*
X0333000Y0054981D01*
X0333000Y0058979D02*
X0135994Y0058979D01*
X0136197Y0054981D02*
X0206724Y0054981D01*
X0204892Y0050982D02*
X0134612Y0050982D01*
X0116810Y0054981D02*
X0109190Y0054981D01*
X0108986Y0058979D02*
X0117014Y0058979D01*
X0119128Y0062978D02*
X0106872Y0062978D01*
X0170361Y0066976D02*
X0174691Y0066976D01*
X0186345Y0066976D02*
X0189691Y0066976D01*
X0188356Y0082970D02*
X0187680Y0082970D01*
X0214094Y0082970D02*
X0214898Y0082970D01*
X0214898Y0078972D02*
X0214094Y0078972D01*
X0220151Y0078972D02*
X0235849Y0078972D01*
X0232562Y0082970D02*
X0223438Y0082970D01*
X0214898Y0090967D02*
X0214094Y0090967D01*
X0214094Y0094966D02*
X0214898Y0094966D01*
X0214898Y0106961D02*
X0214094Y0106961D01*
X0214094Y0110960D02*
X0214898Y0110960D01*
X0214898Y0114958D02*
X0214094Y0114958D01*
X0214094Y0118957D02*
X0214898Y0118957D01*
X0222962Y0118957D02*
X0233038Y0118957D01*
X0231746Y0114958D02*
X0224254Y0114958D01*
X0223817Y0110960D02*
X0225160Y0110960D01*
X0230840Y0110960D02*
X0232183Y0110960D01*
X0241102Y0110960D02*
X0241906Y0110960D01*
X0241906Y0114958D02*
X0241102Y0114958D01*
X0241102Y0118957D02*
X0241906Y0118957D01*
X0249970Y0118957D02*
X0281030Y0118957D01*
X0279738Y0114958D02*
X0251262Y0114958D01*
X0250825Y0110960D02*
X0280175Y0110960D01*
X0282675Y0106961D02*
X0248325Y0106961D01*
X0241906Y0106961D02*
X0241102Y0106961D01*
X0241102Y0094966D02*
X0241906Y0094966D01*
X0241906Y0090967D02*
X0241102Y0090967D01*
X0241102Y0082970D02*
X0241906Y0082970D01*
X0241906Y0078972D02*
X0241102Y0078972D01*
X0249276Y0054981D02*
X0286724Y0054981D01*
X0284892Y0050982D02*
X0251108Y0050982D01*
X0251098Y0046984D02*
X0284902Y0046984D01*
X0286757Y0042985D02*
X0249243Y0042985D01*
X0249943Y0026991D02*
X0267999Y0026991D01*
X0262394Y0022993D02*
X0251257Y0022993D01*
X0250839Y0018994D02*
X0261000Y0018994D01*
X0261000Y0014996D02*
X0248367Y0014996D01*
X0241906Y0014996D02*
X0241102Y0014996D01*
X0241102Y0018994D02*
X0241906Y0018994D01*
X0241906Y0022993D02*
X0241102Y0022993D01*
X0241102Y0026991D02*
X0241906Y0026991D01*
X0231751Y0022993D02*
X0224249Y0022993D01*
X0223832Y0018994D02*
X0232168Y0018994D01*
X0234641Y0014996D02*
X0221359Y0014996D01*
X0214898Y0014996D02*
X0214094Y0014996D01*
X0214094Y0018994D02*
X0214898Y0018994D01*
X0214898Y0022993D02*
X0214094Y0022993D01*
X0214094Y0026991D02*
X0214898Y0026991D01*
X0214898Y0030990D02*
X0214094Y0030990D01*
X0207633Y0014996D02*
X0206482Y0014996D01*
X0205639Y0010997D02*
X0261435Y0010997D01*
X0284104Y0022993D02*
X0284743Y0022993D01*
X0286057Y0026991D02*
X0278499Y0026991D01*
X0281241Y0025856D02*
X0281241Y0025856D01*
X0275428Y0026991D02*
X0273038Y0026991D01*
X0286482Y0014996D02*
X0287633Y0014996D01*
X0286047Y0010997D02*
X0333000Y0010997D01*
X0333000Y0014996D02*
X0328367Y0014996D01*
X0330839Y0018994D02*
X0333000Y0018994D01*
X0333000Y0022993D02*
X0331257Y0022993D01*
X0329943Y0026991D02*
X0333000Y0026991D01*
X0321906Y0018994D02*
X0321102Y0018994D01*
X0321102Y0014996D02*
X0321906Y0014996D01*
X0321906Y0042985D02*
X0321102Y0042985D01*
X0321102Y0046984D02*
X0321906Y0046984D01*
X0321906Y0050982D02*
X0321102Y0050982D01*
X0321102Y0054981D02*
X0321906Y0054981D01*
X0313732Y0054981D02*
X0302268Y0054981D01*
X0302504Y0054686D02*
X0301817Y0055547D01*
X0301039Y0056325D01*
X0300178Y0057012D01*
X0299245Y0057597D01*
X0298253Y0058075D01*
X0297214Y0058439D01*
X0296141Y0058684D01*
X0295047Y0058807D01*
X0294898Y0058807D01*
X0294898Y0049406D01*
X0304299Y0049406D01*
X0304299Y0049554D01*
X0304176Y0050649D01*
X0303931Y0051722D01*
X0303567Y0052761D01*
X0303090Y0053753D01*
X0302504Y0054686D01*
X0304100Y0050982D02*
X0311900Y0050982D01*
X0311910Y0046984D02*
X0304090Y0046984D01*
X0294898Y0046984D02*
X0294094Y0046984D01*
X0294094Y0042985D02*
X0294898Y0042985D01*
X0294898Y0050982D02*
X0294094Y0050982D01*
X0294094Y0054981D02*
X0294898Y0054981D01*
X0274682Y0126954D02*
X0333000Y0126954D01*
X0333000Y0130952D02*
X0278680Y0130952D01*
X0281479Y0134951D02*
X0333000Y0134951D01*
X0333000Y0138949D02*
X0282953Y0138949D01*
X0282953Y0142948D02*
X0333000Y0142948D01*
X0333000Y0146946D02*
X0282953Y0146946D01*
X0273000Y0143000D02*
X0273000Y0138000D01*
X0268000Y0133000D01*
X0213000Y0133000D01*
X0198000Y0148000D01*
X0197953Y0134951D02*
X0198321Y0134951D01*
X0197953Y0130952D02*
X0202320Y0130952D01*
X0206318Y0126954D02*
X0197248Y0126954D01*
X0188000Y0133000D02*
X0168000Y0153000D01*
X0158755Y0146946D02*
X0142000Y0146946D01*
X0145780Y0142948D02*
X0165324Y0142948D01*
X0169323Y0138949D02*
X0149779Y0138949D01*
X0153777Y0134951D02*
X0173321Y0134951D01*
X0177320Y0130952D02*
X0157776Y0130952D01*
X0161774Y0126954D02*
X0178752Y0126954D01*
X0168000Y0108000D02*
X0133000Y0143000D01*
X0133000Y0153000D01*
X0098000Y0153000D01*
X0088000Y0163000D02*
X0088000Y0187528D01*
X0082528Y0193000D01*
X0082528Y0202528D01*
X0083000Y0203000D01*
X0081346Y0203000D01*
X0074654Y0203000D02*
X0058000Y0204594D01*
X0048244Y0202926D02*
X0010000Y0202926D01*
X0010000Y0206924D02*
X0048244Y0206924D01*
X0048244Y0208349D02*
X0048244Y0200840D01*
X0049310Y0198267D01*
X0051279Y0196298D01*
X0053852Y0195232D01*
X0061353Y0195232D01*
X0069232Y0194478D01*
X0069232Y0193000D01*
X0069232Y0191071D01*
X0069348Y0190491D01*
X0069574Y0189945D01*
X0069902Y0189454D01*
X0070320Y0189036D01*
X0070811Y0188708D01*
X0071357Y0188481D01*
X0071937Y0188366D01*
X0073166Y0188366D01*
X0072834Y0187715D01*
X0072562Y0186880D01*
X0072425Y0186014D01*
X0072425Y0183000D01*
X0078000Y0183000D01*
X0067575Y0183000D01*
X0067575Y0187479D01*
X0066117Y0190998D01*
X0063424Y0193692D01*
X0059905Y0195150D01*
X0056095Y0195150D01*
X0053000Y0193867D01*
X0049905Y0195150D01*
X0046095Y0195150D01*
X0043000Y0193867D01*
X0039905Y0195150D01*
X0036095Y0195150D01*
X0032576Y0193692D01*
X0029883Y0190998D01*
X0028425Y0187479D01*
X0028425Y0183000D01*
X0010000Y0183000D01*
X0010000Y0254976D01*
X0011043Y0253933D01*
X0013627Y0252441D01*
X0016508Y0251669D01*
X0019492Y0251669D01*
X0022373Y0252441D01*
X0024957Y0253933D01*
X0027067Y0256043D01*
X0028559Y0258627D01*
X0029331Y0261508D01*
X0029331Y0264492D01*
X0028559Y0267373D01*
X0027067Y0269957D01*
X0026063Y0270961D01*
X0374937Y0270961D01*
X0373933Y0269957D01*
X0372441Y0267373D01*
X0371669Y0264492D01*
X0371669Y0261508D01*
X0372441Y0258627D01*
X0373933Y0256043D01*
X0376043Y0253933D01*
X0378627Y0252441D01*
X0381508Y0251669D01*
X0382886Y0251669D01*
X0382530Y0251522D01*
X0381770Y0251083D01*
X0381073Y0250548D01*
X0380452Y0249927D01*
X0379917Y0249230D01*
X0379478Y0248470D01*
X0379142Y0247658D01*
X0378915Y0246810D01*
X0378800Y0245939D01*
X0378800Y0245500D01*
X0381479Y0245500D01*
X0381479Y0245500D01*
X0378800Y0245500D01*
X0378800Y0245061D01*
X0378915Y0244190D01*
X0378946Y0244072D01*
X0378930Y0244062D01*
X0378516Y0243648D01*
X0375010Y0245100D01*
X0365990Y0245100D01*
X0362462Y0243638D01*
X0359762Y0240938D01*
X0358300Y0237410D01*
X0358300Y0233590D01*
X0359580Y0230500D01*
X0358300Y0227410D01*
X0358300Y0223590D01*
X0359580Y0220500D01*
X0358300Y0217410D01*
X0358300Y0213590D01*
X0359580Y0210500D01*
X0358300Y0207410D01*
X0358300Y0203590D01*
X0359580Y0200500D01*
X0358300Y0197410D01*
X0358300Y0193590D01*
X0359580Y0190500D01*
X0358300Y0187410D01*
X0358300Y0183590D01*
X0358545Y0183000D01*
X0352455Y0183000D01*
X0352700Y0183590D01*
X0352700Y0187410D01*
X0351420Y0190500D01*
X0352700Y0193590D01*
X0352700Y0197410D01*
X0351420Y0200500D01*
X0352700Y0203590D01*
X0352700Y0207410D01*
X0351420Y0210500D01*
X0352700Y0213590D01*
X0352700Y0217410D01*
X0351420Y0220500D01*
X0352700Y0223590D01*
X0352700Y0227410D01*
X0351238Y0230938D01*
X0348538Y0233638D01*
X0348402Y0233695D01*
X0348562Y0234189D01*
X0348700Y0235059D01*
X0348700Y0235500D01*
X0348700Y0235941D01*
X0348562Y0236811D01*
X0348290Y0237650D01*
X0347890Y0238435D01*
X0347371Y0239148D01*
X0346748Y0239771D01*
X0346035Y0240290D01*
X0345250Y0240690D01*
X0344411Y0240962D01*
X0343541Y0241100D01*
X0340500Y0241100D01*
X0340500Y0235500D01*
X0340500Y0235500D01*
X0348700Y0235500D01*
X0340500Y0235500D01*
X0340500Y0235500D01*
X0340500Y0235500D01*
X0332300Y0235500D01*
X0332300Y0235941D01*
X0332438Y0236811D01*
X0332710Y0237650D01*
X0333110Y0238435D01*
X0333629Y0239148D01*
X0334252Y0239771D01*
X0334965Y0240290D01*
X0335750Y0240690D01*
X0336589Y0240962D01*
X0337459Y0241100D01*
X0340500Y0241100D01*
X0340500Y0235500D01*
X0332300Y0235500D01*
X0332300Y0235059D01*
X0332438Y0234189D01*
X0332598Y0233695D01*
X0332462Y0233638D01*
X0331337Y0232514D01*
X0331397Y0232656D01*
X0331512Y0233236D01*
X0331512Y0235500D01*
X0331512Y0237764D01*
X0331397Y0238344D01*
X0331170Y0238890D01*
X0330842Y0239381D01*
X0330424Y0239799D01*
X0329933Y0240127D01*
X0329387Y0240353D01*
X0328807Y0240468D01*
X0328654Y0240468D01*
X0328654Y0254790D01*
X0327283Y0258098D01*
X0324752Y0260630D01*
X0321444Y0262000D01*
X0319645Y0262000D01*
X0317345Y0262953D01*
X0308655Y0262953D01*
X0308381Y0262839D01*
X0306849Y0263250D01*
X0304151Y0263250D01*
X0301544Y0262551D01*
X0299206Y0261202D01*
X0297298Y0259294D01*
X0297273Y0259250D01*
X0295500Y0259250D01*
X0295500Y0255283D01*
X0295500Y0255282D01*
X0295500Y0259250D01*
X0291955Y0259250D01*
X0291375Y0259135D01*
X0290829Y0258909D01*
X0290338Y0258580D01*
X0289920Y0258162D01*
X0289591Y0257671D01*
X0289365Y0257125D01*
X0289250Y0256545D01*
X0289250Y0253000D01*
X0295250Y0253000D01*
X0295250Y0253000D01*
X0289250Y0253000D01*
X0289250Y0249455D01*
X0289365Y0248875D01*
X0289591Y0248329D01*
X0289920Y0247838D01*
X0290338Y0247420D01*
X0290829Y0247091D01*
X0291375Y0246865D01*
X0291955Y0246750D01*
X0295500Y0246750D01*
X0297273Y0246750D01*
X0297298Y0246706D01*
X0299206Y0244798D01*
X0301544Y0243449D01*
X0304151Y0242750D01*
X0306849Y0242750D01*
X0308381Y0243161D01*
X0308655Y0243047D01*
X0310654Y0243047D01*
X0310654Y0239260D01*
X0310488Y0238861D01*
X0310488Y0232139D01*
X0311554Y0229566D01*
X0313523Y0227597D01*
X0316096Y0226531D01*
X0317787Y0226531D01*
X0317863Y0226500D01*
X0321444Y0226500D01*
X0321520Y0226531D01*
X0323211Y0226531D01*
X0325784Y0227597D01*
X0327753Y0229566D01*
X0328153Y0230531D01*
X0328807Y0230531D01*
X0329387Y0230647D01*
X0329694Y0230774D01*
X0328300Y0227410D01*
X0328300Y0223590D01*
X0329580Y0220500D01*
X0328300Y0217410D01*
X0328300Y0213590D01*
X0329580Y0210500D01*
X0328300Y0207410D01*
X0328300Y0203590D01*
X0329580Y0200500D01*
X0328300Y0197410D01*
X0328300Y0193590D01*
X0329580Y0190500D01*
X0328300Y0187410D01*
X0328300Y0183590D01*
X0328545Y0183000D01*
X0322000Y0183000D01*
X0322000Y0189318D01*
X0320630Y0192626D01*
X0316528Y0196728D01*
X0316528Y0203609D01*
X0315512Y0206061D01*
X0315512Y0206361D01*
X0314446Y0208934D01*
X0312477Y0210903D01*
X0309904Y0211968D01*
X0308213Y0211968D01*
X0308137Y0212000D01*
X0304556Y0212000D01*
X0304480Y0211968D01*
X0300412Y0211968D01*
X0289404Y0213023D01*
X0288672Y0213326D01*
X0288756Y0213748D01*
X0288756Y0216405D01*
X0283000Y0216405D01*
X0277244Y0216405D01*
X0277244Y0213748D01*
X0277328Y0213326D01*
X0276279Y0212891D01*
X0274310Y0210922D01*
X0273244Y0208349D01*
X0273244Y0200840D01*
X0274310Y0198267D01*
X0276279Y0196298D01*
X0278852Y0195232D01*
X0286353Y0195232D01*
X0294232Y0194478D01*
X0294232Y0193000D01*
X0294232Y0191071D01*
X0294348Y0190491D01*
X0294574Y0189945D01*
X0294902Y0189454D01*
X0295320Y0189036D01*
X0295811Y0188708D01*
X0296357Y0188481D01*
X0296937Y0188366D01*
X0298166Y0188366D01*
X0297834Y0187715D01*
X0297562Y0186880D01*
X0297425Y0186014D01*
X0297425Y0183000D01*
X0303000Y0183000D01*
X0292575Y0183000D01*
X0292575Y0187479D01*
X0291117Y0190998D01*
X0288424Y0193692D01*
X0284905Y0195150D01*
X0281095Y0195150D01*
X0278000Y0193867D01*
X0274905Y0195150D01*
X0271095Y0195150D01*
X0268000Y0193867D01*
X0264905Y0195150D01*
X0261095Y0195150D01*
X0257576Y0193692D01*
X0256837Y0192953D01*
X0248655Y0192953D01*
X0246764Y0192169D01*
X0246764Y0203618D01*
X0247717Y0205919D01*
X0247717Y0214609D01*
X0246651Y0217182D01*
X0244682Y0219151D01*
X0242109Y0220217D01*
X0233419Y0220217D01*
X0230846Y0219151D01*
X0228877Y0217182D01*
X0227811Y0214609D01*
X0227811Y0211968D01*
X0225412Y0211968D01*
X0214404Y0213023D01*
X0213672Y0213326D01*
X0213756Y0213748D01*
X0213756Y0216405D01*
X0208000Y0216405D01*
X0202244Y0216405D01*
X0202244Y0213748D01*
X0202328Y0213326D01*
X0201279Y0212891D01*
X0199310Y0210922D01*
X0198244Y0208349D01*
X0198244Y0200840D01*
X0199310Y0198267D01*
X0201279Y0196298D01*
X0203852Y0195232D01*
X0211353Y0195232D01*
X0219232Y0194478D01*
X0219232Y0193000D01*
X0223472Y0193000D01*
X0219232Y0193000D01*
X0219232Y0191071D01*
X0219348Y0190491D01*
X0219574Y0189945D01*
X0219902Y0189454D01*
X0220320Y0189036D01*
X0220811Y0188708D01*
X0221357Y0188481D01*
X0221937Y0188366D01*
X0223166Y0188366D01*
X0222834Y0187715D01*
X0222562Y0186880D01*
X0222425Y0186014D01*
X0222425Y0183000D01*
X0228000Y0183000D01*
X0217575Y0183000D01*
X0217575Y0187479D01*
X0216117Y0190998D01*
X0213424Y0193692D01*
X0209905Y0195150D01*
X0206095Y0195150D01*
X0203000Y0193867D01*
X0199905Y0195150D01*
X0196095Y0195150D01*
X0193000Y0193867D01*
X0189905Y0195150D01*
X0186095Y0195150D01*
X0182576Y0193692D01*
X0179883Y0190998D01*
X0178425Y0187479D01*
X0178425Y0183000D01*
X0172543Y0183000D01*
X0172717Y0183419D01*
X0172717Y0192109D01*
X0171651Y0194682D01*
X0169682Y0196651D01*
X0167109Y0197717D01*
X0166528Y0197717D01*
X0166528Y0203609D01*
X0165512Y0206061D01*
X0165512Y0206361D01*
X0164446Y0208934D01*
X0162477Y0210903D01*
X0159904Y0211968D01*
X0158213Y0211968D01*
X0158137Y0212000D01*
X0154556Y0212000D01*
X0154480Y0211968D01*
X0150412Y0211968D01*
X0139404Y0213023D01*
X0138672Y0213326D01*
X0138756Y0213748D01*
X0138756Y0216405D01*
X0133000Y0216405D01*
X0127244Y0216405D01*
X0127244Y0213748D01*
X0127328Y0213326D01*
X0126279Y0212891D01*
X0124310Y0210922D01*
X0123244Y0208349D01*
X0123244Y0200840D01*
X0124310Y0198267D01*
X0126279Y0196298D01*
X0128852Y0195232D01*
X0136353Y0195232D01*
X0144232Y0194478D01*
X0144232Y0193000D01*
X0144232Y0191071D01*
X0144348Y0190491D01*
X0144574Y0189945D01*
X0144902Y0189454D01*
X0145320Y0189036D01*
X0145811Y0188708D01*
X0146357Y0188481D01*
X0146937Y0188366D01*
X0148166Y0188366D01*
X0147834Y0187715D01*
X0147562Y0186880D01*
X0147425Y0186014D01*
X0147425Y0183000D01*
X0152984Y0183000D01*
X0152984Y0183000D01*
X0142575Y0183000D01*
X0142575Y0187479D01*
X0141117Y0190998D01*
X0138424Y0193692D01*
X0134905Y0195150D01*
X0131095Y0195150D01*
X0128000Y0193867D01*
X0124905Y0195150D01*
X0121095Y0195150D01*
X0118000Y0193867D01*
X0114905Y0195150D01*
X0111095Y0195150D01*
X0107576Y0193692D01*
X0104883Y0190998D01*
X0103425Y0187479D01*
X0103425Y0183000D01*
X0097877Y0183000D01*
X0097953Y0183182D01*
X0097953Y0191873D01*
X0096887Y0194445D01*
X0094918Y0196415D01*
X0092345Y0197480D01*
X0091528Y0197480D01*
X0091528Y0200069D01*
X0092000Y0201210D01*
X0092000Y0204790D01*
X0090630Y0208098D01*
X0088098Y0210630D01*
X0087504Y0210876D01*
X0087477Y0210903D01*
X0084904Y0211968D01*
X0084866Y0211968D01*
X0084790Y0212000D01*
X0079556Y0212000D01*
X0079480Y0211968D01*
X0075412Y0211968D01*
X0064404Y0213023D01*
X0063672Y0213326D01*
X0063756Y0213748D01*
X0063756Y0216405D01*
X0058000Y0216405D01*
X0052244Y0216405D01*
X0052244Y0213748D01*
X0052328Y0213326D01*
X0051279Y0212891D01*
X0049310Y0210922D01*
X0048244Y0208349D01*
X0049311Y0210923D02*
X0010000Y0210923D01*
X0010000Y0214921D02*
X0052244Y0214921D01*
X0052244Y0216406D02*
X0058000Y0216406D01*
X0058000Y0221768D01*
X0054949Y0221768D01*
X0054369Y0221652D01*
X0053823Y0221426D01*
X0053332Y0221098D01*
X0052914Y0220680D01*
X0052586Y0220189D01*
X0052359Y0219643D01*
X0052244Y0219063D01*
X0052244Y0216406D01*
X0052244Y0218920D02*
X0010000Y0218920D01*
X0010000Y0222918D02*
X0328578Y0222918D01*
X0328300Y0226917D02*
X0324141Y0226917D01*
X0315166Y0226917D02*
X0010000Y0226917D01*
X0010000Y0230915D02*
X0310995Y0230915D01*
X0310488Y0234914D02*
X0010000Y0234914D01*
X0010000Y0238912D02*
X0310509Y0238912D01*
X0310654Y0242911D02*
X0307449Y0242911D01*
X0303551Y0242911D02*
X0010000Y0242911D01*
X0010000Y0246909D02*
X0291269Y0246909D01*
X0295500Y0246909D02*
X0295500Y0246909D01*
X0295500Y0246750D02*
X0295500Y0250717D01*
X0295500Y0250718D01*
X0295500Y0246750D01*
X0289250Y0250908D02*
X0010000Y0250908D01*
X0010000Y0254906D02*
X0010070Y0254906D01*
X0025930Y0254906D02*
X0289250Y0254906D01*
X0290823Y0258905D02*
X0028633Y0258905D01*
X0029331Y0262903D02*
X0302856Y0262903D01*
X0308144Y0262903D02*
X0308535Y0262903D01*
X0317465Y0262903D02*
X0371669Y0262903D01*
X0372315Y0266902D02*
X0028685Y0266902D01*
X0026124Y0270900D02*
X0374876Y0270900D01*
X0372367Y0258905D02*
X0326477Y0258905D01*
X0328605Y0254906D02*
X0375070Y0254906D01*
X0381542Y0250908D02*
X0328654Y0250908D01*
X0328654Y0246909D02*
X0378941Y0246909D01*
X0361734Y0242911D02*
X0328654Y0242911D01*
X0331155Y0238912D02*
X0333457Y0238912D01*
X0340500Y0238912D02*
X0340500Y0238912D01*
X0347543Y0238912D02*
X0358922Y0238912D01*
X0358300Y0234914D02*
X0348677Y0234914D01*
X0351248Y0230915D02*
X0359408Y0230915D01*
X0358300Y0226917D02*
X0352700Y0226917D01*
X0352422Y0222918D02*
X0358578Y0222918D01*
X0358925Y0218920D02*
X0352075Y0218920D01*
X0352700Y0214921D02*
X0358300Y0214921D01*
X0359405Y0210923D02*
X0351595Y0210923D01*
X0352700Y0206924D02*
X0358300Y0206924D01*
X0358575Y0202926D02*
X0352425Y0202926D01*
X0352071Y0198927D02*
X0358929Y0198927D01*
X0358300Y0194929D02*
X0352700Y0194929D01*
X0351598Y0190930D02*
X0359402Y0190930D01*
X0358300Y0186932D02*
X0352700Y0186932D01*
X0329402Y0190930D02*
X0321332Y0190930D01*
X0322000Y0186932D02*
X0328300Y0186932D01*
X0328300Y0194929D02*
X0318327Y0194929D01*
X0316528Y0198927D02*
X0328929Y0198927D01*
X0328575Y0202926D02*
X0316528Y0202926D01*
X0315279Y0206924D02*
X0328300Y0206924D01*
X0329405Y0210923D02*
X0312429Y0210923D01*
X0306346Y0203000D02*
X0307528Y0201819D01*
X0307528Y0193000D01*
X0313000Y0187528D01*
X0313000Y0163000D01*
X0303000Y0183000D02*
X0303000Y0183000D01*
X0297579Y0186932D02*
X0292575Y0186932D01*
X0291145Y0190930D02*
X0294260Y0190930D01*
X0294232Y0193000D02*
X0298472Y0193000D01*
X0298472Y0193000D01*
X0294232Y0193000D01*
X0289526Y0194929D02*
X0285438Y0194929D01*
X0280562Y0194929D02*
X0275438Y0194929D01*
X0274036Y0198927D02*
X0246764Y0198927D01*
X0246764Y0194929D02*
X0260562Y0194929D01*
X0265438Y0194929D02*
X0270562Y0194929D01*
X0273244Y0202926D02*
X0246764Y0202926D01*
X0247717Y0206924D02*
X0273244Y0206924D01*
X0274311Y0210923D02*
X0247717Y0210923D01*
X0247587Y0214921D02*
X0277244Y0214921D01*
X0277244Y0216406D02*
X0283000Y0216406D01*
X0283000Y0221768D01*
X0279949Y0221768D01*
X0279369Y0221652D01*
X0278823Y0221426D01*
X0278332Y0221098D01*
X0277914Y0220680D01*
X0277586Y0220189D01*
X0277359Y0219643D01*
X0277244Y0219063D01*
X0277244Y0216406D01*
X0277244Y0218920D02*
X0244913Y0218920D01*
X0237764Y0210264D02*
X0237764Y0208000D01*
X0232764Y0203000D01*
X0231346Y0203000D01*
X0232528Y0201819D01*
X0232528Y0193000D01*
X0223472Y0193000D02*
X0223472Y0193000D01*
X0219260Y0190930D02*
X0216145Y0190930D01*
X0217575Y0186932D02*
X0222579Y0186932D01*
X0228000Y0183000D02*
X0228000Y0183000D01*
X0214526Y0194929D02*
X0210438Y0194929D01*
X0205562Y0194929D02*
X0200438Y0194929D01*
X0199036Y0198927D02*
X0166528Y0198927D01*
X0171404Y0194929D02*
X0185562Y0194929D01*
X0190438Y0194929D02*
X0195562Y0194929D01*
X0198244Y0202926D02*
X0166528Y0202926D01*
X0165279Y0206924D02*
X0198244Y0206924D01*
X0199311Y0210923D02*
X0162429Y0210923D01*
X0156346Y0203000D02*
X0157528Y0201819D01*
X0157528Y0193000D01*
X0162764Y0187764D01*
X0162764Y0183236D01*
X0163000Y0183000D01*
X0163000Y0187528D01*
X0162764Y0187764D01*
X0163000Y0183000D02*
X0163000Y0163000D01*
X0172717Y0186932D02*
X0178425Y0186932D01*
X0179855Y0190930D02*
X0172717Y0190930D01*
X0148472Y0193000D02*
X0144232Y0193000D01*
X0148472Y0193000D01*
X0148472Y0193000D01*
X0144260Y0190930D02*
X0141145Y0190930D01*
X0142575Y0186932D02*
X0147579Y0186932D01*
X0139526Y0194929D02*
X0135438Y0194929D01*
X0130562Y0194929D02*
X0125438Y0194929D01*
X0124036Y0198927D02*
X0091528Y0198927D01*
X0092000Y0202926D02*
X0123244Y0202926D01*
X0123244Y0206924D02*
X0091116Y0206924D01*
X0087429Y0210923D02*
X0124311Y0210923D01*
X0127244Y0214921D02*
X0063756Y0214921D01*
X0063756Y0216406D02*
X0058000Y0216406D01*
X0058000Y0216406D01*
X0058000Y0221768D01*
X0061051Y0221768D01*
X0061631Y0221652D01*
X0062177Y0221426D01*
X0062668Y0221098D01*
X0063086Y0220680D01*
X0063414Y0220189D01*
X0063641Y0219643D01*
X0063756Y0219063D01*
X0063756Y0216406D01*
X0063756Y0218920D02*
X0127244Y0218920D01*
X0127244Y0219063D02*
X0127244Y0216406D01*
X0133000Y0216406D01*
X0133000Y0221768D01*
X0129949Y0221768D01*
X0129369Y0221652D01*
X0128823Y0221426D01*
X0128332Y0221098D01*
X0127914Y0220680D01*
X0127586Y0220189D01*
X0127359Y0219643D01*
X0127244Y0219063D01*
X0133000Y0218920D02*
X0133000Y0218920D01*
X0133000Y0216406D02*
X0133000Y0216406D01*
X0133000Y0221768D01*
X0136051Y0221768D01*
X0136631Y0221652D01*
X0137177Y0221426D01*
X0137668Y0221098D01*
X0138086Y0220680D01*
X0138414Y0220189D01*
X0138641Y0219643D01*
X0138756Y0219063D01*
X0138756Y0216406D01*
X0133000Y0216406D01*
X0133000Y0216405D01*
X0133000Y0216406D01*
X0138756Y0214921D02*
X0202244Y0214921D01*
X0202244Y0216406D02*
X0208000Y0216406D01*
X0208000Y0221768D01*
X0204949Y0221768D01*
X0204369Y0221652D01*
X0203823Y0221426D01*
X0203332Y0221098D01*
X0202914Y0220680D01*
X0202586Y0220189D01*
X0202359Y0219643D01*
X0202244Y0219063D01*
X0202244Y0216406D01*
X0202244Y0218920D02*
X0138756Y0218920D01*
X0133000Y0204594D02*
X0149654Y0203000D01*
X0120562Y0194929D02*
X0115438Y0194929D01*
X0110562Y0194929D02*
X0096404Y0194929D01*
X0097953Y0190930D02*
X0104855Y0190930D01*
X0103425Y0186932D02*
X0097953Y0186932D01*
X0078000Y0183000D02*
X0078000Y0183000D01*
X0072579Y0186932D02*
X0067575Y0186932D01*
X0066145Y0190930D02*
X0069260Y0190930D01*
X0069232Y0193000D02*
X0073472Y0193000D01*
X0073472Y0193000D01*
X0069232Y0193000D01*
X0064526Y0194929D02*
X0060438Y0194929D01*
X0055562Y0194929D02*
X0050438Y0194929D01*
X0049036Y0198927D02*
X0010000Y0198927D01*
X0010000Y0194929D02*
X0035562Y0194929D01*
X0040438Y0194929D02*
X0045562Y0194929D01*
X0029855Y0190930D02*
X0010000Y0190930D01*
X0010000Y0186932D02*
X0028425Y0186932D01*
X0058000Y0216405D02*
X0058000Y0216406D01*
X0058000Y0216405D01*
X0058000Y0218920D02*
X0058000Y0218920D01*
X0208000Y0218920D02*
X0208000Y0218920D01*
X0208000Y0216406D02*
X0208000Y0216406D01*
X0208000Y0221768D01*
X0211051Y0221768D01*
X0211631Y0221652D01*
X0212177Y0221426D01*
X0212668Y0221098D01*
X0213086Y0220680D01*
X0213414Y0220189D01*
X0213641Y0219643D01*
X0213756Y0219063D01*
X0213756Y0216406D01*
X0208000Y0216406D01*
X0208000Y0216405D01*
X0208000Y0216406D01*
X0213756Y0214921D02*
X0227940Y0214921D01*
X0230615Y0218920D02*
X0213756Y0218920D01*
X0208000Y0204594D02*
X0224654Y0203000D01*
X0237764Y0208000D02*
X0237764Y0163236D01*
X0238000Y0163000D01*
X0253000Y0143000D02*
X0253000Y0183000D01*
X0283000Y0204594D02*
X0299654Y0203000D01*
X0288756Y0214921D02*
X0328300Y0214921D01*
X0328925Y0218920D02*
X0288756Y0218920D01*
X0288756Y0219063D02*
X0288641Y0219643D01*
X0288414Y0220189D01*
X0288086Y0220680D01*
X0287668Y0221098D01*
X0287177Y0221426D01*
X0286631Y0221652D01*
X0286051Y0221768D01*
X0283000Y0221768D01*
X0283000Y0216406D01*
X0283000Y0216406D01*
X0283000Y0216405D01*
X0283000Y0216406D01*
X0288756Y0216406D01*
X0288756Y0219063D01*
X0283000Y0218920D02*
X0283000Y0218920D01*
X0319654Y0235500D02*
X0319654Y0253000D01*
X0313000Y0253000D01*
X0295500Y0258905D02*
X0295500Y0258905D01*
X0326346Y0235500D02*
X0333000Y0235500D01*
X0332323Y0234914D02*
X0331512Y0234914D01*
X0331512Y0235500D02*
X0328819Y0235500D01*
X0331512Y0235500D01*
X0328819Y0235500D02*
X0328819Y0235500D01*
D22*
X0333000Y0235500D03*
X0313000Y0253000D03*
X0368000Y0253000D03*
X0293000Y0183000D03*
X0313000Y0163000D03*
X0273000Y0143000D03*
X0253000Y0143000D03*
X0238000Y0163000D03*
X0253000Y0183000D03*
X0237764Y0210264D03*
X0218000Y0183000D03*
X0198000Y0148000D03*
X0188000Y0133000D03*
X0168000Y0153000D03*
X0163000Y0163000D03*
X0143000Y0183000D03*
X0162764Y0187764D03*
X0098000Y0153000D03*
X0088000Y0163000D03*
X0068000Y0183000D03*
X0088000Y0187528D03*
X0168000Y0108000D03*
X0078000Y0075500D03*
X0265500Y0055500D03*
X0325500Y0070500D03*
M02*
