G75*
%MOIN*%
%OFA0B0*%
%FSLAX25Y25*%
%IPPOS*%
%LPD*%
%AMOC8*
5,1,8,0,0,1.08239X$1,22.5*
%
%ADD10C,0.09461*%
%ADD11R,0.05524X0.06312*%
%ADD12R,0.04068X0.03280*%
%ADD13R,0.03280X0.04068*%
%ADD14C,0.06000*%
%ADD15C,0.08200*%
%ADD16C,0.05950*%
%ADD17R,0.05131X0.04737*%
%ADD18C,0.08477*%
%ADD19C,0.14406*%
%ADD20C,0.07300*%
%ADD21R,0.07300X0.07300*%
%ADD22C,0.00500*%
%ADD23R,0.06706X0.06706*%
%ADD24R,0.06115X0.06115*%
%ADD25C,0.07296*%
D10*
X0068000Y0023000D03*
X0383000Y0018000D03*
X0383000Y0263000D03*
X0018000Y0263000D03*
D11*
X0037094Y0018000D03*
X0048906Y0018000D03*
X0112094Y0018000D03*
X0123906Y0018000D03*
X0192094Y0018000D03*
X0203906Y0018000D03*
X0267094Y0018000D03*
X0278906Y0018000D03*
D12*
X0240500Y0063472D03*
X0240500Y0072528D03*
X0088000Y0072528D03*
X0088000Y0063472D03*
X0013000Y0063472D03*
X0013000Y0072528D03*
D13*
X0160972Y0043000D03*
X0170028Y0043000D03*
D14*
X0188000Y0190400D02*
X0188000Y0195600D01*
X0198000Y0195600D02*
X0198000Y0190400D01*
X0208000Y0190400D02*
X0208000Y0195600D01*
X0218000Y0195600D02*
X0218000Y0190400D01*
X0228000Y0190400D02*
X0228000Y0195600D01*
X0238000Y0195600D02*
X0238000Y0190400D01*
X0248000Y0190400D02*
X0248000Y0195600D01*
X0258000Y0195600D02*
X0258000Y0190400D01*
X0268000Y0190400D02*
X0268000Y0195600D01*
X0268000Y0220400D02*
X0268000Y0225600D01*
X0258000Y0225600D02*
X0258000Y0220400D01*
X0248000Y0220400D02*
X0248000Y0225600D01*
X0238000Y0225600D02*
X0238000Y0220400D01*
X0228000Y0220400D02*
X0228000Y0225600D01*
X0218000Y0225600D02*
X0218000Y0220400D01*
X0208000Y0220400D02*
X0208000Y0225600D01*
X0198000Y0225600D02*
X0198000Y0220400D01*
X0188000Y0220400D02*
X0188000Y0225600D01*
D15*
X0188000Y0258000D03*
X0198000Y0258000D03*
X0228000Y0258000D03*
X0238000Y0258000D03*
X0248000Y0258000D03*
X0258000Y0258000D03*
X0268000Y0258000D03*
X0298000Y0258000D03*
X0308000Y0258000D03*
D16*
X0293000Y0065575D02*
X0293000Y0060425D01*
X0283000Y0060425D02*
X0283000Y0065575D01*
X0273000Y0065575D02*
X0273000Y0060425D01*
X0273000Y0045575D02*
X0273000Y0040425D01*
X0283000Y0040425D02*
X0283000Y0045575D01*
X0293000Y0045575D02*
X0293000Y0040425D01*
X0253000Y0040425D02*
X0253000Y0045575D01*
X0253000Y0060425D02*
X0253000Y0065575D01*
X0218000Y0065575D02*
X0218000Y0060425D01*
X0208000Y0060425D02*
X0208000Y0065575D01*
X0198000Y0065575D02*
X0198000Y0060425D01*
X0198000Y0045575D02*
X0198000Y0040425D01*
X0208000Y0040425D02*
X0208000Y0045575D01*
X0218000Y0045575D02*
X0218000Y0040425D01*
X0178000Y0040425D02*
X0178000Y0045575D01*
X0178000Y0060425D02*
X0178000Y0065575D01*
X0143000Y0065575D02*
X0143000Y0060425D01*
X0133000Y0060425D02*
X0133000Y0065575D01*
X0123000Y0065575D02*
X0123000Y0060425D01*
X0123000Y0045575D02*
X0123000Y0040425D01*
X0133000Y0040425D02*
X0133000Y0045575D01*
X0143000Y0045575D02*
X0143000Y0040425D01*
X0103000Y0040425D02*
X0103000Y0045575D01*
X0103000Y0060425D02*
X0103000Y0065575D01*
X0068000Y0065575D02*
X0068000Y0060425D01*
X0058000Y0060425D02*
X0058000Y0065575D01*
X0048000Y0065575D02*
X0048000Y0060425D01*
X0048000Y0045575D02*
X0048000Y0040425D01*
X0058000Y0040425D02*
X0058000Y0045575D01*
X0068000Y0045575D02*
X0068000Y0040425D01*
X0028000Y0040425D02*
X0028000Y0045575D01*
X0028000Y0060425D02*
X0028000Y0065575D01*
D17*
X0014654Y0018000D03*
X0021346Y0018000D03*
X0094654Y0018000D03*
X0101346Y0018000D03*
X0174654Y0018000D03*
X0181346Y0018000D03*
X0249654Y0018000D03*
X0256346Y0018000D03*
D18*
X0353000Y0045500D03*
X0353000Y0110500D03*
X0348000Y0175500D03*
X0348000Y0240500D03*
X0133000Y0198000D03*
X0038000Y0198000D03*
X0038000Y0128000D03*
X0133000Y0128000D03*
D19*
X0119496Y0114496D03*
X0146504Y0114496D03*
X0146504Y0141504D03*
X0119496Y0141504D03*
X0119496Y0184496D03*
X0146504Y0184496D03*
X0146504Y0211504D03*
X0119496Y0211504D03*
X0051504Y0211504D03*
X0024496Y0211504D03*
X0024496Y0184496D03*
X0051504Y0184496D03*
X0051504Y0141504D03*
X0024496Y0141504D03*
X0024496Y0114496D03*
X0051504Y0114496D03*
X0334496Y0161996D03*
X0361504Y0161996D03*
X0361504Y0189004D03*
X0334496Y0189004D03*
X0334496Y0226996D03*
X0361504Y0226996D03*
X0361504Y0254004D03*
X0334496Y0254004D03*
X0339496Y0124004D03*
X0366504Y0124004D03*
X0366504Y0096996D03*
X0339496Y0096996D03*
X0339496Y0059004D03*
X0366504Y0059004D03*
X0366504Y0031996D03*
X0339496Y0031996D03*
D20*
X0178000Y0243000D03*
D21*
X0168000Y0243000D03*
D22*
X0177126Y0174690D02*
X0177510Y0174730D01*
X0177891Y0174696D01*
X0178256Y0174578D01*
X0178585Y0174382D01*
X0178862Y0174118D01*
X0179073Y0173798D01*
X0179208Y0173440D01*
X0179260Y0173060D01*
X0179225Y0172660D01*
X0179102Y0172277D01*
X0178896Y0171931D01*
X0178619Y0171640D01*
X0178284Y0171418D01*
X0177908Y0171275D01*
X0177510Y0171220D01*
X0177117Y0171272D01*
X0176745Y0171409D01*
X0176413Y0171625D01*
X0176138Y0171910D01*
X0175932Y0172249D01*
X0175808Y0172626D01*
X0175770Y0173020D01*
X0175817Y0173404D01*
X0175947Y0173767D01*
X0176156Y0174092D01*
X0176431Y0174363D01*
X0176760Y0174566D01*
X0177126Y0174690D01*
X0176633Y0174488D02*
X0178408Y0174488D01*
X0178947Y0173989D02*
X0176090Y0173989D01*
X0175848Y0173491D02*
X0179189Y0173491D01*
X0179254Y0172992D02*
X0175773Y0172992D01*
X0175851Y0172494D02*
X0179171Y0172494D01*
X0178934Y0171995D02*
X0176086Y0171995D01*
X0176610Y0171497D02*
X0178403Y0171497D01*
X0186828Y0172626D02*
X0186790Y0173020D01*
X0186837Y0173404D01*
X0186967Y0173767D01*
X0187176Y0174092D01*
X0187451Y0174363D01*
X0187780Y0174566D01*
X0188146Y0174690D01*
X0188530Y0174730D01*
X0188911Y0174696D01*
X0189276Y0174578D01*
X0189605Y0174382D01*
X0189882Y0174118D01*
X0190093Y0173798D01*
X0190228Y0173440D01*
X0190280Y0173060D01*
X0190245Y0172660D01*
X0190122Y0172277D01*
X0189916Y0171931D01*
X0189639Y0171640D01*
X0189304Y0171418D01*
X0188928Y0171275D01*
X0188530Y0171220D01*
X0188137Y0171272D01*
X0187765Y0171409D01*
X0187433Y0171625D01*
X0187158Y0171910D01*
X0186952Y0172249D01*
X0186828Y0172626D01*
X0186871Y0172494D02*
X0190191Y0172494D01*
X0190274Y0172992D02*
X0186793Y0172992D01*
X0186868Y0173491D02*
X0190209Y0173491D01*
X0189967Y0173989D02*
X0187110Y0173989D01*
X0187653Y0174488D02*
X0189428Y0174488D01*
X0189954Y0171995D02*
X0187106Y0171995D01*
X0187630Y0171497D02*
X0189423Y0171497D01*
D23*
X0170500Y0160500D03*
X0213000Y0183000D03*
X0178000Y0203000D03*
X0123000Y0233000D03*
X0013000Y0233000D03*
X0078000Y0140500D03*
X0098000Y0140500D03*
X0113000Y0093000D03*
X0133000Y0073000D03*
X0153000Y0073000D03*
X0173000Y0075500D03*
X0168000Y0058000D03*
X0188000Y0053000D03*
X0188000Y0038000D03*
X0208000Y0073000D03*
X0240500Y0050500D03*
X0263000Y0038000D03*
X0283000Y0078000D03*
X0268000Y0148000D03*
X0268000Y0160500D03*
X0183000Y0118000D03*
X0088000Y0048000D03*
X0078000Y0058000D03*
X0068000Y0078000D03*
X0110500Y0043000D03*
X0028000Y0030500D03*
X0013000Y0048000D03*
X0013000Y0083000D03*
D24*
X0088000Y0198000D03*
D25*
X0168000Y0258000D03*
M02*
