G75*
%MOIN*%
%OFA0B0*%
%FSLAX25Y25*%
%IPPOS*%
%LPD*%
%AMOC8*
5,1,8,0,0,1.08239X$1,22.5*
%
%ADD10C,0.09461*%
%ADD11R,0.06312X0.05524*%
%ADD12R,0.03280X0.04068*%
%ADD13C,0.06000*%
%ADD14C,0.08200*%
%ADD15C,0.05950*%
%ADD16R,0.05131X0.04737*%
%ADD17C,0.08477*%
%ADD18C,0.14406*%
%ADD19C,0.07300*%
%ADD20R,0.07300X0.07300*%
%ADD21R,0.06706X0.06706*%
D10*
X0018000Y0018000D03*
X0018000Y0263000D03*
X0383000Y0263000D03*
X0383000Y0018000D03*
D11*
X0283000Y0204594D03*
X0283000Y0216406D03*
X0208000Y0216406D03*
X0208000Y0204594D03*
X0133000Y0204594D03*
X0133000Y0216406D03*
X0058000Y0216406D03*
X0058000Y0204594D03*
D12*
X0073472Y0193000D03*
X0082528Y0193000D03*
X0148472Y0193000D03*
X0157528Y0193000D03*
X0223472Y0193000D03*
X0232528Y0193000D03*
X0298472Y0193000D03*
X0307528Y0193000D03*
D13*
X0337900Y0195500D02*
X0343100Y0195500D01*
X0343100Y0185500D02*
X0337900Y0185500D01*
X0337900Y0175500D02*
X0343100Y0175500D01*
X0343100Y0165500D02*
X0337900Y0165500D01*
X0337900Y0155500D02*
X0343100Y0155500D01*
X0367900Y0155500D02*
X0373100Y0155500D01*
X0373100Y0165500D02*
X0367900Y0165500D01*
X0367900Y0175500D02*
X0373100Y0175500D01*
X0373100Y0185500D02*
X0367900Y0185500D01*
X0367900Y0195500D02*
X0373100Y0195500D01*
X0373100Y0205500D02*
X0367900Y0205500D01*
X0367900Y0215500D02*
X0373100Y0215500D01*
X0373100Y0225500D02*
X0367900Y0225500D01*
X0367900Y0235500D02*
X0373100Y0235500D01*
X0343100Y0235500D02*
X0337900Y0235500D01*
X0337900Y0225500D02*
X0343100Y0225500D01*
X0343100Y0215500D02*
X0337900Y0215500D01*
X0337900Y0205500D02*
X0343100Y0205500D01*
D14*
X0385500Y0195500D03*
X0385500Y0185500D03*
X0385500Y0175500D03*
X0385500Y0165500D03*
X0385500Y0155500D03*
X0385500Y0235500D03*
X0385500Y0245500D03*
X0178000Y0093000D03*
X0168000Y0093000D03*
D15*
X0153000Y0160425D02*
X0153000Y0165575D01*
X0133000Y0165575D02*
X0133000Y0160425D01*
X0123000Y0160425D02*
X0123000Y0165575D01*
X0113000Y0165575D02*
X0113000Y0160425D01*
X0113000Y0180425D02*
X0113000Y0185575D01*
X0123000Y0185575D02*
X0123000Y0180425D01*
X0133000Y0180425D02*
X0133000Y0185575D01*
X0153000Y0185575D02*
X0153000Y0180425D01*
X0188000Y0180425D02*
X0188000Y0185575D01*
X0198000Y0185575D02*
X0198000Y0180425D01*
X0208000Y0180425D02*
X0208000Y0185575D01*
X0228000Y0185575D02*
X0228000Y0180425D01*
X0228000Y0165575D02*
X0228000Y0160425D01*
X0208000Y0160425D02*
X0208000Y0165575D01*
X0198000Y0165575D02*
X0198000Y0160425D01*
X0188000Y0160425D02*
X0188000Y0165575D01*
X0263000Y0165575D02*
X0263000Y0160425D01*
X0273000Y0160425D02*
X0273000Y0165575D01*
X0283000Y0165575D02*
X0283000Y0160425D01*
X0303000Y0160425D02*
X0303000Y0165575D01*
X0303000Y0180425D02*
X0303000Y0185575D01*
X0283000Y0185575D02*
X0283000Y0180425D01*
X0273000Y0180425D02*
X0273000Y0185575D01*
X0263000Y0185575D02*
X0263000Y0180425D01*
X0078000Y0180425D02*
X0078000Y0185575D01*
X0058000Y0185575D02*
X0058000Y0180425D01*
X0048000Y0180425D02*
X0048000Y0185575D01*
X0038000Y0185575D02*
X0038000Y0180425D01*
X0038000Y0165575D02*
X0038000Y0160425D01*
X0048000Y0160425D02*
X0048000Y0165575D01*
X0058000Y0165575D02*
X0058000Y0160425D01*
X0078000Y0160425D02*
X0078000Y0165575D01*
D16*
X0074654Y0203000D03*
X0081346Y0203000D03*
X0149654Y0203000D03*
X0156346Y0203000D03*
X0224654Y0203000D03*
X0231346Y0203000D03*
X0299654Y0203000D03*
X0306346Y0203000D03*
X0319654Y0235500D03*
X0326346Y0235500D03*
D17*
X0303000Y0100500D03*
X0228000Y0100500D03*
X0228000Y0035500D03*
X0308000Y0035500D03*
X0113000Y0043000D03*
X0048000Y0043000D03*
X0048000Y0108000D03*
X0113000Y0108000D03*
D18*
X0099496Y0094496D03*
X0126504Y0094496D03*
X0126504Y0121504D03*
X0099496Y0121504D03*
X0061504Y0121504D03*
X0034496Y0121504D03*
X0034496Y0094496D03*
X0061504Y0094496D03*
X0061504Y0056504D03*
X0034496Y0056504D03*
X0034496Y0029496D03*
X0061504Y0029496D03*
X0099496Y0029496D03*
X0126504Y0029496D03*
X0126504Y0056504D03*
X0099496Y0056504D03*
X0214496Y0049004D03*
X0241504Y0049004D03*
X0241504Y0021996D03*
X0214496Y0021996D03*
X0294496Y0021996D03*
X0321504Y0021996D03*
X0321504Y0049004D03*
X0294496Y0049004D03*
X0289496Y0086996D03*
X0316504Y0086996D03*
X0316504Y0114004D03*
X0289496Y0114004D03*
X0241504Y0114004D03*
X0214496Y0114004D03*
X0214496Y0086996D03*
X0241504Y0086996D03*
D19*
X0305500Y0253000D03*
D20*
X0295500Y0253000D03*
D21*
X0313000Y0253000D03*
X0333000Y0235500D03*
X0368000Y0253000D03*
X0293000Y0183000D03*
X0313000Y0163000D03*
X0273000Y0143000D03*
X0253000Y0143000D03*
X0238000Y0163000D03*
X0253000Y0183000D03*
X0237764Y0210264D03*
X0218000Y0183000D03*
X0198000Y0148000D03*
X0188000Y0133000D03*
X0168000Y0153000D03*
X0163000Y0163000D03*
X0143000Y0183000D03*
X0162764Y0187764D03*
X0098000Y0153000D03*
X0088000Y0163000D03*
X0068000Y0183000D03*
X0088000Y0187528D03*
X0168000Y0108000D03*
X0078000Y0075500D03*
X0265500Y0055500D03*
X0325500Y0070500D03*
M02*
