G75*
%MOIN*%
%OFA0B0*%
%FSLAX25Y25*%
%IPPOS*%
%LPD*%
%AMOC8*
5,1,8,0,0,1.08239X$1,22.5*
%
%ADD10C,0.00000*%
D10*
X0003000Y0003000D02*
X0003000Y0277961D01*
X0396701Y0277961D01*
X0396701Y0003000D01*
X0003000Y0003000D01*
X0063669Y0023000D02*
X0063671Y0023131D01*
X0063677Y0023263D01*
X0063687Y0023394D01*
X0063701Y0023525D01*
X0063719Y0023655D01*
X0063741Y0023784D01*
X0063766Y0023913D01*
X0063796Y0024041D01*
X0063830Y0024168D01*
X0063867Y0024295D01*
X0063908Y0024419D01*
X0063953Y0024543D01*
X0064002Y0024665D01*
X0064054Y0024786D01*
X0064110Y0024904D01*
X0064170Y0025022D01*
X0064233Y0025137D01*
X0064300Y0025250D01*
X0064370Y0025362D01*
X0064443Y0025471D01*
X0064519Y0025577D01*
X0064599Y0025682D01*
X0064682Y0025784D01*
X0064768Y0025883D01*
X0064857Y0025980D01*
X0064949Y0026074D01*
X0065044Y0026165D01*
X0065141Y0026254D01*
X0065241Y0026339D01*
X0065344Y0026421D01*
X0065449Y0026500D01*
X0065556Y0026576D01*
X0065666Y0026648D01*
X0065778Y0026717D01*
X0065892Y0026783D01*
X0066007Y0026845D01*
X0066125Y0026904D01*
X0066244Y0026959D01*
X0066365Y0027011D01*
X0066488Y0027058D01*
X0066612Y0027102D01*
X0066737Y0027143D01*
X0066863Y0027179D01*
X0066991Y0027212D01*
X0067119Y0027240D01*
X0067248Y0027265D01*
X0067378Y0027286D01*
X0067508Y0027303D01*
X0067639Y0027316D01*
X0067770Y0027325D01*
X0067901Y0027330D01*
X0068033Y0027331D01*
X0068164Y0027328D01*
X0068296Y0027321D01*
X0068427Y0027310D01*
X0068557Y0027295D01*
X0068687Y0027276D01*
X0068817Y0027253D01*
X0068945Y0027227D01*
X0069073Y0027196D01*
X0069200Y0027161D01*
X0069326Y0027123D01*
X0069450Y0027081D01*
X0069574Y0027035D01*
X0069695Y0026985D01*
X0069815Y0026932D01*
X0069934Y0026875D01*
X0070051Y0026815D01*
X0070165Y0026751D01*
X0070278Y0026683D01*
X0070389Y0026612D01*
X0070498Y0026538D01*
X0070604Y0026461D01*
X0070708Y0026380D01*
X0070809Y0026297D01*
X0070908Y0026210D01*
X0071004Y0026120D01*
X0071097Y0026027D01*
X0071188Y0025932D01*
X0071275Y0025834D01*
X0071360Y0025733D01*
X0071441Y0025630D01*
X0071519Y0025524D01*
X0071594Y0025416D01*
X0071666Y0025306D01*
X0071734Y0025194D01*
X0071799Y0025080D01*
X0071860Y0024963D01*
X0071918Y0024845D01*
X0071972Y0024725D01*
X0072023Y0024604D01*
X0072070Y0024481D01*
X0072113Y0024357D01*
X0072152Y0024232D01*
X0072188Y0024105D01*
X0072219Y0023977D01*
X0072247Y0023849D01*
X0072271Y0023720D01*
X0072291Y0023590D01*
X0072307Y0023459D01*
X0072319Y0023328D01*
X0072327Y0023197D01*
X0072331Y0023066D01*
X0072331Y0022934D01*
X0072327Y0022803D01*
X0072319Y0022672D01*
X0072307Y0022541D01*
X0072291Y0022410D01*
X0072271Y0022280D01*
X0072247Y0022151D01*
X0072219Y0022023D01*
X0072188Y0021895D01*
X0072152Y0021768D01*
X0072113Y0021643D01*
X0072070Y0021519D01*
X0072023Y0021396D01*
X0071972Y0021275D01*
X0071918Y0021155D01*
X0071860Y0021037D01*
X0071799Y0020920D01*
X0071734Y0020806D01*
X0071666Y0020694D01*
X0071594Y0020584D01*
X0071519Y0020476D01*
X0071441Y0020370D01*
X0071360Y0020267D01*
X0071275Y0020166D01*
X0071188Y0020068D01*
X0071097Y0019973D01*
X0071004Y0019880D01*
X0070908Y0019790D01*
X0070809Y0019703D01*
X0070708Y0019620D01*
X0070604Y0019539D01*
X0070498Y0019462D01*
X0070389Y0019388D01*
X0070278Y0019317D01*
X0070166Y0019249D01*
X0070051Y0019185D01*
X0069934Y0019125D01*
X0069815Y0019068D01*
X0069695Y0019015D01*
X0069574Y0018965D01*
X0069450Y0018919D01*
X0069326Y0018877D01*
X0069200Y0018839D01*
X0069073Y0018804D01*
X0068945Y0018773D01*
X0068817Y0018747D01*
X0068687Y0018724D01*
X0068557Y0018705D01*
X0068427Y0018690D01*
X0068296Y0018679D01*
X0068164Y0018672D01*
X0068033Y0018669D01*
X0067901Y0018670D01*
X0067770Y0018675D01*
X0067639Y0018684D01*
X0067508Y0018697D01*
X0067378Y0018714D01*
X0067248Y0018735D01*
X0067119Y0018760D01*
X0066991Y0018788D01*
X0066863Y0018821D01*
X0066737Y0018857D01*
X0066612Y0018898D01*
X0066488Y0018942D01*
X0066365Y0018989D01*
X0066244Y0019041D01*
X0066125Y0019096D01*
X0066007Y0019155D01*
X0065892Y0019217D01*
X0065778Y0019283D01*
X0065666Y0019352D01*
X0065556Y0019424D01*
X0065449Y0019500D01*
X0065344Y0019579D01*
X0065241Y0019661D01*
X0065141Y0019746D01*
X0065044Y0019835D01*
X0064949Y0019926D01*
X0064857Y0020020D01*
X0064768Y0020117D01*
X0064682Y0020216D01*
X0064599Y0020318D01*
X0064519Y0020423D01*
X0064443Y0020529D01*
X0064370Y0020638D01*
X0064300Y0020750D01*
X0064233Y0020863D01*
X0064170Y0020978D01*
X0064110Y0021096D01*
X0064054Y0021214D01*
X0064002Y0021335D01*
X0063953Y0021457D01*
X0063908Y0021581D01*
X0063867Y0021705D01*
X0063830Y0021832D01*
X0063796Y0021959D01*
X0063766Y0022087D01*
X0063741Y0022216D01*
X0063719Y0022345D01*
X0063701Y0022475D01*
X0063687Y0022606D01*
X0063677Y0022737D01*
X0063671Y0022869D01*
X0063669Y0023000D01*
X0378669Y0018000D02*
X0378671Y0018131D01*
X0378677Y0018263D01*
X0378687Y0018394D01*
X0378701Y0018525D01*
X0378719Y0018655D01*
X0378741Y0018784D01*
X0378766Y0018913D01*
X0378796Y0019041D01*
X0378830Y0019168D01*
X0378867Y0019295D01*
X0378908Y0019419D01*
X0378953Y0019543D01*
X0379002Y0019665D01*
X0379054Y0019786D01*
X0379110Y0019904D01*
X0379170Y0020022D01*
X0379233Y0020137D01*
X0379300Y0020250D01*
X0379370Y0020362D01*
X0379443Y0020471D01*
X0379519Y0020577D01*
X0379599Y0020682D01*
X0379682Y0020784D01*
X0379768Y0020883D01*
X0379857Y0020980D01*
X0379949Y0021074D01*
X0380044Y0021165D01*
X0380141Y0021254D01*
X0380241Y0021339D01*
X0380344Y0021421D01*
X0380449Y0021500D01*
X0380556Y0021576D01*
X0380666Y0021648D01*
X0380778Y0021717D01*
X0380892Y0021783D01*
X0381007Y0021845D01*
X0381125Y0021904D01*
X0381244Y0021959D01*
X0381365Y0022011D01*
X0381488Y0022058D01*
X0381612Y0022102D01*
X0381737Y0022143D01*
X0381863Y0022179D01*
X0381991Y0022212D01*
X0382119Y0022240D01*
X0382248Y0022265D01*
X0382378Y0022286D01*
X0382508Y0022303D01*
X0382639Y0022316D01*
X0382770Y0022325D01*
X0382901Y0022330D01*
X0383033Y0022331D01*
X0383164Y0022328D01*
X0383296Y0022321D01*
X0383427Y0022310D01*
X0383557Y0022295D01*
X0383687Y0022276D01*
X0383817Y0022253D01*
X0383945Y0022227D01*
X0384073Y0022196D01*
X0384200Y0022161D01*
X0384326Y0022123D01*
X0384450Y0022081D01*
X0384574Y0022035D01*
X0384695Y0021985D01*
X0384815Y0021932D01*
X0384934Y0021875D01*
X0385051Y0021815D01*
X0385165Y0021751D01*
X0385278Y0021683D01*
X0385389Y0021612D01*
X0385498Y0021538D01*
X0385604Y0021461D01*
X0385708Y0021380D01*
X0385809Y0021297D01*
X0385908Y0021210D01*
X0386004Y0021120D01*
X0386097Y0021027D01*
X0386188Y0020932D01*
X0386275Y0020834D01*
X0386360Y0020733D01*
X0386441Y0020630D01*
X0386519Y0020524D01*
X0386594Y0020416D01*
X0386666Y0020306D01*
X0386734Y0020194D01*
X0386799Y0020080D01*
X0386860Y0019963D01*
X0386918Y0019845D01*
X0386972Y0019725D01*
X0387023Y0019604D01*
X0387070Y0019481D01*
X0387113Y0019357D01*
X0387152Y0019232D01*
X0387188Y0019105D01*
X0387219Y0018977D01*
X0387247Y0018849D01*
X0387271Y0018720D01*
X0387291Y0018590D01*
X0387307Y0018459D01*
X0387319Y0018328D01*
X0387327Y0018197D01*
X0387331Y0018066D01*
X0387331Y0017934D01*
X0387327Y0017803D01*
X0387319Y0017672D01*
X0387307Y0017541D01*
X0387291Y0017410D01*
X0387271Y0017280D01*
X0387247Y0017151D01*
X0387219Y0017023D01*
X0387188Y0016895D01*
X0387152Y0016768D01*
X0387113Y0016643D01*
X0387070Y0016519D01*
X0387023Y0016396D01*
X0386972Y0016275D01*
X0386918Y0016155D01*
X0386860Y0016037D01*
X0386799Y0015920D01*
X0386734Y0015806D01*
X0386666Y0015694D01*
X0386594Y0015584D01*
X0386519Y0015476D01*
X0386441Y0015370D01*
X0386360Y0015267D01*
X0386275Y0015166D01*
X0386188Y0015068D01*
X0386097Y0014973D01*
X0386004Y0014880D01*
X0385908Y0014790D01*
X0385809Y0014703D01*
X0385708Y0014620D01*
X0385604Y0014539D01*
X0385498Y0014462D01*
X0385389Y0014388D01*
X0385278Y0014317D01*
X0385166Y0014249D01*
X0385051Y0014185D01*
X0384934Y0014125D01*
X0384815Y0014068D01*
X0384695Y0014015D01*
X0384574Y0013965D01*
X0384450Y0013919D01*
X0384326Y0013877D01*
X0384200Y0013839D01*
X0384073Y0013804D01*
X0383945Y0013773D01*
X0383817Y0013747D01*
X0383687Y0013724D01*
X0383557Y0013705D01*
X0383427Y0013690D01*
X0383296Y0013679D01*
X0383164Y0013672D01*
X0383033Y0013669D01*
X0382901Y0013670D01*
X0382770Y0013675D01*
X0382639Y0013684D01*
X0382508Y0013697D01*
X0382378Y0013714D01*
X0382248Y0013735D01*
X0382119Y0013760D01*
X0381991Y0013788D01*
X0381863Y0013821D01*
X0381737Y0013857D01*
X0381612Y0013898D01*
X0381488Y0013942D01*
X0381365Y0013989D01*
X0381244Y0014041D01*
X0381125Y0014096D01*
X0381007Y0014155D01*
X0380892Y0014217D01*
X0380778Y0014283D01*
X0380666Y0014352D01*
X0380556Y0014424D01*
X0380449Y0014500D01*
X0380344Y0014579D01*
X0380241Y0014661D01*
X0380141Y0014746D01*
X0380044Y0014835D01*
X0379949Y0014926D01*
X0379857Y0015020D01*
X0379768Y0015117D01*
X0379682Y0015216D01*
X0379599Y0015318D01*
X0379519Y0015423D01*
X0379443Y0015529D01*
X0379370Y0015638D01*
X0379300Y0015750D01*
X0379233Y0015863D01*
X0379170Y0015978D01*
X0379110Y0016096D01*
X0379054Y0016214D01*
X0379002Y0016335D01*
X0378953Y0016457D01*
X0378908Y0016581D01*
X0378867Y0016705D01*
X0378830Y0016832D01*
X0378796Y0016959D01*
X0378766Y0017087D01*
X0378741Y0017216D01*
X0378719Y0017345D01*
X0378701Y0017475D01*
X0378687Y0017606D01*
X0378677Y0017737D01*
X0378671Y0017869D01*
X0378669Y0018000D01*
X0378669Y0263000D02*
X0378671Y0263131D01*
X0378677Y0263263D01*
X0378687Y0263394D01*
X0378701Y0263525D01*
X0378719Y0263655D01*
X0378741Y0263784D01*
X0378766Y0263913D01*
X0378796Y0264041D01*
X0378830Y0264168D01*
X0378867Y0264295D01*
X0378908Y0264419D01*
X0378953Y0264543D01*
X0379002Y0264665D01*
X0379054Y0264786D01*
X0379110Y0264904D01*
X0379170Y0265022D01*
X0379233Y0265137D01*
X0379300Y0265250D01*
X0379370Y0265362D01*
X0379443Y0265471D01*
X0379519Y0265577D01*
X0379599Y0265682D01*
X0379682Y0265784D01*
X0379768Y0265883D01*
X0379857Y0265980D01*
X0379949Y0266074D01*
X0380044Y0266165D01*
X0380141Y0266254D01*
X0380241Y0266339D01*
X0380344Y0266421D01*
X0380449Y0266500D01*
X0380556Y0266576D01*
X0380666Y0266648D01*
X0380778Y0266717D01*
X0380892Y0266783D01*
X0381007Y0266845D01*
X0381125Y0266904D01*
X0381244Y0266959D01*
X0381365Y0267011D01*
X0381488Y0267058D01*
X0381612Y0267102D01*
X0381737Y0267143D01*
X0381863Y0267179D01*
X0381991Y0267212D01*
X0382119Y0267240D01*
X0382248Y0267265D01*
X0382378Y0267286D01*
X0382508Y0267303D01*
X0382639Y0267316D01*
X0382770Y0267325D01*
X0382901Y0267330D01*
X0383033Y0267331D01*
X0383164Y0267328D01*
X0383296Y0267321D01*
X0383427Y0267310D01*
X0383557Y0267295D01*
X0383687Y0267276D01*
X0383817Y0267253D01*
X0383945Y0267227D01*
X0384073Y0267196D01*
X0384200Y0267161D01*
X0384326Y0267123D01*
X0384450Y0267081D01*
X0384574Y0267035D01*
X0384695Y0266985D01*
X0384815Y0266932D01*
X0384934Y0266875D01*
X0385051Y0266815D01*
X0385165Y0266751D01*
X0385278Y0266683D01*
X0385389Y0266612D01*
X0385498Y0266538D01*
X0385604Y0266461D01*
X0385708Y0266380D01*
X0385809Y0266297D01*
X0385908Y0266210D01*
X0386004Y0266120D01*
X0386097Y0266027D01*
X0386188Y0265932D01*
X0386275Y0265834D01*
X0386360Y0265733D01*
X0386441Y0265630D01*
X0386519Y0265524D01*
X0386594Y0265416D01*
X0386666Y0265306D01*
X0386734Y0265194D01*
X0386799Y0265080D01*
X0386860Y0264963D01*
X0386918Y0264845D01*
X0386972Y0264725D01*
X0387023Y0264604D01*
X0387070Y0264481D01*
X0387113Y0264357D01*
X0387152Y0264232D01*
X0387188Y0264105D01*
X0387219Y0263977D01*
X0387247Y0263849D01*
X0387271Y0263720D01*
X0387291Y0263590D01*
X0387307Y0263459D01*
X0387319Y0263328D01*
X0387327Y0263197D01*
X0387331Y0263066D01*
X0387331Y0262934D01*
X0387327Y0262803D01*
X0387319Y0262672D01*
X0387307Y0262541D01*
X0387291Y0262410D01*
X0387271Y0262280D01*
X0387247Y0262151D01*
X0387219Y0262023D01*
X0387188Y0261895D01*
X0387152Y0261768D01*
X0387113Y0261643D01*
X0387070Y0261519D01*
X0387023Y0261396D01*
X0386972Y0261275D01*
X0386918Y0261155D01*
X0386860Y0261037D01*
X0386799Y0260920D01*
X0386734Y0260806D01*
X0386666Y0260694D01*
X0386594Y0260584D01*
X0386519Y0260476D01*
X0386441Y0260370D01*
X0386360Y0260267D01*
X0386275Y0260166D01*
X0386188Y0260068D01*
X0386097Y0259973D01*
X0386004Y0259880D01*
X0385908Y0259790D01*
X0385809Y0259703D01*
X0385708Y0259620D01*
X0385604Y0259539D01*
X0385498Y0259462D01*
X0385389Y0259388D01*
X0385278Y0259317D01*
X0385166Y0259249D01*
X0385051Y0259185D01*
X0384934Y0259125D01*
X0384815Y0259068D01*
X0384695Y0259015D01*
X0384574Y0258965D01*
X0384450Y0258919D01*
X0384326Y0258877D01*
X0384200Y0258839D01*
X0384073Y0258804D01*
X0383945Y0258773D01*
X0383817Y0258747D01*
X0383687Y0258724D01*
X0383557Y0258705D01*
X0383427Y0258690D01*
X0383296Y0258679D01*
X0383164Y0258672D01*
X0383033Y0258669D01*
X0382901Y0258670D01*
X0382770Y0258675D01*
X0382639Y0258684D01*
X0382508Y0258697D01*
X0382378Y0258714D01*
X0382248Y0258735D01*
X0382119Y0258760D01*
X0381991Y0258788D01*
X0381863Y0258821D01*
X0381737Y0258857D01*
X0381612Y0258898D01*
X0381488Y0258942D01*
X0381365Y0258989D01*
X0381244Y0259041D01*
X0381125Y0259096D01*
X0381007Y0259155D01*
X0380892Y0259217D01*
X0380778Y0259283D01*
X0380666Y0259352D01*
X0380556Y0259424D01*
X0380449Y0259500D01*
X0380344Y0259579D01*
X0380241Y0259661D01*
X0380141Y0259746D01*
X0380044Y0259835D01*
X0379949Y0259926D01*
X0379857Y0260020D01*
X0379768Y0260117D01*
X0379682Y0260216D01*
X0379599Y0260318D01*
X0379519Y0260423D01*
X0379443Y0260529D01*
X0379370Y0260638D01*
X0379300Y0260750D01*
X0379233Y0260863D01*
X0379170Y0260978D01*
X0379110Y0261096D01*
X0379054Y0261214D01*
X0379002Y0261335D01*
X0378953Y0261457D01*
X0378908Y0261581D01*
X0378867Y0261705D01*
X0378830Y0261832D01*
X0378796Y0261959D01*
X0378766Y0262087D01*
X0378741Y0262216D01*
X0378719Y0262345D01*
X0378701Y0262475D01*
X0378687Y0262606D01*
X0378677Y0262737D01*
X0378671Y0262869D01*
X0378669Y0263000D01*
X0013669Y0263000D02*
X0013671Y0263131D01*
X0013677Y0263263D01*
X0013687Y0263394D01*
X0013701Y0263525D01*
X0013719Y0263655D01*
X0013741Y0263784D01*
X0013766Y0263913D01*
X0013796Y0264041D01*
X0013830Y0264168D01*
X0013867Y0264295D01*
X0013908Y0264419D01*
X0013953Y0264543D01*
X0014002Y0264665D01*
X0014054Y0264786D01*
X0014110Y0264904D01*
X0014170Y0265022D01*
X0014233Y0265137D01*
X0014300Y0265250D01*
X0014370Y0265362D01*
X0014443Y0265471D01*
X0014519Y0265577D01*
X0014599Y0265682D01*
X0014682Y0265784D01*
X0014768Y0265883D01*
X0014857Y0265980D01*
X0014949Y0266074D01*
X0015044Y0266165D01*
X0015141Y0266254D01*
X0015241Y0266339D01*
X0015344Y0266421D01*
X0015449Y0266500D01*
X0015556Y0266576D01*
X0015666Y0266648D01*
X0015778Y0266717D01*
X0015892Y0266783D01*
X0016007Y0266845D01*
X0016125Y0266904D01*
X0016244Y0266959D01*
X0016365Y0267011D01*
X0016488Y0267058D01*
X0016612Y0267102D01*
X0016737Y0267143D01*
X0016863Y0267179D01*
X0016991Y0267212D01*
X0017119Y0267240D01*
X0017248Y0267265D01*
X0017378Y0267286D01*
X0017508Y0267303D01*
X0017639Y0267316D01*
X0017770Y0267325D01*
X0017901Y0267330D01*
X0018033Y0267331D01*
X0018164Y0267328D01*
X0018296Y0267321D01*
X0018427Y0267310D01*
X0018557Y0267295D01*
X0018687Y0267276D01*
X0018817Y0267253D01*
X0018945Y0267227D01*
X0019073Y0267196D01*
X0019200Y0267161D01*
X0019326Y0267123D01*
X0019450Y0267081D01*
X0019574Y0267035D01*
X0019695Y0266985D01*
X0019815Y0266932D01*
X0019934Y0266875D01*
X0020051Y0266815D01*
X0020165Y0266751D01*
X0020278Y0266683D01*
X0020389Y0266612D01*
X0020498Y0266538D01*
X0020604Y0266461D01*
X0020708Y0266380D01*
X0020809Y0266297D01*
X0020908Y0266210D01*
X0021004Y0266120D01*
X0021097Y0266027D01*
X0021188Y0265932D01*
X0021275Y0265834D01*
X0021360Y0265733D01*
X0021441Y0265630D01*
X0021519Y0265524D01*
X0021594Y0265416D01*
X0021666Y0265306D01*
X0021734Y0265194D01*
X0021799Y0265080D01*
X0021860Y0264963D01*
X0021918Y0264845D01*
X0021972Y0264725D01*
X0022023Y0264604D01*
X0022070Y0264481D01*
X0022113Y0264357D01*
X0022152Y0264232D01*
X0022188Y0264105D01*
X0022219Y0263977D01*
X0022247Y0263849D01*
X0022271Y0263720D01*
X0022291Y0263590D01*
X0022307Y0263459D01*
X0022319Y0263328D01*
X0022327Y0263197D01*
X0022331Y0263066D01*
X0022331Y0262934D01*
X0022327Y0262803D01*
X0022319Y0262672D01*
X0022307Y0262541D01*
X0022291Y0262410D01*
X0022271Y0262280D01*
X0022247Y0262151D01*
X0022219Y0262023D01*
X0022188Y0261895D01*
X0022152Y0261768D01*
X0022113Y0261643D01*
X0022070Y0261519D01*
X0022023Y0261396D01*
X0021972Y0261275D01*
X0021918Y0261155D01*
X0021860Y0261037D01*
X0021799Y0260920D01*
X0021734Y0260806D01*
X0021666Y0260694D01*
X0021594Y0260584D01*
X0021519Y0260476D01*
X0021441Y0260370D01*
X0021360Y0260267D01*
X0021275Y0260166D01*
X0021188Y0260068D01*
X0021097Y0259973D01*
X0021004Y0259880D01*
X0020908Y0259790D01*
X0020809Y0259703D01*
X0020708Y0259620D01*
X0020604Y0259539D01*
X0020498Y0259462D01*
X0020389Y0259388D01*
X0020278Y0259317D01*
X0020166Y0259249D01*
X0020051Y0259185D01*
X0019934Y0259125D01*
X0019815Y0259068D01*
X0019695Y0259015D01*
X0019574Y0258965D01*
X0019450Y0258919D01*
X0019326Y0258877D01*
X0019200Y0258839D01*
X0019073Y0258804D01*
X0018945Y0258773D01*
X0018817Y0258747D01*
X0018687Y0258724D01*
X0018557Y0258705D01*
X0018427Y0258690D01*
X0018296Y0258679D01*
X0018164Y0258672D01*
X0018033Y0258669D01*
X0017901Y0258670D01*
X0017770Y0258675D01*
X0017639Y0258684D01*
X0017508Y0258697D01*
X0017378Y0258714D01*
X0017248Y0258735D01*
X0017119Y0258760D01*
X0016991Y0258788D01*
X0016863Y0258821D01*
X0016737Y0258857D01*
X0016612Y0258898D01*
X0016488Y0258942D01*
X0016365Y0258989D01*
X0016244Y0259041D01*
X0016125Y0259096D01*
X0016007Y0259155D01*
X0015892Y0259217D01*
X0015778Y0259283D01*
X0015666Y0259352D01*
X0015556Y0259424D01*
X0015449Y0259500D01*
X0015344Y0259579D01*
X0015241Y0259661D01*
X0015141Y0259746D01*
X0015044Y0259835D01*
X0014949Y0259926D01*
X0014857Y0260020D01*
X0014768Y0260117D01*
X0014682Y0260216D01*
X0014599Y0260318D01*
X0014519Y0260423D01*
X0014443Y0260529D01*
X0014370Y0260638D01*
X0014300Y0260750D01*
X0014233Y0260863D01*
X0014170Y0260978D01*
X0014110Y0261096D01*
X0014054Y0261214D01*
X0014002Y0261335D01*
X0013953Y0261457D01*
X0013908Y0261581D01*
X0013867Y0261705D01*
X0013830Y0261832D01*
X0013796Y0261959D01*
X0013766Y0262087D01*
X0013741Y0262216D01*
X0013719Y0262345D01*
X0013701Y0262475D01*
X0013687Y0262606D01*
X0013677Y0262737D01*
X0013671Y0262869D01*
X0013669Y0263000D01*
M02*
