G75*
%MOIN*%
%OFA0B0*%
%FSLAX25Y25*%
%IPPOS*%
%LPD*%
%AMOC8*
5,1,8,0,0,1.08239X$1,22.5*
%
%ADD10C,0.09461*%
%ADD11C,0.06000*%
%ADD12C,0.08200*%
%ADD13C,0.05950*%
%ADD14C,0.08477*%
%ADD15C,0.14406*%
%ADD16C,0.07300*%
%ADD17R,0.07300X0.07300*%
%ADD18C,0.00500*%
%ADD19R,0.06706X0.06706*%
%ADD20R,0.06115X0.06115*%
%ADD21C,0.07296*%
D10*
X0068000Y0023000D03*
X0383000Y0018000D03*
X0383000Y0263000D03*
X0018000Y0263000D03*
D11*
X0188000Y0225600D02*
X0188000Y0220400D01*
X0198000Y0220400D02*
X0198000Y0225600D01*
X0208000Y0225600D02*
X0208000Y0220400D01*
X0218000Y0220400D02*
X0218000Y0225600D01*
X0228000Y0225600D02*
X0228000Y0220400D01*
X0238000Y0220400D02*
X0238000Y0225600D01*
X0248000Y0225600D02*
X0248000Y0220400D01*
X0258000Y0220400D02*
X0258000Y0225600D01*
X0268000Y0225600D02*
X0268000Y0220400D01*
X0268000Y0195600D02*
X0268000Y0190400D01*
X0258000Y0190400D02*
X0258000Y0195600D01*
X0248000Y0195600D02*
X0248000Y0190400D01*
X0238000Y0190400D02*
X0238000Y0195600D01*
X0228000Y0195600D02*
X0228000Y0190400D01*
X0218000Y0190400D02*
X0218000Y0195600D01*
X0208000Y0195600D02*
X0208000Y0190400D01*
X0198000Y0190400D02*
X0198000Y0195600D01*
X0188000Y0195600D02*
X0188000Y0190400D01*
D12*
X0188000Y0258000D03*
X0198000Y0258000D03*
X0228000Y0258000D03*
X0238000Y0258000D03*
X0248000Y0258000D03*
X0258000Y0258000D03*
X0268000Y0258000D03*
X0298000Y0258000D03*
X0308000Y0258000D03*
D13*
X0293000Y0065575D02*
X0293000Y0060425D01*
X0283000Y0060425D02*
X0283000Y0065575D01*
X0273000Y0065575D02*
X0273000Y0060425D01*
X0273000Y0045575D02*
X0273000Y0040425D01*
X0283000Y0040425D02*
X0283000Y0045575D01*
X0293000Y0045575D02*
X0293000Y0040425D01*
X0253000Y0040425D02*
X0253000Y0045575D01*
X0253000Y0060425D02*
X0253000Y0065575D01*
X0218000Y0065575D02*
X0218000Y0060425D01*
X0208000Y0060425D02*
X0208000Y0065575D01*
X0198000Y0065575D02*
X0198000Y0060425D01*
X0198000Y0045575D02*
X0198000Y0040425D01*
X0208000Y0040425D02*
X0208000Y0045575D01*
X0218000Y0045575D02*
X0218000Y0040425D01*
X0178000Y0040425D02*
X0178000Y0045575D01*
X0178000Y0060425D02*
X0178000Y0065575D01*
X0143000Y0065575D02*
X0143000Y0060425D01*
X0133000Y0060425D02*
X0133000Y0065575D01*
X0123000Y0065575D02*
X0123000Y0060425D01*
X0123000Y0045575D02*
X0123000Y0040425D01*
X0133000Y0040425D02*
X0133000Y0045575D01*
X0143000Y0045575D02*
X0143000Y0040425D01*
X0103000Y0040425D02*
X0103000Y0045575D01*
X0103000Y0060425D02*
X0103000Y0065575D01*
X0068000Y0065575D02*
X0068000Y0060425D01*
X0058000Y0060425D02*
X0058000Y0065575D01*
X0048000Y0065575D02*
X0048000Y0060425D01*
X0048000Y0045575D02*
X0048000Y0040425D01*
X0058000Y0040425D02*
X0058000Y0045575D01*
X0068000Y0045575D02*
X0068000Y0040425D01*
X0028000Y0040425D02*
X0028000Y0045575D01*
X0028000Y0060425D02*
X0028000Y0065575D01*
D14*
X0038000Y0128000D03*
X0133000Y0128000D03*
X0133000Y0198000D03*
X0038000Y0198000D03*
X0348000Y0175500D03*
X0348000Y0240500D03*
X0353000Y0110500D03*
X0353000Y0045500D03*
D15*
X0339496Y0059004D03*
X0366504Y0059004D03*
X0366504Y0031996D03*
X0339496Y0031996D03*
X0339496Y0096996D03*
X0366504Y0096996D03*
X0366504Y0124004D03*
X0339496Y0124004D03*
X0334496Y0161996D03*
X0361504Y0161996D03*
X0361504Y0189004D03*
X0334496Y0189004D03*
X0334496Y0226996D03*
X0361504Y0226996D03*
X0361504Y0254004D03*
X0334496Y0254004D03*
X0146504Y0211504D03*
X0119496Y0211504D03*
X0119496Y0184496D03*
X0146504Y0184496D03*
X0146504Y0141504D03*
X0119496Y0141504D03*
X0119496Y0114496D03*
X0146504Y0114496D03*
X0051504Y0114496D03*
X0024496Y0114496D03*
X0024496Y0141504D03*
X0051504Y0141504D03*
X0051504Y0184496D03*
X0024496Y0184496D03*
X0024496Y0211504D03*
X0051504Y0211504D03*
D16*
X0178000Y0243000D03*
D17*
X0168000Y0243000D03*
D18*
X0176779Y0176667D02*
X0177500Y0176730D01*
X0178225Y0176669D01*
X0178923Y0176467D01*
X0179569Y0176133D01*
X0180138Y0175679D01*
X0180607Y0175123D01*
X0180958Y0174486D01*
X0181178Y0173793D01*
X0181259Y0173070D01*
X0181210Y0172410D01*
X0181046Y0171769D01*
X0180774Y0171166D01*
X0180401Y0170620D01*
X0179939Y0170147D01*
X0179401Y0169761D01*
X0178805Y0169474D01*
X0178168Y0169295D01*
X0177510Y0169230D01*
X0176852Y0169297D01*
X0176215Y0169478D01*
X0175620Y0169766D01*
X0175083Y0170153D01*
X0174622Y0170628D01*
X0174251Y0171175D01*
X0173980Y0171779D01*
X0173818Y0172420D01*
X0173770Y0173080D01*
X0173848Y0173800D01*
X0174066Y0174490D01*
X0174414Y0175124D01*
X0174879Y0175678D01*
X0175443Y0176131D01*
X0176085Y0176465D01*
X0176779Y0176667D01*
X0176143Y0176482D02*
X0178871Y0176482D01*
X0179756Y0175983D02*
X0175259Y0175983D01*
X0174717Y0175485D02*
X0180301Y0175485D01*
X0180682Y0174986D02*
X0174338Y0174986D01*
X0174065Y0174488D02*
X0180957Y0174488D01*
X0181116Y0173989D02*
X0173908Y0173989D01*
X0173815Y0173491D02*
X0181212Y0173491D01*
X0181254Y0172992D02*
X0173776Y0172992D01*
X0173812Y0172494D02*
X0181216Y0172494D01*
X0181104Y0171995D02*
X0173925Y0171995D01*
X0174106Y0171497D02*
X0180923Y0171497D01*
X0180659Y0170998D02*
X0174371Y0170998D01*
X0174747Y0170500D02*
X0180283Y0170500D01*
X0179736Y0170001D02*
X0175294Y0170001D01*
X0176163Y0169503D02*
X0178865Y0169503D01*
X0185000Y0171779D02*
X0185271Y0171175D01*
X0185642Y0170628D01*
X0186103Y0170153D01*
X0186640Y0169766D01*
X0187235Y0169478D01*
X0187872Y0169297D01*
X0188530Y0169230D01*
X0189188Y0169295D01*
X0189825Y0169474D01*
X0190421Y0169761D01*
X0190959Y0170147D01*
X0191421Y0170620D01*
X0191794Y0171166D01*
X0192066Y0171769D01*
X0192230Y0172410D01*
X0192280Y0173070D01*
X0192199Y0173793D01*
X0191978Y0174486D01*
X0191627Y0175123D01*
X0191158Y0175679D01*
X0190590Y0176133D01*
X0189944Y0176467D01*
X0189245Y0176669D01*
X0188520Y0176730D01*
X0187799Y0176667D01*
X0187105Y0176465D01*
X0186463Y0176131D01*
X0185899Y0175678D01*
X0185434Y0175124D01*
X0185086Y0174490D01*
X0184868Y0173800D01*
X0184790Y0173080D01*
X0184838Y0172420D01*
X0185000Y0171779D01*
X0184945Y0171995D02*
X0192124Y0171995D01*
X0192236Y0172494D02*
X0184833Y0172494D01*
X0184796Y0172992D02*
X0192274Y0172992D01*
X0192232Y0173491D02*
X0184835Y0173491D01*
X0184928Y0173989D02*
X0192136Y0173989D01*
X0191977Y0174488D02*
X0185085Y0174488D01*
X0185358Y0174986D02*
X0191702Y0174986D01*
X0191321Y0175485D02*
X0185737Y0175485D01*
X0186279Y0175983D02*
X0190776Y0175983D01*
X0189891Y0176482D02*
X0187163Y0176482D01*
X0185126Y0171497D02*
X0191943Y0171497D01*
X0191679Y0170998D02*
X0185391Y0170998D01*
X0185767Y0170500D02*
X0191303Y0170500D01*
X0190756Y0170001D02*
X0186314Y0170001D01*
X0187183Y0169503D02*
X0189885Y0169503D01*
D19*
X0028000Y0030500D03*
X0013000Y0048000D03*
X0013000Y0083000D03*
X0068000Y0078000D03*
X0078000Y0058000D03*
X0088000Y0048000D03*
X0110500Y0043000D03*
X0133000Y0073000D03*
X0153000Y0073000D03*
X0173000Y0075500D03*
X0168000Y0058000D03*
X0188000Y0053000D03*
X0188000Y0038000D03*
X0208000Y0073000D03*
X0240500Y0050500D03*
X0263000Y0038000D03*
X0283000Y0078000D03*
X0268000Y0148000D03*
X0268000Y0160500D03*
X0213000Y0183000D03*
X0178000Y0203000D03*
X0123000Y0233000D03*
X0170500Y0160500D03*
X0183000Y0118000D03*
X0113000Y0093000D03*
X0098000Y0140500D03*
X0078000Y0140500D03*
X0013000Y0233000D03*
D20*
X0088000Y0198000D03*
D21*
X0168000Y0258000D03*
M02*
