%
M48
M72
T01C0.02756
T02C0.03150
T03C0.03200
T04C0.03937
T05C0.04000
T06C0.05118
T07C0.08661
T08C0.09606
%
T01
X295500Y253000
X305500Y253000
T02
X303000Y183000
X283000Y183000
X273000Y183000
X263000Y183000
X263000Y163000
X273000Y163000
X283000Y163000
X303000Y163000
X228000Y163000
X208000Y163000
X198000Y163000
X188000Y163000
X188000Y183000
X198000Y183000
X208000Y183000
X228000Y183000
X153000Y183000
X133000Y183000
X123000Y183000
X113000Y183000
X113000Y163000
X123000Y163000
X133000Y163000
X153000Y163000
X78000Y163000
X58000Y163000
X48000Y163000
X38000Y163000
X38000Y183000
X48000Y183000
X58000Y183000
X78000Y183000
T03
X340500Y185500
X340500Y195500
X340500Y205500
X340500Y215500
X340500Y225500
X340500Y235500
X370500Y235500
X370500Y225500
X370500Y215500
X370500Y205500
X370500Y195500
X370500Y185500
X370500Y175500
X370500Y165500
X370500Y155500
X340500Y155500
X340500Y165500
X340500Y175500
T04
X313000Y163000
X293000Y183000
X253000Y183000
X238000Y163000
X218000Y183000
X237764Y210264
X162764Y187764
X143000Y183000
X163000Y163000
X168000Y153000
X188000Y133000
X198000Y148000
X168000Y108000
X98000Y153000
X88000Y163000
X68000Y183000
X88000Y187528
X78000Y75500
X253000Y143000
X273000Y143000
X325500Y70500
X265500Y55500
X333000Y235500
X313000Y253000
X368000Y253000
T05
X385500Y245500
X385500Y235500
X385500Y195500
X385500Y185500
X385500Y175500
X385500Y165500
X385500Y155500
X178000Y93000
X168000Y93000
T06
X113000Y108000
X48000Y108000
X48000Y43000
X113000Y43000
X228000Y35500
X308000Y35500
X303000Y100500
X228000Y100500
T07
X18000Y18000
X18000Y263000
X383000Y263000
X383000Y18000
T08
X321504Y21996
X294496Y21996
X294496Y49004
X321504Y49004
X316504Y86996
X289496Y86996
X289496Y114004
X316504Y114004
X241504Y114004
X214496Y114004
X214496Y86996
X241504Y86996
X241504Y49004
X214496Y49004
X214496Y21996
X241504Y21996
X126504Y29496
X99496Y29496
X61504Y29496
X34496Y29496
X34496Y56504
X61504Y56504
X99496Y56504
X126504Y56504
X126504Y94496
X99496Y94496
X61504Y94496
X34496Y94496
X34496Y121504
X61504Y121504
X99496Y121504
X126504Y121504
M30
