G75*
%MOIN*%
%OFA0B0*%
%FSLAX25Y25*%
%IPPOS*%
%LPD*%
%AMOC8*
5,1,8,0,0,1.08239X$1,22.5*
%
%ADD10C,0.00800*%
%ADD11C,0.00100*%
%ADD12C,0.00600*%
%ADD13C,0.00500*%
%ADD14C,0.00400*%
%ADD15R,0.01800X0.03000*%
%ADD16C,0.01000*%
D10*
X0033551Y0014063D02*
X0033551Y0021937D01*
X0039063Y0021937D01*
X0041819Y0020756D02*
X0041819Y0018000D01*
X0044181Y0020362D01*
X0044181Y0015638D01*
X0041819Y0018000D01*
X0041819Y0015244D01*
X0039063Y0014063D02*
X0033551Y0014063D01*
X0046937Y0014063D02*
X0052449Y0014063D01*
X0052449Y0021937D01*
X0046937Y0021937D01*
X0023984Y0038827D02*
X0023984Y0067173D01*
X0081858Y0067173D01*
X0081858Y0038827D01*
X0023984Y0038827D01*
X0015559Y0064457D02*
X0015559Y0069969D01*
X0010441Y0069969D01*
X0010441Y0064457D01*
X0010441Y0069969D02*
X0010441Y0071543D01*
X0015559Y0071543D02*
X0015559Y0069969D01*
X0085441Y0069969D02*
X0085441Y0064457D01*
X0090559Y0064457D02*
X0090559Y0069969D01*
X0085441Y0069969D01*
X0085441Y0071543D01*
X0090559Y0071543D02*
X0090559Y0069969D01*
X0098984Y0067173D02*
X0098984Y0038827D01*
X0156858Y0038827D01*
X0156858Y0067173D01*
X0098984Y0067173D01*
X0108551Y0021937D02*
X0114063Y0021937D01*
X0116819Y0020756D02*
X0116819Y0018000D01*
X0119181Y0020362D01*
X0119181Y0015638D01*
X0116819Y0018000D01*
X0116819Y0015244D01*
X0114063Y0014063D02*
X0108551Y0014063D01*
X0108551Y0021937D01*
X0121937Y0021937D02*
X0127449Y0021937D01*
X0127449Y0014063D01*
X0121937Y0014063D01*
X0161957Y0040441D02*
X0163531Y0040441D01*
X0163531Y0045559D01*
X0169043Y0045559D01*
X0163531Y0045559D02*
X0161957Y0045559D01*
X0163531Y0040441D02*
X0169043Y0040441D01*
X0173984Y0038827D02*
X0173984Y0067173D01*
X0231858Y0067173D01*
X0231858Y0038827D01*
X0173984Y0038827D01*
X0188551Y0021937D02*
X0194063Y0021937D01*
X0196819Y0020756D02*
X0196819Y0018000D01*
X0199181Y0020362D01*
X0199181Y0015638D01*
X0196819Y0018000D01*
X0196819Y0015244D01*
X0194063Y0014063D02*
X0188551Y0014063D01*
X0188551Y0021937D01*
X0201937Y0021937D02*
X0207449Y0021937D01*
X0207449Y0014063D01*
X0201937Y0014063D01*
X0248984Y0038827D02*
X0248984Y0067173D01*
X0306858Y0067173D01*
X0306858Y0038827D01*
X0248984Y0038827D01*
X0263551Y0021937D02*
X0269063Y0021937D01*
X0271819Y0020756D02*
X0271819Y0018000D01*
X0274181Y0020362D01*
X0274181Y0015638D01*
X0271819Y0018000D01*
X0271819Y0015244D01*
X0269063Y0014063D02*
X0263551Y0014063D01*
X0263551Y0021937D01*
X0276937Y0021937D02*
X0282449Y0021937D01*
X0282449Y0014063D01*
X0276937Y0014063D01*
X0243059Y0064457D02*
X0243059Y0069969D01*
X0237941Y0069969D01*
X0237941Y0064457D01*
X0237941Y0069969D02*
X0237941Y0071543D01*
X0243059Y0071543D02*
X0243059Y0069969D01*
X0180500Y0238000D02*
X0175500Y0238000D01*
X0160205Y0243000D02*
X0160209Y0243314D01*
X0160220Y0243628D01*
X0160240Y0243941D01*
X0160267Y0244254D01*
X0160301Y0244566D01*
X0160343Y0244877D01*
X0160393Y0245187D01*
X0160451Y0245496D01*
X0160516Y0245803D01*
X0160588Y0246109D01*
X0160668Y0246413D01*
X0160756Y0246714D01*
X0160851Y0247014D01*
X0160953Y0247311D01*
X0161062Y0247605D01*
X0161179Y0247896D01*
X0161303Y0248185D01*
X0161433Y0248471D01*
X0161571Y0248753D01*
X0161716Y0249032D01*
X0161867Y0249307D01*
X0162025Y0249578D01*
X0162190Y0249845D01*
X0162361Y0250109D01*
X0162539Y0250367D01*
X0162723Y0250622D01*
X0162913Y0250872D01*
X0163109Y0251117D01*
X0163312Y0251357D01*
X0163520Y0251593D01*
X0163733Y0251823D01*
X0163953Y0252047D01*
X0164177Y0252267D01*
X0164407Y0252480D01*
X0164643Y0252688D01*
X0164883Y0252891D01*
X0165128Y0253087D01*
X0165378Y0253277D01*
X0165633Y0253461D01*
X0165891Y0253639D01*
X0166155Y0253810D01*
X0166422Y0253975D01*
X0166693Y0254133D01*
X0166968Y0254284D01*
X0167247Y0254429D01*
X0167529Y0254567D01*
X0167815Y0254697D01*
X0168104Y0254821D01*
X0168395Y0254938D01*
X0168689Y0255047D01*
X0168986Y0255149D01*
X0169286Y0255244D01*
X0169587Y0255332D01*
X0169891Y0255412D01*
X0170197Y0255484D01*
X0170504Y0255549D01*
X0170813Y0255607D01*
X0171123Y0255657D01*
X0171434Y0255699D01*
X0171746Y0255733D01*
X0172059Y0255760D01*
X0172372Y0255780D01*
X0172686Y0255791D01*
X0173000Y0255795D01*
X0173314Y0255791D01*
X0173628Y0255780D01*
X0173941Y0255760D01*
X0174254Y0255733D01*
X0174566Y0255699D01*
X0174877Y0255657D01*
X0175187Y0255607D01*
X0175496Y0255549D01*
X0175803Y0255484D01*
X0176109Y0255412D01*
X0176413Y0255332D01*
X0176714Y0255244D01*
X0177014Y0255149D01*
X0177311Y0255047D01*
X0177605Y0254938D01*
X0177896Y0254821D01*
X0178185Y0254697D01*
X0178471Y0254567D01*
X0178753Y0254429D01*
X0179032Y0254284D01*
X0179307Y0254133D01*
X0179578Y0253975D01*
X0179845Y0253810D01*
X0180109Y0253639D01*
X0180367Y0253461D01*
X0180622Y0253277D01*
X0180872Y0253087D01*
X0181117Y0252891D01*
X0181357Y0252688D01*
X0181593Y0252480D01*
X0181823Y0252267D01*
X0182047Y0252047D01*
X0182267Y0251823D01*
X0182480Y0251593D01*
X0182688Y0251357D01*
X0182891Y0251117D01*
X0183087Y0250872D01*
X0183277Y0250622D01*
X0183461Y0250367D01*
X0183639Y0250109D01*
X0183810Y0249845D01*
X0183975Y0249578D01*
X0184133Y0249307D01*
X0184284Y0249032D01*
X0184429Y0248753D01*
X0184567Y0248471D01*
X0184697Y0248185D01*
X0184821Y0247896D01*
X0184938Y0247605D01*
X0185047Y0247311D01*
X0185149Y0247014D01*
X0185244Y0246714D01*
X0185332Y0246413D01*
X0185412Y0246109D01*
X0185484Y0245803D01*
X0185549Y0245496D01*
X0185607Y0245187D01*
X0185657Y0244877D01*
X0185699Y0244566D01*
X0185733Y0244254D01*
X0185760Y0243941D01*
X0185780Y0243628D01*
X0185791Y0243314D01*
X0185795Y0243000D01*
X0185791Y0242686D01*
X0185780Y0242372D01*
X0185760Y0242059D01*
X0185733Y0241746D01*
X0185699Y0241434D01*
X0185657Y0241123D01*
X0185607Y0240813D01*
X0185549Y0240504D01*
X0185484Y0240197D01*
X0185412Y0239891D01*
X0185332Y0239587D01*
X0185244Y0239286D01*
X0185149Y0238986D01*
X0185047Y0238689D01*
X0184938Y0238395D01*
X0184821Y0238104D01*
X0184697Y0237815D01*
X0184567Y0237529D01*
X0184429Y0237247D01*
X0184284Y0236968D01*
X0184133Y0236693D01*
X0183975Y0236422D01*
X0183810Y0236155D01*
X0183639Y0235891D01*
X0183461Y0235633D01*
X0183277Y0235378D01*
X0183087Y0235128D01*
X0182891Y0234883D01*
X0182688Y0234643D01*
X0182480Y0234407D01*
X0182267Y0234177D01*
X0182047Y0233953D01*
X0181823Y0233733D01*
X0181593Y0233520D01*
X0181357Y0233312D01*
X0181117Y0233109D01*
X0180872Y0232913D01*
X0180622Y0232723D01*
X0180367Y0232539D01*
X0180109Y0232361D01*
X0179845Y0232190D01*
X0179578Y0232025D01*
X0179307Y0231867D01*
X0179032Y0231716D01*
X0178753Y0231571D01*
X0178471Y0231433D01*
X0178185Y0231303D01*
X0177896Y0231179D01*
X0177605Y0231062D01*
X0177311Y0230953D01*
X0177014Y0230851D01*
X0176714Y0230756D01*
X0176413Y0230668D01*
X0176109Y0230588D01*
X0175803Y0230516D01*
X0175496Y0230451D01*
X0175187Y0230393D01*
X0174877Y0230343D01*
X0174566Y0230301D01*
X0174254Y0230267D01*
X0173941Y0230240D01*
X0173628Y0230220D01*
X0173314Y0230209D01*
X0173000Y0230205D01*
X0172686Y0230209D01*
X0172372Y0230220D01*
X0172059Y0230240D01*
X0171746Y0230267D01*
X0171434Y0230301D01*
X0171123Y0230343D01*
X0170813Y0230393D01*
X0170504Y0230451D01*
X0170197Y0230516D01*
X0169891Y0230588D01*
X0169587Y0230668D01*
X0169286Y0230756D01*
X0168986Y0230851D01*
X0168689Y0230953D01*
X0168395Y0231062D01*
X0168104Y0231179D01*
X0167815Y0231303D01*
X0167529Y0231433D01*
X0167247Y0231571D01*
X0166968Y0231716D01*
X0166693Y0231867D01*
X0166422Y0232025D01*
X0166155Y0232190D01*
X0165891Y0232361D01*
X0165633Y0232539D01*
X0165378Y0232723D01*
X0165128Y0232913D01*
X0164883Y0233109D01*
X0164643Y0233312D01*
X0164407Y0233520D01*
X0164177Y0233733D01*
X0163953Y0233953D01*
X0163733Y0234177D01*
X0163520Y0234407D01*
X0163312Y0234643D01*
X0163109Y0234883D01*
X0162913Y0235128D01*
X0162723Y0235378D01*
X0162539Y0235633D01*
X0162361Y0235891D01*
X0162190Y0236155D01*
X0162025Y0236422D01*
X0161867Y0236693D01*
X0161716Y0236968D01*
X0161571Y0237247D01*
X0161433Y0237529D01*
X0161303Y0237815D01*
X0161179Y0238104D01*
X0161062Y0238395D01*
X0160953Y0238689D01*
X0160851Y0238986D01*
X0160756Y0239286D01*
X0160668Y0239587D01*
X0160588Y0239891D01*
X0160516Y0240197D01*
X0160451Y0240504D01*
X0160393Y0240813D01*
X0160343Y0241123D01*
X0160301Y0241434D01*
X0160267Y0241746D01*
X0160240Y0242059D01*
X0160220Y0242372D01*
X0160209Y0242686D01*
X0160205Y0243000D01*
X0183000Y0255500D02*
X0183000Y0260500D01*
X0185500Y0263000D01*
X0190500Y0263000D01*
X0193000Y0260500D01*
X0195500Y0263000D01*
X0200500Y0263000D01*
X0203000Y0260500D01*
X0203000Y0255500D01*
X0200500Y0253000D01*
X0195500Y0253000D01*
X0193000Y0255500D01*
X0190500Y0253000D01*
X0185500Y0253000D01*
X0183000Y0255500D01*
X0223000Y0255500D02*
X0225500Y0253000D01*
X0230500Y0253000D01*
X0233000Y0255500D01*
X0235500Y0253000D01*
X0240500Y0253000D01*
X0243000Y0255500D01*
X0245500Y0253000D01*
X0250500Y0253000D01*
X0253000Y0255500D01*
X0255500Y0253000D01*
X0260500Y0253000D01*
X0263000Y0255500D01*
X0265500Y0253000D01*
X0270500Y0253000D01*
X0273000Y0255500D01*
X0273000Y0260500D01*
X0270500Y0263000D01*
X0265500Y0263000D01*
X0263000Y0260500D01*
X0260500Y0263000D01*
X0255500Y0263000D01*
X0253000Y0260500D01*
X0250500Y0263000D01*
X0245500Y0263000D01*
X0243000Y0260500D01*
X0240500Y0263000D01*
X0235500Y0263000D01*
X0233000Y0260500D01*
X0230500Y0263000D01*
X0225500Y0263000D01*
X0223000Y0260500D01*
X0223000Y0255500D01*
X0293000Y0255500D02*
X0295500Y0253000D01*
X0300500Y0253000D01*
X0303000Y0255500D01*
X0305500Y0253000D01*
X0310500Y0253000D01*
X0313000Y0255500D01*
X0313000Y0260500D01*
X0310500Y0263000D01*
X0305500Y0263000D01*
X0303000Y0260500D01*
X0300500Y0263000D01*
X0295500Y0263000D01*
X0293000Y0260500D01*
X0293000Y0255500D01*
D11*
X0175578Y0234950D02*
X0174577Y0234950D01*
X0175077Y0234950D02*
X0175077Y0236451D01*
X0174577Y0235951D01*
X0174104Y0236201D02*
X0173854Y0236451D01*
X0173354Y0236451D01*
X0173103Y0236201D01*
X0173103Y0235200D01*
X0173354Y0234950D01*
X0173854Y0234950D01*
X0174104Y0235200D01*
X0244549Y0070577D02*
X0246050Y0070577D01*
X0246050Y0070077D02*
X0246050Y0071078D01*
X0245049Y0070077D02*
X0244549Y0070577D01*
X0244549Y0069104D02*
X0246050Y0069104D01*
X0246050Y0069604D02*
X0246050Y0068603D01*
X0245800Y0068131D02*
X0244799Y0068131D01*
X0244549Y0067881D01*
X0244549Y0067130D01*
X0246050Y0067130D01*
X0246050Y0067881D01*
X0245800Y0068131D01*
X0245049Y0068603D02*
X0244549Y0069104D01*
X0249550Y0022551D02*
X0250301Y0022551D01*
X0250551Y0022301D01*
X0250551Y0021801D01*
X0250301Y0021550D01*
X0249550Y0021550D01*
X0249550Y0021050D02*
X0249550Y0022551D01*
X0250050Y0021550D02*
X0250551Y0021050D01*
X0251023Y0021050D02*
X0252024Y0021050D01*
X0252497Y0021050D02*
X0253497Y0022051D01*
X0253497Y0022301D01*
X0253247Y0022551D01*
X0252747Y0022551D01*
X0252497Y0022301D01*
X0251524Y0022551D02*
X0251524Y0021050D01*
X0252497Y0021050D02*
X0253497Y0021050D01*
X0251524Y0022551D02*
X0251023Y0022051D01*
X0272130Y0012451D02*
X0272130Y0010950D01*
X0272881Y0010950D01*
X0273131Y0011200D01*
X0273131Y0012201D01*
X0272881Y0012451D01*
X0272130Y0012451D01*
X0273603Y0011951D02*
X0274104Y0012451D01*
X0274104Y0010950D01*
X0274604Y0010950D02*
X0273603Y0010950D01*
X0275077Y0010950D02*
X0276078Y0011951D01*
X0276078Y0012201D01*
X0275827Y0012451D01*
X0275327Y0012451D01*
X0275077Y0012201D01*
X0275077Y0010950D02*
X0276078Y0010950D01*
X0201078Y0012201D02*
X0200077Y0011200D01*
X0200077Y0010950D01*
X0199604Y0011200D02*
X0199604Y0012201D01*
X0199354Y0012451D01*
X0198603Y0012451D01*
X0198603Y0010950D01*
X0199354Y0010950D01*
X0199604Y0011200D01*
X0200077Y0012451D02*
X0201078Y0012451D01*
X0201078Y0012201D01*
X0177024Y0021050D02*
X0176023Y0021050D01*
X0175551Y0021050D02*
X0175050Y0021550D01*
X0175301Y0021550D02*
X0174550Y0021550D01*
X0174550Y0021050D02*
X0174550Y0022551D01*
X0175301Y0022551D01*
X0175551Y0022301D01*
X0175551Y0021801D01*
X0175301Y0021550D01*
X0176023Y0022051D02*
X0176524Y0022551D01*
X0176524Y0021050D01*
X0164274Y0047050D02*
X0163773Y0047050D01*
X0163523Y0047300D01*
X0163523Y0047550D01*
X0163773Y0047801D01*
X0164274Y0047801D01*
X0164524Y0047550D01*
X0164524Y0047300D01*
X0164274Y0047050D01*
X0164274Y0047801D02*
X0164524Y0048051D01*
X0164524Y0048301D01*
X0164274Y0048551D01*
X0163773Y0048551D01*
X0163523Y0048301D01*
X0163523Y0048051D01*
X0163773Y0047801D01*
X0163051Y0047300D02*
X0163051Y0048301D01*
X0162801Y0048551D01*
X0162050Y0048551D01*
X0162050Y0047050D01*
X0162801Y0047050D01*
X0163051Y0047300D01*
X0121078Y0012451D02*
X0120077Y0012451D01*
X0120077Y0011701D01*
X0120577Y0011951D01*
X0120827Y0011951D01*
X0121078Y0011701D01*
X0121078Y0011200D01*
X0120827Y0010950D01*
X0120327Y0010950D01*
X0120077Y0011200D01*
X0119604Y0011200D02*
X0119604Y0012201D01*
X0119354Y0012451D01*
X0118603Y0012451D01*
X0118603Y0010950D01*
X0119354Y0010950D01*
X0119604Y0011200D01*
X0097024Y0021300D02*
X0096774Y0021050D01*
X0096273Y0021050D01*
X0096023Y0021300D01*
X0096023Y0021801D02*
X0096524Y0022051D01*
X0096774Y0022051D01*
X0097024Y0021801D01*
X0097024Y0021300D01*
X0096023Y0021801D02*
X0096023Y0022551D01*
X0097024Y0022551D01*
X0095551Y0022301D02*
X0095551Y0021801D01*
X0095301Y0021550D01*
X0094550Y0021550D01*
X0094550Y0021050D02*
X0094550Y0022551D01*
X0095301Y0022551D01*
X0095551Y0022301D01*
X0095050Y0021550D02*
X0095551Y0021050D01*
X0046078Y0010950D02*
X0045077Y0010950D01*
X0045577Y0010950D02*
X0045577Y0012451D01*
X0045077Y0011951D01*
X0044604Y0012201D02*
X0044354Y0012451D01*
X0043603Y0012451D01*
X0043603Y0010950D01*
X0044354Y0010950D01*
X0044604Y0011200D01*
X0044604Y0012201D01*
X0017024Y0021300D02*
X0017024Y0022301D01*
X0016774Y0022551D01*
X0016273Y0022551D01*
X0016023Y0022301D01*
X0016023Y0022051D01*
X0016273Y0021801D01*
X0017024Y0021801D01*
X0017024Y0021300D02*
X0016774Y0021050D01*
X0016273Y0021050D01*
X0016023Y0021300D01*
X0015551Y0021050D02*
X0015050Y0021550D01*
X0015301Y0021550D02*
X0014550Y0021550D01*
X0014550Y0021050D02*
X0014550Y0022551D01*
X0015301Y0022551D01*
X0015551Y0022301D01*
X0015551Y0021801D01*
X0015301Y0021550D01*
X0017049Y0068603D02*
X0017049Y0069354D01*
X0017299Y0069604D01*
X0018300Y0069604D01*
X0018550Y0069354D01*
X0018550Y0068603D01*
X0017049Y0068603D01*
X0017299Y0070077D02*
X0017049Y0070327D01*
X0017049Y0070827D01*
X0017299Y0071078D01*
X0017549Y0071078D01*
X0018550Y0070077D01*
X0018550Y0071078D01*
X0092049Y0071078D02*
X0092299Y0070577D01*
X0092799Y0070077D01*
X0092799Y0070827D01*
X0093050Y0071078D01*
X0093300Y0071078D01*
X0093550Y0070827D01*
X0093550Y0070327D01*
X0093300Y0070077D01*
X0092799Y0070077D01*
X0092299Y0069604D02*
X0092049Y0069354D01*
X0092049Y0068603D01*
X0093550Y0068603D01*
X0093550Y0069354D01*
X0093300Y0069604D01*
X0092299Y0069604D01*
D12*
X0183000Y0196500D02*
X0183000Y0219500D01*
X0273000Y0219500D01*
X0273000Y0212000D01*
X0272874Y0211998D01*
X0272749Y0211992D01*
X0272624Y0211982D01*
X0272499Y0211968D01*
X0272374Y0211951D01*
X0272250Y0211929D01*
X0272127Y0211904D01*
X0272005Y0211874D01*
X0271884Y0211841D01*
X0271764Y0211804D01*
X0271645Y0211764D01*
X0271528Y0211719D01*
X0271411Y0211671D01*
X0271297Y0211619D01*
X0271184Y0211564D01*
X0271073Y0211505D01*
X0270964Y0211443D01*
X0270857Y0211377D01*
X0270752Y0211308D01*
X0270649Y0211236D01*
X0270548Y0211161D01*
X0270450Y0211082D01*
X0270355Y0211000D01*
X0270262Y0210916D01*
X0270172Y0210828D01*
X0270084Y0210738D01*
X0270000Y0210645D01*
X0269918Y0210550D01*
X0269839Y0210452D01*
X0269764Y0210351D01*
X0269692Y0210248D01*
X0269623Y0210143D01*
X0269557Y0210036D01*
X0269495Y0209927D01*
X0269436Y0209816D01*
X0269381Y0209703D01*
X0269329Y0209589D01*
X0269281Y0209472D01*
X0269236Y0209355D01*
X0269196Y0209236D01*
X0269159Y0209116D01*
X0269126Y0208995D01*
X0269096Y0208873D01*
X0269071Y0208750D01*
X0269049Y0208626D01*
X0269032Y0208501D01*
X0269018Y0208376D01*
X0269008Y0208251D01*
X0269002Y0208126D01*
X0269000Y0208000D01*
X0269002Y0207874D01*
X0269008Y0207749D01*
X0269018Y0207624D01*
X0269032Y0207499D01*
X0269049Y0207374D01*
X0269071Y0207250D01*
X0269096Y0207127D01*
X0269126Y0207005D01*
X0269159Y0206884D01*
X0269196Y0206764D01*
X0269236Y0206645D01*
X0269281Y0206528D01*
X0269329Y0206411D01*
X0269381Y0206297D01*
X0269436Y0206184D01*
X0269495Y0206073D01*
X0269557Y0205964D01*
X0269623Y0205857D01*
X0269692Y0205752D01*
X0269764Y0205649D01*
X0269839Y0205548D01*
X0269918Y0205450D01*
X0270000Y0205355D01*
X0270084Y0205262D01*
X0270172Y0205172D01*
X0270262Y0205084D01*
X0270355Y0205000D01*
X0270450Y0204918D01*
X0270548Y0204839D01*
X0270649Y0204764D01*
X0270752Y0204692D01*
X0270857Y0204623D01*
X0270964Y0204557D01*
X0271073Y0204495D01*
X0271184Y0204436D01*
X0271297Y0204381D01*
X0271411Y0204329D01*
X0271528Y0204281D01*
X0271645Y0204236D01*
X0271764Y0204196D01*
X0271884Y0204159D01*
X0272005Y0204126D01*
X0272127Y0204096D01*
X0272250Y0204071D01*
X0272374Y0204049D01*
X0272499Y0204032D01*
X0272624Y0204018D01*
X0272749Y0204008D01*
X0272874Y0204002D01*
X0273000Y0204000D01*
X0273000Y0196500D01*
X0183000Y0196500D01*
D13*
X0105992Y0198000D02*
X0106000Y0198663D01*
X0106025Y0199325D01*
X0106065Y0199987D01*
X0106122Y0200647D01*
X0106195Y0201306D01*
X0106284Y0201963D01*
X0106390Y0202617D01*
X0106511Y0203269D01*
X0106648Y0203917D01*
X0106801Y0204562D01*
X0106970Y0205203D01*
X0107155Y0205840D01*
X0107355Y0206472D01*
X0107571Y0207099D01*
X0107802Y0207720D01*
X0108048Y0208336D01*
X0108309Y0208945D01*
X0108585Y0209547D01*
X0108876Y0210143D01*
X0109181Y0210731D01*
X0109501Y0211312D01*
X0109834Y0211885D01*
X0110182Y0212449D01*
X0110544Y0213005D01*
X0110919Y0213551D01*
X0111307Y0214089D01*
X0111708Y0214616D01*
X0112123Y0215134D01*
X0112549Y0215641D01*
X0112988Y0216137D01*
X0113440Y0216623D01*
X0113902Y0217098D01*
X0114377Y0217560D01*
X0114863Y0218012D01*
X0115359Y0218451D01*
X0115866Y0218877D01*
X0116384Y0219292D01*
X0116911Y0219693D01*
X0117449Y0220081D01*
X0117995Y0220456D01*
X0118551Y0220818D01*
X0119115Y0221166D01*
X0119688Y0221499D01*
X0120269Y0221819D01*
X0120857Y0222124D01*
X0121453Y0222415D01*
X0122055Y0222691D01*
X0122664Y0222952D01*
X0123280Y0223198D01*
X0123901Y0223429D01*
X0124528Y0223645D01*
X0125160Y0223845D01*
X0125797Y0224030D01*
X0126438Y0224199D01*
X0127083Y0224352D01*
X0127731Y0224489D01*
X0128383Y0224610D01*
X0129037Y0224716D01*
X0129694Y0224805D01*
X0130353Y0224878D01*
X0131013Y0224935D01*
X0131675Y0224975D01*
X0132337Y0225000D01*
X0133000Y0225008D01*
X0133663Y0225000D01*
X0134325Y0224975D01*
X0134987Y0224935D01*
X0135647Y0224878D01*
X0136306Y0224805D01*
X0136963Y0224716D01*
X0137617Y0224610D01*
X0138269Y0224489D01*
X0138917Y0224352D01*
X0139562Y0224199D01*
X0140203Y0224030D01*
X0140840Y0223845D01*
X0141472Y0223645D01*
X0142099Y0223429D01*
X0142720Y0223198D01*
X0143336Y0222952D01*
X0143945Y0222691D01*
X0144547Y0222415D01*
X0145143Y0222124D01*
X0145731Y0221819D01*
X0146312Y0221499D01*
X0146885Y0221166D01*
X0147449Y0220818D01*
X0148005Y0220456D01*
X0148551Y0220081D01*
X0149089Y0219693D01*
X0149616Y0219292D01*
X0150134Y0218877D01*
X0150641Y0218451D01*
X0151137Y0218012D01*
X0151623Y0217560D01*
X0152098Y0217098D01*
X0152560Y0216623D01*
X0153012Y0216137D01*
X0153451Y0215641D01*
X0153877Y0215134D01*
X0154292Y0214616D01*
X0154693Y0214089D01*
X0155081Y0213551D01*
X0155456Y0213005D01*
X0155818Y0212449D01*
X0156166Y0211885D01*
X0156499Y0211312D01*
X0156819Y0210731D01*
X0157124Y0210143D01*
X0157415Y0209547D01*
X0157691Y0208945D01*
X0157952Y0208336D01*
X0158198Y0207720D01*
X0158429Y0207099D01*
X0158645Y0206472D01*
X0158845Y0205840D01*
X0159030Y0205203D01*
X0159199Y0204562D01*
X0159352Y0203917D01*
X0159489Y0203269D01*
X0159610Y0202617D01*
X0159716Y0201963D01*
X0159805Y0201306D01*
X0159878Y0200647D01*
X0159935Y0199987D01*
X0159975Y0199325D01*
X0160000Y0198663D01*
X0160008Y0198000D01*
X0160000Y0197337D01*
X0159975Y0196675D01*
X0159935Y0196013D01*
X0159878Y0195353D01*
X0159805Y0194694D01*
X0159716Y0194037D01*
X0159610Y0193383D01*
X0159489Y0192731D01*
X0159352Y0192083D01*
X0159199Y0191438D01*
X0159030Y0190797D01*
X0158845Y0190160D01*
X0158645Y0189528D01*
X0158429Y0188901D01*
X0158198Y0188280D01*
X0157952Y0187664D01*
X0157691Y0187055D01*
X0157415Y0186453D01*
X0157124Y0185857D01*
X0156819Y0185269D01*
X0156499Y0184688D01*
X0156166Y0184115D01*
X0155818Y0183551D01*
X0155456Y0182995D01*
X0155081Y0182449D01*
X0154693Y0181911D01*
X0154292Y0181384D01*
X0153877Y0180866D01*
X0153451Y0180359D01*
X0153012Y0179863D01*
X0152560Y0179377D01*
X0152098Y0178902D01*
X0151623Y0178440D01*
X0151137Y0177988D01*
X0150641Y0177549D01*
X0150134Y0177123D01*
X0149616Y0176708D01*
X0149089Y0176307D01*
X0148551Y0175919D01*
X0148005Y0175544D01*
X0147449Y0175182D01*
X0146885Y0174834D01*
X0146312Y0174501D01*
X0145731Y0174181D01*
X0145143Y0173876D01*
X0144547Y0173585D01*
X0143945Y0173309D01*
X0143336Y0173048D01*
X0142720Y0172802D01*
X0142099Y0172571D01*
X0141472Y0172355D01*
X0140840Y0172155D01*
X0140203Y0171970D01*
X0139562Y0171801D01*
X0138917Y0171648D01*
X0138269Y0171511D01*
X0137617Y0171390D01*
X0136963Y0171284D01*
X0136306Y0171195D01*
X0135647Y0171122D01*
X0134987Y0171065D01*
X0134325Y0171025D01*
X0133663Y0171000D01*
X0133000Y0170992D01*
X0132337Y0171000D01*
X0131675Y0171025D01*
X0131013Y0171065D01*
X0130353Y0171122D01*
X0129694Y0171195D01*
X0129037Y0171284D01*
X0128383Y0171390D01*
X0127731Y0171511D01*
X0127083Y0171648D01*
X0126438Y0171801D01*
X0125797Y0171970D01*
X0125160Y0172155D01*
X0124528Y0172355D01*
X0123901Y0172571D01*
X0123280Y0172802D01*
X0122664Y0173048D01*
X0122055Y0173309D01*
X0121453Y0173585D01*
X0120857Y0173876D01*
X0120269Y0174181D01*
X0119688Y0174501D01*
X0119115Y0174834D01*
X0118551Y0175182D01*
X0117995Y0175544D01*
X0117449Y0175919D01*
X0116911Y0176307D01*
X0116384Y0176708D01*
X0115866Y0177123D01*
X0115359Y0177549D01*
X0114863Y0177988D01*
X0114377Y0178440D01*
X0113902Y0178902D01*
X0113440Y0179377D01*
X0112988Y0179863D01*
X0112549Y0180359D01*
X0112123Y0180866D01*
X0111708Y0181384D01*
X0111307Y0181911D01*
X0110919Y0182449D01*
X0110544Y0182995D01*
X0110182Y0183551D01*
X0109834Y0184115D01*
X0109501Y0184688D01*
X0109181Y0185269D01*
X0108876Y0185857D01*
X0108585Y0186453D01*
X0108309Y0187055D01*
X0108048Y0187664D01*
X0107802Y0188280D01*
X0107571Y0188901D01*
X0107355Y0189528D01*
X0107155Y0190160D01*
X0106970Y0190797D01*
X0106801Y0191438D01*
X0106648Y0192083D01*
X0106511Y0192731D01*
X0106390Y0193383D01*
X0106284Y0194037D01*
X0106195Y0194694D01*
X0106122Y0195353D01*
X0106065Y0196013D01*
X0106025Y0196675D01*
X0106000Y0197337D01*
X0105992Y0198000D01*
X0010992Y0198000D02*
X0011000Y0198663D01*
X0011025Y0199325D01*
X0011065Y0199987D01*
X0011122Y0200647D01*
X0011195Y0201306D01*
X0011284Y0201963D01*
X0011390Y0202617D01*
X0011511Y0203269D01*
X0011648Y0203917D01*
X0011801Y0204562D01*
X0011970Y0205203D01*
X0012155Y0205840D01*
X0012355Y0206472D01*
X0012571Y0207099D01*
X0012802Y0207720D01*
X0013048Y0208336D01*
X0013309Y0208945D01*
X0013585Y0209547D01*
X0013876Y0210143D01*
X0014181Y0210731D01*
X0014501Y0211312D01*
X0014834Y0211885D01*
X0015182Y0212449D01*
X0015544Y0213005D01*
X0015919Y0213551D01*
X0016307Y0214089D01*
X0016708Y0214616D01*
X0017123Y0215134D01*
X0017549Y0215641D01*
X0017988Y0216137D01*
X0018440Y0216623D01*
X0018902Y0217098D01*
X0019377Y0217560D01*
X0019863Y0218012D01*
X0020359Y0218451D01*
X0020866Y0218877D01*
X0021384Y0219292D01*
X0021911Y0219693D01*
X0022449Y0220081D01*
X0022995Y0220456D01*
X0023551Y0220818D01*
X0024115Y0221166D01*
X0024688Y0221499D01*
X0025269Y0221819D01*
X0025857Y0222124D01*
X0026453Y0222415D01*
X0027055Y0222691D01*
X0027664Y0222952D01*
X0028280Y0223198D01*
X0028901Y0223429D01*
X0029528Y0223645D01*
X0030160Y0223845D01*
X0030797Y0224030D01*
X0031438Y0224199D01*
X0032083Y0224352D01*
X0032731Y0224489D01*
X0033383Y0224610D01*
X0034037Y0224716D01*
X0034694Y0224805D01*
X0035353Y0224878D01*
X0036013Y0224935D01*
X0036675Y0224975D01*
X0037337Y0225000D01*
X0038000Y0225008D01*
X0038663Y0225000D01*
X0039325Y0224975D01*
X0039987Y0224935D01*
X0040647Y0224878D01*
X0041306Y0224805D01*
X0041963Y0224716D01*
X0042617Y0224610D01*
X0043269Y0224489D01*
X0043917Y0224352D01*
X0044562Y0224199D01*
X0045203Y0224030D01*
X0045840Y0223845D01*
X0046472Y0223645D01*
X0047099Y0223429D01*
X0047720Y0223198D01*
X0048336Y0222952D01*
X0048945Y0222691D01*
X0049547Y0222415D01*
X0050143Y0222124D01*
X0050731Y0221819D01*
X0051312Y0221499D01*
X0051885Y0221166D01*
X0052449Y0220818D01*
X0053005Y0220456D01*
X0053551Y0220081D01*
X0054089Y0219693D01*
X0054616Y0219292D01*
X0055134Y0218877D01*
X0055641Y0218451D01*
X0056137Y0218012D01*
X0056623Y0217560D01*
X0057098Y0217098D01*
X0057560Y0216623D01*
X0058012Y0216137D01*
X0058451Y0215641D01*
X0058877Y0215134D01*
X0059292Y0214616D01*
X0059693Y0214089D01*
X0060081Y0213551D01*
X0060456Y0213005D01*
X0060818Y0212449D01*
X0061166Y0211885D01*
X0061499Y0211312D01*
X0061819Y0210731D01*
X0062124Y0210143D01*
X0062415Y0209547D01*
X0062691Y0208945D01*
X0062952Y0208336D01*
X0063198Y0207720D01*
X0063429Y0207099D01*
X0063645Y0206472D01*
X0063845Y0205840D01*
X0064030Y0205203D01*
X0064199Y0204562D01*
X0064352Y0203917D01*
X0064489Y0203269D01*
X0064610Y0202617D01*
X0064716Y0201963D01*
X0064805Y0201306D01*
X0064878Y0200647D01*
X0064935Y0199987D01*
X0064975Y0199325D01*
X0065000Y0198663D01*
X0065008Y0198000D01*
X0065000Y0197337D01*
X0064975Y0196675D01*
X0064935Y0196013D01*
X0064878Y0195353D01*
X0064805Y0194694D01*
X0064716Y0194037D01*
X0064610Y0193383D01*
X0064489Y0192731D01*
X0064352Y0192083D01*
X0064199Y0191438D01*
X0064030Y0190797D01*
X0063845Y0190160D01*
X0063645Y0189528D01*
X0063429Y0188901D01*
X0063198Y0188280D01*
X0062952Y0187664D01*
X0062691Y0187055D01*
X0062415Y0186453D01*
X0062124Y0185857D01*
X0061819Y0185269D01*
X0061499Y0184688D01*
X0061166Y0184115D01*
X0060818Y0183551D01*
X0060456Y0182995D01*
X0060081Y0182449D01*
X0059693Y0181911D01*
X0059292Y0181384D01*
X0058877Y0180866D01*
X0058451Y0180359D01*
X0058012Y0179863D01*
X0057560Y0179377D01*
X0057098Y0178902D01*
X0056623Y0178440D01*
X0056137Y0177988D01*
X0055641Y0177549D01*
X0055134Y0177123D01*
X0054616Y0176708D01*
X0054089Y0176307D01*
X0053551Y0175919D01*
X0053005Y0175544D01*
X0052449Y0175182D01*
X0051885Y0174834D01*
X0051312Y0174501D01*
X0050731Y0174181D01*
X0050143Y0173876D01*
X0049547Y0173585D01*
X0048945Y0173309D01*
X0048336Y0173048D01*
X0047720Y0172802D01*
X0047099Y0172571D01*
X0046472Y0172355D01*
X0045840Y0172155D01*
X0045203Y0171970D01*
X0044562Y0171801D01*
X0043917Y0171648D01*
X0043269Y0171511D01*
X0042617Y0171390D01*
X0041963Y0171284D01*
X0041306Y0171195D01*
X0040647Y0171122D01*
X0039987Y0171065D01*
X0039325Y0171025D01*
X0038663Y0171000D01*
X0038000Y0170992D01*
X0037337Y0171000D01*
X0036675Y0171025D01*
X0036013Y0171065D01*
X0035353Y0171122D01*
X0034694Y0171195D01*
X0034037Y0171284D01*
X0033383Y0171390D01*
X0032731Y0171511D01*
X0032083Y0171648D01*
X0031438Y0171801D01*
X0030797Y0171970D01*
X0030160Y0172155D01*
X0029528Y0172355D01*
X0028901Y0172571D01*
X0028280Y0172802D01*
X0027664Y0173048D01*
X0027055Y0173309D01*
X0026453Y0173585D01*
X0025857Y0173876D01*
X0025269Y0174181D01*
X0024688Y0174501D01*
X0024115Y0174834D01*
X0023551Y0175182D01*
X0022995Y0175544D01*
X0022449Y0175919D01*
X0021911Y0176307D01*
X0021384Y0176708D01*
X0020866Y0177123D01*
X0020359Y0177549D01*
X0019863Y0177988D01*
X0019377Y0178440D01*
X0018902Y0178902D01*
X0018440Y0179377D01*
X0017988Y0179863D01*
X0017549Y0180359D01*
X0017123Y0180866D01*
X0016708Y0181384D01*
X0016307Y0181911D01*
X0015919Y0182449D01*
X0015544Y0182995D01*
X0015182Y0183551D01*
X0014834Y0184115D01*
X0014501Y0184688D01*
X0014181Y0185269D01*
X0013876Y0185857D01*
X0013585Y0186453D01*
X0013309Y0187055D01*
X0013048Y0187664D01*
X0012802Y0188280D01*
X0012571Y0188901D01*
X0012355Y0189528D01*
X0012155Y0190160D01*
X0011970Y0190797D01*
X0011801Y0191438D01*
X0011648Y0192083D01*
X0011511Y0192731D01*
X0011390Y0193383D01*
X0011284Y0194037D01*
X0011195Y0194694D01*
X0011122Y0195353D01*
X0011065Y0196013D01*
X0011025Y0196675D01*
X0011000Y0197337D01*
X0010992Y0198000D01*
X0010992Y0128000D02*
X0011000Y0128663D01*
X0011025Y0129325D01*
X0011065Y0129987D01*
X0011122Y0130647D01*
X0011195Y0131306D01*
X0011284Y0131963D01*
X0011390Y0132617D01*
X0011511Y0133269D01*
X0011648Y0133917D01*
X0011801Y0134562D01*
X0011970Y0135203D01*
X0012155Y0135840D01*
X0012355Y0136472D01*
X0012571Y0137099D01*
X0012802Y0137720D01*
X0013048Y0138336D01*
X0013309Y0138945D01*
X0013585Y0139547D01*
X0013876Y0140143D01*
X0014181Y0140731D01*
X0014501Y0141312D01*
X0014834Y0141885D01*
X0015182Y0142449D01*
X0015544Y0143005D01*
X0015919Y0143551D01*
X0016307Y0144089D01*
X0016708Y0144616D01*
X0017123Y0145134D01*
X0017549Y0145641D01*
X0017988Y0146137D01*
X0018440Y0146623D01*
X0018902Y0147098D01*
X0019377Y0147560D01*
X0019863Y0148012D01*
X0020359Y0148451D01*
X0020866Y0148877D01*
X0021384Y0149292D01*
X0021911Y0149693D01*
X0022449Y0150081D01*
X0022995Y0150456D01*
X0023551Y0150818D01*
X0024115Y0151166D01*
X0024688Y0151499D01*
X0025269Y0151819D01*
X0025857Y0152124D01*
X0026453Y0152415D01*
X0027055Y0152691D01*
X0027664Y0152952D01*
X0028280Y0153198D01*
X0028901Y0153429D01*
X0029528Y0153645D01*
X0030160Y0153845D01*
X0030797Y0154030D01*
X0031438Y0154199D01*
X0032083Y0154352D01*
X0032731Y0154489D01*
X0033383Y0154610D01*
X0034037Y0154716D01*
X0034694Y0154805D01*
X0035353Y0154878D01*
X0036013Y0154935D01*
X0036675Y0154975D01*
X0037337Y0155000D01*
X0038000Y0155008D01*
X0038663Y0155000D01*
X0039325Y0154975D01*
X0039987Y0154935D01*
X0040647Y0154878D01*
X0041306Y0154805D01*
X0041963Y0154716D01*
X0042617Y0154610D01*
X0043269Y0154489D01*
X0043917Y0154352D01*
X0044562Y0154199D01*
X0045203Y0154030D01*
X0045840Y0153845D01*
X0046472Y0153645D01*
X0047099Y0153429D01*
X0047720Y0153198D01*
X0048336Y0152952D01*
X0048945Y0152691D01*
X0049547Y0152415D01*
X0050143Y0152124D01*
X0050731Y0151819D01*
X0051312Y0151499D01*
X0051885Y0151166D01*
X0052449Y0150818D01*
X0053005Y0150456D01*
X0053551Y0150081D01*
X0054089Y0149693D01*
X0054616Y0149292D01*
X0055134Y0148877D01*
X0055641Y0148451D01*
X0056137Y0148012D01*
X0056623Y0147560D01*
X0057098Y0147098D01*
X0057560Y0146623D01*
X0058012Y0146137D01*
X0058451Y0145641D01*
X0058877Y0145134D01*
X0059292Y0144616D01*
X0059693Y0144089D01*
X0060081Y0143551D01*
X0060456Y0143005D01*
X0060818Y0142449D01*
X0061166Y0141885D01*
X0061499Y0141312D01*
X0061819Y0140731D01*
X0062124Y0140143D01*
X0062415Y0139547D01*
X0062691Y0138945D01*
X0062952Y0138336D01*
X0063198Y0137720D01*
X0063429Y0137099D01*
X0063645Y0136472D01*
X0063845Y0135840D01*
X0064030Y0135203D01*
X0064199Y0134562D01*
X0064352Y0133917D01*
X0064489Y0133269D01*
X0064610Y0132617D01*
X0064716Y0131963D01*
X0064805Y0131306D01*
X0064878Y0130647D01*
X0064935Y0129987D01*
X0064975Y0129325D01*
X0065000Y0128663D01*
X0065008Y0128000D01*
X0065000Y0127337D01*
X0064975Y0126675D01*
X0064935Y0126013D01*
X0064878Y0125353D01*
X0064805Y0124694D01*
X0064716Y0124037D01*
X0064610Y0123383D01*
X0064489Y0122731D01*
X0064352Y0122083D01*
X0064199Y0121438D01*
X0064030Y0120797D01*
X0063845Y0120160D01*
X0063645Y0119528D01*
X0063429Y0118901D01*
X0063198Y0118280D01*
X0062952Y0117664D01*
X0062691Y0117055D01*
X0062415Y0116453D01*
X0062124Y0115857D01*
X0061819Y0115269D01*
X0061499Y0114688D01*
X0061166Y0114115D01*
X0060818Y0113551D01*
X0060456Y0112995D01*
X0060081Y0112449D01*
X0059693Y0111911D01*
X0059292Y0111384D01*
X0058877Y0110866D01*
X0058451Y0110359D01*
X0058012Y0109863D01*
X0057560Y0109377D01*
X0057098Y0108902D01*
X0056623Y0108440D01*
X0056137Y0107988D01*
X0055641Y0107549D01*
X0055134Y0107123D01*
X0054616Y0106708D01*
X0054089Y0106307D01*
X0053551Y0105919D01*
X0053005Y0105544D01*
X0052449Y0105182D01*
X0051885Y0104834D01*
X0051312Y0104501D01*
X0050731Y0104181D01*
X0050143Y0103876D01*
X0049547Y0103585D01*
X0048945Y0103309D01*
X0048336Y0103048D01*
X0047720Y0102802D01*
X0047099Y0102571D01*
X0046472Y0102355D01*
X0045840Y0102155D01*
X0045203Y0101970D01*
X0044562Y0101801D01*
X0043917Y0101648D01*
X0043269Y0101511D01*
X0042617Y0101390D01*
X0041963Y0101284D01*
X0041306Y0101195D01*
X0040647Y0101122D01*
X0039987Y0101065D01*
X0039325Y0101025D01*
X0038663Y0101000D01*
X0038000Y0100992D01*
X0037337Y0101000D01*
X0036675Y0101025D01*
X0036013Y0101065D01*
X0035353Y0101122D01*
X0034694Y0101195D01*
X0034037Y0101284D01*
X0033383Y0101390D01*
X0032731Y0101511D01*
X0032083Y0101648D01*
X0031438Y0101801D01*
X0030797Y0101970D01*
X0030160Y0102155D01*
X0029528Y0102355D01*
X0028901Y0102571D01*
X0028280Y0102802D01*
X0027664Y0103048D01*
X0027055Y0103309D01*
X0026453Y0103585D01*
X0025857Y0103876D01*
X0025269Y0104181D01*
X0024688Y0104501D01*
X0024115Y0104834D01*
X0023551Y0105182D01*
X0022995Y0105544D01*
X0022449Y0105919D01*
X0021911Y0106307D01*
X0021384Y0106708D01*
X0020866Y0107123D01*
X0020359Y0107549D01*
X0019863Y0107988D01*
X0019377Y0108440D01*
X0018902Y0108902D01*
X0018440Y0109377D01*
X0017988Y0109863D01*
X0017549Y0110359D01*
X0017123Y0110866D01*
X0016708Y0111384D01*
X0016307Y0111911D01*
X0015919Y0112449D01*
X0015544Y0112995D01*
X0015182Y0113551D01*
X0014834Y0114115D01*
X0014501Y0114688D01*
X0014181Y0115269D01*
X0013876Y0115857D01*
X0013585Y0116453D01*
X0013309Y0117055D01*
X0013048Y0117664D01*
X0012802Y0118280D01*
X0012571Y0118901D01*
X0012355Y0119528D01*
X0012155Y0120160D01*
X0011970Y0120797D01*
X0011801Y0121438D01*
X0011648Y0122083D01*
X0011511Y0122731D01*
X0011390Y0123383D01*
X0011284Y0124037D01*
X0011195Y0124694D01*
X0011122Y0125353D01*
X0011065Y0126013D01*
X0011025Y0126675D01*
X0011000Y0127337D01*
X0010992Y0128000D01*
X0105992Y0128000D02*
X0106000Y0128663D01*
X0106025Y0129325D01*
X0106065Y0129987D01*
X0106122Y0130647D01*
X0106195Y0131306D01*
X0106284Y0131963D01*
X0106390Y0132617D01*
X0106511Y0133269D01*
X0106648Y0133917D01*
X0106801Y0134562D01*
X0106970Y0135203D01*
X0107155Y0135840D01*
X0107355Y0136472D01*
X0107571Y0137099D01*
X0107802Y0137720D01*
X0108048Y0138336D01*
X0108309Y0138945D01*
X0108585Y0139547D01*
X0108876Y0140143D01*
X0109181Y0140731D01*
X0109501Y0141312D01*
X0109834Y0141885D01*
X0110182Y0142449D01*
X0110544Y0143005D01*
X0110919Y0143551D01*
X0111307Y0144089D01*
X0111708Y0144616D01*
X0112123Y0145134D01*
X0112549Y0145641D01*
X0112988Y0146137D01*
X0113440Y0146623D01*
X0113902Y0147098D01*
X0114377Y0147560D01*
X0114863Y0148012D01*
X0115359Y0148451D01*
X0115866Y0148877D01*
X0116384Y0149292D01*
X0116911Y0149693D01*
X0117449Y0150081D01*
X0117995Y0150456D01*
X0118551Y0150818D01*
X0119115Y0151166D01*
X0119688Y0151499D01*
X0120269Y0151819D01*
X0120857Y0152124D01*
X0121453Y0152415D01*
X0122055Y0152691D01*
X0122664Y0152952D01*
X0123280Y0153198D01*
X0123901Y0153429D01*
X0124528Y0153645D01*
X0125160Y0153845D01*
X0125797Y0154030D01*
X0126438Y0154199D01*
X0127083Y0154352D01*
X0127731Y0154489D01*
X0128383Y0154610D01*
X0129037Y0154716D01*
X0129694Y0154805D01*
X0130353Y0154878D01*
X0131013Y0154935D01*
X0131675Y0154975D01*
X0132337Y0155000D01*
X0133000Y0155008D01*
X0133663Y0155000D01*
X0134325Y0154975D01*
X0134987Y0154935D01*
X0135647Y0154878D01*
X0136306Y0154805D01*
X0136963Y0154716D01*
X0137617Y0154610D01*
X0138269Y0154489D01*
X0138917Y0154352D01*
X0139562Y0154199D01*
X0140203Y0154030D01*
X0140840Y0153845D01*
X0141472Y0153645D01*
X0142099Y0153429D01*
X0142720Y0153198D01*
X0143336Y0152952D01*
X0143945Y0152691D01*
X0144547Y0152415D01*
X0145143Y0152124D01*
X0145731Y0151819D01*
X0146312Y0151499D01*
X0146885Y0151166D01*
X0147449Y0150818D01*
X0148005Y0150456D01*
X0148551Y0150081D01*
X0149089Y0149693D01*
X0149616Y0149292D01*
X0150134Y0148877D01*
X0150641Y0148451D01*
X0151137Y0148012D01*
X0151623Y0147560D01*
X0152098Y0147098D01*
X0152560Y0146623D01*
X0153012Y0146137D01*
X0153451Y0145641D01*
X0153877Y0145134D01*
X0154292Y0144616D01*
X0154693Y0144089D01*
X0155081Y0143551D01*
X0155456Y0143005D01*
X0155818Y0142449D01*
X0156166Y0141885D01*
X0156499Y0141312D01*
X0156819Y0140731D01*
X0157124Y0140143D01*
X0157415Y0139547D01*
X0157691Y0138945D01*
X0157952Y0138336D01*
X0158198Y0137720D01*
X0158429Y0137099D01*
X0158645Y0136472D01*
X0158845Y0135840D01*
X0159030Y0135203D01*
X0159199Y0134562D01*
X0159352Y0133917D01*
X0159489Y0133269D01*
X0159610Y0132617D01*
X0159716Y0131963D01*
X0159805Y0131306D01*
X0159878Y0130647D01*
X0159935Y0129987D01*
X0159975Y0129325D01*
X0160000Y0128663D01*
X0160008Y0128000D01*
X0160000Y0127337D01*
X0159975Y0126675D01*
X0159935Y0126013D01*
X0159878Y0125353D01*
X0159805Y0124694D01*
X0159716Y0124037D01*
X0159610Y0123383D01*
X0159489Y0122731D01*
X0159352Y0122083D01*
X0159199Y0121438D01*
X0159030Y0120797D01*
X0158845Y0120160D01*
X0158645Y0119528D01*
X0158429Y0118901D01*
X0158198Y0118280D01*
X0157952Y0117664D01*
X0157691Y0117055D01*
X0157415Y0116453D01*
X0157124Y0115857D01*
X0156819Y0115269D01*
X0156499Y0114688D01*
X0156166Y0114115D01*
X0155818Y0113551D01*
X0155456Y0112995D01*
X0155081Y0112449D01*
X0154693Y0111911D01*
X0154292Y0111384D01*
X0153877Y0110866D01*
X0153451Y0110359D01*
X0153012Y0109863D01*
X0152560Y0109377D01*
X0152098Y0108902D01*
X0151623Y0108440D01*
X0151137Y0107988D01*
X0150641Y0107549D01*
X0150134Y0107123D01*
X0149616Y0106708D01*
X0149089Y0106307D01*
X0148551Y0105919D01*
X0148005Y0105544D01*
X0147449Y0105182D01*
X0146885Y0104834D01*
X0146312Y0104501D01*
X0145731Y0104181D01*
X0145143Y0103876D01*
X0144547Y0103585D01*
X0143945Y0103309D01*
X0143336Y0103048D01*
X0142720Y0102802D01*
X0142099Y0102571D01*
X0141472Y0102355D01*
X0140840Y0102155D01*
X0140203Y0101970D01*
X0139562Y0101801D01*
X0138917Y0101648D01*
X0138269Y0101511D01*
X0137617Y0101390D01*
X0136963Y0101284D01*
X0136306Y0101195D01*
X0135647Y0101122D01*
X0134987Y0101065D01*
X0134325Y0101025D01*
X0133663Y0101000D01*
X0133000Y0100992D01*
X0132337Y0101000D01*
X0131675Y0101025D01*
X0131013Y0101065D01*
X0130353Y0101122D01*
X0129694Y0101195D01*
X0129037Y0101284D01*
X0128383Y0101390D01*
X0127731Y0101511D01*
X0127083Y0101648D01*
X0126438Y0101801D01*
X0125797Y0101970D01*
X0125160Y0102155D01*
X0124528Y0102355D01*
X0123901Y0102571D01*
X0123280Y0102802D01*
X0122664Y0103048D01*
X0122055Y0103309D01*
X0121453Y0103585D01*
X0120857Y0103876D01*
X0120269Y0104181D01*
X0119688Y0104501D01*
X0119115Y0104834D01*
X0118551Y0105182D01*
X0117995Y0105544D01*
X0117449Y0105919D01*
X0116911Y0106307D01*
X0116384Y0106708D01*
X0115866Y0107123D01*
X0115359Y0107549D01*
X0114863Y0107988D01*
X0114377Y0108440D01*
X0113902Y0108902D01*
X0113440Y0109377D01*
X0112988Y0109863D01*
X0112549Y0110359D01*
X0112123Y0110866D01*
X0111708Y0111384D01*
X0111307Y0111911D01*
X0110919Y0112449D01*
X0110544Y0112995D01*
X0110182Y0113551D01*
X0109834Y0114115D01*
X0109501Y0114688D01*
X0109181Y0115269D01*
X0108876Y0115857D01*
X0108585Y0116453D01*
X0108309Y0117055D01*
X0108048Y0117664D01*
X0107802Y0118280D01*
X0107571Y0118901D01*
X0107355Y0119528D01*
X0107155Y0120160D01*
X0106970Y0120797D01*
X0106801Y0121438D01*
X0106648Y0122083D01*
X0106511Y0122731D01*
X0106390Y0123383D01*
X0106284Y0124037D01*
X0106195Y0124694D01*
X0106122Y0125353D01*
X0106065Y0126013D01*
X0106025Y0126675D01*
X0106000Y0127337D01*
X0105992Y0128000D01*
X0190489Y0246050D02*
X0191239Y0246050D01*
X0191990Y0246801D01*
X0191990Y0250554D01*
X0191239Y0250554D02*
X0192741Y0250554D01*
X0194342Y0250554D02*
X0196594Y0250554D01*
X0197345Y0249803D01*
X0197345Y0248302D01*
X0196594Y0247551D01*
X0194342Y0247551D01*
X0194342Y0246050D02*
X0194342Y0250554D01*
X0198946Y0249053D02*
X0200447Y0250554D01*
X0200447Y0246050D01*
X0198946Y0246050D02*
X0201949Y0246050D01*
X0190489Y0246050D02*
X0189738Y0246801D01*
X0222950Y0266201D02*
X0223701Y0265450D01*
X0224451Y0265450D01*
X0225202Y0266201D01*
X0225202Y0269954D01*
X0224451Y0269954D02*
X0225953Y0269954D01*
X0227554Y0269954D02*
X0229806Y0269954D01*
X0230556Y0269203D01*
X0230556Y0267702D01*
X0229806Y0266951D01*
X0227554Y0266951D01*
X0227554Y0265450D02*
X0227554Y0269954D01*
X0232158Y0269203D02*
X0232908Y0269954D01*
X0234410Y0269954D01*
X0235160Y0269203D01*
X0235160Y0268453D01*
X0232158Y0265450D01*
X0235160Y0265450D01*
X0292950Y0266201D02*
X0293701Y0265450D01*
X0294451Y0265450D01*
X0295202Y0266201D01*
X0295202Y0269954D01*
X0294451Y0269954D02*
X0295953Y0269954D01*
X0297554Y0269954D02*
X0299806Y0269954D01*
X0300556Y0269203D01*
X0300556Y0267702D01*
X0299806Y0266951D01*
X0297554Y0266951D01*
X0297554Y0265450D02*
X0297554Y0269954D01*
X0302158Y0267702D02*
X0305160Y0267702D01*
X0304410Y0265450D02*
X0304410Y0269954D01*
X0302158Y0267702D01*
X0320992Y0240500D02*
X0321000Y0241163D01*
X0321025Y0241825D01*
X0321065Y0242487D01*
X0321122Y0243147D01*
X0321195Y0243806D01*
X0321284Y0244463D01*
X0321390Y0245117D01*
X0321511Y0245769D01*
X0321648Y0246417D01*
X0321801Y0247062D01*
X0321970Y0247703D01*
X0322155Y0248340D01*
X0322355Y0248972D01*
X0322571Y0249599D01*
X0322802Y0250220D01*
X0323048Y0250836D01*
X0323309Y0251445D01*
X0323585Y0252047D01*
X0323876Y0252643D01*
X0324181Y0253231D01*
X0324501Y0253812D01*
X0324834Y0254385D01*
X0325182Y0254949D01*
X0325544Y0255505D01*
X0325919Y0256051D01*
X0326307Y0256589D01*
X0326708Y0257116D01*
X0327123Y0257634D01*
X0327549Y0258141D01*
X0327988Y0258637D01*
X0328440Y0259123D01*
X0328902Y0259598D01*
X0329377Y0260060D01*
X0329863Y0260512D01*
X0330359Y0260951D01*
X0330866Y0261377D01*
X0331384Y0261792D01*
X0331911Y0262193D01*
X0332449Y0262581D01*
X0332995Y0262956D01*
X0333551Y0263318D01*
X0334115Y0263666D01*
X0334688Y0263999D01*
X0335269Y0264319D01*
X0335857Y0264624D01*
X0336453Y0264915D01*
X0337055Y0265191D01*
X0337664Y0265452D01*
X0338280Y0265698D01*
X0338901Y0265929D01*
X0339528Y0266145D01*
X0340160Y0266345D01*
X0340797Y0266530D01*
X0341438Y0266699D01*
X0342083Y0266852D01*
X0342731Y0266989D01*
X0343383Y0267110D01*
X0344037Y0267216D01*
X0344694Y0267305D01*
X0345353Y0267378D01*
X0346013Y0267435D01*
X0346675Y0267475D01*
X0347337Y0267500D01*
X0348000Y0267508D01*
X0348663Y0267500D01*
X0349325Y0267475D01*
X0349987Y0267435D01*
X0350647Y0267378D01*
X0351306Y0267305D01*
X0351963Y0267216D01*
X0352617Y0267110D01*
X0353269Y0266989D01*
X0353917Y0266852D01*
X0354562Y0266699D01*
X0355203Y0266530D01*
X0355840Y0266345D01*
X0356472Y0266145D01*
X0357099Y0265929D01*
X0357720Y0265698D01*
X0358336Y0265452D01*
X0358945Y0265191D01*
X0359547Y0264915D01*
X0360143Y0264624D01*
X0360731Y0264319D01*
X0361312Y0263999D01*
X0361885Y0263666D01*
X0362449Y0263318D01*
X0363005Y0262956D01*
X0363551Y0262581D01*
X0364089Y0262193D01*
X0364616Y0261792D01*
X0365134Y0261377D01*
X0365641Y0260951D01*
X0366137Y0260512D01*
X0366623Y0260060D01*
X0367098Y0259598D01*
X0367560Y0259123D01*
X0368012Y0258637D01*
X0368451Y0258141D01*
X0368877Y0257634D01*
X0369292Y0257116D01*
X0369693Y0256589D01*
X0370081Y0256051D01*
X0370456Y0255505D01*
X0370818Y0254949D01*
X0371166Y0254385D01*
X0371499Y0253812D01*
X0371819Y0253231D01*
X0372124Y0252643D01*
X0372415Y0252047D01*
X0372691Y0251445D01*
X0372952Y0250836D01*
X0373198Y0250220D01*
X0373429Y0249599D01*
X0373645Y0248972D01*
X0373845Y0248340D01*
X0374030Y0247703D01*
X0374199Y0247062D01*
X0374352Y0246417D01*
X0374489Y0245769D01*
X0374610Y0245117D01*
X0374716Y0244463D01*
X0374805Y0243806D01*
X0374878Y0243147D01*
X0374935Y0242487D01*
X0374975Y0241825D01*
X0375000Y0241163D01*
X0375008Y0240500D01*
X0375000Y0239837D01*
X0374975Y0239175D01*
X0374935Y0238513D01*
X0374878Y0237853D01*
X0374805Y0237194D01*
X0374716Y0236537D01*
X0374610Y0235883D01*
X0374489Y0235231D01*
X0374352Y0234583D01*
X0374199Y0233938D01*
X0374030Y0233297D01*
X0373845Y0232660D01*
X0373645Y0232028D01*
X0373429Y0231401D01*
X0373198Y0230780D01*
X0372952Y0230164D01*
X0372691Y0229555D01*
X0372415Y0228953D01*
X0372124Y0228357D01*
X0371819Y0227769D01*
X0371499Y0227188D01*
X0371166Y0226615D01*
X0370818Y0226051D01*
X0370456Y0225495D01*
X0370081Y0224949D01*
X0369693Y0224411D01*
X0369292Y0223884D01*
X0368877Y0223366D01*
X0368451Y0222859D01*
X0368012Y0222363D01*
X0367560Y0221877D01*
X0367098Y0221402D01*
X0366623Y0220940D01*
X0366137Y0220488D01*
X0365641Y0220049D01*
X0365134Y0219623D01*
X0364616Y0219208D01*
X0364089Y0218807D01*
X0363551Y0218419D01*
X0363005Y0218044D01*
X0362449Y0217682D01*
X0361885Y0217334D01*
X0361312Y0217001D01*
X0360731Y0216681D01*
X0360143Y0216376D01*
X0359547Y0216085D01*
X0358945Y0215809D01*
X0358336Y0215548D01*
X0357720Y0215302D01*
X0357099Y0215071D01*
X0356472Y0214855D01*
X0355840Y0214655D01*
X0355203Y0214470D01*
X0354562Y0214301D01*
X0353917Y0214148D01*
X0353269Y0214011D01*
X0352617Y0213890D01*
X0351963Y0213784D01*
X0351306Y0213695D01*
X0350647Y0213622D01*
X0349987Y0213565D01*
X0349325Y0213525D01*
X0348663Y0213500D01*
X0348000Y0213492D01*
X0347337Y0213500D01*
X0346675Y0213525D01*
X0346013Y0213565D01*
X0345353Y0213622D01*
X0344694Y0213695D01*
X0344037Y0213784D01*
X0343383Y0213890D01*
X0342731Y0214011D01*
X0342083Y0214148D01*
X0341438Y0214301D01*
X0340797Y0214470D01*
X0340160Y0214655D01*
X0339528Y0214855D01*
X0338901Y0215071D01*
X0338280Y0215302D01*
X0337664Y0215548D01*
X0337055Y0215809D01*
X0336453Y0216085D01*
X0335857Y0216376D01*
X0335269Y0216681D01*
X0334688Y0217001D01*
X0334115Y0217334D01*
X0333551Y0217682D01*
X0332995Y0218044D01*
X0332449Y0218419D01*
X0331911Y0218807D01*
X0331384Y0219208D01*
X0330866Y0219623D01*
X0330359Y0220049D01*
X0329863Y0220488D01*
X0329377Y0220940D01*
X0328902Y0221402D01*
X0328440Y0221877D01*
X0327988Y0222363D01*
X0327549Y0222859D01*
X0327123Y0223366D01*
X0326708Y0223884D01*
X0326307Y0224411D01*
X0325919Y0224949D01*
X0325544Y0225495D01*
X0325182Y0226051D01*
X0324834Y0226615D01*
X0324501Y0227188D01*
X0324181Y0227769D01*
X0323876Y0228357D01*
X0323585Y0228953D01*
X0323309Y0229555D01*
X0323048Y0230164D01*
X0322802Y0230780D01*
X0322571Y0231401D01*
X0322355Y0232028D01*
X0322155Y0232660D01*
X0321970Y0233297D01*
X0321801Y0233938D01*
X0321648Y0234583D01*
X0321511Y0235231D01*
X0321390Y0235883D01*
X0321284Y0236537D01*
X0321195Y0237194D01*
X0321122Y0237853D01*
X0321065Y0238513D01*
X0321025Y0239175D01*
X0321000Y0239837D01*
X0320992Y0240500D01*
X0278750Y0218649D02*
X0278750Y0215646D01*
X0278750Y0217147D02*
X0274246Y0217147D01*
X0275747Y0215646D01*
X0274997Y0214045D02*
X0274246Y0213294D01*
X0274246Y0211793D01*
X0274997Y0211042D01*
X0277999Y0211042D01*
X0278750Y0211793D01*
X0278750Y0213294D01*
X0277999Y0214045D01*
X0278750Y0209474D02*
X0278750Y0207973D01*
X0278750Y0208723D02*
X0274246Y0208723D01*
X0274246Y0207973D02*
X0274246Y0209474D01*
X0320992Y0175500D02*
X0321000Y0176163D01*
X0321025Y0176825D01*
X0321065Y0177487D01*
X0321122Y0178147D01*
X0321195Y0178806D01*
X0321284Y0179463D01*
X0321390Y0180117D01*
X0321511Y0180769D01*
X0321648Y0181417D01*
X0321801Y0182062D01*
X0321970Y0182703D01*
X0322155Y0183340D01*
X0322355Y0183972D01*
X0322571Y0184599D01*
X0322802Y0185220D01*
X0323048Y0185836D01*
X0323309Y0186445D01*
X0323585Y0187047D01*
X0323876Y0187643D01*
X0324181Y0188231D01*
X0324501Y0188812D01*
X0324834Y0189385D01*
X0325182Y0189949D01*
X0325544Y0190505D01*
X0325919Y0191051D01*
X0326307Y0191589D01*
X0326708Y0192116D01*
X0327123Y0192634D01*
X0327549Y0193141D01*
X0327988Y0193637D01*
X0328440Y0194123D01*
X0328902Y0194598D01*
X0329377Y0195060D01*
X0329863Y0195512D01*
X0330359Y0195951D01*
X0330866Y0196377D01*
X0331384Y0196792D01*
X0331911Y0197193D01*
X0332449Y0197581D01*
X0332995Y0197956D01*
X0333551Y0198318D01*
X0334115Y0198666D01*
X0334688Y0198999D01*
X0335269Y0199319D01*
X0335857Y0199624D01*
X0336453Y0199915D01*
X0337055Y0200191D01*
X0337664Y0200452D01*
X0338280Y0200698D01*
X0338901Y0200929D01*
X0339528Y0201145D01*
X0340160Y0201345D01*
X0340797Y0201530D01*
X0341438Y0201699D01*
X0342083Y0201852D01*
X0342731Y0201989D01*
X0343383Y0202110D01*
X0344037Y0202216D01*
X0344694Y0202305D01*
X0345353Y0202378D01*
X0346013Y0202435D01*
X0346675Y0202475D01*
X0347337Y0202500D01*
X0348000Y0202508D01*
X0348663Y0202500D01*
X0349325Y0202475D01*
X0349987Y0202435D01*
X0350647Y0202378D01*
X0351306Y0202305D01*
X0351963Y0202216D01*
X0352617Y0202110D01*
X0353269Y0201989D01*
X0353917Y0201852D01*
X0354562Y0201699D01*
X0355203Y0201530D01*
X0355840Y0201345D01*
X0356472Y0201145D01*
X0357099Y0200929D01*
X0357720Y0200698D01*
X0358336Y0200452D01*
X0358945Y0200191D01*
X0359547Y0199915D01*
X0360143Y0199624D01*
X0360731Y0199319D01*
X0361312Y0198999D01*
X0361885Y0198666D01*
X0362449Y0198318D01*
X0363005Y0197956D01*
X0363551Y0197581D01*
X0364089Y0197193D01*
X0364616Y0196792D01*
X0365134Y0196377D01*
X0365641Y0195951D01*
X0366137Y0195512D01*
X0366623Y0195060D01*
X0367098Y0194598D01*
X0367560Y0194123D01*
X0368012Y0193637D01*
X0368451Y0193141D01*
X0368877Y0192634D01*
X0369292Y0192116D01*
X0369693Y0191589D01*
X0370081Y0191051D01*
X0370456Y0190505D01*
X0370818Y0189949D01*
X0371166Y0189385D01*
X0371499Y0188812D01*
X0371819Y0188231D01*
X0372124Y0187643D01*
X0372415Y0187047D01*
X0372691Y0186445D01*
X0372952Y0185836D01*
X0373198Y0185220D01*
X0373429Y0184599D01*
X0373645Y0183972D01*
X0373845Y0183340D01*
X0374030Y0182703D01*
X0374199Y0182062D01*
X0374352Y0181417D01*
X0374489Y0180769D01*
X0374610Y0180117D01*
X0374716Y0179463D01*
X0374805Y0178806D01*
X0374878Y0178147D01*
X0374935Y0177487D01*
X0374975Y0176825D01*
X0375000Y0176163D01*
X0375008Y0175500D01*
X0375000Y0174837D01*
X0374975Y0174175D01*
X0374935Y0173513D01*
X0374878Y0172853D01*
X0374805Y0172194D01*
X0374716Y0171537D01*
X0374610Y0170883D01*
X0374489Y0170231D01*
X0374352Y0169583D01*
X0374199Y0168938D01*
X0374030Y0168297D01*
X0373845Y0167660D01*
X0373645Y0167028D01*
X0373429Y0166401D01*
X0373198Y0165780D01*
X0372952Y0165164D01*
X0372691Y0164555D01*
X0372415Y0163953D01*
X0372124Y0163357D01*
X0371819Y0162769D01*
X0371499Y0162188D01*
X0371166Y0161615D01*
X0370818Y0161051D01*
X0370456Y0160495D01*
X0370081Y0159949D01*
X0369693Y0159411D01*
X0369292Y0158884D01*
X0368877Y0158366D01*
X0368451Y0157859D01*
X0368012Y0157363D01*
X0367560Y0156877D01*
X0367098Y0156402D01*
X0366623Y0155940D01*
X0366137Y0155488D01*
X0365641Y0155049D01*
X0365134Y0154623D01*
X0364616Y0154208D01*
X0364089Y0153807D01*
X0363551Y0153419D01*
X0363005Y0153044D01*
X0362449Y0152682D01*
X0361885Y0152334D01*
X0361312Y0152001D01*
X0360731Y0151681D01*
X0360143Y0151376D01*
X0359547Y0151085D01*
X0358945Y0150809D01*
X0358336Y0150548D01*
X0357720Y0150302D01*
X0357099Y0150071D01*
X0356472Y0149855D01*
X0355840Y0149655D01*
X0355203Y0149470D01*
X0354562Y0149301D01*
X0353917Y0149148D01*
X0353269Y0149011D01*
X0352617Y0148890D01*
X0351963Y0148784D01*
X0351306Y0148695D01*
X0350647Y0148622D01*
X0349987Y0148565D01*
X0349325Y0148525D01*
X0348663Y0148500D01*
X0348000Y0148492D01*
X0347337Y0148500D01*
X0346675Y0148525D01*
X0346013Y0148565D01*
X0345353Y0148622D01*
X0344694Y0148695D01*
X0344037Y0148784D01*
X0343383Y0148890D01*
X0342731Y0149011D01*
X0342083Y0149148D01*
X0341438Y0149301D01*
X0340797Y0149470D01*
X0340160Y0149655D01*
X0339528Y0149855D01*
X0338901Y0150071D01*
X0338280Y0150302D01*
X0337664Y0150548D01*
X0337055Y0150809D01*
X0336453Y0151085D01*
X0335857Y0151376D01*
X0335269Y0151681D01*
X0334688Y0152001D01*
X0334115Y0152334D01*
X0333551Y0152682D01*
X0332995Y0153044D01*
X0332449Y0153419D01*
X0331911Y0153807D01*
X0331384Y0154208D01*
X0330866Y0154623D01*
X0330359Y0155049D01*
X0329863Y0155488D01*
X0329377Y0155940D01*
X0328902Y0156402D01*
X0328440Y0156877D01*
X0327988Y0157363D01*
X0327549Y0157859D01*
X0327123Y0158366D01*
X0326708Y0158884D01*
X0326307Y0159411D01*
X0325919Y0159949D01*
X0325544Y0160495D01*
X0325182Y0161051D01*
X0324834Y0161615D01*
X0324501Y0162188D01*
X0324181Y0162769D01*
X0323876Y0163357D01*
X0323585Y0163953D01*
X0323309Y0164555D01*
X0323048Y0165164D01*
X0322802Y0165780D01*
X0322571Y0166401D01*
X0322355Y0167028D01*
X0322155Y0167660D01*
X0321970Y0168297D01*
X0321801Y0168938D01*
X0321648Y0169583D01*
X0321511Y0170231D01*
X0321390Y0170883D01*
X0321284Y0171537D01*
X0321195Y0172194D01*
X0321122Y0172853D01*
X0321065Y0173513D01*
X0321025Y0174175D01*
X0321000Y0174837D01*
X0320992Y0175500D01*
X0325992Y0110500D02*
X0326000Y0111163D01*
X0326025Y0111825D01*
X0326065Y0112487D01*
X0326122Y0113147D01*
X0326195Y0113806D01*
X0326284Y0114463D01*
X0326390Y0115117D01*
X0326511Y0115769D01*
X0326648Y0116417D01*
X0326801Y0117062D01*
X0326970Y0117703D01*
X0327155Y0118340D01*
X0327355Y0118972D01*
X0327571Y0119599D01*
X0327802Y0120220D01*
X0328048Y0120836D01*
X0328309Y0121445D01*
X0328585Y0122047D01*
X0328876Y0122643D01*
X0329181Y0123231D01*
X0329501Y0123812D01*
X0329834Y0124385D01*
X0330182Y0124949D01*
X0330544Y0125505D01*
X0330919Y0126051D01*
X0331307Y0126589D01*
X0331708Y0127116D01*
X0332123Y0127634D01*
X0332549Y0128141D01*
X0332988Y0128637D01*
X0333440Y0129123D01*
X0333902Y0129598D01*
X0334377Y0130060D01*
X0334863Y0130512D01*
X0335359Y0130951D01*
X0335866Y0131377D01*
X0336384Y0131792D01*
X0336911Y0132193D01*
X0337449Y0132581D01*
X0337995Y0132956D01*
X0338551Y0133318D01*
X0339115Y0133666D01*
X0339688Y0133999D01*
X0340269Y0134319D01*
X0340857Y0134624D01*
X0341453Y0134915D01*
X0342055Y0135191D01*
X0342664Y0135452D01*
X0343280Y0135698D01*
X0343901Y0135929D01*
X0344528Y0136145D01*
X0345160Y0136345D01*
X0345797Y0136530D01*
X0346438Y0136699D01*
X0347083Y0136852D01*
X0347731Y0136989D01*
X0348383Y0137110D01*
X0349037Y0137216D01*
X0349694Y0137305D01*
X0350353Y0137378D01*
X0351013Y0137435D01*
X0351675Y0137475D01*
X0352337Y0137500D01*
X0353000Y0137508D01*
X0353663Y0137500D01*
X0354325Y0137475D01*
X0354987Y0137435D01*
X0355647Y0137378D01*
X0356306Y0137305D01*
X0356963Y0137216D01*
X0357617Y0137110D01*
X0358269Y0136989D01*
X0358917Y0136852D01*
X0359562Y0136699D01*
X0360203Y0136530D01*
X0360840Y0136345D01*
X0361472Y0136145D01*
X0362099Y0135929D01*
X0362720Y0135698D01*
X0363336Y0135452D01*
X0363945Y0135191D01*
X0364547Y0134915D01*
X0365143Y0134624D01*
X0365731Y0134319D01*
X0366312Y0133999D01*
X0366885Y0133666D01*
X0367449Y0133318D01*
X0368005Y0132956D01*
X0368551Y0132581D01*
X0369089Y0132193D01*
X0369616Y0131792D01*
X0370134Y0131377D01*
X0370641Y0130951D01*
X0371137Y0130512D01*
X0371623Y0130060D01*
X0372098Y0129598D01*
X0372560Y0129123D01*
X0373012Y0128637D01*
X0373451Y0128141D01*
X0373877Y0127634D01*
X0374292Y0127116D01*
X0374693Y0126589D01*
X0375081Y0126051D01*
X0375456Y0125505D01*
X0375818Y0124949D01*
X0376166Y0124385D01*
X0376499Y0123812D01*
X0376819Y0123231D01*
X0377124Y0122643D01*
X0377415Y0122047D01*
X0377691Y0121445D01*
X0377952Y0120836D01*
X0378198Y0120220D01*
X0378429Y0119599D01*
X0378645Y0118972D01*
X0378845Y0118340D01*
X0379030Y0117703D01*
X0379199Y0117062D01*
X0379352Y0116417D01*
X0379489Y0115769D01*
X0379610Y0115117D01*
X0379716Y0114463D01*
X0379805Y0113806D01*
X0379878Y0113147D01*
X0379935Y0112487D01*
X0379975Y0111825D01*
X0380000Y0111163D01*
X0380008Y0110500D01*
X0380000Y0109837D01*
X0379975Y0109175D01*
X0379935Y0108513D01*
X0379878Y0107853D01*
X0379805Y0107194D01*
X0379716Y0106537D01*
X0379610Y0105883D01*
X0379489Y0105231D01*
X0379352Y0104583D01*
X0379199Y0103938D01*
X0379030Y0103297D01*
X0378845Y0102660D01*
X0378645Y0102028D01*
X0378429Y0101401D01*
X0378198Y0100780D01*
X0377952Y0100164D01*
X0377691Y0099555D01*
X0377415Y0098953D01*
X0377124Y0098357D01*
X0376819Y0097769D01*
X0376499Y0097188D01*
X0376166Y0096615D01*
X0375818Y0096051D01*
X0375456Y0095495D01*
X0375081Y0094949D01*
X0374693Y0094411D01*
X0374292Y0093884D01*
X0373877Y0093366D01*
X0373451Y0092859D01*
X0373012Y0092363D01*
X0372560Y0091877D01*
X0372098Y0091402D01*
X0371623Y0090940D01*
X0371137Y0090488D01*
X0370641Y0090049D01*
X0370134Y0089623D01*
X0369616Y0089208D01*
X0369089Y0088807D01*
X0368551Y0088419D01*
X0368005Y0088044D01*
X0367449Y0087682D01*
X0366885Y0087334D01*
X0366312Y0087001D01*
X0365731Y0086681D01*
X0365143Y0086376D01*
X0364547Y0086085D01*
X0363945Y0085809D01*
X0363336Y0085548D01*
X0362720Y0085302D01*
X0362099Y0085071D01*
X0361472Y0084855D01*
X0360840Y0084655D01*
X0360203Y0084470D01*
X0359562Y0084301D01*
X0358917Y0084148D01*
X0358269Y0084011D01*
X0357617Y0083890D01*
X0356963Y0083784D01*
X0356306Y0083695D01*
X0355647Y0083622D01*
X0354987Y0083565D01*
X0354325Y0083525D01*
X0353663Y0083500D01*
X0353000Y0083492D01*
X0352337Y0083500D01*
X0351675Y0083525D01*
X0351013Y0083565D01*
X0350353Y0083622D01*
X0349694Y0083695D01*
X0349037Y0083784D01*
X0348383Y0083890D01*
X0347731Y0084011D01*
X0347083Y0084148D01*
X0346438Y0084301D01*
X0345797Y0084470D01*
X0345160Y0084655D01*
X0344528Y0084855D01*
X0343901Y0085071D01*
X0343280Y0085302D01*
X0342664Y0085548D01*
X0342055Y0085809D01*
X0341453Y0086085D01*
X0340857Y0086376D01*
X0340269Y0086681D01*
X0339688Y0087001D01*
X0339115Y0087334D01*
X0338551Y0087682D01*
X0337995Y0088044D01*
X0337449Y0088419D01*
X0336911Y0088807D01*
X0336384Y0089208D01*
X0335866Y0089623D01*
X0335359Y0090049D01*
X0334863Y0090488D01*
X0334377Y0090940D01*
X0333902Y0091402D01*
X0333440Y0091877D01*
X0332988Y0092363D01*
X0332549Y0092859D01*
X0332123Y0093366D01*
X0331708Y0093884D01*
X0331307Y0094411D01*
X0330919Y0094949D01*
X0330544Y0095495D01*
X0330182Y0096051D01*
X0329834Y0096615D01*
X0329501Y0097188D01*
X0329181Y0097769D01*
X0328876Y0098357D01*
X0328585Y0098953D01*
X0328309Y0099555D01*
X0328048Y0100164D01*
X0327802Y0100780D01*
X0327571Y0101401D01*
X0327355Y0102028D01*
X0327155Y0102660D01*
X0326970Y0103297D01*
X0326801Y0103938D01*
X0326648Y0104583D01*
X0326511Y0105231D01*
X0326390Y0105883D01*
X0326284Y0106537D01*
X0326195Y0107194D01*
X0326122Y0107853D01*
X0326065Y0108513D01*
X0326025Y0109175D01*
X0326000Y0109837D01*
X0325992Y0110500D01*
X0325992Y0045500D02*
X0326000Y0046163D01*
X0326025Y0046825D01*
X0326065Y0047487D01*
X0326122Y0048147D01*
X0326195Y0048806D01*
X0326284Y0049463D01*
X0326390Y0050117D01*
X0326511Y0050769D01*
X0326648Y0051417D01*
X0326801Y0052062D01*
X0326970Y0052703D01*
X0327155Y0053340D01*
X0327355Y0053972D01*
X0327571Y0054599D01*
X0327802Y0055220D01*
X0328048Y0055836D01*
X0328309Y0056445D01*
X0328585Y0057047D01*
X0328876Y0057643D01*
X0329181Y0058231D01*
X0329501Y0058812D01*
X0329834Y0059385D01*
X0330182Y0059949D01*
X0330544Y0060505D01*
X0330919Y0061051D01*
X0331307Y0061589D01*
X0331708Y0062116D01*
X0332123Y0062634D01*
X0332549Y0063141D01*
X0332988Y0063637D01*
X0333440Y0064123D01*
X0333902Y0064598D01*
X0334377Y0065060D01*
X0334863Y0065512D01*
X0335359Y0065951D01*
X0335866Y0066377D01*
X0336384Y0066792D01*
X0336911Y0067193D01*
X0337449Y0067581D01*
X0337995Y0067956D01*
X0338551Y0068318D01*
X0339115Y0068666D01*
X0339688Y0068999D01*
X0340269Y0069319D01*
X0340857Y0069624D01*
X0341453Y0069915D01*
X0342055Y0070191D01*
X0342664Y0070452D01*
X0343280Y0070698D01*
X0343901Y0070929D01*
X0344528Y0071145D01*
X0345160Y0071345D01*
X0345797Y0071530D01*
X0346438Y0071699D01*
X0347083Y0071852D01*
X0347731Y0071989D01*
X0348383Y0072110D01*
X0349037Y0072216D01*
X0349694Y0072305D01*
X0350353Y0072378D01*
X0351013Y0072435D01*
X0351675Y0072475D01*
X0352337Y0072500D01*
X0353000Y0072508D01*
X0353663Y0072500D01*
X0354325Y0072475D01*
X0354987Y0072435D01*
X0355647Y0072378D01*
X0356306Y0072305D01*
X0356963Y0072216D01*
X0357617Y0072110D01*
X0358269Y0071989D01*
X0358917Y0071852D01*
X0359562Y0071699D01*
X0360203Y0071530D01*
X0360840Y0071345D01*
X0361472Y0071145D01*
X0362099Y0070929D01*
X0362720Y0070698D01*
X0363336Y0070452D01*
X0363945Y0070191D01*
X0364547Y0069915D01*
X0365143Y0069624D01*
X0365731Y0069319D01*
X0366312Y0068999D01*
X0366885Y0068666D01*
X0367449Y0068318D01*
X0368005Y0067956D01*
X0368551Y0067581D01*
X0369089Y0067193D01*
X0369616Y0066792D01*
X0370134Y0066377D01*
X0370641Y0065951D01*
X0371137Y0065512D01*
X0371623Y0065060D01*
X0372098Y0064598D01*
X0372560Y0064123D01*
X0373012Y0063637D01*
X0373451Y0063141D01*
X0373877Y0062634D01*
X0374292Y0062116D01*
X0374693Y0061589D01*
X0375081Y0061051D01*
X0375456Y0060505D01*
X0375818Y0059949D01*
X0376166Y0059385D01*
X0376499Y0058812D01*
X0376819Y0058231D01*
X0377124Y0057643D01*
X0377415Y0057047D01*
X0377691Y0056445D01*
X0377952Y0055836D01*
X0378198Y0055220D01*
X0378429Y0054599D01*
X0378645Y0053972D01*
X0378845Y0053340D01*
X0379030Y0052703D01*
X0379199Y0052062D01*
X0379352Y0051417D01*
X0379489Y0050769D01*
X0379610Y0050117D01*
X0379716Y0049463D01*
X0379805Y0048806D01*
X0379878Y0048147D01*
X0379935Y0047487D01*
X0379975Y0046825D01*
X0380000Y0046163D01*
X0380008Y0045500D01*
X0380000Y0044837D01*
X0379975Y0044175D01*
X0379935Y0043513D01*
X0379878Y0042853D01*
X0379805Y0042194D01*
X0379716Y0041537D01*
X0379610Y0040883D01*
X0379489Y0040231D01*
X0379352Y0039583D01*
X0379199Y0038938D01*
X0379030Y0038297D01*
X0378845Y0037660D01*
X0378645Y0037028D01*
X0378429Y0036401D01*
X0378198Y0035780D01*
X0377952Y0035164D01*
X0377691Y0034555D01*
X0377415Y0033953D01*
X0377124Y0033357D01*
X0376819Y0032769D01*
X0376499Y0032188D01*
X0376166Y0031615D01*
X0375818Y0031051D01*
X0375456Y0030495D01*
X0375081Y0029949D01*
X0374693Y0029411D01*
X0374292Y0028884D01*
X0373877Y0028366D01*
X0373451Y0027859D01*
X0373012Y0027363D01*
X0372560Y0026877D01*
X0372098Y0026402D01*
X0371623Y0025940D01*
X0371137Y0025488D01*
X0370641Y0025049D01*
X0370134Y0024623D01*
X0369616Y0024208D01*
X0369089Y0023807D01*
X0368551Y0023419D01*
X0368005Y0023044D01*
X0367449Y0022682D01*
X0366885Y0022334D01*
X0366312Y0022001D01*
X0365731Y0021681D01*
X0365143Y0021376D01*
X0364547Y0021085D01*
X0363945Y0020809D01*
X0363336Y0020548D01*
X0362720Y0020302D01*
X0362099Y0020071D01*
X0361472Y0019855D01*
X0360840Y0019655D01*
X0360203Y0019470D01*
X0359562Y0019301D01*
X0358917Y0019148D01*
X0358269Y0019011D01*
X0357617Y0018890D01*
X0356963Y0018784D01*
X0356306Y0018695D01*
X0355647Y0018622D01*
X0354987Y0018565D01*
X0354325Y0018525D01*
X0353663Y0018500D01*
X0353000Y0018492D01*
X0352337Y0018500D01*
X0351675Y0018525D01*
X0351013Y0018565D01*
X0350353Y0018622D01*
X0349694Y0018695D01*
X0349037Y0018784D01*
X0348383Y0018890D01*
X0347731Y0019011D01*
X0347083Y0019148D01*
X0346438Y0019301D01*
X0345797Y0019470D01*
X0345160Y0019655D01*
X0344528Y0019855D01*
X0343901Y0020071D01*
X0343280Y0020302D01*
X0342664Y0020548D01*
X0342055Y0020809D01*
X0341453Y0021085D01*
X0340857Y0021376D01*
X0340269Y0021681D01*
X0339688Y0022001D01*
X0339115Y0022334D01*
X0338551Y0022682D01*
X0337995Y0023044D01*
X0337449Y0023419D01*
X0336911Y0023807D01*
X0336384Y0024208D01*
X0335866Y0024623D01*
X0335359Y0025049D01*
X0334863Y0025488D01*
X0334377Y0025940D01*
X0333902Y0026402D01*
X0333440Y0026877D01*
X0332988Y0027363D01*
X0332549Y0027859D01*
X0332123Y0028366D01*
X0331708Y0028884D01*
X0331307Y0029411D01*
X0330919Y0029949D01*
X0330544Y0030495D01*
X0330182Y0031051D01*
X0329834Y0031615D01*
X0329501Y0032188D01*
X0329181Y0032769D01*
X0328876Y0033357D01*
X0328585Y0033953D01*
X0328309Y0034555D01*
X0328048Y0035164D01*
X0327802Y0035780D01*
X0327571Y0036401D01*
X0327355Y0037028D01*
X0327155Y0037660D01*
X0326970Y0038297D01*
X0326801Y0038938D01*
X0326648Y0039583D01*
X0326511Y0040231D01*
X0326390Y0040883D01*
X0326284Y0041537D01*
X0326195Y0042194D01*
X0326122Y0042853D01*
X0326065Y0043513D01*
X0326025Y0044175D01*
X0326000Y0044837D01*
X0325992Y0045500D01*
D14*
X0343200Y0070700D02*
X0346269Y0075304D01*
X0347804Y0075304D02*
X0350873Y0075304D01*
X0350873Y0074537D01*
X0347804Y0071467D01*
X0347804Y0070700D01*
X0346269Y0070700D02*
X0343200Y0075304D01*
X0260873Y0057804D02*
X0259339Y0057037D01*
X0257804Y0055502D01*
X0260106Y0055502D01*
X0260873Y0054735D01*
X0260873Y0053967D01*
X0260106Y0053200D01*
X0258571Y0053200D01*
X0257804Y0053967D01*
X0257804Y0055502D01*
X0256269Y0057804D02*
X0253200Y0054735D01*
X0253967Y0055502D02*
X0256269Y0053200D01*
X0253200Y0053200D02*
X0253200Y0057804D01*
X0185873Y0055502D02*
X0182804Y0055502D01*
X0185106Y0057804D01*
X0185106Y0053200D01*
X0181269Y0053200D02*
X0178967Y0055502D01*
X0178200Y0054735D02*
X0181269Y0057804D01*
X0178200Y0057804D02*
X0178200Y0053200D01*
X0110873Y0053967D02*
X0110106Y0053200D01*
X0108571Y0053200D01*
X0107804Y0053967D01*
X0106269Y0053200D02*
X0103967Y0055502D01*
X0103200Y0054735D02*
X0106269Y0057804D01*
X0107804Y0057037D02*
X0108571Y0057804D01*
X0110106Y0057804D01*
X0110873Y0057037D01*
X0110873Y0056269D01*
X0110106Y0055502D01*
X0110873Y0054735D01*
X0110873Y0053967D01*
X0110106Y0055502D02*
X0109339Y0055502D01*
X0103200Y0057804D02*
X0103200Y0053200D01*
X0035873Y0053200D02*
X0032804Y0053200D01*
X0034339Y0053200D02*
X0034339Y0057804D01*
X0032804Y0056269D01*
X0031269Y0057804D02*
X0028200Y0054735D01*
X0028967Y0055502D02*
X0031269Y0053200D01*
X0028200Y0053200D02*
X0028200Y0057804D01*
X0028200Y0153200D02*
X0031269Y0157804D01*
X0032804Y0157037D02*
X0033571Y0157804D01*
X0035106Y0157804D01*
X0035873Y0157037D01*
X0035873Y0156269D01*
X0032804Y0153200D01*
X0035873Y0153200D01*
X0031269Y0153200D02*
X0028200Y0157804D01*
X0028200Y0223200D02*
X0031269Y0227804D01*
X0032804Y0226269D02*
X0034339Y0227804D01*
X0034339Y0223200D01*
X0035873Y0223200D02*
X0032804Y0223200D01*
X0031269Y0223200D02*
X0028200Y0227804D01*
X0123200Y0227804D02*
X0126269Y0223200D01*
X0127804Y0223967D02*
X0128571Y0223200D01*
X0130106Y0223200D01*
X0130873Y0223967D01*
X0130873Y0224735D01*
X0130106Y0225502D01*
X0129339Y0225502D01*
X0130106Y0225502D02*
X0130873Y0226269D01*
X0130873Y0227037D01*
X0130106Y0227804D01*
X0128571Y0227804D01*
X0127804Y0227037D01*
X0126269Y0227804D02*
X0123200Y0223200D01*
X0123200Y0157804D02*
X0126269Y0153200D01*
X0127804Y0155502D02*
X0130873Y0155502D01*
X0130106Y0157804D02*
X0127804Y0155502D01*
X0126269Y0157804D02*
X0123200Y0153200D01*
X0130106Y0153200D02*
X0130106Y0157804D01*
X0338200Y0200700D02*
X0341269Y0205304D01*
X0342804Y0203002D02*
X0345106Y0203002D01*
X0345873Y0202235D01*
X0345873Y0201467D01*
X0345106Y0200700D01*
X0343571Y0200700D01*
X0342804Y0201467D01*
X0342804Y0203002D01*
X0344339Y0204537D01*
X0345873Y0205304D01*
X0341269Y0200700D02*
X0338200Y0205304D01*
X0338200Y0265700D02*
X0341269Y0270304D01*
X0342804Y0270304D02*
X0342804Y0268002D01*
X0344339Y0268769D01*
X0345106Y0268769D01*
X0345873Y0268002D01*
X0345873Y0266467D01*
X0345106Y0265700D01*
X0343571Y0265700D01*
X0342804Y0266467D01*
X0341269Y0265700D02*
X0338200Y0270304D01*
X0342804Y0270304D02*
X0345873Y0270304D01*
X0346269Y0140304D02*
X0343200Y0135700D01*
X0346269Y0135700D02*
X0343200Y0140304D01*
X0347804Y0139537D02*
X0347804Y0138769D01*
X0348571Y0138002D01*
X0350106Y0138002D01*
X0350873Y0137235D01*
X0350873Y0136467D01*
X0350106Y0135700D01*
X0348571Y0135700D01*
X0347804Y0136467D01*
X0347804Y0137235D01*
X0348571Y0138002D01*
X0350106Y0138002D02*
X0350873Y0138769D01*
X0350873Y0139537D01*
X0350106Y0140304D01*
X0348571Y0140304D01*
X0347804Y0139537D01*
D15*
X0018000Y0018000D03*
X0098000Y0018000D03*
X0178000Y0018000D03*
X0253000Y0018000D03*
D16*
X0193500Y0168000D02*
X0172500Y0168000D01*
X0172500Y0178000D01*
X0193500Y0178000D01*
X0193500Y0168000D01*
X0183000Y0170500D02*
X0183000Y0175500D01*
M02*
