G75*
%MOIN*%
%OFA0B0*%
%FSLAX25Y25*%
%IPPOS*%
%LPD*%
%AMOC8*
5,1,8,0,0,1.08239X$1,22.5*
%
%ADD10C,0.05200*%
%ADD11C,0.07400*%
%ADD12C,0.05150*%
%ADD13C,0.07677*%
%ADD14C,0.13606*%
%ADD15C,0.06500*%
%ADD16R,0.06500X0.06500*%
%ADD17C,0.08000*%
%ADD18C,0.04000*%
%ADD19R,0.05906X0.05906*%
%ADD20R,0.05315X0.05315*%
%ADD21C,0.06496*%
D10*
X0188000Y0190400D02*
X0188000Y0195600D01*
X0198000Y0195600D02*
X0198000Y0190400D01*
X0208000Y0190400D02*
X0208000Y0195600D01*
X0218000Y0195600D02*
X0218000Y0190400D01*
X0228000Y0190400D02*
X0228000Y0195600D01*
X0238000Y0195600D02*
X0238000Y0190400D01*
X0248000Y0190400D02*
X0248000Y0195600D01*
X0258000Y0195600D02*
X0258000Y0190400D01*
X0268000Y0190400D02*
X0268000Y0195600D01*
X0268000Y0220400D02*
X0268000Y0225600D01*
X0258000Y0225600D02*
X0258000Y0220400D01*
X0248000Y0220400D02*
X0248000Y0225600D01*
X0238000Y0225600D02*
X0238000Y0220400D01*
X0228000Y0220400D02*
X0228000Y0225600D01*
X0218000Y0225600D02*
X0218000Y0220400D01*
X0208000Y0220400D02*
X0208000Y0225600D01*
X0198000Y0225600D02*
X0198000Y0220400D01*
X0188000Y0220400D02*
X0188000Y0225600D01*
D11*
X0188000Y0258000D03*
X0198000Y0258000D03*
X0228000Y0258000D03*
X0238000Y0258000D03*
X0248000Y0258000D03*
X0258000Y0258000D03*
X0268000Y0258000D03*
X0298000Y0258000D03*
X0308000Y0258000D03*
D12*
X0293000Y0065575D02*
X0293000Y0060425D01*
X0283000Y0060425D02*
X0283000Y0065575D01*
X0273000Y0065575D02*
X0273000Y0060425D01*
X0273000Y0045575D02*
X0273000Y0040425D01*
X0283000Y0040425D02*
X0283000Y0045575D01*
X0293000Y0045575D02*
X0293000Y0040425D01*
X0253000Y0040425D02*
X0253000Y0045575D01*
X0253000Y0060425D02*
X0253000Y0065575D01*
X0218000Y0065575D02*
X0218000Y0060425D01*
X0208000Y0060425D02*
X0208000Y0065575D01*
X0198000Y0065575D02*
X0198000Y0060425D01*
X0198000Y0045575D02*
X0198000Y0040425D01*
X0208000Y0040425D02*
X0208000Y0045575D01*
X0218000Y0045575D02*
X0218000Y0040425D01*
X0178000Y0040425D02*
X0178000Y0045575D01*
X0178000Y0060425D02*
X0178000Y0065575D01*
X0143000Y0065575D02*
X0143000Y0060425D01*
X0133000Y0060425D02*
X0133000Y0065575D01*
X0123000Y0065575D02*
X0123000Y0060425D01*
X0123000Y0045575D02*
X0123000Y0040425D01*
X0133000Y0040425D02*
X0133000Y0045575D01*
X0143000Y0045575D02*
X0143000Y0040425D01*
X0103000Y0040425D02*
X0103000Y0045575D01*
X0103000Y0060425D02*
X0103000Y0065575D01*
X0068000Y0065575D02*
X0068000Y0060425D01*
X0058000Y0060425D02*
X0058000Y0065575D01*
X0048000Y0065575D02*
X0048000Y0060425D01*
X0048000Y0045575D02*
X0048000Y0040425D01*
X0058000Y0040425D02*
X0058000Y0045575D01*
X0068000Y0045575D02*
X0068000Y0040425D01*
X0028000Y0040425D02*
X0028000Y0045575D01*
X0028000Y0060425D02*
X0028000Y0065575D01*
D13*
X0038000Y0128000D03*
X0133000Y0128000D03*
X0133000Y0198000D03*
X0038000Y0198000D03*
X0348000Y0175500D03*
X0348000Y0240500D03*
X0353000Y0110500D03*
X0353000Y0045500D03*
D14*
X0339496Y0059004D03*
X0366504Y0059004D03*
X0366504Y0031996D03*
X0339496Y0031996D03*
X0339496Y0096996D03*
X0366504Y0096996D03*
X0366504Y0124004D03*
X0339496Y0124004D03*
X0334496Y0161996D03*
X0361504Y0161996D03*
X0361504Y0189004D03*
X0334496Y0189004D03*
X0334496Y0226996D03*
X0361504Y0226996D03*
X0361504Y0254004D03*
X0334496Y0254004D03*
X0146504Y0211504D03*
X0119496Y0211504D03*
X0119496Y0184496D03*
X0146504Y0184496D03*
X0146504Y0141504D03*
X0119496Y0141504D03*
X0119496Y0114496D03*
X0146504Y0114496D03*
X0051504Y0114496D03*
X0024496Y0114496D03*
X0024496Y0141504D03*
X0051504Y0141504D03*
X0051504Y0184496D03*
X0024496Y0184496D03*
X0024496Y0211504D03*
X0051504Y0211504D03*
D15*
X0178000Y0243000D03*
D16*
X0168000Y0243000D03*
D17*
X0177500Y0173000D03*
X0188500Y0173000D03*
D18*
X0010000Y0038047D02*
X0010000Y0010000D01*
X0374976Y0010000D01*
X0373933Y0011043D01*
X0372441Y0013627D01*
X0371669Y0016508D01*
X0371669Y0019492D01*
X0372441Y0022373D01*
X0373933Y0024957D01*
X0376043Y0027067D01*
X0378627Y0028559D01*
X0381508Y0029331D01*
X0384492Y0029331D01*
X0387373Y0028559D01*
X0389701Y0027215D01*
X0389701Y0253785D01*
X0387373Y0252441D01*
X0384492Y0251669D01*
X0381508Y0251669D01*
X0378627Y0252441D01*
X0376043Y0253933D01*
X0373933Y0256043D01*
X0372441Y0258627D01*
X0371669Y0261508D01*
X0371669Y0264492D01*
X0372441Y0267373D01*
X0373933Y0269957D01*
X0374937Y0270961D01*
X0026063Y0270961D01*
X0027067Y0269957D01*
X0028559Y0267373D01*
X0029331Y0264492D01*
X0029331Y0261508D01*
X0028559Y0258627D01*
X0027067Y0256043D01*
X0024957Y0253933D01*
X0022373Y0252441D01*
X0019492Y0251669D01*
X0016508Y0251669D01*
X0013627Y0252441D01*
X0011043Y0253933D01*
X0010000Y0254976D01*
X0010000Y0242953D01*
X0017345Y0242953D01*
X0019645Y0242000D01*
X0116355Y0242000D01*
X0118655Y0242953D01*
X0127345Y0242953D01*
X0129918Y0241887D01*
X0131887Y0239918D01*
X0132953Y0237345D01*
X0132953Y0228655D01*
X0131887Y0226082D01*
X0129918Y0224113D01*
X0127345Y0223047D01*
X0118655Y0223047D01*
X0116355Y0224000D01*
X0019645Y0224000D01*
X0017345Y0223047D01*
X0010000Y0223047D01*
X0010000Y0092953D01*
X0017345Y0092953D01*
X0019918Y0091887D01*
X0021887Y0089918D01*
X0022953Y0087345D01*
X0022953Y0080775D01*
X0028578Y0075150D01*
X0029905Y0075150D01*
X0033424Y0073692D01*
X0036117Y0070998D01*
X0037575Y0067479D01*
X0037575Y0058521D01*
X0036117Y0055002D01*
X0034116Y0053000D01*
X0036117Y0050998D01*
X0037575Y0047479D01*
X0037575Y0038521D01*
X0037003Y0037139D01*
X0037953Y0034845D01*
X0037953Y0026155D01*
X0036887Y0023582D01*
X0034918Y0021613D01*
X0032345Y0020547D01*
X0023655Y0020547D01*
X0021082Y0021613D01*
X0019113Y0023582D01*
X0018047Y0026155D01*
X0018047Y0034845D01*
X0018997Y0037139D01*
X0018434Y0038498D01*
X0017345Y0038047D01*
X0010000Y0038047D01*
X0010000Y0034988D02*
X0018106Y0034988D01*
X0018047Y0030990D02*
X0010000Y0030990D01*
X0010000Y0026991D02*
X0018047Y0026991D01*
X0019702Y0022993D02*
X0010000Y0022993D01*
X0010000Y0018994D02*
X0057343Y0018994D01*
X0057441Y0018627D02*
X0058933Y0016043D01*
X0061043Y0013933D01*
X0063627Y0012441D01*
X0066508Y0011669D01*
X0069492Y0011669D01*
X0072373Y0012441D01*
X0074957Y0013933D01*
X0077067Y0016043D01*
X0078559Y0018627D01*
X0079331Y0021508D01*
X0079331Y0024492D01*
X0078559Y0027373D01*
X0077067Y0029957D01*
X0074957Y0032067D01*
X0073832Y0032716D01*
X0076117Y0035002D01*
X0077575Y0038521D01*
X0077575Y0045153D01*
X0078047Y0045349D01*
X0078047Y0043655D01*
X0079113Y0041082D01*
X0081082Y0039113D01*
X0083655Y0038047D01*
X0092345Y0038047D01*
X0093434Y0038498D01*
X0094883Y0035002D01*
X0097576Y0032308D01*
X0101095Y0030850D01*
X0104905Y0030850D01*
X0108424Y0032308D01*
X0109163Y0033047D01*
X0114845Y0033047D01*
X0116254Y0033631D01*
X0117576Y0032308D01*
X0121095Y0030850D01*
X0124905Y0030850D01*
X0128000Y0032133D01*
X0131095Y0030850D01*
X0134905Y0030850D01*
X0138000Y0032133D01*
X0141095Y0030850D01*
X0144905Y0030850D01*
X0146684Y0031588D01*
X0147902Y0030370D01*
X0155370Y0022902D01*
X0155370Y0022902D01*
X0157902Y0020370D01*
X0161210Y0019000D01*
X0199790Y0019000D01*
X0203098Y0020370D01*
X0205630Y0022902D01*
X0207000Y0026210D01*
X0207000Y0026272D01*
X0210370Y0022902D01*
X0212902Y0020370D01*
X0216210Y0019000D01*
X0274790Y0019000D01*
X0278098Y0020370D01*
X0288098Y0030370D01*
X0289316Y0031588D01*
X0291095Y0030850D01*
X0294905Y0030850D01*
X0298424Y0032308D01*
X0300116Y0034000D01*
X0329898Y0034000D01*
X0329816Y0033641D01*
X0329693Y0032547D01*
X0329693Y0032398D01*
X0339094Y0032398D01*
X0339094Y0031594D01*
X0339898Y0031594D01*
X0339898Y0022193D01*
X0340047Y0022193D01*
X0341141Y0022316D01*
X0342214Y0022561D01*
X0343253Y0022925D01*
X0344245Y0023403D01*
X0345178Y0023988D01*
X0346039Y0024675D01*
X0346817Y0025453D01*
X0347504Y0026314D01*
X0348090Y0027247D01*
X0348567Y0028239D01*
X0348931Y0029278D01*
X0349176Y0030351D01*
X0349299Y0031446D01*
X0349299Y0031594D01*
X0339898Y0031594D01*
X0339898Y0032398D01*
X0349299Y0032398D01*
X0349299Y0032547D01*
X0349176Y0033641D01*
X0349094Y0034000D01*
X0349790Y0034000D01*
X0351460Y0034692D01*
X0351573Y0034661D01*
X0354427Y0034661D01*
X0357184Y0035400D01*
X0357341Y0035491D01*
X0357069Y0034714D01*
X0356824Y0033641D01*
X0356701Y0032547D01*
X0356701Y0032398D01*
X0366102Y0032398D01*
X0366102Y0041799D01*
X0365953Y0041799D01*
X0364859Y0041676D01*
X0363786Y0041431D01*
X0363009Y0041159D01*
X0363100Y0041316D01*
X0363839Y0044073D01*
X0363839Y0046927D01*
X0363100Y0049684D01*
X0363009Y0049841D01*
X0363786Y0049569D01*
X0364859Y0049324D01*
X0365953Y0049201D01*
X0366102Y0049201D01*
X0366102Y0058602D01*
X0356701Y0058602D01*
X0356701Y0058453D01*
X0356824Y0057359D01*
X0357069Y0056286D01*
X0357341Y0055509D01*
X0357184Y0055600D01*
X0354427Y0056339D01*
X0351573Y0056339D01*
X0348816Y0055600D01*
X0348659Y0055509D01*
X0348931Y0056286D01*
X0349176Y0057359D01*
X0349299Y0058453D01*
X0349299Y0058602D01*
X0339898Y0058602D01*
X0339898Y0059406D01*
X0349299Y0059406D01*
X0349299Y0059554D01*
X0349176Y0060649D01*
X0348931Y0061722D01*
X0348567Y0062761D01*
X0348090Y0063753D01*
X0347504Y0064686D01*
X0346817Y0065547D01*
X0346039Y0066325D01*
X0345178Y0067012D01*
X0344245Y0067597D01*
X0343253Y0068075D01*
X0342214Y0068439D01*
X0341361Y0068633D01*
X0341728Y0069000D01*
X0354790Y0069000D01*
X0358098Y0070370D01*
X0360630Y0072902D01*
X0362000Y0076210D01*
X0362000Y0088284D01*
X0362747Y0087925D01*
X0363786Y0087561D01*
X0364859Y0087316D01*
X0365953Y0087193D01*
X0366102Y0087193D01*
X0366102Y0096594D01*
X0366906Y0096594D01*
X0366906Y0097398D01*
X0376307Y0097398D01*
X0376307Y0097547D01*
X0376184Y0098641D01*
X0375939Y0099714D01*
X0375575Y0100753D01*
X0375097Y0101745D01*
X0374512Y0102678D01*
X0373825Y0103539D01*
X0373047Y0104317D01*
X0372186Y0105004D01*
X0371253Y0105590D01*
X0370261Y0106067D01*
X0369222Y0106431D01*
X0368149Y0106676D01*
X0367054Y0106799D01*
X0366906Y0106799D01*
X0366906Y0097398D01*
X0366102Y0097398D01*
X0366102Y0106799D01*
X0365953Y0106799D01*
X0364859Y0106676D01*
X0363786Y0106431D01*
X0363009Y0106159D01*
X0363100Y0106316D01*
X0363839Y0109073D01*
X0363839Y0111927D01*
X0363100Y0114684D01*
X0363009Y0114841D01*
X0363786Y0114569D01*
X0364859Y0114324D01*
X0365953Y0114201D01*
X0366102Y0114201D01*
X0366102Y0123602D01*
X0356701Y0123602D01*
X0356701Y0123453D01*
X0356824Y0122359D01*
X0357069Y0121286D01*
X0357341Y0120509D01*
X0357184Y0120600D01*
X0354427Y0121339D01*
X0351573Y0121339D01*
X0348816Y0120600D01*
X0348659Y0120509D01*
X0348931Y0121286D01*
X0349176Y0122359D01*
X0349299Y0123453D01*
X0349299Y0123602D01*
X0339898Y0123602D01*
X0339898Y0124406D01*
X0339094Y0124406D01*
X0339094Y0133807D01*
X0338946Y0133807D01*
X0337851Y0133684D01*
X0336778Y0133439D01*
X0335739Y0133075D01*
X0334747Y0132597D01*
X0333814Y0132012D01*
X0332953Y0131325D01*
X0332175Y0130547D01*
X0331488Y0129686D01*
X0330903Y0128753D01*
X0330425Y0127761D01*
X0330061Y0126722D01*
X0329816Y0125649D01*
X0329693Y0124554D01*
X0329693Y0124406D01*
X0339094Y0124406D01*
X0339094Y0123602D01*
X0329693Y0123602D01*
X0329693Y0123453D01*
X0329816Y0122359D01*
X0330061Y0121286D01*
X0330425Y0120247D01*
X0330903Y0119254D01*
X0331488Y0118322D01*
X0332175Y0117461D01*
X0332953Y0116683D01*
X0333814Y0115996D01*
X0334747Y0115410D01*
X0335739Y0114933D01*
X0336778Y0114569D01*
X0337851Y0114324D01*
X0338946Y0114201D01*
X0339094Y0114201D01*
X0339094Y0123602D01*
X0339898Y0123602D01*
X0339898Y0114201D01*
X0340047Y0114201D01*
X0341141Y0114324D01*
X0342214Y0114569D01*
X0342991Y0114841D01*
X0342900Y0114684D01*
X0342161Y0111927D01*
X0342161Y0109073D01*
X0342900Y0106316D01*
X0342991Y0106159D01*
X0342214Y0106431D01*
X0341141Y0106676D01*
X0340047Y0106799D01*
X0339898Y0106799D01*
X0339898Y0097398D01*
X0339094Y0097398D01*
X0339094Y0096594D01*
X0339898Y0096594D01*
X0339898Y0087193D01*
X0340047Y0087193D01*
X0341141Y0087316D01*
X0342214Y0087561D01*
X0343253Y0087925D01*
X0344000Y0088284D01*
X0344000Y0087000D01*
X0336210Y0087000D01*
X0332902Y0085630D01*
X0330370Y0083098D01*
X0319272Y0072000D01*
X0300116Y0072000D01*
X0298424Y0073692D01*
X0294905Y0075150D01*
X0292953Y0075150D01*
X0292953Y0082345D01*
X0291887Y0084918D01*
X0289918Y0086887D01*
X0287345Y0087953D01*
X0282000Y0087953D01*
X0282000Y0114272D01*
X0325601Y0157873D01*
X0325903Y0157247D01*
X0326488Y0156314D01*
X0327175Y0155453D01*
X0327953Y0154675D01*
X0328814Y0153988D01*
X0329747Y0153403D01*
X0330739Y0152925D01*
X0331778Y0152561D01*
X0332851Y0152316D01*
X0333946Y0152193D01*
X0334094Y0152193D01*
X0334094Y0161594D01*
X0334898Y0161594D01*
X0334898Y0152193D01*
X0335047Y0152193D01*
X0336141Y0152316D01*
X0337214Y0152561D01*
X0338253Y0152925D01*
X0339245Y0153403D01*
X0340178Y0153988D01*
X0341039Y0154675D01*
X0341817Y0155453D01*
X0342504Y0156314D01*
X0343090Y0157247D01*
X0343567Y0158239D01*
X0343931Y0159278D01*
X0344176Y0160351D01*
X0344299Y0161446D01*
X0344299Y0161594D01*
X0334898Y0161594D01*
X0334898Y0162398D01*
X0344299Y0162398D01*
X0344299Y0162547D01*
X0344176Y0163641D01*
X0343931Y0164714D01*
X0343659Y0165491D01*
X0343816Y0165400D01*
X0346573Y0164661D01*
X0349427Y0164661D01*
X0352184Y0165400D01*
X0352341Y0165491D01*
X0352069Y0164714D01*
X0351824Y0163641D01*
X0351701Y0162547D01*
X0351701Y0162398D01*
X0361102Y0162398D01*
X0361102Y0171799D01*
X0360953Y0171799D01*
X0359859Y0171676D01*
X0358786Y0171431D01*
X0358009Y0171159D01*
X0358100Y0171316D01*
X0358839Y0174073D01*
X0358839Y0176927D01*
X0358100Y0179684D01*
X0358009Y0179841D01*
X0358786Y0179569D01*
X0359859Y0179324D01*
X0360953Y0179201D01*
X0361102Y0179201D01*
X0361102Y0188602D01*
X0351701Y0188602D01*
X0351701Y0188453D01*
X0351824Y0187359D01*
X0352069Y0186286D01*
X0352341Y0185509D01*
X0352184Y0185600D01*
X0349427Y0186339D01*
X0346573Y0186339D01*
X0343816Y0185600D01*
X0343659Y0185509D01*
X0343931Y0186286D01*
X0344176Y0187359D01*
X0344299Y0188453D01*
X0344299Y0188602D01*
X0334898Y0188602D01*
X0334898Y0189406D01*
X0334094Y0189406D01*
X0334094Y0198807D01*
X0333946Y0198807D01*
X0332851Y0198684D01*
X0332000Y0198489D01*
X0332000Y0217511D01*
X0332851Y0217316D01*
X0333946Y0217193D01*
X0334094Y0217193D01*
X0334094Y0226594D01*
X0334898Y0226594D01*
X0334898Y0217193D01*
X0335047Y0217193D01*
X0336141Y0217316D01*
X0337214Y0217561D01*
X0338253Y0217925D01*
X0339245Y0218403D01*
X0340178Y0218988D01*
X0341039Y0219675D01*
X0341817Y0220453D01*
X0342504Y0221314D01*
X0343090Y0222247D01*
X0343567Y0223239D01*
X0343931Y0224278D01*
X0344176Y0225351D01*
X0344299Y0226446D01*
X0344299Y0226594D01*
X0334898Y0226594D01*
X0334898Y0227398D01*
X0344299Y0227398D01*
X0344299Y0227547D01*
X0344176Y0228641D01*
X0344094Y0229000D01*
X0351906Y0229000D01*
X0351824Y0228641D01*
X0351701Y0227547D01*
X0351701Y0227398D01*
X0361102Y0227398D01*
X0361102Y0226594D01*
X0361906Y0226594D01*
X0361906Y0227398D01*
X0371307Y0227398D01*
X0371307Y0227547D01*
X0371184Y0228641D01*
X0370939Y0229714D01*
X0370575Y0230753D01*
X0370097Y0231745D01*
X0369512Y0232678D01*
X0368825Y0233539D01*
X0368047Y0234317D01*
X0367186Y0235004D01*
X0366253Y0235590D01*
X0365261Y0236067D01*
X0364500Y0236334D01*
X0364500Y0236539D01*
X0364604Y0236852D01*
X0364500Y0238319D01*
X0364500Y0239790D01*
X0364374Y0240095D01*
X0364350Y0240424D01*
X0363693Y0241739D01*
X0363130Y0243098D01*
X0362897Y0243331D01*
X0362749Y0243626D01*
X0362083Y0244204D01*
X0363149Y0244324D01*
X0364222Y0244569D01*
X0365261Y0244933D01*
X0366253Y0245410D01*
X0367186Y0245996D01*
X0368047Y0246683D01*
X0368825Y0247461D01*
X0369512Y0248322D01*
X0370097Y0249254D01*
X0370575Y0250247D01*
X0370939Y0251286D01*
X0371184Y0252359D01*
X0371307Y0253453D01*
X0371307Y0253602D01*
X0361906Y0253602D01*
X0361906Y0254406D01*
X0361102Y0254406D01*
X0361102Y0263807D01*
X0360953Y0263807D01*
X0359859Y0263684D01*
X0358786Y0263439D01*
X0357747Y0263075D01*
X0356754Y0262597D01*
X0355822Y0262012D01*
X0354961Y0261325D01*
X0354183Y0260547D01*
X0353496Y0259686D01*
X0352910Y0258753D01*
X0352433Y0257761D01*
X0352069Y0256722D01*
X0351824Y0255649D01*
X0351701Y0254554D01*
X0351701Y0254406D01*
X0361102Y0254406D01*
X0361102Y0253602D01*
X0351701Y0253602D01*
X0351701Y0253453D01*
X0351824Y0252359D01*
X0352069Y0251286D01*
X0352341Y0250509D01*
X0352184Y0250600D01*
X0349427Y0251339D01*
X0346573Y0251339D01*
X0343816Y0250600D01*
X0343659Y0250509D01*
X0343931Y0251286D01*
X0344176Y0252359D01*
X0344299Y0253453D01*
X0344299Y0253602D01*
X0334898Y0253602D01*
X0334898Y0254406D01*
X0334094Y0254406D01*
X0334094Y0263807D01*
X0333946Y0263807D01*
X0332851Y0263684D01*
X0331778Y0263439D01*
X0330739Y0263075D01*
X0329747Y0262597D01*
X0328814Y0262012D01*
X0327953Y0261325D01*
X0327175Y0260547D01*
X0326488Y0259686D01*
X0325903Y0258753D01*
X0325425Y0257761D01*
X0325061Y0256722D01*
X0324816Y0255649D01*
X0324693Y0254554D01*
X0324693Y0254406D01*
X0334094Y0254406D01*
X0334094Y0253602D01*
X0324693Y0253602D01*
X0324693Y0253453D01*
X0324816Y0252359D01*
X0325061Y0251286D01*
X0325425Y0250247D01*
X0325903Y0249254D01*
X0326488Y0248322D01*
X0327175Y0247461D01*
X0327636Y0247000D01*
X0326210Y0247000D01*
X0322902Y0245630D01*
X0320370Y0243098D01*
X0317000Y0239728D01*
X0317000Y0252188D01*
X0317971Y0253870D01*
X0318700Y0256591D01*
X0318700Y0259409D01*
X0317971Y0262130D01*
X0316562Y0264570D01*
X0314570Y0266562D01*
X0312130Y0267971D01*
X0309409Y0268700D01*
X0306591Y0268700D01*
X0303870Y0267971D01*
X0303000Y0267469D01*
X0302130Y0267971D01*
X0299409Y0268700D01*
X0296591Y0268700D01*
X0293870Y0267971D01*
X0291430Y0266562D01*
X0289438Y0264570D01*
X0288029Y0262130D01*
X0287300Y0259409D01*
X0287300Y0256591D01*
X0288029Y0253870D01*
X0289000Y0252188D01*
X0289000Y0191728D01*
X0267725Y0170453D01*
X0267000Y0170453D01*
X0267000Y0180800D01*
X0269910Y0180800D01*
X0273438Y0182262D01*
X0276138Y0184962D01*
X0277600Y0188490D01*
X0277600Y0197510D01*
X0276138Y0201038D01*
X0273438Y0203738D01*
X0269910Y0205200D01*
X0266090Y0205200D01*
X0263000Y0203920D01*
X0259910Y0205200D01*
X0256090Y0205200D01*
X0253000Y0203920D01*
X0249910Y0205200D01*
X0246090Y0205200D01*
X0243000Y0203920D01*
X0239910Y0205200D01*
X0236090Y0205200D01*
X0233000Y0203920D01*
X0229910Y0205200D01*
X0226090Y0205200D01*
X0223000Y0203920D01*
X0219910Y0205200D01*
X0216090Y0205200D01*
X0213000Y0203920D01*
X0209910Y0205200D01*
X0206090Y0205200D01*
X0203000Y0203920D01*
X0199910Y0205200D01*
X0196090Y0205200D01*
X0193000Y0203920D01*
X0189910Y0205200D01*
X0188528Y0205200D01*
X0187953Y0205775D01*
X0187953Y0207345D01*
X0186887Y0209918D01*
X0184918Y0211887D01*
X0182345Y0212953D01*
X0173655Y0212953D01*
X0171082Y0211887D01*
X0169113Y0209918D01*
X0168047Y0207345D01*
X0168047Y0198655D01*
X0169113Y0196082D01*
X0171082Y0194113D01*
X0173655Y0193047D01*
X0175225Y0193047D01*
X0178400Y0189872D01*
X0178400Y0188490D01*
X0179000Y0187042D01*
X0179000Y0179845D01*
X0178869Y0179880D01*
X0177959Y0180000D01*
X0177500Y0180000D01*
X0177500Y0174448D01*
X0177500Y0173000D01*
X0177500Y0173000D01*
X0177500Y0173000D01*
X0170500Y0173000D01*
X0170500Y0173459D01*
X0170620Y0174369D01*
X0170857Y0175255D01*
X0171208Y0176103D01*
X0171667Y0176897D01*
X0172226Y0177625D01*
X0172875Y0178274D01*
X0173603Y0178833D01*
X0174397Y0179292D01*
X0175245Y0179643D01*
X0176131Y0179880D01*
X0177041Y0180000D01*
X0177500Y0180000D01*
X0177500Y0173000D01*
X0170500Y0173000D01*
X0170500Y0172541D01*
X0170620Y0171631D01*
X0170857Y0170745D01*
X0170978Y0170453D01*
X0166155Y0170453D01*
X0163855Y0169500D01*
X0076210Y0169500D01*
X0072902Y0168130D01*
X0070370Y0165598D01*
X0069000Y0162290D01*
X0069000Y0147145D01*
X0068047Y0144845D01*
X0068047Y0137000D01*
X0060216Y0137000D01*
X0060575Y0137747D01*
X0060939Y0138786D01*
X0061184Y0139859D01*
X0061307Y0140953D01*
X0061307Y0141102D01*
X0051906Y0141102D01*
X0051906Y0141906D01*
X0051102Y0141906D01*
X0051102Y0151307D01*
X0050953Y0151307D01*
X0049859Y0151184D01*
X0048786Y0150939D01*
X0047747Y0150575D01*
X0046754Y0150097D01*
X0045822Y0149512D01*
X0044961Y0148825D01*
X0044183Y0148047D01*
X0043496Y0147186D01*
X0042910Y0146253D01*
X0042433Y0145261D01*
X0042069Y0144222D01*
X0041824Y0143149D01*
X0041701Y0142054D01*
X0041701Y0141906D01*
X0051102Y0141906D01*
X0051102Y0141102D01*
X0041701Y0141102D01*
X0041701Y0140953D01*
X0041824Y0139859D01*
X0042069Y0138786D01*
X0042341Y0138009D01*
X0042184Y0138100D01*
X0039427Y0138839D01*
X0036573Y0138839D01*
X0033816Y0138100D01*
X0033659Y0138009D01*
X0033931Y0138786D01*
X0034176Y0139859D01*
X0034299Y0140953D01*
X0034299Y0141102D01*
X0024898Y0141102D01*
X0024898Y0141906D01*
X0024094Y0141906D01*
X0024094Y0151307D01*
X0023946Y0151307D01*
X0022851Y0151184D01*
X0021778Y0150939D01*
X0020739Y0150575D01*
X0019747Y0150097D01*
X0018814Y0149512D01*
X0017953Y0148825D01*
X0017175Y0148047D01*
X0016488Y0147186D01*
X0015903Y0146253D01*
X0015425Y0145261D01*
X0015061Y0144222D01*
X0014816Y0143149D01*
X0014693Y0142054D01*
X0014693Y0141906D01*
X0024094Y0141906D01*
X0024094Y0141102D01*
X0014693Y0141102D01*
X0014693Y0140953D01*
X0014816Y0139859D01*
X0015061Y0138786D01*
X0015425Y0137747D01*
X0015903Y0136754D01*
X0016488Y0135822D01*
X0017175Y0134961D01*
X0017953Y0134183D01*
X0018814Y0133496D01*
X0019747Y0132910D01*
X0020739Y0132433D01*
X0021778Y0132069D01*
X0022851Y0131824D01*
X0023946Y0131701D01*
X0024094Y0131701D01*
X0024094Y0141102D01*
X0024898Y0141102D01*
X0024898Y0131701D01*
X0025047Y0131701D01*
X0026141Y0131824D01*
X0027214Y0132069D01*
X0027991Y0132341D01*
X0027900Y0132184D01*
X0027161Y0129427D01*
X0027161Y0126573D01*
X0027900Y0123816D01*
X0027991Y0123659D01*
X0027214Y0123931D01*
X0026141Y0124176D01*
X0025047Y0124299D01*
X0024898Y0124299D01*
X0024898Y0114898D01*
X0034299Y0114898D01*
X0034299Y0115047D01*
X0034176Y0116141D01*
X0033931Y0117214D01*
X0033659Y0117991D01*
X0033816Y0117900D01*
X0036573Y0117161D01*
X0039427Y0117161D01*
X0042184Y0117900D01*
X0042341Y0117991D01*
X0042069Y0117214D01*
X0041824Y0116141D01*
X0041701Y0115047D01*
X0041701Y0114898D01*
X0051102Y0114898D01*
X0051102Y0114094D01*
X0051906Y0114094D01*
X0051906Y0114898D01*
X0061307Y0114898D01*
X0061307Y0115047D01*
X0061184Y0116141D01*
X0060939Y0117214D01*
X0060575Y0118253D01*
X0060216Y0119000D01*
X0110784Y0119000D01*
X0110425Y0118253D01*
X0110061Y0117214D01*
X0109816Y0116141D01*
X0109693Y0115047D01*
X0109693Y0114898D01*
X0119094Y0114898D01*
X0119094Y0114094D01*
X0119898Y0114094D01*
X0119898Y0104693D01*
X0120047Y0104693D01*
X0121141Y0104816D01*
X0122214Y0105061D01*
X0123253Y0105425D01*
X0124000Y0105784D01*
X0124000Y0081210D01*
X0124411Y0080216D01*
X0124113Y0079918D01*
X0123047Y0077345D01*
X0123047Y0075150D01*
X0121095Y0075150D01*
X0117576Y0073692D01*
X0114883Y0070998D01*
X0113425Y0067479D01*
X0113425Y0058521D01*
X0114000Y0057133D01*
X0114000Y0056210D01*
X0115370Y0052902D01*
X0115655Y0052617D01*
X0114845Y0052953D01*
X0109163Y0052953D01*
X0109116Y0053000D01*
X0111117Y0055002D01*
X0112575Y0058521D01*
X0112575Y0067479D01*
X0111117Y0070998D01*
X0108424Y0073692D01*
X0104905Y0075150D01*
X0101095Y0075150D01*
X0097576Y0073692D01*
X0094883Y0070998D01*
X0093425Y0067479D01*
X0093425Y0066153D01*
X0087953Y0060681D01*
X0087953Y0062345D01*
X0086887Y0064918D01*
X0084918Y0066887D01*
X0082345Y0067953D01*
X0077379Y0067953D01*
X0077000Y0068867D01*
X0077000Y0071355D01*
X0077953Y0073655D01*
X0077953Y0082345D01*
X0077267Y0084000D01*
X0106355Y0084000D01*
X0108655Y0083047D01*
X0117345Y0083047D01*
X0119918Y0084113D01*
X0121887Y0086082D01*
X0122953Y0088655D01*
X0122953Y0097345D01*
X0121887Y0099918D01*
X0119918Y0101887D01*
X0117345Y0102953D01*
X0108655Y0102953D01*
X0106355Y0102000D01*
X0066210Y0102000D01*
X0062902Y0100630D01*
X0050370Y0088098D01*
X0049000Y0084790D01*
X0049000Y0075150D01*
X0046095Y0075150D01*
X0042576Y0073692D01*
X0039883Y0070998D01*
X0038425Y0067479D01*
X0038425Y0058521D01*
X0039000Y0057133D01*
X0039000Y0056210D01*
X0040370Y0052902D01*
X0041078Y0052194D01*
X0039883Y0050998D01*
X0038425Y0047479D01*
X0038425Y0038521D01*
X0039883Y0035002D01*
X0042576Y0032308D01*
X0046095Y0030850D01*
X0049905Y0030850D01*
X0053000Y0032133D01*
X0056095Y0030850D01*
X0059826Y0030850D01*
X0058933Y0029957D01*
X0057441Y0027373D01*
X0056669Y0024492D01*
X0056669Y0021508D01*
X0057441Y0018627D01*
X0059980Y0014996D02*
X0010000Y0014996D01*
X0010000Y0010997D02*
X0373979Y0010997D01*
X0372075Y0014996D02*
X0076020Y0014996D01*
X0078657Y0018994D02*
X0371669Y0018994D01*
X0369222Y0022561D02*
X0368149Y0022316D01*
X0367054Y0022193D01*
X0366906Y0022193D01*
X0366906Y0031594D01*
X0366906Y0032398D01*
X0376307Y0032398D01*
X0376307Y0032547D01*
X0376184Y0033641D01*
X0375939Y0034714D01*
X0375575Y0035753D01*
X0375097Y0036745D01*
X0374512Y0037678D01*
X0373825Y0038539D01*
X0373047Y0039317D01*
X0372186Y0040004D01*
X0371253Y0040590D01*
X0370261Y0041067D01*
X0369222Y0041431D01*
X0368149Y0041676D01*
X0367054Y0041799D01*
X0366906Y0041799D01*
X0366906Y0032398D01*
X0366102Y0032398D01*
X0366102Y0031594D01*
X0366906Y0031594D01*
X0376307Y0031594D01*
X0376307Y0031446D01*
X0376184Y0030351D01*
X0375939Y0029278D01*
X0375575Y0028239D01*
X0375097Y0027247D01*
X0374512Y0026314D01*
X0373825Y0025453D01*
X0373047Y0024675D01*
X0372186Y0023988D01*
X0371253Y0023403D01*
X0370261Y0022925D01*
X0369222Y0022561D01*
X0370402Y0022993D02*
X0372799Y0022993D01*
X0374937Y0026991D02*
X0375967Y0026991D01*
X0376256Y0030990D02*
X0389701Y0030990D01*
X0389701Y0034988D02*
X0375843Y0034988D01*
X0373377Y0038987D02*
X0389701Y0038987D01*
X0389701Y0042985D02*
X0363547Y0042985D01*
X0363823Y0046984D02*
X0389701Y0046984D01*
X0389701Y0050982D02*
X0372163Y0050982D01*
X0372186Y0050996D02*
X0373047Y0051683D01*
X0373825Y0052461D01*
X0374512Y0053322D01*
X0375097Y0054254D01*
X0375575Y0055247D01*
X0375939Y0056286D01*
X0376184Y0057359D01*
X0376307Y0058453D01*
X0376307Y0058602D01*
X0366906Y0058602D01*
X0366906Y0059406D01*
X0366102Y0059406D01*
X0366102Y0068807D01*
X0365953Y0068807D01*
X0364859Y0068684D01*
X0363786Y0068439D01*
X0362747Y0068075D01*
X0361754Y0067597D01*
X0360822Y0067012D01*
X0359961Y0066325D01*
X0359183Y0065547D01*
X0358496Y0064686D01*
X0357910Y0063753D01*
X0357433Y0062761D01*
X0357069Y0061722D01*
X0356824Y0060649D01*
X0356701Y0059554D01*
X0356701Y0059406D01*
X0366102Y0059406D01*
X0366102Y0058602D01*
X0366906Y0058602D01*
X0366906Y0049201D01*
X0367054Y0049201D01*
X0368149Y0049324D01*
X0369222Y0049569D01*
X0370261Y0049933D01*
X0371253Y0050410D01*
X0372186Y0050996D01*
X0375447Y0054981D02*
X0389701Y0054981D01*
X0389701Y0058979D02*
X0366906Y0058979D01*
X0366906Y0059406D02*
X0376307Y0059406D01*
X0376307Y0059554D01*
X0376184Y0060649D01*
X0375939Y0061722D01*
X0375575Y0062761D01*
X0375097Y0063753D01*
X0374512Y0064686D01*
X0373825Y0065547D01*
X0373047Y0066325D01*
X0372186Y0067012D01*
X0371253Y0067597D01*
X0370261Y0068075D01*
X0369222Y0068439D01*
X0368149Y0068684D01*
X0367054Y0068807D01*
X0366906Y0068807D01*
X0366906Y0059406D01*
X0366102Y0058979D02*
X0339898Y0058979D01*
X0348463Y0062978D02*
X0357537Y0062978D01*
X0360778Y0066976D02*
X0345222Y0066976D01*
X0338000Y0078000D02*
X0353000Y0078000D01*
X0353000Y0110500D01*
X0342161Y0110960D02*
X0282000Y0110960D01*
X0282000Y0106961D02*
X0342727Y0106961D01*
X0339094Y0106799D02*
X0338946Y0106799D01*
X0337851Y0106676D01*
X0336778Y0106431D01*
X0335739Y0106067D01*
X0334747Y0105590D01*
X0333814Y0105004D01*
X0332953Y0104317D01*
X0332175Y0103539D01*
X0331488Y0102678D01*
X0330903Y0101745D01*
X0330425Y0100753D01*
X0330061Y0099714D01*
X0329816Y0098641D01*
X0329693Y0097547D01*
X0329693Y0097398D01*
X0339094Y0097398D01*
X0339094Y0106799D01*
X0339094Y0102963D02*
X0339898Y0102963D01*
X0339898Y0098964D02*
X0339094Y0098964D01*
X0339094Y0096594D02*
X0329693Y0096594D01*
X0329693Y0096446D01*
X0329816Y0095351D01*
X0330061Y0094278D01*
X0330425Y0093239D01*
X0330903Y0092247D01*
X0331488Y0091314D01*
X0332175Y0090453D01*
X0332953Y0089675D01*
X0333814Y0088988D01*
X0334747Y0088403D01*
X0335739Y0087925D01*
X0336778Y0087561D01*
X0337851Y0087316D01*
X0338946Y0087193D01*
X0339094Y0087193D01*
X0339094Y0096594D01*
X0339094Y0094966D02*
X0339898Y0094966D01*
X0339898Y0090967D02*
X0339094Y0090967D01*
X0336134Y0086969D02*
X0289721Y0086969D01*
X0292694Y0082970D02*
X0330242Y0082970D01*
X0326244Y0078972D02*
X0292953Y0078972D01*
X0295330Y0074973D02*
X0322245Y0074973D01*
X0323000Y0063000D02*
X0338000Y0078000D01*
X0331765Y0090967D02*
X0282000Y0090967D01*
X0282000Y0094966D02*
X0329904Y0094966D01*
X0329890Y0098964D02*
X0282000Y0098964D01*
X0282000Y0102963D02*
X0331716Y0102963D01*
X0335686Y0114958D02*
X0282686Y0114958D01*
X0286685Y0118957D02*
X0331090Y0118957D01*
X0329749Y0122955D02*
X0290683Y0122955D01*
X0294682Y0126954D02*
X0330142Y0126954D01*
X0332581Y0130952D02*
X0298680Y0130952D01*
X0302679Y0134951D02*
X0389701Y0134951D01*
X0389701Y0138949D02*
X0306677Y0138949D01*
X0310676Y0142948D02*
X0389701Y0142948D01*
X0389701Y0146946D02*
X0314674Y0146946D01*
X0318673Y0150945D02*
X0389701Y0150945D01*
X0389701Y0154943D02*
X0368315Y0154943D01*
X0368047Y0154675D02*
X0368825Y0155453D01*
X0369512Y0156314D01*
X0370097Y0157247D01*
X0370575Y0158239D01*
X0370939Y0159278D01*
X0371184Y0160351D01*
X0371307Y0161446D01*
X0371307Y0161594D01*
X0361906Y0161594D01*
X0361906Y0162398D01*
X0371307Y0162398D01*
X0371307Y0162547D01*
X0371184Y0163641D01*
X0370939Y0164714D01*
X0370575Y0165753D01*
X0370097Y0166745D01*
X0369512Y0167678D01*
X0368825Y0168539D01*
X0368047Y0169317D01*
X0367186Y0170004D01*
X0366253Y0170590D01*
X0365261Y0171067D01*
X0364222Y0171431D01*
X0363149Y0171676D01*
X0362054Y0171799D01*
X0361906Y0171799D01*
X0361906Y0162398D01*
X0361102Y0162398D01*
X0361102Y0161594D01*
X0361906Y0161594D01*
X0361906Y0152193D01*
X0362054Y0152193D01*
X0363149Y0152316D01*
X0364222Y0152561D01*
X0365261Y0152925D01*
X0366253Y0153403D01*
X0367186Y0153988D01*
X0368047Y0154675D01*
X0370821Y0158942D02*
X0389701Y0158942D01*
X0389701Y0162940D02*
X0371263Y0162940D01*
X0369976Y0166939D02*
X0389701Y0166939D01*
X0389701Y0170937D02*
X0365531Y0170937D01*
X0361906Y0170937D02*
X0361102Y0170937D01*
X0361102Y0166939D02*
X0361906Y0166939D01*
X0361906Y0162940D02*
X0361102Y0162940D01*
X0361102Y0161594D02*
X0351701Y0161594D01*
X0351701Y0161446D01*
X0351824Y0160351D01*
X0352069Y0159278D01*
X0352433Y0158239D01*
X0352910Y0157247D01*
X0353496Y0156314D01*
X0354183Y0155453D01*
X0354961Y0154675D01*
X0355822Y0153988D01*
X0356754Y0153403D01*
X0357747Y0152925D01*
X0358786Y0152561D01*
X0359859Y0152316D01*
X0360953Y0152193D01*
X0361102Y0152193D01*
X0361102Y0161594D01*
X0361102Y0158942D02*
X0361906Y0158942D01*
X0361906Y0154943D02*
X0361102Y0154943D01*
X0354693Y0154943D02*
X0341307Y0154943D01*
X0343813Y0158942D02*
X0352187Y0158942D01*
X0351745Y0162940D02*
X0344255Y0162940D01*
X0334898Y0158942D02*
X0334094Y0158942D01*
X0334094Y0154943D02*
X0334898Y0154943D01*
X0327685Y0154943D02*
X0322671Y0154943D01*
X0330500Y0175500D02*
X0273000Y0118000D01*
X0273000Y0063000D01*
X0283000Y0063000D02*
X0283000Y0078000D01*
X0293000Y0063000D02*
X0323000Y0063000D01*
X0348000Y0043000D02*
X0350500Y0045500D01*
X0353000Y0045500D01*
X0348000Y0043000D02*
X0293000Y0043000D01*
X0283000Y0043000D02*
X0283000Y0038000D01*
X0273000Y0028000D01*
X0218000Y0028000D01*
X0208000Y0038000D01*
X0208000Y0043000D01*
X0218000Y0043000D02*
X0218000Y0048000D01*
X0213000Y0053000D01*
X0203000Y0053000D01*
X0198000Y0058000D01*
X0198000Y0063000D01*
X0185500Y0075500D01*
X0173000Y0075500D01*
X0163000Y0083000D02*
X0153000Y0073000D01*
X0143000Y0073000D02*
X0143000Y0063000D01*
X0133000Y0063000D02*
X0133000Y0068000D01*
X0133000Y0073000D02*
X0133000Y0063000D01*
X0123000Y0063000D02*
X0123000Y0058000D01*
X0128000Y0053000D01*
X0148000Y0053000D01*
X0153000Y0048000D01*
X0153000Y0038000D01*
X0163000Y0028000D01*
X0198000Y0028000D01*
X0198000Y0043000D01*
X0188000Y0053000D01*
X0183000Y0043000D02*
X0178000Y0043000D01*
X0183000Y0043000D02*
X0188000Y0038000D01*
X0205667Y0022993D02*
X0210280Y0022993D01*
X0240500Y0050500D02*
X0253000Y0063000D01*
X0218000Y0098000D01*
X0218000Y0123000D01*
X0258000Y0163000D01*
X0258000Y0193000D01*
X0274109Y0182933D02*
X0280205Y0182933D01*
X0276954Y0186932D02*
X0284204Y0186932D01*
X0288202Y0190930D02*
X0277600Y0190930D01*
X0277600Y0194929D02*
X0289000Y0194929D01*
X0289000Y0198927D02*
X0277013Y0198927D01*
X0274251Y0202926D02*
X0289000Y0202926D01*
X0289000Y0206924D02*
X0187953Y0206924D01*
X0188000Y0208000D02*
X0188000Y0223000D01*
X0178000Y0213000D01*
X0178000Y0243000D01*
X0173000Y0223000D01*
X0143000Y0223000D01*
X0138000Y0218000D01*
X0138496Y0217186D02*
X0137910Y0216253D01*
X0137433Y0215261D01*
X0137069Y0214222D01*
X0136824Y0213149D01*
X0136701Y0212054D01*
X0136701Y0211906D01*
X0146102Y0211906D01*
X0146102Y0221307D01*
X0145953Y0221307D01*
X0144859Y0221184D01*
X0143786Y0220939D01*
X0142747Y0220575D01*
X0141754Y0220097D01*
X0140822Y0219512D01*
X0139961Y0218825D01*
X0139183Y0218047D01*
X0138496Y0217186D01*
X0140080Y0218920D02*
X0125920Y0218920D01*
X0126039Y0218825D02*
X0125178Y0219512D01*
X0124245Y0220097D01*
X0123253Y0220575D01*
X0122214Y0220939D01*
X0121141Y0221184D01*
X0120047Y0221307D01*
X0119898Y0221307D01*
X0119898Y0211906D01*
X0119094Y0211906D01*
X0119094Y0221307D01*
X0118946Y0221307D01*
X0117851Y0221184D01*
X0116778Y0220939D01*
X0115739Y0220575D01*
X0114747Y0220097D01*
X0113814Y0219512D01*
X0112953Y0218825D01*
X0112175Y0218047D01*
X0111488Y0217186D01*
X0110903Y0216253D01*
X0110425Y0215261D01*
X0110061Y0214222D01*
X0109816Y0213149D01*
X0109693Y0212054D01*
X0109693Y0211906D01*
X0119094Y0211906D01*
X0119094Y0211102D01*
X0109693Y0211102D01*
X0109693Y0210953D01*
X0109816Y0209859D01*
X0110061Y0208786D01*
X0110425Y0207747D01*
X0110784Y0207000D01*
X0093637Y0207000D01*
X0092050Y0207657D01*
X0083950Y0207657D01*
X0082363Y0207000D01*
X0060216Y0207000D01*
X0060575Y0207747D01*
X0060939Y0208786D01*
X0061184Y0209859D01*
X0061307Y0210953D01*
X0061307Y0211102D01*
X0051906Y0211102D01*
X0051906Y0211906D01*
X0051102Y0211906D01*
X0051102Y0221307D01*
X0050953Y0221307D01*
X0049859Y0221184D01*
X0048786Y0220939D01*
X0047747Y0220575D01*
X0046754Y0220097D01*
X0045822Y0219512D01*
X0044961Y0218825D01*
X0044183Y0218047D01*
X0043496Y0217186D01*
X0042910Y0216253D01*
X0042433Y0215261D01*
X0042069Y0214222D01*
X0041824Y0213149D01*
X0041701Y0212054D01*
X0041701Y0211906D01*
X0051102Y0211906D01*
X0051102Y0211102D01*
X0041701Y0211102D01*
X0041701Y0210953D01*
X0041824Y0209859D01*
X0042069Y0208786D01*
X0042341Y0208009D01*
X0042184Y0208100D01*
X0039427Y0208839D01*
X0036573Y0208839D01*
X0033816Y0208100D01*
X0033659Y0208009D01*
X0033931Y0208786D01*
X0034176Y0209859D01*
X0034299Y0210953D01*
X0034299Y0211102D01*
X0024898Y0211102D01*
X0024898Y0211906D01*
X0024094Y0211906D01*
X0024094Y0221307D01*
X0023946Y0221307D01*
X0022851Y0221184D01*
X0021778Y0220939D01*
X0020739Y0220575D01*
X0019747Y0220097D01*
X0018814Y0219512D01*
X0017953Y0218825D01*
X0017175Y0218047D01*
X0016488Y0217186D01*
X0015903Y0216253D01*
X0015425Y0215261D01*
X0015061Y0214222D01*
X0014816Y0213149D01*
X0014693Y0212054D01*
X0014693Y0211906D01*
X0024094Y0211906D01*
X0024094Y0211102D01*
X0014693Y0211102D01*
X0014693Y0210953D01*
X0014816Y0209859D01*
X0015061Y0208786D01*
X0015425Y0207747D01*
X0015903Y0206754D01*
X0016488Y0205822D01*
X0017175Y0204961D01*
X0017953Y0204183D01*
X0018814Y0203496D01*
X0019747Y0202910D01*
X0020739Y0202433D01*
X0021778Y0202069D01*
X0022851Y0201824D01*
X0023946Y0201701D01*
X0024094Y0201701D01*
X0024094Y0211102D01*
X0024898Y0211102D01*
X0024898Y0201701D01*
X0025047Y0201701D01*
X0026141Y0201824D01*
X0027214Y0202069D01*
X0027991Y0202341D01*
X0027900Y0202184D01*
X0027161Y0199427D01*
X0027161Y0196573D01*
X0027900Y0193816D01*
X0027991Y0193659D01*
X0027214Y0193931D01*
X0026141Y0194176D01*
X0025047Y0194299D01*
X0024898Y0194299D01*
X0024898Y0184898D01*
X0034299Y0184898D01*
X0034299Y0185047D01*
X0034176Y0186141D01*
X0033931Y0187214D01*
X0033659Y0187991D01*
X0033816Y0187900D01*
X0036573Y0187161D01*
X0039427Y0187161D01*
X0042184Y0187900D01*
X0042341Y0187991D01*
X0042069Y0187214D01*
X0041824Y0186141D01*
X0041701Y0185047D01*
X0041701Y0184898D01*
X0051102Y0184898D01*
X0051102Y0184094D01*
X0051906Y0184094D01*
X0051906Y0184898D01*
X0061307Y0184898D01*
X0061307Y0185047D01*
X0061184Y0186141D01*
X0060939Y0187214D01*
X0060575Y0188253D01*
X0060216Y0189000D01*
X0082363Y0189000D01*
X0083950Y0188343D01*
X0092050Y0188343D01*
X0093637Y0189000D01*
X0110784Y0189000D01*
X0110425Y0188253D01*
X0110061Y0187214D01*
X0109816Y0186141D01*
X0109693Y0185047D01*
X0109693Y0184898D01*
X0119094Y0184898D01*
X0119094Y0184094D01*
X0119898Y0184094D01*
X0119898Y0174693D01*
X0120047Y0174693D01*
X0121141Y0174816D01*
X0122214Y0175061D01*
X0123253Y0175425D01*
X0124245Y0175903D01*
X0125178Y0176488D01*
X0126039Y0177175D01*
X0126817Y0177953D01*
X0127504Y0178814D01*
X0128090Y0179747D01*
X0128567Y0180739D01*
X0128931Y0181778D01*
X0129176Y0182851D01*
X0129299Y0183946D01*
X0129299Y0184094D01*
X0119898Y0184094D01*
X0119898Y0184898D01*
X0129299Y0184898D01*
X0129299Y0185047D01*
X0129176Y0186141D01*
X0128931Y0187214D01*
X0128659Y0187991D01*
X0128816Y0187900D01*
X0131573Y0187161D01*
X0134427Y0187161D01*
X0137184Y0187900D01*
X0137341Y0187991D01*
X0137069Y0187214D01*
X0136824Y0186141D01*
X0136701Y0185047D01*
X0136701Y0184898D01*
X0146102Y0184898D01*
X0146102Y0194299D01*
X0145953Y0194299D01*
X0144859Y0194176D01*
X0143786Y0193931D01*
X0143009Y0193659D01*
X0143100Y0193816D01*
X0143839Y0196573D01*
X0143839Y0199427D01*
X0143100Y0202184D01*
X0143009Y0202341D01*
X0143786Y0202069D01*
X0144859Y0201824D01*
X0145953Y0201701D01*
X0146102Y0201701D01*
X0146102Y0211102D01*
X0136701Y0211102D01*
X0136701Y0210953D01*
X0136824Y0209859D01*
X0137069Y0208786D01*
X0137341Y0208009D01*
X0137184Y0208100D01*
X0134427Y0208839D01*
X0131573Y0208839D01*
X0128816Y0208100D01*
X0128659Y0208009D01*
X0128931Y0208786D01*
X0129176Y0209859D01*
X0129299Y0210953D01*
X0129299Y0211102D01*
X0119898Y0211102D01*
X0119898Y0211906D01*
X0129299Y0211906D01*
X0129299Y0212054D01*
X0129176Y0213149D01*
X0128931Y0214222D01*
X0128567Y0215261D01*
X0128090Y0216253D01*
X0127504Y0217186D01*
X0126817Y0218047D01*
X0126039Y0218825D01*
X0128686Y0214921D02*
X0137314Y0214921D01*
X0136704Y0210923D02*
X0129296Y0210923D01*
X0119898Y0214921D02*
X0119094Y0214921D01*
X0119094Y0218920D02*
X0119898Y0218920D01*
X0113072Y0218920D02*
X0057928Y0218920D01*
X0058047Y0218825D02*
X0057186Y0219512D01*
X0056253Y0220097D01*
X0055261Y0220575D01*
X0054222Y0220939D01*
X0053149Y0221184D01*
X0052054Y0221307D01*
X0051906Y0221307D01*
X0051906Y0211906D01*
X0061307Y0211906D01*
X0061307Y0212054D01*
X0061184Y0213149D01*
X0060939Y0214222D01*
X0060575Y0215261D01*
X0060097Y0216253D01*
X0059512Y0217186D01*
X0058825Y0218047D01*
X0058047Y0218825D01*
X0060694Y0214921D02*
X0110306Y0214921D01*
X0109696Y0210923D02*
X0061304Y0210923D01*
X0051906Y0214921D02*
X0051102Y0214921D01*
X0051102Y0218920D02*
X0051906Y0218920D01*
X0045080Y0218920D02*
X0030920Y0218920D01*
X0031039Y0218825D02*
X0030178Y0219512D01*
X0029245Y0220097D01*
X0028253Y0220575D01*
X0027214Y0220939D01*
X0026141Y0221184D01*
X0025047Y0221307D01*
X0024898Y0221307D01*
X0024898Y0211906D01*
X0034299Y0211906D01*
X0034299Y0212054D01*
X0034176Y0213149D01*
X0033931Y0214222D01*
X0033567Y0215261D01*
X0033090Y0216253D01*
X0032504Y0217186D01*
X0031817Y0218047D01*
X0031039Y0218825D01*
X0033686Y0214921D02*
X0042314Y0214921D01*
X0041704Y0210923D02*
X0034296Y0210923D01*
X0024898Y0210923D02*
X0024094Y0210923D01*
X0024094Y0214921D02*
X0024898Y0214921D01*
X0024898Y0218920D02*
X0024094Y0218920D01*
X0018072Y0218920D02*
X0010000Y0218920D01*
X0010000Y0214921D02*
X0015306Y0214921D01*
X0014696Y0210923D02*
X0010000Y0210923D01*
X0010000Y0206924D02*
X0015821Y0206924D01*
X0019723Y0202926D02*
X0010000Y0202926D01*
X0010000Y0198927D02*
X0027161Y0198927D01*
X0027602Y0194929D02*
X0010000Y0194929D01*
X0010000Y0190930D02*
X0017088Y0190930D01*
X0017175Y0191039D02*
X0016488Y0190178D01*
X0015903Y0189245D01*
X0015425Y0188253D01*
X0015061Y0187214D01*
X0014816Y0186141D01*
X0014693Y0185047D01*
X0014693Y0184898D01*
X0024094Y0184898D01*
X0024094Y0184094D01*
X0024898Y0184094D01*
X0024898Y0174693D01*
X0025047Y0174693D01*
X0026141Y0174816D01*
X0027214Y0175061D01*
X0028253Y0175425D01*
X0029245Y0175903D01*
X0030178Y0176488D01*
X0031039Y0177175D01*
X0031817Y0177953D01*
X0032504Y0178814D01*
X0033090Y0179747D01*
X0033567Y0180739D01*
X0033931Y0181778D01*
X0034176Y0182851D01*
X0034299Y0183946D01*
X0034299Y0184094D01*
X0024898Y0184094D01*
X0024898Y0184898D01*
X0024094Y0184898D01*
X0024094Y0194299D01*
X0023946Y0194299D01*
X0022851Y0194176D01*
X0021778Y0193931D01*
X0020739Y0193567D01*
X0019747Y0193090D01*
X0018814Y0192504D01*
X0017953Y0191817D01*
X0017175Y0191039D01*
X0014997Y0186932D02*
X0010000Y0186932D01*
X0010000Y0182933D02*
X0014807Y0182933D01*
X0014816Y0182851D02*
X0015061Y0181778D01*
X0015425Y0180739D01*
X0015903Y0179747D01*
X0016488Y0178814D01*
X0017175Y0177953D01*
X0017953Y0177175D01*
X0018814Y0176488D01*
X0019747Y0175903D01*
X0020739Y0175425D01*
X0021778Y0175061D01*
X0022851Y0174816D01*
X0023946Y0174693D01*
X0024094Y0174693D01*
X0024094Y0184094D01*
X0014693Y0184094D01*
X0014693Y0183946D01*
X0014816Y0182851D01*
X0016413Y0178934D02*
X0010000Y0178934D01*
X0010000Y0174936D02*
X0022327Y0174936D01*
X0024094Y0174936D02*
X0024898Y0174936D01*
X0026666Y0174936D02*
X0049334Y0174936D01*
X0049859Y0174816D02*
X0050953Y0174693D01*
X0051102Y0174693D01*
X0051102Y0184094D01*
X0041701Y0184094D01*
X0041701Y0183946D01*
X0041824Y0182851D01*
X0042069Y0181778D01*
X0042433Y0180739D01*
X0042910Y0179747D01*
X0043496Y0178814D01*
X0044183Y0177953D01*
X0044961Y0177175D01*
X0045822Y0176488D01*
X0046754Y0175903D01*
X0047747Y0175425D01*
X0048786Y0175061D01*
X0049859Y0174816D01*
X0051102Y0174936D02*
X0051906Y0174936D01*
X0051906Y0174693D02*
X0052054Y0174693D01*
X0053149Y0174816D01*
X0054222Y0175061D01*
X0055261Y0175425D01*
X0056253Y0175903D01*
X0057186Y0176488D01*
X0058047Y0177175D01*
X0058825Y0177953D01*
X0059512Y0178814D01*
X0060097Y0179747D01*
X0060575Y0180739D01*
X0060939Y0181778D01*
X0061184Y0182851D01*
X0061307Y0183946D01*
X0061307Y0184094D01*
X0051906Y0184094D01*
X0051906Y0174693D01*
X0053673Y0174936D02*
X0117327Y0174936D01*
X0117851Y0174816D02*
X0118946Y0174693D01*
X0119094Y0174693D01*
X0119094Y0184094D01*
X0109693Y0184094D01*
X0109693Y0183946D01*
X0109816Y0182851D01*
X0110061Y0181778D01*
X0110425Y0180739D01*
X0110903Y0179747D01*
X0111488Y0178814D01*
X0112175Y0177953D01*
X0112953Y0177175D01*
X0113814Y0176488D01*
X0114747Y0175903D01*
X0115739Y0175425D01*
X0116778Y0175061D01*
X0117851Y0174816D01*
X0119094Y0174936D02*
X0119898Y0174936D01*
X0121666Y0174936D02*
X0144334Y0174936D01*
X0144859Y0174816D02*
X0145953Y0174693D01*
X0146102Y0174693D01*
X0146102Y0184094D01*
X0146906Y0184094D01*
X0146906Y0184898D01*
X0156307Y0184898D01*
X0156307Y0185047D01*
X0156184Y0186141D01*
X0155939Y0187214D01*
X0155575Y0188253D01*
X0155097Y0189245D01*
X0154512Y0190178D01*
X0153825Y0191039D01*
X0153047Y0191817D01*
X0152186Y0192504D01*
X0151253Y0193090D01*
X0150261Y0193567D01*
X0149222Y0193931D01*
X0148149Y0194176D01*
X0147054Y0194299D01*
X0146906Y0194299D01*
X0146906Y0184898D01*
X0146102Y0184898D01*
X0146102Y0184094D01*
X0136701Y0184094D01*
X0136701Y0183946D01*
X0136824Y0182851D01*
X0137069Y0181778D01*
X0137433Y0180739D01*
X0137910Y0179747D01*
X0138496Y0178814D01*
X0139183Y0177953D01*
X0139961Y0177175D01*
X0140822Y0176488D01*
X0141754Y0175903D01*
X0142747Y0175425D01*
X0143786Y0175061D01*
X0144859Y0174816D01*
X0146102Y0174936D02*
X0146906Y0174936D01*
X0146906Y0174693D02*
X0147054Y0174693D01*
X0148149Y0174816D01*
X0149222Y0175061D01*
X0150261Y0175425D01*
X0151253Y0175903D01*
X0152186Y0176488D01*
X0153047Y0177175D01*
X0153825Y0177953D01*
X0154512Y0178814D01*
X0155097Y0179747D01*
X0155575Y0180739D01*
X0155939Y0181778D01*
X0156184Y0182851D01*
X0156307Y0183946D01*
X0156307Y0184094D01*
X0146906Y0184094D01*
X0146906Y0174693D01*
X0148673Y0174936D02*
X0170772Y0174936D01*
X0173779Y0178934D02*
X0154587Y0178934D01*
X0156193Y0182933D02*
X0179000Y0182933D01*
X0179000Y0186932D02*
X0156003Y0186932D01*
X0153912Y0190930D02*
X0177342Y0190930D01*
X0170266Y0194929D02*
X0143398Y0194929D01*
X0143839Y0198927D02*
X0168047Y0198927D01*
X0168047Y0202926D02*
X0151277Y0202926D01*
X0151253Y0202910D02*
X0152186Y0203496D01*
X0153047Y0204183D01*
X0153825Y0204961D01*
X0154512Y0205822D01*
X0155097Y0206754D01*
X0155575Y0207747D01*
X0155939Y0208786D01*
X0156184Y0209859D01*
X0156307Y0210953D01*
X0156307Y0211102D01*
X0146906Y0211102D01*
X0146906Y0211906D01*
X0146102Y0211906D01*
X0146102Y0211102D01*
X0146906Y0211102D01*
X0146906Y0201701D01*
X0147054Y0201701D01*
X0148149Y0201824D01*
X0149222Y0202069D01*
X0150261Y0202433D01*
X0151253Y0202910D01*
X0155179Y0206924D02*
X0168047Y0206924D01*
X0170118Y0210923D02*
X0156304Y0210923D01*
X0156307Y0211906D02*
X0156307Y0212054D01*
X0156184Y0213149D01*
X0155939Y0214222D01*
X0155575Y0215261D01*
X0155097Y0216253D01*
X0154512Y0217186D01*
X0153825Y0218047D01*
X0153047Y0218825D01*
X0152186Y0219512D01*
X0151253Y0220097D01*
X0150261Y0220575D01*
X0149222Y0220939D01*
X0148149Y0221184D01*
X0147054Y0221307D01*
X0146906Y0221307D01*
X0146906Y0211906D01*
X0156307Y0211906D01*
X0155694Y0214921D02*
X0186795Y0214921D01*
X0186689Y0214938D02*
X0187559Y0214800D01*
X0188000Y0214800D01*
X0188441Y0214800D01*
X0189311Y0214938D01*
X0189805Y0215098D01*
X0189862Y0214962D01*
X0192562Y0212262D01*
X0196090Y0210800D01*
X0199910Y0210800D01*
X0203000Y0212080D01*
X0206090Y0210800D01*
X0209910Y0210800D01*
X0213000Y0212080D01*
X0216090Y0210800D01*
X0219910Y0210800D01*
X0223000Y0212080D01*
X0226090Y0210800D01*
X0229910Y0210800D01*
X0233000Y0212080D01*
X0236090Y0210800D01*
X0239910Y0210800D01*
X0243000Y0212080D01*
X0246090Y0210800D01*
X0249910Y0210800D01*
X0253000Y0212080D01*
X0256090Y0210800D01*
X0259910Y0210800D01*
X0263000Y0212080D01*
X0266090Y0210800D01*
X0269910Y0210800D01*
X0273438Y0212262D01*
X0276138Y0214962D01*
X0277600Y0218490D01*
X0277600Y0227510D01*
X0277000Y0228958D01*
X0277000Y0252188D01*
X0277971Y0253870D01*
X0278700Y0256591D01*
X0278700Y0259409D01*
X0277971Y0262130D01*
X0276562Y0264570D01*
X0274570Y0266562D01*
X0272130Y0267971D01*
X0269409Y0268700D01*
X0266591Y0268700D01*
X0263870Y0267971D01*
X0263000Y0267469D01*
X0262130Y0267971D01*
X0259409Y0268700D01*
X0256591Y0268700D01*
X0253870Y0267971D01*
X0253000Y0267469D01*
X0252130Y0267971D01*
X0249409Y0268700D01*
X0246591Y0268700D01*
X0243870Y0267971D01*
X0243000Y0267469D01*
X0242130Y0267971D01*
X0239409Y0268700D01*
X0236591Y0268700D01*
X0233870Y0267971D01*
X0233000Y0267469D01*
X0232130Y0267971D01*
X0229409Y0268700D01*
X0226591Y0268700D01*
X0223870Y0267971D01*
X0221430Y0266562D01*
X0219438Y0264570D01*
X0218029Y0262130D01*
X0217300Y0259409D01*
X0217300Y0256591D01*
X0218029Y0253870D01*
X0219000Y0252188D01*
X0219000Y0235200D01*
X0216090Y0235200D01*
X0213000Y0233920D01*
X0209910Y0235200D01*
X0206090Y0235200D01*
X0203000Y0233920D01*
X0199910Y0235200D01*
X0196090Y0235200D01*
X0192562Y0233738D01*
X0189862Y0231038D01*
X0189805Y0230902D01*
X0189311Y0231062D01*
X0188441Y0231200D01*
X0188000Y0231200D01*
X0188000Y0223000D01*
X0188000Y0223000D01*
X0188000Y0223000D01*
X0182400Y0223000D01*
X0182400Y0226041D01*
X0182538Y0226911D01*
X0182810Y0227750D01*
X0183210Y0228535D01*
X0183729Y0229248D01*
X0184352Y0229871D01*
X0185065Y0230390D01*
X0185850Y0230790D01*
X0186689Y0231062D01*
X0187559Y0231200D01*
X0188000Y0231200D01*
X0188000Y0223000D01*
X0188000Y0214800D01*
X0188000Y0223000D01*
X0188000Y0223000D01*
X0182400Y0223000D01*
X0182400Y0219959D01*
X0182538Y0219089D01*
X0182810Y0218250D01*
X0183210Y0217465D01*
X0183729Y0216752D01*
X0184352Y0216129D01*
X0185065Y0215610D01*
X0185850Y0215210D01*
X0186689Y0214938D01*
X0188000Y0214921D02*
X0188000Y0214921D01*
X0189205Y0214921D02*
X0189902Y0214921D01*
X0188000Y0218920D02*
X0188000Y0218920D01*
X0188000Y0222918D02*
X0188000Y0222918D01*
X0188000Y0226917D02*
X0188000Y0226917D01*
X0188000Y0230915D02*
X0188000Y0230915D01*
X0189764Y0230915D02*
X0189811Y0230915D01*
X0186236Y0230915D02*
X0132953Y0230915D01*
X0132953Y0234914D02*
X0159687Y0234914D01*
X0158816Y0235785D02*
X0160785Y0233816D01*
X0163358Y0232750D01*
X0172642Y0232750D01*
X0175215Y0233816D01*
X0177184Y0235785D01*
X0177584Y0236750D01*
X0178000Y0236750D01*
X0178492Y0236750D01*
X0179464Y0236904D01*
X0180399Y0237208D01*
X0181276Y0237655D01*
X0182072Y0238233D01*
X0182767Y0238928D01*
X0183345Y0239724D01*
X0183792Y0240601D01*
X0184096Y0241536D01*
X0184250Y0242508D01*
X0184250Y0243000D01*
X0184250Y0243492D01*
X0184096Y0244464D01*
X0183792Y0245399D01*
X0183345Y0246276D01*
X0182767Y0247072D01*
X0182072Y0247767D01*
X0181276Y0248345D01*
X0180399Y0248792D01*
X0179464Y0249096D01*
X0178492Y0249250D01*
X0178000Y0249250D01*
X0178000Y0248246D01*
X0178000Y0249250D01*
X0177584Y0249250D01*
X0177184Y0250215D01*
X0177000Y0250399D01*
X0177000Y0253092D01*
X0177550Y0254044D01*
X0177766Y0254852D01*
X0178029Y0253870D01*
X0179438Y0251430D01*
X0181430Y0249438D01*
X0183870Y0248029D01*
X0186591Y0247300D01*
X0189409Y0247300D01*
X0192130Y0248029D01*
X0194570Y0249438D01*
X0196562Y0251430D01*
X0196572Y0251446D01*
X0196690Y0251415D01*
X0197561Y0251300D01*
X0198000Y0251300D01*
X0198439Y0251300D01*
X0199310Y0251415D01*
X0200158Y0251642D01*
X0200970Y0251978D01*
X0201730Y0252417D01*
X0202427Y0252952D01*
X0203048Y0253573D01*
X0203583Y0254270D01*
X0204022Y0255030D01*
X0204358Y0255842D01*
X0204585Y0256690D01*
X0204700Y0257561D01*
X0204700Y0258000D01*
X0204700Y0258439D01*
X0204585Y0259310D01*
X0204358Y0260158D01*
X0204022Y0260970D01*
X0203583Y0261730D01*
X0203048Y0262427D01*
X0202427Y0263048D01*
X0201730Y0263583D01*
X0200970Y0264022D01*
X0200158Y0264358D01*
X0199310Y0264585D01*
X0198439Y0264700D01*
X0198000Y0264700D01*
X0198000Y0262021D01*
X0198000Y0262021D01*
X0198000Y0264700D01*
X0197561Y0264700D01*
X0196690Y0264585D01*
X0196572Y0264554D01*
X0196562Y0264570D01*
X0194570Y0266562D01*
X0192130Y0267971D01*
X0189409Y0268700D01*
X0186591Y0268700D01*
X0183870Y0267971D01*
X0181430Y0266562D01*
X0179438Y0264570D01*
X0178029Y0262130D01*
X0177766Y0261148D01*
X0177550Y0261956D01*
X0176200Y0264292D01*
X0174292Y0266200D01*
X0171956Y0267550D01*
X0169349Y0268248D01*
X0166651Y0268248D01*
X0164044Y0267550D01*
X0161708Y0266200D01*
X0159800Y0264292D01*
X0158450Y0261956D01*
X0157752Y0259349D01*
X0157752Y0256651D01*
X0158450Y0254044D01*
X0159000Y0253092D01*
X0159000Y0250399D01*
X0158816Y0250215D01*
X0157750Y0247642D01*
X0157750Y0238358D01*
X0158816Y0235785D01*
X0157750Y0238912D02*
X0132304Y0238912D01*
X0127447Y0242911D02*
X0157750Y0242911D01*
X0157750Y0246909D02*
X0010000Y0246909D01*
X0010000Y0250908D02*
X0159000Y0250908D01*
X0158219Y0254906D02*
X0025930Y0254906D01*
X0028633Y0258905D02*
X0157752Y0258905D01*
X0158997Y0262903D02*
X0029331Y0262903D01*
X0028685Y0266902D02*
X0162922Y0266902D01*
X0173078Y0266902D02*
X0182018Y0266902D01*
X0178476Y0262903D02*
X0177003Y0262903D01*
X0168000Y0258000D02*
X0168000Y0243000D01*
X0178250Y0243000D02*
X0184250Y0243000D01*
X0178250Y0243000D01*
X0178250Y0243000D01*
X0182885Y0246909D02*
X0219000Y0246909D01*
X0219000Y0242911D02*
X0184250Y0242911D01*
X0182751Y0238912D02*
X0219000Y0238912D01*
X0215399Y0234914D02*
X0210601Y0234914D01*
X0205399Y0234914D02*
X0200601Y0234914D01*
X0195399Y0234914D02*
X0176313Y0234914D01*
X0178000Y0236750D02*
X0178000Y0237754D01*
X0178000Y0237754D01*
X0178000Y0236750D01*
X0182540Y0226917D02*
X0132233Y0226917D01*
X0123000Y0233000D02*
X0013000Y0233000D01*
X0010000Y0222918D02*
X0182400Y0222918D01*
X0182593Y0218920D02*
X0152928Y0218920D01*
X0146906Y0218920D02*
X0146102Y0218920D01*
X0146102Y0214921D02*
X0146906Y0214921D01*
X0146906Y0210923D02*
X0146102Y0210923D01*
X0146102Y0206924D02*
X0146906Y0206924D01*
X0146906Y0202926D02*
X0146102Y0202926D01*
X0133000Y0198000D02*
X0088000Y0198000D01*
X0038000Y0198000D01*
X0024898Y0202926D02*
X0024094Y0202926D01*
X0024094Y0206924D02*
X0024898Y0206924D01*
X0024898Y0190930D02*
X0024094Y0190930D01*
X0024094Y0186932D02*
X0024898Y0186932D01*
X0024898Y0182933D02*
X0024094Y0182933D01*
X0024094Y0178934D02*
X0024898Y0178934D01*
X0032579Y0178934D02*
X0043421Y0178934D01*
X0041815Y0182933D02*
X0034185Y0182933D01*
X0033995Y0186932D02*
X0042005Y0186932D01*
X0051102Y0182933D02*
X0051906Y0182933D01*
X0051906Y0178934D02*
X0051102Y0178934D01*
X0059587Y0178934D02*
X0111413Y0178934D01*
X0119094Y0178934D02*
X0119898Y0178934D01*
X0119898Y0182933D02*
X0119094Y0182933D01*
X0109807Y0182933D02*
X0061193Y0182933D01*
X0061003Y0186932D02*
X0109997Y0186932D01*
X0128995Y0186932D02*
X0137005Y0186932D01*
X0136815Y0182933D02*
X0129185Y0182933D01*
X0127579Y0178934D02*
X0138421Y0178934D01*
X0146102Y0178934D02*
X0146906Y0178934D01*
X0146906Y0182933D02*
X0146102Y0182933D01*
X0146102Y0186932D02*
X0146906Y0186932D01*
X0146906Y0190930D02*
X0146102Y0190930D01*
X0170806Y0170937D02*
X0010000Y0170937D01*
X0010000Y0166939D02*
X0071711Y0166939D01*
X0069269Y0162940D02*
X0010000Y0162940D01*
X0010000Y0158942D02*
X0069000Y0158942D01*
X0069000Y0154943D02*
X0010000Y0154943D01*
X0010000Y0150945D02*
X0021805Y0150945D01*
X0024094Y0150945D02*
X0024898Y0150945D01*
X0024898Y0151307D02*
X0024898Y0141906D01*
X0034299Y0141906D01*
X0034299Y0142054D01*
X0034176Y0143149D01*
X0033931Y0144222D01*
X0033567Y0145261D01*
X0033090Y0146253D01*
X0032504Y0147186D01*
X0031817Y0148047D01*
X0031039Y0148825D01*
X0030178Y0149512D01*
X0029245Y0150097D01*
X0028253Y0150575D01*
X0027214Y0150939D01*
X0026141Y0151184D01*
X0025047Y0151307D01*
X0024898Y0151307D01*
X0027187Y0150945D02*
X0048813Y0150945D01*
X0051102Y0150945D02*
X0051906Y0150945D01*
X0051906Y0151307D02*
X0051906Y0141906D01*
X0061307Y0141906D01*
X0061307Y0142054D01*
X0061184Y0143149D01*
X0060939Y0144222D01*
X0060575Y0145261D01*
X0060097Y0146253D01*
X0059512Y0147186D01*
X0058825Y0148047D01*
X0058047Y0148825D01*
X0057186Y0149512D01*
X0056253Y0150097D01*
X0055261Y0150575D01*
X0054222Y0150939D01*
X0053149Y0151184D01*
X0052054Y0151307D01*
X0051906Y0151307D01*
X0054195Y0150945D02*
X0069000Y0150945D01*
X0068918Y0146946D02*
X0059662Y0146946D01*
X0061206Y0142948D02*
X0068047Y0142948D01*
X0068047Y0138949D02*
X0060976Y0138949D01*
X0051906Y0142948D02*
X0051102Y0142948D01*
X0051102Y0146946D02*
X0051906Y0146946D01*
X0043346Y0146946D02*
X0032654Y0146946D01*
X0034199Y0142948D02*
X0041801Y0142948D01*
X0042032Y0138949D02*
X0033968Y0138949D01*
X0024898Y0138949D02*
X0024094Y0138949D01*
X0024094Y0134951D02*
X0024898Y0134951D01*
X0027570Y0130952D02*
X0010000Y0130952D01*
X0010000Y0126954D02*
X0027161Y0126954D01*
X0024094Y0124299D02*
X0023946Y0124299D01*
X0022851Y0124176D01*
X0021778Y0123931D01*
X0020739Y0123567D01*
X0019747Y0123090D01*
X0018814Y0122504D01*
X0017953Y0121817D01*
X0017175Y0121039D01*
X0016488Y0120178D01*
X0015903Y0119245D01*
X0015425Y0118253D01*
X0015061Y0117214D01*
X0014816Y0116141D01*
X0014693Y0115047D01*
X0014693Y0114898D01*
X0024094Y0114898D01*
X0024094Y0114094D01*
X0024898Y0114094D01*
X0024898Y0104693D01*
X0025047Y0104693D01*
X0026141Y0104816D01*
X0027214Y0105061D01*
X0028253Y0105425D01*
X0029245Y0105903D01*
X0030178Y0106488D01*
X0031039Y0107175D01*
X0031817Y0107953D01*
X0032504Y0108814D01*
X0033090Y0109747D01*
X0033567Y0110739D01*
X0033931Y0111778D01*
X0034176Y0112851D01*
X0034299Y0113946D01*
X0034299Y0114094D01*
X0024898Y0114094D01*
X0024898Y0114898D01*
X0024094Y0114898D01*
X0024094Y0124299D01*
X0024094Y0122955D02*
X0024898Y0122955D01*
X0024898Y0118957D02*
X0024094Y0118957D01*
X0024094Y0114958D02*
X0024898Y0114958D01*
X0024094Y0114094D02*
X0024094Y0104693D01*
X0023946Y0104693D01*
X0022851Y0104816D01*
X0021778Y0105061D01*
X0020739Y0105425D01*
X0019747Y0105903D01*
X0018814Y0106488D01*
X0017953Y0107175D01*
X0017175Y0107953D01*
X0016488Y0108814D01*
X0015903Y0109747D01*
X0015425Y0110739D01*
X0015061Y0111778D01*
X0014816Y0112851D01*
X0014693Y0113946D01*
X0014693Y0114094D01*
X0024094Y0114094D01*
X0024094Y0110960D02*
X0024898Y0110960D01*
X0024898Y0106961D02*
X0024094Y0106961D01*
X0030771Y0106961D02*
X0045229Y0106961D01*
X0044961Y0107175D02*
X0045822Y0106488D01*
X0046754Y0105903D01*
X0047747Y0105425D01*
X0048786Y0105061D01*
X0049859Y0104816D01*
X0050953Y0104693D01*
X0051102Y0104693D01*
X0051102Y0114094D01*
X0041701Y0114094D01*
X0041701Y0113946D01*
X0041824Y0112851D01*
X0042069Y0111778D01*
X0042433Y0110739D01*
X0042910Y0109747D01*
X0043496Y0108814D01*
X0044183Y0107953D01*
X0044961Y0107175D01*
X0042355Y0110960D02*
X0033645Y0110960D01*
X0034299Y0114958D02*
X0041701Y0114958D01*
X0051102Y0110960D02*
X0051906Y0110960D01*
X0051906Y0114094D02*
X0051906Y0104693D01*
X0052054Y0104693D01*
X0053149Y0104816D01*
X0054222Y0105061D01*
X0055261Y0105425D01*
X0056253Y0105903D01*
X0057186Y0106488D01*
X0058047Y0107175D01*
X0058825Y0107953D01*
X0059512Y0108814D01*
X0060097Y0109747D01*
X0060575Y0110739D01*
X0060939Y0111778D01*
X0061184Y0112851D01*
X0061307Y0113946D01*
X0061307Y0114094D01*
X0051906Y0114094D01*
X0051906Y0106961D02*
X0051102Y0106961D01*
X0057779Y0106961D02*
X0113221Y0106961D01*
X0112953Y0107175D02*
X0113814Y0106488D01*
X0114747Y0105903D01*
X0115739Y0105425D01*
X0116778Y0105061D01*
X0117851Y0104816D01*
X0118946Y0104693D01*
X0119094Y0104693D01*
X0119094Y0114094D01*
X0109693Y0114094D01*
X0109693Y0113946D01*
X0109816Y0112851D01*
X0110061Y0111778D01*
X0110425Y0110739D01*
X0110903Y0109747D01*
X0111488Y0108814D01*
X0112175Y0107953D01*
X0112953Y0107175D01*
X0110347Y0110960D02*
X0060653Y0110960D01*
X0061307Y0114958D02*
X0109693Y0114958D01*
X0110764Y0118957D02*
X0060236Y0118957D01*
X0038000Y0128000D02*
X0133000Y0128000D01*
X0133000Y0083000D01*
X0143000Y0073000D01*
X0146619Y0082109D02*
X0142000Y0086728D01*
X0142000Y0105784D01*
X0142747Y0105425D01*
X0143786Y0105061D01*
X0144859Y0104816D01*
X0145953Y0104693D01*
X0146102Y0104693D01*
X0146102Y0114094D01*
X0146906Y0114094D01*
X0146906Y0114898D01*
X0156307Y0114898D01*
X0156307Y0115047D01*
X0156184Y0116141D01*
X0155939Y0117214D01*
X0155575Y0118253D01*
X0155097Y0119245D01*
X0154512Y0120178D01*
X0153825Y0121039D01*
X0153047Y0121817D01*
X0152186Y0122504D01*
X0151253Y0123090D01*
X0150261Y0123567D01*
X0149222Y0123931D01*
X0148149Y0124176D01*
X0147054Y0124299D01*
X0146906Y0124299D01*
X0146906Y0114898D01*
X0146102Y0114898D01*
X0146102Y0124299D01*
X0145953Y0124299D01*
X0144859Y0124176D01*
X0143786Y0123931D01*
X0143009Y0123659D01*
X0143100Y0123816D01*
X0143839Y0126573D01*
X0143839Y0129427D01*
X0143100Y0132184D01*
X0143009Y0132341D01*
X0143786Y0132069D01*
X0144859Y0131824D01*
X0145953Y0131701D01*
X0146102Y0131701D01*
X0146102Y0141102D01*
X0146906Y0141102D01*
X0146906Y0141906D01*
X0156307Y0141906D01*
X0156307Y0142054D01*
X0156184Y0143149D01*
X0155989Y0144000D01*
X0211272Y0144000D01*
X0199272Y0132000D01*
X0186210Y0132000D01*
X0182902Y0130630D01*
X0180225Y0127953D01*
X0178655Y0127953D01*
X0176082Y0126887D01*
X0174113Y0124918D01*
X0173047Y0122345D01*
X0173047Y0113655D01*
X0174113Y0111082D01*
X0176082Y0109113D01*
X0178655Y0108047D01*
X0187345Y0108047D01*
X0189918Y0109113D01*
X0191887Y0111082D01*
X0192953Y0113655D01*
X0192953Y0114000D01*
X0204790Y0114000D01*
X0208098Y0115370D01*
X0209000Y0116272D01*
X0209000Y0096210D01*
X0210370Y0092902D01*
X0211272Y0092000D01*
X0161210Y0092000D01*
X0157902Y0090630D01*
X0150225Y0082953D01*
X0148655Y0082953D01*
X0146619Y0082109D01*
X0145758Y0082970D02*
X0150242Y0082970D01*
X0154241Y0086969D02*
X0142000Y0086969D01*
X0142000Y0090967D02*
X0158717Y0090967D01*
X0163000Y0083000D02*
X0218000Y0083000D01*
X0218000Y0063000D01*
X0208000Y0063000D02*
X0208000Y0073000D01*
X0209515Y0094966D02*
X0142000Y0094966D01*
X0142000Y0098964D02*
X0209000Y0098964D01*
X0209000Y0102963D02*
X0142000Y0102963D01*
X0146906Y0104693D02*
X0147054Y0104693D01*
X0148149Y0104816D01*
X0149222Y0105061D01*
X0150261Y0105425D01*
X0151253Y0105903D01*
X0152186Y0106488D01*
X0153047Y0107175D01*
X0153825Y0107953D01*
X0154512Y0108814D01*
X0155097Y0109747D01*
X0155575Y0110739D01*
X0155939Y0111778D01*
X0156184Y0112851D01*
X0156307Y0113946D01*
X0156307Y0114094D01*
X0146906Y0114094D01*
X0146906Y0104693D01*
X0146906Y0106961D02*
X0146102Y0106961D01*
X0146102Y0110960D02*
X0146906Y0110960D01*
X0146906Y0114958D02*
X0146102Y0114958D01*
X0146102Y0118957D02*
X0146906Y0118957D01*
X0146906Y0122955D02*
X0146102Y0122955D01*
X0143839Y0126954D02*
X0176243Y0126954D01*
X0173300Y0122955D02*
X0151467Y0122955D01*
X0155236Y0118957D02*
X0173047Y0118957D01*
X0173047Y0114958D02*
X0156307Y0114958D01*
X0155653Y0110960D02*
X0174235Y0110960D01*
X0183000Y0118000D02*
X0188000Y0123000D01*
X0203000Y0123000D01*
X0238000Y0158000D01*
X0238000Y0193000D01*
X0228000Y0193000D02*
X0228000Y0163000D01*
X0218000Y0153000D01*
X0098000Y0153000D01*
X0098000Y0140500D01*
X0078000Y0140500D02*
X0078000Y0160500D01*
X0170500Y0160500D01*
X0177500Y0174448D02*
X0177500Y0174448D01*
X0177500Y0174936D02*
X0177500Y0174936D01*
X0177500Y0178934D02*
X0177500Y0178934D01*
X0188000Y0173000D02*
X0188000Y0193000D01*
X0178000Y0203000D01*
X0185882Y0210923D02*
X0195794Y0210923D01*
X0200205Y0210923D02*
X0205794Y0210923D01*
X0210205Y0210923D02*
X0215794Y0210923D01*
X0220205Y0210923D02*
X0225794Y0210923D01*
X0230205Y0210923D02*
X0235794Y0210923D01*
X0240205Y0210923D02*
X0245794Y0210923D01*
X0250205Y0210923D02*
X0255794Y0210923D01*
X0260205Y0210923D02*
X0265794Y0210923D01*
X0270206Y0210923D02*
X0289000Y0210923D01*
X0289000Y0214921D02*
X0276098Y0214921D01*
X0277600Y0218920D02*
X0289000Y0218920D01*
X0289000Y0222918D02*
X0277600Y0222918D01*
X0277600Y0226917D02*
X0289000Y0226917D01*
X0289000Y0230915D02*
X0277000Y0230915D01*
X0277000Y0234914D02*
X0289000Y0234914D01*
X0289000Y0238912D02*
X0277000Y0238912D01*
X0277000Y0242911D02*
X0289000Y0242911D01*
X0289000Y0246909D02*
X0277000Y0246909D01*
X0277000Y0250908D02*
X0289000Y0250908D01*
X0287752Y0254906D02*
X0278248Y0254906D01*
X0278700Y0258905D02*
X0287300Y0258905D01*
X0288476Y0262903D02*
X0277524Y0262903D01*
X0273982Y0266902D02*
X0292018Y0266902D01*
X0298000Y0258000D02*
X0298000Y0188000D01*
X0270500Y0160500D01*
X0268000Y0160500D01*
X0268210Y0170937D02*
X0267000Y0170937D01*
X0267000Y0174936D02*
X0272208Y0174936D01*
X0276207Y0178934D02*
X0267000Y0178934D01*
X0273000Y0148000D02*
X0308000Y0183000D01*
X0308000Y0258000D01*
X0317524Y0262903D02*
X0330382Y0262903D01*
X0334094Y0262903D02*
X0334898Y0262903D01*
X0334898Y0263807D02*
X0334898Y0254406D01*
X0344299Y0254406D01*
X0344299Y0254554D01*
X0344176Y0255649D01*
X0343931Y0256722D01*
X0343567Y0257761D01*
X0343090Y0258753D01*
X0342504Y0259686D01*
X0341817Y0260547D01*
X0341039Y0261325D01*
X0340178Y0262012D01*
X0339245Y0262597D01*
X0338253Y0263075D01*
X0337214Y0263439D01*
X0336141Y0263684D01*
X0335047Y0263807D01*
X0334898Y0263807D01*
X0338610Y0262903D02*
X0357390Y0262903D01*
X0361102Y0262903D02*
X0361906Y0262903D01*
X0361906Y0263807D02*
X0361906Y0254406D01*
X0371307Y0254406D01*
X0371307Y0254554D01*
X0371184Y0255649D01*
X0370939Y0256722D01*
X0370575Y0257761D01*
X0370097Y0258753D01*
X0369512Y0259686D01*
X0368825Y0260547D01*
X0368047Y0261325D01*
X0367186Y0262012D01*
X0366253Y0262597D01*
X0365261Y0263075D01*
X0364222Y0263439D01*
X0363149Y0263684D01*
X0362054Y0263807D01*
X0361906Y0263807D01*
X0365618Y0262903D02*
X0371669Y0262903D01*
X0372315Y0266902D02*
X0313982Y0266902D01*
X0318700Y0258905D02*
X0325998Y0258905D01*
X0324733Y0254906D02*
X0318248Y0254906D01*
X0317000Y0250908D02*
X0325194Y0250908D01*
X0325991Y0246909D02*
X0317000Y0246909D01*
X0317000Y0242911D02*
X0320183Y0242911D01*
X0328000Y0238000D02*
X0355500Y0238000D01*
X0348000Y0240500D01*
X0344965Y0250908D02*
X0343799Y0250908D01*
X0344260Y0254906D02*
X0351740Y0254906D01*
X0352201Y0250908D02*
X0351035Y0250908D01*
X0361102Y0254906D02*
X0361906Y0254906D01*
X0361906Y0258905D02*
X0361102Y0258905D01*
X0353006Y0258905D02*
X0342994Y0258905D01*
X0334898Y0258905D02*
X0334094Y0258905D01*
X0334094Y0254906D02*
X0334898Y0254906D01*
X0328000Y0238000D02*
X0323000Y0233000D01*
X0323000Y0183000D01*
X0263000Y0123000D01*
X0263000Y0053000D01*
X0273000Y0043000D01*
X0263000Y0038000D02*
X0258000Y0043000D01*
X0253000Y0043000D01*
X0280720Y0022993D02*
X0335598Y0022993D01*
X0335739Y0022925D02*
X0336778Y0022561D01*
X0337851Y0022316D01*
X0338946Y0022193D01*
X0339094Y0022193D01*
X0339094Y0031594D01*
X0329693Y0031594D01*
X0329693Y0031446D01*
X0329816Y0030351D01*
X0330061Y0029278D01*
X0330425Y0028239D01*
X0330903Y0027247D01*
X0331488Y0026314D01*
X0332175Y0025453D01*
X0332953Y0024675D01*
X0333814Y0023988D01*
X0334747Y0023403D01*
X0335739Y0022925D01*
X0339094Y0022993D02*
X0339898Y0022993D01*
X0343394Y0022993D02*
X0362606Y0022993D01*
X0362747Y0022925D02*
X0363786Y0022561D01*
X0364859Y0022316D01*
X0365953Y0022193D01*
X0366102Y0022193D01*
X0366102Y0031594D01*
X0356701Y0031594D01*
X0356701Y0031446D01*
X0356824Y0030351D01*
X0357069Y0029278D01*
X0357433Y0028239D01*
X0357910Y0027247D01*
X0358496Y0026314D01*
X0359183Y0025453D01*
X0359961Y0024675D01*
X0360822Y0023988D01*
X0361754Y0023403D01*
X0362747Y0022925D01*
X0366102Y0022993D02*
X0366906Y0022993D01*
X0366906Y0026991D02*
X0366102Y0026991D01*
X0366102Y0030990D02*
X0366906Y0030990D01*
X0366906Y0034988D02*
X0366102Y0034988D01*
X0366102Y0038987D02*
X0366906Y0038987D01*
X0357165Y0034988D02*
X0355646Y0034988D01*
X0356752Y0030990D02*
X0349248Y0030990D01*
X0347929Y0026991D02*
X0358071Y0026991D01*
X0339898Y0026991D02*
X0339094Y0026991D01*
X0339094Y0030990D02*
X0339898Y0030990D01*
X0331063Y0026991D02*
X0284719Y0026991D01*
X0288717Y0030990D02*
X0290759Y0030990D01*
X0295241Y0030990D02*
X0329744Y0030990D01*
X0366102Y0050982D02*
X0366906Y0050982D01*
X0366906Y0054981D02*
X0366102Y0054981D01*
X0366102Y0062978D02*
X0366906Y0062978D01*
X0366906Y0066976D02*
X0366102Y0066976D01*
X0372230Y0066976D02*
X0389701Y0066976D01*
X0389701Y0062978D02*
X0375471Y0062978D01*
X0389701Y0070975D02*
X0358703Y0070975D01*
X0361488Y0074973D02*
X0389701Y0074973D01*
X0389701Y0078972D02*
X0362000Y0078972D01*
X0362000Y0082970D02*
X0389701Y0082970D01*
X0389701Y0086969D02*
X0362000Y0086969D01*
X0366906Y0087193D02*
X0367054Y0087193D01*
X0368149Y0087316D01*
X0369222Y0087561D01*
X0370261Y0087925D01*
X0371253Y0088403D01*
X0372186Y0088988D01*
X0373047Y0089675D01*
X0373825Y0090453D01*
X0374512Y0091314D01*
X0375097Y0092247D01*
X0375575Y0093239D01*
X0375939Y0094278D01*
X0376184Y0095351D01*
X0376307Y0096446D01*
X0376307Y0096594D01*
X0366906Y0096594D01*
X0366906Y0087193D01*
X0366906Y0090967D02*
X0366102Y0090967D01*
X0366102Y0094966D02*
X0366906Y0094966D01*
X0366906Y0098964D02*
X0366102Y0098964D01*
X0366102Y0102963D02*
X0366906Y0102963D01*
X0363273Y0106961D02*
X0389701Y0106961D01*
X0389701Y0110960D02*
X0363839Y0110960D01*
X0366906Y0114201D02*
X0367054Y0114201D01*
X0368149Y0114324D01*
X0369222Y0114569D01*
X0370261Y0114933D01*
X0371253Y0115410D01*
X0372186Y0115996D01*
X0373047Y0116683D01*
X0373825Y0117461D01*
X0374512Y0118322D01*
X0375097Y0119254D01*
X0375575Y0120247D01*
X0375939Y0121286D01*
X0376184Y0122359D01*
X0376307Y0123453D01*
X0376307Y0123602D01*
X0366906Y0123602D01*
X0366906Y0124406D01*
X0366102Y0124406D01*
X0366102Y0133807D01*
X0365953Y0133807D01*
X0364859Y0133684D01*
X0363786Y0133439D01*
X0362747Y0133075D01*
X0361754Y0132597D01*
X0360822Y0132012D01*
X0359961Y0131325D01*
X0359183Y0130547D01*
X0358496Y0129686D01*
X0357910Y0128753D01*
X0357433Y0127761D01*
X0357069Y0126722D01*
X0356824Y0125649D01*
X0356701Y0124554D01*
X0356701Y0124406D01*
X0366102Y0124406D01*
X0366102Y0123602D01*
X0366906Y0123602D01*
X0366906Y0114201D01*
X0366906Y0114958D02*
X0366102Y0114958D01*
X0370314Y0114958D02*
X0389701Y0114958D01*
X0389701Y0118957D02*
X0374910Y0118957D01*
X0376251Y0122955D02*
X0389701Y0122955D01*
X0389701Y0126954D02*
X0375858Y0126954D01*
X0375939Y0126722D02*
X0375575Y0127761D01*
X0375097Y0128753D01*
X0374512Y0129686D01*
X0373825Y0130547D01*
X0373047Y0131325D01*
X0372186Y0132012D01*
X0371253Y0132597D01*
X0370261Y0133075D01*
X0369222Y0133439D01*
X0368149Y0133684D01*
X0367054Y0133807D01*
X0366906Y0133807D01*
X0366906Y0124406D01*
X0376307Y0124406D01*
X0376307Y0124554D01*
X0376184Y0125649D01*
X0375939Y0126722D01*
X0373419Y0130952D02*
X0389701Y0130952D01*
X0366906Y0130952D02*
X0366102Y0130952D01*
X0366102Y0126954D02*
X0366906Y0126954D01*
X0366906Y0122955D02*
X0366102Y0122955D01*
X0366102Y0118957D02*
X0366906Y0118957D01*
X0356757Y0122955D02*
X0349243Y0122955D01*
X0349299Y0124406D02*
X0349299Y0124554D01*
X0349176Y0125649D01*
X0348931Y0126722D01*
X0348567Y0127761D01*
X0348090Y0128753D01*
X0347504Y0129686D01*
X0346817Y0130547D01*
X0346039Y0131325D01*
X0345178Y0132012D01*
X0344245Y0132597D01*
X0343253Y0133075D01*
X0342214Y0133439D01*
X0341141Y0133684D01*
X0340047Y0133807D01*
X0339898Y0133807D01*
X0339898Y0124406D01*
X0349299Y0124406D01*
X0348850Y0126954D02*
X0357150Y0126954D01*
X0359589Y0130952D02*
X0346411Y0130952D01*
X0339898Y0130952D02*
X0339094Y0130952D01*
X0339094Y0126954D02*
X0339898Y0126954D01*
X0339898Y0122955D02*
X0339094Y0122955D01*
X0339094Y0118957D02*
X0339898Y0118957D01*
X0339898Y0114958D02*
X0339094Y0114958D01*
X0374284Y0102963D02*
X0389701Y0102963D01*
X0389701Y0098964D02*
X0376110Y0098964D01*
X0376096Y0094966D02*
X0389701Y0094966D01*
X0389701Y0090967D02*
X0374235Y0090967D01*
X0273000Y0148000D02*
X0268000Y0148000D01*
X0218000Y0188000D02*
X0213000Y0183000D01*
X0218000Y0188000D02*
X0218000Y0193000D01*
X0228000Y0223000D02*
X0228000Y0258000D01*
X0238000Y0258000D02*
X0238000Y0223000D01*
X0248000Y0223000D02*
X0248000Y0258000D01*
X0258000Y0258000D02*
X0258000Y0223000D01*
X0268000Y0223000D02*
X0268000Y0258000D01*
X0222018Y0266902D02*
X0193982Y0266902D01*
X0198000Y0262903D02*
X0198000Y0262903D01*
X0202572Y0262903D02*
X0218476Y0262903D01*
X0217300Y0258905D02*
X0204639Y0258905D01*
X0204700Y0258000D02*
X0198700Y0258000D01*
X0198700Y0258000D01*
X0204700Y0258000D01*
X0203950Y0254906D02*
X0217752Y0254906D01*
X0219000Y0250908D02*
X0196040Y0250908D01*
X0198000Y0251300D02*
X0198000Y0253979D01*
X0198000Y0251300D01*
X0198000Y0253979D02*
X0198000Y0253979D01*
X0179960Y0250908D02*
X0177000Y0250908D01*
X0178000Y0248246D02*
X0178000Y0248246D01*
X0118553Y0242911D02*
X0017447Y0242911D01*
X0010070Y0254906D02*
X0010000Y0254906D01*
X0026124Y0270900D02*
X0374876Y0270900D01*
X0372367Y0258905D02*
X0370002Y0258905D01*
X0371267Y0254906D02*
X0375070Y0254906D01*
X0370806Y0250908D02*
X0389701Y0250908D01*
X0389701Y0246909D02*
X0368273Y0246909D01*
X0363207Y0242911D02*
X0389701Y0242911D01*
X0389701Y0238912D02*
X0364500Y0238912D01*
X0367299Y0234914D02*
X0389701Y0234914D01*
X0389701Y0230915D02*
X0370497Y0230915D01*
X0371307Y0226594D02*
X0361906Y0226594D01*
X0361906Y0217193D01*
X0362054Y0217193D01*
X0363149Y0217316D01*
X0364222Y0217561D01*
X0365261Y0217925D01*
X0366253Y0218403D01*
X0367186Y0218988D01*
X0368047Y0219675D01*
X0368825Y0220453D01*
X0369512Y0221314D01*
X0370097Y0222247D01*
X0370575Y0223239D01*
X0370939Y0224278D01*
X0371184Y0225351D01*
X0371307Y0226446D01*
X0371307Y0226594D01*
X0370421Y0222918D02*
X0389701Y0222918D01*
X0389701Y0226917D02*
X0361906Y0226917D01*
X0361102Y0226917D02*
X0334898Y0226917D01*
X0334898Y0222918D02*
X0334094Y0222918D01*
X0334094Y0218920D02*
X0334898Y0218920D01*
X0332000Y0214921D02*
X0389701Y0214921D01*
X0389701Y0210923D02*
X0332000Y0210923D01*
X0332000Y0206924D02*
X0389701Y0206924D01*
X0389701Y0202926D02*
X0332000Y0202926D01*
X0332000Y0198927D02*
X0389701Y0198927D01*
X0389701Y0194929D02*
X0369318Y0194929D01*
X0369512Y0194686D02*
X0368825Y0195547D01*
X0368047Y0196325D01*
X0367186Y0197012D01*
X0366253Y0197597D01*
X0365261Y0198075D01*
X0364222Y0198439D01*
X0363149Y0198684D01*
X0362054Y0198807D01*
X0361906Y0198807D01*
X0361906Y0189406D01*
X0361102Y0189406D01*
X0361102Y0198807D01*
X0360953Y0198807D01*
X0359859Y0198684D01*
X0358786Y0198439D01*
X0357747Y0198075D01*
X0356754Y0197597D01*
X0355822Y0197012D01*
X0354961Y0196325D01*
X0354183Y0195547D01*
X0353496Y0194686D01*
X0352910Y0193753D01*
X0352433Y0192761D01*
X0352069Y0191722D01*
X0351824Y0190649D01*
X0351701Y0189554D01*
X0351701Y0189406D01*
X0361102Y0189406D01*
X0361102Y0188602D01*
X0361906Y0188602D01*
X0361906Y0189406D01*
X0371307Y0189406D01*
X0371307Y0189554D01*
X0371184Y0190649D01*
X0370939Y0191722D01*
X0370575Y0192761D01*
X0370097Y0193753D01*
X0369512Y0194686D01*
X0371120Y0190930D02*
X0389701Y0190930D01*
X0389701Y0186932D02*
X0371086Y0186932D01*
X0371184Y0187359D02*
X0371307Y0188453D01*
X0371307Y0188602D01*
X0361906Y0188602D01*
X0361906Y0179201D01*
X0362054Y0179201D01*
X0363149Y0179324D01*
X0364222Y0179569D01*
X0365261Y0179933D01*
X0366253Y0180410D01*
X0367186Y0180996D01*
X0368047Y0181683D01*
X0368825Y0182461D01*
X0369512Y0183322D01*
X0370097Y0184254D01*
X0370575Y0185247D01*
X0370939Y0186286D01*
X0371184Y0187359D01*
X0369201Y0182933D02*
X0389701Y0182933D01*
X0389701Y0178934D02*
X0358301Y0178934D01*
X0358839Y0174936D02*
X0389701Y0174936D01*
X0361906Y0182933D02*
X0361102Y0182933D01*
X0361102Y0186932D02*
X0361906Y0186932D01*
X0361906Y0190930D02*
X0361102Y0190930D01*
X0361102Y0194929D02*
X0361906Y0194929D01*
X0353690Y0194929D02*
X0342310Y0194929D01*
X0342504Y0194686D02*
X0341817Y0195547D01*
X0341039Y0196325D01*
X0340178Y0197012D01*
X0339245Y0197597D01*
X0338253Y0198075D01*
X0337214Y0198439D01*
X0336141Y0198684D01*
X0335047Y0198807D01*
X0334898Y0198807D01*
X0334898Y0189406D01*
X0344299Y0189406D01*
X0344299Y0189554D01*
X0344176Y0190649D01*
X0343931Y0191722D01*
X0343567Y0192761D01*
X0343090Y0193753D01*
X0342504Y0194686D01*
X0344112Y0190930D02*
X0351888Y0190930D01*
X0351922Y0186932D02*
X0344078Y0186932D01*
X0334898Y0190930D02*
X0334094Y0190930D01*
X0334094Y0194929D02*
X0334898Y0194929D01*
X0330500Y0175500D02*
X0348000Y0175500D01*
X0358786Y0217561D02*
X0357747Y0217925D01*
X0356754Y0218403D01*
X0355822Y0218988D01*
X0354961Y0219675D01*
X0354183Y0220453D01*
X0353496Y0221314D01*
X0352910Y0222247D01*
X0352433Y0223239D01*
X0352069Y0224278D01*
X0351824Y0225351D01*
X0351701Y0226446D01*
X0351701Y0226594D01*
X0361102Y0226594D01*
X0361102Y0217193D01*
X0360953Y0217193D01*
X0359859Y0217316D01*
X0358786Y0217561D01*
X0361102Y0218920D02*
X0361906Y0218920D01*
X0355932Y0218920D02*
X0340068Y0218920D01*
X0343413Y0222918D02*
X0352587Y0222918D01*
X0361102Y0222918D02*
X0361906Y0222918D01*
X0367076Y0218920D02*
X0389701Y0218920D01*
X0210220Y0142948D02*
X0156206Y0142948D01*
X0156307Y0141102D02*
X0146906Y0141102D01*
X0146906Y0131701D01*
X0147054Y0131701D01*
X0148149Y0131824D01*
X0149222Y0132069D01*
X0150261Y0132433D01*
X0151253Y0132910D01*
X0152186Y0133496D01*
X0153047Y0134183D01*
X0153825Y0134961D01*
X0154512Y0135822D01*
X0155097Y0136754D01*
X0155575Y0137747D01*
X0155939Y0138786D01*
X0156184Y0139859D01*
X0156307Y0140953D01*
X0156307Y0141102D01*
X0155976Y0138949D02*
X0206221Y0138949D01*
X0202223Y0134951D02*
X0153815Y0134951D01*
X0146906Y0134951D02*
X0146102Y0134951D01*
X0146102Y0138949D02*
X0146906Y0138949D01*
X0146102Y0141102D02*
X0136701Y0141102D01*
X0136701Y0140953D01*
X0136824Y0139859D01*
X0137069Y0138786D01*
X0137341Y0138009D01*
X0137184Y0138100D01*
X0134427Y0138839D01*
X0131573Y0138839D01*
X0128816Y0138100D01*
X0128659Y0138009D01*
X0128931Y0138786D01*
X0129176Y0139859D01*
X0129299Y0140953D01*
X0129299Y0141102D01*
X0119898Y0141102D01*
X0119898Y0141906D01*
X0129299Y0141906D01*
X0129299Y0142054D01*
X0129176Y0143149D01*
X0128982Y0144000D01*
X0137018Y0144000D01*
X0136824Y0143149D01*
X0136701Y0142054D01*
X0136701Y0141906D01*
X0146102Y0141906D01*
X0146102Y0141102D01*
X0137032Y0138949D02*
X0128968Y0138949D01*
X0129199Y0142948D02*
X0136801Y0142948D01*
X0143430Y0130952D02*
X0183681Y0130952D01*
X0207104Y0114958D02*
X0209000Y0114958D01*
X0209000Y0110960D02*
X0191765Y0110960D01*
X0209000Y0106961D02*
X0152779Y0106961D01*
X0124000Y0102963D02*
X0010000Y0102963D01*
X0010000Y0098964D02*
X0061236Y0098964D01*
X0057238Y0094966D02*
X0010000Y0094966D01*
X0020838Y0090967D02*
X0053239Y0090967D01*
X0049902Y0086969D02*
X0022953Y0086969D01*
X0022953Y0082970D02*
X0049000Y0082970D01*
X0049000Y0078972D02*
X0024756Y0078972D01*
X0030330Y0074973D02*
X0045670Y0074973D01*
X0039873Y0070975D02*
X0036127Y0070975D01*
X0037575Y0066976D02*
X0038425Y0066976D01*
X0038425Y0062978D02*
X0037575Y0062978D01*
X0037575Y0058979D02*
X0038425Y0058979D01*
X0039509Y0054981D02*
X0036096Y0054981D01*
X0036124Y0050982D02*
X0039876Y0050982D01*
X0038425Y0046984D02*
X0037575Y0046984D01*
X0037575Y0042985D02*
X0038425Y0042985D01*
X0038425Y0038987D02*
X0037575Y0038987D01*
X0037894Y0034988D02*
X0039896Y0034988D01*
X0037953Y0030990D02*
X0045759Y0030990D01*
X0050241Y0030990D02*
X0055759Y0030990D01*
X0057339Y0026991D02*
X0037953Y0026991D01*
X0036298Y0022993D02*
X0056669Y0022993D01*
X0076034Y0030990D02*
X0100759Y0030990D01*
X0105241Y0030990D02*
X0120759Y0030990D01*
X0125241Y0030990D02*
X0130759Y0030990D01*
X0135241Y0030990D02*
X0140759Y0030990D01*
X0145241Y0030990D02*
X0147282Y0030990D01*
X0151281Y0026991D02*
X0078661Y0026991D01*
X0079331Y0022993D02*
X0155280Y0022993D01*
X0114509Y0054981D02*
X0111096Y0054981D01*
X0112575Y0058979D02*
X0113425Y0058979D01*
X0113425Y0062978D02*
X0112575Y0062978D01*
X0112575Y0066976D02*
X0113425Y0066976D01*
X0114873Y0070975D02*
X0111127Y0070975D01*
X0105330Y0074973D02*
X0120670Y0074973D01*
X0123721Y0078972D02*
X0077953Y0078972D01*
X0077694Y0082970D02*
X0124000Y0082970D01*
X0124000Y0086969D02*
X0122254Y0086969D01*
X0122953Y0090967D02*
X0124000Y0090967D01*
X0124000Y0094966D02*
X0122953Y0094966D01*
X0122282Y0098964D02*
X0124000Y0098964D01*
X0119898Y0106961D02*
X0119094Y0106961D01*
X0119094Y0110960D02*
X0119898Y0110960D01*
X0113000Y0093000D02*
X0068000Y0093000D01*
X0058000Y0083000D01*
X0058000Y0063000D01*
X0048000Y0063000D02*
X0048000Y0058000D01*
X0053000Y0053000D01*
X0073000Y0053000D01*
X0078000Y0058000D01*
X0068000Y0063000D02*
X0068000Y0078000D01*
X0077953Y0074973D02*
X0100670Y0074973D01*
X0094873Y0070975D02*
X0077000Y0070975D01*
X0084703Y0066976D02*
X0093425Y0066976D01*
X0090250Y0062978D02*
X0087691Y0062978D01*
X0088000Y0048000D02*
X0103000Y0063000D01*
X0103000Y0043000D02*
X0110500Y0043000D01*
X0094896Y0034988D02*
X0076104Y0034988D01*
X0077575Y0038987D02*
X0081387Y0038987D01*
X0078325Y0042985D02*
X0077575Y0042985D01*
X0028000Y0043000D02*
X0028000Y0030500D01*
X0013000Y0048000D02*
X0028000Y0063000D01*
X0013000Y0078000D01*
X0013000Y0083000D01*
X0010000Y0106961D02*
X0018221Y0106961D01*
X0015347Y0110960D02*
X0010000Y0110960D01*
X0010000Y0114958D02*
X0014693Y0114958D01*
X0015764Y0118957D02*
X0010000Y0118957D01*
X0010000Y0122955D02*
X0019533Y0122955D01*
X0017185Y0134951D02*
X0010000Y0134951D01*
X0010000Y0138949D02*
X0015024Y0138949D01*
X0014794Y0142948D02*
X0010000Y0142948D01*
X0010000Y0146946D02*
X0016338Y0146946D01*
X0024094Y0146946D02*
X0024898Y0146946D01*
X0024898Y0142948D02*
X0024094Y0142948D01*
X0168000Y0058000D02*
X0173000Y0058000D01*
X0178000Y0063000D01*
X0178000Y0060500D01*
D19*
X0168000Y0058000D03*
X0188000Y0053000D03*
X0188000Y0038000D03*
X0208000Y0073000D03*
X0240500Y0050500D03*
X0263000Y0038000D03*
X0283000Y0078000D03*
X0268000Y0148000D03*
X0268000Y0160500D03*
X0213000Y0183000D03*
X0178000Y0203000D03*
X0123000Y0233000D03*
X0170500Y0160500D03*
X0183000Y0118000D03*
X0173000Y0075500D03*
X0153000Y0073000D03*
X0133000Y0073000D03*
X0113000Y0093000D03*
X0068000Y0078000D03*
X0078000Y0058000D03*
X0088000Y0048000D03*
X0110500Y0043000D03*
X0028000Y0030500D03*
X0013000Y0048000D03*
X0013000Y0083000D03*
X0078000Y0140500D03*
X0098000Y0140500D03*
X0013000Y0233000D03*
D20*
X0088000Y0198000D03*
D21*
X0168000Y0258000D03*
M02*
