G75*
G70*
%OFA0B0*%
%FSLAX24Y24*%
%IPPOS*%
%LPD*%
%AMOC8*
5,1,8,0,0,1.08239X$1,22.5*
%
%ADD10C,0.0946*%
%ADD11C,0.0867*%
%ADD12C,0.0640*%
%ADD13C,0.0820*%
%ADD14C,0.0635*%
%ADD15C,0.0050*%
%ADD16C,0.0848*%
%ADD17C,0.1441*%
%ADD18C,0.0730*%
%ADD19R,0.0730X0.0730*%
D10*
X001300Y042550D03*
X007800Y042550D03*
X014300Y042550D03*
X020800Y042550D03*
X027300Y042550D03*
X039300Y047800D03*
D11*
X001300Y018300D03*
X019300Y018300D03*
X039300Y018300D03*
D12*
X038080Y029300D02*
X037520Y029300D01*
X037520Y030300D02*
X038080Y030300D01*
X038080Y031300D02*
X037520Y031300D01*
X037520Y032300D02*
X038080Y032300D01*
X038080Y033300D02*
X037520Y033300D01*
X037520Y034300D02*
X038080Y034300D01*
X038080Y035300D02*
X037520Y035300D01*
X037520Y036300D02*
X038080Y036300D01*
X038080Y037300D02*
X037520Y037300D01*
X035080Y037300D02*
X034520Y037300D01*
X034520Y036300D02*
X035080Y036300D01*
X035080Y035300D02*
X034520Y035300D01*
X034520Y034300D02*
X035080Y034300D01*
X035080Y033300D02*
X034520Y033300D01*
X034520Y032300D02*
X035080Y032300D01*
X035080Y031300D02*
X034520Y031300D01*
X034520Y030300D02*
X035080Y030300D01*
X035080Y029300D02*
X034520Y029300D01*
D13*
X039300Y029300D03*
X039300Y030300D03*
X039300Y031300D03*
X039300Y032300D03*
X039300Y033300D03*
X039300Y034300D03*
X039300Y035300D03*
X039300Y036300D03*
X039300Y038800D03*
X039300Y039800D03*
X039300Y040800D03*
X039300Y041800D03*
D14*
X031077Y027800D02*
X030523Y027800D01*
X030523Y026800D02*
X031077Y026800D01*
X031077Y025800D02*
X030523Y025800D01*
X029077Y025800D02*
X028523Y025800D01*
X028523Y026800D02*
X029077Y026800D01*
X029077Y027800D02*
X028523Y027800D01*
X028523Y023800D02*
X029077Y023800D01*
X030523Y023800D02*
X031077Y023800D01*
X024577Y023800D02*
X024023Y023800D01*
X022577Y023800D02*
X022023Y023800D01*
X022023Y025800D02*
X022577Y025800D01*
X022577Y026800D02*
X022023Y026800D01*
X022023Y027800D02*
X022577Y027800D01*
X024023Y027800D02*
X024577Y027800D01*
X024577Y026800D02*
X024023Y026800D01*
X024023Y025800D02*
X024577Y025800D01*
X018077Y025800D02*
X017523Y025800D01*
X017523Y026800D02*
X018077Y026800D01*
X018077Y027800D02*
X017523Y027800D01*
X016077Y027800D02*
X015523Y027800D01*
X015523Y026800D02*
X016077Y026800D01*
X016077Y025800D02*
X015523Y025800D01*
X015523Y023800D02*
X016077Y023800D01*
X017523Y023800D02*
X018077Y023800D01*
X011577Y023800D02*
X011023Y023800D01*
X009577Y023800D02*
X009023Y023800D01*
X009023Y025800D02*
X009577Y025800D01*
X009577Y026800D02*
X009023Y026800D01*
X009023Y027800D02*
X009577Y027800D01*
X011023Y027800D02*
X011577Y027800D01*
X011577Y026800D02*
X011023Y026800D01*
X011023Y025800D02*
X011577Y025800D01*
X005077Y025800D02*
X004523Y025800D01*
X004523Y026800D02*
X005077Y026800D01*
X005077Y027800D02*
X004523Y027800D01*
X003077Y027800D02*
X002523Y027800D01*
X002523Y026800D02*
X003077Y026800D01*
X003077Y025800D02*
X002523Y025800D01*
X002523Y023800D02*
X003077Y023800D01*
X004523Y023800D02*
X005077Y023800D01*
D15*
X035425Y038618D02*
X035398Y038678D01*
X035382Y038742D01*
X035377Y038808D01*
X035385Y038880D01*
X035407Y038949D01*
X035441Y039012D01*
X035488Y039068D01*
X035544Y039113D01*
X035608Y039146D01*
X035678Y039167D01*
X035750Y039173D01*
X035822Y039167D01*
X035892Y039147D01*
X035957Y039113D01*
X036014Y039068D01*
X036061Y039012D01*
X036096Y038949D01*
X036118Y038879D01*
X036126Y038807D01*
X036121Y038741D01*
X036105Y038677D01*
X036077Y038617D01*
X036040Y038562D01*
X035994Y038515D01*
X035940Y038476D01*
X035881Y038447D01*
X035817Y038430D01*
X035751Y038423D01*
X035685Y038430D01*
X035622Y038448D01*
X035562Y038477D01*
X035508Y038515D01*
X035462Y038563D01*
X035425Y038618D01*
X035415Y038640D02*
X036088Y038640D01*
X036108Y038689D02*
X035395Y038689D01*
X035383Y038737D02*
X036120Y038737D01*
X036124Y038786D02*
X035379Y038786D01*
X035380Y038834D02*
X036123Y038834D01*
X036117Y038883D02*
X035386Y038883D01*
X035401Y038931D02*
X036101Y038931D01*
X036079Y038980D02*
X035423Y038980D01*
X035455Y039028D02*
X036047Y039028D01*
X036003Y039077D02*
X035499Y039077D01*
X035567Y039125D02*
X035934Y039125D01*
X036060Y038592D02*
X035443Y038592D01*
X035481Y038543D02*
X036022Y038543D01*
X035966Y038495D02*
X035537Y038495D01*
X035627Y038446D02*
X035876Y038446D01*
X036500Y038678D02*
X036484Y038742D01*
X036479Y038808D01*
X036487Y038880D01*
X036509Y038949D01*
X036543Y039012D01*
X036590Y039068D01*
X036646Y039113D01*
X036710Y039146D01*
X036780Y039167D01*
X036852Y039173D01*
X036924Y039167D01*
X036994Y039147D01*
X037059Y039113D01*
X037116Y039068D01*
X037163Y039012D01*
X037198Y038949D01*
X037220Y038879D01*
X037228Y038807D01*
X037223Y038741D01*
X037207Y038677D01*
X037179Y038617D01*
X037142Y038562D01*
X037096Y038515D01*
X037042Y038476D01*
X036983Y038447D01*
X036919Y038430D01*
X036853Y038423D01*
X036787Y038430D01*
X036724Y038448D01*
X036664Y038477D01*
X036610Y038515D01*
X036564Y038563D01*
X036527Y038618D01*
X036500Y038678D01*
X036497Y038689D02*
X037210Y038689D01*
X037222Y038737D02*
X036485Y038737D01*
X036481Y038786D02*
X037226Y038786D01*
X037225Y038834D02*
X036482Y038834D01*
X036488Y038883D02*
X037219Y038883D01*
X037203Y038931D02*
X036503Y038931D01*
X036525Y038980D02*
X037181Y038980D01*
X037149Y039028D02*
X036557Y039028D01*
X036601Y039077D02*
X037105Y039077D01*
X037036Y039125D02*
X036669Y039125D01*
X036517Y038640D02*
X037190Y038640D01*
X037162Y038592D02*
X036545Y038592D01*
X036583Y038543D02*
X037124Y038543D01*
X037068Y038495D02*
X036639Y038495D01*
X036729Y038446D02*
X036978Y038446D01*
D16*
X029800Y039300D03*
X029800Y045800D03*
X023300Y045800D03*
X023300Y039300D03*
X023300Y032800D03*
X016800Y032800D03*
X016800Y039300D03*
X016800Y045800D03*
X010300Y045800D03*
X010300Y039300D03*
X010300Y032800D03*
X003800Y032800D03*
X003800Y039300D03*
X003800Y045800D03*
X029800Y032800D03*
D17*
X028450Y034150D03*
X028450Y031450D03*
X031150Y031450D03*
X031150Y034150D03*
X031150Y037950D03*
X031150Y040650D03*
X028450Y040650D03*
X028450Y037950D03*
X024650Y037950D03*
X024650Y040650D03*
X021950Y040650D03*
X021950Y037950D03*
X021950Y034150D03*
X021950Y031450D03*
X024650Y031450D03*
X024650Y034150D03*
X018150Y034150D03*
X018150Y031450D03*
X015450Y031450D03*
X015450Y034150D03*
X015450Y037950D03*
X015450Y040650D03*
X018150Y040650D03*
X018150Y037950D03*
X018150Y044450D03*
X018150Y047150D03*
X015450Y047150D03*
X015450Y044450D03*
X011650Y044450D03*
X011650Y047150D03*
X008950Y047150D03*
X008950Y044450D03*
X008950Y040650D03*
X008950Y037950D03*
X011650Y037950D03*
X011650Y040650D03*
X011650Y034150D03*
X011650Y031450D03*
X008950Y031450D03*
X008950Y034150D03*
X005150Y034150D03*
X005150Y031450D03*
X002450Y031450D03*
X002450Y034150D03*
X002450Y037950D03*
X002450Y040650D03*
X005150Y040650D03*
X005150Y037950D03*
X005150Y044450D03*
X005150Y047150D03*
X002450Y047150D03*
X002450Y044450D03*
X021950Y044450D03*
X021950Y047150D03*
X024650Y047150D03*
X024650Y044450D03*
X028450Y044450D03*
X028450Y047150D03*
X031150Y047150D03*
X031150Y044450D03*
D18*
X036800Y041300D03*
D19*
X035800Y041300D03*
M02*
