G75*
G70*
%OFA0B0*%
%FSLAX24Y24*%
%IPPOS*%
%LPD*%
%AMOC8*
5,1,8,0,0,1.08239X$1,22.5*
%
%ADD10C,0.0110*%
%ADD11C,0.0060*%
%ADD12C,0.0030*%
%ADD13C,0.0080*%
%ADD14C,0.0100*%
%ADD15C,0.0050*%
D10*
X003533Y018855D02*
X003926Y018855D01*
X003730Y018855D02*
X003730Y019446D01*
X003533Y019249D01*
X010033Y019347D02*
X010131Y019446D01*
X010328Y019446D01*
X010426Y019347D01*
X010426Y019249D01*
X010033Y018855D01*
X010426Y018855D01*
X016533Y018953D02*
X016631Y018855D01*
X016828Y018855D01*
X016926Y018953D01*
X016926Y019052D01*
X016828Y019150D01*
X016730Y019150D01*
X016828Y019150D02*
X016926Y019249D01*
X016926Y019347D01*
X016828Y019446D01*
X016631Y019446D01*
X016533Y019347D01*
X023033Y019150D02*
X023426Y019150D01*
X023328Y018855D02*
X023328Y019446D01*
X023033Y019150D01*
X029533Y019150D02*
X029730Y019249D01*
X029828Y019249D01*
X029926Y019150D01*
X029926Y018953D01*
X029828Y018855D01*
X029631Y018855D01*
X029533Y018953D01*
X029533Y019150D02*
X029533Y019446D01*
X029926Y019446D01*
X033453Y032460D02*
X033847Y032460D01*
X033945Y032559D01*
X033945Y032756D01*
X033847Y032854D01*
X033453Y032854D01*
X033354Y032756D01*
X033354Y032559D01*
X033453Y032460D01*
X033354Y033105D02*
X033945Y033499D01*
X033354Y033499D01*
X033354Y033105D02*
X033945Y033105D01*
X033945Y038101D02*
X033945Y038298D01*
X033945Y038199D02*
X033354Y038199D01*
X033354Y038101D02*
X033354Y038298D01*
X033354Y038531D02*
X033945Y038924D01*
X033354Y038924D01*
X033354Y039175D02*
X033354Y039471D01*
X033453Y039569D01*
X033650Y039569D01*
X033748Y039471D01*
X033748Y039175D01*
X033945Y039175D02*
X033354Y039175D01*
X033354Y038531D02*
X033945Y038531D01*
X033847Y039820D02*
X033354Y039820D01*
X033354Y040214D02*
X033847Y040214D01*
X033945Y040115D01*
X033945Y039918D01*
X033847Y039820D01*
X033354Y040464D02*
X033354Y040858D01*
X033354Y040661D02*
X033945Y040661D01*
X033847Y044888D02*
X033453Y044888D01*
X033354Y044987D01*
X033354Y045183D01*
X033453Y045282D01*
X033847Y045282D01*
X033945Y045183D01*
X033945Y044987D01*
X033847Y044888D01*
X033945Y045533D02*
X033354Y045533D01*
X033354Y045926D01*
X033354Y046177D02*
X033354Y046571D01*
X033650Y046374D02*
X033650Y046177D01*
X033945Y046177D02*
X033354Y046177D01*
X033650Y045730D02*
X033650Y045533D01*
X029926Y045503D02*
X029828Y045405D01*
X029631Y045405D01*
X029533Y045503D01*
X029533Y045700D02*
X029730Y045799D01*
X029828Y045799D01*
X029926Y045700D01*
X029926Y045503D01*
X029533Y045700D02*
X029533Y045996D01*
X029926Y045996D01*
X023426Y045650D02*
X023033Y045650D01*
X023328Y045946D01*
X023328Y045355D01*
X016926Y045453D02*
X016828Y045355D01*
X016631Y045355D01*
X016533Y045453D01*
X016730Y045650D02*
X016828Y045650D01*
X016926Y045552D01*
X016926Y045453D01*
X016828Y045650D02*
X016926Y045749D01*
X016926Y045847D01*
X016828Y045946D01*
X016631Y045946D01*
X016533Y045847D01*
X010426Y045847D02*
X010328Y045946D01*
X010131Y045946D01*
X010033Y045847D01*
X010426Y045847D02*
X010426Y045749D01*
X010033Y045355D01*
X010426Y045355D01*
X004426Y045855D02*
X004033Y045855D01*
X004230Y045855D02*
X004230Y046446D01*
X004033Y046249D01*
D11*
X004159Y021115D02*
X003450Y021115D01*
X003450Y020485D02*
X004159Y020485D01*
X009950Y020485D02*
X010659Y020485D01*
X010659Y021115D02*
X009950Y021115D01*
X016450Y021115D02*
X017159Y021115D01*
X017159Y020485D02*
X016450Y020485D01*
X022950Y020485D02*
X023659Y020485D01*
X023659Y021115D02*
X022950Y021115D01*
X029450Y021115D02*
X030159Y021115D01*
X030159Y020485D02*
X029450Y020485D01*
X035150Y028800D02*
X035900Y028800D01*
X035902Y028839D01*
X035908Y028878D01*
X035917Y028916D01*
X035930Y028953D01*
X035947Y028989D01*
X035967Y029022D01*
X035991Y029054D01*
X036017Y029083D01*
X036046Y029109D01*
X036078Y029133D01*
X036111Y029153D01*
X036147Y029170D01*
X036184Y029183D01*
X036222Y029192D01*
X036261Y029198D01*
X036300Y029200D01*
X036339Y029198D01*
X036378Y029192D01*
X036416Y029183D01*
X036453Y029170D01*
X036489Y029153D01*
X036522Y029133D01*
X036554Y029109D01*
X036583Y029083D01*
X036609Y029054D01*
X036633Y029022D01*
X036653Y028989D01*
X036670Y028953D01*
X036683Y028916D01*
X036692Y028878D01*
X036698Y028839D01*
X036700Y028800D01*
X037450Y028800D01*
X037450Y037800D01*
X035150Y037800D01*
X035150Y028800D01*
X039080Y027996D02*
X039193Y027882D01*
X039193Y027741D02*
X039136Y027741D01*
X039080Y027684D01*
X039080Y027571D01*
X039136Y027514D01*
X039136Y027373D02*
X039193Y027373D01*
X039250Y027316D01*
X039307Y027373D01*
X039363Y027373D01*
X039420Y027316D01*
X039420Y027203D01*
X039363Y027146D01*
X039250Y027259D02*
X039250Y027316D01*
X039136Y027373D02*
X039080Y027316D01*
X039080Y027203D01*
X039136Y027146D01*
X039250Y027004D02*
X039250Y026778D01*
X039080Y026948D01*
X039420Y026948D01*
X039363Y026636D02*
X039420Y026579D01*
X039420Y026466D01*
X039363Y026409D01*
X039250Y026409D02*
X039193Y026523D01*
X039193Y026579D01*
X039250Y026636D01*
X039363Y026636D01*
X039250Y026409D02*
X039080Y026409D01*
X039080Y026636D01*
X039420Y027514D02*
X039193Y027741D01*
X039420Y027741D02*
X039420Y027514D01*
X039420Y027882D02*
X039420Y028109D01*
X039420Y027996D02*
X039080Y027996D01*
X038307Y038339D02*
X038080Y038339D01*
X038307Y038339D02*
X038420Y038452D01*
X038307Y038566D01*
X038080Y038566D01*
X038193Y038707D02*
X038193Y038764D01*
X038420Y038764D01*
X038420Y038707D02*
X038420Y038821D01*
X038420Y038953D02*
X038193Y038953D01*
X038193Y039123D01*
X038250Y039180D01*
X038420Y039180D01*
X038250Y039541D02*
X038420Y039768D01*
X038250Y039909D02*
X038250Y040136D01*
X038363Y040278D02*
X038136Y040278D01*
X038080Y040334D01*
X038080Y040448D01*
X038136Y040504D01*
X038250Y040504D02*
X038250Y040391D01*
X038250Y040504D02*
X038363Y040504D01*
X038420Y040448D01*
X038420Y040334D01*
X038363Y040278D01*
X038420Y040646D02*
X038080Y040646D01*
X038420Y040873D01*
X038080Y040873D01*
X038080Y041014D02*
X038080Y041184D01*
X038136Y041241D01*
X038363Y041241D01*
X038420Y041184D01*
X038420Y041014D01*
X038080Y041014D01*
X038250Y041382D02*
X038250Y041609D01*
X038420Y041751D02*
X038250Y041978D01*
X038080Y041751D01*
X038080Y039768D02*
X038250Y039541D01*
X038080Y038764D02*
X038023Y038764D01*
D12*
X038385Y020685D02*
X038385Y020315D01*
X038262Y020315D02*
X038508Y020315D01*
X038630Y020315D02*
X038692Y020315D01*
X038692Y020377D01*
X038630Y020377D01*
X038630Y020315D01*
X038814Y020315D02*
X039061Y020315D01*
X038937Y020315D02*
X038937Y020685D01*
X038814Y020562D01*
X038385Y020685D02*
X038262Y020562D01*
X038140Y020562D02*
X038017Y020315D01*
X037893Y020562D01*
X037403Y020624D02*
X037403Y020500D01*
X037342Y020438D01*
X037157Y020438D01*
X037157Y020315D02*
X037157Y020685D01*
X037342Y020685D01*
X037403Y020624D01*
X037035Y020624D02*
X036973Y020685D01*
X036850Y020685D01*
X036788Y020624D01*
X036788Y020377D01*
X036850Y020315D01*
X036973Y020315D01*
X037035Y020377D01*
X037035Y020500D01*
X036912Y020500D01*
X037034Y019935D02*
X036911Y019812D01*
X036790Y019874D02*
X036543Y019627D01*
X036604Y019565D01*
X036728Y019565D01*
X036790Y019627D01*
X036790Y019874D01*
X036728Y019935D01*
X036604Y019935D01*
X036543Y019874D01*
X036543Y019627D01*
X036421Y019565D02*
X036174Y019565D01*
X036421Y019812D01*
X036421Y019874D01*
X036360Y019935D01*
X036236Y019935D01*
X036174Y019874D01*
X036113Y020315D02*
X036052Y020377D01*
X036052Y020500D01*
X036113Y020562D01*
X036299Y020562D01*
X036299Y020685D02*
X036299Y020315D01*
X036113Y020315D01*
X035930Y020562D02*
X035868Y020562D01*
X035745Y020438D01*
X035623Y020438D02*
X035438Y020438D01*
X035376Y020377D01*
X035438Y020315D01*
X035623Y020315D01*
X035623Y020500D01*
X035562Y020562D01*
X035438Y020562D01*
X035255Y020562D02*
X035070Y020562D01*
X035008Y020500D01*
X035008Y020377D01*
X035070Y020315D01*
X035255Y020315D01*
X035255Y019935D02*
X035316Y019874D01*
X035316Y019750D01*
X035255Y019688D01*
X035069Y019688D01*
X034948Y019688D02*
X034948Y019627D01*
X034886Y019565D01*
X034763Y019565D01*
X034701Y019627D01*
X034580Y019565D02*
X034333Y019565D01*
X034333Y019935D01*
X034211Y019750D02*
X033965Y019750D01*
X033842Y019565D02*
X033719Y019565D01*
X033781Y019565D02*
X033781Y019935D01*
X033842Y019935D02*
X033719Y019935D01*
X033598Y019874D02*
X033598Y019750D01*
X033536Y019688D01*
X033351Y019688D01*
X033351Y019565D02*
X033351Y019935D01*
X033536Y019935D01*
X033598Y019874D01*
X033658Y020315D02*
X033781Y020315D01*
X033719Y020315D02*
X033719Y020685D01*
X033658Y020685D01*
X033474Y020562D02*
X033536Y020500D01*
X033536Y020438D01*
X033289Y020438D01*
X033289Y020377D02*
X033289Y020500D01*
X033351Y020562D01*
X033474Y020562D01*
X033474Y020315D02*
X033351Y020315D01*
X033289Y020377D01*
X033168Y020315D02*
X033044Y020438D01*
X033106Y020438D02*
X032921Y020438D01*
X032921Y020315D02*
X032921Y020685D01*
X033106Y020685D01*
X033168Y020624D01*
X033168Y020500D01*
X033106Y020438D01*
X032982Y019935D02*
X032982Y019565D01*
X033229Y019565D01*
X033136Y019185D02*
X033383Y018815D01*
X033383Y019185D01*
X033566Y019062D02*
X033504Y019000D01*
X033504Y018877D01*
X033566Y018815D01*
X033689Y018815D01*
X033751Y018877D01*
X033751Y019000D01*
X033689Y019062D01*
X033566Y019062D01*
X033872Y019062D02*
X033872Y018815D01*
X033872Y018938D02*
X033996Y019062D01*
X034058Y019062D01*
X034179Y019062D02*
X034241Y019062D01*
X034303Y019000D01*
X034365Y019062D01*
X034426Y019000D01*
X034426Y018815D01*
X034303Y018815D02*
X034303Y019000D01*
X034179Y019062D02*
X034179Y018815D01*
X034548Y018877D02*
X034609Y018938D01*
X034795Y018938D01*
X034795Y019000D02*
X034795Y018815D01*
X034609Y018815D01*
X034548Y018877D01*
X034609Y019062D02*
X034733Y019062D01*
X034795Y019000D01*
X034916Y019062D02*
X035101Y019062D01*
X035163Y019000D01*
X035163Y018815D01*
X034916Y018815D02*
X034916Y019062D01*
X035069Y019565D02*
X035069Y019935D01*
X035255Y019935D01*
X035438Y019935D02*
X035438Y019565D01*
X035685Y019565D02*
X035685Y019935D01*
X035561Y019812D01*
X035438Y019935D01*
X035745Y020315D02*
X035745Y020562D01*
X034948Y019874D02*
X034886Y019935D01*
X034763Y019935D01*
X034701Y019874D01*
X034701Y019812D01*
X034763Y019750D01*
X034886Y019750D01*
X034948Y019688D01*
X035653Y019185D02*
X035838Y019185D01*
X035899Y019124D01*
X035899Y019000D01*
X035838Y018938D01*
X035653Y018938D01*
X035653Y018815D02*
X035653Y019185D01*
X036021Y019000D02*
X036083Y019062D01*
X036206Y019062D01*
X036268Y019000D01*
X036268Y018938D01*
X036021Y018938D01*
X036021Y018877D02*
X036021Y019000D01*
X036021Y018877D02*
X036083Y018815D01*
X036206Y018815D01*
X036389Y018815D02*
X036513Y018815D01*
X036451Y018815D02*
X036451Y019185D01*
X036389Y019185D01*
X036635Y019185D02*
X036697Y019185D01*
X036697Y018815D01*
X036758Y018815D02*
X036635Y018815D01*
X036880Y018877D02*
X036880Y019000D01*
X036942Y019062D01*
X037065Y019062D01*
X037127Y019000D01*
X037127Y018938D01*
X036880Y018938D01*
X036880Y018877D02*
X036942Y018815D01*
X037065Y018815D01*
X037310Y018877D02*
X037372Y018815D01*
X037310Y018877D02*
X037310Y019124D01*
X037249Y019062D02*
X037372Y019062D01*
X037341Y019565D02*
X037279Y019627D01*
X037341Y019565D02*
X037464Y019565D01*
X037526Y019627D01*
X037526Y019750D01*
X037464Y019812D01*
X037403Y019812D01*
X037279Y019750D01*
X037279Y019935D01*
X037526Y019935D01*
X037034Y019935D02*
X037034Y019565D01*
X036911Y019565D02*
X037158Y019565D01*
X034518Y020253D02*
X034457Y020192D01*
X034395Y020192D01*
X034333Y020315D02*
X034518Y020315D01*
X034518Y020253D02*
X034518Y020562D01*
X034271Y020562D02*
X034271Y020377D01*
X034333Y020315D01*
X034150Y020315D02*
X033965Y020315D01*
X033903Y020377D01*
X033965Y020438D01*
X034150Y020438D01*
X034150Y020500D02*
X034150Y020315D01*
X034150Y020500D02*
X034088Y020562D01*
X033965Y020562D01*
X033136Y019185D02*
X033136Y018815D01*
X032369Y020315D02*
X032431Y020377D01*
X032369Y020315D02*
X032246Y020315D01*
X032184Y020377D01*
X032184Y020624D01*
X032246Y020685D01*
X032369Y020685D01*
X032431Y020624D01*
X032063Y020685D02*
X032063Y020315D01*
X031816Y020685D01*
X031816Y020315D01*
X031695Y020377D02*
X031633Y020315D01*
X031448Y020315D01*
X031448Y020685D01*
X031633Y020685D01*
X031695Y020624D01*
X031695Y020562D01*
X031633Y020500D01*
X031448Y020500D01*
X031633Y020500D02*
X031695Y020438D01*
X031695Y020377D01*
D13*
X030745Y021406D02*
X030745Y022194D01*
X030194Y022194D01*
X029918Y022036D02*
X029682Y021800D01*
X029918Y021564D01*
X029918Y022036D01*
X029682Y022076D02*
X029682Y021800D01*
X029682Y021524D01*
X029406Y021406D02*
X028855Y021406D01*
X028855Y022194D01*
X029406Y022194D01*
X029946Y022544D02*
X030497Y022544D01*
X030497Y023056D01*
X029946Y023056D01*
X030497Y023056D02*
X030654Y023056D01*
X030654Y022544D02*
X030497Y022544D01*
X031217Y023398D02*
X028383Y023398D01*
X028383Y029186D01*
X031217Y029186D01*
X031217Y023398D01*
X030745Y021406D02*
X030194Y021406D01*
X024717Y023398D02*
X021883Y023398D01*
X021883Y029186D01*
X024717Y029186D01*
X024717Y023398D01*
X024154Y023056D02*
X023997Y023056D01*
X023997Y022544D01*
X023446Y022544D01*
X023694Y022194D02*
X024245Y022194D01*
X024245Y021406D01*
X023694Y021406D01*
X023418Y021564D02*
X023418Y022036D01*
X023182Y021800D01*
X023418Y021564D01*
X023182Y021524D02*
X023182Y021800D01*
X023182Y022076D01*
X022906Y022194D02*
X022355Y022194D01*
X022355Y021406D01*
X022906Y021406D01*
X023997Y022544D02*
X024154Y022544D01*
X023997Y023056D02*
X023446Y023056D01*
X018217Y023398D02*
X018217Y029186D01*
X015383Y029186D01*
X015383Y023398D01*
X018217Y023398D01*
X017654Y023056D02*
X017497Y023056D01*
X017497Y022544D01*
X016946Y022544D01*
X017194Y022194D02*
X017745Y022194D01*
X017745Y021406D01*
X017194Y021406D01*
X016918Y021564D02*
X016918Y022036D01*
X016682Y021800D01*
X016918Y021564D01*
X016682Y021524D02*
X016682Y021800D01*
X016682Y022076D01*
X016406Y022194D02*
X015855Y022194D01*
X015855Y021406D01*
X016406Y021406D01*
X017497Y022544D02*
X017654Y022544D01*
X017497Y023056D02*
X016946Y023056D01*
X011717Y023398D02*
X011717Y029186D01*
X008883Y029186D01*
X008883Y023398D01*
X011717Y023398D01*
X011154Y023056D02*
X010997Y023056D01*
X010997Y022544D01*
X010446Y022544D01*
X010694Y022194D02*
X011245Y022194D01*
X011245Y021406D01*
X010694Y021406D01*
X010418Y021564D02*
X010418Y022036D01*
X010182Y021800D01*
X010418Y021564D01*
X010182Y021524D02*
X010182Y021800D01*
X010182Y022076D01*
X009906Y022194D02*
X009355Y022194D01*
X009355Y021406D01*
X009906Y021406D01*
X010997Y022544D02*
X011154Y022544D01*
X010997Y023056D02*
X010446Y023056D01*
X005217Y023398D02*
X005217Y029186D01*
X002383Y029186D01*
X002383Y023398D01*
X005217Y023398D01*
X004654Y023056D02*
X004497Y023056D01*
X004497Y022544D01*
X003946Y022544D01*
X004194Y022194D02*
X004745Y022194D01*
X004745Y021406D01*
X004194Y021406D01*
X003918Y021564D02*
X003918Y022036D01*
X003682Y021800D01*
X003918Y021564D01*
X003682Y021524D02*
X003682Y021800D01*
X003682Y022076D01*
X003406Y022194D02*
X002855Y022194D01*
X002855Y021406D01*
X003406Y021406D01*
X004497Y022544D02*
X004654Y022544D01*
X004497Y023056D02*
X003946Y023056D01*
X036550Y040800D02*
X037050Y040800D01*
X035020Y041300D02*
X035022Y041371D01*
X035028Y041442D01*
X035038Y041513D01*
X035052Y041582D01*
X035069Y041651D01*
X035091Y041719D01*
X035116Y041786D01*
X035145Y041851D01*
X035177Y041914D01*
X035213Y041976D01*
X035252Y042035D01*
X035295Y042092D01*
X035340Y042147D01*
X035389Y042199D01*
X035440Y042248D01*
X035494Y042294D01*
X035551Y042338D01*
X035609Y042378D01*
X035670Y042414D01*
X035733Y042448D01*
X035798Y042477D01*
X035864Y042503D01*
X035932Y042526D01*
X036000Y042544D01*
X036070Y042559D01*
X036140Y042570D01*
X036211Y042577D01*
X036282Y042580D01*
X036353Y042579D01*
X036424Y042574D01*
X036495Y042565D01*
X036565Y042552D01*
X036634Y042536D01*
X036702Y042515D01*
X036769Y042491D01*
X036835Y042463D01*
X036898Y042431D01*
X036960Y042396D01*
X037020Y042358D01*
X037078Y042316D01*
X037133Y042272D01*
X037186Y042224D01*
X037236Y042173D01*
X037283Y042120D01*
X037327Y042064D01*
X037368Y042006D01*
X037406Y041945D01*
X037440Y041883D01*
X037470Y041818D01*
X037497Y041753D01*
X037521Y041685D01*
X037540Y041617D01*
X037556Y041548D01*
X037568Y041477D01*
X037576Y041407D01*
X037580Y041336D01*
X037580Y041264D01*
X037576Y041193D01*
X037568Y041123D01*
X037556Y041052D01*
X037540Y040983D01*
X037521Y040915D01*
X037497Y040847D01*
X037470Y040782D01*
X037440Y040717D01*
X037406Y040655D01*
X037368Y040594D01*
X037327Y040536D01*
X037283Y040480D01*
X037236Y040427D01*
X037186Y040376D01*
X037133Y040328D01*
X037078Y040284D01*
X037020Y040242D01*
X036960Y040204D01*
X036898Y040169D01*
X036835Y040137D01*
X036769Y040109D01*
X036702Y040085D01*
X036634Y040064D01*
X036565Y040048D01*
X036495Y040035D01*
X036424Y040026D01*
X036353Y040021D01*
X036282Y040020D01*
X036211Y040023D01*
X036140Y040030D01*
X036070Y040041D01*
X036000Y040056D01*
X035932Y040074D01*
X035864Y040097D01*
X035798Y040123D01*
X035733Y040152D01*
X035670Y040186D01*
X035609Y040222D01*
X035551Y040262D01*
X035494Y040306D01*
X035440Y040352D01*
X035389Y040401D01*
X035340Y040453D01*
X035295Y040508D01*
X035252Y040565D01*
X035213Y040624D01*
X035177Y040686D01*
X035145Y040749D01*
X035116Y040814D01*
X035091Y040881D01*
X035069Y040949D01*
X035052Y041018D01*
X035038Y041087D01*
X035028Y041158D01*
X035022Y041229D01*
X035020Y041300D01*
X038800Y041050D02*
X038800Y040550D01*
X039050Y040300D01*
X039550Y040300D01*
X039800Y040550D01*
X039800Y041050D01*
X039550Y041300D01*
X039800Y041550D01*
X039800Y042050D01*
X039550Y042300D01*
X039050Y042300D01*
X038800Y042050D01*
X038800Y041550D01*
X039050Y041300D01*
X038800Y041050D01*
X039050Y040300D02*
X038800Y040050D01*
X038800Y039550D01*
X039050Y039300D01*
X038800Y039050D01*
X038800Y038550D01*
X039050Y038300D01*
X039550Y038300D01*
X039800Y038550D01*
X039800Y039050D01*
X039550Y039300D01*
X039800Y039550D01*
X039800Y040050D01*
X039550Y040300D01*
X039050Y040300D01*
X039050Y036800D02*
X039550Y036800D01*
X039800Y036550D01*
X039800Y036050D01*
X039550Y035800D01*
X039800Y035550D01*
X039800Y035050D01*
X039550Y034800D01*
X039800Y034550D01*
X039800Y034050D01*
X039550Y033800D01*
X039800Y033550D01*
X039800Y033050D01*
X039550Y032800D01*
X039800Y032550D01*
X039800Y032050D01*
X039550Y031800D01*
X039800Y031550D01*
X039800Y031050D01*
X039550Y030800D01*
X039800Y030550D01*
X039800Y030050D01*
X039550Y029800D01*
X039800Y029550D01*
X039800Y029050D01*
X039550Y028800D01*
X039050Y028800D01*
X038800Y029050D01*
X038800Y029550D01*
X039050Y029800D01*
X038800Y030050D01*
X038800Y030550D01*
X039050Y030800D01*
X038800Y031050D01*
X038800Y031550D01*
X039050Y031800D01*
X038800Y032050D01*
X038800Y032550D01*
X039050Y032800D01*
X038800Y033050D01*
X038800Y033550D01*
X039050Y033800D01*
X038800Y034050D01*
X038800Y034550D01*
X039050Y034800D01*
X038800Y035050D01*
X038800Y035550D01*
X039050Y035800D01*
X038800Y036050D01*
X038800Y036550D01*
X039050Y036800D01*
D14*
X037350Y038300D02*
X037350Y039300D01*
X035250Y039300D01*
X035250Y038300D01*
X037350Y038300D01*
X036300Y038550D02*
X036300Y039050D01*
D15*
X027099Y039300D02*
X027102Y039433D01*
X027112Y039565D01*
X027128Y039696D01*
X027151Y039827D01*
X027180Y039956D01*
X027215Y040084D01*
X027257Y040210D01*
X027305Y040334D01*
X027358Y040455D01*
X027418Y040573D01*
X027483Y040689D01*
X027554Y040801D01*
X027631Y040909D01*
X027712Y041013D01*
X027799Y041114D01*
X027890Y041210D01*
X027986Y041301D01*
X028087Y041388D01*
X028191Y041469D01*
X028299Y041546D01*
X028411Y041617D01*
X028527Y041682D01*
X028645Y041742D01*
X028766Y041795D01*
X028890Y041843D01*
X029016Y041885D01*
X029144Y041920D01*
X029273Y041949D01*
X029404Y041972D01*
X029535Y041988D01*
X029667Y041998D01*
X029800Y042001D01*
X029933Y041998D01*
X030065Y041988D01*
X030196Y041972D01*
X030327Y041949D01*
X030456Y041920D01*
X030584Y041885D01*
X030710Y041843D01*
X030834Y041795D01*
X030955Y041742D01*
X031073Y041682D01*
X031189Y041617D01*
X031301Y041546D01*
X031409Y041469D01*
X031513Y041388D01*
X031614Y041301D01*
X031710Y041210D01*
X031801Y041114D01*
X031888Y041013D01*
X031969Y040909D01*
X032046Y040801D01*
X032117Y040689D01*
X032182Y040573D01*
X032242Y040455D01*
X032295Y040334D01*
X032343Y040210D01*
X032385Y040084D01*
X032420Y039956D01*
X032449Y039827D01*
X032472Y039696D01*
X032488Y039565D01*
X032498Y039433D01*
X032501Y039300D01*
X032498Y039167D01*
X032488Y039035D01*
X032472Y038904D01*
X032449Y038773D01*
X032420Y038644D01*
X032385Y038516D01*
X032343Y038390D01*
X032295Y038266D01*
X032242Y038145D01*
X032182Y038027D01*
X032117Y037911D01*
X032046Y037799D01*
X031969Y037691D01*
X031888Y037587D01*
X031801Y037486D01*
X031710Y037390D01*
X031614Y037299D01*
X031513Y037212D01*
X031409Y037131D01*
X031301Y037054D01*
X031189Y036983D01*
X031073Y036918D01*
X030955Y036858D01*
X030834Y036805D01*
X030710Y036757D01*
X030584Y036715D01*
X030456Y036680D01*
X030327Y036651D01*
X030196Y036628D01*
X030065Y036612D01*
X029933Y036602D01*
X029800Y036599D01*
X029667Y036602D01*
X029535Y036612D01*
X029404Y036628D01*
X029273Y036651D01*
X029144Y036680D01*
X029016Y036715D01*
X028890Y036757D01*
X028766Y036805D01*
X028645Y036858D01*
X028527Y036918D01*
X028411Y036983D01*
X028299Y037054D01*
X028191Y037131D01*
X028087Y037212D01*
X027986Y037299D01*
X027890Y037390D01*
X027799Y037486D01*
X027712Y037587D01*
X027631Y037691D01*
X027554Y037799D01*
X027483Y037911D01*
X027418Y038027D01*
X027358Y038145D01*
X027305Y038266D01*
X027257Y038390D01*
X027215Y038516D01*
X027180Y038644D01*
X027151Y038773D01*
X027128Y038904D01*
X027112Y039035D01*
X027102Y039167D01*
X027099Y039300D01*
X020599Y039300D02*
X020602Y039433D01*
X020612Y039565D01*
X020628Y039696D01*
X020651Y039827D01*
X020680Y039956D01*
X020715Y040084D01*
X020757Y040210D01*
X020805Y040334D01*
X020858Y040455D01*
X020918Y040573D01*
X020983Y040689D01*
X021054Y040801D01*
X021131Y040909D01*
X021212Y041013D01*
X021299Y041114D01*
X021390Y041210D01*
X021486Y041301D01*
X021587Y041388D01*
X021691Y041469D01*
X021799Y041546D01*
X021911Y041617D01*
X022027Y041682D01*
X022145Y041742D01*
X022266Y041795D01*
X022390Y041843D01*
X022516Y041885D01*
X022644Y041920D01*
X022773Y041949D01*
X022904Y041972D01*
X023035Y041988D01*
X023167Y041998D01*
X023300Y042001D01*
X023433Y041998D01*
X023565Y041988D01*
X023696Y041972D01*
X023827Y041949D01*
X023956Y041920D01*
X024084Y041885D01*
X024210Y041843D01*
X024334Y041795D01*
X024455Y041742D01*
X024573Y041682D01*
X024689Y041617D01*
X024801Y041546D01*
X024909Y041469D01*
X025013Y041388D01*
X025114Y041301D01*
X025210Y041210D01*
X025301Y041114D01*
X025388Y041013D01*
X025469Y040909D01*
X025546Y040801D01*
X025617Y040689D01*
X025682Y040573D01*
X025742Y040455D01*
X025795Y040334D01*
X025843Y040210D01*
X025885Y040084D01*
X025920Y039956D01*
X025949Y039827D01*
X025972Y039696D01*
X025988Y039565D01*
X025998Y039433D01*
X026001Y039300D01*
X025998Y039167D01*
X025988Y039035D01*
X025972Y038904D01*
X025949Y038773D01*
X025920Y038644D01*
X025885Y038516D01*
X025843Y038390D01*
X025795Y038266D01*
X025742Y038145D01*
X025682Y038027D01*
X025617Y037911D01*
X025546Y037799D01*
X025469Y037691D01*
X025388Y037587D01*
X025301Y037486D01*
X025210Y037390D01*
X025114Y037299D01*
X025013Y037212D01*
X024909Y037131D01*
X024801Y037054D01*
X024689Y036983D01*
X024573Y036918D01*
X024455Y036858D01*
X024334Y036805D01*
X024210Y036757D01*
X024084Y036715D01*
X023956Y036680D01*
X023827Y036651D01*
X023696Y036628D01*
X023565Y036612D01*
X023433Y036602D01*
X023300Y036599D01*
X023167Y036602D01*
X023035Y036612D01*
X022904Y036628D01*
X022773Y036651D01*
X022644Y036680D01*
X022516Y036715D01*
X022390Y036757D01*
X022266Y036805D01*
X022145Y036858D01*
X022027Y036918D01*
X021911Y036983D01*
X021799Y037054D01*
X021691Y037131D01*
X021587Y037212D01*
X021486Y037299D01*
X021390Y037390D01*
X021299Y037486D01*
X021212Y037587D01*
X021131Y037691D01*
X021054Y037799D01*
X020983Y037911D01*
X020918Y038027D01*
X020858Y038145D01*
X020805Y038266D01*
X020757Y038390D01*
X020715Y038516D01*
X020680Y038644D01*
X020651Y038773D01*
X020628Y038904D01*
X020612Y039035D01*
X020602Y039167D01*
X020599Y039300D01*
X014099Y039300D02*
X014102Y039433D01*
X014112Y039565D01*
X014128Y039696D01*
X014151Y039827D01*
X014180Y039956D01*
X014215Y040084D01*
X014257Y040210D01*
X014305Y040334D01*
X014358Y040455D01*
X014418Y040573D01*
X014483Y040689D01*
X014554Y040801D01*
X014631Y040909D01*
X014712Y041013D01*
X014799Y041114D01*
X014890Y041210D01*
X014986Y041301D01*
X015087Y041388D01*
X015191Y041469D01*
X015299Y041546D01*
X015411Y041617D01*
X015527Y041682D01*
X015645Y041742D01*
X015766Y041795D01*
X015890Y041843D01*
X016016Y041885D01*
X016144Y041920D01*
X016273Y041949D01*
X016404Y041972D01*
X016535Y041988D01*
X016667Y041998D01*
X016800Y042001D01*
X016933Y041998D01*
X017065Y041988D01*
X017196Y041972D01*
X017327Y041949D01*
X017456Y041920D01*
X017584Y041885D01*
X017710Y041843D01*
X017834Y041795D01*
X017955Y041742D01*
X018073Y041682D01*
X018189Y041617D01*
X018301Y041546D01*
X018409Y041469D01*
X018513Y041388D01*
X018614Y041301D01*
X018710Y041210D01*
X018801Y041114D01*
X018888Y041013D01*
X018969Y040909D01*
X019046Y040801D01*
X019117Y040689D01*
X019182Y040573D01*
X019242Y040455D01*
X019295Y040334D01*
X019343Y040210D01*
X019385Y040084D01*
X019420Y039956D01*
X019449Y039827D01*
X019472Y039696D01*
X019488Y039565D01*
X019498Y039433D01*
X019501Y039300D01*
X019498Y039167D01*
X019488Y039035D01*
X019472Y038904D01*
X019449Y038773D01*
X019420Y038644D01*
X019385Y038516D01*
X019343Y038390D01*
X019295Y038266D01*
X019242Y038145D01*
X019182Y038027D01*
X019117Y037911D01*
X019046Y037799D01*
X018969Y037691D01*
X018888Y037587D01*
X018801Y037486D01*
X018710Y037390D01*
X018614Y037299D01*
X018513Y037212D01*
X018409Y037131D01*
X018301Y037054D01*
X018189Y036983D01*
X018073Y036918D01*
X017955Y036858D01*
X017834Y036805D01*
X017710Y036757D01*
X017584Y036715D01*
X017456Y036680D01*
X017327Y036651D01*
X017196Y036628D01*
X017065Y036612D01*
X016933Y036602D01*
X016800Y036599D01*
X016667Y036602D01*
X016535Y036612D01*
X016404Y036628D01*
X016273Y036651D01*
X016144Y036680D01*
X016016Y036715D01*
X015890Y036757D01*
X015766Y036805D01*
X015645Y036858D01*
X015527Y036918D01*
X015411Y036983D01*
X015299Y037054D01*
X015191Y037131D01*
X015087Y037212D01*
X014986Y037299D01*
X014890Y037390D01*
X014799Y037486D01*
X014712Y037587D01*
X014631Y037691D01*
X014554Y037799D01*
X014483Y037911D01*
X014418Y038027D01*
X014358Y038145D01*
X014305Y038266D01*
X014257Y038390D01*
X014215Y038516D01*
X014180Y038644D01*
X014151Y038773D01*
X014128Y038904D01*
X014112Y039035D01*
X014102Y039167D01*
X014099Y039300D01*
X007599Y039300D02*
X007602Y039433D01*
X007612Y039565D01*
X007628Y039696D01*
X007651Y039827D01*
X007680Y039956D01*
X007715Y040084D01*
X007757Y040210D01*
X007805Y040334D01*
X007858Y040455D01*
X007918Y040573D01*
X007983Y040689D01*
X008054Y040801D01*
X008131Y040909D01*
X008212Y041013D01*
X008299Y041114D01*
X008390Y041210D01*
X008486Y041301D01*
X008587Y041388D01*
X008691Y041469D01*
X008799Y041546D01*
X008911Y041617D01*
X009027Y041682D01*
X009145Y041742D01*
X009266Y041795D01*
X009390Y041843D01*
X009516Y041885D01*
X009644Y041920D01*
X009773Y041949D01*
X009904Y041972D01*
X010035Y041988D01*
X010167Y041998D01*
X010300Y042001D01*
X010433Y041998D01*
X010565Y041988D01*
X010696Y041972D01*
X010827Y041949D01*
X010956Y041920D01*
X011084Y041885D01*
X011210Y041843D01*
X011334Y041795D01*
X011455Y041742D01*
X011573Y041682D01*
X011689Y041617D01*
X011801Y041546D01*
X011909Y041469D01*
X012013Y041388D01*
X012114Y041301D01*
X012210Y041210D01*
X012301Y041114D01*
X012388Y041013D01*
X012469Y040909D01*
X012546Y040801D01*
X012617Y040689D01*
X012682Y040573D01*
X012742Y040455D01*
X012795Y040334D01*
X012843Y040210D01*
X012885Y040084D01*
X012920Y039956D01*
X012949Y039827D01*
X012972Y039696D01*
X012988Y039565D01*
X012998Y039433D01*
X013001Y039300D01*
X012998Y039167D01*
X012988Y039035D01*
X012972Y038904D01*
X012949Y038773D01*
X012920Y038644D01*
X012885Y038516D01*
X012843Y038390D01*
X012795Y038266D01*
X012742Y038145D01*
X012682Y038027D01*
X012617Y037911D01*
X012546Y037799D01*
X012469Y037691D01*
X012388Y037587D01*
X012301Y037486D01*
X012210Y037390D01*
X012114Y037299D01*
X012013Y037212D01*
X011909Y037131D01*
X011801Y037054D01*
X011689Y036983D01*
X011573Y036918D01*
X011455Y036858D01*
X011334Y036805D01*
X011210Y036757D01*
X011084Y036715D01*
X010956Y036680D01*
X010827Y036651D01*
X010696Y036628D01*
X010565Y036612D01*
X010433Y036602D01*
X010300Y036599D01*
X010167Y036602D01*
X010035Y036612D01*
X009904Y036628D01*
X009773Y036651D01*
X009644Y036680D01*
X009516Y036715D01*
X009390Y036757D01*
X009266Y036805D01*
X009145Y036858D01*
X009027Y036918D01*
X008911Y036983D01*
X008799Y037054D01*
X008691Y037131D01*
X008587Y037212D01*
X008486Y037299D01*
X008390Y037390D01*
X008299Y037486D01*
X008212Y037587D01*
X008131Y037691D01*
X008054Y037799D01*
X007983Y037911D01*
X007918Y038027D01*
X007858Y038145D01*
X007805Y038266D01*
X007757Y038390D01*
X007715Y038516D01*
X007680Y038644D01*
X007651Y038773D01*
X007628Y038904D01*
X007612Y039035D01*
X007602Y039167D01*
X007599Y039300D01*
X001099Y039300D02*
X001102Y039433D01*
X001112Y039565D01*
X001128Y039696D01*
X001151Y039827D01*
X001180Y039956D01*
X001215Y040084D01*
X001257Y040210D01*
X001305Y040334D01*
X001358Y040455D01*
X001418Y040573D01*
X001483Y040689D01*
X001554Y040801D01*
X001631Y040909D01*
X001712Y041013D01*
X001799Y041114D01*
X001890Y041210D01*
X001986Y041301D01*
X002087Y041388D01*
X002191Y041469D01*
X002299Y041546D01*
X002411Y041617D01*
X002527Y041682D01*
X002645Y041742D01*
X002766Y041795D01*
X002890Y041843D01*
X003016Y041885D01*
X003144Y041920D01*
X003273Y041949D01*
X003404Y041972D01*
X003535Y041988D01*
X003667Y041998D01*
X003800Y042001D01*
X003933Y041998D01*
X004065Y041988D01*
X004196Y041972D01*
X004327Y041949D01*
X004456Y041920D01*
X004584Y041885D01*
X004710Y041843D01*
X004834Y041795D01*
X004955Y041742D01*
X005073Y041682D01*
X005189Y041617D01*
X005301Y041546D01*
X005409Y041469D01*
X005513Y041388D01*
X005614Y041301D01*
X005710Y041210D01*
X005801Y041114D01*
X005888Y041013D01*
X005969Y040909D01*
X006046Y040801D01*
X006117Y040689D01*
X006182Y040573D01*
X006242Y040455D01*
X006295Y040334D01*
X006343Y040210D01*
X006385Y040084D01*
X006420Y039956D01*
X006449Y039827D01*
X006472Y039696D01*
X006488Y039565D01*
X006498Y039433D01*
X006501Y039300D01*
X006498Y039167D01*
X006488Y039035D01*
X006472Y038904D01*
X006449Y038773D01*
X006420Y038644D01*
X006385Y038516D01*
X006343Y038390D01*
X006295Y038266D01*
X006242Y038145D01*
X006182Y038027D01*
X006117Y037911D01*
X006046Y037799D01*
X005969Y037691D01*
X005888Y037587D01*
X005801Y037486D01*
X005710Y037390D01*
X005614Y037299D01*
X005513Y037212D01*
X005409Y037131D01*
X005301Y037054D01*
X005189Y036983D01*
X005073Y036918D01*
X004955Y036858D01*
X004834Y036805D01*
X004710Y036757D01*
X004584Y036715D01*
X004456Y036680D01*
X004327Y036651D01*
X004196Y036628D01*
X004065Y036612D01*
X003933Y036602D01*
X003800Y036599D01*
X003667Y036602D01*
X003535Y036612D01*
X003404Y036628D01*
X003273Y036651D01*
X003144Y036680D01*
X003016Y036715D01*
X002890Y036757D01*
X002766Y036805D01*
X002645Y036858D01*
X002527Y036918D01*
X002411Y036983D01*
X002299Y037054D01*
X002191Y037131D01*
X002087Y037212D01*
X001986Y037299D01*
X001890Y037390D01*
X001799Y037486D01*
X001712Y037587D01*
X001631Y037691D01*
X001554Y037799D01*
X001483Y037911D01*
X001418Y038027D01*
X001358Y038145D01*
X001305Y038266D01*
X001257Y038390D01*
X001215Y038516D01*
X001180Y038644D01*
X001151Y038773D01*
X001128Y038904D01*
X001112Y039035D01*
X001102Y039167D01*
X001099Y039300D01*
X001099Y045800D02*
X001102Y045933D01*
X001112Y046065D01*
X001128Y046196D01*
X001151Y046327D01*
X001180Y046456D01*
X001215Y046584D01*
X001257Y046710D01*
X001305Y046834D01*
X001358Y046955D01*
X001418Y047073D01*
X001483Y047189D01*
X001554Y047301D01*
X001631Y047409D01*
X001712Y047513D01*
X001799Y047614D01*
X001890Y047710D01*
X001986Y047801D01*
X002087Y047888D01*
X002191Y047969D01*
X002299Y048046D01*
X002411Y048117D01*
X002527Y048182D01*
X002645Y048242D01*
X002766Y048295D01*
X002890Y048343D01*
X003016Y048385D01*
X003144Y048420D01*
X003273Y048449D01*
X003404Y048472D01*
X003535Y048488D01*
X003667Y048498D01*
X003800Y048501D01*
X003933Y048498D01*
X004065Y048488D01*
X004196Y048472D01*
X004327Y048449D01*
X004456Y048420D01*
X004584Y048385D01*
X004710Y048343D01*
X004834Y048295D01*
X004955Y048242D01*
X005073Y048182D01*
X005189Y048117D01*
X005301Y048046D01*
X005409Y047969D01*
X005513Y047888D01*
X005614Y047801D01*
X005710Y047710D01*
X005801Y047614D01*
X005888Y047513D01*
X005969Y047409D01*
X006046Y047301D01*
X006117Y047189D01*
X006182Y047073D01*
X006242Y046955D01*
X006295Y046834D01*
X006343Y046710D01*
X006385Y046584D01*
X006420Y046456D01*
X006449Y046327D01*
X006472Y046196D01*
X006488Y046065D01*
X006498Y045933D01*
X006501Y045800D01*
X006498Y045667D01*
X006488Y045535D01*
X006472Y045404D01*
X006449Y045273D01*
X006420Y045144D01*
X006385Y045016D01*
X006343Y044890D01*
X006295Y044766D01*
X006242Y044645D01*
X006182Y044527D01*
X006117Y044411D01*
X006046Y044299D01*
X005969Y044191D01*
X005888Y044087D01*
X005801Y043986D01*
X005710Y043890D01*
X005614Y043799D01*
X005513Y043712D01*
X005409Y043631D01*
X005301Y043554D01*
X005189Y043483D01*
X005073Y043418D01*
X004955Y043358D01*
X004834Y043305D01*
X004710Y043257D01*
X004584Y043215D01*
X004456Y043180D01*
X004327Y043151D01*
X004196Y043128D01*
X004065Y043112D01*
X003933Y043102D01*
X003800Y043099D01*
X003667Y043102D01*
X003535Y043112D01*
X003404Y043128D01*
X003273Y043151D01*
X003144Y043180D01*
X003016Y043215D01*
X002890Y043257D01*
X002766Y043305D01*
X002645Y043358D01*
X002527Y043418D01*
X002411Y043483D01*
X002299Y043554D01*
X002191Y043631D01*
X002087Y043712D01*
X001986Y043799D01*
X001890Y043890D01*
X001799Y043986D01*
X001712Y044087D01*
X001631Y044191D01*
X001554Y044299D01*
X001483Y044411D01*
X001418Y044527D01*
X001358Y044645D01*
X001305Y044766D01*
X001257Y044890D01*
X001215Y045016D01*
X001180Y045144D01*
X001151Y045273D01*
X001128Y045404D01*
X001112Y045535D01*
X001102Y045667D01*
X001099Y045800D01*
X007599Y045800D02*
X007602Y045933D01*
X007612Y046065D01*
X007628Y046196D01*
X007651Y046327D01*
X007680Y046456D01*
X007715Y046584D01*
X007757Y046710D01*
X007805Y046834D01*
X007858Y046955D01*
X007918Y047073D01*
X007983Y047189D01*
X008054Y047301D01*
X008131Y047409D01*
X008212Y047513D01*
X008299Y047614D01*
X008390Y047710D01*
X008486Y047801D01*
X008587Y047888D01*
X008691Y047969D01*
X008799Y048046D01*
X008911Y048117D01*
X009027Y048182D01*
X009145Y048242D01*
X009266Y048295D01*
X009390Y048343D01*
X009516Y048385D01*
X009644Y048420D01*
X009773Y048449D01*
X009904Y048472D01*
X010035Y048488D01*
X010167Y048498D01*
X010300Y048501D01*
X010433Y048498D01*
X010565Y048488D01*
X010696Y048472D01*
X010827Y048449D01*
X010956Y048420D01*
X011084Y048385D01*
X011210Y048343D01*
X011334Y048295D01*
X011455Y048242D01*
X011573Y048182D01*
X011689Y048117D01*
X011801Y048046D01*
X011909Y047969D01*
X012013Y047888D01*
X012114Y047801D01*
X012210Y047710D01*
X012301Y047614D01*
X012388Y047513D01*
X012469Y047409D01*
X012546Y047301D01*
X012617Y047189D01*
X012682Y047073D01*
X012742Y046955D01*
X012795Y046834D01*
X012843Y046710D01*
X012885Y046584D01*
X012920Y046456D01*
X012949Y046327D01*
X012972Y046196D01*
X012988Y046065D01*
X012998Y045933D01*
X013001Y045800D01*
X012998Y045667D01*
X012988Y045535D01*
X012972Y045404D01*
X012949Y045273D01*
X012920Y045144D01*
X012885Y045016D01*
X012843Y044890D01*
X012795Y044766D01*
X012742Y044645D01*
X012682Y044527D01*
X012617Y044411D01*
X012546Y044299D01*
X012469Y044191D01*
X012388Y044087D01*
X012301Y043986D01*
X012210Y043890D01*
X012114Y043799D01*
X012013Y043712D01*
X011909Y043631D01*
X011801Y043554D01*
X011689Y043483D01*
X011573Y043418D01*
X011455Y043358D01*
X011334Y043305D01*
X011210Y043257D01*
X011084Y043215D01*
X010956Y043180D01*
X010827Y043151D01*
X010696Y043128D01*
X010565Y043112D01*
X010433Y043102D01*
X010300Y043099D01*
X010167Y043102D01*
X010035Y043112D01*
X009904Y043128D01*
X009773Y043151D01*
X009644Y043180D01*
X009516Y043215D01*
X009390Y043257D01*
X009266Y043305D01*
X009145Y043358D01*
X009027Y043418D01*
X008911Y043483D01*
X008799Y043554D01*
X008691Y043631D01*
X008587Y043712D01*
X008486Y043799D01*
X008390Y043890D01*
X008299Y043986D01*
X008212Y044087D01*
X008131Y044191D01*
X008054Y044299D01*
X007983Y044411D01*
X007918Y044527D01*
X007858Y044645D01*
X007805Y044766D01*
X007757Y044890D01*
X007715Y045016D01*
X007680Y045144D01*
X007651Y045273D01*
X007628Y045404D01*
X007612Y045535D01*
X007602Y045667D01*
X007599Y045800D01*
X014099Y045800D02*
X014102Y045933D01*
X014112Y046065D01*
X014128Y046196D01*
X014151Y046327D01*
X014180Y046456D01*
X014215Y046584D01*
X014257Y046710D01*
X014305Y046834D01*
X014358Y046955D01*
X014418Y047073D01*
X014483Y047189D01*
X014554Y047301D01*
X014631Y047409D01*
X014712Y047513D01*
X014799Y047614D01*
X014890Y047710D01*
X014986Y047801D01*
X015087Y047888D01*
X015191Y047969D01*
X015299Y048046D01*
X015411Y048117D01*
X015527Y048182D01*
X015645Y048242D01*
X015766Y048295D01*
X015890Y048343D01*
X016016Y048385D01*
X016144Y048420D01*
X016273Y048449D01*
X016404Y048472D01*
X016535Y048488D01*
X016667Y048498D01*
X016800Y048501D01*
X016933Y048498D01*
X017065Y048488D01*
X017196Y048472D01*
X017327Y048449D01*
X017456Y048420D01*
X017584Y048385D01*
X017710Y048343D01*
X017834Y048295D01*
X017955Y048242D01*
X018073Y048182D01*
X018189Y048117D01*
X018301Y048046D01*
X018409Y047969D01*
X018513Y047888D01*
X018614Y047801D01*
X018710Y047710D01*
X018801Y047614D01*
X018888Y047513D01*
X018969Y047409D01*
X019046Y047301D01*
X019117Y047189D01*
X019182Y047073D01*
X019242Y046955D01*
X019295Y046834D01*
X019343Y046710D01*
X019385Y046584D01*
X019420Y046456D01*
X019449Y046327D01*
X019472Y046196D01*
X019488Y046065D01*
X019498Y045933D01*
X019501Y045800D01*
X019498Y045667D01*
X019488Y045535D01*
X019472Y045404D01*
X019449Y045273D01*
X019420Y045144D01*
X019385Y045016D01*
X019343Y044890D01*
X019295Y044766D01*
X019242Y044645D01*
X019182Y044527D01*
X019117Y044411D01*
X019046Y044299D01*
X018969Y044191D01*
X018888Y044087D01*
X018801Y043986D01*
X018710Y043890D01*
X018614Y043799D01*
X018513Y043712D01*
X018409Y043631D01*
X018301Y043554D01*
X018189Y043483D01*
X018073Y043418D01*
X017955Y043358D01*
X017834Y043305D01*
X017710Y043257D01*
X017584Y043215D01*
X017456Y043180D01*
X017327Y043151D01*
X017196Y043128D01*
X017065Y043112D01*
X016933Y043102D01*
X016800Y043099D01*
X016667Y043102D01*
X016535Y043112D01*
X016404Y043128D01*
X016273Y043151D01*
X016144Y043180D01*
X016016Y043215D01*
X015890Y043257D01*
X015766Y043305D01*
X015645Y043358D01*
X015527Y043418D01*
X015411Y043483D01*
X015299Y043554D01*
X015191Y043631D01*
X015087Y043712D01*
X014986Y043799D01*
X014890Y043890D01*
X014799Y043986D01*
X014712Y044087D01*
X014631Y044191D01*
X014554Y044299D01*
X014483Y044411D01*
X014418Y044527D01*
X014358Y044645D01*
X014305Y044766D01*
X014257Y044890D01*
X014215Y045016D01*
X014180Y045144D01*
X014151Y045273D01*
X014128Y045404D01*
X014112Y045535D01*
X014102Y045667D01*
X014099Y045800D01*
X020599Y045800D02*
X020602Y045933D01*
X020612Y046065D01*
X020628Y046196D01*
X020651Y046327D01*
X020680Y046456D01*
X020715Y046584D01*
X020757Y046710D01*
X020805Y046834D01*
X020858Y046955D01*
X020918Y047073D01*
X020983Y047189D01*
X021054Y047301D01*
X021131Y047409D01*
X021212Y047513D01*
X021299Y047614D01*
X021390Y047710D01*
X021486Y047801D01*
X021587Y047888D01*
X021691Y047969D01*
X021799Y048046D01*
X021911Y048117D01*
X022027Y048182D01*
X022145Y048242D01*
X022266Y048295D01*
X022390Y048343D01*
X022516Y048385D01*
X022644Y048420D01*
X022773Y048449D01*
X022904Y048472D01*
X023035Y048488D01*
X023167Y048498D01*
X023300Y048501D01*
X023433Y048498D01*
X023565Y048488D01*
X023696Y048472D01*
X023827Y048449D01*
X023956Y048420D01*
X024084Y048385D01*
X024210Y048343D01*
X024334Y048295D01*
X024455Y048242D01*
X024573Y048182D01*
X024689Y048117D01*
X024801Y048046D01*
X024909Y047969D01*
X025013Y047888D01*
X025114Y047801D01*
X025210Y047710D01*
X025301Y047614D01*
X025388Y047513D01*
X025469Y047409D01*
X025546Y047301D01*
X025617Y047189D01*
X025682Y047073D01*
X025742Y046955D01*
X025795Y046834D01*
X025843Y046710D01*
X025885Y046584D01*
X025920Y046456D01*
X025949Y046327D01*
X025972Y046196D01*
X025988Y046065D01*
X025998Y045933D01*
X026001Y045800D01*
X025998Y045667D01*
X025988Y045535D01*
X025972Y045404D01*
X025949Y045273D01*
X025920Y045144D01*
X025885Y045016D01*
X025843Y044890D01*
X025795Y044766D01*
X025742Y044645D01*
X025682Y044527D01*
X025617Y044411D01*
X025546Y044299D01*
X025469Y044191D01*
X025388Y044087D01*
X025301Y043986D01*
X025210Y043890D01*
X025114Y043799D01*
X025013Y043712D01*
X024909Y043631D01*
X024801Y043554D01*
X024689Y043483D01*
X024573Y043418D01*
X024455Y043358D01*
X024334Y043305D01*
X024210Y043257D01*
X024084Y043215D01*
X023956Y043180D01*
X023827Y043151D01*
X023696Y043128D01*
X023565Y043112D01*
X023433Y043102D01*
X023300Y043099D01*
X023167Y043102D01*
X023035Y043112D01*
X022904Y043128D01*
X022773Y043151D01*
X022644Y043180D01*
X022516Y043215D01*
X022390Y043257D01*
X022266Y043305D01*
X022145Y043358D01*
X022027Y043418D01*
X021911Y043483D01*
X021799Y043554D01*
X021691Y043631D01*
X021587Y043712D01*
X021486Y043799D01*
X021390Y043890D01*
X021299Y043986D01*
X021212Y044087D01*
X021131Y044191D01*
X021054Y044299D01*
X020983Y044411D01*
X020918Y044527D01*
X020858Y044645D01*
X020805Y044766D01*
X020757Y044890D01*
X020715Y045016D01*
X020680Y045144D01*
X020651Y045273D01*
X020628Y045404D01*
X020612Y045535D01*
X020602Y045667D01*
X020599Y045800D01*
X027099Y045800D02*
X027102Y045933D01*
X027112Y046065D01*
X027128Y046196D01*
X027151Y046327D01*
X027180Y046456D01*
X027215Y046584D01*
X027257Y046710D01*
X027305Y046834D01*
X027358Y046955D01*
X027418Y047073D01*
X027483Y047189D01*
X027554Y047301D01*
X027631Y047409D01*
X027712Y047513D01*
X027799Y047614D01*
X027890Y047710D01*
X027986Y047801D01*
X028087Y047888D01*
X028191Y047969D01*
X028299Y048046D01*
X028411Y048117D01*
X028527Y048182D01*
X028645Y048242D01*
X028766Y048295D01*
X028890Y048343D01*
X029016Y048385D01*
X029144Y048420D01*
X029273Y048449D01*
X029404Y048472D01*
X029535Y048488D01*
X029667Y048498D01*
X029800Y048501D01*
X029933Y048498D01*
X030065Y048488D01*
X030196Y048472D01*
X030327Y048449D01*
X030456Y048420D01*
X030584Y048385D01*
X030710Y048343D01*
X030834Y048295D01*
X030955Y048242D01*
X031073Y048182D01*
X031189Y048117D01*
X031301Y048046D01*
X031409Y047969D01*
X031513Y047888D01*
X031614Y047801D01*
X031710Y047710D01*
X031801Y047614D01*
X031888Y047513D01*
X031969Y047409D01*
X032046Y047301D01*
X032117Y047189D01*
X032182Y047073D01*
X032242Y046955D01*
X032295Y046834D01*
X032343Y046710D01*
X032385Y046584D01*
X032420Y046456D01*
X032449Y046327D01*
X032472Y046196D01*
X032488Y046065D01*
X032498Y045933D01*
X032501Y045800D01*
X032498Y045667D01*
X032488Y045535D01*
X032472Y045404D01*
X032449Y045273D01*
X032420Y045144D01*
X032385Y045016D01*
X032343Y044890D01*
X032295Y044766D01*
X032242Y044645D01*
X032182Y044527D01*
X032117Y044411D01*
X032046Y044299D01*
X031969Y044191D01*
X031888Y044087D01*
X031801Y043986D01*
X031710Y043890D01*
X031614Y043799D01*
X031513Y043712D01*
X031409Y043631D01*
X031301Y043554D01*
X031189Y043483D01*
X031073Y043418D01*
X030955Y043358D01*
X030834Y043305D01*
X030710Y043257D01*
X030584Y043215D01*
X030456Y043180D01*
X030327Y043151D01*
X030196Y043128D01*
X030065Y043112D01*
X029933Y043102D01*
X029800Y043099D01*
X029667Y043102D01*
X029535Y043112D01*
X029404Y043128D01*
X029273Y043151D01*
X029144Y043180D01*
X029016Y043215D01*
X028890Y043257D01*
X028766Y043305D01*
X028645Y043358D01*
X028527Y043418D01*
X028411Y043483D01*
X028299Y043554D01*
X028191Y043631D01*
X028087Y043712D01*
X027986Y043799D01*
X027890Y043890D01*
X027799Y043986D01*
X027712Y044087D01*
X027631Y044191D01*
X027554Y044299D01*
X027483Y044411D01*
X027418Y044527D01*
X027358Y044645D01*
X027305Y044766D01*
X027257Y044890D01*
X027215Y045016D01*
X027180Y045144D01*
X027151Y045273D01*
X027128Y045404D01*
X027112Y045535D01*
X027102Y045667D01*
X027099Y045800D01*
X027099Y032800D02*
X027102Y032933D01*
X027112Y033065D01*
X027128Y033196D01*
X027151Y033327D01*
X027180Y033456D01*
X027215Y033584D01*
X027257Y033710D01*
X027305Y033834D01*
X027358Y033955D01*
X027418Y034073D01*
X027483Y034189D01*
X027554Y034301D01*
X027631Y034409D01*
X027712Y034513D01*
X027799Y034614D01*
X027890Y034710D01*
X027986Y034801D01*
X028087Y034888D01*
X028191Y034969D01*
X028299Y035046D01*
X028411Y035117D01*
X028527Y035182D01*
X028645Y035242D01*
X028766Y035295D01*
X028890Y035343D01*
X029016Y035385D01*
X029144Y035420D01*
X029273Y035449D01*
X029404Y035472D01*
X029535Y035488D01*
X029667Y035498D01*
X029800Y035501D01*
X029933Y035498D01*
X030065Y035488D01*
X030196Y035472D01*
X030327Y035449D01*
X030456Y035420D01*
X030584Y035385D01*
X030710Y035343D01*
X030834Y035295D01*
X030955Y035242D01*
X031073Y035182D01*
X031189Y035117D01*
X031301Y035046D01*
X031409Y034969D01*
X031513Y034888D01*
X031614Y034801D01*
X031710Y034710D01*
X031801Y034614D01*
X031888Y034513D01*
X031969Y034409D01*
X032046Y034301D01*
X032117Y034189D01*
X032182Y034073D01*
X032242Y033955D01*
X032295Y033834D01*
X032343Y033710D01*
X032385Y033584D01*
X032420Y033456D01*
X032449Y033327D01*
X032472Y033196D01*
X032488Y033065D01*
X032498Y032933D01*
X032501Y032800D01*
X032498Y032667D01*
X032488Y032535D01*
X032472Y032404D01*
X032449Y032273D01*
X032420Y032144D01*
X032385Y032016D01*
X032343Y031890D01*
X032295Y031766D01*
X032242Y031645D01*
X032182Y031527D01*
X032117Y031411D01*
X032046Y031299D01*
X031969Y031191D01*
X031888Y031087D01*
X031801Y030986D01*
X031710Y030890D01*
X031614Y030799D01*
X031513Y030712D01*
X031409Y030631D01*
X031301Y030554D01*
X031189Y030483D01*
X031073Y030418D01*
X030955Y030358D01*
X030834Y030305D01*
X030710Y030257D01*
X030584Y030215D01*
X030456Y030180D01*
X030327Y030151D01*
X030196Y030128D01*
X030065Y030112D01*
X029933Y030102D01*
X029800Y030099D01*
X029667Y030102D01*
X029535Y030112D01*
X029404Y030128D01*
X029273Y030151D01*
X029144Y030180D01*
X029016Y030215D01*
X028890Y030257D01*
X028766Y030305D01*
X028645Y030358D01*
X028527Y030418D01*
X028411Y030483D01*
X028299Y030554D01*
X028191Y030631D01*
X028087Y030712D01*
X027986Y030799D01*
X027890Y030890D01*
X027799Y030986D01*
X027712Y031087D01*
X027631Y031191D01*
X027554Y031299D01*
X027483Y031411D01*
X027418Y031527D01*
X027358Y031645D01*
X027305Y031766D01*
X027257Y031890D01*
X027215Y032016D01*
X027180Y032144D01*
X027151Y032273D01*
X027128Y032404D01*
X027112Y032535D01*
X027102Y032667D01*
X027099Y032800D01*
X020599Y032800D02*
X020602Y032933D01*
X020612Y033065D01*
X020628Y033196D01*
X020651Y033327D01*
X020680Y033456D01*
X020715Y033584D01*
X020757Y033710D01*
X020805Y033834D01*
X020858Y033955D01*
X020918Y034073D01*
X020983Y034189D01*
X021054Y034301D01*
X021131Y034409D01*
X021212Y034513D01*
X021299Y034614D01*
X021390Y034710D01*
X021486Y034801D01*
X021587Y034888D01*
X021691Y034969D01*
X021799Y035046D01*
X021911Y035117D01*
X022027Y035182D01*
X022145Y035242D01*
X022266Y035295D01*
X022390Y035343D01*
X022516Y035385D01*
X022644Y035420D01*
X022773Y035449D01*
X022904Y035472D01*
X023035Y035488D01*
X023167Y035498D01*
X023300Y035501D01*
X023433Y035498D01*
X023565Y035488D01*
X023696Y035472D01*
X023827Y035449D01*
X023956Y035420D01*
X024084Y035385D01*
X024210Y035343D01*
X024334Y035295D01*
X024455Y035242D01*
X024573Y035182D01*
X024689Y035117D01*
X024801Y035046D01*
X024909Y034969D01*
X025013Y034888D01*
X025114Y034801D01*
X025210Y034710D01*
X025301Y034614D01*
X025388Y034513D01*
X025469Y034409D01*
X025546Y034301D01*
X025617Y034189D01*
X025682Y034073D01*
X025742Y033955D01*
X025795Y033834D01*
X025843Y033710D01*
X025885Y033584D01*
X025920Y033456D01*
X025949Y033327D01*
X025972Y033196D01*
X025988Y033065D01*
X025998Y032933D01*
X026001Y032800D01*
X025998Y032667D01*
X025988Y032535D01*
X025972Y032404D01*
X025949Y032273D01*
X025920Y032144D01*
X025885Y032016D01*
X025843Y031890D01*
X025795Y031766D01*
X025742Y031645D01*
X025682Y031527D01*
X025617Y031411D01*
X025546Y031299D01*
X025469Y031191D01*
X025388Y031087D01*
X025301Y030986D01*
X025210Y030890D01*
X025114Y030799D01*
X025013Y030712D01*
X024909Y030631D01*
X024801Y030554D01*
X024689Y030483D01*
X024573Y030418D01*
X024455Y030358D01*
X024334Y030305D01*
X024210Y030257D01*
X024084Y030215D01*
X023956Y030180D01*
X023827Y030151D01*
X023696Y030128D01*
X023565Y030112D01*
X023433Y030102D01*
X023300Y030099D01*
X023167Y030102D01*
X023035Y030112D01*
X022904Y030128D01*
X022773Y030151D01*
X022644Y030180D01*
X022516Y030215D01*
X022390Y030257D01*
X022266Y030305D01*
X022145Y030358D01*
X022027Y030418D01*
X021911Y030483D01*
X021799Y030554D01*
X021691Y030631D01*
X021587Y030712D01*
X021486Y030799D01*
X021390Y030890D01*
X021299Y030986D01*
X021212Y031087D01*
X021131Y031191D01*
X021054Y031299D01*
X020983Y031411D01*
X020918Y031527D01*
X020858Y031645D01*
X020805Y031766D01*
X020757Y031890D01*
X020715Y032016D01*
X020680Y032144D01*
X020651Y032273D01*
X020628Y032404D01*
X020612Y032535D01*
X020602Y032667D01*
X020599Y032800D01*
X014099Y032800D02*
X014102Y032933D01*
X014112Y033065D01*
X014128Y033196D01*
X014151Y033327D01*
X014180Y033456D01*
X014215Y033584D01*
X014257Y033710D01*
X014305Y033834D01*
X014358Y033955D01*
X014418Y034073D01*
X014483Y034189D01*
X014554Y034301D01*
X014631Y034409D01*
X014712Y034513D01*
X014799Y034614D01*
X014890Y034710D01*
X014986Y034801D01*
X015087Y034888D01*
X015191Y034969D01*
X015299Y035046D01*
X015411Y035117D01*
X015527Y035182D01*
X015645Y035242D01*
X015766Y035295D01*
X015890Y035343D01*
X016016Y035385D01*
X016144Y035420D01*
X016273Y035449D01*
X016404Y035472D01*
X016535Y035488D01*
X016667Y035498D01*
X016800Y035501D01*
X016933Y035498D01*
X017065Y035488D01*
X017196Y035472D01*
X017327Y035449D01*
X017456Y035420D01*
X017584Y035385D01*
X017710Y035343D01*
X017834Y035295D01*
X017955Y035242D01*
X018073Y035182D01*
X018189Y035117D01*
X018301Y035046D01*
X018409Y034969D01*
X018513Y034888D01*
X018614Y034801D01*
X018710Y034710D01*
X018801Y034614D01*
X018888Y034513D01*
X018969Y034409D01*
X019046Y034301D01*
X019117Y034189D01*
X019182Y034073D01*
X019242Y033955D01*
X019295Y033834D01*
X019343Y033710D01*
X019385Y033584D01*
X019420Y033456D01*
X019449Y033327D01*
X019472Y033196D01*
X019488Y033065D01*
X019498Y032933D01*
X019501Y032800D01*
X019498Y032667D01*
X019488Y032535D01*
X019472Y032404D01*
X019449Y032273D01*
X019420Y032144D01*
X019385Y032016D01*
X019343Y031890D01*
X019295Y031766D01*
X019242Y031645D01*
X019182Y031527D01*
X019117Y031411D01*
X019046Y031299D01*
X018969Y031191D01*
X018888Y031087D01*
X018801Y030986D01*
X018710Y030890D01*
X018614Y030799D01*
X018513Y030712D01*
X018409Y030631D01*
X018301Y030554D01*
X018189Y030483D01*
X018073Y030418D01*
X017955Y030358D01*
X017834Y030305D01*
X017710Y030257D01*
X017584Y030215D01*
X017456Y030180D01*
X017327Y030151D01*
X017196Y030128D01*
X017065Y030112D01*
X016933Y030102D01*
X016800Y030099D01*
X016667Y030102D01*
X016535Y030112D01*
X016404Y030128D01*
X016273Y030151D01*
X016144Y030180D01*
X016016Y030215D01*
X015890Y030257D01*
X015766Y030305D01*
X015645Y030358D01*
X015527Y030418D01*
X015411Y030483D01*
X015299Y030554D01*
X015191Y030631D01*
X015087Y030712D01*
X014986Y030799D01*
X014890Y030890D01*
X014799Y030986D01*
X014712Y031087D01*
X014631Y031191D01*
X014554Y031299D01*
X014483Y031411D01*
X014418Y031527D01*
X014358Y031645D01*
X014305Y031766D01*
X014257Y031890D01*
X014215Y032016D01*
X014180Y032144D01*
X014151Y032273D01*
X014128Y032404D01*
X014112Y032535D01*
X014102Y032667D01*
X014099Y032800D01*
X007599Y032800D02*
X007602Y032933D01*
X007612Y033065D01*
X007628Y033196D01*
X007651Y033327D01*
X007680Y033456D01*
X007715Y033584D01*
X007757Y033710D01*
X007805Y033834D01*
X007858Y033955D01*
X007918Y034073D01*
X007983Y034189D01*
X008054Y034301D01*
X008131Y034409D01*
X008212Y034513D01*
X008299Y034614D01*
X008390Y034710D01*
X008486Y034801D01*
X008587Y034888D01*
X008691Y034969D01*
X008799Y035046D01*
X008911Y035117D01*
X009027Y035182D01*
X009145Y035242D01*
X009266Y035295D01*
X009390Y035343D01*
X009516Y035385D01*
X009644Y035420D01*
X009773Y035449D01*
X009904Y035472D01*
X010035Y035488D01*
X010167Y035498D01*
X010300Y035501D01*
X010433Y035498D01*
X010565Y035488D01*
X010696Y035472D01*
X010827Y035449D01*
X010956Y035420D01*
X011084Y035385D01*
X011210Y035343D01*
X011334Y035295D01*
X011455Y035242D01*
X011573Y035182D01*
X011689Y035117D01*
X011801Y035046D01*
X011909Y034969D01*
X012013Y034888D01*
X012114Y034801D01*
X012210Y034710D01*
X012301Y034614D01*
X012388Y034513D01*
X012469Y034409D01*
X012546Y034301D01*
X012617Y034189D01*
X012682Y034073D01*
X012742Y033955D01*
X012795Y033834D01*
X012843Y033710D01*
X012885Y033584D01*
X012920Y033456D01*
X012949Y033327D01*
X012972Y033196D01*
X012988Y033065D01*
X012998Y032933D01*
X013001Y032800D01*
X012998Y032667D01*
X012988Y032535D01*
X012972Y032404D01*
X012949Y032273D01*
X012920Y032144D01*
X012885Y032016D01*
X012843Y031890D01*
X012795Y031766D01*
X012742Y031645D01*
X012682Y031527D01*
X012617Y031411D01*
X012546Y031299D01*
X012469Y031191D01*
X012388Y031087D01*
X012301Y030986D01*
X012210Y030890D01*
X012114Y030799D01*
X012013Y030712D01*
X011909Y030631D01*
X011801Y030554D01*
X011689Y030483D01*
X011573Y030418D01*
X011455Y030358D01*
X011334Y030305D01*
X011210Y030257D01*
X011084Y030215D01*
X010956Y030180D01*
X010827Y030151D01*
X010696Y030128D01*
X010565Y030112D01*
X010433Y030102D01*
X010300Y030099D01*
X010167Y030102D01*
X010035Y030112D01*
X009904Y030128D01*
X009773Y030151D01*
X009644Y030180D01*
X009516Y030215D01*
X009390Y030257D01*
X009266Y030305D01*
X009145Y030358D01*
X009027Y030418D01*
X008911Y030483D01*
X008799Y030554D01*
X008691Y030631D01*
X008587Y030712D01*
X008486Y030799D01*
X008390Y030890D01*
X008299Y030986D01*
X008212Y031087D01*
X008131Y031191D01*
X008054Y031299D01*
X007983Y031411D01*
X007918Y031527D01*
X007858Y031645D01*
X007805Y031766D01*
X007757Y031890D01*
X007715Y032016D01*
X007680Y032144D01*
X007651Y032273D01*
X007628Y032404D01*
X007612Y032535D01*
X007602Y032667D01*
X007599Y032800D01*
X001099Y032800D02*
X001102Y032933D01*
X001112Y033065D01*
X001128Y033196D01*
X001151Y033327D01*
X001180Y033456D01*
X001215Y033584D01*
X001257Y033710D01*
X001305Y033834D01*
X001358Y033955D01*
X001418Y034073D01*
X001483Y034189D01*
X001554Y034301D01*
X001631Y034409D01*
X001712Y034513D01*
X001799Y034614D01*
X001890Y034710D01*
X001986Y034801D01*
X002087Y034888D01*
X002191Y034969D01*
X002299Y035046D01*
X002411Y035117D01*
X002527Y035182D01*
X002645Y035242D01*
X002766Y035295D01*
X002890Y035343D01*
X003016Y035385D01*
X003144Y035420D01*
X003273Y035449D01*
X003404Y035472D01*
X003535Y035488D01*
X003667Y035498D01*
X003800Y035501D01*
X003933Y035498D01*
X004065Y035488D01*
X004196Y035472D01*
X004327Y035449D01*
X004456Y035420D01*
X004584Y035385D01*
X004710Y035343D01*
X004834Y035295D01*
X004955Y035242D01*
X005073Y035182D01*
X005189Y035117D01*
X005301Y035046D01*
X005409Y034969D01*
X005513Y034888D01*
X005614Y034801D01*
X005710Y034710D01*
X005801Y034614D01*
X005888Y034513D01*
X005969Y034409D01*
X006046Y034301D01*
X006117Y034189D01*
X006182Y034073D01*
X006242Y033955D01*
X006295Y033834D01*
X006343Y033710D01*
X006385Y033584D01*
X006420Y033456D01*
X006449Y033327D01*
X006472Y033196D01*
X006488Y033065D01*
X006498Y032933D01*
X006501Y032800D01*
X006498Y032667D01*
X006488Y032535D01*
X006472Y032404D01*
X006449Y032273D01*
X006420Y032144D01*
X006385Y032016D01*
X006343Y031890D01*
X006295Y031766D01*
X006242Y031645D01*
X006182Y031527D01*
X006117Y031411D01*
X006046Y031299D01*
X005969Y031191D01*
X005888Y031087D01*
X005801Y030986D01*
X005710Y030890D01*
X005614Y030799D01*
X005513Y030712D01*
X005409Y030631D01*
X005301Y030554D01*
X005189Y030483D01*
X005073Y030418D01*
X004955Y030358D01*
X004834Y030305D01*
X004710Y030257D01*
X004584Y030215D01*
X004456Y030180D01*
X004327Y030151D01*
X004196Y030128D01*
X004065Y030112D01*
X003933Y030102D01*
X003800Y030099D01*
X003667Y030102D01*
X003535Y030112D01*
X003404Y030128D01*
X003273Y030151D01*
X003144Y030180D01*
X003016Y030215D01*
X002890Y030257D01*
X002766Y030305D01*
X002645Y030358D01*
X002527Y030418D01*
X002411Y030483D01*
X002299Y030554D01*
X002191Y030631D01*
X002087Y030712D01*
X001986Y030799D01*
X001890Y030890D01*
X001799Y030986D01*
X001712Y031087D01*
X001631Y031191D01*
X001554Y031299D01*
X001483Y031411D01*
X001418Y031527D01*
X001358Y031645D01*
X001305Y031766D01*
X001257Y031890D01*
X001215Y032016D01*
X001180Y032144D01*
X001151Y032273D01*
X001128Y032404D01*
X001112Y032535D01*
X001102Y032667D01*
X001099Y032800D01*
M02*
