%
M48
M72
T01C0.0236
T02C0.0276
T03C0.0315
T04C0.0320
T05C0.0400
T06C0.0512
T07C0.0787
T08C0.0866
T09C0.0961
%
T01
X33800Y23050
X34800Y23800
X34300Y26800
T02
X35800Y41300
X36800Y41300
T03
X30800Y27800
X30800Y26800
X30800Y25800
X30800Y23800
X28800Y23800
X28800Y25800
X28800Y26800
X28800Y27800
X24300Y27800
X24300Y26800
X24300Y25800
X24300Y23800
X22300Y23800
X22300Y25800
X22300Y26800
X22300Y27800
X17800Y27800
X17800Y26800
X17800Y25800
X17800Y23800
X15800Y23800
X15800Y25800
X15800Y26800
X15800Y27800
X11300Y27800
X11300Y26800
X11300Y25800
X11300Y23800
X9300Y23800
X9300Y25800
X9300Y26800
X9300Y27800
X4800Y27800
X4800Y26800
X4800Y25800
X4800Y23800
X2800Y23800
X2800Y25800
X2800Y26800
X2800Y27800
T04
X34800Y29300
X34800Y30300
X34800Y31300
X34800Y32300
X34800Y33300
X34800Y34300
X34800Y35300
X34800Y36300
X34800Y37300
X37800Y37300
X37800Y36300
X37800Y35300
X37800Y34300
X37800Y33300
X37800Y32300
X37800Y31300
X37800Y30300
X37800Y29300
T05
X39300Y29300
X39300Y30300
X39300Y31300
X39300Y32300
X39300Y33300
X39300Y34300
X39300Y35300
X39300Y36300
X39300Y38800
X39300Y39800
X39300Y40800
X39300Y41800
X36850Y38800
X35750Y38800
T06
X29800Y39300
X29800Y45800
X23300Y45800
X23300Y39300
X23300Y32800
X16800Y32800
X16800Y39300
X16800Y45800
X10300Y45800
X10300Y39300
X10300Y32800
X3800Y32800
X3800Y39300
X3800Y45800
X29800Y32800
T07
X1300Y18300
X19300Y18300
X39300Y18300
T08
X27300Y42550
X20800Y42550
X14300Y42550
X7800Y42550
X1300Y42550
X39300Y47800
T09
X31150Y47150
X31150Y44450
X28450Y44450
X28450Y47150
X24650Y47150
X24650Y44450
X21950Y44450
X21950Y47150
X18150Y47150
X18150Y44450
X15450Y44450
X15450Y47150
X11650Y47150
X11650Y44450
X8950Y44450
X8950Y47150
X5150Y47150
X5150Y44450
X2450Y44450
X2450Y47150
X2450Y40650
X2450Y37950
X5150Y37950
X5150Y40650
X8950Y40650
X8950Y37950
X11650Y37950
X11650Y40650
X15450Y40650
X15450Y37950
X18150Y37950
X18150Y40650
X21950Y40650
X21950Y37950
X24650Y37950
X24650Y40650
X28450Y40650
X28450Y37950
X31150Y37950
X31150Y40650
X31150Y34150
X31150Y31450
X28450Y31450
X28450Y34150
X24650Y34150
X24650Y31450
X21950Y31450
X21950Y34150
X18150Y34150
X18150Y31450
X15450Y31450
X15450Y34150
X11650Y34150
X11650Y31450
X8950Y31450
X8950Y34150
X5150Y34150
X5150Y31450
X2450Y31450
X2450Y34150
M30
