G75*
G70*
%OFA0B0*%
%FSLAX24Y24*%
%IPPOS*%
%LPD*%
%AMOC8*
5,1,8,0,0,1.08239X$1,22.5*
%
%ADD10C,0.0560*%
%ADD11C,0.0740*%
%ADD12C,0.0555*%
%ADD13C,0.0800*%
%ADD14C,0.0768*%
%ADD15C,0.1361*%
%ADD16C,0.0650*%
%ADD17R,0.0650X0.0650*%
%ADD18C,0.0160*%
%ADD19R,0.0436X0.0436*%
%ADD20C,0.0400*%
D10*
X034520Y029300D02*
X035080Y029300D01*
X035080Y030300D02*
X034520Y030300D01*
X034520Y031300D02*
X035080Y031300D01*
X035080Y032300D02*
X034520Y032300D01*
X034520Y033300D02*
X035080Y033300D01*
X035080Y034300D02*
X034520Y034300D01*
X034520Y035300D02*
X035080Y035300D01*
X035080Y036300D02*
X034520Y036300D01*
X034520Y037300D02*
X035080Y037300D01*
X037520Y037300D02*
X038080Y037300D01*
X038080Y036300D02*
X037520Y036300D01*
X037520Y035300D02*
X038080Y035300D01*
X038080Y034300D02*
X037520Y034300D01*
X037520Y033300D02*
X038080Y033300D01*
X038080Y032300D02*
X037520Y032300D01*
X037520Y031300D02*
X038080Y031300D01*
X038080Y030300D02*
X037520Y030300D01*
X037520Y029300D02*
X038080Y029300D01*
D11*
X039300Y029300D03*
X039300Y030300D03*
X039300Y031300D03*
X039300Y032300D03*
X039300Y033300D03*
X039300Y034300D03*
X039300Y035300D03*
X039300Y036300D03*
X039300Y038800D03*
X039300Y039800D03*
X039300Y040800D03*
X039300Y041800D03*
D12*
X031077Y027800D02*
X030523Y027800D01*
X030523Y026800D02*
X031077Y026800D01*
X031077Y025800D02*
X030523Y025800D01*
X029077Y025800D02*
X028523Y025800D01*
X028523Y026800D02*
X029077Y026800D01*
X029077Y027800D02*
X028523Y027800D01*
X028523Y023800D02*
X029077Y023800D01*
X030523Y023800D02*
X031077Y023800D01*
X024577Y023800D02*
X024023Y023800D01*
X022577Y023800D02*
X022023Y023800D01*
X022023Y025800D02*
X022577Y025800D01*
X022577Y026800D02*
X022023Y026800D01*
X022023Y027800D02*
X022577Y027800D01*
X024023Y027800D02*
X024577Y027800D01*
X024577Y026800D02*
X024023Y026800D01*
X024023Y025800D02*
X024577Y025800D01*
X018077Y025800D02*
X017523Y025800D01*
X017523Y026800D02*
X018077Y026800D01*
X018077Y027800D02*
X017523Y027800D01*
X016077Y027800D02*
X015523Y027800D01*
X015523Y026800D02*
X016077Y026800D01*
X016077Y025800D02*
X015523Y025800D01*
X015523Y023800D02*
X016077Y023800D01*
X017523Y023800D02*
X018077Y023800D01*
X011577Y023800D02*
X011023Y023800D01*
X009577Y023800D02*
X009023Y023800D01*
X009023Y025800D02*
X009577Y025800D01*
X009577Y026800D02*
X009023Y026800D01*
X009023Y027800D02*
X009577Y027800D01*
X011023Y027800D02*
X011577Y027800D01*
X011577Y026800D02*
X011023Y026800D01*
X011023Y025800D02*
X011577Y025800D01*
X005077Y025800D02*
X004523Y025800D01*
X004523Y026800D02*
X005077Y026800D01*
X005077Y027800D02*
X004523Y027800D01*
X003077Y027800D02*
X002523Y027800D01*
X002523Y026800D02*
X003077Y026800D01*
X003077Y025800D02*
X002523Y025800D01*
X002523Y023800D02*
X003077Y023800D01*
X004523Y023800D02*
X005077Y023800D01*
D13*
X035750Y038800D03*
X036850Y038800D03*
D14*
X029800Y039300D03*
X029800Y045800D03*
X023300Y045800D03*
X023300Y039300D03*
X023300Y032800D03*
X016800Y032800D03*
X016800Y039300D03*
X016800Y045800D03*
X010300Y045800D03*
X010300Y039300D03*
X010300Y032800D03*
X003800Y032800D03*
X003800Y039300D03*
X003800Y045800D03*
X029800Y032800D03*
D15*
X028450Y034150D03*
X028450Y031450D03*
X031150Y031450D03*
X031150Y034150D03*
X031150Y037950D03*
X031150Y040650D03*
X028450Y040650D03*
X028450Y037950D03*
X024650Y037950D03*
X024650Y040650D03*
X021950Y040650D03*
X021950Y037950D03*
X021950Y034150D03*
X021950Y031450D03*
X024650Y031450D03*
X024650Y034150D03*
X018150Y034150D03*
X018150Y031450D03*
X015450Y031450D03*
X015450Y034150D03*
X015450Y037950D03*
X015450Y040650D03*
X018150Y040650D03*
X018150Y037950D03*
X018150Y044450D03*
X018150Y047150D03*
X015450Y047150D03*
X015450Y044450D03*
X011650Y044450D03*
X011650Y047150D03*
X008950Y047150D03*
X008950Y044450D03*
X008950Y040650D03*
X008950Y037950D03*
X011650Y037950D03*
X011650Y040650D03*
X011650Y034150D03*
X011650Y031450D03*
X008950Y031450D03*
X008950Y034150D03*
X005150Y034150D03*
X005150Y031450D03*
X002450Y031450D03*
X002450Y034150D03*
X002450Y037950D03*
X002450Y040650D03*
X005150Y040650D03*
X005150Y037950D03*
X005150Y044450D03*
X005150Y047150D03*
X002450Y047150D03*
X002450Y044450D03*
X021950Y044450D03*
X021950Y047150D03*
X024650Y047150D03*
X024650Y044450D03*
X028450Y044450D03*
X028450Y047150D03*
X031150Y047150D03*
X031150Y044450D03*
D16*
X036800Y041300D03*
D17*
X035800Y041300D03*
D18*
X004800Y021550D02*
X002800Y023550D01*
X002800Y023800D01*
X004800Y021550D02*
X033050Y021550D01*
X034800Y023300D01*
X034800Y023800D01*
X033800Y023050D02*
X032800Y022050D01*
X010800Y022050D01*
X009300Y023550D01*
X009300Y023800D01*
X007050Y025300D02*
X005649Y025300D01*
X006640Y026291D01*
X006809Y026460D01*
X006900Y026681D01*
X006900Y045419D01*
X006809Y045640D01*
X006309Y046140D01*
X006140Y046309D01*
X005919Y046400D01*
X005571Y046400D01*
X005629Y046434D01*
X005719Y046502D01*
X005799Y046582D01*
X005867Y046671D01*
X005924Y046769D01*
X005967Y046873D01*
X005996Y046982D01*
X006008Y047070D01*
X005230Y047070D01*
X005230Y047230D01*
X005070Y047230D01*
X005070Y047070D01*
X004293Y047070D01*
X004305Y046982D01*
X004334Y046873D01*
X004377Y046769D01*
X004434Y046671D01*
X004502Y046582D01*
X004582Y046502D01*
X004671Y046434D01*
X004729Y046400D01*
X004309Y046400D01*
X004244Y046465D01*
X003956Y046584D01*
X003644Y046584D01*
X003356Y046465D01*
X003135Y046244D01*
X003016Y045956D01*
X003016Y045644D01*
X003135Y045356D01*
X003356Y045135D01*
X003644Y045016D01*
X003956Y045016D01*
X004244Y045135D01*
X004309Y045200D01*
X004729Y045200D01*
X004671Y045166D01*
X004582Y045098D01*
X004502Y045018D01*
X004434Y044929D01*
X004377Y044831D01*
X004334Y044727D01*
X004305Y044618D01*
X004293Y044530D01*
X005070Y044530D01*
X005070Y044370D01*
X004293Y044370D01*
X004305Y044281D01*
X004334Y044172D01*
X004377Y044068D01*
X004434Y043971D01*
X004502Y043881D01*
X004582Y043801D01*
X004671Y043733D01*
X004769Y043676D01*
X004873Y043633D01*
X004982Y043604D01*
X005070Y043592D01*
X005070Y044370D01*
X005230Y044370D01*
X005230Y043592D01*
X005319Y043604D01*
X005428Y043633D01*
X005532Y043676D01*
X005629Y043733D01*
X005700Y043787D01*
X005700Y041313D01*
X005629Y041367D01*
X005532Y041424D01*
X005428Y041467D01*
X005319Y041496D01*
X005230Y041508D01*
X005230Y040730D01*
X005070Y040730D01*
X005070Y040570D01*
X005230Y040570D01*
X005230Y039793D01*
X005319Y039805D01*
X005428Y039834D01*
X005532Y039877D01*
X005629Y039934D01*
X005700Y039988D01*
X005700Y038612D01*
X005629Y038666D01*
X005532Y038723D01*
X005428Y038766D01*
X005319Y038795D01*
X005230Y038807D01*
X005230Y038030D01*
X005070Y038030D01*
X005070Y038807D01*
X004982Y038795D01*
X004873Y038766D01*
X004769Y038723D01*
X004671Y038666D01*
X004582Y038598D01*
X004502Y038518D01*
X004434Y038429D01*
X004377Y038331D01*
X004334Y038227D01*
X004305Y038118D01*
X004293Y038030D01*
X005070Y038030D01*
X005070Y037870D01*
X004293Y037870D01*
X004305Y037781D01*
X004334Y037672D01*
X004377Y037568D01*
X004434Y037471D01*
X004502Y037381D01*
X004582Y037301D01*
X004671Y037233D01*
X004769Y037176D01*
X004873Y037133D01*
X004982Y037104D01*
X005070Y037092D01*
X005070Y037870D01*
X005230Y037870D01*
X005230Y037092D01*
X005319Y037104D01*
X005428Y037133D01*
X005532Y037176D01*
X005629Y037233D01*
X005700Y037287D01*
X005700Y034813D01*
X005629Y034867D01*
X005532Y034924D01*
X005428Y034967D01*
X005319Y034996D01*
X005230Y035008D01*
X005230Y034230D01*
X005070Y034230D01*
X005070Y034070D01*
X005230Y034070D01*
X005230Y033293D01*
X005319Y033305D01*
X005428Y033334D01*
X005532Y033377D01*
X005629Y033434D01*
X005700Y033488D01*
X005700Y032112D01*
X005629Y032166D01*
X005532Y032223D01*
X005428Y032266D01*
X005319Y032295D01*
X005230Y032307D01*
X005230Y031530D01*
X005070Y031530D01*
X005070Y032307D01*
X004982Y032295D01*
X004873Y032266D01*
X004769Y032223D01*
X004671Y032166D01*
X004582Y032098D01*
X004502Y032018D01*
X004434Y031929D01*
X004400Y031871D01*
X004400Y032291D01*
X004465Y032356D01*
X004584Y032644D01*
X004584Y032956D01*
X004465Y033244D01*
X004244Y033465D01*
X003956Y033584D01*
X003644Y033584D01*
X003356Y033465D01*
X003135Y033244D01*
X003016Y032956D01*
X003016Y032644D01*
X003135Y032356D01*
X003200Y032291D01*
X003200Y031871D01*
X003166Y031929D01*
X003098Y032018D01*
X003018Y032098D01*
X002929Y032166D01*
X002831Y032223D01*
X002727Y032266D01*
X002618Y032295D01*
X002530Y032307D01*
X002530Y031530D01*
X002370Y031530D01*
X002370Y032307D01*
X002281Y032295D01*
X002172Y032266D01*
X002068Y032223D01*
X001971Y032166D01*
X001900Y032112D01*
X001900Y033488D01*
X001971Y033434D01*
X002068Y033377D01*
X002172Y033334D01*
X002281Y033305D01*
X002370Y033293D01*
X002370Y034070D01*
X002530Y034070D01*
X002530Y034230D01*
X003307Y034230D01*
X003295Y034319D01*
X003266Y034428D01*
X003223Y034532D01*
X003166Y034629D01*
X003098Y034719D01*
X003018Y034799D01*
X002929Y034867D01*
X002831Y034924D01*
X002727Y034967D01*
X002618Y034996D01*
X002530Y035008D01*
X002530Y034230D01*
X002370Y034230D01*
X002370Y035008D01*
X002281Y034996D01*
X002172Y034967D01*
X002068Y034924D01*
X001971Y034867D01*
X001900Y034813D01*
X001900Y037287D01*
X001971Y037233D01*
X002068Y037176D01*
X002172Y037133D01*
X002281Y037104D01*
X002370Y037092D01*
X002370Y037870D01*
X002530Y037870D01*
X002530Y038030D01*
X003307Y038030D01*
X003295Y038118D01*
X003266Y038227D01*
X003223Y038331D01*
X003166Y038429D01*
X003098Y038518D01*
X003018Y038598D01*
X002929Y038666D01*
X002871Y038700D01*
X003291Y038700D01*
X003356Y038635D01*
X003644Y038516D01*
X003956Y038516D01*
X004244Y038635D01*
X004465Y038856D01*
X005700Y038856D01*
X005700Y038698D02*
X005576Y038698D01*
X005700Y039015D02*
X004530Y039015D01*
X004584Y039144D02*
X004465Y038856D01*
X004306Y038698D02*
X004725Y038698D01*
X004523Y038539D02*
X004011Y038539D01*
X003589Y038539D02*
X003077Y038539D01*
X003194Y038381D02*
X004406Y038381D01*
X004333Y038222D02*
X003267Y038222D01*
X003302Y038064D02*
X004298Y038064D01*
X004314Y037747D02*
X003286Y037747D01*
X003295Y037781D02*
X003266Y037672D01*
X003223Y037568D01*
X003166Y037471D01*
X003098Y037381D01*
X003018Y037301D01*
X002929Y037233D01*
X002831Y037176D01*
X002727Y037133D01*
X002618Y037104D01*
X002530Y037092D01*
X002530Y037870D01*
X003307Y037870D01*
X003295Y037781D01*
X003231Y037588D02*
X004369Y037588D01*
X004465Y037430D02*
X003135Y037430D01*
X002978Y037271D02*
X004622Y037271D01*
X004950Y037113D02*
X002650Y037113D01*
X002530Y037113D02*
X002370Y037113D01*
X002250Y037113D02*
X001900Y037113D01*
X001900Y037271D02*
X001921Y037271D01*
X001900Y036954D02*
X005700Y036954D01*
X005700Y036796D02*
X001900Y036796D01*
X001900Y036637D02*
X005700Y036637D01*
X005700Y036479D02*
X001900Y036479D01*
X001900Y036320D02*
X005700Y036320D01*
X005700Y036162D02*
X001900Y036162D01*
X001900Y036003D02*
X005700Y036003D01*
X005700Y035845D02*
X001900Y035845D01*
X001900Y035686D02*
X005700Y035686D01*
X005700Y035528D02*
X001900Y035528D01*
X001900Y035369D02*
X005700Y035369D01*
X005700Y035211D02*
X001900Y035211D01*
X001900Y035052D02*
X005700Y035052D01*
X005700Y034894D02*
X005584Y034894D01*
X005230Y034894D02*
X005070Y034894D01*
X005070Y035008D02*
X004982Y034996D01*
X004873Y034967D01*
X004769Y034924D01*
X004671Y034867D01*
X004582Y034799D01*
X004502Y034719D01*
X004434Y034629D01*
X004377Y034532D01*
X004334Y034428D01*
X004305Y034319D01*
X004293Y034230D01*
X005070Y034230D01*
X005070Y035008D01*
X005070Y034735D02*
X005230Y034735D01*
X005230Y034577D02*
X005070Y034577D01*
X005070Y034418D02*
X005230Y034418D01*
X005230Y034260D02*
X005070Y034260D01*
X005070Y034101D02*
X002530Y034101D01*
X002530Y034070D02*
X003307Y034070D01*
X003295Y033982D01*
X003266Y033873D01*
X003223Y033769D01*
X003166Y033671D01*
X003098Y033582D01*
X003018Y033502D01*
X002929Y033434D01*
X002831Y033377D01*
X002727Y033334D01*
X002618Y033305D01*
X002530Y033293D01*
X002530Y034070D01*
X002530Y033943D02*
X002370Y033943D01*
X002370Y033784D02*
X002530Y033784D01*
X002530Y033626D02*
X002370Y033626D01*
X002370Y033467D02*
X002530Y033467D01*
X002530Y033309D02*
X002370Y033309D01*
X002268Y033309D02*
X001900Y033309D01*
X001900Y033467D02*
X001927Y033467D01*
X001900Y033150D02*
X003097Y033150D01*
X003031Y032992D02*
X001900Y032992D01*
X001900Y032833D02*
X003016Y032833D01*
X003016Y032675D02*
X001900Y032675D01*
X001900Y032516D02*
X003069Y032516D01*
X003135Y032358D02*
X001900Y032358D01*
X001900Y032199D02*
X002027Y032199D01*
X002370Y032199D02*
X002530Y032199D01*
X002530Y032041D02*
X002370Y032041D01*
X002370Y031882D02*
X002530Y031882D01*
X002530Y031724D02*
X002370Y031724D01*
X002370Y031565D02*
X002530Y031565D01*
X002530Y031370D02*
X002370Y031370D01*
X002370Y030592D01*
X002281Y030604D01*
X002172Y030633D01*
X002068Y030676D01*
X001971Y030733D01*
X001900Y030787D01*
X001900Y030049D01*
X002049Y029900D01*
X002919Y029900D01*
X003140Y029809D01*
X003309Y029640D01*
X004200Y028749D01*
X004200Y029551D01*
X003460Y030291D01*
X003291Y030460D01*
X003200Y030681D01*
X003200Y031029D01*
X003166Y030971D01*
X003098Y030881D01*
X003018Y030801D01*
X002929Y030733D01*
X002831Y030676D01*
X002727Y030633D01*
X002618Y030604D01*
X002530Y030592D01*
X002530Y031370D01*
X002530Y031248D02*
X002370Y031248D01*
X002370Y031090D02*
X002530Y031090D01*
X002530Y030931D02*
X002370Y030931D01*
X002370Y030773D02*
X002530Y030773D01*
X002530Y030614D02*
X002370Y030614D01*
X002244Y030614D02*
X001900Y030614D01*
X001900Y030456D02*
X003296Y030456D01*
X003228Y030614D02*
X002655Y030614D01*
X002980Y030773D02*
X003200Y030773D01*
X003200Y030931D02*
X003136Y030931D01*
X003193Y031882D02*
X003200Y031882D01*
X003200Y032041D02*
X003075Y032041D01*
X003200Y032199D02*
X002872Y032199D01*
X002632Y033309D02*
X003200Y033309D01*
X003362Y033467D02*
X002972Y033467D01*
X003131Y033626D02*
X004469Y033626D01*
X004502Y033582D02*
X004582Y033502D01*
X004671Y033434D01*
X004769Y033377D01*
X004873Y033334D01*
X004982Y033305D01*
X005070Y033293D01*
X005070Y034070D01*
X004293Y034070D01*
X004305Y033982D01*
X004334Y033873D01*
X004377Y033769D01*
X004434Y033671D01*
X004502Y033582D01*
X004628Y033467D02*
X004238Y033467D01*
X004400Y033309D02*
X004968Y033309D01*
X005070Y033309D02*
X005230Y033309D01*
X005332Y033309D02*
X005700Y033309D01*
X005700Y033467D02*
X005673Y033467D01*
X005700Y033150D02*
X004503Y033150D01*
X004569Y032992D02*
X005700Y032992D01*
X005700Y032833D02*
X004584Y032833D01*
X004584Y032675D02*
X005700Y032675D01*
X005700Y032516D02*
X004531Y032516D01*
X004465Y032358D02*
X005700Y032358D01*
X005700Y032199D02*
X005573Y032199D01*
X005230Y032199D02*
X005070Y032199D01*
X005070Y032041D02*
X005230Y032041D01*
X005230Y031882D02*
X005070Y031882D01*
X005070Y031724D02*
X005230Y031724D01*
X005230Y031565D02*
X005070Y031565D01*
X005070Y031370D02*
X005230Y031370D01*
X005230Y030592D01*
X005319Y030604D01*
X005428Y030633D01*
X005532Y030676D01*
X005629Y030733D01*
X005700Y030787D01*
X005700Y028067D01*
X005652Y028184D01*
X005461Y028374D01*
X005400Y028400D01*
X005400Y029919D01*
X005309Y030140D01*
X004774Y030674D01*
X004873Y030633D01*
X004982Y030604D01*
X005070Y030592D01*
X005070Y031370D01*
X005070Y031248D02*
X005230Y031248D01*
X005230Y031090D02*
X005070Y031090D01*
X005070Y030931D02*
X005230Y030931D01*
X005230Y030773D02*
X005070Y030773D01*
X005070Y030614D02*
X005230Y030614D01*
X005356Y030614D02*
X005700Y030614D01*
X005700Y030456D02*
X004993Y030456D01*
X004945Y030614D02*
X004835Y030614D01*
X005152Y030297D02*
X005700Y030297D01*
X005700Y030139D02*
X005309Y030139D01*
X005375Y029980D02*
X005700Y029980D01*
X005700Y029822D02*
X005400Y029822D01*
X005400Y029663D02*
X005700Y029663D01*
X005700Y029505D02*
X005400Y029505D01*
X005400Y029346D02*
X005700Y029346D01*
X005700Y029188D02*
X005400Y029188D01*
X005400Y029029D02*
X005700Y029029D01*
X005700Y028871D02*
X005400Y028871D01*
X005400Y028712D02*
X005700Y028712D01*
X005700Y028554D02*
X005400Y028554D01*
X005411Y028395D02*
X005700Y028395D01*
X005700Y028237D02*
X005599Y028237D01*
X005696Y028078D02*
X005700Y028078D01*
X006900Y028078D02*
X007050Y028078D01*
X007050Y027920D02*
X006900Y027920D01*
X006900Y027761D02*
X007050Y027761D01*
X007050Y027603D02*
X006900Y027603D01*
X006900Y027444D02*
X007050Y027444D01*
X007050Y027286D02*
X006900Y027286D01*
X006900Y027127D02*
X007050Y027127D01*
X007050Y026969D02*
X006900Y026969D01*
X006900Y026810D02*
X007050Y026810D01*
X007050Y026652D02*
X006888Y026652D01*
X006822Y026493D02*
X007050Y026493D01*
X007050Y026335D02*
X006683Y026335D01*
X006525Y026176D02*
X007050Y026176D01*
X007050Y026018D02*
X006366Y026018D01*
X006208Y025859D02*
X007050Y025859D01*
X007050Y025701D02*
X006049Y025701D01*
X005891Y025542D02*
X007050Y025542D01*
X007050Y025384D02*
X005732Y025384D01*
X007050Y025300D02*
X007050Y042184D01*
X006967Y042384D01*
X006967Y042716D01*
X007050Y042916D01*
X007050Y048320D01*
X001050Y048320D01*
X001050Y043348D01*
X001134Y043383D01*
X001466Y043383D01*
X001772Y043256D01*
X002006Y043022D01*
X002133Y042716D01*
X002133Y042384D01*
X002006Y042078D01*
X001772Y041844D01*
X001466Y041717D01*
X001134Y041717D01*
X001050Y041752D01*
X001050Y039399D01*
X001291Y039640D01*
X001460Y039809D01*
X001681Y039900D01*
X002029Y039900D01*
X001971Y039934D01*
X001881Y040002D01*
X001801Y040082D01*
X001733Y040171D01*
X001676Y040269D01*
X001633Y040373D01*
X001604Y040482D01*
X001592Y040570D01*
X002370Y040570D01*
X002370Y040730D01*
X001592Y040730D01*
X001604Y040819D01*
X001633Y040928D01*
X001676Y041032D01*
X001733Y041129D01*
X001801Y041219D01*
X001881Y041299D01*
X001971Y041367D01*
X002068Y041424D01*
X002172Y041467D01*
X002281Y041496D01*
X002370Y041508D01*
X002370Y040730D01*
X002530Y040730D01*
X003307Y040730D01*
X003295Y040819D01*
X003266Y040928D01*
X003223Y041032D01*
X003166Y041129D01*
X003098Y041219D01*
X003018Y041299D01*
X002929Y041367D01*
X002831Y041424D01*
X002727Y041467D01*
X002618Y041496D01*
X002530Y041508D01*
X002530Y040730D01*
X002530Y040570D01*
X003307Y040570D01*
X003295Y040482D01*
X003266Y040373D01*
X003223Y040269D01*
X003166Y040171D01*
X003098Y040082D01*
X003018Y040002D01*
X002929Y039934D01*
X002871Y039900D01*
X003291Y039900D01*
X003356Y039965D01*
X003644Y040084D01*
X003956Y040084D01*
X004244Y039965D01*
X004465Y039744D01*
X004584Y039456D01*
X004584Y039144D01*
X004584Y039173D02*
X005700Y039173D01*
X005700Y039332D02*
X004584Y039332D01*
X004570Y039490D02*
X005700Y039490D01*
X005700Y039649D02*
X004504Y039649D01*
X004402Y039807D02*
X004974Y039807D01*
X004982Y039805D02*
X005070Y039793D01*
X005070Y040570D01*
X004293Y040570D01*
X004305Y040482D01*
X004334Y040373D01*
X004377Y040269D01*
X004434Y040171D01*
X004502Y040082D01*
X004582Y040002D01*
X004671Y039934D01*
X004769Y039877D01*
X004873Y039834D01*
X004982Y039805D01*
X005070Y039807D02*
X005230Y039807D01*
X005327Y039807D02*
X005700Y039807D01*
X005700Y039966D02*
X005671Y039966D01*
X005230Y039966D02*
X005070Y039966D01*
X005070Y040124D02*
X005230Y040124D01*
X005230Y040283D02*
X005070Y040283D01*
X005070Y040441D02*
X005230Y040441D01*
X005070Y040600D02*
X002530Y040600D01*
X002530Y040758D02*
X002370Y040758D01*
X002370Y040600D02*
X001050Y040600D01*
X001050Y040758D02*
X001596Y040758D01*
X001630Y040917D02*
X001050Y040917D01*
X001050Y041075D02*
X001701Y041075D01*
X001816Y041234D02*
X001050Y041234D01*
X001050Y041392D02*
X002014Y041392D01*
X002370Y041392D02*
X002530Y041392D01*
X002530Y041234D02*
X002370Y041234D01*
X002370Y041075D02*
X002530Y041075D01*
X002530Y040917D02*
X002370Y040917D01*
X001671Y040283D02*
X001050Y040283D01*
X001050Y040441D02*
X001615Y040441D01*
X001769Y040124D02*
X001050Y040124D01*
X001050Y039966D02*
X001929Y039966D01*
X001459Y039807D02*
X001050Y039807D01*
X001050Y039649D02*
X001300Y039649D01*
X001142Y039490D02*
X001050Y039490D01*
X002875Y038698D02*
X003294Y038698D01*
X002530Y037905D02*
X005070Y037905D01*
X005070Y037747D02*
X005230Y037747D01*
X005230Y037588D02*
X005070Y037588D01*
X005070Y037430D02*
X005230Y037430D01*
X005230Y037271D02*
X005070Y037271D01*
X005070Y037113D02*
X005230Y037113D01*
X005350Y037113D02*
X005700Y037113D01*
X005700Y037271D02*
X005679Y037271D01*
X005230Y038064D02*
X005070Y038064D01*
X005070Y038222D02*
X005230Y038222D01*
X005230Y038381D02*
X005070Y038381D01*
X005070Y038539D02*
X005230Y038539D01*
X005230Y038698D02*
X005070Y038698D01*
X004630Y039966D02*
X004242Y039966D01*
X004470Y040124D02*
X003130Y040124D01*
X003228Y040283D02*
X004372Y040283D01*
X004316Y040441D02*
X003284Y040441D01*
X003303Y040758D02*
X004297Y040758D01*
X004293Y040730D02*
X005070Y040730D01*
X005070Y041508D01*
X004982Y041496D01*
X004873Y041467D01*
X004769Y041424D01*
X004671Y041367D01*
X004582Y041299D01*
X004502Y041219D01*
X004434Y041129D01*
X004377Y041032D01*
X004334Y040928D01*
X004305Y040819D01*
X004293Y040730D01*
X004331Y040917D02*
X003269Y040917D01*
X003198Y041075D02*
X004402Y041075D01*
X004517Y041234D02*
X003083Y041234D01*
X002886Y041392D02*
X004714Y041392D01*
X005070Y041392D02*
X005230Y041392D01*
X005230Y041234D02*
X005070Y041234D01*
X005070Y041075D02*
X005230Y041075D01*
X005230Y040917D02*
X005070Y040917D01*
X005070Y040758D02*
X005230Y040758D01*
X005586Y041392D02*
X005700Y041392D01*
X005700Y041551D02*
X001050Y041551D01*
X001050Y041709D02*
X005700Y041709D01*
X005700Y041868D02*
X001796Y041868D01*
X001954Y042026D02*
X005700Y042026D01*
X005700Y042185D02*
X002050Y042185D01*
X002116Y042343D02*
X005700Y042343D01*
X005700Y042502D02*
X002133Y042502D01*
X002133Y042660D02*
X005700Y042660D01*
X005700Y042819D02*
X002090Y042819D01*
X002025Y042977D02*
X005700Y042977D01*
X005700Y043136D02*
X001893Y043136D01*
X001681Y043294D02*
X005700Y043294D01*
X005700Y043453D02*
X001050Y043453D01*
X001050Y043611D02*
X002255Y043611D01*
X002281Y043604D02*
X002370Y043592D01*
X002370Y044370D01*
X002530Y044370D01*
X002530Y044530D01*
X003307Y044530D01*
X003295Y044618D01*
X003266Y044727D01*
X003223Y044831D01*
X003166Y044929D01*
X003098Y045018D01*
X003018Y045098D01*
X002929Y045166D01*
X002831Y045223D01*
X002727Y045266D01*
X002618Y045295D01*
X002530Y045307D01*
X002530Y044530D01*
X002370Y044530D01*
X002370Y045307D01*
X002281Y045295D01*
X002172Y045266D01*
X002068Y045223D01*
X001971Y045166D01*
X001881Y045098D01*
X001801Y045018D01*
X001733Y044929D01*
X001676Y044831D01*
X001633Y044727D01*
X001604Y044618D01*
X001592Y044530D01*
X002370Y044530D01*
X002370Y044370D01*
X001592Y044370D01*
X001604Y044281D01*
X001633Y044172D01*
X001676Y044068D01*
X001733Y043971D01*
X001801Y043881D01*
X001881Y043801D01*
X001971Y043733D01*
X002068Y043676D01*
X002172Y043633D01*
X002281Y043604D01*
X002370Y043611D02*
X002530Y043611D01*
X002530Y043592D02*
X002618Y043604D01*
X002727Y043633D01*
X002831Y043676D01*
X002929Y043733D01*
X003018Y043801D01*
X003098Y043881D01*
X003166Y043971D01*
X003223Y044068D01*
X003266Y044172D01*
X003295Y044281D01*
X003307Y044370D01*
X002530Y044370D01*
X002530Y043592D01*
X002644Y043611D02*
X004956Y043611D01*
X005070Y043611D02*
X005230Y043611D01*
X005345Y043611D02*
X005700Y043611D01*
X005700Y043770D02*
X005677Y043770D01*
X005230Y043770D02*
X005070Y043770D01*
X005070Y043928D02*
X005230Y043928D01*
X005230Y044087D02*
X005070Y044087D01*
X005070Y044245D02*
X005230Y044245D01*
X005070Y044404D02*
X002530Y044404D01*
X002530Y044562D02*
X002370Y044562D01*
X002370Y044404D02*
X001050Y044404D01*
X001050Y044562D02*
X001597Y044562D01*
X001632Y044721D02*
X001050Y044721D01*
X001050Y044879D02*
X001704Y044879D01*
X001821Y045038D02*
X001050Y045038D01*
X001050Y045196D02*
X002022Y045196D01*
X002370Y045196D02*
X002530Y045196D01*
X002530Y045038D02*
X002370Y045038D01*
X002370Y044879D02*
X002530Y044879D01*
X002530Y044721D02*
X002370Y044721D01*
X002370Y044245D02*
X002530Y044245D01*
X002530Y044087D02*
X002370Y044087D01*
X002370Y043928D02*
X002530Y043928D01*
X002530Y043770D02*
X002370Y043770D01*
X001923Y043770D02*
X001050Y043770D01*
X001050Y043928D02*
X001765Y043928D01*
X001669Y044087D02*
X001050Y044087D01*
X001050Y044245D02*
X001614Y044245D01*
X001050Y045355D02*
X003137Y045355D01*
X003070Y045513D02*
X001050Y045513D01*
X001050Y045672D02*
X003016Y045672D01*
X003016Y045830D02*
X001050Y045830D01*
X001050Y045989D02*
X003030Y045989D01*
X003095Y046147D02*
X001050Y046147D01*
X001050Y046306D02*
X002279Y046306D01*
X002281Y046305D02*
X002370Y046293D01*
X002370Y047070D01*
X002530Y047070D01*
X002530Y047230D01*
X003307Y047230D01*
X003295Y047319D01*
X003266Y047428D01*
X003223Y047532D01*
X003166Y047629D01*
X003098Y047719D01*
X003018Y047799D01*
X002929Y047867D01*
X002831Y047924D01*
X002727Y047967D01*
X002618Y047996D01*
X002530Y048008D01*
X002530Y047230D01*
X002370Y047230D01*
X002370Y047070D01*
X001592Y047070D01*
X001604Y046982D01*
X001633Y046873D01*
X001676Y046769D01*
X001733Y046671D01*
X001801Y046582D01*
X001881Y046502D01*
X001971Y046434D01*
X002068Y046377D01*
X002172Y046334D01*
X002281Y046305D01*
X002370Y046306D02*
X002530Y046306D01*
X002530Y046293D02*
X002618Y046305D01*
X002727Y046334D01*
X002831Y046377D01*
X002929Y046434D01*
X003018Y046502D01*
X003098Y046582D01*
X003166Y046671D01*
X003223Y046769D01*
X003266Y046873D01*
X003295Y046982D01*
X003307Y047070D01*
X002530Y047070D01*
X002530Y046293D01*
X002621Y046306D02*
X003197Y046306D01*
X003356Y046464D02*
X002968Y046464D01*
X003129Y046623D02*
X004471Y046623D01*
X004372Y046781D02*
X003228Y046781D01*
X003284Y046940D02*
X004316Y046940D01*
X004293Y047230D02*
X005070Y047230D01*
X005070Y048008D01*
X004982Y047996D01*
X004873Y047967D01*
X004769Y047924D01*
X004671Y047867D01*
X004582Y047799D01*
X004502Y047719D01*
X004434Y047629D01*
X004377Y047532D01*
X004334Y047428D01*
X004305Y047319D01*
X004293Y047230D01*
X004297Y047257D02*
X003303Y047257D01*
X003269Y047415D02*
X004331Y047415D01*
X004401Y047574D02*
X003199Y047574D01*
X003085Y047732D02*
X004515Y047732D01*
X004712Y047891D02*
X002888Y047891D01*
X002530Y047891D02*
X002370Y047891D01*
X002370Y048008D02*
X002281Y047996D01*
X002172Y047967D01*
X002068Y047924D01*
X001971Y047867D01*
X001881Y047799D01*
X001801Y047719D01*
X001733Y047629D01*
X001676Y047532D01*
X001633Y047428D01*
X001604Y047319D01*
X001592Y047230D01*
X002370Y047230D01*
X002370Y048008D01*
X002370Y047732D02*
X002530Y047732D01*
X002530Y047574D02*
X002370Y047574D01*
X002370Y047415D02*
X002530Y047415D01*
X002530Y047257D02*
X002370Y047257D01*
X002370Y047098D02*
X001050Y047098D01*
X001050Y046940D02*
X001615Y046940D01*
X001671Y046781D02*
X001050Y046781D01*
X001050Y046623D02*
X001770Y046623D01*
X001931Y046464D02*
X001050Y046464D01*
X001050Y047257D02*
X001596Y047257D01*
X001630Y047415D02*
X001050Y047415D01*
X001050Y047574D02*
X001701Y047574D01*
X001815Y047732D02*
X001050Y047732D01*
X001050Y047891D02*
X002011Y047891D01*
X002530Y047098D02*
X005070Y047098D01*
X005070Y047257D02*
X005230Y047257D01*
X005230Y047230D02*
X005230Y048008D01*
X005319Y047996D01*
X005428Y047967D01*
X005532Y047924D01*
X005629Y047867D01*
X005719Y047799D01*
X005799Y047719D01*
X005867Y047629D01*
X005924Y047532D01*
X005967Y047428D01*
X005996Y047319D01*
X006008Y047230D01*
X005230Y047230D01*
X005230Y047098D02*
X007050Y047098D01*
X007050Y046940D02*
X005985Y046940D01*
X005929Y046781D02*
X007050Y046781D01*
X007050Y046623D02*
X005830Y046623D01*
X005669Y046464D02*
X007050Y046464D01*
X007050Y046306D02*
X006143Y046306D01*
X006301Y046147D02*
X007050Y046147D01*
X007050Y045989D02*
X006460Y045989D01*
X006618Y045830D02*
X007050Y045830D01*
X007050Y045672D02*
X006777Y045672D01*
X006861Y045513D02*
X007050Y045513D01*
X007050Y045355D02*
X006900Y045355D01*
X006900Y045196D02*
X007050Y045196D01*
X007050Y045038D02*
X006900Y045038D01*
X006900Y044879D02*
X007050Y044879D01*
X007050Y044721D02*
X006900Y044721D01*
X006900Y044562D02*
X007050Y044562D01*
X007050Y044404D02*
X006900Y044404D01*
X006900Y044245D02*
X007050Y044245D01*
X007050Y044087D02*
X006900Y044087D01*
X006900Y043928D02*
X007050Y043928D01*
X007050Y043770D02*
X006900Y043770D01*
X006900Y043611D02*
X007050Y043611D01*
X007050Y043453D02*
X006900Y043453D01*
X006900Y043294D02*
X007050Y043294D01*
X007050Y043136D02*
X006900Y043136D01*
X006900Y042977D02*
X007050Y042977D01*
X007010Y042819D02*
X006900Y042819D01*
X006900Y042660D02*
X006967Y042660D01*
X006967Y042502D02*
X006900Y042502D01*
X006900Y042343D02*
X006984Y042343D01*
X007050Y042185D02*
X006900Y042185D01*
X006900Y042026D02*
X007050Y042026D01*
X007050Y041868D02*
X006900Y041868D01*
X006900Y041709D02*
X007050Y041709D01*
X007050Y041551D02*
X006900Y041551D01*
X006900Y041392D02*
X007050Y041392D01*
X007050Y041234D02*
X006900Y041234D01*
X006900Y041075D02*
X007050Y041075D01*
X007050Y040917D02*
X006900Y040917D01*
X006900Y040758D02*
X007050Y040758D01*
X007050Y040600D02*
X006900Y040600D01*
X006900Y040441D02*
X007050Y040441D01*
X007050Y040283D02*
X006900Y040283D01*
X006900Y040124D02*
X007050Y040124D01*
X007050Y039966D02*
X006900Y039966D01*
X006900Y039807D02*
X007050Y039807D01*
X007050Y039649D02*
X006900Y039649D01*
X006900Y039490D02*
X007050Y039490D01*
X007050Y039332D02*
X006900Y039332D01*
X006900Y039173D02*
X007050Y039173D01*
X007050Y039015D02*
X006900Y039015D01*
X006900Y038856D02*
X007050Y038856D01*
X007050Y038698D02*
X006900Y038698D01*
X006900Y038539D02*
X007050Y038539D01*
X007050Y038381D02*
X006900Y038381D01*
X006900Y038222D02*
X007050Y038222D01*
X007050Y038064D02*
X006900Y038064D01*
X006900Y037905D02*
X007050Y037905D01*
X007050Y037747D02*
X006900Y037747D01*
X006900Y037588D02*
X007050Y037588D01*
X007050Y037430D02*
X006900Y037430D01*
X006900Y037271D02*
X007050Y037271D01*
X007050Y037113D02*
X006900Y037113D01*
X006900Y036954D02*
X007050Y036954D01*
X007050Y036796D02*
X006900Y036796D01*
X006900Y036637D02*
X007050Y036637D01*
X007050Y036479D02*
X006900Y036479D01*
X006900Y036320D02*
X007050Y036320D01*
X007050Y036162D02*
X006900Y036162D01*
X006900Y036003D02*
X007050Y036003D01*
X007050Y035845D02*
X006900Y035845D01*
X006900Y035686D02*
X007050Y035686D01*
X007050Y035528D02*
X006900Y035528D01*
X006900Y035369D02*
X007050Y035369D01*
X007050Y035211D02*
X006900Y035211D01*
X006900Y035052D02*
X007050Y035052D01*
X007050Y034894D02*
X006900Y034894D01*
X006900Y034735D02*
X007050Y034735D01*
X007050Y034577D02*
X006900Y034577D01*
X006900Y034418D02*
X007050Y034418D01*
X007050Y034260D02*
X006900Y034260D01*
X006900Y034101D02*
X007050Y034101D01*
X007050Y033943D02*
X006900Y033943D01*
X006900Y033784D02*
X007050Y033784D01*
X007050Y033626D02*
X006900Y033626D01*
X006900Y033467D02*
X007050Y033467D01*
X007050Y033309D02*
X006900Y033309D01*
X006900Y033150D02*
X007050Y033150D01*
X007050Y032992D02*
X006900Y032992D01*
X006900Y032833D02*
X007050Y032833D01*
X007050Y032675D02*
X006900Y032675D01*
X006900Y032516D02*
X007050Y032516D01*
X007050Y032358D02*
X006900Y032358D01*
X006900Y032199D02*
X007050Y032199D01*
X007050Y032041D02*
X006900Y032041D01*
X006900Y031882D02*
X007050Y031882D01*
X007050Y031724D02*
X006900Y031724D01*
X006900Y031565D02*
X007050Y031565D01*
X007050Y031407D02*
X006900Y031407D01*
X006900Y031248D02*
X007050Y031248D01*
X007050Y031090D02*
X006900Y031090D01*
X006900Y030931D02*
X007050Y030931D01*
X007050Y030773D02*
X006900Y030773D01*
X006900Y030614D02*
X007050Y030614D01*
X007050Y030456D02*
X006900Y030456D01*
X006900Y030297D02*
X007050Y030297D01*
X007050Y030139D02*
X006900Y030139D01*
X006900Y029980D02*
X007050Y029980D01*
X007050Y029822D02*
X006900Y029822D01*
X006900Y029663D02*
X007050Y029663D01*
X007050Y029505D02*
X006900Y029505D01*
X006900Y029346D02*
X007050Y029346D01*
X007050Y029188D02*
X006900Y029188D01*
X006900Y029029D02*
X007050Y029029D01*
X007050Y028871D02*
X006900Y028871D01*
X006900Y028712D02*
X007050Y028712D01*
X007050Y028554D02*
X006900Y028554D01*
X006900Y028395D02*
X007050Y028395D01*
X007050Y028237D02*
X006900Y028237D01*
X008549Y029900D02*
X008400Y030049D01*
X008400Y030787D01*
X008471Y030733D01*
X008568Y030676D01*
X008672Y030633D01*
X008781Y030604D01*
X008870Y030592D01*
X008870Y031370D01*
X009030Y031370D01*
X009030Y030592D01*
X009118Y030604D01*
X009227Y030633D01*
X009331Y030676D01*
X009429Y030733D01*
X009518Y030801D01*
X009598Y030881D01*
X009666Y030971D01*
X009700Y031029D01*
X009700Y030681D01*
X009791Y030460D01*
X009960Y030291D01*
X010700Y029551D01*
X010700Y028749D01*
X010640Y028809D01*
X009640Y029809D01*
X009419Y029900D01*
X008549Y029900D01*
X008469Y029980D02*
X010271Y029980D01*
X010113Y030139D02*
X008400Y030139D01*
X008400Y030297D02*
X009954Y030297D01*
X009960Y030291D02*
X009960Y030291D01*
X009796Y030456D02*
X008400Y030456D01*
X008400Y030614D02*
X008744Y030614D01*
X008870Y030614D02*
X009030Y030614D01*
X009155Y030614D02*
X009728Y030614D01*
X009700Y030773D02*
X009480Y030773D01*
X009636Y030931D02*
X009700Y030931D01*
X009700Y031871D02*
X009666Y031929D01*
X009598Y032018D01*
X009518Y032098D01*
X009429Y032166D01*
X009331Y032223D01*
X009227Y032266D01*
X009118Y032295D01*
X009030Y032307D01*
X009030Y031530D01*
X008870Y031530D01*
X008870Y032307D01*
X008781Y032295D01*
X008672Y032266D01*
X008568Y032223D01*
X008471Y032166D01*
X008400Y032112D01*
X008400Y033488D01*
X008471Y033434D01*
X008568Y033377D01*
X008672Y033334D01*
X008781Y033305D01*
X008870Y033293D01*
X008870Y034070D01*
X009030Y034070D01*
X009030Y034230D01*
X009807Y034230D01*
X009795Y034319D01*
X009766Y034428D01*
X009723Y034532D01*
X009666Y034629D01*
X009598Y034719D01*
X009518Y034799D01*
X009429Y034867D01*
X009331Y034924D01*
X009227Y034967D01*
X009118Y034996D01*
X009030Y035008D01*
X009030Y034230D01*
X008870Y034230D01*
X008870Y035008D01*
X008781Y034996D01*
X008672Y034967D01*
X008568Y034924D01*
X008471Y034867D01*
X008400Y034813D01*
X008400Y037287D01*
X008471Y037233D01*
X008568Y037176D01*
X008672Y037133D01*
X008781Y037104D01*
X008870Y037092D01*
X008870Y037870D01*
X009030Y037870D01*
X009030Y038030D01*
X009807Y038030D01*
X009795Y038118D01*
X009766Y038227D01*
X009723Y038331D01*
X009666Y038429D01*
X009598Y038518D01*
X009518Y038598D01*
X009429Y038666D01*
X009371Y038700D01*
X009791Y038700D01*
X009856Y038635D01*
X010144Y038516D01*
X010456Y038516D01*
X010744Y038635D01*
X010965Y038856D01*
X012200Y038856D01*
X012200Y038698D02*
X012076Y038698D01*
X012032Y038723D02*
X011928Y038766D01*
X011819Y038795D01*
X011730Y038807D01*
X011730Y038030D01*
X011570Y038030D01*
X011570Y038807D01*
X011482Y038795D01*
X011373Y038766D01*
X011269Y038723D01*
X011171Y038666D01*
X011082Y038598D01*
X011002Y038518D01*
X010934Y038429D01*
X010877Y038331D01*
X010834Y038227D01*
X010805Y038118D01*
X010793Y038030D01*
X011570Y038030D01*
X011570Y037870D01*
X010793Y037870D01*
X010805Y037781D01*
X010834Y037672D01*
X010877Y037568D01*
X010934Y037471D01*
X011002Y037381D01*
X011082Y037301D01*
X011171Y037233D01*
X011269Y037176D01*
X011373Y037133D01*
X011482Y037104D01*
X011570Y037092D01*
X011570Y037870D01*
X011730Y037870D01*
X011730Y037092D01*
X011819Y037104D01*
X011928Y037133D01*
X012032Y037176D01*
X012129Y037233D01*
X012200Y037287D01*
X012200Y034813D01*
X012129Y034867D01*
X012032Y034924D01*
X011928Y034967D01*
X011819Y034996D01*
X011730Y035008D01*
X011730Y034230D01*
X011570Y034230D01*
X011570Y034070D01*
X011730Y034070D01*
X011730Y033293D01*
X011819Y033305D01*
X011928Y033334D01*
X012032Y033377D01*
X012129Y033434D01*
X012200Y033488D01*
X012200Y032112D01*
X012129Y032166D01*
X012032Y032223D01*
X011928Y032266D01*
X011819Y032295D01*
X011730Y032307D01*
X011730Y031530D01*
X011570Y031530D01*
X011570Y032307D01*
X011482Y032295D01*
X011373Y032266D01*
X011269Y032223D01*
X011171Y032166D01*
X011082Y032098D01*
X011002Y032018D01*
X010934Y031929D01*
X010900Y031871D01*
X010900Y032291D01*
X010965Y032356D01*
X011084Y032644D01*
X011084Y032956D01*
X010965Y033244D01*
X010744Y033465D01*
X010456Y033584D01*
X010144Y033584D01*
X009856Y033465D01*
X009635Y033244D01*
X009516Y032956D01*
X009516Y032644D01*
X009635Y032356D01*
X009700Y032291D01*
X009700Y031871D01*
X009700Y031882D02*
X009693Y031882D01*
X009700Y032041D02*
X009575Y032041D01*
X009700Y032199D02*
X009372Y032199D01*
X009635Y032358D02*
X008400Y032358D01*
X008400Y032516D02*
X009569Y032516D01*
X009516Y032675D02*
X008400Y032675D01*
X008400Y032833D02*
X009516Y032833D01*
X009531Y032992D02*
X008400Y032992D01*
X008400Y033150D02*
X009597Y033150D01*
X009700Y033309D02*
X009132Y033309D01*
X009118Y033305D02*
X009227Y033334D01*
X009331Y033377D01*
X009429Y033434D01*
X009518Y033502D01*
X009598Y033582D01*
X009666Y033671D01*
X009723Y033769D01*
X009766Y033873D01*
X009795Y033982D01*
X009807Y034070D01*
X009030Y034070D01*
X009030Y033293D01*
X009118Y033305D01*
X009030Y033309D02*
X008870Y033309D01*
X008768Y033309D02*
X008400Y033309D01*
X008400Y033467D02*
X008427Y033467D01*
X008870Y033467D02*
X009030Y033467D01*
X009030Y033626D02*
X008870Y033626D01*
X008870Y033784D02*
X009030Y033784D01*
X009030Y033943D02*
X008870Y033943D01*
X009030Y034101D02*
X011570Y034101D01*
X011570Y034070D02*
X010793Y034070D01*
X010805Y033982D01*
X010834Y033873D01*
X010877Y033769D01*
X010934Y033671D01*
X011002Y033582D01*
X011082Y033502D01*
X011171Y033434D01*
X011269Y033377D01*
X011373Y033334D01*
X011482Y033305D01*
X011570Y033293D01*
X011570Y034070D01*
X011570Y033943D02*
X011730Y033943D01*
X011730Y033784D02*
X011570Y033784D01*
X011570Y033626D02*
X011730Y033626D01*
X011730Y033467D02*
X011570Y033467D01*
X011570Y033309D02*
X011730Y033309D01*
X011832Y033309D02*
X012200Y033309D01*
X012200Y033467D02*
X012173Y033467D01*
X012200Y033150D02*
X011003Y033150D01*
X011069Y032992D02*
X012200Y032992D01*
X012200Y032833D02*
X011084Y032833D01*
X011084Y032675D02*
X012200Y032675D01*
X012200Y032516D02*
X011031Y032516D01*
X010965Y032358D02*
X012200Y032358D01*
X012200Y032199D02*
X012073Y032199D01*
X011730Y032199D02*
X011570Y032199D01*
X011570Y032041D02*
X011730Y032041D01*
X011730Y031882D02*
X011570Y031882D01*
X011570Y031724D02*
X011730Y031724D01*
X011730Y031565D02*
X011570Y031565D01*
X011570Y031370D02*
X011730Y031370D01*
X011730Y030592D01*
X011819Y030604D01*
X011928Y030633D01*
X012032Y030676D01*
X012129Y030733D01*
X012200Y030787D01*
X012200Y028067D01*
X012152Y028184D01*
X011961Y028374D01*
X011900Y028400D01*
X011900Y029919D01*
X011809Y030140D01*
X011274Y030674D01*
X011373Y030633D01*
X011482Y030604D01*
X011570Y030592D01*
X011570Y031370D01*
X011570Y031248D02*
X011730Y031248D01*
X011730Y031090D02*
X011570Y031090D01*
X011570Y030931D02*
X011730Y030931D01*
X011730Y030773D02*
X011570Y030773D01*
X011570Y030614D02*
X011730Y030614D01*
X011856Y030614D02*
X012200Y030614D01*
X012200Y030456D02*
X011493Y030456D01*
X011445Y030614D02*
X011335Y030614D01*
X011652Y030297D02*
X012200Y030297D01*
X012200Y030139D02*
X011809Y030139D01*
X011875Y029980D02*
X012200Y029980D01*
X012200Y029822D02*
X011900Y029822D01*
X011900Y029663D02*
X012200Y029663D01*
X012200Y029505D02*
X011900Y029505D01*
X011900Y029346D02*
X012200Y029346D01*
X012200Y029188D02*
X011900Y029188D01*
X011900Y029029D02*
X012200Y029029D01*
X012200Y028871D02*
X011900Y028871D01*
X011900Y028712D02*
X012200Y028712D01*
X012200Y028554D02*
X011900Y028554D01*
X011911Y028395D02*
X012200Y028395D01*
X012200Y028237D02*
X012099Y028237D01*
X012196Y028078D02*
X012200Y028078D01*
X013400Y028078D02*
X013550Y028078D01*
X013550Y027920D02*
X013400Y027920D01*
X013400Y027761D02*
X013550Y027761D01*
X013550Y027603D02*
X013400Y027603D01*
X013400Y027444D02*
X013550Y027444D01*
X013550Y027286D02*
X013400Y027286D01*
X013400Y027127D02*
X013550Y027127D01*
X013550Y026969D02*
X013400Y026969D01*
X013400Y026810D02*
X013550Y026810D01*
X013550Y026652D02*
X013388Y026652D01*
X013400Y026681D02*
X013400Y045419D01*
X013309Y045640D01*
X012640Y046309D01*
X012419Y046400D01*
X012071Y046400D01*
X012129Y046434D01*
X012219Y046502D01*
X012299Y046582D01*
X012367Y046671D01*
X012424Y046769D01*
X012467Y046873D01*
X012496Y046982D01*
X012508Y047070D01*
X011730Y047070D01*
X011730Y047230D01*
X011570Y047230D01*
X011570Y047070D01*
X010793Y047070D01*
X010805Y046982D01*
X010834Y046873D01*
X010877Y046769D01*
X010934Y046671D01*
X011002Y046582D01*
X011082Y046502D01*
X011171Y046434D01*
X011229Y046400D01*
X010809Y046400D01*
X010744Y046465D01*
X010456Y046584D01*
X010144Y046584D01*
X009856Y046465D01*
X009635Y046244D01*
X009516Y045956D01*
X009516Y045644D01*
X009635Y045356D01*
X009856Y045135D01*
X010144Y045016D01*
X010456Y045016D01*
X010744Y045135D01*
X010809Y045200D01*
X011229Y045200D01*
X011171Y045166D01*
X011082Y045098D01*
X011002Y045018D01*
X010934Y044929D01*
X010877Y044831D01*
X010834Y044727D01*
X010805Y044618D01*
X010793Y044530D01*
X011570Y044530D01*
X011570Y044370D01*
X010793Y044370D01*
X010805Y044281D01*
X010834Y044172D01*
X010877Y044068D01*
X010934Y043971D01*
X011002Y043881D01*
X011082Y043801D01*
X011171Y043733D01*
X011269Y043676D01*
X011373Y043633D01*
X011482Y043604D01*
X011570Y043592D01*
X011570Y044370D01*
X011730Y044370D01*
X011730Y043592D01*
X011819Y043604D01*
X011928Y043633D01*
X012032Y043676D01*
X012129Y043733D01*
X012200Y043787D01*
X012200Y041313D01*
X012129Y041367D01*
X012032Y041424D01*
X011928Y041467D01*
X011819Y041496D01*
X011730Y041508D01*
X011730Y040730D01*
X011570Y040730D01*
X011570Y040570D01*
X011730Y040570D01*
X011730Y039793D01*
X011819Y039805D01*
X011928Y039834D01*
X012032Y039877D01*
X012129Y039934D01*
X012200Y039988D01*
X012200Y038612D01*
X012129Y038666D01*
X012032Y038723D01*
X011730Y038698D02*
X011570Y038698D01*
X011570Y038539D02*
X011730Y038539D01*
X011730Y038381D02*
X011570Y038381D01*
X011570Y038222D02*
X011730Y038222D01*
X011730Y038064D02*
X011570Y038064D01*
X011570Y037905D02*
X009030Y037905D01*
X009030Y037870D02*
X009807Y037870D01*
X009795Y037781D01*
X009766Y037672D01*
X009723Y037568D01*
X009666Y037471D01*
X009598Y037381D01*
X009518Y037301D01*
X009429Y037233D01*
X009331Y037176D01*
X009227Y037133D01*
X009118Y037104D01*
X009030Y037092D01*
X009030Y037870D01*
X009030Y037747D02*
X008870Y037747D01*
X008870Y037588D02*
X009030Y037588D01*
X009030Y037430D02*
X008870Y037430D01*
X008870Y037271D02*
X009030Y037271D01*
X009030Y037113D02*
X008870Y037113D01*
X008750Y037113D02*
X008400Y037113D01*
X008400Y037271D02*
X008421Y037271D01*
X008400Y036954D02*
X012200Y036954D01*
X012200Y036796D02*
X008400Y036796D01*
X008400Y036637D02*
X012200Y036637D01*
X012200Y036479D02*
X008400Y036479D01*
X008400Y036320D02*
X012200Y036320D01*
X012200Y036162D02*
X008400Y036162D01*
X008400Y036003D02*
X012200Y036003D01*
X012200Y035845D02*
X008400Y035845D01*
X008400Y035686D02*
X012200Y035686D01*
X012200Y035528D02*
X008400Y035528D01*
X008400Y035369D02*
X012200Y035369D01*
X012200Y035211D02*
X008400Y035211D01*
X008400Y035052D02*
X012200Y035052D01*
X012200Y034894D02*
X012084Y034894D01*
X011730Y034894D02*
X011570Y034894D01*
X011570Y035008D02*
X011482Y034996D01*
X011373Y034967D01*
X011269Y034924D01*
X011171Y034867D01*
X011082Y034799D01*
X011002Y034719D01*
X010934Y034629D01*
X010877Y034532D01*
X010834Y034428D01*
X010805Y034319D01*
X010793Y034230D01*
X011570Y034230D01*
X011570Y035008D01*
X011570Y034735D02*
X011730Y034735D01*
X011730Y034577D02*
X011570Y034577D01*
X011570Y034418D02*
X011730Y034418D01*
X011730Y034260D02*
X011570Y034260D01*
X011128Y033467D02*
X010738Y033467D01*
X010900Y033309D02*
X011468Y033309D01*
X010969Y033626D02*
X009631Y033626D01*
X009729Y033784D02*
X010871Y033784D01*
X010815Y033943D02*
X009785Y033943D01*
X009803Y034260D02*
X010797Y034260D01*
X010831Y034418D02*
X009769Y034418D01*
X009697Y034577D02*
X010903Y034577D01*
X011018Y034735D02*
X009582Y034735D01*
X009383Y034894D02*
X011217Y034894D01*
X009862Y033467D02*
X009472Y033467D01*
X009030Y034260D02*
X008870Y034260D01*
X008870Y034418D02*
X009030Y034418D01*
X009030Y034577D02*
X008870Y034577D01*
X008870Y034735D02*
X009030Y034735D01*
X009030Y034894D02*
X008870Y034894D01*
X008516Y034894D02*
X008400Y034894D01*
X009150Y037113D02*
X011450Y037113D01*
X011570Y037113D02*
X011730Y037113D01*
X011850Y037113D02*
X012200Y037113D01*
X012200Y037271D02*
X012179Y037271D01*
X011730Y037271D02*
X011570Y037271D01*
X011570Y037430D02*
X011730Y037430D01*
X011730Y037588D02*
X011570Y037588D01*
X011570Y037747D02*
X011730Y037747D01*
X011122Y037271D02*
X009478Y037271D01*
X009635Y037430D02*
X010965Y037430D01*
X010869Y037588D02*
X009731Y037588D01*
X009786Y037747D02*
X010814Y037747D01*
X010798Y038064D02*
X009802Y038064D01*
X009767Y038222D02*
X010833Y038222D01*
X010906Y038381D02*
X009694Y038381D01*
X009577Y038539D02*
X010089Y038539D01*
X009794Y038698D02*
X009375Y038698D01*
X010511Y038539D02*
X011023Y038539D01*
X011225Y038698D02*
X010806Y038698D01*
X010965Y038856D02*
X011084Y039144D01*
X011084Y039456D01*
X010965Y039744D01*
X010744Y039965D01*
X010456Y040084D01*
X010144Y040084D01*
X009856Y039965D01*
X009791Y039900D01*
X009371Y039900D01*
X009429Y039934D01*
X009518Y040002D01*
X009598Y040082D01*
X009666Y040171D01*
X009723Y040269D01*
X009766Y040373D01*
X009795Y040482D01*
X009807Y040570D01*
X009030Y040570D01*
X009030Y040730D01*
X009807Y040730D01*
X009795Y040819D01*
X009766Y040928D01*
X009723Y041032D01*
X009666Y041129D01*
X009598Y041219D01*
X009518Y041299D01*
X009429Y041367D01*
X009331Y041424D01*
X009227Y041467D01*
X009118Y041496D01*
X009030Y041508D01*
X009030Y040730D01*
X008870Y040730D01*
X008870Y040570D01*
X008092Y040570D01*
X008104Y040482D01*
X008133Y040373D01*
X008176Y040269D01*
X008233Y040171D01*
X008301Y040082D01*
X008381Y040002D01*
X008471Y039934D01*
X008529Y039900D01*
X008181Y039900D01*
X007960Y039809D01*
X007550Y039399D01*
X007550Y041752D01*
X007634Y041717D01*
X007966Y041717D01*
X008272Y041844D01*
X008506Y042078D01*
X008633Y042384D01*
X008633Y042716D01*
X008506Y043022D01*
X008272Y043256D01*
X007966Y043383D01*
X007634Y043383D01*
X007550Y043348D01*
X007550Y048320D01*
X013550Y048320D01*
X013550Y042916D01*
X013467Y042716D01*
X013467Y042384D01*
X013550Y042184D01*
X013550Y025300D01*
X012149Y025300D01*
X013140Y026291D01*
X013309Y026460D01*
X013400Y026681D01*
X013322Y026493D02*
X013550Y026493D01*
X013550Y026335D02*
X013183Y026335D01*
X013025Y026176D02*
X013550Y026176D01*
X013550Y026018D02*
X012866Y026018D01*
X012708Y025859D02*
X013550Y025859D01*
X013550Y025701D02*
X012549Y025701D01*
X012391Y025542D02*
X013550Y025542D01*
X013550Y025384D02*
X012232Y025384D01*
X013400Y028237D02*
X013550Y028237D01*
X013550Y028395D02*
X013400Y028395D01*
X013400Y028554D02*
X013550Y028554D01*
X013550Y028712D02*
X013400Y028712D01*
X013400Y028871D02*
X013550Y028871D01*
X013550Y029029D02*
X013400Y029029D01*
X013400Y029188D02*
X013550Y029188D01*
X013550Y029346D02*
X013400Y029346D01*
X013400Y029505D02*
X013550Y029505D01*
X013550Y029663D02*
X013400Y029663D01*
X013400Y029822D02*
X013550Y029822D01*
X013550Y029980D02*
X013400Y029980D01*
X013400Y030139D02*
X013550Y030139D01*
X013550Y030297D02*
X013400Y030297D01*
X013400Y030456D02*
X013550Y030456D01*
X013550Y030614D02*
X013400Y030614D01*
X013400Y030773D02*
X013550Y030773D01*
X013550Y030931D02*
X013400Y030931D01*
X013400Y031090D02*
X013550Y031090D01*
X013550Y031248D02*
X013400Y031248D01*
X013400Y031407D02*
X013550Y031407D01*
X013550Y031565D02*
X013400Y031565D01*
X013400Y031724D02*
X013550Y031724D01*
X013550Y031882D02*
X013400Y031882D01*
X013400Y032041D02*
X013550Y032041D01*
X013550Y032199D02*
X013400Y032199D01*
X013400Y032358D02*
X013550Y032358D01*
X013550Y032516D02*
X013400Y032516D01*
X013400Y032675D02*
X013550Y032675D01*
X013550Y032833D02*
X013400Y032833D01*
X013400Y032992D02*
X013550Y032992D01*
X013550Y033150D02*
X013400Y033150D01*
X013400Y033309D02*
X013550Y033309D01*
X013550Y033467D02*
X013400Y033467D01*
X013400Y033626D02*
X013550Y033626D01*
X013550Y033784D02*
X013400Y033784D01*
X013400Y033943D02*
X013550Y033943D01*
X013550Y034101D02*
X013400Y034101D01*
X013400Y034260D02*
X013550Y034260D01*
X013550Y034418D02*
X013400Y034418D01*
X013400Y034577D02*
X013550Y034577D01*
X013550Y034735D02*
X013400Y034735D01*
X013400Y034894D02*
X013550Y034894D01*
X013550Y035052D02*
X013400Y035052D01*
X013400Y035211D02*
X013550Y035211D01*
X013550Y035369D02*
X013400Y035369D01*
X013400Y035528D02*
X013550Y035528D01*
X013550Y035686D02*
X013400Y035686D01*
X013400Y035845D02*
X013550Y035845D01*
X013550Y036003D02*
X013400Y036003D01*
X013400Y036162D02*
X013550Y036162D01*
X013550Y036320D02*
X013400Y036320D01*
X013400Y036479D02*
X013550Y036479D01*
X013550Y036637D02*
X013400Y036637D01*
X013400Y036796D02*
X013550Y036796D01*
X013550Y036954D02*
X013400Y036954D01*
X013400Y037113D02*
X013550Y037113D01*
X013550Y037271D02*
X013400Y037271D01*
X013400Y037430D02*
X013550Y037430D01*
X013550Y037588D02*
X013400Y037588D01*
X013400Y037747D02*
X013550Y037747D01*
X013550Y037905D02*
X013400Y037905D01*
X013400Y038064D02*
X013550Y038064D01*
X013550Y038222D02*
X013400Y038222D01*
X013400Y038381D02*
X013550Y038381D01*
X013550Y038539D02*
X013400Y038539D01*
X013400Y038698D02*
X013550Y038698D01*
X013550Y038856D02*
X013400Y038856D01*
X013400Y039015D02*
X013550Y039015D01*
X013550Y039173D02*
X013400Y039173D01*
X013400Y039332D02*
X013550Y039332D01*
X013550Y039490D02*
X013400Y039490D01*
X013400Y039649D02*
X013550Y039649D01*
X013550Y039807D02*
X013400Y039807D01*
X013400Y039966D02*
X013550Y039966D01*
X013550Y040124D02*
X013400Y040124D01*
X013400Y040283D02*
X013550Y040283D01*
X013550Y040441D02*
X013400Y040441D01*
X013400Y040600D02*
X013550Y040600D01*
X013550Y040758D02*
X013400Y040758D01*
X013400Y040917D02*
X013550Y040917D01*
X013550Y041075D02*
X013400Y041075D01*
X013400Y041234D02*
X013550Y041234D01*
X013550Y041392D02*
X013400Y041392D01*
X013400Y041551D02*
X013550Y041551D01*
X013550Y041709D02*
X013400Y041709D01*
X013400Y041868D02*
X013550Y041868D01*
X013550Y042026D02*
X013400Y042026D01*
X013400Y042185D02*
X013550Y042185D01*
X013484Y042343D02*
X013400Y042343D01*
X013400Y042502D02*
X013467Y042502D01*
X013467Y042660D02*
X013400Y042660D01*
X013400Y042819D02*
X013510Y042819D01*
X013550Y042977D02*
X013400Y042977D01*
X013400Y043136D02*
X013550Y043136D01*
X013550Y043294D02*
X013400Y043294D01*
X013400Y043453D02*
X013550Y043453D01*
X013550Y043611D02*
X013400Y043611D01*
X013400Y043770D02*
X013550Y043770D01*
X013550Y043928D02*
X013400Y043928D01*
X013400Y044087D02*
X013550Y044087D01*
X013550Y044245D02*
X013400Y044245D01*
X013400Y044404D02*
X013550Y044404D01*
X013550Y044562D02*
X013400Y044562D01*
X013400Y044721D02*
X013550Y044721D01*
X013550Y044879D02*
X013400Y044879D01*
X013400Y045038D02*
X013550Y045038D01*
X013550Y045196D02*
X013400Y045196D01*
X013400Y045355D02*
X013550Y045355D01*
X013550Y045513D02*
X013361Y045513D01*
X013277Y045672D02*
X013550Y045672D01*
X013550Y045830D02*
X013118Y045830D01*
X012960Y045989D02*
X013550Y045989D01*
X013550Y046147D02*
X012801Y046147D01*
X012643Y046306D02*
X013550Y046306D01*
X013550Y046464D02*
X012169Y046464D01*
X012330Y046623D02*
X013550Y046623D01*
X013550Y046781D02*
X012429Y046781D01*
X012485Y046940D02*
X013550Y046940D01*
X013550Y047098D02*
X011730Y047098D01*
X011730Y047230D02*
X012508Y047230D01*
X012496Y047319D01*
X012467Y047428D01*
X012424Y047532D01*
X012367Y047629D01*
X012299Y047719D01*
X012219Y047799D01*
X012129Y047867D01*
X012032Y047924D01*
X011928Y047967D01*
X011819Y047996D01*
X011730Y048008D01*
X011730Y047230D01*
X011730Y047257D02*
X011570Y047257D01*
X011570Y047230D02*
X011570Y048008D01*
X011482Y047996D01*
X011373Y047967D01*
X011269Y047924D01*
X011171Y047867D01*
X011082Y047799D01*
X011002Y047719D01*
X010934Y047629D01*
X010877Y047532D01*
X010834Y047428D01*
X010805Y047319D01*
X010793Y047230D01*
X011570Y047230D01*
X011570Y047098D02*
X009030Y047098D01*
X009030Y047070D02*
X009030Y047230D01*
X009807Y047230D01*
X009795Y047319D01*
X009766Y047428D01*
X009723Y047532D01*
X009666Y047629D01*
X009598Y047719D01*
X009518Y047799D01*
X009429Y047867D01*
X009331Y047924D01*
X009227Y047967D01*
X009118Y047996D01*
X009030Y048008D01*
X009030Y047230D01*
X008870Y047230D01*
X008870Y047070D01*
X009030Y047070D01*
X009807Y047070D01*
X009795Y046982D01*
X009766Y046873D01*
X009723Y046769D01*
X009666Y046671D01*
X009598Y046582D01*
X009518Y046502D01*
X009429Y046434D01*
X009331Y046377D01*
X009227Y046334D01*
X009118Y046305D01*
X009030Y046293D01*
X009030Y047070D01*
X009030Y046940D02*
X008870Y046940D01*
X008870Y047070D02*
X008870Y046293D01*
X008781Y046305D01*
X008672Y046334D01*
X008568Y046377D01*
X008471Y046434D01*
X008381Y046502D01*
X008301Y046582D01*
X008233Y046671D01*
X008176Y046769D01*
X008133Y046873D01*
X008104Y046982D01*
X008092Y047070D01*
X008870Y047070D01*
X008870Y047098D02*
X007550Y047098D01*
X007550Y046940D02*
X008115Y046940D01*
X008171Y046781D02*
X007550Y046781D01*
X007550Y046623D02*
X008270Y046623D01*
X008431Y046464D02*
X007550Y046464D01*
X007550Y046306D02*
X008779Y046306D01*
X008870Y046306D02*
X009030Y046306D01*
X009121Y046306D02*
X009697Y046306D01*
X009595Y046147D02*
X007550Y046147D01*
X007550Y045989D02*
X009530Y045989D01*
X009516Y045830D02*
X007550Y045830D01*
X007550Y045672D02*
X009516Y045672D01*
X009570Y045513D02*
X007550Y045513D01*
X007550Y045355D02*
X009637Y045355D01*
X009795Y045196D02*
X009377Y045196D01*
X009331Y045223D02*
X009227Y045266D01*
X009118Y045295D01*
X009030Y045307D01*
X009030Y044530D01*
X009807Y044530D01*
X009795Y044618D01*
X009766Y044727D01*
X009723Y044831D01*
X009666Y044929D01*
X009598Y045018D01*
X009518Y045098D01*
X009429Y045166D01*
X009331Y045223D01*
X009030Y045196D02*
X008870Y045196D01*
X008870Y045307D02*
X008781Y045295D01*
X008672Y045266D01*
X008568Y045223D01*
X008471Y045166D01*
X008381Y045098D01*
X008301Y045018D01*
X008233Y044929D01*
X008176Y044831D01*
X008133Y044727D01*
X008104Y044618D01*
X008092Y044530D01*
X008870Y044530D01*
X008870Y045307D01*
X008870Y045038D02*
X009030Y045038D01*
X009030Y044879D02*
X008870Y044879D01*
X008870Y044721D02*
X009030Y044721D01*
X009030Y044562D02*
X008870Y044562D01*
X008870Y044530D02*
X009030Y044530D01*
X009030Y044370D01*
X009807Y044370D01*
X009795Y044281D01*
X009766Y044172D01*
X009723Y044068D01*
X009666Y043971D01*
X009598Y043881D01*
X009518Y043801D01*
X009429Y043733D01*
X009331Y043676D01*
X009227Y043633D01*
X009118Y043604D01*
X009030Y043592D01*
X009030Y044370D01*
X008870Y044370D01*
X008870Y043592D01*
X008781Y043604D01*
X008672Y043633D01*
X008568Y043676D01*
X008471Y043733D01*
X008381Y043801D01*
X008301Y043881D01*
X008233Y043971D01*
X008176Y044068D01*
X008133Y044172D01*
X008104Y044281D01*
X008092Y044370D01*
X008870Y044370D01*
X008870Y044530D01*
X008870Y044404D02*
X007550Y044404D01*
X007550Y044562D02*
X008097Y044562D01*
X008132Y044721D02*
X007550Y044721D01*
X007550Y044879D02*
X008204Y044879D01*
X008321Y045038D02*
X007550Y045038D01*
X007550Y045196D02*
X008522Y045196D01*
X009030Y044404D02*
X011570Y044404D01*
X011570Y044245D02*
X011730Y044245D01*
X011730Y044087D02*
X011570Y044087D01*
X011570Y043928D02*
X011730Y043928D01*
X011730Y043770D02*
X011570Y043770D01*
X011570Y043611D02*
X011730Y043611D01*
X011845Y043611D02*
X012200Y043611D01*
X012200Y043453D02*
X007550Y043453D01*
X007550Y043611D02*
X008755Y043611D01*
X008870Y043611D02*
X009030Y043611D01*
X009144Y043611D02*
X011456Y043611D01*
X011123Y043770D02*
X009477Y043770D01*
X009634Y043928D02*
X010966Y043928D01*
X010870Y044087D02*
X009730Y044087D01*
X009785Y044245D02*
X010815Y044245D01*
X010797Y044562D02*
X009803Y044562D01*
X009768Y044721D02*
X010832Y044721D01*
X010905Y044879D02*
X009695Y044879D01*
X009578Y045038D02*
X010092Y045038D01*
X010508Y045038D02*
X011022Y045038D01*
X011223Y045196D02*
X010805Y045196D01*
X010744Y046464D02*
X011132Y046464D01*
X010971Y046623D02*
X009629Y046623D01*
X009728Y046781D02*
X010872Y046781D01*
X010816Y046940D02*
X009784Y046940D01*
X009803Y047257D02*
X010797Y047257D01*
X010831Y047415D02*
X009769Y047415D01*
X009699Y047574D02*
X010901Y047574D01*
X011015Y047732D02*
X009585Y047732D01*
X009388Y047891D02*
X011212Y047891D01*
X011570Y047891D02*
X011730Y047891D01*
X011730Y047732D02*
X011570Y047732D01*
X011570Y047574D02*
X011730Y047574D01*
X011730Y047415D02*
X011570Y047415D01*
X012089Y047891D02*
X013550Y047891D01*
X013550Y048049D02*
X007550Y048049D01*
X007550Y047891D02*
X008511Y047891D01*
X008471Y047867D02*
X008381Y047799D01*
X008301Y047719D01*
X008233Y047629D01*
X008176Y047532D01*
X008133Y047428D01*
X008104Y047319D01*
X008092Y047230D01*
X008870Y047230D01*
X008870Y048008D01*
X008781Y047996D01*
X008672Y047967D01*
X008568Y047924D01*
X008471Y047867D01*
X008315Y047732D02*
X007550Y047732D01*
X007550Y047574D02*
X008201Y047574D01*
X008130Y047415D02*
X007550Y047415D01*
X007550Y047257D02*
X008096Y047257D01*
X008870Y047257D02*
X009030Y047257D01*
X009030Y047415D02*
X008870Y047415D01*
X008870Y047574D02*
X009030Y047574D01*
X009030Y047732D02*
X008870Y047732D01*
X008870Y047891D02*
X009030Y047891D01*
X009030Y046781D02*
X008870Y046781D01*
X008870Y046623D02*
X009030Y046623D01*
X009030Y046464D02*
X008870Y046464D01*
X009468Y046464D02*
X009856Y046464D01*
X009030Y044245D02*
X008870Y044245D01*
X008870Y044087D02*
X009030Y044087D01*
X009030Y043928D02*
X008870Y043928D01*
X008870Y043770D02*
X009030Y043770D01*
X008423Y043770D02*
X007550Y043770D01*
X007550Y043928D02*
X008265Y043928D01*
X008169Y044087D02*
X007550Y044087D01*
X007550Y044245D02*
X008114Y044245D01*
X008181Y043294D02*
X012200Y043294D01*
X012200Y043136D02*
X008393Y043136D01*
X008525Y042977D02*
X012200Y042977D01*
X012200Y042819D02*
X008590Y042819D01*
X008633Y042660D02*
X012200Y042660D01*
X012200Y042502D02*
X008633Y042502D01*
X008616Y042343D02*
X012200Y042343D01*
X012200Y042185D02*
X008550Y042185D01*
X008454Y042026D02*
X012200Y042026D01*
X012200Y041868D02*
X008296Y041868D01*
X008568Y041424D02*
X008471Y041367D01*
X008381Y041299D01*
X008301Y041219D01*
X008233Y041129D01*
X008176Y041032D01*
X008133Y040928D01*
X008104Y040819D01*
X008092Y040730D01*
X008870Y040730D01*
X008870Y041508D01*
X008781Y041496D01*
X008672Y041467D01*
X008568Y041424D01*
X008514Y041392D02*
X007550Y041392D01*
X007550Y041234D02*
X008316Y041234D01*
X008201Y041075D02*
X007550Y041075D01*
X007550Y040917D02*
X008130Y040917D01*
X008096Y040758D02*
X007550Y040758D01*
X007550Y040600D02*
X008870Y040600D01*
X008870Y040758D02*
X009030Y040758D01*
X009030Y040600D02*
X011570Y040600D01*
X011570Y040570D02*
X010793Y040570D01*
X010805Y040482D01*
X010834Y040373D01*
X010877Y040269D01*
X010934Y040171D01*
X011002Y040082D01*
X011082Y040002D01*
X011171Y039934D01*
X011269Y039877D01*
X011373Y039834D01*
X011482Y039805D01*
X011570Y039793D01*
X011570Y040570D01*
X011570Y040441D02*
X011730Y040441D01*
X011730Y040283D02*
X011570Y040283D01*
X011570Y040124D02*
X011730Y040124D01*
X011730Y039966D02*
X011570Y039966D01*
X011570Y039807D02*
X011730Y039807D01*
X011827Y039807D02*
X012200Y039807D01*
X012200Y039649D02*
X011004Y039649D01*
X011070Y039490D02*
X012200Y039490D01*
X012200Y039332D02*
X011084Y039332D01*
X011084Y039173D02*
X012200Y039173D01*
X012200Y039015D02*
X011030Y039015D01*
X010902Y039807D02*
X011474Y039807D01*
X011130Y039966D02*
X010742Y039966D01*
X010970Y040124D02*
X009630Y040124D01*
X009728Y040283D02*
X010872Y040283D01*
X010816Y040441D02*
X009784Y040441D01*
X009803Y040758D02*
X010797Y040758D01*
X010793Y040730D02*
X011570Y040730D01*
X011570Y041508D01*
X011482Y041496D01*
X011373Y041467D01*
X011269Y041424D01*
X011171Y041367D01*
X011082Y041299D01*
X011002Y041219D01*
X010934Y041129D01*
X010877Y041032D01*
X010834Y040928D01*
X010805Y040819D01*
X010793Y040730D01*
X010831Y040917D02*
X009769Y040917D01*
X009698Y041075D02*
X010902Y041075D01*
X011017Y041234D02*
X009583Y041234D01*
X009386Y041392D02*
X011214Y041392D01*
X011570Y041392D02*
X011730Y041392D01*
X011730Y041234D02*
X011570Y041234D01*
X011570Y041075D02*
X011730Y041075D01*
X011730Y040917D02*
X011570Y040917D01*
X011570Y040758D02*
X011730Y040758D01*
X012086Y041392D02*
X012200Y041392D01*
X012200Y041551D02*
X007550Y041551D01*
X007550Y041709D02*
X012200Y041709D01*
X012171Y039966D02*
X012200Y039966D01*
X014050Y039966D02*
X014929Y039966D01*
X014971Y039934D02*
X015029Y039900D01*
X014681Y039900D01*
X014460Y039809D01*
X014291Y039640D01*
X014050Y039399D01*
X014050Y041752D01*
X014134Y041717D01*
X014466Y041717D01*
X014772Y041844D01*
X015006Y042078D01*
X015133Y042384D01*
X015133Y042716D01*
X015006Y043022D01*
X014772Y043256D01*
X014466Y043383D01*
X014134Y043383D01*
X014050Y043348D01*
X014050Y048320D01*
X020050Y048320D01*
X020050Y042916D01*
X019967Y042716D01*
X019967Y042384D01*
X020050Y042184D01*
X020050Y025300D01*
X018649Y025300D01*
X019640Y026291D01*
X019809Y026460D01*
X019900Y026681D01*
X019900Y045419D01*
X019809Y045640D01*
X019309Y046140D01*
X019140Y046309D01*
X018919Y046400D01*
X018571Y046400D01*
X018629Y046434D01*
X018719Y046502D01*
X018799Y046582D01*
X018867Y046671D01*
X018924Y046769D01*
X018967Y046873D01*
X018996Y046982D01*
X019008Y047070D01*
X018230Y047070D01*
X018230Y047230D01*
X018070Y047230D01*
X018070Y047070D01*
X017293Y047070D01*
X017305Y046982D01*
X017334Y046873D01*
X017377Y046769D01*
X017434Y046671D01*
X017502Y046582D01*
X017582Y046502D01*
X017671Y046434D01*
X017729Y046400D01*
X017309Y046400D01*
X017244Y046465D01*
X016956Y046584D01*
X016644Y046584D01*
X016356Y046465D01*
X016135Y046244D01*
X016016Y045956D01*
X016016Y045644D01*
X016135Y045356D01*
X016356Y045135D01*
X016644Y045016D01*
X016956Y045016D01*
X017244Y045135D01*
X017309Y045200D01*
X017729Y045200D01*
X017671Y045166D01*
X017582Y045098D01*
X017502Y045018D01*
X017434Y044929D01*
X017377Y044831D01*
X017334Y044727D01*
X017305Y044618D01*
X017293Y044530D01*
X018070Y044530D01*
X018070Y044370D01*
X017293Y044370D01*
X017305Y044281D01*
X017334Y044172D01*
X017377Y044068D01*
X017434Y043971D01*
X017502Y043881D01*
X017582Y043801D01*
X017671Y043733D01*
X017769Y043676D01*
X017873Y043633D01*
X017982Y043604D01*
X018070Y043592D01*
X018070Y044370D01*
X018230Y044370D01*
X018230Y043592D01*
X018319Y043604D01*
X018428Y043633D01*
X018532Y043676D01*
X018629Y043733D01*
X018700Y043787D01*
X018700Y041313D01*
X018629Y041367D01*
X018532Y041424D01*
X018428Y041467D01*
X018319Y041496D01*
X018230Y041508D01*
X018230Y040730D01*
X018070Y040730D01*
X018070Y040570D01*
X018230Y040570D01*
X018230Y039793D01*
X018319Y039805D01*
X018428Y039834D01*
X018532Y039877D01*
X018629Y039934D01*
X018700Y039988D01*
X018700Y038612D01*
X018629Y038666D01*
X018532Y038723D01*
X018428Y038766D01*
X018319Y038795D01*
X018230Y038807D01*
X018230Y038030D01*
X018070Y038030D01*
X018070Y038807D01*
X017982Y038795D01*
X017873Y038766D01*
X017769Y038723D01*
X017671Y038666D01*
X017582Y038598D01*
X017502Y038518D01*
X017434Y038429D01*
X017377Y038331D01*
X017334Y038227D01*
X017305Y038118D01*
X017293Y038030D01*
X018070Y038030D01*
X018070Y037870D01*
X017293Y037870D01*
X017305Y037781D01*
X017334Y037672D01*
X017377Y037568D01*
X017434Y037471D01*
X017502Y037381D01*
X017582Y037301D01*
X017671Y037233D01*
X017769Y037176D01*
X017873Y037133D01*
X017982Y037104D01*
X018070Y037092D01*
X018070Y037870D01*
X018230Y037870D01*
X018230Y037092D01*
X018319Y037104D01*
X018428Y037133D01*
X018532Y037176D01*
X018629Y037233D01*
X018700Y037287D01*
X018700Y034813D01*
X018629Y034867D01*
X018532Y034924D01*
X018428Y034967D01*
X018319Y034996D01*
X018230Y035008D01*
X018230Y034230D01*
X018070Y034230D01*
X018070Y034070D01*
X018230Y034070D01*
X018230Y033293D01*
X018319Y033305D01*
X018428Y033334D01*
X018532Y033377D01*
X018629Y033434D01*
X018700Y033488D01*
X018700Y032112D01*
X018629Y032166D01*
X018532Y032223D01*
X018428Y032266D01*
X018319Y032295D01*
X018230Y032307D01*
X018230Y031530D01*
X018070Y031530D01*
X018070Y032307D01*
X017982Y032295D01*
X017873Y032266D01*
X017769Y032223D01*
X017671Y032166D01*
X017582Y032098D01*
X017502Y032018D01*
X017434Y031929D01*
X017400Y031871D01*
X017400Y032291D01*
X017465Y032356D01*
X017584Y032644D01*
X017584Y032956D01*
X017465Y033244D01*
X017244Y033465D01*
X016956Y033584D01*
X016644Y033584D01*
X016356Y033465D01*
X016135Y033244D01*
X016016Y032956D01*
X016016Y032644D01*
X016135Y032356D01*
X016200Y032291D01*
X016200Y031871D01*
X016166Y031929D01*
X016098Y032018D01*
X016018Y032098D01*
X015929Y032166D01*
X015831Y032223D01*
X015727Y032266D01*
X015618Y032295D01*
X015530Y032307D01*
X015530Y031530D01*
X015370Y031530D01*
X015370Y032307D01*
X015281Y032295D01*
X015172Y032266D01*
X015068Y032223D01*
X014971Y032166D01*
X014900Y032112D01*
X014900Y033488D01*
X014971Y033434D01*
X015068Y033377D01*
X015172Y033334D01*
X015281Y033305D01*
X015370Y033293D01*
X015370Y034070D01*
X015530Y034070D01*
X015530Y034230D01*
X016307Y034230D01*
X016295Y034319D01*
X016266Y034428D01*
X016223Y034532D01*
X016166Y034629D01*
X016098Y034719D01*
X016018Y034799D01*
X015929Y034867D01*
X015831Y034924D01*
X015727Y034967D01*
X015618Y034996D01*
X015530Y035008D01*
X015530Y034230D01*
X015370Y034230D01*
X015370Y035008D01*
X015281Y034996D01*
X015172Y034967D01*
X015068Y034924D01*
X014971Y034867D01*
X014900Y034813D01*
X014900Y037287D01*
X014971Y037233D01*
X015068Y037176D01*
X015172Y037133D01*
X015281Y037104D01*
X015370Y037092D01*
X015370Y037870D01*
X015530Y037870D01*
X015530Y038030D01*
X016307Y038030D01*
X016295Y038118D01*
X016266Y038227D01*
X016223Y038331D01*
X016166Y038429D01*
X016098Y038518D01*
X016018Y038598D01*
X015929Y038666D01*
X015871Y038700D01*
X016291Y038700D01*
X016356Y038635D01*
X016644Y038516D01*
X016956Y038516D01*
X017244Y038635D01*
X017465Y038856D01*
X018700Y038856D01*
X018700Y038698D02*
X018576Y038698D01*
X018700Y039015D02*
X017530Y039015D01*
X017584Y039144D02*
X017465Y038856D01*
X017306Y038698D02*
X017725Y038698D01*
X017523Y038539D02*
X017011Y038539D01*
X016589Y038539D02*
X016077Y038539D01*
X016194Y038381D02*
X017406Y038381D01*
X017333Y038222D02*
X016267Y038222D01*
X016302Y038064D02*
X017298Y038064D01*
X017314Y037747D02*
X016286Y037747D01*
X016295Y037781D02*
X016266Y037672D01*
X016223Y037568D01*
X016166Y037471D01*
X016098Y037381D01*
X016018Y037301D01*
X015929Y037233D01*
X015831Y037176D01*
X015727Y037133D01*
X015618Y037104D01*
X015530Y037092D01*
X015530Y037870D01*
X016307Y037870D01*
X016295Y037781D01*
X016231Y037588D02*
X017369Y037588D01*
X017465Y037430D02*
X016135Y037430D01*
X015978Y037271D02*
X017622Y037271D01*
X017950Y037113D02*
X015650Y037113D01*
X015530Y037113D02*
X015370Y037113D01*
X015250Y037113D02*
X014900Y037113D01*
X014900Y037271D02*
X014921Y037271D01*
X014900Y036954D02*
X018700Y036954D01*
X018700Y036796D02*
X014900Y036796D01*
X014900Y036637D02*
X018700Y036637D01*
X018700Y036479D02*
X014900Y036479D01*
X014900Y036320D02*
X018700Y036320D01*
X018700Y036162D02*
X014900Y036162D01*
X014900Y036003D02*
X018700Y036003D01*
X018700Y035845D02*
X014900Y035845D01*
X014900Y035686D02*
X018700Y035686D01*
X018700Y035528D02*
X014900Y035528D01*
X014900Y035369D02*
X018700Y035369D01*
X018700Y035211D02*
X014900Y035211D01*
X014900Y035052D02*
X018700Y035052D01*
X018700Y034894D02*
X018584Y034894D01*
X018230Y034894D02*
X018070Y034894D01*
X018070Y035008D02*
X017982Y034996D01*
X017873Y034967D01*
X017769Y034924D01*
X017671Y034867D01*
X017582Y034799D01*
X017502Y034719D01*
X017434Y034629D01*
X017377Y034532D01*
X017334Y034428D01*
X017305Y034319D01*
X017293Y034230D01*
X018070Y034230D01*
X018070Y035008D01*
X018070Y034735D02*
X018230Y034735D01*
X018230Y034577D02*
X018070Y034577D01*
X018070Y034418D02*
X018230Y034418D01*
X018230Y034260D02*
X018070Y034260D01*
X018070Y034101D02*
X015530Y034101D01*
X015530Y034070D02*
X016307Y034070D01*
X016295Y033982D01*
X016266Y033873D01*
X016223Y033769D01*
X016166Y033671D01*
X016098Y033582D01*
X016018Y033502D01*
X015929Y033434D01*
X015831Y033377D01*
X015727Y033334D01*
X015618Y033305D01*
X015530Y033293D01*
X015530Y034070D01*
X015530Y033943D02*
X015370Y033943D01*
X015370Y033784D02*
X015530Y033784D01*
X015530Y033626D02*
X015370Y033626D01*
X015370Y033467D02*
X015530Y033467D01*
X015530Y033309D02*
X015370Y033309D01*
X015268Y033309D02*
X014900Y033309D01*
X014900Y033467D02*
X014927Y033467D01*
X014900Y033150D02*
X016097Y033150D01*
X016031Y032992D02*
X014900Y032992D01*
X014900Y032833D02*
X016016Y032833D01*
X016016Y032675D02*
X014900Y032675D01*
X014900Y032516D02*
X016069Y032516D01*
X016135Y032358D02*
X014900Y032358D01*
X014900Y032199D02*
X015027Y032199D01*
X015370Y032199D02*
X015530Y032199D01*
X015530Y032041D02*
X015370Y032041D01*
X015370Y031882D02*
X015530Y031882D01*
X015530Y031724D02*
X015370Y031724D01*
X015370Y031565D02*
X015530Y031565D01*
X015530Y031370D02*
X015530Y030592D01*
X015618Y030604D01*
X015727Y030633D01*
X015831Y030676D01*
X015929Y030733D01*
X016018Y030801D01*
X016098Y030881D01*
X016166Y030971D01*
X016200Y031029D01*
X016200Y030181D01*
X016291Y029960D01*
X016460Y029791D01*
X017200Y029051D01*
X017200Y028749D01*
X016309Y029640D01*
X016140Y029809D01*
X015919Y029900D01*
X015049Y029900D01*
X014900Y030049D01*
X014900Y030787D01*
X014971Y030733D01*
X015068Y030676D01*
X015172Y030633D01*
X015281Y030604D01*
X015370Y030592D01*
X015370Y031370D01*
X015530Y031370D01*
X015530Y031248D02*
X015370Y031248D01*
X015370Y031090D02*
X015530Y031090D01*
X015530Y030931D02*
X015370Y030931D01*
X015370Y030773D02*
X015530Y030773D01*
X015530Y030614D02*
X015370Y030614D01*
X015244Y030614D02*
X014900Y030614D01*
X014900Y030456D02*
X016200Y030456D01*
X016200Y030614D02*
X015655Y030614D01*
X015980Y030773D02*
X016200Y030773D01*
X016200Y030931D02*
X016136Y030931D01*
X016193Y031882D02*
X016200Y031882D01*
X016200Y032041D02*
X016075Y032041D01*
X016200Y032199D02*
X015872Y032199D01*
X015632Y033309D02*
X016200Y033309D01*
X016362Y033467D02*
X015972Y033467D01*
X016131Y033626D02*
X017469Y033626D01*
X017502Y033582D02*
X017582Y033502D01*
X017671Y033434D01*
X017769Y033377D01*
X017873Y033334D01*
X017982Y033305D01*
X018070Y033293D01*
X018070Y034070D01*
X017293Y034070D01*
X017305Y033982D01*
X017334Y033873D01*
X017377Y033769D01*
X017434Y033671D01*
X017502Y033582D01*
X017628Y033467D02*
X017238Y033467D01*
X017400Y033309D02*
X017968Y033309D01*
X018070Y033309D02*
X018230Y033309D01*
X018332Y033309D02*
X018700Y033309D01*
X018700Y033467D02*
X018673Y033467D01*
X018700Y033150D02*
X017503Y033150D01*
X017569Y032992D02*
X018700Y032992D01*
X018700Y032833D02*
X017584Y032833D01*
X017584Y032675D02*
X018700Y032675D01*
X018700Y032516D02*
X017531Y032516D01*
X017465Y032358D02*
X018700Y032358D01*
X018700Y032199D02*
X018573Y032199D01*
X018230Y032199D02*
X018070Y032199D01*
X018070Y032041D02*
X018230Y032041D01*
X018230Y031882D02*
X018070Y031882D01*
X018070Y031724D02*
X018230Y031724D01*
X018230Y031565D02*
X018070Y031565D01*
X018070Y031370D02*
X018230Y031370D01*
X018230Y030592D01*
X018319Y030604D01*
X018428Y030633D01*
X018532Y030676D01*
X018629Y030733D01*
X018700Y030787D01*
X018700Y028067D01*
X018652Y028184D01*
X018461Y028374D01*
X018400Y028400D01*
X018400Y029419D01*
X018309Y029640D01*
X017400Y030549D01*
X017400Y031029D01*
X017434Y030971D01*
X017502Y030881D01*
X017582Y030801D01*
X017671Y030733D01*
X017769Y030676D01*
X017873Y030633D01*
X017982Y030604D01*
X018070Y030592D01*
X018070Y031370D01*
X018070Y031248D02*
X018230Y031248D01*
X018230Y031090D02*
X018070Y031090D01*
X018070Y030931D02*
X018230Y030931D01*
X018230Y030773D02*
X018070Y030773D01*
X018070Y030614D02*
X018230Y030614D01*
X018356Y030614D02*
X018700Y030614D01*
X018700Y030456D02*
X017493Y030456D01*
X017400Y030614D02*
X017945Y030614D01*
X017620Y030773D02*
X017400Y030773D01*
X017400Y030931D02*
X017464Y030931D01*
X017407Y031882D02*
X017400Y031882D01*
X017400Y032041D02*
X017525Y032041D01*
X017400Y032199D02*
X017728Y032199D01*
X018070Y033467D02*
X018230Y033467D01*
X018230Y033626D02*
X018070Y033626D01*
X018070Y033784D02*
X018230Y033784D01*
X018230Y033943D02*
X018070Y033943D01*
X017371Y033784D02*
X016229Y033784D01*
X016285Y033943D02*
X017315Y033943D01*
X017297Y034260D02*
X016303Y034260D01*
X016269Y034418D02*
X017331Y034418D01*
X017403Y034577D02*
X016197Y034577D01*
X016082Y034735D02*
X017518Y034735D01*
X017717Y034894D02*
X015883Y034894D01*
X015530Y034894D02*
X015370Y034894D01*
X015370Y034735D02*
X015530Y034735D01*
X015530Y034577D02*
X015370Y034577D01*
X015370Y034418D02*
X015530Y034418D01*
X015530Y034260D02*
X015370Y034260D01*
X015016Y034894D02*
X014900Y034894D01*
X015370Y037271D02*
X015530Y037271D01*
X015530Y037430D02*
X015370Y037430D01*
X015370Y037588D02*
X015530Y037588D01*
X015530Y037747D02*
X015370Y037747D01*
X015530Y037905D02*
X018070Y037905D01*
X018070Y037747D02*
X018230Y037747D01*
X018230Y037588D02*
X018070Y037588D01*
X018070Y037430D02*
X018230Y037430D01*
X018230Y037271D02*
X018070Y037271D01*
X018070Y037113D02*
X018230Y037113D01*
X018350Y037113D02*
X018700Y037113D01*
X018700Y037271D02*
X018679Y037271D01*
X018230Y038064D02*
X018070Y038064D01*
X018070Y038222D02*
X018230Y038222D01*
X018230Y038381D02*
X018070Y038381D01*
X018070Y038539D02*
X018230Y038539D01*
X018230Y038698D02*
X018070Y038698D01*
X017584Y039144D02*
X017584Y039456D01*
X017465Y039744D01*
X017244Y039965D01*
X016956Y040084D01*
X016644Y040084D01*
X016356Y039965D01*
X016291Y039900D01*
X015871Y039900D01*
X015929Y039934D01*
X016018Y040002D01*
X016098Y040082D01*
X016166Y040171D01*
X016223Y040269D01*
X016266Y040373D01*
X016295Y040482D01*
X016307Y040570D01*
X015530Y040570D01*
X015530Y040730D01*
X016307Y040730D01*
X016295Y040819D01*
X016266Y040928D01*
X016223Y041032D01*
X016166Y041129D01*
X016098Y041219D01*
X016018Y041299D01*
X015929Y041367D01*
X015831Y041424D01*
X015727Y041467D01*
X015618Y041496D01*
X015530Y041508D01*
X015530Y040730D01*
X015370Y040730D01*
X015370Y040570D01*
X014592Y040570D01*
X014604Y040482D01*
X014633Y040373D01*
X014676Y040269D01*
X014733Y040171D01*
X014801Y040082D01*
X014881Y040002D01*
X014971Y039934D01*
X014769Y040124D02*
X014050Y040124D01*
X014050Y040283D02*
X014671Y040283D01*
X014615Y040441D02*
X014050Y040441D01*
X014050Y040600D02*
X015370Y040600D01*
X015370Y040730D02*
X014592Y040730D01*
X014604Y040819D01*
X014633Y040928D01*
X014676Y041032D01*
X014733Y041129D01*
X014801Y041219D01*
X014881Y041299D01*
X014971Y041367D01*
X015068Y041424D01*
X015172Y041467D01*
X015281Y041496D01*
X015370Y041508D01*
X015370Y040730D01*
X015370Y040758D02*
X015530Y040758D01*
X015530Y040600D02*
X018070Y040600D01*
X018070Y040570D02*
X017293Y040570D01*
X017305Y040482D01*
X017334Y040373D01*
X017377Y040269D01*
X017434Y040171D01*
X017502Y040082D01*
X017582Y040002D01*
X017671Y039934D01*
X017769Y039877D01*
X017873Y039834D01*
X017982Y039805D01*
X018070Y039793D01*
X018070Y040570D01*
X018070Y040441D02*
X018230Y040441D01*
X018230Y040283D02*
X018070Y040283D01*
X018070Y040124D02*
X018230Y040124D01*
X018230Y039966D02*
X018070Y039966D01*
X018070Y039807D02*
X018230Y039807D01*
X018327Y039807D02*
X018700Y039807D01*
X018700Y039649D02*
X017504Y039649D01*
X017570Y039490D02*
X018700Y039490D01*
X018700Y039332D02*
X017584Y039332D01*
X017584Y039173D02*
X018700Y039173D01*
X018671Y039966D02*
X018700Y039966D01*
X017974Y039807D02*
X017402Y039807D01*
X017242Y039966D02*
X017630Y039966D01*
X017470Y040124D02*
X016130Y040124D01*
X016228Y040283D02*
X017372Y040283D01*
X017316Y040441D02*
X016284Y040441D01*
X016303Y040758D02*
X017297Y040758D01*
X017293Y040730D02*
X018070Y040730D01*
X018070Y041508D01*
X017982Y041496D01*
X017873Y041467D01*
X017769Y041424D01*
X017671Y041367D01*
X017582Y041299D01*
X017502Y041219D01*
X017434Y041129D01*
X017377Y041032D01*
X017334Y040928D01*
X017305Y040819D01*
X017293Y040730D01*
X017331Y040917D02*
X016269Y040917D01*
X016198Y041075D02*
X017402Y041075D01*
X017517Y041234D02*
X016083Y041234D01*
X015886Y041392D02*
X017714Y041392D01*
X018070Y041392D02*
X018230Y041392D01*
X018230Y041234D02*
X018070Y041234D01*
X018070Y041075D02*
X018230Y041075D01*
X018230Y040917D02*
X018070Y040917D01*
X018070Y040758D02*
X018230Y040758D01*
X018586Y041392D02*
X018700Y041392D01*
X018700Y041551D02*
X014050Y041551D01*
X014050Y041709D02*
X018700Y041709D01*
X018700Y041868D02*
X014796Y041868D01*
X014954Y042026D02*
X018700Y042026D01*
X018700Y042185D02*
X015050Y042185D01*
X015116Y042343D02*
X018700Y042343D01*
X018700Y042502D02*
X015133Y042502D01*
X015133Y042660D02*
X018700Y042660D01*
X018700Y042819D02*
X015090Y042819D01*
X015025Y042977D02*
X018700Y042977D01*
X018700Y043136D02*
X014893Y043136D01*
X014681Y043294D02*
X018700Y043294D01*
X018700Y043453D02*
X014050Y043453D01*
X014050Y043611D02*
X015255Y043611D01*
X015281Y043604D02*
X015370Y043592D01*
X015370Y044370D01*
X015530Y044370D01*
X015530Y044530D01*
X016307Y044530D01*
X016295Y044618D01*
X016266Y044727D01*
X016223Y044831D01*
X016166Y044929D01*
X016098Y045018D01*
X016018Y045098D01*
X015929Y045166D01*
X015831Y045223D01*
X015727Y045266D01*
X015618Y045295D01*
X015530Y045307D01*
X015530Y044530D01*
X015370Y044530D01*
X015370Y045307D01*
X015281Y045295D01*
X015172Y045266D01*
X015068Y045223D01*
X014971Y045166D01*
X014881Y045098D01*
X014801Y045018D01*
X014733Y044929D01*
X014676Y044831D01*
X014633Y044727D01*
X014604Y044618D01*
X014592Y044530D01*
X015370Y044530D01*
X015370Y044370D01*
X014592Y044370D01*
X014604Y044281D01*
X014633Y044172D01*
X014676Y044068D01*
X014733Y043971D01*
X014801Y043881D01*
X014881Y043801D01*
X014971Y043733D01*
X015068Y043676D01*
X015172Y043633D01*
X015281Y043604D01*
X015370Y043611D02*
X015530Y043611D01*
X015530Y043592D02*
X015618Y043604D01*
X015727Y043633D01*
X015831Y043676D01*
X015929Y043733D01*
X016018Y043801D01*
X016098Y043881D01*
X016166Y043971D01*
X016223Y044068D01*
X016266Y044172D01*
X016295Y044281D01*
X016307Y044370D01*
X015530Y044370D01*
X015530Y043592D01*
X015644Y043611D02*
X017956Y043611D01*
X018070Y043611D02*
X018230Y043611D01*
X018345Y043611D02*
X018700Y043611D01*
X018700Y043770D02*
X018677Y043770D01*
X018230Y043770D02*
X018070Y043770D01*
X018070Y043928D02*
X018230Y043928D01*
X018230Y044087D02*
X018070Y044087D01*
X018070Y044245D02*
X018230Y044245D01*
X018070Y044404D02*
X015530Y044404D01*
X015530Y044562D02*
X015370Y044562D01*
X015370Y044404D02*
X014050Y044404D01*
X014050Y044562D02*
X014597Y044562D01*
X014632Y044721D02*
X014050Y044721D01*
X014050Y044879D02*
X014704Y044879D01*
X014821Y045038D02*
X014050Y045038D01*
X014050Y045196D02*
X015022Y045196D01*
X015370Y045196D02*
X015530Y045196D01*
X015530Y045038D02*
X015370Y045038D01*
X015370Y044879D02*
X015530Y044879D01*
X015530Y044721D02*
X015370Y044721D01*
X015370Y044245D02*
X015530Y044245D01*
X015530Y044087D02*
X015370Y044087D01*
X015370Y043928D02*
X015530Y043928D01*
X015530Y043770D02*
X015370Y043770D01*
X014923Y043770D02*
X014050Y043770D01*
X014050Y043928D02*
X014765Y043928D01*
X014669Y044087D02*
X014050Y044087D01*
X014050Y044245D02*
X014614Y044245D01*
X014050Y045355D02*
X016137Y045355D01*
X016070Y045513D02*
X014050Y045513D01*
X014050Y045672D02*
X016016Y045672D01*
X016016Y045830D02*
X014050Y045830D01*
X014050Y045989D02*
X016030Y045989D01*
X016095Y046147D02*
X014050Y046147D01*
X014050Y046306D02*
X015279Y046306D01*
X015281Y046305D02*
X015370Y046293D01*
X015370Y047070D01*
X015530Y047070D01*
X015530Y047230D01*
X016307Y047230D01*
X016295Y047319D01*
X016266Y047428D01*
X016223Y047532D01*
X016166Y047629D01*
X016098Y047719D01*
X016018Y047799D01*
X015929Y047867D01*
X015831Y047924D01*
X015727Y047967D01*
X015618Y047996D01*
X015530Y048008D01*
X015530Y047230D01*
X015370Y047230D01*
X015370Y047070D01*
X014592Y047070D01*
X014604Y046982D01*
X014633Y046873D01*
X014676Y046769D01*
X014733Y046671D01*
X014801Y046582D01*
X014881Y046502D01*
X014971Y046434D01*
X015068Y046377D01*
X015172Y046334D01*
X015281Y046305D01*
X015370Y046306D02*
X015530Y046306D01*
X015530Y046293D02*
X015618Y046305D01*
X015727Y046334D01*
X015831Y046377D01*
X015929Y046434D01*
X016018Y046502D01*
X016098Y046582D01*
X016166Y046671D01*
X016223Y046769D01*
X016266Y046873D01*
X016295Y046982D01*
X016307Y047070D01*
X015530Y047070D01*
X015530Y046293D01*
X015621Y046306D02*
X016197Y046306D01*
X016356Y046464D02*
X015968Y046464D01*
X016129Y046623D02*
X017471Y046623D01*
X017372Y046781D02*
X016228Y046781D01*
X016284Y046940D02*
X017316Y046940D01*
X017293Y047230D02*
X018070Y047230D01*
X018070Y048008D01*
X017982Y047996D01*
X017873Y047967D01*
X017769Y047924D01*
X017671Y047867D01*
X017582Y047799D01*
X017502Y047719D01*
X017434Y047629D01*
X017377Y047532D01*
X017334Y047428D01*
X017305Y047319D01*
X017293Y047230D01*
X017297Y047257D02*
X016303Y047257D01*
X016269Y047415D02*
X017331Y047415D01*
X017401Y047574D02*
X016199Y047574D01*
X016085Y047732D02*
X017515Y047732D01*
X017712Y047891D02*
X015888Y047891D01*
X015530Y047891D02*
X015370Y047891D01*
X015370Y048008D02*
X015281Y047996D01*
X015172Y047967D01*
X015068Y047924D01*
X014971Y047867D01*
X014881Y047799D01*
X014801Y047719D01*
X014733Y047629D01*
X014676Y047532D01*
X014633Y047428D01*
X014604Y047319D01*
X014592Y047230D01*
X015370Y047230D01*
X015370Y048008D01*
X015370Y047732D02*
X015530Y047732D01*
X015530Y047574D02*
X015370Y047574D01*
X015370Y047415D02*
X015530Y047415D01*
X015530Y047257D02*
X015370Y047257D01*
X015370Y047098D02*
X014050Y047098D01*
X014050Y046940D02*
X014615Y046940D01*
X014671Y046781D02*
X014050Y046781D01*
X014050Y046623D02*
X014770Y046623D01*
X014931Y046464D02*
X014050Y046464D01*
X014050Y047257D02*
X014596Y047257D01*
X014630Y047415D02*
X014050Y047415D01*
X014050Y047574D02*
X014701Y047574D01*
X014815Y047732D02*
X014050Y047732D01*
X014050Y047891D02*
X015011Y047891D01*
X015530Y047098D02*
X018070Y047098D01*
X018070Y047257D02*
X018230Y047257D01*
X018230Y047230D02*
X018230Y048008D01*
X018319Y047996D01*
X018428Y047967D01*
X018532Y047924D01*
X018629Y047867D01*
X018719Y047799D01*
X018799Y047719D01*
X018867Y047629D01*
X018924Y047532D01*
X018967Y047428D01*
X018996Y047319D01*
X019008Y047230D01*
X018230Y047230D01*
X018230Y047098D02*
X020050Y047098D01*
X020050Y046940D02*
X018985Y046940D01*
X018929Y046781D02*
X020050Y046781D01*
X020050Y046623D02*
X018830Y046623D01*
X018669Y046464D02*
X020050Y046464D01*
X020050Y046306D02*
X019143Y046306D01*
X019301Y046147D02*
X020050Y046147D01*
X020050Y045989D02*
X019460Y045989D01*
X019618Y045830D02*
X020050Y045830D01*
X020050Y045672D02*
X019777Y045672D01*
X019861Y045513D02*
X020050Y045513D01*
X020050Y045355D02*
X019900Y045355D01*
X019900Y045196D02*
X020050Y045196D01*
X020050Y045038D02*
X019900Y045038D01*
X019900Y044879D02*
X020050Y044879D01*
X020050Y044721D02*
X019900Y044721D01*
X019900Y044562D02*
X020050Y044562D01*
X020050Y044404D02*
X019900Y044404D01*
X019900Y044245D02*
X020050Y044245D01*
X020050Y044087D02*
X019900Y044087D01*
X019900Y043928D02*
X020050Y043928D01*
X020050Y043770D02*
X019900Y043770D01*
X019900Y043611D02*
X020050Y043611D01*
X020050Y043453D02*
X019900Y043453D01*
X019900Y043294D02*
X020050Y043294D01*
X020050Y043136D02*
X019900Y043136D01*
X019900Y042977D02*
X020050Y042977D01*
X020010Y042819D02*
X019900Y042819D01*
X019900Y042660D02*
X019967Y042660D01*
X019967Y042502D02*
X019900Y042502D01*
X019900Y042343D02*
X019984Y042343D01*
X020050Y042185D02*
X019900Y042185D01*
X019900Y042026D02*
X020050Y042026D01*
X020050Y041868D02*
X019900Y041868D01*
X019900Y041709D02*
X020050Y041709D01*
X020050Y041551D02*
X019900Y041551D01*
X019900Y041392D02*
X020050Y041392D01*
X020050Y041234D02*
X019900Y041234D01*
X019900Y041075D02*
X020050Y041075D01*
X020050Y040917D02*
X019900Y040917D01*
X019900Y040758D02*
X020050Y040758D01*
X020050Y040600D02*
X019900Y040600D01*
X019900Y040441D02*
X020050Y040441D01*
X020050Y040283D02*
X019900Y040283D01*
X019900Y040124D02*
X020050Y040124D01*
X020050Y039966D02*
X019900Y039966D01*
X019900Y039807D02*
X020050Y039807D01*
X020050Y039649D02*
X019900Y039649D01*
X019900Y039490D02*
X020050Y039490D01*
X020050Y039332D02*
X019900Y039332D01*
X019900Y039173D02*
X020050Y039173D01*
X020050Y039015D02*
X019900Y039015D01*
X019900Y038856D02*
X020050Y038856D01*
X020050Y038698D02*
X019900Y038698D01*
X019900Y038539D02*
X020050Y038539D01*
X020050Y038381D02*
X019900Y038381D01*
X019900Y038222D02*
X020050Y038222D01*
X020050Y038064D02*
X019900Y038064D01*
X019900Y037905D02*
X020050Y037905D01*
X020050Y037747D02*
X019900Y037747D01*
X019900Y037588D02*
X020050Y037588D01*
X020050Y037430D02*
X019900Y037430D01*
X019900Y037271D02*
X020050Y037271D01*
X020050Y037113D02*
X019900Y037113D01*
X019900Y036954D02*
X020050Y036954D01*
X020050Y036796D02*
X019900Y036796D01*
X019900Y036637D02*
X020050Y036637D01*
X020050Y036479D02*
X019900Y036479D01*
X019900Y036320D02*
X020050Y036320D01*
X020050Y036162D02*
X019900Y036162D01*
X019900Y036003D02*
X020050Y036003D01*
X020050Y035845D02*
X019900Y035845D01*
X019900Y035686D02*
X020050Y035686D01*
X020050Y035528D02*
X019900Y035528D01*
X019900Y035369D02*
X020050Y035369D01*
X020050Y035211D02*
X019900Y035211D01*
X019900Y035052D02*
X020050Y035052D01*
X020050Y034894D02*
X019900Y034894D01*
X019900Y034735D02*
X020050Y034735D01*
X020050Y034577D02*
X019900Y034577D01*
X019900Y034418D02*
X020050Y034418D01*
X020050Y034260D02*
X019900Y034260D01*
X019900Y034101D02*
X020050Y034101D01*
X020050Y033943D02*
X019900Y033943D01*
X019900Y033784D02*
X020050Y033784D01*
X020050Y033626D02*
X019900Y033626D01*
X019900Y033467D02*
X020050Y033467D01*
X020050Y033309D02*
X019900Y033309D01*
X019900Y033150D02*
X020050Y033150D01*
X020050Y032992D02*
X019900Y032992D01*
X019900Y032833D02*
X020050Y032833D01*
X020050Y032675D02*
X019900Y032675D01*
X019900Y032516D02*
X020050Y032516D01*
X020050Y032358D02*
X019900Y032358D01*
X019900Y032199D02*
X020050Y032199D01*
X020050Y032041D02*
X019900Y032041D01*
X019900Y031882D02*
X020050Y031882D01*
X020050Y031724D02*
X019900Y031724D01*
X019900Y031565D02*
X020050Y031565D01*
X020050Y031407D02*
X019900Y031407D01*
X019900Y031248D02*
X020050Y031248D01*
X020050Y031090D02*
X019900Y031090D01*
X019900Y030931D02*
X020050Y030931D01*
X020050Y030773D02*
X019900Y030773D01*
X019900Y030614D02*
X020050Y030614D01*
X020050Y030456D02*
X019900Y030456D01*
X019900Y030297D02*
X020050Y030297D01*
X020050Y030139D02*
X019900Y030139D01*
X019900Y029980D02*
X020050Y029980D01*
X020050Y029822D02*
X019900Y029822D01*
X019900Y029663D02*
X020050Y029663D01*
X020050Y029505D02*
X019900Y029505D01*
X019900Y029346D02*
X020050Y029346D01*
X020050Y029188D02*
X019900Y029188D01*
X019900Y029029D02*
X020050Y029029D01*
X020050Y028871D02*
X019900Y028871D01*
X019900Y028712D02*
X020050Y028712D01*
X020050Y028554D02*
X019900Y028554D01*
X019900Y028395D02*
X020050Y028395D01*
X020050Y028237D02*
X019900Y028237D01*
X019900Y028078D02*
X020050Y028078D01*
X020050Y027920D02*
X019900Y027920D01*
X019900Y027761D02*
X020050Y027761D01*
X020050Y027603D02*
X019900Y027603D01*
X019900Y027444D02*
X020050Y027444D01*
X020050Y027286D02*
X019900Y027286D01*
X019900Y027127D02*
X020050Y027127D01*
X020050Y026969D02*
X019900Y026969D01*
X019900Y026810D02*
X020050Y026810D01*
X020050Y026652D02*
X019888Y026652D01*
X019822Y026493D02*
X020050Y026493D01*
X020050Y026335D02*
X019683Y026335D01*
X019525Y026176D02*
X020050Y026176D01*
X020050Y026018D02*
X019366Y026018D01*
X019208Y025859D02*
X020050Y025859D01*
X020050Y025701D02*
X019049Y025701D01*
X018891Y025542D02*
X020050Y025542D01*
X020050Y025384D02*
X018732Y025384D01*
X018696Y028078D02*
X018700Y028078D01*
X018700Y028237D02*
X018599Y028237D01*
X018700Y028395D02*
X018411Y028395D01*
X018400Y028554D02*
X018700Y028554D01*
X018700Y028712D02*
X018400Y028712D01*
X018400Y028871D02*
X018700Y028871D01*
X018700Y029029D02*
X018400Y029029D01*
X018400Y029188D02*
X018700Y029188D01*
X018700Y029346D02*
X018400Y029346D01*
X018365Y029505D02*
X018700Y029505D01*
X018700Y029663D02*
X018286Y029663D01*
X018127Y029822D02*
X018700Y029822D01*
X018700Y029980D02*
X017969Y029980D01*
X017810Y030139D02*
X018700Y030139D01*
X018700Y030297D02*
X017652Y030297D01*
X016747Y029505D02*
X016444Y029505D01*
X016588Y029663D02*
X016286Y029663D01*
X016430Y029822D02*
X016109Y029822D01*
X016283Y029980D02*
X014969Y029980D01*
X014900Y030139D02*
X016217Y030139D01*
X016200Y030297D02*
X014900Y030297D01*
X014900Y030773D02*
X014919Y030773D01*
X016603Y029346D02*
X016905Y029346D01*
X016761Y029188D02*
X017064Y029188D01*
X017200Y029029D02*
X016920Y029029D01*
X017078Y028871D02*
X017200Y028871D01*
X018681Y030773D02*
X018700Y030773D01*
X021400Y030773D02*
X021419Y030773D01*
X021400Y030787D02*
X021471Y030733D01*
X021568Y030676D01*
X021672Y030633D01*
X021781Y030604D01*
X021870Y030592D01*
X021870Y031370D01*
X022030Y031370D01*
X022030Y030592D01*
X022118Y030604D01*
X022227Y030633D01*
X022331Y030676D01*
X022429Y030733D01*
X022518Y030801D01*
X022598Y030881D01*
X022666Y030971D01*
X022700Y031029D01*
X022700Y030181D01*
X022791Y029960D01*
X023700Y029051D01*
X023700Y028749D01*
X022809Y029640D01*
X022640Y029809D01*
X022419Y029900D01*
X021549Y029900D01*
X021400Y030049D01*
X021400Y030787D01*
X021400Y030614D02*
X021744Y030614D01*
X021870Y030614D02*
X022030Y030614D01*
X022155Y030614D02*
X022700Y030614D01*
X022700Y030456D02*
X021400Y030456D01*
X021400Y030297D02*
X022700Y030297D01*
X022717Y030139D02*
X021400Y030139D01*
X021469Y029980D02*
X022783Y029980D01*
X022930Y029822D02*
X022609Y029822D01*
X022786Y029663D02*
X023088Y029663D01*
X022944Y029505D02*
X023247Y029505D01*
X023103Y029346D02*
X023405Y029346D01*
X023261Y029188D02*
X023564Y029188D01*
X023700Y029029D02*
X023420Y029029D01*
X023578Y028871D02*
X023700Y028871D01*
X024627Y029822D02*
X025200Y029822D01*
X025200Y029980D02*
X024469Y029980D01*
X024310Y030139D02*
X025200Y030139D01*
X025200Y030297D02*
X024152Y030297D01*
X023993Y030456D02*
X025200Y030456D01*
X025200Y030614D02*
X024856Y030614D01*
X024819Y030604D02*
X024928Y030633D01*
X025032Y030676D01*
X025129Y030733D01*
X025200Y030787D01*
X025200Y028067D01*
X025152Y028184D01*
X024961Y028374D01*
X024900Y028400D01*
X024900Y029419D01*
X024809Y029640D01*
X023900Y030549D01*
X023900Y031029D01*
X023934Y030971D01*
X024002Y030881D01*
X024082Y030801D01*
X024171Y030733D01*
X024269Y030676D01*
X024373Y030633D01*
X024482Y030604D01*
X024570Y030592D01*
X024570Y031370D01*
X024730Y031370D01*
X024730Y030592D01*
X024819Y030604D01*
X024730Y030614D02*
X024570Y030614D01*
X024445Y030614D02*
X023900Y030614D01*
X023900Y030773D02*
X024120Y030773D01*
X023964Y030931D02*
X023900Y030931D01*
X024570Y030931D02*
X024730Y030931D01*
X024730Y030773D02*
X024570Y030773D01*
X024570Y031090D02*
X024730Y031090D01*
X024730Y031248D02*
X024570Y031248D01*
X024570Y031530D02*
X024570Y032307D01*
X024482Y032295D01*
X024373Y032266D01*
X024269Y032223D01*
X024171Y032166D01*
X024082Y032098D01*
X024002Y032018D01*
X023934Y031929D01*
X023900Y031871D01*
X023900Y032291D01*
X023965Y032356D01*
X024084Y032644D01*
X024084Y032956D01*
X023965Y033244D01*
X023744Y033465D01*
X023456Y033584D01*
X023144Y033584D01*
X022856Y033465D01*
X022635Y033244D01*
X022516Y032956D01*
X022516Y032644D01*
X022635Y032356D01*
X022700Y032291D01*
X022700Y031871D01*
X022666Y031929D01*
X022598Y032018D01*
X022518Y032098D01*
X022429Y032166D01*
X022331Y032223D01*
X022227Y032266D01*
X022118Y032295D01*
X022030Y032307D01*
X022030Y031530D01*
X021870Y031530D01*
X021870Y032307D01*
X021781Y032295D01*
X021672Y032266D01*
X021568Y032223D01*
X021471Y032166D01*
X021400Y032112D01*
X021400Y033488D01*
X021471Y033434D01*
X021568Y033377D01*
X021672Y033334D01*
X021781Y033305D01*
X021870Y033293D01*
X021870Y034070D01*
X022030Y034070D01*
X022030Y034230D01*
X022807Y034230D01*
X022795Y034319D01*
X022766Y034428D01*
X022723Y034532D01*
X022666Y034629D01*
X022598Y034719D01*
X022518Y034799D01*
X022429Y034867D01*
X022331Y034924D01*
X022227Y034967D01*
X022118Y034996D01*
X022030Y035008D01*
X022030Y034230D01*
X021870Y034230D01*
X021870Y035008D01*
X021781Y034996D01*
X021672Y034967D01*
X021568Y034924D01*
X021471Y034867D01*
X021400Y034813D01*
X021400Y037287D01*
X021471Y037233D01*
X021568Y037176D01*
X021672Y037133D01*
X021781Y037104D01*
X021870Y037092D01*
X021870Y037870D01*
X022030Y037870D01*
X022030Y038030D01*
X022807Y038030D01*
X022795Y038118D01*
X022766Y038227D01*
X022723Y038331D01*
X022666Y038429D01*
X022598Y038518D01*
X022518Y038598D01*
X022429Y038666D01*
X022371Y038700D01*
X022791Y038700D01*
X022856Y038635D01*
X023144Y038516D01*
X023456Y038516D01*
X023744Y038635D01*
X023965Y038856D01*
X025200Y038856D01*
X025200Y038698D02*
X025076Y038698D01*
X025032Y038723D02*
X025129Y038666D01*
X025200Y038612D01*
X025200Y039988D01*
X025129Y039934D01*
X025032Y039877D01*
X024928Y039834D01*
X024819Y039805D01*
X024730Y039793D01*
X024730Y040570D01*
X024570Y040570D01*
X024570Y039793D01*
X024482Y039805D01*
X024373Y039834D01*
X024269Y039877D01*
X024171Y039934D01*
X024082Y040002D01*
X024002Y040082D01*
X023934Y040171D01*
X023877Y040269D01*
X023834Y040373D01*
X023805Y040482D01*
X023793Y040570D01*
X024570Y040570D01*
X024570Y040730D01*
X023793Y040730D01*
X023805Y040819D01*
X023834Y040928D01*
X023877Y041032D01*
X023934Y041129D01*
X024002Y041219D01*
X024082Y041299D01*
X024171Y041367D01*
X024269Y041424D01*
X024373Y041467D01*
X024482Y041496D01*
X024570Y041508D01*
X024570Y040730D01*
X024730Y040730D01*
X024730Y041508D01*
X024819Y041496D01*
X024928Y041467D01*
X025032Y041424D01*
X025129Y041367D01*
X025200Y041313D01*
X025200Y043787D01*
X025129Y043733D01*
X025032Y043676D01*
X024928Y043633D01*
X024819Y043604D01*
X024730Y043592D01*
X024730Y044370D01*
X024570Y044370D01*
X023793Y044370D01*
X023805Y044281D01*
X023834Y044172D01*
X023877Y044068D01*
X023934Y043971D01*
X024002Y043881D01*
X024082Y043801D01*
X024171Y043733D01*
X024269Y043676D01*
X024373Y043633D01*
X024482Y043604D01*
X024570Y043592D01*
X024570Y044370D01*
X024570Y044530D01*
X023793Y044530D01*
X023805Y044618D01*
X023834Y044727D01*
X023877Y044831D01*
X023934Y044929D01*
X024002Y045018D01*
X024082Y045098D01*
X024171Y045166D01*
X024229Y045200D01*
X023809Y045200D01*
X023744Y045135D01*
X023456Y045016D01*
X023144Y045016D01*
X022856Y045135D01*
X022635Y045356D01*
X022516Y045644D01*
X022516Y045956D01*
X022635Y046244D01*
X022856Y046465D01*
X023144Y046584D01*
X023456Y046584D01*
X023744Y046465D01*
X023809Y046400D01*
X024229Y046400D01*
X024171Y046434D01*
X024082Y046502D01*
X024002Y046582D01*
X023934Y046671D01*
X023877Y046769D01*
X023834Y046873D01*
X023805Y046982D01*
X023793Y047070D01*
X024570Y047070D01*
X024570Y047230D01*
X023793Y047230D01*
X023805Y047319D01*
X023834Y047428D01*
X023877Y047532D01*
X023934Y047629D01*
X024002Y047719D01*
X024082Y047799D01*
X024171Y047867D01*
X024269Y047924D01*
X024373Y047967D01*
X024482Y047996D01*
X024570Y048008D01*
X024570Y047230D01*
X024730Y047230D01*
X024730Y048008D01*
X024819Y047996D01*
X024928Y047967D01*
X025032Y047924D01*
X025129Y047867D01*
X025219Y047799D01*
X025299Y047719D01*
X025367Y047629D01*
X025424Y047532D01*
X025467Y047428D01*
X025496Y047319D01*
X025508Y047230D01*
X024730Y047230D01*
X024730Y047070D01*
X025508Y047070D01*
X025496Y046982D01*
X025467Y046873D01*
X025424Y046769D01*
X025367Y046671D01*
X025299Y046582D01*
X025219Y046502D01*
X025129Y046434D01*
X025071Y046400D01*
X025419Y046400D01*
X025640Y046309D01*
X025809Y046140D01*
X026309Y045640D01*
X026400Y045419D01*
X026400Y026681D01*
X026309Y026460D01*
X026140Y026291D01*
X026140Y026291D01*
X025149Y025300D01*
X026550Y025300D01*
X026550Y042184D01*
X026467Y042384D01*
X026467Y042716D01*
X026550Y042916D01*
X026550Y048320D01*
X020550Y048320D01*
X020550Y043348D01*
X020634Y043383D01*
X020966Y043383D01*
X021272Y043256D01*
X021506Y043022D01*
X021633Y042716D01*
X021633Y042384D01*
X021506Y042078D01*
X021272Y041844D01*
X020966Y041717D01*
X020634Y041717D01*
X020550Y041752D01*
X020550Y039399D01*
X020791Y039640D01*
X020960Y039809D01*
X021181Y039900D01*
X021529Y039900D01*
X021471Y039934D01*
X021381Y040002D01*
X021301Y040082D01*
X021233Y040171D01*
X021176Y040269D01*
X021133Y040373D01*
X021104Y040482D01*
X021092Y040570D01*
X021870Y040570D01*
X021870Y040730D01*
X021092Y040730D01*
X021104Y040819D01*
X021133Y040928D01*
X021176Y041032D01*
X021233Y041129D01*
X021301Y041219D01*
X021381Y041299D01*
X021471Y041367D01*
X021568Y041424D01*
X021672Y041467D01*
X021781Y041496D01*
X021870Y041508D01*
X021870Y040730D01*
X022030Y040730D01*
X022807Y040730D01*
X022795Y040819D01*
X022766Y040928D01*
X022723Y041032D01*
X022666Y041129D01*
X022598Y041219D01*
X022518Y041299D01*
X022429Y041367D01*
X022331Y041424D01*
X022227Y041467D01*
X022118Y041496D01*
X022030Y041508D01*
X022030Y040730D01*
X022030Y040570D01*
X022807Y040570D01*
X022795Y040482D01*
X022766Y040373D01*
X022723Y040269D01*
X022666Y040171D01*
X022598Y040082D01*
X022518Y040002D01*
X022429Y039934D01*
X022371Y039900D01*
X022791Y039900D01*
X022856Y039965D01*
X023144Y040084D01*
X023456Y040084D01*
X023744Y039965D01*
X023965Y039744D01*
X024084Y039456D01*
X024084Y039144D01*
X023965Y038856D01*
X024030Y039015D02*
X025200Y039015D01*
X025200Y039173D02*
X024084Y039173D01*
X024084Y039332D02*
X025200Y039332D01*
X025200Y039490D02*
X024070Y039490D01*
X024004Y039649D02*
X025200Y039649D01*
X025200Y039807D02*
X024827Y039807D01*
X024730Y039807D02*
X024570Y039807D01*
X024474Y039807D02*
X023902Y039807D01*
X023742Y039966D02*
X024130Y039966D01*
X023970Y040124D02*
X022630Y040124D01*
X022728Y040283D02*
X023872Y040283D01*
X023816Y040441D02*
X022784Y040441D01*
X022803Y040758D02*
X023797Y040758D01*
X023831Y040917D02*
X022769Y040917D01*
X022698Y041075D02*
X023902Y041075D01*
X024017Y041234D02*
X022583Y041234D01*
X022386Y041392D02*
X024214Y041392D01*
X024570Y041392D02*
X024730Y041392D01*
X024730Y041234D02*
X024570Y041234D01*
X024570Y041075D02*
X024730Y041075D01*
X024730Y040917D02*
X024570Y040917D01*
X024570Y040758D02*
X024730Y040758D01*
X024570Y040600D02*
X022030Y040600D01*
X022030Y040758D02*
X021870Y040758D01*
X021870Y040600D02*
X020550Y040600D01*
X020550Y040758D02*
X021096Y040758D01*
X021130Y040917D02*
X020550Y040917D01*
X020550Y041075D02*
X021201Y041075D01*
X021316Y041234D02*
X020550Y041234D01*
X020550Y041392D02*
X021514Y041392D01*
X021870Y041392D02*
X022030Y041392D01*
X022030Y041234D02*
X021870Y041234D01*
X021870Y041075D02*
X022030Y041075D01*
X022030Y040917D02*
X021870Y040917D01*
X021115Y040441D02*
X020550Y040441D01*
X020550Y040283D02*
X021171Y040283D01*
X021269Y040124D02*
X020550Y040124D01*
X020550Y039966D02*
X021429Y039966D01*
X020959Y039807D02*
X020550Y039807D01*
X020550Y039649D02*
X020800Y039649D01*
X020642Y039490D02*
X020550Y039490D01*
X022030Y037905D02*
X024570Y037905D01*
X024570Y037870D02*
X023793Y037870D01*
X023805Y037781D01*
X023834Y037672D01*
X023877Y037568D01*
X023934Y037471D01*
X024002Y037381D01*
X024082Y037301D01*
X024171Y037233D01*
X024269Y037176D01*
X024373Y037133D01*
X024482Y037104D01*
X024570Y037092D01*
X024570Y037870D01*
X024570Y038030D01*
X024570Y038807D01*
X024482Y038795D01*
X024373Y038766D01*
X024269Y038723D01*
X024171Y038666D01*
X024082Y038598D01*
X024002Y038518D01*
X023934Y038429D01*
X023877Y038331D01*
X023834Y038227D01*
X023805Y038118D01*
X023793Y038030D01*
X024570Y038030D01*
X024730Y038030D01*
X024730Y038807D01*
X024819Y038795D01*
X024928Y038766D01*
X025032Y038723D01*
X024730Y038698D02*
X024570Y038698D01*
X024570Y038539D02*
X024730Y038539D01*
X024730Y038381D02*
X024570Y038381D01*
X024570Y038222D02*
X024730Y038222D01*
X024730Y038064D02*
X024570Y038064D01*
X024570Y037870D02*
X024730Y037870D01*
X024730Y037092D01*
X024819Y037104D01*
X024928Y037133D01*
X025032Y037176D01*
X025129Y037233D01*
X025200Y037287D01*
X025200Y034813D01*
X025129Y034867D01*
X025032Y034924D01*
X024928Y034967D01*
X024819Y034996D01*
X024730Y035008D01*
X024730Y034230D01*
X024570Y034230D01*
X024570Y034070D01*
X024730Y034070D01*
X024730Y033293D01*
X024819Y033305D01*
X024928Y033334D01*
X025032Y033377D01*
X025129Y033434D01*
X025200Y033488D01*
X025200Y032112D01*
X025129Y032166D01*
X025032Y032223D01*
X024928Y032266D01*
X024819Y032295D01*
X024730Y032307D01*
X024730Y031530D01*
X024570Y031530D01*
X024570Y031565D02*
X024730Y031565D01*
X024730Y031724D02*
X024570Y031724D01*
X024570Y031882D02*
X024730Y031882D01*
X024730Y032041D02*
X024570Y032041D01*
X024570Y032199D02*
X024730Y032199D01*
X025073Y032199D02*
X025200Y032199D01*
X025200Y032358D02*
X023965Y032358D01*
X024031Y032516D02*
X025200Y032516D01*
X025200Y032675D02*
X024084Y032675D01*
X024084Y032833D02*
X025200Y032833D01*
X025200Y032992D02*
X024069Y032992D01*
X024003Y033150D02*
X025200Y033150D01*
X025200Y033309D02*
X024832Y033309D01*
X024730Y033309D02*
X024570Y033309D01*
X024570Y033293D02*
X024570Y034070D01*
X023793Y034070D01*
X023805Y033982D01*
X023834Y033873D01*
X023877Y033769D01*
X023934Y033671D01*
X024002Y033582D01*
X024082Y033502D01*
X024171Y033434D01*
X024269Y033377D01*
X024373Y033334D01*
X024482Y033305D01*
X024570Y033293D01*
X024468Y033309D02*
X023900Y033309D01*
X023738Y033467D02*
X024128Y033467D01*
X023969Y033626D02*
X022631Y033626D01*
X022598Y033582D02*
X022666Y033671D01*
X022723Y033769D01*
X022766Y033873D01*
X022795Y033982D01*
X022807Y034070D01*
X022030Y034070D01*
X022030Y033293D01*
X022118Y033305D01*
X022227Y033334D01*
X022331Y033377D01*
X022429Y033434D01*
X022518Y033502D01*
X022598Y033582D01*
X022472Y033467D02*
X022862Y033467D01*
X022700Y033309D02*
X022132Y033309D01*
X022030Y033309D02*
X021870Y033309D01*
X021768Y033309D02*
X021400Y033309D01*
X021400Y033467D02*
X021427Y033467D01*
X021400Y033150D02*
X022597Y033150D01*
X022531Y032992D02*
X021400Y032992D01*
X021400Y032833D02*
X022516Y032833D01*
X022516Y032675D02*
X021400Y032675D01*
X021400Y032516D02*
X022569Y032516D01*
X022635Y032358D02*
X021400Y032358D01*
X021400Y032199D02*
X021527Y032199D01*
X021870Y032199D02*
X022030Y032199D01*
X022030Y032041D02*
X021870Y032041D01*
X021870Y031882D02*
X022030Y031882D01*
X022030Y031724D02*
X021870Y031724D01*
X021870Y031565D02*
X022030Y031565D01*
X022030Y031248D02*
X021870Y031248D01*
X021870Y031090D02*
X022030Y031090D01*
X022030Y030931D02*
X021870Y030931D01*
X021870Y030773D02*
X022030Y030773D01*
X022480Y030773D02*
X022700Y030773D01*
X022700Y030931D02*
X022636Y030931D01*
X022693Y031882D02*
X022700Y031882D01*
X022700Y032041D02*
X022575Y032041D01*
X022700Y032199D02*
X022372Y032199D01*
X022030Y033467D02*
X021870Y033467D01*
X021870Y033626D02*
X022030Y033626D01*
X022030Y033784D02*
X021870Y033784D01*
X021870Y033943D02*
X022030Y033943D01*
X022030Y034101D02*
X024570Y034101D01*
X024570Y034230D02*
X023793Y034230D01*
X023805Y034319D01*
X023834Y034428D01*
X023877Y034532D01*
X023934Y034629D01*
X024002Y034719D01*
X024082Y034799D01*
X024171Y034867D01*
X024269Y034924D01*
X024373Y034967D01*
X024482Y034996D01*
X024570Y035008D01*
X024570Y034230D01*
X024570Y034260D02*
X024730Y034260D01*
X024730Y034418D02*
X024570Y034418D01*
X024570Y034577D02*
X024730Y034577D01*
X024730Y034735D02*
X024570Y034735D01*
X024570Y034894D02*
X024730Y034894D01*
X025084Y034894D02*
X025200Y034894D01*
X025200Y035052D02*
X021400Y035052D01*
X021400Y034894D02*
X021516Y034894D01*
X021400Y035211D02*
X025200Y035211D01*
X025200Y035369D02*
X021400Y035369D01*
X021400Y035528D02*
X025200Y035528D01*
X025200Y035686D02*
X021400Y035686D01*
X021400Y035845D02*
X025200Y035845D01*
X025200Y036003D02*
X021400Y036003D01*
X021400Y036162D02*
X025200Y036162D01*
X025200Y036320D02*
X021400Y036320D01*
X021400Y036479D02*
X025200Y036479D01*
X025200Y036637D02*
X021400Y036637D01*
X021400Y036796D02*
X025200Y036796D01*
X025200Y036954D02*
X021400Y036954D01*
X021400Y037113D02*
X021750Y037113D01*
X021870Y037113D02*
X022030Y037113D01*
X022030Y037092D02*
X022118Y037104D01*
X022227Y037133D01*
X022331Y037176D01*
X022429Y037233D01*
X022518Y037301D01*
X022598Y037381D01*
X022666Y037471D01*
X022723Y037568D01*
X022766Y037672D01*
X022795Y037781D01*
X022807Y037870D01*
X022030Y037870D01*
X022030Y037092D01*
X022150Y037113D02*
X024450Y037113D01*
X024570Y037113D02*
X024730Y037113D01*
X024850Y037113D02*
X025200Y037113D01*
X025200Y037271D02*
X025179Y037271D01*
X024730Y037271D02*
X024570Y037271D01*
X024570Y037430D02*
X024730Y037430D01*
X024730Y037588D02*
X024570Y037588D01*
X024570Y037747D02*
X024730Y037747D01*
X024122Y037271D02*
X022478Y037271D01*
X022635Y037430D02*
X023965Y037430D01*
X023869Y037588D02*
X022731Y037588D01*
X022786Y037747D02*
X023814Y037747D01*
X023798Y038064D02*
X022802Y038064D01*
X022767Y038222D02*
X023833Y038222D01*
X023906Y038381D02*
X022694Y038381D01*
X022577Y038539D02*
X023089Y038539D01*
X022794Y038698D02*
X022375Y038698D01*
X022030Y037747D02*
X021870Y037747D01*
X021870Y037588D02*
X022030Y037588D01*
X022030Y037430D02*
X021870Y037430D01*
X021870Y037271D02*
X022030Y037271D01*
X021421Y037271D02*
X021400Y037271D01*
X021870Y034894D02*
X022030Y034894D01*
X022030Y034735D02*
X021870Y034735D01*
X021870Y034577D02*
X022030Y034577D01*
X022030Y034418D02*
X021870Y034418D01*
X021870Y034260D02*
X022030Y034260D01*
X022582Y034735D02*
X024018Y034735D01*
X023903Y034577D02*
X022697Y034577D01*
X022769Y034418D02*
X023831Y034418D01*
X023797Y034260D02*
X022803Y034260D01*
X022785Y033943D02*
X023815Y033943D01*
X023871Y033784D02*
X022729Y033784D01*
X022383Y034894D02*
X024217Y034894D01*
X024570Y033943D02*
X024730Y033943D01*
X024730Y033784D02*
X024570Y033784D01*
X024570Y033626D02*
X024730Y033626D01*
X024730Y033467D02*
X024570Y033467D01*
X025173Y033467D02*
X025200Y033467D01*
X026400Y033467D02*
X026550Y033467D01*
X026550Y033309D02*
X026400Y033309D01*
X026400Y033150D02*
X026550Y033150D01*
X026550Y032992D02*
X026400Y032992D01*
X026400Y032833D02*
X026550Y032833D01*
X026550Y032675D02*
X026400Y032675D01*
X026400Y032516D02*
X026550Y032516D01*
X026550Y032358D02*
X026400Y032358D01*
X026400Y032199D02*
X026550Y032199D01*
X026550Y032041D02*
X026400Y032041D01*
X026400Y031882D02*
X026550Y031882D01*
X026550Y031724D02*
X026400Y031724D01*
X026400Y031565D02*
X026550Y031565D01*
X026550Y031407D02*
X026400Y031407D01*
X026400Y031248D02*
X026550Y031248D01*
X026550Y031090D02*
X026400Y031090D01*
X026400Y030931D02*
X026550Y030931D01*
X026550Y030773D02*
X026400Y030773D01*
X026400Y030614D02*
X026550Y030614D01*
X026550Y030456D02*
X026400Y030456D01*
X026400Y030297D02*
X026550Y030297D01*
X026550Y030139D02*
X026400Y030139D01*
X026400Y029980D02*
X026550Y029980D01*
X026550Y029822D02*
X026400Y029822D01*
X026400Y029663D02*
X026550Y029663D01*
X026550Y029505D02*
X026400Y029505D01*
X026400Y029346D02*
X026550Y029346D01*
X026550Y029188D02*
X026400Y029188D01*
X026400Y029029D02*
X026550Y029029D01*
X026550Y028871D02*
X026400Y028871D01*
X026400Y028712D02*
X026550Y028712D01*
X026550Y028554D02*
X026400Y028554D01*
X026400Y028395D02*
X026550Y028395D01*
X026550Y028237D02*
X026400Y028237D01*
X026400Y028078D02*
X026550Y028078D01*
X026550Y027920D02*
X026400Y027920D01*
X026400Y027761D02*
X026550Y027761D01*
X026550Y027603D02*
X026400Y027603D01*
X026400Y027444D02*
X026550Y027444D01*
X026550Y027286D02*
X026400Y027286D01*
X026400Y027127D02*
X026550Y027127D01*
X026550Y026969D02*
X026400Y026969D01*
X026400Y026810D02*
X026550Y026810D01*
X026550Y026652D02*
X026388Y026652D01*
X026322Y026493D02*
X026550Y026493D01*
X026550Y026335D02*
X026183Y026335D01*
X026025Y026176D02*
X026550Y026176D01*
X026550Y026018D02*
X025866Y026018D01*
X025708Y025859D02*
X026550Y025859D01*
X026550Y025701D02*
X025549Y025701D01*
X025391Y025542D02*
X026550Y025542D01*
X026550Y025384D02*
X025232Y025384D01*
X023050Y023050D02*
X022300Y023800D01*
X023050Y023050D02*
X032300Y023050D01*
X035800Y026550D01*
X035800Y029800D01*
X035300Y030300D01*
X034800Y030300D01*
X034800Y029300D02*
X034800Y026300D01*
X032800Y024300D01*
X029800Y024300D01*
X029300Y023800D01*
X028800Y023800D01*
X031649Y025300D02*
X032640Y026291D01*
X032809Y026460D01*
X032900Y026681D01*
X032900Y045419D01*
X032809Y045640D01*
X032309Y046140D01*
X032140Y046309D01*
X031919Y046400D01*
X031571Y046400D01*
X031629Y046434D01*
X031719Y046502D01*
X031799Y046582D01*
X031867Y046671D01*
X031924Y046769D01*
X031967Y046873D01*
X031996Y046982D01*
X032008Y047070D01*
X031230Y047070D01*
X031230Y047230D01*
X031070Y047230D01*
X031070Y047070D01*
X030293Y047070D01*
X030305Y046982D01*
X030334Y046873D01*
X030377Y046769D01*
X030434Y046671D01*
X030502Y046582D01*
X030582Y046502D01*
X030671Y046434D01*
X030729Y046400D01*
X030309Y046400D01*
X030244Y046465D01*
X029956Y046584D01*
X029644Y046584D01*
X029356Y046465D01*
X029135Y046244D01*
X029016Y045956D01*
X029016Y045644D01*
X029135Y045356D01*
X029356Y045135D01*
X029644Y045016D01*
X029956Y045016D01*
X030244Y045135D01*
X030309Y045200D01*
X030729Y045200D01*
X030671Y045166D01*
X030582Y045098D01*
X030502Y045018D01*
X030434Y044929D01*
X030377Y044831D01*
X030334Y044727D01*
X030305Y044618D01*
X030293Y044530D01*
X031070Y044530D01*
X031070Y044370D01*
X030293Y044370D01*
X030305Y044281D01*
X030334Y044172D01*
X030377Y044068D01*
X030434Y043971D01*
X030502Y043881D01*
X030582Y043801D01*
X030671Y043733D01*
X030769Y043676D01*
X030873Y043633D01*
X030982Y043604D01*
X031070Y043592D01*
X031070Y044370D01*
X031230Y044370D01*
X031230Y043592D01*
X031319Y043604D01*
X031428Y043633D01*
X031532Y043676D01*
X031629Y043733D01*
X031700Y043787D01*
X031700Y041313D01*
X031629Y041367D01*
X031532Y041424D01*
X031428Y041467D01*
X031319Y041496D01*
X031230Y041508D01*
X031230Y040730D01*
X031070Y040730D01*
X031070Y040570D01*
X031230Y040570D01*
X031230Y039793D01*
X031319Y039805D01*
X031428Y039834D01*
X031532Y039877D01*
X031629Y039934D01*
X031700Y039988D01*
X031700Y038612D01*
X031629Y038666D01*
X031532Y038723D01*
X031428Y038766D01*
X031319Y038795D01*
X031230Y038807D01*
X031230Y038030D01*
X031070Y038030D01*
X031070Y038807D01*
X030982Y038795D01*
X030873Y038766D01*
X030769Y038723D01*
X030671Y038666D01*
X030582Y038598D01*
X030502Y038518D01*
X030434Y038429D01*
X030377Y038331D01*
X030334Y038227D01*
X030305Y038118D01*
X030293Y038030D01*
X031070Y038030D01*
X031070Y037870D01*
X030293Y037870D01*
X030305Y037781D01*
X030334Y037672D01*
X030377Y037568D01*
X030434Y037471D01*
X030502Y037381D01*
X030582Y037301D01*
X030671Y037233D01*
X030769Y037176D01*
X030873Y037133D01*
X030982Y037104D01*
X031070Y037092D01*
X031070Y037870D01*
X031230Y037870D01*
X031230Y037092D01*
X031319Y037104D01*
X031428Y037133D01*
X031532Y037176D01*
X031629Y037233D01*
X031700Y037287D01*
X031700Y034813D01*
X031629Y034867D01*
X031532Y034924D01*
X031428Y034967D01*
X031319Y034996D01*
X031230Y035008D01*
X031230Y034230D01*
X031070Y034230D01*
X031070Y034070D01*
X031230Y034070D01*
X031230Y033293D01*
X031319Y033305D01*
X031428Y033334D01*
X031532Y033377D01*
X031629Y033434D01*
X031700Y033488D01*
X031700Y032112D01*
X031629Y032166D01*
X031532Y032223D01*
X031428Y032266D01*
X031319Y032295D01*
X031230Y032307D01*
X031230Y031530D01*
X031070Y031530D01*
X031070Y032307D01*
X030982Y032295D01*
X030873Y032266D01*
X030769Y032223D01*
X030671Y032166D01*
X030582Y032098D01*
X030502Y032018D01*
X030434Y031929D01*
X030400Y031871D01*
X030400Y032291D01*
X030465Y032356D01*
X030584Y032644D01*
X030584Y032956D01*
X030465Y033244D01*
X030244Y033465D01*
X029956Y033584D01*
X029644Y033584D01*
X029356Y033465D01*
X029135Y033244D01*
X029016Y032956D01*
X029016Y032644D01*
X029135Y032356D01*
X029200Y032291D01*
X029200Y031871D01*
X029166Y031929D01*
X029098Y032018D01*
X029018Y032098D01*
X028929Y032166D01*
X028831Y032223D01*
X028727Y032266D01*
X028618Y032295D01*
X028530Y032307D01*
X028530Y031530D01*
X028370Y031530D01*
X028370Y032307D01*
X028281Y032295D01*
X028172Y032266D01*
X028068Y032223D01*
X027971Y032166D01*
X027900Y032112D01*
X027900Y033488D01*
X027971Y033434D01*
X028068Y033377D01*
X028172Y033334D01*
X028281Y033305D01*
X028370Y033293D01*
X028370Y034070D01*
X028530Y034070D01*
X028530Y034230D01*
X029307Y034230D01*
X029295Y034319D01*
X029266Y034428D01*
X029223Y034532D01*
X029166Y034629D01*
X029098Y034719D01*
X029018Y034799D01*
X028929Y034867D01*
X028831Y034924D01*
X028727Y034967D01*
X028618Y034996D01*
X028530Y035008D01*
X028530Y034230D01*
X028370Y034230D01*
X028370Y035008D01*
X028281Y034996D01*
X028172Y034967D01*
X028068Y034924D01*
X027971Y034867D01*
X027900Y034813D01*
X027900Y037287D01*
X027971Y037233D01*
X028068Y037176D01*
X028172Y037133D01*
X028281Y037104D01*
X028370Y037092D01*
X028370Y037870D01*
X028530Y037870D01*
X028530Y038030D01*
X029307Y038030D01*
X029295Y038118D01*
X029266Y038227D01*
X029223Y038331D01*
X029166Y038429D01*
X029098Y038518D01*
X029018Y038598D01*
X028929Y038666D01*
X028871Y038700D01*
X029291Y038700D01*
X029356Y038635D01*
X029644Y038516D01*
X029956Y038516D01*
X030244Y038635D01*
X030465Y038856D01*
X031700Y038856D01*
X031700Y038698D02*
X031576Y038698D01*
X031700Y039015D02*
X030530Y039015D01*
X030584Y039144D02*
X030584Y039456D01*
X030465Y039744D01*
X030244Y039965D01*
X029956Y040084D01*
X029644Y040084D01*
X029356Y039965D01*
X029291Y039900D01*
X028871Y039900D01*
X028929Y039934D01*
X029018Y040002D01*
X029098Y040082D01*
X029166Y040171D01*
X029223Y040269D01*
X029266Y040373D01*
X029295Y040482D01*
X029307Y040570D01*
X028530Y040570D01*
X028530Y040730D01*
X029307Y040730D01*
X029295Y040819D01*
X029266Y040928D01*
X029223Y041032D01*
X029166Y041129D01*
X029098Y041219D01*
X029018Y041299D01*
X028929Y041367D01*
X028831Y041424D01*
X028727Y041467D01*
X028618Y041496D01*
X028530Y041508D01*
X028530Y040730D01*
X028370Y040730D01*
X028370Y040570D01*
X027592Y040570D01*
X027604Y040482D01*
X027633Y040373D01*
X027676Y040269D01*
X027733Y040171D01*
X027801Y040082D01*
X027881Y040002D01*
X027971Y039934D01*
X028029Y039900D01*
X027681Y039900D01*
X027460Y039809D01*
X027291Y039640D01*
X027050Y039399D01*
X027050Y041752D01*
X027134Y041717D01*
X027466Y041717D01*
X027772Y041844D01*
X028006Y042078D01*
X028133Y042384D01*
X028133Y042716D01*
X028006Y043022D01*
X027772Y043256D01*
X027466Y043383D01*
X027134Y043383D01*
X027050Y043348D01*
X027050Y048320D01*
X033050Y048320D01*
X033050Y025300D01*
X031649Y025300D01*
X031732Y025384D02*
X033050Y025384D01*
X033050Y025542D02*
X031891Y025542D01*
X032049Y025701D02*
X033050Y025701D01*
X033050Y025859D02*
X032208Y025859D01*
X032366Y026018D02*
X033050Y026018D01*
X033050Y026176D02*
X032525Y026176D01*
X032683Y026335D02*
X033050Y026335D01*
X033050Y026493D02*
X032822Y026493D01*
X032888Y026652D02*
X033050Y026652D01*
X033050Y026810D02*
X032900Y026810D01*
X032900Y026969D02*
X033050Y026969D01*
X033050Y027127D02*
X032900Y027127D01*
X032900Y027286D02*
X033050Y027286D01*
X033050Y027444D02*
X032900Y027444D01*
X032900Y027603D02*
X033050Y027603D01*
X033050Y027761D02*
X032900Y027761D01*
X032900Y027920D02*
X033050Y027920D01*
X033050Y028078D02*
X032900Y028078D01*
X032900Y028237D02*
X033050Y028237D01*
X033050Y028395D02*
X032900Y028395D01*
X032900Y028554D02*
X033050Y028554D01*
X033050Y028712D02*
X032900Y028712D01*
X032900Y028871D02*
X033050Y028871D01*
X033050Y029029D02*
X032900Y029029D01*
X032900Y029188D02*
X033050Y029188D01*
X033050Y029346D02*
X032900Y029346D01*
X032900Y029505D02*
X033050Y029505D01*
X033050Y029663D02*
X032900Y029663D01*
X032900Y029822D02*
X033050Y029822D01*
X033050Y029980D02*
X032900Y029980D01*
X032900Y030139D02*
X033050Y030139D01*
X033050Y030297D02*
X032900Y030297D01*
X032900Y030456D02*
X033050Y030456D01*
X033050Y030614D02*
X032900Y030614D01*
X032900Y030773D02*
X033050Y030773D01*
X033050Y030931D02*
X032900Y030931D01*
X032900Y031090D02*
X033050Y031090D01*
X033050Y031248D02*
X032900Y031248D01*
X032900Y031407D02*
X033050Y031407D01*
X033050Y031565D02*
X032900Y031565D01*
X032900Y031724D02*
X033050Y031724D01*
X033050Y031882D02*
X032900Y031882D01*
X032900Y032041D02*
X033050Y032041D01*
X033050Y032199D02*
X032900Y032199D01*
X032900Y032358D02*
X033050Y032358D01*
X033050Y032516D02*
X032900Y032516D01*
X032900Y032675D02*
X033050Y032675D01*
X033050Y032833D02*
X032900Y032833D01*
X032900Y032992D02*
X033050Y032992D01*
X033050Y033150D02*
X032900Y033150D01*
X032900Y033309D02*
X033050Y033309D01*
X033050Y033467D02*
X032900Y033467D01*
X032900Y033626D02*
X033050Y033626D01*
X033050Y033784D02*
X032900Y033784D01*
X032900Y033943D02*
X033050Y033943D01*
X033050Y034101D02*
X032900Y034101D01*
X032900Y034260D02*
X033050Y034260D01*
X033050Y034418D02*
X032900Y034418D01*
X032900Y034577D02*
X033050Y034577D01*
X033050Y034735D02*
X032900Y034735D01*
X032900Y034894D02*
X033050Y034894D01*
X033050Y035052D02*
X032900Y035052D01*
X032900Y035211D02*
X033050Y035211D01*
X033050Y035369D02*
X032900Y035369D01*
X032900Y035528D02*
X033050Y035528D01*
X033050Y035686D02*
X032900Y035686D01*
X032900Y035845D02*
X033050Y035845D01*
X033050Y036003D02*
X032900Y036003D01*
X032900Y036162D02*
X033050Y036162D01*
X033050Y036320D02*
X032900Y036320D01*
X032900Y036479D02*
X033050Y036479D01*
X033050Y036637D02*
X032900Y036637D01*
X032900Y036796D02*
X033050Y036796D01*
X033050Y036954D02*
X032900Y036954D01*
X032900Y037113D02*
X033050Y037113D01*
X033050Y037271D02*
X032900Y037271D01*
X032900Y037430D02*
X033050Y037430D01*
X033050Y037588D02*
X032900Y037588D01*
X032900Y037747D02*
X033050Y037747D01*
X033050Y037905D02*
X032900Y037905D01*
X032900Y038064D02*
X033050Y038064D01*
X033050Y038222D02*
X032900Y038222D01*
X032900Y038381D02*
X033050Y038381D01*
X033050Y038539D02*
X032900Y038539D01*
X032900Y038698D02*
X033050Y038698D01*
X033050Y038856D02*
X032900Y038856D01*
X032900Y039015D02*
X033050Y039015D01*
X033050Y039173D02*
X032900Y039173D01*
X032900Y039332D02*
X033050Y039332D01*
X033050Y039490D02*
X032900Y039490D01*
X032900Y039649D02*
X033050Y039649D01*
X033050Y039807D02*
X032900Y039807D01*
X032900Y039966D02*
X033050Y039966D01*
X033050Y040124D02*
X032900Y040124D01*
X032900Y040283D02*
X033050Y040283D01*
X033050Y040441D02*
X032900Y040441D01*
X032900Y040600D02*
X033050Y040600D01*
X033050Y040758D02*
X032900Y040758D01*
X032900Y040917D02*
X033050Y040917D01*
X033050Y041075D02*
X032900Y041075D01*
X032900Y041234D02*
X033050Y041234D01*
X033050Y041392D02*
X032900Y041392D01*
X032900Y041551D02*
X033050Y041551D01*
X033050Y041709D02*
X032900Y041709D01*
X032900Y041868D02*
X033050Y041868D01*
X033050Y042026D02*
X032900Y042026D01*
X032900Y042185D02*
X033050Y042185D01*
X033050Y042343D02*
X032900Y042343D01*
X032900Y042502D02*
X033050Y042502D01*
X033050Y042660D02*
X032900Y042660D01*
X032900Y042819D02*
X033050Y042819D01*
X033050Y042977D02*
X032900Y042977D01*
X032900Y043136D02*
X033050Y043136D01*
X033050Y043294D02*
X032900Y043294D01*
X032900Y043453D02*
X033050Y043453D01*
X033050Y043611D02*
X032900Y043611D01*
X032900Y043770D02*
X033050Y043770D01*
X033050Y043928D02*
X032900Y043928D01*
X032900Y044087D02*
X033050Y044087D01*
X033050Y044245D02*
X032900Y044245D01*
X032900Y044404D02*
X033050Y044404D01*
X033050Y044562D02*
X032900Y044562D01*
X032900Y044721D02*
X033050Y044721D01*
X033050Y044879D02*
X032900Y044879D01*
X032900Y045038D02*
X033050Y045038D01*
X033050Y045196D02*
X032900Y045196D01*
X032900Y045355D02*
X033050Y045355D01*
X033050Y045513D02*
X032861Y045513D01*
X032777Y045672D02*
X033050Y045672D01*
X033050Y045830D02*
X032618Y045830D01*
X032460Y045989D02*
X033050Y045989D01*
X033050Y046147D02*
X032301Y046147D01*
X032143Y046306D02*
X033050Y046306D01*
X033050Y046464D02*
X031669Y046464D01*
X031830Y046623D02*
X033050Y046623D01*
X033050Y046781D02*
X031929Y046781D01*
X031985Y046940D02*
X033050Y046940D01*
X033050Y047098D02*
X031230Y047098D01*
X031230Y047230D02*
X032008Y047230D01*
X031996Y047319D01*
X031967Y047428D01*
X031924Y047532D01*
X031867Y047629D01*
X031799Y047719D01*
X031719Y047799D01*
X031629Y047867D01*
X031532Y047924D01*
X031428Y047967D01*
X031319Y047996D01*
X031230Y048008D01*
X031230Y047230D01*
X031230Y047257D02*
X031070Y047257D01*
X031070Y047230D02*
X031070Y048008D01*
X030982Y047996D01*
X030873Y047967D01*
X030769Y047924D01*
X030671Y047867D01*
X030582Y047799D01*
X030502Y047719D01*
X030434Y047629D01*
X030377Y047532D01*
X030334Y047428D01*
X030305Y047319D01*
X030293Y047230D01*
X031070Y047230D01*
X031070Y047098D02*
X028530Y047098D01*
X028530Y047070D02*
X028530Y047230D01*
X029307Y047230D01*
X029295Y047319D01*
X029266Y047428D01*
X029223Y047532D01*
X029166Y047629D01*
X029098Y047719D01*
X029018Y047799D01*
X028929Y047867D01*
X028831Y047924D01*
X028727Y047967D01*
X028618Y047996D01*
X028530Y048008D01*
X028530Y047230D01*
X028370Y047230D01*
X028370Y047070D01*
X028530Y047070D01*
X029307Y047070D01*
X029295Y046982D01*
X029266Y046873D01*
X029223Y046769D01*
X029166Y046671D01*
X029098Y046582D01*
X029018Y046502D01*
X028929Y046434D01*
X028831Y046377D01*
X028727Y046334D01*
X028618Y046305D01*
X028530Y046293D01*
X028530Y047070D01*
X028530Y046940D02*
X028370Y046940D01*
X028370Y047070D02*
X028370Y046293D01*
X028281Y046305D01*
X028172Y046334D01*
X028068Y046377D01*
X027971Y046434D01*
X027881Y046502D01*
X027801Y046582D01*
X027733Y046671D01*
X027676Y046769D01*
X027633Y046873D01*
X027604Y046982D01*
X027592Y047070D01*
X028370Y047070D01*
X028370Y047098D02*
X027050Y047098D01*
X027050Y046940D02*
X027615Y046940D01*
X027671Y046781D02*
X027050Y046781D01*
X027050Y046623D02*
X027770Y046623D01*
X027931Y046464D02*
X027050Y046464D01*
X027050Y046306D02*
X028279Y046306D01*
X028370Y046306D02*
X028530Y046306D01*
X028621Y046306D02*
X029197Y046306D01*
X029095Y046147D02*
X027050Y046147D01*
X027050Y045989D02*
X029030Y045989D01*
X029016Y045830D02*
X027050Y045830D01*
X027050Y045672D02*
X029016Y045672D01*
X029070Y045513D02*
X027050Y045513D01*
X027050Y045355D02*
X029137Y045355D01*
X029295Y045196D02*
X028877Y045196D01*
X028831Y045223D02*
X028727Y045266D01*
X028618Y045295D01*
X028530Y045307D01*
X028530Y044530D01*
X029307Y044530D01*
X029295Y044618D01*
X029266Y044727D01*
X029223Y044831D01*
X029166Y044929D01*
X029098Y045018D01*
X029018Y045098D01*
X028929Y045166D01*
X028831Y045223D01*
X028530Y045196D02*
X028370Y045196D01*
X028370Y045307D02*
X028281Y045295D01*
X028172Y045266D01*
X028068Y045223D01*
X027971Y045166D01*
X027881Y045098D01*
X027801Y045018D01*
X027733Y044929D01*
X027676Y044831D01*
X027633Y044727D01*
X027604Y044618D01*
X027592Y044530D01*
X028370Y044530D01*
X028370Y045307D01*
X028370Y045038D02*
X028530Y045038D01*
X028530Y044879D02*
X028370Y044879D01*
X028370Y044721D02*
X028530Y044721D01*
X028530Y044562D02*
X028370Y044562D01*
X028370Y044530D02*
X028530Y044530D01*
X028530Y044370D01*
X029307Y044370D01*
X029295Y044281D01*
X029266Y044172D01*
X029223Y044068D01*
X029166Y043971D01*
X029098Y043881D01*
X029018Y043801D01*
X028929Y043733D01*
X028831Y043676D01*
X028727Y043633D01*
X028618Y043604D01*
X028530Y043592D01*
X028530Y044370D01*
X028370Y044370D01*
X028370Y043592D01*
X028281Y043604D01*
X028172Y043633D01*
X028068Y043676D01*
X027971Y043733D01*
X027881Y043801D01*
X027801Y043881D01*
X027733Y043971D01*
X027676Y044068D01*
X027633Y044172D01*
X027604Y044281D01*
X027592Y044370D01*
X028370Y044370D01*
X028370Y044530D01*
X028370Y044404D02*
X027050Y044404D01*
X027050Y044562D02*
X027597Y044562D01*
X027632Y044721D02*
X027050Y044721D01*
X027050Y044879D02*
X027704Y044879D01*
X027821Y045038D02*
X027050Y045038D01*
X027050Y045196D02*
X028022Y045196D01*
X028530Y044404D02*
X031070Y044404D01*
X031070Y044245D02*
X031230Y044245D01*
X031230Y044087D02*
X031070Y044087D01*
X031070Y043928D02*
X031230Y043928D01*
X031230Y043770D02*
X031070Y043770D01*
X031070Y043611D02*
X031230Y043611D01*
X031345Y043611D02*
X031700Y043611D01*
X031700Y043453D02*
X027050Y043453D01*
X027050Y043611D02*
X028255Y043611D01*
X028370Y043611D02*
X028530Y043611D01*
X028644Y043611D02*
X030956Y043611D01*
X030623Y043770D02*
X028977Y043770D01*
X029134Y043928D02*
X030466Y043928D01*
X030370Y044087D02*
X029230Y044087D01*
X029285Y044245D02*
X030315Y044245D01*
X030297Y044562D02*
X029303Y044562D01*
X029268Y044721D02*
X030332Y044721D01*
X030405Y044879D02*
X029195Y044879D01*
X029078Y045038D02*
X029592Y045038D01*
X030008Y045038D02*
X030522Y045038D01*
X030723Y045196D02*
X030305Y045196D01*
X030244Y046464D02*
X030632Y046464D01*
X030471Y046623D02*
X029129Y046623D01*
X029228Y046781D02*
X030372Y046781D01*
X030316Y046940D02*
X029284Y046940D01*
X029303Y047257D02*
X030297Y047257D01*
X030331Y047415D02*
X029269Y047415D01*
X029199Y047574D02*
X030401Y047574D01*
X030515Y047732D02*
X029085Y047732D01*
X028888Y047891D02*
X030712Y047891D01*
X031070Y047891D02*
X031230Y047891D01*
X031230Y047732D02*
X031070Y047732D01*
X031070Y047574D02*
X031230Y047574D01*
X031230Y047415D02*
X031070Y047415D01*
X031589Y047891D02*
X033050Y047891D01*
X033050Y048049D02*
X027050Y048049D01*
X027050Y047891D02*
X028011Y047891D01*
X027971Y047867D02*
X027881Y047799D01*
X027801Y047719D01*
X027733Y047629D01*
X027676Y047532D01*
X027633Y047428D01*
X027604Y047319D01*
X027592Y047230D01*
X028370Y047230D01*
X028370Y048008D01*
X028281Y047996D01*
X028172Y047967D01*
X028068Y047924D01*
X027971Y047867D01*
X027815Y047732D02*
X027050Y047732D01*
X027050Y047574D02*
X027701Y047574D01*
X027630Y047415D02*
X027050Y047415D01*
X027050Y047257D02*
X027596Y047257D01*
X028370Y047257D02*
X028530Y047257D01*
X028530Y047415D02*
X028370Y047415D01*
X028370Y047574D02*
X028530Y047574D01*
X028530Y047732D02*
X028370Y047732D01*
X028370Y047891D02*
X028530Y047891D01*
X028530Y046781D02*
X028370Y046781D01*
X028370Y046623D02*
X028530Y046623D01*
X028530Y046464D02*
X028370Y046464D01*
X028968Y046464D02*
X029356Y046464D01*
X028530Y044245D02*
X028370Y044245D01*
X028370Y044087D02*
X028530Y044087D01*
X028530Y043928D02*
X028370Y043928D01*
X028370Y043770D02*
X028530Y043770D01*
X027923Y043770D02*
X027050Y043770D01*
X027050Y043928D02*
X027765Y043928D01*
X027669Y044087D02*
X027050Y044087D01*
X027050Y044245D02*
X027614Y044245D01*
X027681Y043294D02*
X031700Y043294D01*
X031700Y043136D02*
X027893Y043136D01*
X028025Y042977D02*
X031700Y042977D01*
X031700Y042819D02*
X028090Y042819D01*
X028133Y042660D02*
X031700Y042660D01*
X031700Y042502D02*
X028133Y042502D01*
X028116Y042343D02*
X031700Y042343D01*
X031700Y042185D02*
X028050Y042185D01*
X027954Y042026D02*
X031700Y042026D01*
X031700Y041868D02*
X027796Y041868D01*
X028068Y041424D02*
X027971Y041367D01*
X027881Y041299D01*
X027801Y041219D01*
X027733Y041129D01*
X027676Y041032D01*
X027633Y040928D01*
X027604Y040819D01*
X027592Y040730D01*
X028370Y040730D01*
X028370Y041508D01*
X028281Y041496D01*
X028172Y041467D01*
X028068Y041424D01*
X028014Y041392D02*
X027050Y041392D01*
X027050Y041234D02*
X027816Y041234D01*
X027701Y041075D02*
X027050Y041075D01*
X027050Y040917D02*
X027630Y040917D01*
X027596Y040758D02*
X027050Y040758D01*
X027050Y040600D02*
X028370Y040600D01*
X028370Y040758D02*
X028530Y040758D01*
X028530Y040600D02*
X031070Y040600D01*
X031070Y040570D02*
X030293Y040570D01*
X030305Y040482D01*
X030334Y040373D01*
X030377Y040269D01*
X030434Y040171D01*
X030502Y040082D01*
X030582Y040002D01*
X030671Y039934D01*
X030769Y039877D01*
X030873Y039834D01*
X030982Y039805D01*
X031070Y039793D01*
X031070Y040570D01*
X031070Y040441D02*
X031230Y040441D01*
X031230Y040283D02*
X031070Y040283D01*
X031070Y040124D02*
X031230Y040124D01*
X031230Y039966D02*
X031070Y039966D01*
X031070Y039807D02*
X031230Y039807D01*
X031327Y039807D02*
X031700Y039807D01*
X031700Y039649D02*
X030504Y039649D01*
X030570Y039490D02*
X031700Y039490D01*
X031700Y039332D02*
X030584Y039332D01*
X030584Y039173D02*
X031700Y039173D01*
X031230Y038698D02*
X031070Y038698D01*
X031070Y038539D02*
X031230Y038539D01*
X031230Y038381D02*
X031070Y038381D01*
X031070Y038222D02*
X031230Y038222D01*
X031230Y038064D02*
X031070Y038064D01*
X031070Y037905D02*
X028530Y037905D01*
X028530Y037870D02*
X029307Y037870D01*
X029295Y037781D01*
X029266Y037672D01*
X029223Y037568D01*
X029166Y037471D01*
X029098Y037381D01*
X029018Y037301D01*
X028929Y037233D01*
X028831Y037176D01*
X028727Y037133D01*
X028618Y037104D01*
X028530Y037092D01*
X028530Y037870D01*
X028530Y037747D02*
X028370Y037747D01*
X028370Y037588D02*
X028530Y037588D01*
X028530Y037430D02*
X028370Y037430D01*
X028370Y037271D02*
X028530Y037271D01*
X028530Y037113D02*
X028370Y037113D01*
X028250Y037113D02*
X027900Y037113D01*
X027900Y037271D02*
X027921Y037271D01*
X027900Y036954D02*
X031700Y036954D01*
X031700Y036796D02*
X027900Y036796D01*
X027900Y036637D02*
X031700Y036637D01*
X031700Y036479D02*
X027900Y036479D01*
X027900Y036320D02*
X031700Y036320D01*
X031700Y036162D02*
X027900Y036162D01*
X027900Y036003D02*
X031700Y036003D01*
X031700Y035845D02*
X027900Y035845D01*
X027900Y035686D02*
X031700Y035686D01*
X031700Y035528D02*
X027900Y035528D01*
X027900Y035369D02*
X031700Y035369D01*
X031700Y035211D02*
X027900Y035211D01*
X027900Y035052D02*
X031700Y035052D01*
X031700Y034894D02*
X031584Y034894D01*
X031230Y034894D02*
X031070Y034894D01*
X031070Y035008D02*
X030982Y034996D01*
X030873Y034967D01*
X030769Y034924D01*
X030671Y034867D01*
X030582Y034799D01*
X030502Y034719D01*
X030434Y034629D01*
X030377Y034532D01*
X030334Y034428D01*
X030305Y034319D01*
X030293Y034230D01*
X031070Y034230D01*
X031070Y035008D01*
X031070Y034735D02*
X031230Y034735D01*
X031230Y034577D02*
X031070Y034577D01*
X031070Y034418D02*
X031230Y034418D01*
X031230Y034260D02*
X031070Y034260D01*
X031070Y034101D02*
X028530Y034101D01*
X028530Y034070D02*
X029307Y034070D01*
X029295Y033982D01*
X029266Y033873D01*
X029223Y033769D01*
X029166Y033671D01*
X029098Y033582D01*
X029018Y033502D01*
X028929Y033434D01*
X028831Y033377D01*
X028727Y033334D01*
X028618Y033305D01*
X028530Y033293D01*
X028530Y034070D01*
X028530Y033943D02*
X028370Y033943D01*
X028370Y033784D02*
X028530Y033784D01*
X028530Y033626D02*
X028370Y033626D01*
X028370Y033467D02*
X028530Y033467D01*
X028530Y033309D02*
X028370Y033309D01*
X028268Y033309D02*
X027900Y033309D01*
X027900Y033467D02*
X027927Y033467D01*
X027900Y033150D02*
X029097Y033150D01*
X029031Y032992D02*
X027900Y032992D01*
X027900Y032833D02*
X029016Y032833D01*
X029016Y032675D02*
X027900Y032675D01*
X027900Y032516D02*
X029069Y032516D01*
X029135Y032358D02*
X027900Y032358D01*
X027900Y032199D02*
X028027Y032199D01*
X028370Y032199D02*
X028530Y032199D01*
X028530Y032041D02*
X028370Y032041D01*
X028370Y031882D02*
X028530Y031882D01*
X028530Y031724D02*
X028370Y031724D01*
X028370Y031565D02*
X028530Y031565D01*
X028530Y031370D02*
X028530Y030592D01*
X028618Y030604D01*
X028727Y030633D01*
X028831Y030676D01*
X028929Y030733D01*
X029018Y030801D01*
X029098Y030881D01*
X029166Y030971D01*
X029200Y031029D01*
X029200Y030181D01*
X029291Y029960D01*
X029460Y029791D01*
X030200Y029051D01*
X030200Y028749D01*
X029309Y029640D01*
X029140Y029809D01*
X028919Y029900D01*
X028049Y029900D01*
X027900Y030049D01*
X027900Y030787D01*
X027971Y030733D01*
X028068Y030676D01*
X028172Y030633D01*
X028281Y030604D01*
X028370Y030592D01*
X028370Y031370D01*
X028530Y031370D01*
X028530Y031248D02*
X028370Y031248D01*
X028370Y031090D02*
X028530Y031090D01*
X028530Y030931D02*
X028370Y030931D01*
X028370Y030773D02*
X028530Y030773D01*
X028530Y030614D02*
X028370Y030614D01*
X028244Y030614D02*
X027900Y030614D01*
X027900Y030456D02*
X029200Y030456D01*
X029200Y030614D02*
X028655Y030614D01*
X028980Y030773D02*
X029200Y030773D01*
X029200Y030931D02*
X029136Y030931D01*
X029193Y031882D02*
X029200Y031882D01*
X029200Y032041D02*
X029075Y032041D01*
X029200Y032199D02*
X028872Y032199D01*
X028632Y033309D02*
X029200Y033309D01*
X029362Y033467D02*
X028972Y033467D01*
X029131Y033626D02*
X030469Y033626D01*
X030502Y033582D02*
X030582Y033502D01*
X030671Y033434D01*
X030769Y033377D01*
X030873Y033334D01*
X030982Y033305D01*
X031070Y033293D01*
X031070Y034070D01*
X030293Y034070D01*
X030305Y033982D01*
X030334Y033873D01*
X030377Y033769D01*
X030434Y033671D01*
X030502Y033582D01*
X030628Y033467D02*
X030238Y033467D01*
X030400Y033309D02*
X030968Y033309D01*
X031070Y033309D02*
X031230Y033309D01*
X031332Y033309D02*
X031700Y033309D01*
X031700Y033467D02*
X031673Y033467D01*
X031700Y033150D02*
X030503Y033150D01*
X030569Y032992D02*
X031700Y032992D01*
X031700Y032833D02*
X030584Y032833D01*
X030584Y032675D02*
X031700Y032675D01*
X031700Y032516D02*
X030531Y032516D01*
X030465Y032358D02*
X031700Y032358D01*
X031700Y032199D02*
X031573Y032199D01*
X031230Y032199D02*
X031070Y032199D01*
X031070Y032041D02*
X031230Y032041D01*
X031230Y031882D02*
X031070Y031882D01*
X031070Y031724D02*
X031230Y031724D01*
X031230Y031565D02*
X031070Y031565D01*
X031070Y031370D02*
X031230Y031370D01*
X031230Y030592D01*
X031319Y030604D01*
X031428Y030633D01*
X031532Y030676D01*
X031629Y030733D01*
X031700Y030787D01*
X031700Y028067D01*
X031652Y028184D01*
X031461Y028374D01*
X031400Y028400D01*
X031400Y029419D01*
X031309Y029640D01*
X031140Y029809D01*
X030400Y030549D01*
X030400Y031029D01*
X030434Y030971D01*
X030502Y030881D01*
X030582Y030801D01*
X030671Y030733D01*
X030769Y030676D01*
X030873Y030633D01*
X030982Y030604D01*
X031070Y030592D01*
X031070Y031370D01*
X031070Y031248D02*
X031230Y031248D01*
X031230Y031090D02*
X031070Y031090D01*
X031070Y030931D02*
X031230Y030931D01*
X031230Y030773D02*
X031070Y030773D01*
X031070Y030614D02*
X031230Y030614D01*
X031356Y030614D02*
X031700Y030614D01*
X031700Y030456D02*
X030493Y030456D01*
X030400Y030614D02*
X030945Y030614D01*
X030620Y030773D02*
X030400Y030773D01*
X030400Y030931D02*
X030464Y030931D01*
X030407Y031882D02*
X030400Y031882D01*
X030400Y032041D02*
X030525Y032041D01*
X030400Y032199D02*
X030728Y032199D01*
X031070Y033467D02*
X031230Y033467D01*
X031230Y033626D02*
X031070Y033626D01*
X031070Y033784D02*
X031230Y033784D01*
X031230Y033943D02*
X031070Y033943D01*
X030518Y034735D02*
X029082Y034735D01*
X029197Y034577D02*
X030403Y034577D01*
X030331Y034418D02*
X029269Y034418D01*
X029303Y034260D02*
X030297Y034260D01*
X030315Y033943D02*
X029285Y033943D01*
X029229Y033784D02*
X030371Y033784D01*
X030717Y034894D02*
X028883Y034894D01*
X028530Y034894D02*
X028370Y034894D01*
X028370Y034735D02*
X028530Y034735D01*
X028530Y034577D02*
X028370Y034577D01*
X028370Y034418D02*
X028530Y034418D01*
X028530Y034260D02*
X028370Y034260D01*
X028016Y034894D02*
X027900Y034894D01*
X026550Y034894D02*
X026400Y034894D01*
X026400Y035052D02*
X026550Y035052D01*
X026550Y035211D02*
X026400Y035211D01*
X026400Y035369D02*
X026550Y035369D01*
X026550Y035528D02*
X026400Y035528D01*
X026400Y035686D02*
X026550Y035686D01*
X026550Y035845D02*
X026400Y035845D01*
X026400Y036003D02*
X026550Y036003D01*
X026550Y036162D02*
X026400Y036162D01*
X026400Y036320D02*
X026550Y036320D01*
X026550Y036479D02*
X026400Y036479D01*
X026400Y036637D02*
X026550Y036637D01*
X026550Y036796D02*
X026400Y036796D01*
X026400Y036954D02*
X026550Y036954D01*
X026550Y037113D02*
X026400Y037113D01*
X026400Y037271D02*
X026550Y037271D01*
X026550Y037430D02*
X026400Y037430D01*
X026400Y037588D02*
X026550Y037588D01*
X026550Y037747D02*
X026400Y037747D01*
X026400Y037905D02*
X026550Y037905D01*
X026550Y038064D02*
X026400Y038064D01*
X026400Y038222D02*
X026550Y038222D01*
X026550Y038381D02*
X026400Y038381D01*
X026400Y038539D02*
X026550Y038539D01*
X026550Y038698D02*
X026400Y038698D01*
X026400Y038856D02*
X026550Y038856D01*
X026550Y039015D02*
X026400Y039015D01*
X026400Y039173D02*
X026550Y039173D01*
X026550Y039332D02*
X026400Y039332D01*
X026400Y039490D02*
X026550Y039490D01*
X026550Y039649D02*
X026400Y039649D01*
X026400Y039807D02*
X026550Y039807D01*
X026550Y039966D02*
X026400Y039966D01*
X026400Y040124D02*
X026550Y040124D01*
X026550Y040283D02*
X026400Y040283D01*
X026400Y040441D02*
X026550Y040441D01*
X026550Y040600D02*
X026400Y040600D01*
X026400Y040758D02*
X026550Y040758D01*
X026550Y040917D02*
X026400Y040917D01*
X026400Y041075D02*
X026550Y041075D01*
X026550Y041234D02*
X026400Y041234D01*
X026400Y041392D02*
X026550Y041392D01*
X026550Y041551D02*
X026400Y041551D01*
X026400Y041709D02*
X026550Y041709D01*
X026550Y041868D02*
X026400Y041868D01*
X026400Y042026D02*
X026550Y042026D01*
X026550Y042185D02*
X026400Y042185D01*
X026400Y042343D02*
X026484Y042343D01*
X026467Y042502D02*
X026400Y042502D01*
X026400Y042660D02*
X026467Y042660D01*
X026510Y042819D02*
X026400Y042819D01*
X026400Y042977D02*
X026550Y042977D01*
X026550Y043136D02*
X026400Y043136D01*
X026400Y043294D02*
X026550Y043294D01*
X026550Y043453D02*
X026400Y043453D01*
X026400Y043611D02*
X026550Y043611D01*
X026550Y043770D02*
X026400Y043770D01*
X026400Y043928D02*
X026550Y043928D01*
X026550Y044087D02*
X026400Y044087D01*
X026400Y044245D02*
X026550Y044245D01*
X026550Y044404D02*
X026400Y044404D01*
X026400Y044562D02*
X026550Y044562D01*
X026550Y044721D02*
X026400Y044721D01*
X026400Y044879D02*
X026550Y044879D01*
X026550Y045038D02*
X026400Y045038D01*
X026400Y045196D02*
X026550Y045196D01*
X026550Y045355D02*
X026400Y045355D01*
X026361Y045513D02*
X026550Y045513D01*
X026550Y045672D02*
X026277Y045672D01*
X026118Y045830D02*
X026550Y045830D01*
X026550Y045989D02*
X025960Y045989D01*
X025801Y046147D02*
X026550Y046147D01*
X026550Y046306D02*
X025643Y046306D01*
X025330Y046623D02*
X026550Y046623D01*
X026550Y046781D02*
X025429Y046781D01*
X025485Y046940D02*
X026550Y046940D01*
X026550Y047098D02*
X024730Y047098D01*
X024730Y047257D02*
X024570Y047257D01*
X024570Y047415D02*
X024730Y047415D01*
X024730Y047574D02*
X024570Y047574D01*
X024570Y047732D02*
X024730Y047732D01*
X024730Y047891D02*
X024570Y047891D01*
X024212Y047891D02*
X022388Y047891D01*
X022429Y047867D02*
X022331Y047924D01*
X022227Y047967D01*
X022118Y047996D01*
X022030Y048008D01*
X022030Y047230D01*
X022807Y047230D01*
X022795Y047319D01*
X022766Y047428D01*
X022723Y047532D01*
X022666Y047629D01*
X022598Y047719D01*
X022518Y047799D01*
X022429Y047867D01*
X022585Y047732D02*
X024015Y047732D01*
X023901Y047574D02*
X022699Y047574D01*
X022769Y047415D02*
X023831Y047415D01*
X023797Y047257D02*
X022803Y047257D01*
X022807Y047070D02*
X022030Y047070D01*
X022030Y047230D01*
X021870Y047230D01*
X021870Y047070D01*
X022030Y047070D01*
X022030Y046293D01*
X022118Y046305D01*
X022227Y046334D01*
X022331Y046377D01*
X022429Y046434D01*
X022518Y046502D01*
X022598Y046582D01*
X022666Y046671D01*
X022723Y046769D01*
X022766Y046873D01*
X022795Y046982D01*
X022807Y047070D01*
X022784Y046940D02*
X023816Y046940D01*
X023872Y046781D02*
X022728Y046781D01*
X022629Y046623D02*
X023971Y046623D01*
X024132Y046464D02*
X023744Y046464D01*
X022856Y046464D02*
X022468Y046464D01*
X022697Y046306D02*
X022121Y046306D01*
X022030Y046306D02*
X021870Y046306D01*
X021870Y046293D02*
X021870Y047070D01*
X021092Y047070D01*
X021104Y046982D01*
X021133Y046873D01*
X021176Y046769D01*
X021233Y046671D01*
X021301Y046582D01*
X021381Y046502D01*
X021471Y046434D01*
X021568Y046377D01*
X021672Y046334D01*
X021781Y046305D01*
X021870Y046293D01*
X021779Y046306D02*
X020550Y046306D01*
X020550Y046464D02*
X021431Y046464D01*
X021270Y046623D02*
X020550Y046623D01*
X020550Y046781D02*
X021171Y046781D01*
X021115Y046940D02*
X020550Y046940D01*
X020550Y047098D02*
X021870Y047098D01*
X021870Y047230D02*
X021092Y047230D01*
X021104Y047319D01*
X021133Y047428D01*
X021176Y047532D01*
X021233Y047629D01*
X021301Y047719D01*
X021381Y047799D01*
X021471Y047867D01*
X021568Y047924D01*
X021672Y047967D01*
X021781Y047996D01*
X021870Y048008D01*
X021870Y047230D01*
X021870Y047257D02*
X022030Y047257D01*
X022030Y047415D02*
X021870Y047415D01*
X021870Y047574D02*
X022030Y047574D01*
X022030Y047732D02*
X021870Y047732D01*
X021870Y047891D02*
X022030Y047891D01*
X021511Y047891D02*
X020550Y047891D01*
X020550Y048049D02*
X026550Y048049D01*
X026550Y047891D02*
X025089Y047891D01*
X025285Y047732D02*
X026550Y047732D01*
X026550Y047574D02*
X025399Y047574D01*
X025470Y047415D02*
X026550Y047415D01*
X026550Y047257D02*
X025504Y047257D01*
X025169Y046464D02*
X026550Y046464D01*
X026550Y048208D02*
X020550Y048208D01*
X020550Y047732D02*
X021315Y047732D01*
X021201Y047574D02*
X020550Y047574D01*
X020550Y047415D02*
X021130Y047415D01*
X021096Y047257D02*
X020550Y047257D01*
X020050Y047257D02*
X019004Y047257D01*
X018970Y047415D02*
X020050Y047415D01*
X020050Y047574D02*
X018899Y047574D01*
X018785Y047732D02*
X020050Y047732D01*
X020050Y047891D02*
X018589Y047891D01*
X018230Y047891D02*
X018070Y047891D01*
X018070Y047732D02*
X018230Y047732D01*
X018230Y047574D02*
X018070Y047574D01*
X018070Y047415D02*
X018230Y047415D01*
X017632Y046464D02*
X017244Y046464D01*
X017305Y045196D02*
X017723Y045196D01*
X017522Y045038D02*
X017008Y045038D01*
X016592Y045038D02*
X016078Y045038D01*
X016195Y044879D02*
X017405Y044879D01*
X017332Y044721D02*
X016268Y044721D01*
X016303Y044562D02*
X017297Y044562D01*
X017315Y044245D02*
X016285Y044245D01*
X016230Y044087D02*
X017370Y044087D01*
X017466Y043928D02*
X016134Y043928D01*
X015977Y043770D02*
X017623Y043770D01*
X016295Y045196D02*
X015877Y045196D01*
X015530Y046464D02*
X015370Y046464D01*
X015370Y046623D02*
X015530Y046623D01*
X015530Y046781D02*
X015370Y046781D01*
X015370Y046940D02*
X015530Y046940D01*
X014050Y048049D02*
X020050Y048049D01*
X020050Y048208D02*
X014050Y048208D01*
X013550Y048208D02*
X007550Y048208D01*
X007050Y048208D02*
X001050Y048208D01*
X001050Y048049D02*
X007050Y048049D01*
X007050Y047891D02*
X005589Y047891D01*
X005785Y047732D02*
X007050Y047732D01*
X007050Y047574D02*
X005899Y047574D01*
X005970Y047415D02*
X007050Y047415D01*
X007050Y047257D02*
X006004Y047257D01*
X005230Y047415D02*
X005070Y047415D01*
X005070Y047574D02*
X005230Y047574D01*
X005230Y047732D02*
X005070Y047732D01*
X005070Y047891D02*
X005230Y047891D01*
X004632Y046464D02*
X004244Y046464D01*
X004305Y045196D02*
X004723Y045196D01*
X004522Y045038D02*
X004008Y045038D01*
X003592Y045038D02*
X003078Y045038D01*
X003195Y044879D02*
X004405Y044879D01*
X004332Y044721D02*
X003268Y044721D01*
X003303Y044562D02*
X004297Y044562D01*
X004315Y044245D02*
X003285Y044245D01*
X003230Y044087D02*
X004370Y044087D01*
X004466Y043928D02*
X003134Y043928D01*
X002977Y043770D02*
X004623Y043770D01*
X003295Y045196D02*
X002877Y045196D01*
X002530Y046464D02*
X002370Y046464D01*
X002370Y046623D02*
X002530Y046623D01*
X002530Y046781D02*
X002370Y046781D01*
X002370Y046940D02*
X002530Y046940D01*
X007550Y040441D02*
X008115Y040441D01*
X008171Y040283D02*
X007550Y040283D01*
X007550Y040124D02*
X008269Y040124D01*
X008429Y039966D02*
X007550Y039966D01*
X007550Y039807D02*
X007959Y039807D01*
X007800Y039649D02*
X007550Y039649D01*
X007550Y039490D02*
X007642Y039490D01*
X008870Y040917D02*
X009030Y040917D01*
X009030Y041075D02*
X008870Y041075D01*
X008870Y041234D02*
X009030Y041234D01*
X009030Y041392D02*
X008870Y041392D01*
X009470Y039966D02*
X009858Y039966D01*
X012177Y043770D02*
X012200Y043770D01*
X014050Y041392D02*
X015014Y041392D01*
X014816Y041234D02*
X014050Y041234D01*
X014050Y041075D02*
X014701Y041075D01*
X014630Y040917D02*
X014050Y040917D01*
X014050Y040758D02*
X014596Y040758D01*
X015370Y040917D02*
X015530Y040917D01*
X015530Y041075D02*
X015370Y041075D01*
X015370Y041234D02*
X015530Y041234D01*
X015530Y041392D02*
X015370Y041392D01*
X015970Y039966D02*
X016358Y039966D01*
X016294Y038698D02*
X015875Y038698D01*
X014459Y039807D02*
X014050Y039807D01*
X014050Y039649D02*
X014300Y039649D01*
X014142Y039490D02*
X014050Y039490D01*
X011228Y032199D02*
X010900Y032199D01*
X010900Y032041D02*
X011025Y032041D01*
X010907Y031882D02*
X010900Y031882D01*
X012181Y030773D02*
X012200Y030773D01*
X010700Y029505D02*
X009944Y029505D01*
X009786Y029663D02*
X010588Y029663D01*
X010430Y029822D02*
X009609Y029822D01*
X010103Y029346D02*
X010700Y029346D01*
X010700Y029188D02*
X010261Y029188D01*
X010420Y029029D02*
X010700Y029029D01*
X010700Y028871D02*
X010578Y028871D01*
X009030Y030773D02*
X008870Y030773D01*
X008870Y030931D02*
X009030Y030931D01*
X009030Y031090D02*
X008870Y031090D01*
X008870Y031248D02*
X009030Y031248D01*
X009030Y031565D02*
X008870Y031565D01*
X008870Y031724D02*
X009030Y031724D01*
X009030Y031882D02*
X008870Y031882D01*
X008870Y032041D02*
X009030Y032041D01*
X009030Y032199D02*
X008870Y032199D01*
X008527Y032199D02*
X008400Y032199D01*
X008400Y030773D02*
X008419Y030773D01*
X005700Y030773D02*
X005681Y030773D01*
X004407Y031882D02*
X004400Y031882D01*
X004400Y032041D02*
X004525Y032041D01*
X004400Y032199D02*
X004728Y032199D01*
X005070Y033467D02*
X005230Y033467D01*
X005230Y033626D02*
X005070Y033626D01*
X005070Y033784D02*
X005230Y033784D01*
X005230Y033943D02*
X005070Y033943D01*
X004371Y033784D02*
X003229Y033784D01*
X003285Y033943D02*
X004315Y033943D01*
X004297Y034260D02*
X003303Y034260D01*
X003269Y034418D02*
X004331Y034418D01*
X004403Y034577D02*
X003197Y034577D01*
X003082Y034735D02*
X004518Y034735D01*
X004717Y034894D02*
X002883Y034894D01*
X002530Y034894D02*
X002370Y034894D01*
X002370Y034735D02*
X002530Y034735D01*
X002530Y034577D02*
X002370Y034577D01*
X002370Y034418D02*
X002530Y034418D01*
X002530Y034260D02*
X002370Y034260D01*
X002016Y034894D02*
X001900Y034894D01*
X002370Y037271D02*
X002530Y037271D01*
X002530Y037430D02*
X002370Y037430D01*
X002370Y037588D02*
X002530Y037588D01*
X002530Y037747D02*
X002370Y037747D01*
X002970Y039966D02*
X003358Y039966D01*
X001919Y030773D02*
X001900Y030773D01*
X001900Y030297D02*
X003454Y030297D01*
X003613Y030139D02*
X001900Y030139D01*
X001969Y029980D02*
X003771Y029980D01*
X003930Y029822D02*
X003109Y029822D01*
X003286Y029663D02*
X004088Y029663D01*
X004200Y029505D02*
X003444Y029505D01*
X003603Y029346D02*
X004200Y029346D01*
X004200Y029188D02*
X003761Y029188D01*
X003920Y029029D02*
X004200Y029029D01*
X004200Y028871D02*
X004078Y028871D01*
X015800Y023800D02*
X017050Y022550D01*
X032550Y022550D01*
X036300Y026300D01*
X036300Y030300D01*
X035300Y031300D01*
X034800Y031300D01*
X033800Y032800D02*
X033800Y027300D01*
X034300Y026800D01*
X031700Y028078D02*
X031696Y028078D01*
X031700Y028237D02*
X031599Y028237D01*
X031700Y028395D02*
X031411Y028395D01*
X031400Y028554D02*
X031700Y028554D01*
X031700Y028712D02*
X031400Y028712D01*
X031400Y028871D02*
X031700Y028871D01*
X031700Y029029D02*
X031400Y029029D01*
X031400Y029188D02*
X031700Y029188D01*
X031700Y029346D02*
X031400Y029346D01*
X031365Y029505D02*
X031700Y029505D01*
X031700Y029663D02*
X031286Y029663D01*
X031140Y029809D02*
X031140Y029809D01*
X031127Y029822D02*
X031700Y029822D01*
X031700Y029980D02*
X030969Y029980D01*
X030810Y030139D02*
X031700Y030139D01*
X031700Y030297D02*
X030652Y030297D01*
X029747Y029505D02*
X029444Y029505D01*
X029588Y029663D02*
X029286Y029663D01*
X029430Y029822D02*
X029109Y029822D01*
X029283Y029980D02*
X027969Y029980D01*
X027900Y030139D02*
X029217Y030139D01*
X029200Y030297D02*
X027900Y030297D01*
X027900Y030773D02*
X027919Y030773D01*
X029460Y029791D02*
X029460Y029791D01*
X029603Y029346D02*
X029905Y029346D01*
X029761Y029188D02*
X030064Y029188D01*
X030200Y029029D02*
X029920Y029029D01*
X030078Y028871D02*
X030200Y028871D01*
X031681Y030773D02*
X031700Y030773D01*
X033800Y032800D02*
X034300Y033300D01*
X034800Y033300D01*
X037800Y033300D02*
X039300Y033300D01*
X039300Y032300D02*
X037800Y032300D01*
X037800Y031300D02*
X039300Y031300D01*
X039300Y030300D02*
X037800Y030300D01*
X037800Y029300D02*
X039300Y029300D01*
X039300Y034300D02*
X037800Y034300D01*
X037800Y035300D02*
X039300Y035300D01*
X039300Y036300D02*
X037800Y036300D01*
X037800Y037300D02*
X037800Y038300D01*
X037300Y038800D01*
X036850Y038800D01*
X037850Y039800D01*
X039300Y039800D01*
X039300Y040800D01*
X039300Y041800D01*
X036800Y041300D02*
X036800Y038850D01*
X036850Y038800D01*
X031700Y039966D02*
X031671Y039966D01*
X030974Y039807D02*
X030402Y039807D01*
X030242Y039966D02*
X030630Y039966D01*
X030470Y040124D02*
X029130Y040124D01*
X029228Y040283D02*
X030372Y040283D01*
X030316Y040441D02*
X029284Y040441D01*
X029303Y040758D02*
X030297Y040758D01*
X030293Y040730D02*
X031070Y040730D01*
X031070Y041508D01*
X030982Y041496D01*
X030873Y041467D01*
X030769Y041424D01*
X030671Y041367D01*
X030582Y041299D01*
X030502Y041219D01*
X030434Y041129D01*
X030377Y041032D01*
X030334Y040928D01*
X030305Y040819D01*
X030293Y040730D01*
X030331Y040917D02*
X029269Y040917D01*
X029198Y041075D02*
X030402Y041075D01*
X030517Y041234D02*
X029083Y041234D01*
X028886Y041392D02*
X030714Y041392D01*
X031070Y041392D02*
X031230Y041392D01*
X031230Y041234D02*
X031070Y041234D01*
X031070Y041075D02*
X031230Y041075D01*
X031230Y040917D02*
X031070Y040917D01*
X031070Y040758D02*
X031230Y040758D01*
X031586Y041392D02*
X031700Y041392D01*
X031700Y041551D02*
X027050Y041551D01*
X027050Y041709D02*
X031700Y041709D01*
X031677Y043770D02*
X031700Y043770D01*
X032004Y047257D02*
X033050Y047257D01*
X033050Y047415D02*
X031970Y047415D01*
X031899Y047574D02*
X033050Y047574D01*
X033050Y047732D02*
X031785Y047732D01*
X033050Y048208D02*
X027050Y048208D01*
X024570Y047098D02*
X022030Y047098D01*
X022030Y046940D02*
X021870Y046940D01*
X021870Y046781D02*
X022030Y046781D01*
X022030Y046623D02*
X021870Y046623D01*
X021870Y046464D02*
X022030Y046464D01*
X022595Y046147D02*
X020550Y046147D01*
X020550Y045989D02*
X022530Y045989D01*
X022516Y045830D02*
X020550Y045830D01*
X020550Y045672D02*
X022516Y045672D01*
X022570Y045513D02*
X020550Y045513D01*
X020550Y045355D02*
X022637Y045355D01*
X022795Y045196D02*
X022377Y045196D01*
X022331Y045223D02*
X022227Y045266D01*
X022118Y045295D01*
X022030Y045307D01*
X022030Y044530D01*
X022807Y044530D01*
X022795Y044618D01*
X022766Y044727D01*
X022723Y044831D01*
X022666Y044929D01*
X022598Y045018D01*
X022518Y045098D01*
X022429Y045166D01*
X022331Y045223D01*
X022030Y045196D02*
X021870Y045196D01*
X021870Y045307D02*
X021781Y045295D01*
X021672Y045266D01*
X021568Y045223D01*
X021471Y045166D01*
X021381Y045098D01*
X021301Y045018D01*
X021233Y044929D01*
X021176Y044831D01*
X021133Y044727D01*
X021104Y044618D01*
X021092Y044530D01*
X021870Y044530D01*
X021870Y045307D01*
X021870Y045038D02*
X022030Y045038D01*
X022030Y044879D02*
X021870Y044879D01*
X021870Y044721D02*
X022030Y044721D01*
X022030Y044562D02*
X021870Y044562D01*
X021870Y044530D02*
X022030Y044530D01*
X022030Y044370D01*
X022807Y044370D01*
X022795Y044281D01*
X022766Y044172D01*
X022723Y044068D01*
X022666Y043971D01*
X022598Y043881D01*
X022518Y043801D01*
X022429Y043733D01*
X022331Y043676D01*
X022227Y043633D01*
X022118Y043604D01*
X022030Y043592D01*
X022030Y044370D01*
X021870Y044370D01*
X021870Y043592D01*
X021781Y043604D01*
X021672Y043633D01*
X021568Y043676D01*
X021471Y043733D01*
X021381Y043801D01*
X021301Y043881D01*
X021233Y043971D01*
X021176Y044068D01*
X021133Y044172D01*
X021104Y044281D01*
X021092Y044370D01*
X021870Y044370D01*
X021870Y044530D01*
X021870Y044404D02*
X020550Y044404D01*
X020550Y044562D02*
X021097Y044562D01*
X021132Y044721D02*
X020550Y044721D01*
X020550Y044879D02*
X021204Y044879D01*
X021321Y045038D02*
X020550Y045038D01*
X020550Y045196D02*
X021522Y045196D01*
X022030Y044404D02*
X024570Y044404D01*
X024570Y044245D02*
X024730Y044245D01*
X024730Y044087D02*
X024570Y044087D01*
X024570Y043928D02*
X024730Y043928D01*
X024730Y043770D02*
X024570Y043770D01*
X024570Y043611D02*
X024730Y043611D01*
X024845Y043611D02*
X025200Y043611D01*
X025200Y043453D02*
X020550Y043453D01*
X020550Y043611D02*
X021755Y043611D01*
X021870Y043611D02*
X022030Y043611D01*
X022144Y043611D02*
X024456Y043611D01*
X024123Y043770D02*
X022477Y043770D01*
X022634Y043928D02*
X023966Y043928D01*
X023870Y044087D02*
X022730Y044087D01*
X022785Y044245D02*
X023815Y044245D01*
X023797Y044562D02*
X022803Y044562D01*
X022768Y044721D02*
X023832Y044721D01*
X023905Y044879D02*
X022695Y044879D01*
X022578Y045038D02*
X023092Y045038D01*
X023508Y045038D02*
X024022Y045038D01*
X024223Y045196D02*
X023805Y045196D01*
X025177Y043770D02*
X025200Y043770D01*
X025200Y043294D02*
X021181Y043294D01*
X021393Y043136D02*
X025200Y043136D01*
X025200Y042977D02*
X021525Y042977D01*
X021590Y042819D02*
X025200Y042819D01*
X025200Y042660D02*
X021633Y042660D01*
X021633Y042502D02*
X025200Y042502D01*
X025200Y042343D02*
X021616Y042343D01*
X021550Y042185D02*
X025200Y042185D01*
X025200Y042026D02*
X021454Y042026D01*
X021296Y041868D02*
X025200Y041868D01*
X025200Y041709D02*
X020550Y041709D01*
X020550Y041551D02*
X025200Y041551D01*
X025200Y041392D02*
X025086Y041392D01*
X024730Y040441D02*
X024570Y040441D01*
X024570Y040283D02*
X024730Y040283D01*
X024730Y040124D02*
X024570Y040124D01*
X024570Y039966D02*
X024730Y039966D01*
X025171Y039966D02*
X025200Y039966D01*
X024225Y038698D02*
X023806Y038698D01*
X024023Y038539D02*
X023511Y038539D01*
X022858Y039966D02*
X022470Y039966D01*
X022030Y043770D02*
X021870Y043770D01*
X021870Y043928D02*
X022030Y043928D01*
X022030Y044087D02*
X021870Y044087D01*
X021870Y044245D02*
X022030Y044245D01*
X021423Y043770D02*
X020550Y043770D01*
X020550Y043928D02*
X021265Y043928D01*
X021169Y044087D02*
X020550Y044087D01*
X020550Y044245D02*
X021114Y044245D01*
X027050Y040441D02*
X027615Y040441D01*
X027671Y040283D02*
X027050Y040283D01*
X027050Y040124D02*
X027769Y040124D01*
X027929Y039966D02*
X027050Y039966D01*
X027050Y039807D02*
X027459Y039807D01*
X027300Y039649D02*
X027050Y039649D01*
X027050Y039490D02*
X027142Y039490D01*
X028370Y040917D02*
X028530Y040917D01*
X028530Y041075D02*
X028370Y041075D01*
X028370Y041234D02*
X028530Y041234D01*
X028530Y041392D02*
X028370Y041392D01*
X028970Y039966D02*
X029358Y039966D01*
X029294Y038698D02*
X028875Y038698D01*
X029077Y038539D02*
X029589Y038539D01*
X029194Y038381D02*
X030406Y038381D01*
X030333Y038222D02*
X029267Y038222D01*
X029302Y038064D02*
X030298Y038064D01*
X030314Y037747D02*
X029286Y037747D01*
X029231Y037588D02*
X030369Y037588D01*
X030465Y037430D02*
X029135Y037430D01*
X028978Y037271D02*
X030622Y037271D01*
X030950Y037113D02*
X028650Y037113D01*
X030011Y038539D02*
X030523Y038539D01*
X030725Y038698D02*
X030306Y038698D01*
X030465Y038856D02*
X030584Y039144D01*
X031070Y037747D02*
X031230Y037747D01*
X031230Y037588D02*
X031070Y037588D01*
X031070Y037430D02*
X031230Y037430D01*
X031230Y037271D02*
X031070Y037271D01*
X031070Y037113D02*
X031230Y037113D01*
X031350Y037113D02*
X031700Y037113D01*
X031700Y037271D02*
X031679Y037271D01*
X026550Y034735D02*
X026400Y034735D01*
X026400Y034577D02*
X026550Y034577D01*
X026550Y034418D02*
X026400Y034418D01*
X026400Y034260D02*
X026550Y034260D01*
X026550Y034101D02*
X026400Y034101D01*
X026400Y033943D02*
X026550Y033943D01*
X026550Y033784D02*
X026400Y033784D01*
X026400Y033626D02*
X026550Y033626D01*
X024228Y032199D02*
X023900Y032199D01*
X023900Y032041D02*
X024025Y032041D01*
X023907Y031882D02*
X023900Y031882D01*
X025181Y030773D02*
X025200Y030773D01*
X025200Y029663D02*
X024786Y029663D01*
X024865Y029505D02*
X025200Y029505D01*
X025200Y029346D02*
X024900Y029346D01*
X024900Y029188D02*
X025200Y029188D01*
X025200Y029029D02*
X024900Y029029D01*
X024900Y028871D02*
X025200Y028871D01*
X025200Y028712D02*
X024900Y028712D01*
X024900Y028554D02*
X025200Y028554D01*
X025200Y028395D02*
X024911Y028395D01*
X025099Y028237D02*
X025200Y028237D01*
X025196Y028078D02*
X025200Y028078D01*
X013550Y047257D02*
X012504Y047257D01*
X012470Y047415D02*
X013550Y047415D01*
X013550Y047574D02*
X012399Y047574D01*
X012285Y047732D02*
X013550Y047732D01*
D19*
X034300Y026800D03*
X034800Y023800D03*
X033800Y023050D03*
D20*
X031300Y025800D02*
X032300Y026800D01*
X032300Y045300D01*
X031800Y045800D01*
X029800Y045800D01*
X025800Y045300D02*
X025300Y045800D01*
X023300Y045800D01*
X025800Y045300D02*
X025800Y026800D01*
X024800Y025800D01*
X024300Y025800D01*
X024300Y026800D02*
X023800Y026800D01*
X023300Y027300D01*
X023300Y028300D01*
X022300Y029300D01*
X021300Y029300D01*
X020800Y029800D01*
X020800Y038800D01*
X021300Y039300D01*
X023300Y039300D01*
X027300Y038800D02*
X027800Y039300D01*
X029800Y039300D01*
X027300Y038800D02*
X027300Y029800D01*
X027800Y029300D01*
X028800Y029300D01*
X029800Y028300D01*
X029800Y027300D01*
X030300Y026800D01*
X030800Y026800D01*
X030800Y025800D02*
X031300Y025800D01*
X030800Y027800D02*
X030800Y029300D01*
X029800Y030300D01*
X029800Y032800D01*
X024300Y029300D02*
X024300Y027800D01*
X024300Y029300D02*
X023300Y030300D01*
X023300Y032800D01*
X019300Y026800D02*
X019300Y045300D01*
X018800Y045800D01*
X016800Y045800D01*
X012800Y045300D02*
X012300Y045800D01*
X010300Y045800D01*
X012800Y045300D02*
X012800Y026800D01*
X011800Y025800D01*
X011300Y025800D01*
X011300Y026800D02*
X010800Y026800D01*
X010300Y027300D01*
X010300Y028300D01*
X009300Y029300D01*
X008300Y029300D01*
X007800Y029800D01*
X007800Y038800D01*
X008300Y039300D01*
X010300Y039300D01*
X014300Y038800D02*
X014800Y039300D01*
X016800Y039300D01*
X014300Y038800D02*
X014300Y029800D01*
X014800Y029300D01*
X015800Y029300D01*
X016800Y028300D01*
X016800Y027300D01*
X017300Y026800D01*
X017800Y026800D01*
X017800Y025800D02*
X018300Y025800D01*
X019300Y026800D01*
X017800Y027800D02*
X017800Y029300D01*
X016800Y030300D01*
X016800Y032800D01*
X011300Y029800D02*
X011300Y027800D01*
X011300Y029800D02*
X010300Y030800D01*
X010300Y032800D01*
X006300Y026800D02*
X006300Y045300D01*
X005800Y045800D01*
X003800Y045800D01*
X003800Y039300D02*
X001800Y039300D01*
X001300Y038800D01*
X001300Y029800D01*
X001800Y029300D01*
X002800Y029300D01*
X003800Y028300D01*
X003800Y027300D01*
X004300Y026800D01*
X004800Y026800D01*
X004800Y025800D02*
X005300Y025800D01*
X006300Y026800D01*
X004800Y027800D02*
X004800Y029800D01*
X003800Y030800D01*
X003800Y032800D01*
M02*
