G75*
G70*
%OFA0B0*%
%FSLAX24Y24*%
%IPPOS*%
%LPD*%
%AMOC8*
5,1,8,0,0,1.08239X$1,22.5*
%
%ADD10C,0.0946*%
%ADD11C,0.0867*%
%ADD12R,0.0552X0.0631*%
%ADD13C,0.0640*%
%ADD14C,0.0820*%
%ADD15C,0.0635*%
%ADD16R,0.0328X0.0407*%
%ADD17C,0.0050*%
%ADD18C,0.0848*%
%ADD19C,0.1441*%
%ADD20C,0.0730*%
%ADD21R,0.0730X0.0730*%
%ADD22R,0.0789X0.0552*%
D10*
X001300Y042550D03*
X007800Y042550D03*
X014300Y042550D03*
X020800Y042550D03*
X027300Y042550D03*
X039300Y047800D03*
D11*
X001300Y018300D03*
X019300Y018300D03*
X039300Y018300D03*
D12*
X030391Y021800D03*
X029209Y021800D03*
X023891Y021800D03*
X022709Y021800D03*
X017391Y021800D03*
X016209Y021800D03*
X010891Y021800D03*
X009709Y021800D03*
X004391Y021800D03*
X003209Y021800D03*
D13*
X034520Y029300D02*
X035080Y029300D01*
X035080Y030300D02*
X034520Y030300D01*
X034520Y031300D02*
X035080Y031300D01*
X035080Y032300D02*
X034520Y032300D01*
X034520Y033300D02*
X035080Y033300D01*
X035080Y034300D02*
X034520Y034300D01*
X034520Y035300D02*
X035080Y035300D01*
X035080Y036300D02*
X034520Y036300D01*
X034520Y037300D02*
X035080Y037300D01*
X037520Y037300D02*
X038080Y037300D01*
X038080Y036300D02*
X037520Y036300D01*
X037520Y035300D02*
X038080Y035300D01*
X038080Y034300D02*
X037520Y034300D01*
X037520Y033300D02*
X038080Y033300D01*
X038080Y032300D02*
X037520Y032300D01*
X037520Y031300D02*
X038080Y031300D01*
X038080Y030300D02*
X037520Y030300D01*
X037520Y029300D02*
X038080Y029300D01*
D14*
X039300Y029300D03*
X039300Y030300D03*
X039300Y031300D03*
X039300Y032300D03*
X039300Y033300D03*
X039300Y034300D03*
X039300Y035300D03*
X039300Y036300D03*
X039300Y038800D03*
X039300Y039800D03*
X039300Y040800D03*
X039300Y041800D03*
D15*
X031077Y027800D02*
X030523Y027800D01*
X030523Y026800D02*
X031077Y026800D01*
X031077Y025800D02*
X030523Y025800D01*
X029077Y025800D02*
X028523Y025800D01*
X028523Y026800D02*
X029077Y026800D01*
X029077Y027800D02*
X028523Y027800D01*
X028523Y023800D02*
X029077Y023800D01*
X030523Y023800D02*
X031077Y023800D01*
X024577Y023800D02*
X024023Y023800D01*
X022577Y023800D02*
X022023Y023800D01*
X022023Y025800D02*
X022577Y025800D01*
X022577Y026800D02*
X022023Y026800D01*
X022023Y027800D02*
X022577Y027800D01*
X024023Y027800D02*
X024577Y027800D01*
X024577Y026800D02*
X024023Y026800D01*
X024023Y025800D02*
X024577Y025800D01*
X018077Y025800D02*
X017523Y025800D01*
X017523Y026800D02*
X018077Y026800D01*
X018077Y027800D02*
X017523Y027800D01*
X016077Y027800D02*
X015523Y027800D01*
X015523Y026800D02*
X016077Y026800D01*
X016077Y025800D02*
X015523Y025800D01*
X015523Y023800D02*
X016077Y023800D01*
X017523Y023800D02*
X018077Y023800D01*
X011577Y023800D02*
X011023Y023800D01*
X009577Y023800D02*
X009023Y023800D01*
X009023Y025800D02*
X009577Y025800D01*
X009577Y026800D02*
X009023Y026800D01*
X009023Y027800D02*
X009577Y027800D01*
X011023Y027800D02*
X011577Y027800D01*
X011577Y026800D02*
X011023Y026800D01*
X011023Y025800D02*
X011577Y025800D01*
X005077Y025800D02*
X004523Y025800D01*
X004523Y026800D02*
X005077Y026800D01*
X005077Y027800D02*
X004523Y027800D01*
X003077Y027800D02*
X002523Y027800D01*
X002523Y026800D02*
X003077Y026800D01*
X003077Y025800D02*
X002523Y025800D01*
X002523Y023800D02*
X003077Y023800D01*
X004523Y023800D02*
X005077Y023800D01*
D16*
X004753Y022800D03*
X003847Y022800D03*
X010347Y022800D03*
X011253Y022800D03*
X016847Y022800D03*
X017753Y022800D03*
X023347Y022800D03*
X024253Y022800D03*
X029847Y022800D03*
X030753Y022800D03*
D17*
X035712Y038627D02*
X035674Y038641D01*
X035641Y038663D01*
X035614Y038691D01*
X035593Y038725D01*
X035581Y038763D01*
X035577Y038802D01*
X035582Y038840D01*
X035595Y038877D01*
X035616Y038909D01*
X035643Y038936D01*
X035676Y038957D01*
X035713Y038969D01*
X035751Y038973D01*
X035789Y038970D01*
X035826Y038958D01*
X035858Y038938D01*
X035886Y038912D01*
X035907Y038880D01*
X035921Y038844D01*
X035926Y038806D01*
X035922Y038766D01*
X035910Y038728D01*
X035890Y038693D01*
X035862Y038664D01*
X035828Y038642D01*
X035791Y038628D01*
X035751Y038622D01*
X035712Y038627D01*
X035677Y038640D02*
X035824Y038640D01*
X035885Y038689D02*
X035616Y038689D01*
X035589Y038737D02*
X035913Y038737D01*
X035924Y038786D02*
X035579Y038786D01*
X035581Y038834D02*
X035922Y038834D01*
X035905Y038883D02*
X035599Y038883D01*
X035638Y038931D02*
X035866Y038931D01*
X036683Y038834D02*
X037024Y038834D01*
X037023Y038844D02*
X037028Y038806D01*
X037024Y038766D01*
X037012Y038728D01*
X036992Y038693D01*
X036964Y038664D01*
X036930Y038642D01*
X036893Y038628D01*
X036853Y038622D01*
X036814Y038627D01*
X036777Y038641D01*
X036743Y038663D01*
X036716Y038691D01*
X036695Y038725D01*
X036683Y038763D01*
X036679Y038802D01*
X036684Y038840D01*
X036697Y038877D01*
X036718Y038909D01*
X036745Y038936D01*
X036778Y038957D01*
X036815Y038969D01*
X036853Y038973D01*
X036891Y038970D01*
X036928Y038958D01*
X036960Y038938D01*
X036988Y038912D01*
X037009Y038880D01*
X037023Y038844D01*
X037007Y038883D02*
X036701Y038883D01*
X036740Y038931D02*
X036968Y038931D01*
X037026Y038786D02*
X036681Y038786D01*
X036691Y038737D02*
X037015Y038737D01*
X036987Y038689D02*
X036718Y038689D01*
X036779Y038640D02*
X036926Y038640D01*
D18*
X029800Y039300D03*
X029800Y045800D03*
X023300Y045800D03*
X023300Y039300D03*
X023300Y032800D03*
X016800Y032800D03*
X016800Y039300D03*
X016800Y045800D03*
X010300Y045800D03*
X010300Y039300D03*
X010300Y032800D03*
X003800Y032800D03*
X003800Y039300D03*
X003800Y045800D03*
X029800Y032800D03*
D19*
X028450Y034150D03*
X028450Y031450D03*
X031150Y031450D03*
X031150Y034150D03*
X031150Y037950D03*
X031150Y040650D03*
X028450Y040650D03*
X028450Y037950D03*
X024650Y037950D03*
X024650Y040650D03*
X021950Y040650D03*
X021950Y037950D03*
X021950Y034150D03*
X021950Y031450D03*
X024650Y031450D03*
X024650Y034150D03*
X018150Y034150D03*
X018150Y031450D03*
X015450Y031450D03*
X015450Y034150D03*
X015450Y037950D03*
X015450Y040650D03*
X018150Y040650D03*
X018150Y037950D03*
X018150Y044450D03*
X018150Y047150D03*
X015450Y047150D03*
X015450Y044450D03*
X011650Y044450D03*
X011650Y047150D03*
X008950Y047150D03*
X008950Y044450D03*
X008950Y040650D03*
X008950Y037950D03*
X011650Y037950D03*
X011650Y040650D03*
X011650Y034150D03*
X011650Y031450D03*
X008950Y031450D03*
X008950Y034150D03*
X005150Y034150D03*
X005150Y031450D03*
X002450Y031450D03*
X002450Y034150D03*
X002450Y037950D03*
X002450Y040650D03*
X005150Y040650D03*
X005150Y037950D03*
X005150Y044450D03*
X005150Y047150D03*
X002450Y047150D03*
X002450Y044450D03*
X021950Y044450D03*
X021950Y047150D03*
X024650Y047150D03*
X024650Y044450D03*
X028450Y044450D03*
X028450Y047150D03*
X031150Y047150D03*
X031150Y044450D03*
D20*
X036800Y041300D03*
D21*
X035800Y041300D03*
D22*
X030390Y020800D03*
X029210Y020800D03*
X023890Y020800D03*
X022710Y020800D03*
X017390Y020800D03*
X016210Y020800D03*
X010890Y020800D03*
X009710Y020800D03*
X004390Y020800D03*
X003210Y020800D03*
M02*
