G75*
%MOIN*%
%OFA0B0*%
%FSLAX25Y25*%
%IPPOS*%
%LPD*%
%AMOC8*
5,1,8,0,0,1.08239X$1,22.5*
%
%ADD10C,0.05200*%
%ADD11C,0.07400*%
%ADD12C,0.05150*%
%ADD13C,0.07677*%
%ADD14C,0.13606*%
%ADD15C,0.06500*%
%ADD16R,0.06500X0.06500*%
%ADD17C,0.08000*%
%ADD18R,0.07400X0.07400*%
%ADD19C,0.04000*%
%ADD20R,0.05906X0.05906*%
D10*
X0188000Y0210400D02*
X0188000Y0215600D01*
X0198000Y0215600D02*
X0198000Y0210400D01*
X0208000Y0210400D02*
X0208000Y0215600D01*
X0218000Y0215600D02*
X0218000Y0210400D01*
X0228000Y0210400D02*
X0228000Y0215600D01*
X0238000Y0215600D02*
X0238000Y0210400D01*
X0248000Y0210400D02*
X0248000Y0215600D01*
X0258000Y0215600D02*
X0258000Y0210400D01*
X0268000Y0210400D02*
X0268000Y0215600D01*
X0268000Y0240400D02*
X0268000Y0245600D01*
X0258000Y0245600D02*
X0258000Y0240400D01*
X0248000Y0240400D02*
X0248000Y0245600D01*
X0238000Y0245600D02*
X0238000Y0240400D01*
X0228000Y0240400D02*
X0228000Y0245600D01*
X0218000Y0245600D02*
X0218000Y0240400D01*
X0208000Y0240400D02*
X0208000Y0245600D01*
X0198000Y0245600D02*
X0198000Y0240400D01*
X0188000Y0240400D02*
X0188000Y0245600D01*
D11*
X0183000Y0263000D03*
X0193000Y0263000D03*
X0228000Y0263000D03*
X0238000Y0263000D03*
X0248000Y0263000D03*
X0258000Y0263000D03*
X0268000Y0263000D03*
X0263000Y0038000D03*
X0253000Y0038000D03*
X0243000Y0038000D03*
D12*
X0228000Y0070425D02*
X0228000Y0075575D01*
X0218000Y0075575D02*
X0218000Y0070425D01*
X0208000Y0070425D02*
X0208000Y0075575D01*
X0208000Y0090425D02*
X0208000Y0095575D01*
X0218000Y0095575D02*
X0218000Y0090425D01*
X0228000Y0090425D02*
X0228000Y0095575D01*
X0188000Y0095575D02*
X0188000Y0090425D01*
X0188000Y0075575D02*
X0188000Y0070425D01*
X0143000Y0075425D02*
X0143000Y0080575D01*
X0133000Y0080575D02*
X0133000Y0075425D01*
X0123000Y0075425D02*
X0123000Y0080575D01*
X0103000Y0080575D02*
X0103000Y0075425D01*
X0103000Y0060575D02*
X0103000Y0055425D01*
X0123000Y0055425D02*
X0123000Y0060575D01*
X0133000Y0060575D02*
X0133000Y0055425D01*
X0143000Y0055425D02*
X0143000Y0060575D01*
X0068000Y0060575D02*
X0068000Y0055425D01*
X0058000Y0055425D02*
X0058000Y0060575D01*
X0048000Y0060575D02*
X0048000Y0055425D01*
X0028000Y0055425D02*
X0028000Y0060575D01*
X0028000Y0075425D02*
X0028000Y0080575D01*
X0048000Y0080575D02*
X0048000Y0075425D01*
X0058000Y0075425D02*
X0058000Y0080575D01*
X0068000Y0080575D02*
X0068000Y0075425D01*
X0188000Y0135425D02*
X0188000Y0140575D01*
X0188000Y0155425D02*
X0188000Y0160575D01*
X0208000Y0160575D02*
X0208000Y0155425D01*
X0218000Y0155425D02*
X0218000Y0160575D01*
X0228000Y0160575D02*
X0228000Y0155425D01*
X0228000Y0140575D02*
X0228000Y0135425D01*
X0218000Y0135425D02*
X0218000Y0140575D01*
X0208000Y0140575D02*
X0208000Y0135425D01*
X0273000Y0135425D02*
X0273000Y0140575D01*
X0293000Y0140575D02*
X0293000Y0135425D01*
X0303000Y0135425D02*
X0303000Y0140575D01*
X0313000Y0140575D02*
X0313000Y0135425D01*
X0313000Y0155425D02*
X0313000Y0160575D01*
X0303000Y0160575D02*
X0303000Y0155425D01*
X0293000Y0155425D02*
X0293000Y0160575D01*
X0273000Y0160575D02*
X0273000Y0155425D01*
X0273000Y0095575D02*
X0273000Y0090425D01*
X0293000Y0090425D02*
X0293000Y0095575D01*
X0303000Y0095575D02*
X0303000Y0090425D01*
X0313000Y0090425D02*
X0313000Y0095575D01*
X0313000Y0075575D02*
X0313000Y0070425D01*
X0303000Y0070425D02*
X0303000Y0075575D01*
X0293000Y0075575D02*
X0293000Y0070425D01*
X0273000Y0070425D02*
X0273000Y0075575D01*
D13*
X0363000Y0053000D03*
X0363000Y0118000D03*
X0363000Y0183000D03*
X0363000Y0248000D03*
X0138000Y0198000D03*
X0138000Y0138000D03*
X0038000Y0138000D03*
X0038000Y0198000D03*
D14*
X0024496Y0211504D03*
X0051504Y0211504D03*
X0051504Y0184496D03*
X0024496Y0184496D03*
X0024496Y0151504D03*
X0051504Y0151504D03*
X0051504Y0124496D03*
X0024496Y0124496D03*
X0124496Y0124496D03*
X0151504Y0124496D03*
X0151504Y0151504D03*
X0124496Y0151504D03*
X0124496Y0184496D03*
X0151504Y0184496D03*
X0151504Y0211504D03*
X0124496Y0211504D03*
X0349496Y0196504D03*
X0376504Y0196504D03*
X0376504Y0169496D03*
X0349496Y0169496D03*
X0349496Y0131504D03*
X0376504Y0131504D03*
X0376504Y0104496D03*
X0349496Y0104496D03*
X0349496Y0066504D03*
X0376504Y0066504D03*
X0376504Y0039496D03*
X0349496Y0039496D03*
X0349496Y0234496D03*
X0376504Y0234496D03*
X0376504Y0261504D03*
X0349496Y0261504D03*
D15*
X0153000Y0263000D03*
D16*
X0163000Y0263000D03*
D17*
X0175500Y0243500D03*
X0175500Y0232500D03*
D18*
X0233000Y0038000D03*
D19*
X0010000Y0053047D02*
X0010000Y0010000D01*
X0014976Y0010000D01*
X0013933Y0011043D01*
X0012441Y0013627D01*
X0011669Y0016508D01*
X0011669Y0019492D01*
X0012441Y0022373D01*
X0013933Y0024957D01*
X0016043Y0027067D01*
X0018627Y0028559D01*
X0021508Y0029331D01*
X0024492Y0029331D01*
X0027373Y0028559D01*
X0029957Y0027067D01*
X0032067Y0024957D01*
X0033559Y0022373D01*
X0034331Y0019492D01*
X0034331Y0016508D01*
X0033559Y0013627D01*
X0032067Y0011043D01*
X0031024Y0010000D01*
X0384976Y0010000D01*
X0383933Y0011043D01*
X0382441Y0013627D01*
X0381669Y0016508D01*
X0381669Y0019492D01*
X0382441Y0022373D01*
X0383933Y0024957D01*
X0386043Y0027067D01*
X0388627Y0028559D01*
X0391508Y0029331D01*
X0394492Y0029331D01*
X0397373Y0028559D01*
X0399957Y0027067D01*
X0402067Y0024957D01*
X0403559Y0022373D01*
X0404331Y0019492D01*
X0404331Y0016508D01*
X0403559Y0013627D01*
X0402067Y0011043D01*
X0401024Y0010000D01*
X0404701Y0010000D01*
X0404701Y0253785D01*
X0402373Y0252441D01*
X0399492Y0251669D01*
X0396508Y0251669D01*
X0393627Y0252441D01*
X0391043Y0253933D01*
X0388933Y0256043D01*
X0387441Y0258627D01*
X0386669Y0261508D01*
X0386669Y0264492D01*
X0387441Y0267373D01*
X0388933Y0269957D01*
X0391043Y0272067D01*
X0393627Y0273559D01*
X0396508Y0274331D01*
X0399492Y0274331D01*
X0402373Y0273559D01*
X0404701Y0272215D01*
X0404701Y0275961D01*
X0010000Y0275961D01*
X0010000Y0107953D01*
X0017345Y0107953D01*
X0019918Y0106887D01*
X0021887Y0104918D01*
X0022953Y0102345D01*
X0022953Y0095775D01*
X0028578Y0090150D01*
X0029439Y0090150D01*
X0029000Y0091210D01*
X0029000Y0115784D01*
X0028253Y0115425D01*
X0027214Y0115061D01*
X0026141Y0114816D01*
X0025047Y0114693D01*
X0024898Y0114693D01*
X0024898Y0124094D01*
X0024094Y0124094D01*
X0024094Y0114693D01*
X0023946Y0114693D01*
X0022851Y0114816D01*
X0021778Y0115061D01*
X0020739Y0115425D01*
X0019747Y0115903D01*
X0018814Y0116488D01*
X0017953Y0117175D01*
X0017175Y0117953D01*
X0016488Y0118814D01*
X0015903Y0119747D01*
X0015425Y0120739D01*
X0015061Y0121778D01*
X0014816Y0122851D01*
X0014693Y0123946D01*
X0014693Y0124094D01*
X0024094Y0124094D01*
X0024094Y0124898D01*
X0014693Y0124898D01*
X0014693Y0125047D01*
X0014816Y0126141D01*
X0015061Y0127214D01*
X0015425Y0128253D01*
X0015903Y0129245D01*
X0016488Y0130178D01*
X0017175Y0131039D01*
X0017953Y0131817D01*
X0018814Y0132504D01*
X0019747Y0133090D01*
X0020739Y0133567D01*
X0021778Y0133931D01*
X0022851Y0134176D01*
X0023946Y0134299D01*
X0024094Y0134299D01*
X0024094Y0124898D01*
X0024898Y0124898D01*
X0024898Y0134299D01*
X0025047Y0134299D01*
X0026141Y0134176D01*
X0027214Y0133931D01*
X0027991Y0133659D01*
X0027900Y0133816D01*
X0027161Y0136573D01*
X0027161Y0139427D01*
X0027900Y0142184D01*
X0027991Y0142341D01*
X0027214Y0142069D01*
X0026141Y0141824D01*
X0025047Y0141701D01*
X0024898Y0141701D01*
X0024898Y0151102D01*
X0024898Y0151906D01*
X0024094Y0151906D01*
X0024094Y0161307D01*
X0023946Y0161307D01*
X0022851Y0161184D01*
X0021778Y0160939D01*
X0020739Y0160575D01*
X0019747Y0160097D01*
X0018814Y0159512D01*
X0017953Y0158825D01*
X0017175Y0158047D01*
X0016488Y0157186D01*
X0015903Y0156253D01*
X0015425Y0155261D01*
X0015061Y0154222D01*
X0014816Y0153149D01*
X0014693Y0152054D01*
X0014693Y0151906D01*
X0024094Y0151906D01*
X0024094Y0151102D01*
X0014693Y0151102D01*
X0014693Y0150953D01*
X0014816Y0149859D01*
X0015061Y0148786D01*
X0015425Y0147747D01*
X0015903Y0146754D01*
X0016488Y0145822D01*
X0017175Y0144961D01*
X0017953Y0144183D01*
X0018814Y0143496D01*
X0019747Y0142910D01*
X0020739Y0142433D01*
X0021778Y0142069D01*
X0022851Y0141824D01*
X0023946Y0141701D01*
X0024094Y0141701D01*
X0024094Y0151102D01*
X0024898Y0151102D01*
X0034299Y0151102D01*
X0034299Y0150953D01*
X0034176Y0149859D01*
X0033931Y0148786D01*
X0033659Y0148009D01*
X0033816Y0148100D01*
X0036573Y0148839D01*
X0039427Y0148839D01*
X0042184Y0148100D01*
X0042341Y0148009D01*
X0042069Y0148786D01*
X0041824Y0149859D01*
X0041701Y0150953D01*
X0041701Y0151102D01*
X0051102Y0151102D01*
X0051102Y0151906D01*
X0051102Y0161307D01*
X0050953Y0161307D01*
X0049859Y0161184D01*
X0048786Y0160939D01*
X0047747Y0160575D01*
X0046754Y0160097D01*
X0045822Y0159512D01*
X0044961Y0158825D01*
X0044183Y0158047D01*
X0043496Y0157186D01*
X0042910Y0156253D01*
X0042433Y0155261D01*
X0042069Y0154222D01*
X0041824Y0153149D01*
X0041701Y0152054D01*
X0041701Y0151906D01*
X0051102Y0151906D01*
X0051906Y0151906D01*
X0051906Y0161307D01*
X0052054Y0161307D01*
X0053149Y0161184D01*
X0054222Y0160939D01*
X0055261Y0160575D01*
X0056253Y0160097D01*
X0057186Y0159512D01*
X0058047Y0158825D01*
X0058825Y0158047D01*
X0059512Y0157186D01*
X0060097Y0156253D01*
X0060575Y0155261D01*
X0060939Y0154222D01*
X0061184Y0153149D01*
X0061307Y0152054D01*
X0061307Y0151906D01*
X0051906Y0151906D01*
X0051906Y0151102D01*
X0061307Y0151102D01*
X0061307Y0150953D01*
X0061184Y0149859D01*
X0060939Y0148786D01*
X0060575Y0147747D01*
X0060097Y0146754D01*
X0059512Y0145822D01*
X0058825Y0144961D01*
X0058047Y0144183D01*
X0057186Y0143496D01*
X0056253Y0142910D01*
X0055261Y0142433D01*
X0054222Y0142069D01*
X0053149Y0141824D01*
X0052054Y0141701D01*
X0051906Y0141701D01*
X0051906Y0151102D01*
X0051102Y0151102D01*
X0051102Y0141701D01*
X0050953Y0141701D01*
X0049859Y0141824D01*
X0048786Y0142069D01*
X0048009Y0142341D01*
X0048100Y0142184D01*
X0048839Y0139427D01*
X0048839Y0136573D01*
X0048100Y0133816D01*
X0048009Y0133659D01*
X0048786Y0133931D01*
X0049859Y0134176D01*
X0050953Y0134299D01*
X0051102Y0134299D01*
X0051102Y0124898D01*
X0051906Y0124898D01*
X0061307Y0124898D01*
X0061307Y0125047D01*
X0061184Y0126141D01*
X0060939Y0127214D01*
X0060575Y0128253D01*
X0060097Y0129245D01*
X0059512Y0130178D01*
X0058825Y0131039D01*
X0058047Y0131817D01*
X0057186Y0132504D01*
X0056253Y0133090D01*
X0055261Y0133567D01*
X0054222Y0133931D01*
X0053149Y0134176D01*
X0052054Y0134299D01*
X0051906Y0134299D01*
X0051906Y0124898D01*
X0051906Y0124094D01*
X0061307Y0124094D01*
X0061307Y0123946D01*
X0061184Y0122851D01*
X0060939Y0121778D01*
X0060575Y0120739D01*
X0060097Y0119747D01*
X0059512Y0118814D01*
X0058825Y0117953D01*
X0058047Y0117175D01*
X0057186Y0116488D01*
X0056253Y0115903D01*
X0055261Y0115425D01*
X0054222Y0115061D01*
X0053149Y0114816D01*
X0052054Y0114693D01*
X0051906Y0114693D01*
X0051906Y0124094D01*
X0051102Y0124094D01*
X0051102Y0114693D01*
X0050953Y0114693D01*
X0049859Y0114816D01*
X0048786Y0115061D01*
X0047747Y0115425D01*
X0047000Y0115784D01*
X0047000Y0102000D01*
X0059790Y0102000D01*
X0063098Y0100630D01*
X0064000Y0099728D01*
X0064000Y0104790D01*
X0065370Y0108098D01*
X0068047Y0110775D01*
X0068047Y0112345D01*
X0069113Y0114918D01*
X0071082Y0116887D01*
X0073655Y0117953D01*
X0079000Y0117953D01*
X0079000Y0179272D01*
X0069272Y0189000D01*
X0060216Y0189000D01*
X0060575Y0188253D01*
X0060939Y0187214D01*
X0061184Y0186141D01*
X0061307Y0185047D01*
X0061307Y0184898D01*
X0051906Y0184898D01*
X0051906Y0184094D01*
X0061307Y0184094D01*
X0061307Y0183946D01*
X0061184Y0182851D01*
X0060939Y0181778D01*
X0060575Y0180739D01*
X0060097Y0179747D01*
X0059512Y0178814D01*
X0058825Y0177953D01*
X0058047Y0177175D01*
X0057186Y0176488D01*
X0056253Y0175903D01*
X0055261Y0175425D01*
X0054222Y0175061D01*
X0053149Y0174816D01*
X0052054Y0174693D01*
X0051906Y0174693D01*
X0051906Y0184094D01*
X0051102Y0184094D01*
X0051102Y0174693D01*
X0050953Y0174693D01*
X0049859Y0174816D01*
X0048786Y0175061D01*
X0047747Y0175425D01*
X0046754Y0175903D01*
X0045822Y0176488D01*
X0044961Y0177175D01*
X0044183Y0177953D01*
X0043496Y0178814D01*
X0042910Y0179747D01*
X0042433Y0180739D01*
X0042069Y0181778D01*
X0041824Y0182851D01*
X0041701Y0183946D01*
X0041701Y0184094D01*
X0051102Y0184094D01*
X0051102Y0184898D01*
X0041701Y0184898D01*
X0041701Y0185047D01*
X0041824Y0186141D01*
X0042069Y0187214D01*
X0042341Y0187991D01*
X0042184Y0187900D01*
X0039427Y0187161D01*
X0036573Y0187161D01*
X0033816Y0187900D01*
X0033659Y0187991D01*
X0033931Y0187214D01*
X0034176Y0186141D01*
X0034299Y0185047D01*
X0034299Y0184898D01*
X0024898Y0184898D01*
X0024898Y0184094D01*
X0024898Y0174693D01*
X0025047Y0174693D01*
X0026141Y0174816D01*
X0027214Y0175061D01*
X0028253Y0175425D01*
X0029245Y0175903D01*
X0030178Y0176488D01*
X0031039Y0177175D01*
X0031817Y0177953D01*
X0032504Y0178814D01*
X0033090Y0179747D01*
X0033567Y0180739D01*
X0033931Y0181778D01*
X0034176Y0182851D01*
X0034299Y0183946D01*
X0034299Y0184094D01*
X0024898Y0184094D01*
X0024094Y0184094D01*
X0024094Y0174693D01*
X0023946Y0174693D01*
X0022851Y0174816D01*
X0021778Y0175061D01*
X0020739Y0175425D01*
X0019747Y0175903D01*
X0018814Y0176488D01*
X0017953Y0177175D01*
X0017175Y0177953D01*
X0016488Y0178814D01*
X0015903Y0179747D01*
X0015425Y0180739D01*
X0015061Y0181778D01*
X0014816Y0182851D01*
X0014693Y0183946D01*
X0014693Y0184094D01*
X0024094Y0184094D01*
X0024094Y0184898D01*
X0014693Y0184898D01*
X0014693Y0185047D01*
X0014816Y0186141D01*
X0015061Y0187214D01*
X0015425Y0188253D01*
X0015903Y0189245D01*
X0016488Y0190178D01*
X0017175Y0191039D01*
X0017953Y0191817D01*
X0018814Y0192504D01*
X0019747Y0193090D01*
X0020739Y0193567D01*
X0021778Y0193931D01*
X0022851Y0194176D01*
X0023946Y0194299D01*
X0024094Y0194299D01*
X0024094Y0184898D01*
X0024898Y0184898D01*
X0024898Y0194299D01*
X0025047Y0194299D01*
X0026141Y0194176D01*
X0027214Y0193931D01*
X0027991Y0193659D01*
X0027900Y0193816D01*
X0027161Y0196573D01*
X0027161Y0199427D01*
X0027900Y0202184D01*
X0027991Y0202341D01*
X0027214Y0202069D01*
X0026141Y0201824D01*
X0025047Y0201701D01*
X0024898Y0201701D01*
X0024898Y0211102D01*
X0024898Y0211906D01*
X0024094Y0211906D01*
X0024094Y0221307D01*
X0023946Y0221307D01*
X0022851Y0221184D01*
X0021778Y0220939D01*
X0020739Y0220575D01*
X0019747Y0220097D01*
X0018814Y0219512D01*
X0017953Y0218825D01*
X0017175Y0218047D01*
X0016488Y0217186D01*
X0015903Y0216253D01*
X0015425Y0215261D01*
X0015061Y0214222D01*
X0014816Y0213149D01*
X0014693Y0212054D01*
X0014693Y0211906D01*
X0024094Y0211906D01*
X0024094Y0211102D01*
X0014693Y0211102D01*
X0014693Y0210953D01*
X0014816Y0209859D01*
X0015061Y0208786D01*
X0015425Y0207747D01*
X0015903Y0206754D01*
X0016488Y0205822D01*
X0017175Y0204961D01*
X0017953Y0204183D01*
X0018814Y0203496D01*
X0019747Y0202910D01*
X0020739Y0202433D01*
X0021778Y0202069D01*
X0022851Y0201824D01*
X0023946Y0201701D01*
X0024094Y0201701D01*
X0024094Y0211102D01*
X0024898Y0211102D01*
X0034299Y0211102D01*
X0034299Y0210953D01*
X0034176Y0209859D01*
X0033931Y0208786D01*
X0033659Y0208009D01*
X0033816Y0208100D01*
X0036573Y0208839D01*
X0039427Y0208839D01*
X0042184Y0208100D01*
X0042341Y0208009D01*
X0042069Y0208786D01*
X0041824Y0209859D01*
X0041701Y0210953D01*
X0041701Y0211102D01*
X0051102Y0211102D01*
X0051102Y0211906D01*
X0051102Y0221307D01*
X0050953Y0221307D01*
X0049859Y0221184D01*
X0048786Y0220939D01*
X0047747Y0220575D01*
X0046754Y0220097D01*
X0045822Y0219512D01*
X0044961Y0218825D01*
X0044183Y0218047D01*
X0043496Y0217186D01*
X0042910Y0216253D01*
X0042433Y0215261D01*
X0042069Y0214222D01*
X0041824Y0213149D01*
X0041701Y0212054D01*
X0041701Y0211906D01*
X0051102Y0211906D01*
X0051906Y0211906D01*
X0051906Y0221307D01*
X0052054Y0221307D01*
X0053149Y0221184D01*
X0054222Y0220939D01*
X0055261Y0220575D01*
X0056253Y0220097D01*
X0057186Y0219512D01*
X0058047Y0218825D01*
X0058825Y0218047D01*
X0059512Y0217186D01*
X0060097Y0216253D01*
X0060575Y0215261D01*
X0060939Y0214222D01*
X0061184Y0213149D01*
X0061307Y0212054D01*
X0061307Y0211906D01*
X0051906Y0211906D01*
X0051906Y0211102D01*
X0061307Y0211102D01*
X0061307Y0210953D01*
X0061184Y0209859D01*
X0060939Y0208786D01*
X0060575Y0207747D01*
X0060216Y0207000D01*
X0074790Y0207000D01*
X0078098Y0205630D01*
X0080630Y0203098D01*
X0095500Y0188228D01*
X0110370Y0203098D01*
X0112902Y0205630D01*
X0115855Y0206853D01*
X0115425Y0207747D01*
X0115061Y0208786D01*
X0114816Y0209859D01*
X0114693Y0210953D01*
X0114693Y0211102D01*
X0124094Y0211102D01*
X0124094Y0211906D01*
X0114693Y0211906D01*
X0114693Y0212054D01*
X0114816Y0213149D01*
X0115061Y0214222D01*
X0115425Y0215261D01*
X0115903Y0216253D01*
X0116488Y0217186D01*
X0117175Y0218047D01*
X0117953Y0218825D01*
X0118173Y0219000D01*
X0084645Y0219000D01*
X0082345Y0218047D01*
X0073655Y0218047D01*
X0071082Y0219113D01*
X0069113Y0221082D01*
X0068047Y0223655D01*
X0068047Y0232345D01*
X0069113Y0234918D01*
X0071082Y0236887D01*
X0073655Y0237953D01*
X0082345Y0237953D01*
X0084645Y0237000D01*
X0153047Y0237000D01*
X0153047Y0237345D01*
X0154000Y0239645D01*
X0154000Y0246865D01*
X0153837Y0247501D01*
X0154000Y0248640D01*
X0154000Y0255601D01*
X0153816Y0255785D01*
X0153416Y0256750D01*
X0153000Y0256750D01*
X0153000Y0257754D01*
X0153000Y0257754D01*
X0153000Y0256750D01*
X0152508Y0256750D01*
X0151536Y0256904D01*
X0150601Y0257208D01*
X0149724Y0257655D01*
X0148928Y0258233D01*
X0148233Y0258928D01*
X0147655Y0259724D01*
X0147208Y0260601D01*
X0146904Y0261536D01*
X0146750Y0262508D01*
X0146750Y0263000D01*
X0152750Y0263000D01*
X0152750Y0263000D01*
X0146750Y0263000D01*
X0146750Y0263492D01*
X0146904Y0264464D01*
X0147208Y0265399D01*
X0147655Y0266276D01*
X0148233Y0267072D01*
X0148928Y0267767D01*
X0149724Y0268345D01*
X0150601Y0268792D01*
X0151536Y0269096D01*
X0152508Y0269250D01*
X0153000Y0269250D01*
X0153000Y0268246D01*
X0153000Y0268246D01*
X0153000Y0269250D01*
X0153416Y0269250D01*
X0153816Y0270215D01*
X0155785Y0272184D01*
X0158358Y0273250D01*
X0167642Y0273250D01*
X0170215Y0272184D01*
X0172184Y0270215D01*
X0173250Y0267642D01*
X0173250Y0267512D01*
X0174438Y0269570D01*
X0176430Y0271562D01*
X0178870Y0272971D01*
X0181591Y0273700D01*
X0184409Y0273700D01*
X0187130Y0272971D01*
X0189570Y0271562D01*
X0191562Y0269570D01*
X0191572Y0269554D01*
X0191690Y0269585D01*
X0192561Y0269700D01*
X0193000Y0269700D01*
X0193000Y0267021D01*
X0193000Y0267021D01*
X0193000Y0269700D01*
X0193439Y0269700D01*
X0194310Y0269585D01*
X0195158Y0269358D01*
X0195970Y0269022D01*
X0196730Y0268583D01*
X0197427Y0268048D01*
X0198048Y0267427D01*
X0198583Y0266730D01*
X0199022Y0265970D01*
X0199358Y0265158D01*
X0199585Y0264310D01*
X0199700Y0263439D01*
X0199700Y0263000D01*
X0193700Y0263000D01*
X0193700Y0263000D01*
X0199700Y0263000D01*
X0199700Y0262561D01*
X0199585Y0261690D01*
X0199358Y0260842D01*
X0199022Y0260030D01*
X0198583Y0259270D01*
X0198048Y0258573D01*
X0197427Y0257952D01*
X0196730Y0257417D01*
X0195970Y0256978D01*
X0195158Y0256642D01*
X0194310Y0256415D01*
X0193439Y0256300D01*
X0193000Y0256300D01*
X0193000Y0258979D01*
X0193000Y0258979D01*
X0193000Y0256300D01*
X0192561Y0256300D01*
X0191690Y0256415D01*
X0191572Y0256446D01*
X0191562Y0256430D01*
X0189570Y0254438D01*
X0187130Y0253029D01*
X0184409Y0252300D01*
X0183733Y0252300D01*
X0179585Y0249189D01*
X0180125Y0248774D01*
X0180774Y0248125D01*
X0181333Y0247397D01*
X0181792Y0246603D01*
X0182143Y0245755D01*
X0182380Y0244869D01*
X0182400Y0244718D01*
X0182400Y0246041D01*
X0182538Y0246911D01*
X0182810Y0247750D01*
X0183210Y0248535D01*
X0183729Y0249248D01*
X0184352Y0249871D01*
X0185065Y0250390D01*
X0185850Y0250790D01*
X0186689Y0251062D01*
X0187559Y0251200D01*
X0188000Y0251200D01*
X0188000Y0243000D01*
X0187500Y0243500D01*
X0175500Y0243500D01*
X0182076Y0245915D02*
X0182400Y0245915D01*
X0188000Y0245915D02*
X0188000Y0245915D01*
X0188000Y0243000D02*
X0188000Y0251200D01*
X0188441Y0251200D01*
X0189311Y0251062D01*
X0189805Y0250902D01*
X0189862Y0251038D01*
X0192562Y0253738D01*
X0196090Y0255200D01*
X0199910Y0255200D01*
X0203000Y0253920D01*
X0206090Y0255200D01*
X0209910Y0255200D01*
X0213000Y0253920D01*
X0216090Y0255200D01*
X0219000Y0255200D01*
X0219000Y0257188D01*
X0218029Y0258870D01*
X0217300Y0261591D01*
X0217300Y0264409D01*
X0218029Y0267130D01*
X0219438Y0269570D01*
X0221430Y0271562D01*
X0223870Y0272971D01*
X0226591Y0273700D01*
X0229409Y0273700D01*
X0232130Y0272971D01*
X0233000Y0272469D01*
X0233870Y0272971D01*
X0236591Y0273700D01*
X0239409Y0273700D01*
X0242130Y0272971D01*
X0243000Y0272469D01*
X0243870Y0272971D01*
X0246591Y0273700D01*
X0249409Y0273700D01*
X0252130Y0272971D01*
X0253000Y0272469D01*
X0253870Y0272971D01*
X0256591Y0273700D01*
X0259409Y0273700D01*
X0262130Y0272971D01*
X0263000Y0272469D01*
X0263870Y0272971D01*
X0266591Y0273700D01*
X0269409Y0273700D01*
X0272130Y0272971D01*
X0274570Y0271562D01*
X0276562Y0269570D01*
X0277971Y0267130D01*
X0278700Y0264409D01*
X0278700Y0261591D01*
X0277971Y0258870D01*
X0277000Y0257188D01*
X0277000Y0248958D01*
X0277600Y0247510D01*
X0277600Y0238490D01*
X0276138Y0234962D01*
X0273438Y0232262D01*
X0269910Y0230800D01*
X0266090Y0230800D01*
X0263000Y0232080D01*
X0259910Y0230800D01*
X0256090Y0230800D01*
X0253000Y0232080D01*
X0249910Y0230800D01*
X0246090Y0230800D01*
X0243000Y0232080D01*
X0239910Y0230800D01*
X0236090Y0230800D01*
X0233000Y0232080D01*
X0229910Y0230800D01*
X0226090Y0230800D01*
X0223000Y0232080D01*
X0219910Y0230800D01*
X0216090Y0230800D01*
X0213000Y0232080D01*
X0209910Y0230800D01*
X0206090Y0230800D01*
X0203000Y0232080D01*
X0199910Y0230800D01*
X0196090Y0230800D01*
X0192562Y0232262D01*
X0189862Y0234962D01*
X0189805Y0235098D01*
X0189311Y0234938D01*
X0188441Y0234800D01*
X0188000Y0234800D01*
X0188000Y0243000D01*
X0188000Y0243000D01*
X0188000Y0243000D01*
X0188000Y0234800D01*
X0187559Y0234800D01*
X0186689Y0234938D01*
X0186191Y0235099D01*
X0186500Y0233948D01*
X0186500Y0231052D01*
X0185750Y0228254D01*
X0184302Y0225746D01*
X0183642Y0225086D01*
X0184278Y0224449D01*
X0186090Y0225200D01*
X0189910Y0225200D01*
X0193000Y0223920D01*
X0196090Y0225200D01*
X0199910Y0225200D01*
X0203000Y0223920D01*
X0206090Y0225200D01*
X0209910Y0225200D01*
X0213000Y0223920D01*
X0216090Y0225200D01*
X0219910Y0225200D01*
X0223000Y0223920D01*
X0226090Y0225200D01*
X0229910Y0225200D01*
X0233000Y0223920D01*
X0236090Y0225200D01*
X0239910Y0225200D01*
X0243000Y0223920D01*
X0246090Y0225200D01*
X0249910Y0225200D01*
X0253000Y0223920D01*
X0256090Y0225200D01*
X0259910Y0225200D01*
X0263000Y0223920D01*
X0266090Y0225200D01*
X0269910Y0225200D01*
X0273438Y0223738D01*
X0276138Y0221038D01*
X0277600Y0217510D01*
X0277600Y0208490D01*
X0277000Y0207042D01*
X0277000Y0177000D01*
X0324790Y0177000D01*
X0328098Y0175630D01*
X0333098Y0170630D01*
X0335630Y0168098D01*
X0337000Y0164790D01*
X0337000Y0111210D01*
X0335630Y0107902D01*
X0325630Y0097902D01*
X0323098Y0095370D01*
X0322575Y0095153D01*
X0322575Y0092953D01*
X0327345Y0092953D01*
X0329918Y0091887D01*
X0331887Y0089918D01*
X0332953Y0087345D01*
X0332953Y0078655D01*
X0331887Y0076082D01*
X0329918Y0074113D01*
X0327345Y0073047D01*
X0325775Y0073047D01*
X0322575Y0069847D01*
X0322575Y0068521D01*
X0321117Y0065002D01*
X0318424Y0062308D01*
X0317680Y0062000D01*
X0340784Y0062000D01*
X0340425Y0062747D01*
X0340061Y0063786D01*
X0339816Y0064859D01*
X0339693Y0065953D01*
X0339693Y0066102D01*
X0349094Y0066102D01*
X0349094Y0066906D01*
X0349094Y0076307D01*
X0348946Y0076307D01*
X0347851Y0076184D01*
X0346778Y0075939D01*
X0345739Y0075575D01*
X0344747Y0075097D01*
X0343814Y0074512D01*
X0342953Y0073825D01*
X0342175Y0073047D01*
X0341488Y0072186D01*
X0340903Y0071253D01*
X0340425Y0070261D01*
X0340061Y0069222D01*
X0339816Y0068149D01*
X0339693Y0067054D01*
X0339693Y0066906D01*
X0349094Y0066906D01*
X0349898Y0066906D01*
X0349898Y0076307D01*
X0350047Y0076307D01*
X0351141Y0076184D01*
X0352214Y0075939D01*
X0353253Y0075575D01*
X0354245Y0075097D01*
X0355178Y0074512D01*
X0356039Y0073825D01*
X0356817Y0073047D01*
X0357504Y0072186D01*
X0358090Y0071253D01*
X0358567Y0070261D01*
X0358931Y0069222D01*
X0359176Y0068149D01*
X0359299Y0067054D01*
X0359299Y0066906D01*
X0349898Y0066906D01*
X0349898Y0066102D01*
X0359299Y0066102D01*
X0359299Y0065953D01*
X0359176Y0064859D01*
X0358931Y0063786D01*
X0358659Y0063009D01*
X0358816Y0063100D01*
X0361573Y0063839D01*
X0364427Y0063839D01*
X0367184Y0063100D01*
X0367341Y0063009D01*
X0367069Y0063786D01*
X0366824Y0064859D01*
X0366701Y0065953D01*
X0366701Y0066102D01*
X0376102Y0066102D01*
X0376102Y0066906D01*
X0376102Y0076307D01*
X0375953Y0076307D01*
X0374859Y0076184D01*
X0373786Y0075939D01*
X0372747Y0075575D01*
X0371754Y0075097D01*
X0370822Y0074512D01*
X0369961Y0073825D01*
X0369183Y0073047D01*
X0368496Y0072186D01*
X0367910Y0071253D01*
X0367433Y0070261D01*
X0367069Y0069222D01*
X0366824Y0068149D01*
X0366701Y0067054D01*
X0366701Y0066906D01*
X0376102Y0066906D01*
X0376906Y0066906D01*
X0376906Y0076307D01*
X0377054Y0076307D01*
X0378149Y0076184D01*
X0379222Y0075939D01*
X0380261Y0075575D01*
X0381253Y0075097D01*
X0382186Y0074512D01*
X0383047Y0073825D01*
X0383825Y0073047D01*
X0384512Y0072186D01*
X0385097Y0071253D01*
X0385575Y0070261D01*
X0385939Y0069222D01*
X0386184Y0068149D01*
X0386307Y0067054D01*
X0386307Y0066906D01*
X0376906Y0066906D01*
X0376906Y0066102D01*
X0386307Y0066102D01*
X0386307Y0065953D01*
X0386184Y0064859D01*
X0385939Y0063786D01*
X0385575Y0062747D01*
X0385097Y0061754D01*
X0384512Y0060822D01*
X0383825Y0059961D01*
X0383047Y0059183D01*
X0382186Y0058496D01*
X0381253Y0057910D01*
X0380261Y0057433D01*
X0379222Y0057069D01*
X0378149Y0056824D01*
X0377054Y0056701D01*
X0376906Y0056701D01*
X0376906Y0066102D01*
X0376102Y0066102D01*
X0376102Y0056701D01*
X0375953Y0056701D01*
X0374859Y0056824D01*
X0373786Y0057069D01*
X0373009Y0057341D01*
X0373100Y0057184D01*
X0373839Y0054427D01*
X0373839Y0051573D01*
X0373100Y0048816D01*
X0373009Y0048659D01*
X0373786Y0048931D01*
X0374859Y0049176D01*
X0375953Y0049299D01*
X0376102Y0049299D01*
X0376102Y0039898D01*
X0376906Y0039898D01*
X0386307Y0039898D01*
X0386307Y0040047D01*
X0386184Y0041141D01*
X0385939Y0042214D01*
X0385575Y0043253D01*
X0385097Y0044245D01*
X0384512Y0045178D01*
X0383825Y0046039D01*
X0383047Y0046817D01*
X0382186Y0047504D01*
X0381253Y0048090D01*
X0380261Y0048567D01*
X0379222Y0048931D01*
X0378149Y0049176D01*
X0377054Y0049299D01*
X0376906Y0049299D01*
X0376906Y0039898D01*
X0376906Y0039094D01*
X0386307Y0039094D01*
X0386307Y0038946D01*
X0386184Y0037851D01*
X0385939Y0036778D01*
X0385575Y0035739D01*
X0385097Y0034747D01*
X0384512Y0033814D01*
X0383825Y0032953D01*
X0383047Y0032175D01*
X0382186Y0031488D01*
X0381253Y0030903D01*
X0380261Y0030425D01*
X0379222Y0030061D01*
X0378149Y0029816D01*
X0377054Y0029693D01*
X0376906Y0029693D01*
X0376906Y0039094D01*
X0376102Y0039094D01*
X0376102Y0029693D01*
X0375953Y0029693D01*
X0374859Y0029816D01*
X0373786Y0030061D01*
X0372747Y0030425D01*
X0371754Y0030903D01*
X0370822Y0031488D01*
X0369961Y0032175D01*
X0369183Y0032953D01*
X0368496Y0033814D01*
X0367910Y0034747D01*
X0367433Y0035739D01*
X0367069Y0036778D01*
X0366824Y0037851D01*
X0366701Y0038946D01*
X0366701Y0039094D01*
X0376102Y0039094D01*
X0376102Y0039898D01*
X0366701Y0039898D01*
X0366701Y0040047D01*
X0366824Y0041141D01*
X0367069Y0042214D01*
X0367341Y0042991D01*
X0367184Y0042900D01*
X0364427Y0042161D01*
X0361573Y0042161D01*
X0358816Y0042900D01*
X0358659Y0042991D01*
X0358931Y0042214D01*
X0359176Y0041141D01*
X0359299Y0040047D01*
X0359299Y0039898D01*
X0349898Y0039898D01*
X0349898Y0039094D01*
X0349898Y0029693D01*
X0350047Y0029693D01*
X0351141Y0029816D01*
X0352214Y0030061D01*
X0353253Y0030425D01*
X0354245Y0030903D01*
X0355178Y0031488D01*
X0356039Y0032175D01*
X0356817Y0032953D01*
X0357504Y0033814D01*
X0358090Y0034747D01*
X0358567Y0035739D01*
X0358931Y0036778D01*
X0359176Y0037851D01*
X0359299Y0038946D01*
X0359299Y0039094D01*
X0349898Y0039094D01*
X0349094Y0039094D01*
X0349094Y0029693D01*
X0348946Y0029693D01*
X0347851Y0029816D01*
X0346778Y0030061D01*
X0345739Y0030425D01*
X0344747Y0030903D01*
X0343814Y0031488D01*
X0342953Y0032175D01*
X0342175Y0032953D01*
X0341488Y0033814D01*
X0340903Y0034747D01*
X0340425Y0035739D01*
X0340061Y0036778D01*
X0339816Y0037851D01*
X0339693Y0038946D01*
X0339693Y0039094D01*
X0349094Y0039094D01*
X0349094Y0039898D01*
X0339693Y0039898D01*
X0339693Y0040047D01*
X0339816Y0041141D01*
X0340061Y0042214D01*
X0340425Y0043253D01*
X0340784Y0044000D01*
X0306210Y0044000D01*
X0302902Y0045370D01*
X0302000Y0046272D01*
X0302000Y0046210D01*
X0300630Y0042902D01*
X0290630Y0032902D01*
X0288098Y0030370D01*
X0284790Y0029000D01*
X0268812Y0029000D01*
X0267130Y0028029D01*
X0264409Y0027300D01*
X0261591Y0027300D01*
X0258870Y0028029D01*
X0258000Y0028531D01*
X0257130Y0028029D01*
X0254409Y0027300D01*
X0251591Y0027300D01*
X0248870Y0028029D01*
X0248000Y0028531D01*
X0247130Y0028029D01*
X0244409Y0027300D01*
X0241591Y0027300D01*
X0239467Y0027869D01*
X0238092Y0027300D01*
X0227908Y0027300D01*
X0225335Y0028366D01*
X0224701Y0029000D01*
X0216210Y0029000D01*
X0212902Y0030370D01*
X0190370Y0052902D01*
X0189000Y0056210D01*
X0189000Y0060850D01*
X0186095Y0060850D01*
X0182576Y0062308D01*
X0179883Y0065002D01*
X0178841Y0067517D01*
X0177781Y0068047D01*
X0173655Y0068047D01*
X0171082Y0069113D01*
X0169113Y0071082D01*
X0168047Y0073655D01*
X0168047Y0082345D01*
X0169113Y0084918D01*
X0171082Y0086887D01*
X0173655Y0087953D01*
X0178660Y0087953D01*
X0178425Y0088521D01*
X0178425Y0097479D01*
X0179000Y0098867D01*
X0179000Y0103733D01*
X0177345Y0103047D01*
X0168655Y0103047D01*
X0166082Y0104113D01*
X0164113Y0106082D01*
X0163047Y0108655D01*
X0163047Y0117345D01*
X0164113Y0119918D01*
X0166082Y0121887D01*
X0168655Y0122953D01*
X0177345Y0122953D01*
X0179000Y0122267D01*
X0179000Y0122290D01*
X0180370Y0125598D01*
X0182328Y0127556D01*
X0179883Y0130002D01*
X0178425Y0133521D01*
X0178425Y0142479D01*
X0179883Y0145998D01*
X0181884Y0148000D01*
X0179883Y0150002D01*
X0178425Y0153521D01*
X0178425Y0157025D01*
X0177721Y0158434D01*
X0176082Y0159113D01*
X0174113Y0161082D01*
X0173047Y0163655D01*
X0173047Y0169000D01*
X0171728Y0169000D01*
X0165630Y0162902D01*
X0165630Y0162902D01*
X0163098Y0160370D01*
X0159790Y0159000D01*
X0157827Y0159000D01*
X0158047Y0158825D01*
X0158825Y0158047D01*
X0159512Y0157186D01*
X0160097Y0156253D01*
X0160575Y0155261D01*
X0160939Y0154222D01*
X0161184Y0153149D01*
X0161307Y0152054D01*
X0161307Y0151906D01*
X0151906Y0151906D01*
X0151906Y0151102D01*
X0161307Y0151102D01*
X0161307Y0150953D01*
X0161184Y0149859D01*
X0160939Y0148786D01*
X0160575Y0147747D01*
X0160097Y0146754D01*
X0159512Y0145822D01*
X0158825Y0144961D01*
X0158047Y0144183D01*
X0157186Y0143496D01*
X0156253Y0142910D01*
X0155261Y0142433D01*
X0154222Y0142069D01*
X0153149Y0141824D01*
X0152054Y0141701D01*
X0151906Y0141701D01*
X0151906Y0151102D01*
X0151102Y0151102D01*
X0141701Y0151102D01*
X0141701Y0150953D01*
X0141824Y0149859D01*
X0142069Y0148786D01*
X0142341Y0148009D01*
X0142184Y0148100D01*
X0139427Y0148839D01*
X0136573Y0148839D01*
X0133816Y0148100D01*
X0133659Y0148009D01*
X0133931Y0148786D01*
X0134176Y0149859D01*
X0134299Y0150953D01*
X0134299Y0151102D01*
X0124898Y0151102D01*
X0124898Y0151906D01*
X0134299Y0151906D01*
X0134299Y0152054D01*
X0134176Y0153149D01*
X0133931Y0154222D01*
X0133567Y0155261D01*
X0133090Y0156253D01*
X0132504Y0157186D01*
X0131817Y0158047D01*
X0131039Y0158825D01*
X0130819Y0159000D01*
X0145181Y0159000D01*
X0144961Y0158825D01*
X0144183Y0158047D01*
X0143496Y0157186D01*
X0142910Y0156253D01*
X0142433Y0155261D01*
X0142069Y0154222D01*
X0141824Y0153149D01*
X0141701Y0152054D01*
X0141701Y0151906D01*
X0151102Y0151906D01*
X0151102Y0151102D01*
X0151102Y0141701D01*
X0150953Y0141701D01*
X0149859Y0141824D01*
X0148786Y0142069D01*
X0148009Y0142341D01*
X0148100Y0142184D01*
X0148839Y0139427D01*
X0148839Y0136573D01*
X0148100Y0133816D01*
X0148009Y0133659D01*
X0148786Y0133931D01*
X0149859Y0134176D01*
X0150953Y0134299D01*
X0151102Y0134299D01*
X0151102Y0124898D01*
X0151906Y0124898D01*
X0161307Y0124898D01*
X0161307Y0125047D01*
X0161184Y0126141D01*
X0160939Y0127214D01*
X0160575Y0128253D01*
X0160097Y0129245D01*
X0159512Y0130178D01*
X0158825Y0131039D01*
X0158047Y0131817D01*
X0157186Y0132504D01*
X0156253Y0133090D01*
X0155261Y0133567D01*
X0154222Y0133931D01*
X0153149Y0134176D01*
X0152054Y0134299D01*
X0151906Y0134299D01*
X0151906Y0124898D01*
X0151906Y0124094D01*
X0161307Y0124094D01*
X0161307Y0123946D01*
X0161184Y0122851D01*
X0160939Y0121778D01*
X0160575Y0120739D01*
X0160097Y0119747D01*
X0159512Y0118814D01*
X0158825Y0117953D01*
X0158047Y0117175D01*
X0157186Y0116488D01*
X0156253Y0115903D01*
X0155261Y0115425D01*
X0154222Y0115061D01*
X0153149Y0114816D01*
X0152054Y0114693D01*
X0151906Y0114693D01*
X0151906Y0124094D01*
X0151102Y0124094D01*
X0151102Y0114693D01*
X0150953Y0114693D01*
X0149859Y0114816D01*
X0148786Y0115061D01*
X0147747Y0115425D01*
X0147000Y0115784D01*
X0147000Y0112817D01*
X0157259Y0105977D01*
X0158098Y0105630D01*
X0158734Y0104994D01*
X0159482Y0104495D01*
X0159987Y0103741D01*
X0160630Y0103098D01*
X0160974Y0102267D01*
X0161474Y0101520D01*
X0161652Y0100630D01*
X0162000Y0099790D01*
X0162000Y0098891D01*
X0162176Y0098010D01*
X0162000Y0097118D01*
X0162000Y0036210D01*
X0160630Y0032902D01*
X0158098Y0030370D01*
X0154790Y0029000D01*
X0053319Y0029000D01*
X0051852Y0028896D01*
X0051539Y0029000D01*
X0051210Y0029000D01*
X0049851Y0029563D01*
X0048456Y0030028D01*
X0048207Y0030244D01*
X0047902Y0030370D01*
X0046862Y0031410D01*
X0045751Y0032374D01*
X0045603Y0032669D01*
X0045370Y0032902D01*
X0044807Y0034261D01*
X0040603Y0042669D01*
X0040370Y0042902D01*
X0039807Y0044261D01*
X0039150Y0045576D01*
X0039126Y0045905D01*
X0039000Y0046210D01*
X0039000Y0047681D01*
X0038974Y0048047D01*
X0034163Y0048047D01*
X0033424Y0047308D01*
X0029905Y0045850D01*
X0026095Y0045850D01*
X0022576Y0047308D01*
X0019883Y0050002D01*
X0018434Y0053498D01*
X0017345Y0053047D01*
X0010000Y0053047D01*
X0010000Y0049988D02*
X0019896Y0049988D01*
X0025759Y0045990D02*
X0010000Y0045990D01*
X0010000Y0041991D02*
X0040942Y0041991D01*
X0042941Y0037993D02*
X0010000Y0037993D01*
X0010000Y0033994D02*
X0044918Y0033994D01*
X0048553Y0029996D02*
X0010000Y0029996D01*
X0010000Y0025997D02*
X0014973Y0025997D01*
X0012341Y0021999D02*
X0010000Y0021999D01*
X0010000Y0018000D02*
X0011669Y0018000D01*
X0012341Y0014001D02*
X0010000Y0014001D01*
X0010000Y0010003D02*
X0014973Y0010003D01*
X0031027Y0010003D02*
X0384973Y0010003D01*
X0382341Y0014001D02*
X0033659Y0014001D01*
X0034331Y0018000D02*
X0381669Y0018000D01*
X0382341Y0021999D02*
X0033659Y0021999D01*
X0031027Y0025997D02*
X0384973Y0025997D01*
X0378934Y0029996D02*
X0404701Y0029996D01*
X0404701Y0033994D02*
X0384625Y0033994D01*
X0386200Y0037993D02*
X0404701Y0037993D01*
X0404701Y0041991D02*
X0385990Y0041991D01*
X0383864Y0045990D02*
X0404701Y0045990D01*
X0404701Y0049988D02*
X0373414Y0049988D01*
X0373839Y0053987D02*
X0404701Y0053987D01*
X0404701Y0057985D02*
X0381372Y0057985D01*
X0376906Y0057985D02*
X0376102Y0057985D01*
X0376102Y0061984D02*
X0376906Y0061984D01*
X0376906Y0065982D02*
X0376102Y0065982D01*
X0376102Y0069981D02*
X0376906Y0069981D01*
X0376906Y0073979D02*
X0376102Y0073979D01*
X0382853Y0073979D02*
X0404701Y0073979D01*
X0404701Y0069981D02*
X0385673Y0069981D01*
X0386307Y0065982D02*
X0404701Y0065982D01*
X0404701Y0061984D02*
X0385208Y0061984D01*
X0370155Y0073979D02*
X0355845Y0073979D01*
X0358665Y0069981D02*
X0367335Y0069981D01*
X0366701Y0065982D02*
X0359299Y0065982D01*
X0349898Y0069981D02*
X0349094Y0069981D01*
X0349094Y0073979D02*
X0349898Y0073979D01*
X0343147Y0073979D02*
X0329595Y0073979D01*
X0322709Y0069981D02*
X0340327Y0069981D01*
X0339693Y0065982D02*
X0321523Y0065982D01*
X0313000Y0073000D02*
X0323000Y0083000D01*
X0332953Y0081976D02*
X0404701Y0081976D01*
X0404701Y0077978D02*
X0332672Y0077978D01*
X0332953Y0085975D02*
X0404701Y0085975D01*
X0404701Y0089973D02*
X0331832Y0089973D01*
X0322575Y0093972D02*
X0404701Y0093972D01*
X0404701Y0097970D02*
X0383838Y0097970D01*
X0383825Y0097953D02*
X0384512Y0098814D01*
X0385097Y0099747D01*
X0385575Y0100739D01*
X0385939Y0101778D01*
X0386184Y0102851D01*
X0386307Y0103946D01*
X0386307Y0104094D01*
X0376906Y0104094D01*
X0376906Y0104898D01*
X0386307Y0104898D01*
X0386307Y0105047D01*
X0386184Y0106141D01*
X0385939Y0107214D01*
X0385575Y0108253D01*
X0385097Y0109245D01*
X0384512Y0110178D01*
X0383825Y0111039D01*
X0383047Y0111817D01*
X0382186Y0112504D01*
X0381253Y0113090D01*
X0380261Y0113567D01*
X0379222Y0113931D01*
X0378149Y0114176D01*
X0377054Y0114299D01*
X0376906Y0114299D01*
X0376906Y0104898D01*
X0376102Y0104898D01*
X0376102Y0114299D01*
X0375953Y0114299D01*
X0374859Y0114176D01*
X0373786Y0113931D01*
X0373009Y0113659D01*
X0373100Y0113816D01*
X0373839Y0116573D01*
X0373839Y0119427D01*
X0373100Y0122184D01*
X0373009Y0122341D01*
X0373786Y0122069D01*
X0374859Y0121824D01*
X0375953Y0121701D01*
X0376102Y0121701D01*
X0376102Y0131102D01*
X0376906Y0131102D01*
X0376906Y0131906D01*
X0376102Y0131906D01*
X0376102Y0141307D01*
X0375953Y0141307D01*
X0374859Y0141184D01*
X0373786Y0140939D01*
X0372747Y0140575D01*
X0371754Y0140097D01*
X0370822Y0139512D01*
X0369961Y0138825D01*
X0369183Y0138047D01*
X0368670Y0137404D01*
X0367345Y0137953D01*
X0358655Y0137953D01*
X0357330Y0137404D01*
X0356817Y0138047D01*
X0356039Y0138825D01*
X0355178Y0139512D01*
X0354245Y0140097D01*
X0353253Y0140575D01*
X0352214Y0140939D01*
X0351141Y0141184D01*
X0350047Y0141307D01*
X0349898Y0141307D01*
X0349898Y0131906D01*
X0349094Y0131906D01*
X0349094Y0141307D01*
X0348946Y0141307D01*
X0347851Y0141184D01*
X0346778Y0140939D01*
X0345739Y0140575D01*
X0344747Y0140097D01*
X0343814Y0139512D01*
X0342953Y0138825D01*
X0342175Y0138047D01*
X0341488Y0137186D01*
X0340903Y0136253D01*
X0340425Y0135261D01*
X0340061Y0134222D01*
X0339816Y0133149D01*
X0339693Y0132054D01*
X0339693Y0131906D01*
X0349094Y0131906D01*
X0349094Y0131102D01*
X0339693Y0131102D01*
X0339693Y0130953D01*
X0339816Y0129859D01*
X0340061Y0128786D01*
X0340425Y0127747D01*
X0340903Y0126754D01*
X0341488Y0125822D01*
X0342175Y0124961D01*
X0342953Y0124183D01*
X0343814Y0123496D01*
X0344747Y0122910D01*
X0345739Y0122433D01*
X0346778Y0122069D01*
X0347851Y0121824D01*
X0348946Y0121701D01*
X0349094Y0121701D01*
X0349094Y0131102D01*
X0349898Y0131102D01*
X0349898Y0121701D01*
X0350047Y0121701D01*
X0351141Y0121824D01*
X0352214Y0122069D01*
X0352991Y0122341D01*
X0352900Y0122184D01*
X0352161Y0119427D01*
X0352161Y0116573D01*
X0352900Y0113816D01*
X0352991Y0113659D01*
X0352214Y0113931D01*
X0351141Y0114176D01*
X0350047Y0114299D01*
X0349898Y0114299D01*
X0349898Y0104898D01*
X0359299Y0104898D01*
X0359299Y0105047D01*
X0359176Y0106141D01*
X0358931Y0107214D01*
X0358659Y0107991D01*
X0358816Y0107900D01*
X0361573Y0107161D01*
X0364427Y0107161D01*
X0367184Y0107900D01*
X0367341Y0107991D01*
X0367069Y0107214D01*
X0366824Y0106141D01*
X0366701Y0105047D01*
X0366701Y0104898D01*
X0376102Y0104898D01*
X0376102Y0104094D01*
X0376906Y0104094D01*
X0376906Y0094693D01*
X0377054Y0094693D01*
X0378149Y0094816D01*
X0379222Y0095061D01*
X0380261Y0095425D01*
X0381253Y0095903D01*
X0382186Y0096488D01*
X0383047Y0097175D01*
X0383825Y0097953D01*
X0385982Y0101969D02*
X0404701Y0101969D01*
X0404701Y0105967D02*
X0386203Y0105967D01*
X0384645Y0109966D02*
X0404701Y0109966D01*
X0404701Y0113964D02*
X0379076Y0113964D01*
X0376906Y0113964D02*
X0376102Y0113964D01*
X0373932Y0113964D02*
X0373140Y0113964D01*
X0376102Y0109966D02*
X0376906Y0109966D01*
X0376906Y0105967D02*
X0376102Y0105967D01*
X0376102Y0104094D02*
X0366701Y0104094D01*
X0366701Y0103946D01*
X0366824Y0102851D01*
X0367069Y0101778D01*
X0367433Y0100739D01*
X0367910Y0099747D01*
X0368496Y0098814D01*
X0369183Y0097953D01*
X0369961Y0097175D01*
X0370822Y0096488D01*
X0371754Y0095903D01*
X0372747Y0095425D01*
X0373786Y0095061D01*
X0374859Y0094816D01*
X0375953Y0094693D01*
X0376102Y0094693D01*
X0376102Y0104094D01*
X0376102Y0101969D02*
X0376906Y0101969D01*
X0376906Y0097970D02*
X0376102Y0097970D01*
X0369169Y0097970D02*
X0356831Y0097970D01*
X0356817Y0097953D02*
X0357504Y0098814D01*
X0358090Y0099747D01*
X0358567Y0100739D01*
X0358931Y0101778D01*
X0359176Y0102851D01*
X0359299Y0103946D01*
X0359299Y0104094D01*
X0349898Y0104094D01*
X0349898Y0094693D01*
X0350047Y0094693D01*
X0351141Y0094816D01*
X0352214Y0095061D01*
X0353253Y0095425D01*
X0354245Y0095903D01*
X0355178Y0096488D01*
X0356039Y0097175D01*
X0356817Y0097953D01*
X0358974Y0101969D02*
X0367026Y0101969D01*
X0366805Y0105967D02*
X0359195Y0105967D01*
X0352860Y0113964D02*
X0352068Y0113964D01*
X0349898Y0113964D02*
X0349094Y0113964D01*
X0349094Y0114299D02*
X0348946Y0114299D01*
X0347851Y0114176D01*
X0346778Y0113931D01*
X0345739Y0113567D01*
X0344747Y0113090D01*
X0343814Y0112504D01*
X0342953Y0111817D01*
X0342175Y0111039D01*
X0341488Y0110178D01*
X0340903Y0109245D01*
X0340425Y0108253D01*
X0340061Y0107214D01*
X0339816Y0106141D01*
X0339693Y0105047D01*
X0339693Y0104898D01*
X0349094Y0104898D01*
X0349094Y0104094D01*
X0349898Y0104094D01*
X0349898Y0104898D01*
X0349094Y0104898D01*
X0349094Y0114299D01*
X0346924Y0113964D02*
X0337000Y0113964D01*
X0336485Y0109966D02*
X0341355Y0109966D01*
X0339797Y0105967D02*
X0333695Y0105967D01*
X0329697Y0101969D02*
X0340018Y0101969D01*
X0340061Y0101778D02*
X0340425Y0100739D01*
X0340903Y0099747D01*
X0341488Y0098814D01*
X0342175Y0097953D01*
X0342953Y0097175D01*
X0343814Y0096488D01*
X0344747Y0095903D01*
X0345739Y0095425D01*
X0346778Y0095061D01*
X0347851Y0094816D01*
X0348946Y0094693D01*
X0349094Y0094693D01*
X0349094Y0104094D01*
X0339693Y0104094D01*
X0339693Y0103946D01*
X0339816Y0102851D01*
X0340061Y0101778D01*
X0342162Y0097970D02*
X0325698Y0097970D01*
X0318000Y0103000D02*
X0273000Y0103000D01*
X0273000Y0093000D01*
X0273000Y0103000D02*
X0268000Y0103000D01*
X0278000Y0113000D02*
X0313000Y0113000D01*
X0313000Y0138000D01*
X0303000Y0138000D02*
X0308000Y0148000D01*
X0293000Y0138000D02*
X0288000Y0138000D01*
X0245500Y0095500D01*
X0245500Y0055500D01*
X0253000Y0048000D01*
X0253000Y0038000D01*
X0263000Y0038000D02*
X0283000Y0038000D01*
X0293000Y0048000D01*
X0293000Y0073000D01*
X0303000Y0073000D02*
X0303000Y0058000D01*
X0308000Y0053000D01*
X0363000Y0053000D01*
X0358982Y0041991D02*
X0367018Y0041991D01*
X0366808Y0037993D02*
X0359192Y0037993D01*
X0357617Y0033994D02*
X0368383Y0033994D01*
X0374074Y0029996D02*
X0351926Y0029996D01*
X0349898Y0029996D02*
X0349094Y0029996D01*
X0347066Y0029996D02*
X0287194Y0029996D01*
X0291722Y0033994D02*
X0341375Y0033994D01*
X0339800Y0037993D02*
X0295720Y0037993D01*
X0299719Y0041991D02*
X0340010Y0041991D01*
X0349094Y0037993D02*
X0349898Y0037993D01*
X0349898Y0033994D02*
X0349094Y0033994D01*
X0376102Y0033994D02*
X0376906Y0033994D01*
X0376906Y0029996D02*
X0376102Y0029996D01*
X0376102Y0037993D02*
X0376906Y0037993D01*
X0376906Y0041991D02*
X0376102Y0041991D01*
X0376102Y0045990D02*
X0376906Y0045990D01*
X0401027Y0025997D02*
X0404701Y0025997D01*
X0404701Y0021999D02*
X0403659Y0021999D01*
X0404331Y0018000D02*
X0404701Y0018000D01*
X0404701Y0014001D02*
X0403659Y0014001D01*
X0404701Y0010003D02*
X0401027Y0010003D01*
X0302282Y0045990D02*
X0301909Y0045990D01*
X0280500Y0073000D02*
X0273000Y0073000D01*
X0235500Y0080500D02*
X0228000Y0073000D01*
X0218000Y0073000D02*
X0218000Y0068000D01*
X0228000Y0058000D01*
X0223000Y0048000D02*
X0238000Y0048000D01*
X0243000Y0043000D01*
X0243000Y0038000D01*
X0233000Y0038000D02*
X0218000Y0038000D01*
X0198000Y0058000D01*
X0198000Y0098000D01*
X0188000Y0093000D02*
X0188000Y0113000D01*
X0173000Y0113000D01*
X0163047Y0113964D02*
X0147000Y0113964D01*
X0151276Y0109966D02*
X0163047Y0109966D01*
X0164228Y0105967D02*
X0157283Y0105967D01*
X0161174Y0101969D02*
X0179000Y0101969D01*
X0178629Y0097970D02*
X0162169Y0097970D01*
X0162000Y0093972D02*
X0178425Y0093972D01*
X0178425Y0089973D02*
X0162000Y0089973D01*
X0162000Y0085975D02*
X0170170Y0085975D01*
X0168047Y0081976D02*
X0162000Y0081976D01*
X0162000Y0077978D02*
X0168047Y0077978D01*
X0168047Y0073979D02*
X0162000Y0073979D01*
X0162000Y0069981D02*
X0170214Y0069981D01*
X0162000Y0065982D02*
X0179477Y0065982D01*
X0183360Y0061984D02*
X0162000Y0061984D01*
X0162000Y0057985D02*
X0189000Y0057985D01*
X0189921Y0053987D02*
X0162000Y0053987D01*
X0162000Y0049988D02*
X0193284Y0049988D01*
X0197282Y0045990D02*
X0162000Y0045990D01*
X0162000Y0041991D02*
X0201281Y0041991D01*
X0205280Y0037993D02*
X0162000Y0037993D01*
X0161082Y0033994D02*
X0209278Y0033994D01*
X0213806Y0029996D02*
X0157194Y0029996D01*
X0153000Y0038000D02*
X0153000Y0058000D01*
X0143000Y0058000D01*
X0133000Y0058000D02*
X0128000Y0048000D01*
X0078000Y0048000D01*
X0068000Y0058000D01*
X0058000Y0058000D02*
X0058000Y0068000D01*
X0078000Y0068000D01*
X0078000Y0088000D01*
X0088000Y0098000D01*
X0088000Y0183000D01*
X0073000Y0198000D01*
X0038000Y0198000D01*
X0027161Y0197933D02*
X0010000Y0197933D01*
X0010000Y0201932D02*
X0022381Y0201932D01*
X0024094Y0201932D02*
X0024898Y0201932D01*
X0026612Y0201932D02*
X0027833Y0201932D01*
X0024898Y0205930D02*
X0024094Y0205930D01*
X0024094Y0209929D02*
X0024898Y0209929D01*
X0024898Y0211906D02*
X0034299Y0211906D01*
X0034299Y0212054D01*
X0034176Y0213149D01*
X0033931Y0214222D01*
X0033567Y0215261D01*
X0033090Y0216253D01*
X0032504Y0217186D01*
X0031817Y0218047D01*
X0031039Y0218825D01*
X0030178Y0219512D01*
X0029245Y0220097D01*
X0028253Y0220575D01*
X0027214Y0220939D01*
X0026141Y0221184D01*
X0025047Y0221307D01*
X0024898Y0221307D01*
X0024898Y0211906D01*
X0024898Y0213927D02*
X0024094Y0213927D01*
X0024094Y0217926D02*
X0024898Y0217926D01*
X0031914Y0217926D02*
X0044086Y0217926D01*
X0042002Y0213927D02*
X0033998Y0213927D01*
X0034184Y0209929D02*
X0041816Y0209929D01*
X0051102Y0213927D02*
X0051906Y0213927D01*
X0051906Y0217926D02*
X0051102Y0217926D01*
X0058922Y0217926D02*
X0117078Y0217926D01*
X0114994Y0213927D02*
X0061006Y0213927D01*
X0061192Y0209929D02*
X0114808Y0209929D01*
X0113627Y0205930D02*
X0077373Y0205930D01*
X0081796Y0201932D02*
X0109204Y0201932D01*
X0105205Y0197933D02*
X0085795Y0197933D01*
X0089793Y0193934D02*
X0101207Y0193934D01*
X0097208Y0189936D02*
X0093792Y0189936D01*
X0098000Y0178000D02*
X0118000Y0198000D01*
X0138000Y0198000D01*
X0148167Y0201932D02*
X0149388Y0201932D01*
X0149859Y0201824D02*
X0150953Y0201701D01*
X0151102Y0201701D01*
X0151102Y0211102D01*
X0141701Y0211102D01*
X0141701Y0210953D01*
X0141824Y0209859D01*
X0142069Y0208786D01*
X0142341Y0208009D01*
X0142184Y0208100D01*
X0139427Y0208839D01*
X0136573Y0208839D01*
X0133816Y0208100D01*
X0133659Y0208009D01*
X0133931Y0208786D01*
X0134176Y0209859D01*
X0134299Y0210953D01*
X0134299Y0211102D01*
X0124898Y0211102D01*
X0124898Y0211906D01*
X0134299Y0211906D01*
X0134299Y0212054D01*
X0134176Y0213149D01*
X0133931Y0214222D01*
X0133567Y0215261D01*
X0133090Y0216253D01*
X0132504Y0217186D01*
X0131817Y0218047D01*
X0131039Y0218825D01*
X0130819Y0219000D01*
X0145181Y0219000D01*
X0144961Y0218825D01*
X0144183Y0218047D01*
X0143496Y0217186D01*
X0142910Y0216253D01*
X0142433Y0215261D01*
X0142069Y0214222D01*
X0141824Y0213149D01*
X0141701Y0212054D01*
X0141701Y0211906D01*
X0151102Y0211906D01*
X0151102Y0211102D01*
X0151906Y0211102D01*
X0151906Y0201701D01*
X0152054Y0201701D01*
X0153149Y0201824D01*
X0154222Y0202069D01*
X0155261Y0202433D01*
X0156253Y0202910D01*
X0157186Y0203496D01*
X0158047Y0204183D01*
X0158825Y0204961D01*
X0159512Y0205822D01*
X0160097Y0206754D01*
X0160559Y0207713D01*
X0164000Y0204272D01*
X0164000Y0191210D01*
X0165370Y0187902D01*
X0166272Y0187000D01*
X0166210Y0187000D01*
X0162902Y0185630D01*
X0161307Y0184035D01*
X0161307Y0184094D01*
X0151906Y0184094D01*
X0151906Y0184898D01*
X0161307Y0184898D01*
X0161307Y0185047D01*
X0161184Y0186141D01*
X0160939Y0187214D01*
X0160575Y0188253D01*
X0160097Y0189245D01*
X0159512Y0190178D01*
X0158825Y0191039D01*
X0158047Y0191817D01*
X0157186Y0192504D01*
X0156253Y0193090D01*
X0155261Y0193567D01*
X0154222Y0193931D01*
X0153149Y0194176D01*
X0152054Y0194299D01*
X0151906Y0194299D01*
X0151906Y0184898D01*
X0151102Y0184898D01*
X0151102Y0194299D01*
X0150953Y0194299D01*
X0149859Y0194176D01*
X0148786Y0193931D01*
X0148009Y0193659D01*
X0148100Y0193816D01*
X0148839Y0196573D01*
X0148839Y0199427D01*
X0148100Y0202184D01*
X0148009Y0202341D01*
X0148786Y0202069D01*
X0149859Y0201824D01*
X0151102Y0201932D02*
X0151906Y0201932D01*
X0153619Y0201932D02*
X0164000Y0201932D01*
X0164000Y0197933D02*
X0148839Y0197933D01*
X0148802Y0193934D02*
X0148132Y0193934D01*
X0151102Y0193934D02*
X0151906Y0193934D01*
X0154206Y0193934D02*
X0164000Y0193934D01*
X0164528Y0189936D02*
X0159664Y0189936D01*
X0161207Y0185937D02*
X0163645Y0185937D01*
X0173000Y0193000D02*
X0173000Y0208000D01*
X0153000Y0228000D01*
X0078000Y0228000D01*
X0068047Y0229921D02*
X0010000Y0229921D01*
X0010000Y0233920D02*
X0068699Y0233920D01*
X0073571Y0237918D02*
X0010000Y0237918D01*
X0010000Y0241917D02*
X0154000Y0241917D01*
X0154000Y0245915D02*
X0010000Y0245915D01*
X0010000Y0249914D02*
X0154000Y0249914D01*
X0154000Y0253912D02*
X0029921Y0253912D01*
X0029957Y0253933D02*
X0032067Y0256043D01*
X0033559Y0258627D01*
X0034331Y0261508D01*
X0034331Y0264492D01*
X0033559Y0267373D01*
X0032067Y0269957D01*
X0029957Y0272067D01*
X0027373Y0273559D01*
X0024492Y0274331D01*
X0021508Y0274331D01*
X0018627Y0273559D01*
X0016043Y0272067D01*
X0013933Y0269957D01*
X0012441Y0267373D01*
X0011669Y0264492D01*
X0011669Y0261508D01*
X0012441Y0258627D01*
X0013933Y0256043D01*
X0016043Y0253933D01*
X0018627Y0252441D01*
X0021508Y0251669D01*
X0024492Y0251669D01*
X0027373Y0252441D01*
X0029957Y0253933D01*
X0033145Y0257911D02*
X0149372Y0257911D01*
X0146845Y0261909D02*
X0034331Y0261909D01*
X0033951Y0265908D02*
X0147467Y0265908D01*
X0153688Y0269906D02*
X0032096Y0269906D01*
X0026081Y0273905D02*
X0394919Y0273905D01*
X0388904Y0269906D02*
X0381558Y0269906D01*
X0381253Y0270097D02*
X0380261Y0270575D01*
X0379222Y0270939D01*
X0378149Y0271184D01*
X0377054Y0271307D01*
X0376906Y0271307D01*
X0376906Y0261906D01*
X0376102Y0261906D01*
X0376102Y0271307D01*
X0375953Y0271307D01*
X0374859Y0271184D01*
X0373786Y0270939D01*
X0372747Y0270575D01*
X0371754Y0270097D01*
X0370822Y0269512D01*
X0369961Y0268825D01*
X0369183Y0268047D01*
X0368496Y0267186D01*
X0367910Y0266253D01*
X0367433Y0265261D01*
X0367069Y0264222D01*
X0366824Y0263149D01*
X0366701Y0262054D01*
X0366701Y0261906D01*
X0376102Y0261906D01*
X0376102Y0261102D01*
X0366701Y0261102D01*
X0366701Y0260953D01*
X0366824Y0259859D01*
X0367069Y0258786D01*
X0367341Y0258009D01*
X0367184Y0258100D01*
X0364427Y0258839D01*
X0361573Y0258839D01*
X0358816Y0258100D01*
X0358659Y0258009D01*
X0358931Y0258786D01*
X0359176Y0259859D01*
X0359299Y0260953D01*
X0359299Y0261102D01*
X0349898Y0261102D01*
X0349898Y0261906D01*
X0349094Y0261906D01*
X0349094Y0271307D01*
X0348946Y0271307D01*
X0347851Y0271184D01*
X0346778Y0270939D01*
X0345739Y0270575D01*
X0344747Y0270097D01*
X0343814Y0269512D01*
X0342953Y0268825D01*
X0342175Y0268047D01*
X0341488Y0267186D01*
X0340903Y0266253D01*
X0340425Y0265261D01*
X0340061Y0264222D01*
X0339816Y0263149D01*
X0339693Y0262054D01*
X0339693Y0261906D01*
X0349094Y0261906D01*
X0349094Y0261102D01*
X0339693Y0261102D01*
X0339693Y0260953D01*
X0339816Y0259859D01*
X0340061Y0258786D01*
X0340425Y0257747D01*
X0340784Y0257000D01*
X0329645Y0257000D01*
X0327345Y0257953D01*
X0318655Y0257953D01*
X0316082Y0256887D01*
X0314113Y0254918D01*
X0313047Y0252345D01*
X0313047Y0243655D01*
X0314113Y0241082D01*
X0316082Y0239113D01*
X0318655Y0238047D01*
X0327345Y0238047D01*
X0329645Y0239000D01*
X0340784Y0239000D01*
X0340425Y0238253D01*
X0340061Y0237214D01*
X0339816Y0236141D01*
X0339693Y0235047D01*
X0339693Y0234898D01*
X0349094Y0234898D01*
X0349094Y0234094D01*
X0349898Y0234094D01*
X0349898Y0224693D01*
X0350047Y0224693D01*
X0351141Y0224816D01*
X0352214Y0225061D01*
X0353253Y0225425D01*
X0354245Y0225903D01*
X0355178Y0226488D01*
X0356039Y0227175D01*
X0356817Y0227953D01*
X0357504Y0228814D01*
X0358090Y0229747D01*
X0358567Y0230739D01*
X0358931Y0231778D01*
X0359176Y0232851D01*
X0359299Y0233946D01*
X0359299Y0234094D01*
X0349898Y0234094D01*
X0349898Y0234898D01*
X0359299Y0234898D01*
X0359299Y0235047D01*
X0359176Y0236141D01*
X0358931Y0237214D01*
X0358659Y0237991D01*
X0358816Y0237900D01*
X0361573Y0237161D01*
X0364427Y0237161D01*
X0367184Y0237900D01*
X0367341Y0237991D01*
X0367069Y0237214D01*
X0366824Y0236141D01*
X0366701Y0235047D01*
X0366701Y0234898D01*
X0376102Y0234898D01*
X0376102Y0244299D01*
X0375953Y0244299D01*
X0374859Y0244176D01*
X0373786Y0243931D01*
X0373009Y0243659D01*
X0373100Y0243816D01*
X0373839Y0246573D01*
X0373839Y0249427D01*
X0373100Y0252184D01*
X0373009Y0252341D01*
X0373786Y0252069D01*
X0374859Y0251824D01*
X0375953Y0251701D01*
X0376102Y0251701D01*
X0376102Y0261102D01*
X0376906Y0261102D01*
X0376906Y0261906D01*
X0386307Y0261906D01*
X0386307Y0262054D01*
X0386184Y0263149D01*
X0385939Y0264222D01*
X0385575Y0265261D01*
X0385097Y0266253D01*
X0384512Y0267186D01*
X0383825Y0268047D01*
X0383047Y0268825D01*
X0382186Y0269512D01*
X0381253Y0270097D01*
X0376906Y0269906D02*
X0376102Y0269906D01*
X0371450Y0269906D02*
X0354550Y0269906D01*
X0354245Y0270097D02*
X0353253Y0270575D01*
X0352214Y0270939D01*
X0351141Y0271184D01*
X0350047Y0271307D01*
X0349898Y0271307D01*
X0349898Y0261906D01*
X0359299Y0261906D01*
X0359299Y0262054D01*
X0359176Y0263149D01*
X0358931Y0264222D01*
X0358567Y0265261D01*
X0358090Y0266253D01*
X0357504Y0267186D01*
X0356817Y0268047D01*
X0356039Y0268825D01*
X0355178Y0269512D01*
X0354245Y0270097D01*
X0349898Y0269906D02*
X0349094Y0269906D01*
X0344442Y0269906D02*
X0276226Y0269906D01*
X0278298Y0265908D02*
X0340736Y0265908D01*
X0339693Y0261909D02*
X0278700Y0261909D01*
X0277417Y0257911D02*
X0318553Y0257911D01*
X0313696Y0253912D02*
X0277000Y0253912D01*
X0277000Y0249914D02*
X0313047Y0249914D01*
X0313047Y0245915D02*
X0277600Y0245915D01*
X0277600Y0241917D02*
X0313767Y0241917D01*
X0323000Y0248000D02*
X0363000Y0248000D01*
X0373662Y0245915D02*
X0404701Y0245915D01*
X0404701Y0241917D02*
X0382922Y0241917D01*
X0383047Y0241817D02*
X0382186Y0242504D01*
X0381253Y0243090D01*
X0380261Y0243567D01*
X0379222Y0243931D01*
X0378149Y0244176D01*
X0377054Y0244299D01*
X0376906Y0244299D01*
X0376906Y0234898D01*
X0386307Y0234898D01*
X0386307Y0235047D01*
X0386184Y0236141D01*
X0385939Y0237214D01*
X0385575Y0238253D01*
X0385097Y0239245D01*
X0384512Y0240178D01*
X0383825Y0241039D01*
X0383047Y0241817D01*
X0385692Y0237918D02*
X0404701Y0237918D01*
X0404701Y0233920D02*
X0386304Y0233920D01*
X0386307Y0233946D02*
X0386307Y0234094D01*
X0376906Y0234094D01*
X0376906Y0234898D01*
X0376102Y0234898D01*
X0376102Y0234094D01*
X0376906Y0234094D01*
X0376906Y0224693D01*
X0377054Y0224693D01*
X0378149Y0224816D01*
X0379222Y0225061D01*
X0380261Y0225425D01*
X0381253Y0225903D01*
X0382186Y0226488D01*
X0383047Y0227175D01*
X0383825Y0227953D01*
X0384512Y0228814D01*
X0385097Y0229747D01*
X0385575Y0230739D01*
X0385939Y0231778D01*
X0386184Y0232851D01*
X0386307Y0233946D01*
X0385181Y0229921D02*
X0404701Y0229921D01*
X0404701Y0225923D02*
X0381285Y0225923D01*
X0376906Y0225923D02*
X0376102Y0225923D01*
X0376102Y0224693D02*
X0376102Y0234094D01*
X0366701Y0234094D01*
X0366701Y0233946D01*
X0366824Y0232851D01*
X0367069Y0231778D01*
X0367433Y0230739D01*
X0367910Y0229747D01*
X0368496Y0228814D01*
X0369183Y0227953D01*
X0369961Y0227175D01*
X0370822Y0226488D01*
X0371754Y0225903D01*
X0372747Y0225425D01*
X0373786Y0225061D01*
X0374859Y0224816D01*
X0375953Y0224693D01*
X0376102Y0224693D01*
X0371723Y0225923D02*
X0354277Y0225923D01*
X0349898Y0225923D02*
X0349094Y0225923D01*
X0349094Y0224693D02*
X0349094Y0234094D01*
X0339693Y0234094D01*
X0339693Y0233946D01*
X0339816Y0232851D01*
X0340061Y0231778D01*
X0340425Y0230739D01*
X0340903Y0229747D01*
X0341488Y0228814D01*
X0342175Y0227953D01*
X0342953Y0227175D01*
X0343814Y0226488D01*
X0344747Y0225903D01*
X0345739Y0225425D01*
X0346778Y0225061D01*
X0347851Y0224816D01*
X0348946Y0224693D01*
X0349094Y0224693D01*
X0344715Y0225923D02*
X0184404Y0225923D01*
X0186197Y0229921D02*
X0340819Y0229921D01*
X0339696Y0233920D02*
X0275096Y0233920D01*
X0277363Y0237918D02*
X0340308Y0237918D01*
X0349094Y0233920D02*
X0349898Y0233920D01*
X0349898Y0229921D02*
X0349094Y0229921D01*
X0358174Y0229921D02*
X0367826Y0229921D01*
X0366704Y0233920D02*
X0359296Y0233920D01*
X0358785Y0237918D02*
X0358685Y0237918D01*
X0367215Y0237918D02*
X0367315Y0237918D01*
X0376102Y0237918D02*
X0376906Y0237918D01*
X0376906Y0241917D02*
X0376102Y0241917D01*
X0376102Y0233920D02*
X0376906Y0233920D01*
X0376906Y0229921D02*
X0376102Y0229921D01*
X0373708Y0249914D02*
X0404701Y0249914D01*
X0391079Y0253912D02*
X0382707Y0253912D01*
X0383047Y0254183D02*
X0383825Y0254961D01*
X0384512Y0255822D01*
X0385097Y0256754D01*
X0385575Y0257747D01*
X0385939Y0258786D01*
X0386184Y0259859D01*
X0386307Y0260953D01*
X0386307Y0261102D01*
X0376906Y0261102D01*
X0376906Y0251701D01*
X0377054Y0251701D01*
X0378149Y0251824D01*
X0379222Y0252069D01*
X0380261Y0252433D01*
X0381253Y0252910D01*
X0382186Y0253496D01*
X0383047Y0254183D01*
X0376906Y0253912D02*
X0376102Y0253912D01*
X0376102Y0257911D02*
X0376906Y0257911D01*
X0376906Y0261909D02*
X0376102Y0261909D01*
X0376102Y0265908D02*
X0376906Y0265908D01*
X0385264Y0265908D02*
X0387049Y0265908D01*
X0386669Y0261909D02*
X0386307Y0261909D01*
X0385633Y0257911D02*
X0387855Y0257911D01*
X0367744Y0265908D02*
X0358256Y0265908D01*
X0359299Y0261909D02*
X0366701Y0261909D01*
X0349898Y0261909D02*
X0349094Y0261909D01*
X0349094Y0265908D02*
X0349898Y0265908D01*
X0340367Y0257911D02*
X0327447Y0257911D01*
X0275252Y0221924D02*
X0404701Y0221924D01*
X0404701Y0217926D02*
X0277428Y0217926D01*
X0277600Y0213927D02*
X0404701Y0213927D01*
X0404701Y0209929D02*
X0277600Y0209929D01*
X0277000Y0205930D02*
X0346753Y0205930D01*
X0346778Y0205939D02*
X0345739Y0205575D01*
X0344747Y0205097D01*
X0343814Y0204512D01*
X0342953Y0203825D01*
X0342175Y0203047D01*
X0341488Y0202186D01*
X0340903Y0201253D01*
X0340425Y0200261D01*
X0340061Y0199222D01*
X0339816Y0198149D01*
X0339693Y0197054D01*
X0339693Y0196906D01*
X0349094Y0196906D01*
X0349094Y0206307D01*
X0348946Y0206307D01*
X0347851Y0206184D01*
X0346778Y0205939D01*
X0349094Y0205930D02*
X0349898Y0205930D01*
X0349898Y0206307D02*
X0349898Y0196906D01*
X0349094Y0196906D01*
X0349094Y0196102D01*
X0339693Y0196102D01*
X0339693Y0195953D01*
X0339816Y0194859D01*
X0340061Y0193786D01*
X0340425Y0192747D01*
X0340903Y0191754D01*
X0341488Y0190822D01*
X0342175Y0189961D01*
X0342953Y0189183D01*
X0343814Y0188496D01*
X0344747Y0187910D01*
X0345739Y0187433D01*
X0346778Y0187069D01*
X0347851Y0186824D01*
X0348946Y0186701D01*
X0349094Y0186701D01*
X0349094Y0196102D01*
X0349898Y0196102D01*
X0349898Y0196906D01*
X0359299Y0196906D01*
X0359299Y0197054D01*
X0359176Y0198149D01*
X0358931Y0199222D01*
X0358567Y0200261D01*
X0358090Y0201253D01*
X0357504Y0202186D01*
X0356817Y0203047D01*
X0356039Y0203825D01*
X0355178Y0204512D01*
X0354245Y0205097D01*
X0353253Y0205575D01*
X0352214Y0205939D01*
X0351141Y0206184D01*
X0350047Y0206307D01*
X0349898Y0206307D01*
X0352239Y0205930D02*
X0373761Y0205930D01*
X0373786Y0205939D02*
X0372747Y0205575D01*
X0371754Y0205097D01*
X0370822Y0204512D01*
X0369961Y0203825D01*
X0369183Y0203047D01*
X0368496Y0202186D01*
X0367910Y0201253D01*
X0367433Y0200261D01*
X0367069Y0199222D01*
X0366824Y0198149D01*
X0366701Y0197054D01*
X0366701Y0196906D01*
X0376102Y0196906D01*
X0376102Y0206307D01*
X0375953Y0206307D01*
X0374859Y0206184D01*
X0373786Y0205939D01*
X0376102Y0205930D02*
X0376906Y0205930D01*
X0376906Y0206307D02*
X0376906Y0196906D01*
X0376102Y0196906D01*
X0376102Y0196102D01*
X0366701Y0196102D01*
X0366701Y0195953D01*
X0366824Y0194859D01*
X0367069Y0193786D01*
X0367341Y0193009D01*
X0367184Y0193100D01*
X0364427Y0193839D01*
X0361573Y0193839D01*
X0358816Y0193100D01*
X0358659Y0193009D01*
X0358931Y0193786D01*
X0359176Y0194859D01*
X0359299Y0195953D01*
X0359299Y0196102D01*
X0349898Y0196102D01*
X0349898Y0186701D01*
X0350047Y0186701D01*
X0351141Y0186824D01*
X0352214Y0187069D01*
X0352991Y0187341D01*
X0352900Y0187184D01*
X0352161Y0184427D01*
X0352161Y0181573D01*
X0352900Y0178816D01*
X0352991Y0178659D01*
X0352214Y0178931D01*
X0351141Y0179176D01*
X0350047Y0179299D01*
X0349898Y0179299D01*
X0349898Y0169898D01*
X0359299Y0169898D01*
X0359299Y0170047D01*
X0359176Y0171141D01*
X0358931Y0172214D01*
X0358659Y0172991D01*
X0358816Y0172900D01*
X0361573Y0172161D01*
X0364427Y0172161D01*
X0367184Y0172900D01*
X0367341Y0172991D01*
X0367069Y0172214D01*
X0366824Y0171141D01*
X0366701Y0170047D01*
X0366701Y0169898D01*
X0376102Y0169898D01*
X0376102Y0169094D01*
X0376906Y0169094D01*
X0376906Y0169898D01*
X0386307Y0169898D01*
X0386307Y0170047D01*
X0386184Y0171141D01*
X0385939Y0172214D01*
X0385647Y0173047D01*
X0387345Y0173047D01*
X0389918Y0174113D01*
X0391887Y0176082D01*
X0392953Y0178655D01*
X0392953Y0187345D01*
X0391887Y0189918D01*
X0389918Y0191887D01*
X0387345Y0192953D01*
X0385647Y0192953D01*
X0385939Y0193786D01*
X0386184Y0194859D01*
X0386307Y0195953D01*
X0386307Y0196102D01*
X0376906Y0196102D01*
X0376906Y0196906D01*
X0386307Y0196906D01*
X0386307Y0197054D01*
X0386184Y0198149D01*
X0385939Y0199222D01*
X0385575Y0200261D01*
X0385097Y0201253D01*
X0384512Y0202186D01*
X0383825Y0203047D01*
X0383047Y0203825D01*
X0382186Y0204512D01*
X0381253Y0205097D01*
X0380261Y0205575D01*
X0379222Y0205939D01*
X0378149Y0206184D01*
X0377054Y0206307D01*
X0376906Y0206307D01*
X0379247Y0205930D02*
X0404701Y0205930D01*
X0404701Y0201932D02*
X0384671Y0201932D01*
X0386208Y0197933D02*
X0404701Y0197933D01*
X0404701Y0193934D02*
X0385973Y0193934D01*
X0391869Y0189936D02*
X0404701Y0189936D01*
X0404701Y0185937D02*
X0392953Y0185937D01*
X0392953Y0181939D02*
X0404701Y0181939D01*
X0404701Y0177940D02*
X0392657Y0177940D01*
X0389505Y0173942D02*
X0404701Y0173942D01*
X0404701Y0169943D02*
X0386307Y0169943D01*
X0386307Y0169094D02*
X0376906Y0169094D01*
X0376906Y0159693D01*
X0377054Y0159693D01*
X0378149Y0159816D01*
X0379222Y0160061D01*
X0380261Y0160425D01*
X0381253Y0160903D01*
X0382186Y0161488D01*
X0383047Y0162175D01*
X0383825Y0162953D01*
X0384512Y0163814D01*
X0385097Y0164747D01*
X0385575Y0165739D01*
X0385939Y0166778D01*
X0386184Y0167851D01*
X0386307Y0168946D01*
X0386307Y0169094D01*
X0385647Y0165945D02*
X0404701Y0165945D01*
X0404701Y0161946D02*
X0382760Y0161946D01*
X0376906Y0161946D02*
X0376102Y0161946D01*
X0376102Y0159693D02*
X0376102Y0169094D01*
X0366701Y0169094D01*
X0366701Y0168946D01*
X0366824Y0167851D01*
X0367069Y0166778D01*
X0367433Y0165739D01*
X0367910Y0164747D01*
X0368496Y0163814D01*
X0369183Y0162953D01*
X0369961Y0162175D01*
X0370822Y0161488D01*
X0371754Y0160903D01*
X0372747Y0160425D01*
X0373786Y0160061D01*
X0374859Y0159816D01*
X0375953Y0159693D01*
X0376102Y0159693D01*
X0370248Y0161946D02*
X0355752Y0161946D01*
X0356039Y0162175D02*
X0356817Y0162953D01*
X0357504Y0163814D01*
X0358090Y0164747D01*
X0358567Y0165739D01*
X0358931Y0166778D01*
X0359176Y0167851D01*
X0359299Y0168946D01*
X0359299Y0169094D01*
X0349898Y0169094D01*
X0349898Y0159693D01*
X0350047Y0159693D01*
X0351141Y0159816D01*
X0352214Y0160061D01*
X0353253Y0160425D01*
X0354245Y0160903D01*
X0355178Y0161488D01*
X0356039Y0162175D01*
X0358639Y0165945D02*
X0367361Y0165945D01*
X0366701Y0169943D02*
X0359299Y0169943D01*
X0349898Y0169943D02*
X0349094Y0169943D01*
X0349094Y0169898D02*
X0349094Y0179299D01*
X0348946Y0179299D01*
X0347851Y0179176D01*
X0346778Y0178931D01*
X0345739Y0178567D01*
X0344747Y0178090D01*
X0343814Y0177504D01*
X0342953Y0176817D01*
X0342175Y0176039D01*
X0341488Y0175178D01*
X0340903Y0174245D01*
X0340425Y0173253D01*
X0340061Y0172214D01*
X0339816Y0171141D01*
X0339693Y0170047D01*
X0339693Y0169898D01*
X0349094Y0169898D01*
X0349094Y0169094D01*
X0349898Y0169094D01*
X0349898Y0169898D01*
X0349094Y0169898D01*
X0349094Y0169094D02*
X0339693Y0169094D01*
X0339693Y0168946D01*
X0339816Y0167851D01*
X0340061Y0166778D01*
X0340425Y0165739D01*
X0340903Y0164747D01*
X0341488Y0163814D01*
X0342175Y0162953D01*
X0342953Y0162175D01*
X0343814Y0161488D01*
X0344747Y0160903D01*
X0345739Y0160425D01*
X0346778Y0160061D01*
X0347851Y0159816D01*
X0348946Y0159693D01*
X0349094Y0159693D01*
X0349094Y0169094D01*
X0349094Y0165945D02*
X0349898Y0165945D01*
X0349898Y0161946D02*
X0349094Y0161946D01*
X0343240Y0161946D02*
X0337000Y0161946D01*
X0337000Y0157948D02*
X0404701Y0157948D01*
X0404701Y0153949D02*
X0337000Y0153949D01*
X0337000Y0149951D02*
X0404701Y0149951D01*
X0404701Y0145952D02*
X0337000Y0145952D01*
X0337000Y0141954D02*
X0404701Y0141954D01*
X0404701Y0137955D02*
X0383898Y0137955D01*
X0383825Y0138047D02*
X0383047Y0138825D01*
X0382186Y0139512D01*
X0381253Y0140097D01*
X0380261Y0140575D01*
X0379222Y0140939D01*
X0378149Y0141184D01*
X0377054Y0141307D01*
X0376906Y0141307D01*
X0376906Y0131906D01*
X0386307Y0131906D01*
X0386307Y0132054D01*
X0386184Y0133149D01*
X0385939Y0134222D01*
X0385575Y0135261D01*
X0385097Y0136253D01*
X0384512Y0137186D01*
X0383825Y0138047D01*
X0385999Y0133957D02*
X0404701Y0133957D01*
X0404701Y0129958D02*
X0386195Y0129958D01*
X0386184Y0129859D02*
X0386307Y0130953D01*
X0386307Y0131102D01*
X0376906Y0131102D01*
X0376906Y0121701D01*
X0377054Y0121701D01*
X0378149Y0121824D01*
X0379222Y0122069D01*
X0380261Y0122433D01*
X0381253Y0122910D01*
X0382186Y0123496D01*
X0383047Y0124183D01*
X0383825Y0124961D01*
X0384512Y0125822D01*
X0385097Y0126754D01*
X0385575Y0127747D01*
X0385939Y0128786D01*
X0386184Y0129859D01*
X0384598Y0125960D02*
X0404701Y0125960D01*
X0404701Y0121961D02*
X0378750Y0121961D01*
X0376906Y0121961D02*
X0376102Y0121961D01*
X0374258Y0121961D02*
X0373159Y0121961D01*
X0373839Y0117963D02*
X0404701Y0117963D01*
X0376906Y0125960D02*
X0376102Y0125960D01*
X0376102Y0129958D02*
X0376906Y0129958D01*
X0376906Y0133957D02*
X0376102Y0133957D01*
X0376102Y0137955D02*
X0376906Y0137955D01*
X0369110Y0137955D02*
X0356890Y0137955D01*
X0349898Y0137955D02*
X0349094Y0137955D01*
X0349094Y0133957D02*
X0349898Y0133957D01*
X0349898Y0129958D02*
X0349094Y0129958D01*
X0349094Y0125960D02*
X0349898Y0125960D01*
X0349898Y0121961D02*
X0349094Y0121961D01*
X0347250Y0121961D02*
X0337000Y0121961D01*
X0337000Y0117963D02*
X0352161Y0117963D01*
X0351742Y0121961D02*
X0352841Y0121961D01*
X0363000Y0118000D02*
X0363000Y0128000D01*
X0341402Y0125960D02*
X0337000Y0125960D01*
X0337000Y0129958D02*
X0339805Y0129958D01*
X0340001Y0133957D02*
X0337000Y0133957D01*
X0337000Y0137955D02*
X0342102Y0137955D01*
X0328000Y0113000D02*
X0328000Y0163000D01*
X0323000Y0168000D01*
X0273000Y0168000D01*
X0268000Y0173000D01*
X0268000Y0213000D01*
X0258000Y0213000D02*
X0258000Y0163000D01*
X0262500Y0161500D01*
X0269500Y0161500D01*
X0273000Y0158000D01*
X0280500Y0145500D02*
X0273000Y0138000D01*
X0248000Y0133000D02*
X0235500Y0120500D01*
X0188000Y0120500D01*
X0188000Y0113000D01*
X0180732Y0125960D02*
X0161204Y0125960D01*
X0159650Y0129958D02*
X0179926Y0129958D01*
X0178425Y0133957D02*
X0154109Y0133957D01*
X0151906Y0133957D02*
X0151102Y0133957D01*
X0148899Y0133957D02*
X0148138Y0133957D01*
X0151102Y0129958D02*
X0151906Y0129958D01*
X0151906Y0125960D02*
X0151102Y0125960D01*
X0151102Y0121961D02*
X0151906Y0121961D01*
X0151906Y0117963D02*
X0151102Y0117963D01*
X0158833Y0117963D02*
X0163303Y0117963D01*
X0160981Y0121961D02*
X0166261Y0121961D01*
X0178425Y0137955D02*
X0148839Y0137955D01*
X0149291Y0141954D02*
X0148161Y0141954D01*
X0151102Y0141954D02*
X0151906Y0141954D01*
X0153717Y0141954D02*
X0178425Y0141954D01*
X0179864Y0145952D02*
X0159593Y0145952D01*
X0161194Y0149951D02*
X0179934Y0149951D01*
X0178425Y0153949D02*
X0161001Y0153949D01*
X0158904Y0157948D02*
X0177964Y0157948D01*
X0173755Y0161946D02*
X0164674Y0161946D01*
X0168673Y0165945D02*
X0173047Y0165945D01*
X0183000Y0168000D02*
X0188000Y0158000D01*
X0183000Y0168000D02*
X0233000Y0168000D01*
X0238000Y0173000D01*
X0238000Y0213000D01*
X0228000Y0213000D02*
X0228000Y0178000D01*
X0168000Y0178000D01*
X0158000Y0168000D01*
X0108000Y0168000D01*
X0107000Y0158047D02*
X0112345Y0158047D01*
X0114645Y0159000D01*
X0118173Y0159000D01*
X0117953Y0158825D01*
X0117175Y0158047D01*
X0116488Y0157186D01*
X0115903Y0156253D01*
X0115425Y0155261D01*
X0115061Y0154222D01*
X0114816Y0153149D01*
X0114693Y0152054D01*
X0114693Y0151906D01*
X0124094Y0151906D01*
X0124094Y0151102D01*
X0114693Y0151102D01*
X0114693Y0150953D01*
X0114816Y0149859D01*
X0115061Y0148786D01*
X0115425Y0147747D01*
X0115903Y0146754D01*
X0116488Y0145822D01*
X0117175Y0144961D01*
X0117953Y0144183D01*
X0118814Y0143496D01*
X0119747Y0142910D01*
X0120739Y0142433D01*
X0121778Y0142069D01*
X0122851Y0141824D01*
X0123946Y0141701D01*
X0124094Y0141701D01*
X0124094Y0151102D01*
X0124898Y0151102D01*
X0124898Y0141701D01*
X0125047Y0141701D01*
X0126141Y0141824D01*
X0127214Y0142069D01*
X0127991Y0142341D01*
X0127900Y0142184D01*
X0127161Y0139427D01*
X0127161Y0136573D01*
X0127900Y0133816D01*
X0127991Y0133659D01*
X0127214Y0133931D01*
X0126141Y0134176D01*
X0125047Y0134299D01*
X0124898Y0134299D01*
X0124898Y0124898D01*
X0124094Y0124898D01*
X0124094Y0134299D01*
X0123946Y0134299D01*
X0122851Y0134176D01*
X0121778Y0133931D01*
X0120739Y0133567D01*
X0119747Y0133090D01*
X0118814Y0132504D01*
X0117953Y0131817D01*
X0117175Y0131039D01*
X0116488Y0130178D01*
X0115903Y0129245D01*
X0115425Y0128253D01*
X0115061Y0127214D01*
X0114974Y0126831D01*
X0114918Y0126887D01*
X0112345Y0127953D01*
X0107000Y0127953D01*
X0107000Y0158047D01*
X0107000Y0157948D02*
X0117096Y0157948D01*
X0114999Y0153949D02*
X0107000Y0153949D01*
X0107000Y0149951D02*
X0114806Y0149951D01*
X0116407Y0145952D02*
X0107000Y0145952D01*
X0107000Y0141954D02*
X0122283Y0141954D01*
X0124094Y0141954D02*
X0124898Y0141954D01*
X0126709Y0141954D02*
X0127839Y0141954D01*
X0127161Y0137955D02*
X0107000Y0137955D01*
X0107000Y0133957D02*
X0121891Y0133957D01*
X0124094Y0133957D02*
X0124898Y0133957D01*
X0127101Y0133957D02*
X0127862Y0133957D01*
X0124898Y0129958D02*
X0124094Y0129958D01*
X0124094Y0125960D02*
X0124898Y0125960D01*
X0124898Y0124094D02*
X0124898Y0114693D01*
X0125047Y0114693D01*
X0126141Y0114816D01*
X0127214Y0115061D01*
X0128253Y0115425D01*
X0129000Y0115784D01*
X0129000Y0108882D01*
X0128824Y0107990D01*
X0129000Y0107109D01*
X0129000Y0106210D01*
X0129348Y0105370D01*
X0129526Y0104480D01*
X0130026Y0103733D01*
X0130370Y0102902D01*
X0131013Y0102259D01*
X0131518Y0101505D01*
X0132266Y0101006D01*
X0132902Y0100370D01*
X0133741Y0100022D01*
X0144000Y0093183D01*
X0144000Y0090150D01*
X0141095Y0090150D01*
X0138000Y0088867D01*
X0137953Y0088887D01*
X0137953Y0092345D01*
X0136887Y0094918D01*
X0134918Y0096887D01*
X0132345Y0097953D01*
X0123655Y0097953D01*
X0123000Y0097681D01*
X0122345Y0097953D01*
X0117000Y0097953D01*
X0117000Y0111355D01*
X0117953Y0113655D01*
X0117953Y0117176D01*
X0117953Y0117175D01*
X0118814Y0116488D01*
X0119747Y0115903D01*
X0120739Y0115425D01*
X0121778Y0115061D01*
X0122851Y0114816D01*
X0123946Y0114693D01*
X0124094Y0114693D01*
X0124094Y0124094D01*
X0124898Y0124094D01*
X0124898Y0121961D02*
X0124094Y0121961D01*
X0124094Y0117963D02*
X0124898Y0117963D01*
X0129000Y0113964D02*
X0117953Y0113964D01*
X0117000Y0109966D02*
X0129000Y0109966D01*
X0129100Y0105967D02*
X0117000Y0105967D01*
X0117000Y0101969D02*
X0131207Y0101969D01*
X0136820Y0097970D02*
X0117000Y0097970D01*
X0118000Y0088000D02*
X0123000Y0078000D01*
X0133000Y0078000D02*
X0128000Y0088000D01*
X0137953Y0089973D02*
X0140670Y0089973D01*
X0142817Y0093972D02*
X0137279Y0093972D01*
X0138000Y0108000D02*
X0153000Y0098000D01*
X0153000Y0058000D01*
X0138000Y0068000D02*
X0123000Y0068000D01*
X0123000Y0058000D01*
X0110500Y0058000D02*
X0103000Y0058000D01*
X0088000Y0063000D02*
X0103000Y0078000D01*
X0108000Y0083000D01*
X0108000Y0118000D01*
X0107000Y0129958D02*
X0116350Y0129958D01*
X0138000Y0138000D02*
X0138000Y0108000D01*
X0143000Y0078000D02*
X0143000Y0073000D01*
X0138000Y0068000D01*
X0153000Y0038000D02*
X0053000Y0038000D01*
X0048000Y0048000D01*
X0048000Y0058000D01*
X0035500Y0058000D02*
X0028000Y0058000D01*
X0013000Y0063000D02*
X0028000Y0078000D01*
X0013000Y0093000D01*
X0013000Y0098000D01*
X0022953Y0097970D02*
X0029000Y0097970D01*
X0029000Y0101969D02*
X0022953Y0101969D01*
X0020838Y0105967D02*
X0029000Y0105967D01*
X0029000Y0109966D02*
X0010000Y0109966D01*
X0010000Y0113964D02*
X0029000Y0113964D01*
X0024898Y0117963D02*
X0024094Y0117963D01*
X0024094Y0121961D02*
X0024898Y0121961D01*
X0024898Y0125960D02*
X0024094Y0125960D01*
X0024094Y0129958D02*
X0024898Y0129958D01*
X0024898Y0133957D02*
X0024094Y0133957D01*
X0021891Y0133957D02*
X0010000Y0133957D01*
X0010000Y0129958D02*
X0016350Y0129958D01*
X0014796Y0125960D02*
X0010000Y0125960D01*
X0010000Y0121961D02*
X0015019Y0121961D01*
X0017167Y0117963D02*
X0010000Y0117963D01*
X0027101Y0133957D02*
X0027862Y0133957D01*
X0027161Y0137955D02*
X0010000Y0137955D01*
X0010000Y0141954D02*
X0022283Y0141954D01*
X0024094Y0141954D02*
X0024898Y0141954D01*
X0026709Y0141954D02*
X0027839Y0141954D01*
X0024898Y0145952D02*
X0024094Y0145952D01*
X0024094Y0149951D02*
X0024898Y0149951D01*
X0024898Y0151906D02*
X0034299Y0151906D01*
X0034299Y0152054D01*
X0034176Y0153149D01*
X0033931Y0154222D01*
X0033567Y0155261D01*
X0033090Y0156253D01*
X0032504Y0157186D01*
X0031817Y0158047D01*
X0031039Y0158825D01*
X0030178Y0159512D01*
X0029245Y0160097D01*
X0028253Y0160575D01*
X0027214Y0160939D01*
X0026141Y0161184D01*
X0025047Y0161307D01*
X0024898Y0161307D01*
X0024898Y0151906D01*
X0024898Y0153949D02*
X0024094Y0153949D01*
X0024094Y0157948D02*
X0024898Y0157948D01*
X0031896Y0157948D02*
X0044104Y0157948D01*
X0042007Y0153949D02*
X0033993Y0153949D01*
X0034186Y0149951D02*
X0041814Y0149951D01*
X0051102Y0149951D02*
X0051906Y0149951D01*
X0051906Y0153949D02*
X0051102Y0153949D01*
X0051102Y0157948D02*
X0051906Y0157948D01*
X0058904Y0157948D02*
X0079000Y0157948D01*
X0079000Y0161946D02*
X0010000Y0161946D01*
X0010000Y0157948D02*
X0017096Y0157948D01*
X0014999Y0153949D02*
X0010000Y0153949D01*
X0010000Y0149951D02*
X0014806Y0149951D01*
X0016407Y0145952D02*
X0010000Y0145952D01*
X0010000Y0165945D02*
X0079000Y0165945D01*
X0079000Y0169943D02*
X0010000Y0169943D01*
X0010000Y0173942D02*
X0079000Y0173942D01*
X0079000Y0177940D02*
X0058812Y0177940D01*
X0060976Y0181939D02*
X0076333Y0181939D01*
X0072335Y0185937D02*
X0061207Y0185937D01*
X0051906Y0181939D02*
X0051102Y0181939D01*
X0051102Y0177940D02*
X0051906Y0177940D01*
X0044196Y0177940D02*
X0031804Y0177940D01*
X0033968Y0181939D02*
X0042032Y0181939D01*
X0041801Y0185937D02*
X0034199Y0185937D01*
X0024898Y0185937D02*
X0024094Y0185937D01*
X0024094Y0189936D02*
X0024898Y0189936D01*
X0024898Y0193934D02*
X0024094Y0193934D01*
X0021794Y0193934D02*
X0010000Y0193934D01*
X0010000Y0189936D02*
X0016336Y0189936D01*
X0014793Y0185937D02*
X0010000Y0185937D01*
X0010000Y0181939D02*
X0015024Y0181939D01*
X0017188Y0177940D02*
X0010000Y0177940D01*
X0024094Y0177940D02*
X0024898Y0177940D01*
X0024898Y0181939D02*
X0024094Y0181939D01*
X0027198Y0193934D02*
X0027868Y0193934D01*
X0016421Y0205930D02*
X0010000Y0205930D01*
X0010000Y0209929D02*
X0014808Y0209929D01*
X0014994Y0213927D02*
X0010000Y0213927D01*
X0010000Y0217926D02*
X0017078Y0217926D01*
X0010000Y0221924D02*
X0068764Y0221924D01*
X0068047Y0225923D02*
X0010000Y0225923D01*
X0010000Y0253912D02*
X0016079Y0253912D01*
X0012855Y0257911D02*
X0010000Y0257911D01*
X0010000Y0261909D02*
X0011669Y0261909D01*
X0012049Y0265908D02*
X0010000Y0265908D01*
X0010000Y0269906D02*
X0013904Y0269906D01*
X0010000Y0273905D02*
X0019919Y0273905D01*
X0082429Y0237918D02*
X0153285Y0237918D01*
X0163000Y0233000D02*
X0175500Y0233000D01*
X0186500Y0233920D02*
X0190904Y0233920D01*
X0188000Y0237918D02*
X0188000Y0237918D01*
X0188000Y0241917D02*
X0188000Y0241917D01*
X0188000Y0249914D02*
X0188000Y0249914D01*
X0184410Y0249914D02*
X0180552Y0249914D01*
X0188659Y0253912D02*
X0192981Y0253912D01*
X0193000Y0257911D02*
X0193000Y0257911D01*
X0197373Y0257911D02*
X0218583Y0257911D01*
X0217300Y0261909D02*
X0199614Y0261909D01*
X0199048Y0265908D02*
X0217702Y0265908D01*
X0219774Y0269906D02*
X0191226Y0269906D01*
X0183000Y0263000D02*
X0163000Y0248000D01*
X0163000Y0233000D01*
X0183000Y0213000D01*
X0188000Y0213000D01*
X0162342Y0205930D02*
X0159579Y0205930D01*
X0151906Y0205930D02*
X0151102Y0205930D01*
X0151102Y0209929D02*
X0151906Y0209929D01*
X0141816Y0209929D02*
X0134184Y0209929D01*
X0133998Y0213927D02*
X0142002Y0213927D01*
X0144086Y0217926D02*
X0131914Y0217926D01*
X0163000Y0233000D02*
X0163000Y0263000D01*
X0172312Y0269906D02*
X0174774Y0269906D01*
X0228000Y0263000D02*
X0228000Y0243000D01*
X0238000Y0243000D02*
X0238000Y0263000D01*
X0248000Y0263000D02*
X0248000Y0243000D01*
X0258000Y0243000D02*
X0258000Y0263000D01*
X0268000Y0263000D02*
X0268000Y0243000D01*
X0248000Y0213000D02*
X0248000Y0133000D01*
X0235500Y0140500D02*
X0233000Y0138000D01*
X0228000Y0138000D01*
X0218000Y0138000D02*
X0218000Y0148000D01*
X0208000Y0138000D02*
X0208000Y0128000D01*
X0198000Y0135500D02*
X0195500Y0138000D01*
X0188000Y0138000D01*
X0151906Y0145952D02*
X0151102Y0145952D01*
X0151102Y0149951D02*
X0151906Y0149951D01*
X0141814Y0149951D02*
X0134186Y0149951D01*
X0133993Y0153949D02*
X0142007Y0153949D01*
X0144104Y0157948D02*
X0131896Y0157948D01*
X0124898Y0149951D02*
X0124094Y0149951D01*
X0124094Y0145952D02*
X0124898Y0145952D01*
X0130819Y0177000D02*
X0131039Y0177175D01*
X0131817Y0177953D01*
X0132504Y0178814D01*
X0133090Y0179747D01*
X0133567Y0180739D01*
X0133931Y0181778D01*
X0134176Y0182851D01*
X0134299Y0183946D01*
X0134299Y0184094D01*
X0124898Y0184094D01*
X0124898Y0184898D01*
X0134299Y0184898D01*
X0134299Y0185047D01*
X0134176Y0186141D01*
X0133931Y0187214D01*
X0133659Y0187991D01*
X0133816Y0187900D01*
X0136573Y0187161D01*
X0139427Y0187161D01*
X0142184Y0187900D01*
X0142341Y0187991D01*
X0142069Y0187214D01*
X0141824Y0186141D01*
X0141701Y0185047D01*
X0141701Y0184898D01*
X0151102Y0184898D01*
X0151102Y0184094D01*
X0141701Y0184094D01*
X0141701Y0183946D01*
X0141824Y0182851D01*
X0142069Y0181778D01*
X0142433Y0180739D01*
X0142910Y0179747D01*
X0143496Y0178814D01*
X0144183Y0177953D01*
X0144961Y0177175D01*
X0145181Y0177000D01*
X0130819Y0177000D01*
X0131804Y0177940D02*
X0144196Y0177940D01*
X0142032Y0181939D02*
X0133968Y0181939D01*
X0134199Y0185937D02*
X0141801Y0185937D01*
X0151102Y0185937D02*
X0151906Y0185937D01*
X0151906Y0189936D02*
X0151102Y0189936D01*
X0173000Y0193000D02*
X0178000Y0188000D01*
X0218000Y0188000D01*
X0218000Y0213000D01*
X0277000Y0201932D02*
X0341329Y0201932D01*
X0339792Y0197933D02*
X0277000Y0197933D01*
X0277000Y0193934D02*
X0340027Y0193934D01*
X0342200Y0189936D02*
X0277000Y0189936D01*
X0277000Y0185937D02*
X0352566Y0185937D01*
X0349898Y0189936D02*
X0349094Y0189936D01*
X0349094Y0193934D02*
X0349898Y0193934D01*
X0349898Y0197933D02*
X0349094Y0197933D01*
X0349094Y0201932D02*
X0349898Y0201932D01*
X0357663Y0201932D02*
X0368337Y0201932D01*
X0366800Y0197933D02*
X0359200Y0197933D01*
X0358965Y0193934D02*
X0367035Y0193934D01*
X0376102Y0197933D02*
X0376906Y0197933D01*
X0376906Y0201932D02*
X0376102Y0201932D01*
X0383000Y0183000D02*
X0363000Y0183000D01*
X0352161Y0181939D02*
X0277000Y0181939D01*
X0277000Y0177940D02*
X0344509Y0177940D01*
X0349094Y0177940D02*
X0349898Y0177940D01*
X0349898Y0173942D02*
X0349094Y0173942D01*
X0340756Y0173942D02*
X0329786Y0173942D01*
X0333784Y0169943D02*
X0339693Y0169943D01*
X0340353Y0165945D02*
X0336522Y0165945D01*
X0376102Y0165945D02*
X0376906Y0165945D01*
X0328000Y0113000D02*
X0318000Y0103000D01*
X0349094Y0101969D02*
X0349898Y0101969D01*
X0349898Y0097970D02*
X0349094Y0097970D01*
X0349094Y0105967D02*
X0349898Y0105967D01*
X0349898Y0109966D02*
X0349094Y0109966D01*
X0235500Y0113000D02*
X0235500Y0080500D01*
X0208000Y0073000D02*
X0208000Y0063000D01*
X0223000Y0048000D01*
X0188000Y0073000D02*
X0178000Y0078000D01*
X0098000Y0098000D02*
X0098000Y0178000D01*
X0079000Y0153949D02*
X0061001Y0153949D01*
X0061194Y0149951D02*
X0079000Y0149951D01*
X0079000Y0145952D02*
X0059593Y0145952D01*
X0053717Y0141954D02*
X0079000Y0141954D01*
X0079000Y0137955D02*
X0048839Y0137955D01*
X0049291Y0141954D02*
X0048161Y0141954D01*
X0051102Y0141954D02*
X0051906Y0141954D01*
X0051906Y0145952D02*
X0051102Y0145952D01*
X0038000Y0138000D02*
X0038000Y0093000D01*
X0058000Y0093000D01*
X0058000Y0078000D01*
X0068000Y0078000D02*
X0068000Y0088000D01*
X0073000Y0093000D01*
X0073000Y0103000D01*
X0078000Y0108000D01*
X0067238Y0109966D02*
X0047000Y0109966D01*
X0047000Y0113964D02*
X0068718Y0113964D01*
X0064488Y0105967D02*
X0047000Y0105967D01*
X0059866Y0101969D02*
X0064000Y0101969D01*
X0058833Y0117963D02*
X0079000Y0117963D01*
X0079000Y0121961D02*
X0060981Y0121961D01*
X0061204Y0125960D02*
X0079000Y0125960D01*
X0079000Y0129958D02*
X0059650Y0129958D01*
X0054109Y0133957D02*
X0079000Y0133957D01*
X0051906Y0133957D02*
X0051102Y0133957D01*
X0048899Y0133957D02*
X0048138Y0133957D01*
X0051102Y0129958D02*
X0051906Y0129958D01*
X0051906Y0125960D02*
X0051102Y0125960D01*
X0051102Y0121961D02*
X0051906Y0121961D01*
X0051906Y0117963D02*
X0051102Y0117963D01*
X0029000Y0093972D02*
X0024756Y0093972D01*
X0048000Y0085500D02*
X0048000Y0078000D01*
X0039091Y0045990D02*
X0030241Y0045990D01*
X0401081Y0273905D02*
X0404701Y0273905D01*
D20*
X0323000Y0248000D03*
X0383000Y0183000D03*
X0308000Y0148000D03*
X0280500Y0145500D03*
X0262500Y0161500D03*
X0235500Y0140500D03*
X0218000Y0148000D03*
X0198000Y0135500D03*
X0208000Y0128000D03*
X0235500Y0113000D03*
X0268000Y0103000D03*
X0278000Y0113000D03*
X0313000Y0113000D03*
X0323000Y0083000D03*
X0280500Y0073000D03*
X0235500Y0080500D03*
X0228000Y0058000D03*
X0178000Y0078000D03*
X0198000Y0098000D03*
X0173000Y0113000D03*
X0128000Y0088000D03*
X0118000Y0088000D03*
X0098000Y0098000D03*
X0078000Y0108000D03*
X0108000Y0118000D03*
X0048000Y0085500D03*
X0013000Y0098000D03*
X0013000Y0063000D03*
X0035500Y0058000D03*
X0088000Y0063000D03*
X0110500Y0058000D03*
X0123000Y0068000D03*
X0108000Y0168000D03*
X0183000Y0168000D03*
X0163000Y0233000D03*
X0078000Y0228000D03*
X0363000Y0128000D03*
M02*
