G75*
%MOIN*%
%OFA0B0*%
%FSLAX25Y25*%
%IPPOS*%
%LPD*%
%AMOC8*
5,1,8,0,0,1.08239X$1,22.5*
%
%ADD10C,0.00800*%
%ADD11C,0.00100*%
%ADD12C,0.00600*%
%ADD13C,0.00500*%
%ADD14C,0.00400*%
%ADD15R,0.03000X0.01800*%
%ADD16R,0.01800X0.03000*%
%ADD17C,0.01000*%
D10*
X0033551Y0034063D02*
X0033551Y0041937D01*
X0039063Y0041937D01*
X0041819Y0040756D02*
X0041819Y0038000D01*
X0044181Y0040362D01*
X0044181Y0035638D01*
X0041819Y0038000D01*
X0041819Y0035244D01*
X0039063Y0034063D02*
X0033551Y0034063D01*
X0046937Y0034063D02*
X0052449Y0034063D01*
X0052449Y0041937D01*
X0046937Y0041937D01*
X0023984Y0053827D02*
X0023984Y0082173D01*
X0081858Y0082173D01*
X0081858Y0053827D01*
X0023984Y0053827D01*
X0015559Y0079457D02*
X0015559Y0084969D01*
X0010441Y0084969D01*
X0010441Y0079457D01*
X0010441Y0084969D02*
X0010441Y0086543D01*
X0015559Y0086543D02*
X0015559Y0084969D01*
X0085441Y0084969D02*
X0085441Y0079457D01*
X0090559Y0079457D02*
X0090559Y0084969D01*
X0085441Y0084969D01*
X0085441Y0086543D01*
X0090559Y0086543D02*
X0090559Y0084969D01*
X0098984Y0082173D02*
X0098984Y0053827D01*
X0156858Y0053827D01*
X0156858Y0082173D01*
X0098984Y0082173D01*
X0108551Y0041937D02*
X0114063Y0041937D01*
X0116819Y0040756D02*
X0116819Y0038000D01*
X0119181Y0040362D01*
X0119181Y0035638D01*
X0116819Y0038000D01*
X0116819Y0035244D01*
X0114063Y0034063D02*
X0108551Y0034063D01*
X0108551Y0041937D01*
X0121937Y0041937D02*
X0127449Y0041937D01*
X0127449Y0034063D01*
X0121937Y0034063D01*
X0176051Y0054063D02*
X0176051Y0061937D01*
X0181563Y0061937D01*
X0184319Y0060756D02*
X0184319Y0058000D01*
X0186681Y0060362D01*
X0186681Y0055638D01*
X0184319Y0058000D01*
X0184319Y0055244D01*
X0181563Y0054063D02*
X0176051Y0054063D01*
X0189437Y0054063D02*
X0194949Y0054063D01*
X0194949Y0061937D01*
X0189437Y0061937D01*
X0183984Y0068827D02*
X0183984Y0097173D01*
X0241858Y0097173D01*
X0241858Y0068827D01*
X0183984Y0068827D01*
X0180559Y0084457D02*
X0180559Y0086031D01*
X0175441Y0086031D01*
X0175441Y0091543D01*
X0180559Y0091543D02*
X0180559Y0086031D01*
X0175441Y0086031D02*
X0175441Y0084457D01*
X0176051Y0119063D02*
X0176051Y0126937D01*
X0181563Y0126937D01*
X0184319Y0125756D02*
X0184319Y0123000D01*
X0186681Y0125362D01*
X0186681Y0120638D01*
X0184319Y0123000D01*
X0184319Y0120244D01*
X0181563Y0119063D02*
X0176051Y0119063D01*
X0189437Y0119063D02*
X0194949Y0119063D01*
X0194949Y0126937D01*
X0189437Y0126937D01*
X0183984Y0133827D02*
X0183984Y0162173D01*
X0241858Y0162173D01*
X0241858Y0133827D01*
X0183984Y0133827D01*
X0180559Y0154457D02*
X0180559Y0156031D01*
X0175441Y0156031D01*
X0175441Y0161543D01*
X0180559Y0161543D02*
X0180559Y0156031D01*
X0175441Y0156031D02*
X0175441Y0154457D01*
X0260441Y0151543D02*
X0260441Y0146031D01*
X0265559Y0146031D01*
X0265559Y0151543D01*
X0265559Y0146031D02*
X0265559Y0144457D01*
X0260441Y0144457D02*
X0260441Y0146031D01*
X0268984Y0133827D02*
X0268984Y0162173D01*
X0326858Y0162173D01*
X0326858Y0133827D01*
X0268984Y0133827D01*
X0266563Y0126937D02*
X0261051Y0126937D01*
X0261051Y0119063D01*
X0266563Y0119063D01*
X0269319Y0120244D02*
X0269319Y0123000D01*
X0271681Y0125362D01*
X0271681Y0120638D01*
X0269319Y0123000D01*
X0269319Y0125756D01*
X0274437Y0126937D02*
X0279949Y0126937D01*
X0279949Y0119063D01*
X0274437Y0119063D01*
X0268984Y0097173D02*
X0268984Y0068827D01*
X0326858Y0068827D01*
X0326858Y0097173D01*
X0268984Y0097173D01*
X0265559Y0096543D02*
X0265559Y0091031D01*
X0260441Y0091031D01*
X0260441Y0096543D01*
X0260441Y0091031D02*
X0260441Y0089457D01*
X0265559Y0089457D02*
X0265559Y0091031D01*
X0266563Y0061937D02*
X0261051Y0061937D01*
X0261051Y0054063D01*
X0266563Y0054063D01*
X0269319Y0055244D02*
X0269319Y0058000D01*
X0271681Y0060362D01*
X0271681Y0055638D01*
X0269319Y0058000D01*
X0269319Y0060756D01*
X0274437Y0061937D02*
X0279949Y0061937D01*
X0279949Y0054063D01*
X0274437Y0054063D01*
X0265500Y0043000D02*
X0260500Y0043000D01*
X0258000Y0040500D01*
X0255500Y0043000D01*
X0250500Y0043000D01*
X0248000Y0040500D01*
X0245500Y0043000D01*
X0240500Y0043000D01*
X0238000Y0040500D01*
X0235500Y0043000D01*
X0230500Y0043000D01*
X0228000Y0040500D01*
X0228000Y0035500D01*
X0230500Y0033000D01*
X0235500Y0033000D01*
X0238000Y0035500D01*
X0240500Y0033000D01*
X0245500Y0033000D01*
X0248000Y0035500D01*
X0250500Y0033000D01*
X0255500Y0033000D01*
X0258000Y0035500D01*
X0260500Y0033000D01*
X0265500Y0033000D01*
X0268000Y0035500D01*
X0268000Y0040500D01*
X0265500Y0043000D01*
X0265500Y0258000D02*
X0263000Y0260500D01*
X0260500Y0258000D01*
X0255500Y0258000D01*
X0253000Y0260500D01*
X0250500Y0258000D01*
X0245500Y0258000D01*
X0243000Y0260500D01*
X0240500Y0258000D01*
X0235500Y0258000D01*
X0233000Y0260500D01*
X0230500Y0258000D01*
X0225500Y0258000D01*
X0223000Y0260500D01*
X0223000Y0265500D01*
X0225500Y0268000D01*
X0230500Y0268000D01*
X0233000Y0265500D01*
X0235500Y0268000D01*
X0240500Y0268000D01*
X0243000Y0265500D01*
X0245500Y0268000D01*
X0250500Y0268000D01*
X0253000Y0265500D01*
X0255500Y0268000D01*
X0260500Y0268000D01*
X0263000Y0265500D01*
X0265500Y0268000D01*
X0270500Y0268000D01*
X0273000Y0265500D01*
X0273000Y0260500D01*
X0270500Y0258000D01*
X0265500Y0258000D01*
X0198000Y0260500D02*
X0195500Y0258000D01*
X0190500Y0258000D01*
X0188000Y0260500D01*
X0185500Y0258000D01*
X0180500Y0258000D01*
X0178000Y0260500D01*
X0178000Y0265500D01*
X0180500Y0268000D01*
X0185500Y0268000D01*
X0188000Y0265500D01*
X0190500Y0268000D01*
X0195500Y0268000D01*
X0198000Y0265500D01*
X0198000Y0260500D01*
X0145205Y0263000D02*
X0145209Y0263314D01*
X0145220Y0263628D01*
X0145240Y0263941D01*
X0145267Y0264254D01*
X0145301Y0264566D01*
X0145343Y0264877D01*
X0145393Y0265187D01*
X0145451Y0265496D01*
X0145516Y0265803D01*
X0145588Y0266109D01*
X0145668Y0266413D01*
X0145756Y0266714D01*
X0145851Y0267014D01*
X0145953Y0267311D01*
X0146062Y0267605D01*
X0146179Y0267896D01*
X0146303Y0268185D01*
X0146433Y0268471D01*
X0146571Y0268753D01*
X0146716Y0269032D01*
X0146867Y0269307D01*
X0147025Y0269578D01*
X0147190Y0269845D01*
X0147361Y0270109D01*
X0147539Y0270367D01*
X0147723Y0270622D01*
X0147913Y0270872D01*
X0148109Y0271117D01*
X0148312Y0271357D01*
X0148520Y0271593D01*
X0148733Y0271823D01*
X0148953Y0272047D01*
X0149177Y0272267D01*
X0149407Y0272480D01*
X0149643Y0272688D01*
X0149883Y0272891D01*
X0150128Y0273087D01*
X0150378Y0273277D01*
X0150633Y0273461D01*
X0150891Y0273639D01*
X0151155Y0273810D01*
X0151422Y0273975D01*
X0151693Y0274133D01*
X0151968Y0274284D01*
X0152247Y0274429D01*
X0152529Y0274567D01*
X0152815Y0274697D01*
X0153104Y0274821D01*
X0153395Y0274938D01*
X0153689Y0275047D01*
X0153986Y0275149D01*
X0154286Y0275244D01*
X0154587Y0275332D01*
X0154891Y0275412D01*
X0155197Y0275484D01*
X0155504Y0275549D01*
X0155813Y0275607D01*
X0156123Y0275657D01*
X0156434Y0275699D01*
X0156746Y0275733D01*
X0157059Y0275760D01*
X0157372Y0275780D01*
X0157686Y0275791D01*
X0158000Y0275795D01*
X0158314Y0275791D01*
X0158628Y0275780D01*
X0158941Y0275760D01*
X0159254Y0275733D01*
X0159566Y0275699D01*
X0159877Y0275657D01*
X0160187Y0275607D01*
X0160496Y0275549D01*
X0160803Y0275484D01*
X0161109Y0275412D01*
X0161413Y0275332D01*
X0161714Y0275244D01*
X0162014Y0275149D01*
X0162311Y0275047D01*
X0162605Y0274938D01*
X0162896Y0274821D01*
X0163185Y0274697D01*
X0163471Y0274567D01*
X0163753Y0274429D01*
X0164032Y0274284D01*
X0164307Y0274133D01*
X0164578Y0273975D01*
X0164845Y0273810D01*
X0165109Y0273639D01*
X0165367Y0273461D01*
X0165622Y0273277D01*
X0165872Y0273087D01*
X0166117Y0272891D01*
X0166357Y0272688D01*
X0166593Y0272480D01*
X0166823Y0272267D01*
X0167047Y0272047D01*
X0167267Y0271823D01*
X0167480Y0271593D01*
X0167688Y0271357D01*
X0167891Y0271117D01*
X0168087Y0270872D01*
X0168277Y0270622D01*
X0168461Y0270367D01*
X0168639Y0270109D01*
X0168810Y0269845D01*
X0168975Y0269578D01*
X0169133Y0269307D01*
X0169284Y0269032D01*
X0169429Y0268753D01*
X0169567Y0268471D01*
X0169697Y0268185D01*
X0169821Y0267896D01*
X0169938Y0267605D01*
X0170047Y0267311D01*
X0170149Y0267014D01*
X0170244Y0266714D01*
X0170332Y0266413D01*
X0170412Y0266109D01*
X0170484Y0265803D01*
X0170549Y0265496D01*
X0170607Y0265187D01*
X0170657Y0264877D01*
X0170699Y0264566D01*
X0170733Y0264254D01*
X0170760Y0263941D01*
X0170780Y0263628D01*
X0170791Y0263314D01*
X0170795Y0263000D01*
X0170791Y0262686D01*
X0170780Y0262372D01*
X0170760Y0262059D01*
X0170733Y0261746D01*
X0170699Y0261434D01*
X0170657Y0261123D01*
X0170607Y0260813D01*
X0170549Y0260504D01*
X0170484Y0260197D01*
X0170412Y0259891D01*
X0170332Y0259587D01*
X0170244Y0259286D01*
X0170149Y0258986D01*
X0170047Y0258689D01*
X0169938Y0258395D01*
X0169821Y0258104D01*
X0169697Y0257815D01*
X0169567Y0257529D01*
X0169429Y0257247D01*
X0169284Y0256968D01*
X0169133Y0256693D01*
X0168975Y0256422D01*
X0168810Y0256155D01*
X0168639Y0255891D01*
X0168461Y0255633D01*
X0168277Y0255378D01*
X0168087Y0255128D01*
X0167891Y0254883D01*
X0167688Y0254643D01*
X0167480Y0254407D01*
X0167267Y0254177D01*
X0167047Y0253953D01*
X0166823Y0253733D01*
X0166593Y0253520D01*
X0166357Y0253312D01*
X0166117Y0253109D01*
X0165872Y0252913D01*
X0165622Y0252723D01*
X0165367Y0252539D01*
X0165109Y0252361D01*
X0164845Y0252190D01*
X0164578Y0252025D01*
X0164307Y0251867D01*
X0164032Y0251716D01*
X0163753Y0251571D01*
X0163471Y0251433D01*
X0163185Y0251303D01*
X0162896Y0251179D01*
X0162605Y0251062D01*
X0162311Y0250953D01*
X0162014Y0250851D01*
X0161714Y0250756D01*
X0161413Y0250668D01*
X0161109Y0250588D01*
X0160803Y0250516D01*
X0160496Y0250451D01*
X0160187Y0250393D01*
X0159877Y0250343D01*
X0159566Y0250301D01*
X0159254Y0250267D01*
X0158941Y0250240D01*
X0158628Y0250220D01*
X0158314Y0250209D01*
X0158000Y0250205D01*
X0157686Y0250209D01*
X0157372Y0250220D01*
X0157059Y0250240D01*
X0156746Y0250267D01*
X0156434Y0250301D01*
X0156123Y0250343D01*
X0155813Y0250393D01*
X0155504Y0250451D01*
X0155197Y0250516D01*
X0154891Y0250588D01*
X0154587Y0250668D01*
X0154286Y0250756D01*
X0153986Y0250851D01*
X0153689Y0250953D01*
X0153395Y0251062D01*
X0153104Y0251179D01*
X0152815Y0251303D01*
X0152529Y0251433D01*
X0152247Y0251571D01*
X0151968Y0251716D01*
X0151693Y0251867D01*
X0151422Y0252025D01*
X0151155Y0252190D01*
X0150891Y0252361D01*
X0150633Y0252539D01*
X0150378Y0252723D01*
X0150128Y0252913D01*
X0149883Y0253109D01*
X0149643Y0253312D01*
X0149407Y0253520D01*
X0149177Y0253733D01*
X0148953Y0253953D01*
X0148733Y0254177D01*
X0148520Y0254407D01*
X0148312Y0254643D01*
X0148109Y0254883D01*
X0147913Y0255128D01*
X0147723Y0255378D01*
X0147539Y0255633D01*
X0147361Y0255891D01*
X0147190Y0256155D01*
X0147025Y0256422D01*
X0146867Y0256693D01*
X0146716Y0256968D01*
X0146571Y0257247D01*
X0146433Y0257529D01*
X0146303Y0257815D01*
X0146179Y0258104D01*
X0146062Y0258395D01*
X0145953Y0258689D01*
X0145851Y0258986D01*
X0145756Y0259286D01*
X0145668Y0259587D01*
X0145588Y0259891D01*
X0145516Y0260197D01*
X0145451Y0260504D01*
X0145393Y0260813D01*
X0145343Y0261123D01*
X0145301Y0261434D01*
X0145267Y0261746D01*
X0145240Y0262059D01*
X0145220Y0262372D01*
X0145209Y0262686D01*
X0145205Y0263000D01*
X0150500Y0268000D02*
X0155500Y0268000D01*
D11*
X0044354Y0030950D02*
X0043603Y0030950D01*
X0043603Y0032451D01*
X0044354Y0032451D01*
X0044604Y0032201D01*
X0044604Y0031200D01*
X0044354Y0030950D01*
X0045077Y0030950D02*
X0046078Y0030950D01*
X0045577Y0030950D02*
X0045577Y0032451D01*
X0045077Y0031951D01*
X0017024Y0041300D02*
X0017024Y0042301D01*
X0016774Y0042551D01*
X0016273Y0042551D01*
X0016023Y0042301D01*
X0016023Y0042051D01*
X0016273Y0041801D01*
X0017024Y0041801D01*
X0017024Y0041300D02*
X0016774Y0041050D01*
X0016273Y0041050D01*
X0016023Y0041300D01*
X0015551Y0041050D02*
X0015050Y0041550D01*
X0015301Y0041550D02*
X0014550Y0041550D01*
X0014550Y0041050D02*
X0014550Y0042551D01*
X0015301Y0042551D01*
X0015551Y0042301D01*
X0015551Y0041801D01*
X0015301Y0041550D01*
X0017049Y0083603D02*
X0017049Y0084354D01*
X0017299Y0084604D01*
X0018300Y0084604D01*
X0018550Y0084354D01*
X0018550Y0083603D01*
X0017049Y0083603D01*
X0017299Y0085077D02*
X0017049Y0085327D01*
X0017049Y0085827D01*
X0017299Y0086078D01*
X0017549Y0086078D01*
X0018550Y0085077D01*
X0018550Y0086078D01*
X0089550Y0042551D02*
X0090301Y0042551D01*
X0090551Y0042301D01*
X0090551Y0041801D01*
X0090301Y0041550D01*
X0089550Y0041550D01*
X0089550Y0041050D02*
X0089550Y0042551D01*
X0090050Y0041550D02*
X0090551Y0041050D01*
X0091023Y0041300D02*
X0091273Y0041050D01*
X0091774Y0041050D01*
X0092024Y0041300D01*
X0092024Y0041801D01*
X0091774Y0042051D01*
X0091524Y0042051D01*
X0091023Y0041801D01*
X0091023Y0042551D01*
X0092024Y0042551D01*
X0118603Y0032451D02*
X0118603Y0030950D01*
X0119354Y0030950D01*
X0119604Y0031200D01*
X0119604Y0032201D01*
X0119354Y0032451D01*
X0118603Y0032451D01*
X0120077Y0032451D02*
X0120077Y0031701D01*
X0120577Y0031951D01*
X0120827Y0031951D01*
X0121078Y0031701D01*
X0121078Y0031200D01*
X0120827Y0030950D01*
X0120327Y0030950D01*
X0120077Y0031200D01*
X0120077Y0032451D02*
X0121078Y0032451D01*
X0186103Y0050950D02*
X0186854Y0050950D01*
X0187104Y0051200D01*
X0187104Y0052201D01*
X0186854Y0052451D01*
X0186103Y0052451D01*
X0186103Y0050950D01*
X0187577Y0051200D02*
X0187827Y0050950D01*
X0188327Y0050950D01*
X0188578Y0051200D01*
X0188578Y0052201D01*
X0188327Y0052451D01*
X0187827Y0052451D01*
X0187577Y0052201D01*
X0187577Y0051951D01*
X0187827Y0051701D01*
X0188578Y0051701D01*
X0173950Y0084550D02*
X0172449Y0084550D01*
X0172449Y0085301D01*
X0172699Y0085551D01*
X0173700Y0085551D01*
X0173950Y0085301D01*
X0173950Y0084550D01*
X0173950Y0086023D02*
X0173950Y0087024D01*
X0173950Y0086524D02*
X0172449Y0086524D01*
X0172949Y0086023D01*
X0172699Y0087497D02*
X0172449Y0087747D01*
X0172449Y0088247D01*
X0172699Y0088497D01*
X0173700Y0087497D01*
X0173950Y0087747D01*
X0173950Y0088247D01*
X0173700Y0088497D01*
X0172699Y0088497D01*
X0172699Y0087497D02*
X0173700Y0087497D01*
X0160050Y0096103D02*
X0158549Y0096103D01*
X0158549Y0096854D01*
X0158799Y0097104D01*
X0159299Y0097104D01*
X0159550Y0096854D01*
X0159550Y0096103D01*
X0159550Y0096604D02*
X0160050Y0097104D01*
X0159800Y0097577D02*
X0160050Y0097827D01*
X0160050Y0098327D01*
X0159800Y0098578D01*
X0159550Y0098578D01*
X0159299Y0098327D01*
X0159299Y0098077D01*
X0159299Y0098327D02*
X0159049Y0098578D01*
X0158799Y0098578D01*
X0158549Y0098327D01*
X0158549Y0097827D01*
X0158799Y0097577D01*
X0186103Y0115950D02*
X0186103Y0117451D01*
X0186854Y0117451D01*
X0187104Y0117201D01*
X0187104Y0116200D01*
X0186854Y0115950D01*
X0186103Y0115950D01*
X0187577Y0115950D02*
X0187577Y0116200D01*
X0188578Y0117201D01*
X0188578Y0117451D01*
X0187577Y0117451D01*
X0173950Y0154550D02*
X0172449Y0154550D01*
X0172449Y0155301D01*
X0172699Y0155551D01*
X0173700Y0155551D01*
X0173950Y0155301D01*
X0173950Y0154550D01*
X0173700Y0156023D02*
X0173450Y0156023D01*
X0173199Y0156273D01*
X0173199Y0156774D01*
X0173450Y0157024D01*
X0173700Y0157024D01*
X0173950Y0156774D01*
X0173950Y0156273D01*
X0173700Y0156023D01*
X0173199Y0156273D02*
X0172949Y0156023D01*
X0172699Y0156023D01*
X0172449Y0156273D01*
X0172449Y0156774D01*
X0172699Y0157024D01*
X0172949Y0157024D01*
X0173199Y0156774D01*
X0172550Y0158603D02*
X0171049Y0158603D01*
X0171049Y0159354D01*
X0171299Y0159604D01*
X0171799Y0159604D01*
X0172050Y0159354D01*
X0172050Y0158603D01*
X0172050Y0159104D02*
X0172550Y0159604D01*
X0172550Y0160077D02*
X0172550Y0161078D01*
X0172550Y0160577D02*
X0171049Y0160577D01*
X0171549Y0160077D01*
X0256049Y0155827D02*
X0256049Y0155327D01*
X0256299Y0155077D01*
X0256049Y0155827D02*
X0256299Y0156078D01*
X0256549Y0156078D01*
X0257550Y0155077D01*
X0257550Y0156078D01*
X0257550Y0154604D02*
X0257550Y0153603D01*
X0257550Y0153131D02*
X0257050Y0152631D01*
X0257050Y0152881D02*
X0257050Y0152130D01*
X0257550Y0152130D02*
X0256049Y0152130D01*
X0256049Y0152881D01*
X0256299Y0153131D01*
X0256799Y0153131D01*
X0257050Y0152881D01*
X0256549Y0153603D02*
X0256049Y0154104D01*
X0257550Y0154104D01*
X0258950Y0148497D02*
X0258950Y0147497D01*
X0258950Y0147024D02*
X0258950Y0146023D01*
X0258950Y0146524D02*
X0257449Y0146524D01*
X0257949Y0146023D01*
X0257699Y0145551D02*
X0257449Y0145301D01*
X0257449Y0144550D01*
X0258950Y0144550D01*
X0258950Y0145301D01*
X0258700Y0145551D01*
X0257699Y0145551D01*
X0257949Y0147497D02*
X0257449Y0147997D01*
X0258950Y0147997D01*
X0269630Y0117451D02*
X0270381Y0117451D01*
X0270631Y0117201D01*
X0270631Y0116200D01*
X0270381Y0115950D01*
X0269630Y0115950D01*
X0269630Y0117451D01*
X0271103Y0116951D02*
X0271604Y0117451D01*
X0271604Y0115950D01*
X0272104Y0115950D02*
X0271103Y0115950D01*
X0272577Y0115950D02*
X0273578Y0116951D01*
X0273578Y0117201D01*
X0273327Y0117451D01*
X0272827Y0117451D01*
X0272577Y0117201D01*
X0272577Y0115950D02*
X0273578Y0115950D01*
X0257550Y0096078D02*
X0257550Y0095077D01*
X0256549Y0096078D01*
X0256299Y0096078D01*
X0256049Y0095827D01*
X0256049Y0095327D01*
X0256299Y0095077D01*
X0256299Y0094604D02*
X0256799Y0094604D01*
X0257050Y0094354D01*
X0257050Y0093603D01*
X0257550Y0093603D02*
X0256049Y0093603D01*
X0256049Y0094354D01*
X0256299Y0094604D01*
X0257050Y0094104D02*
X0257550Y0094604D01*
X0258199Y0092024D02*
X0258199Y0091023D01*
X0257449Y0091774D01*
X0258950Y0091774D01*
X0258700Y0090551D02*
X0257699Y0090551D01*
X0257449Y0090301D01*
X0257449Y0089550D01*
X0258950Y0089550D01*
X0258950Y0090301D01*
X0258700Y0090551D01*
X0271103Y0052451D02*
X0271854Y0052451D01*
X0272104Y0052201D01*
X0272104Y0051200D01*
X0271854Y0050950D01*
X0271103Y0050950D01*
X0271103Y0052451D01*
X0272577Y0052201D02*
X0272827Y0052451D01*
X0273327Y0052451D01*
X0273578Y0052201D01*
X0273578Y0051951D01*
X0273327Y0051701D01*
X0273578Y0051450D01*
X0273578Y0051200D01*
X0273327Y0050950D01*
X0272827Y0050950D01*
X0272577Y0051200D01*
X0273077Y0051701D02*
X0273327Y0051701D01*
X0093550Y0083603D02*
X0093550Y0084354D01*
X0093300Y0084604D01*
X0092299Y0084604D01*
X0092049Y0084354D01*
X0092049Y0083603D01*
X0093550Y0083603D01*
X0093300Y0085077D02*
X0093550Y0085327D01*
X0093550Y0085827D01*
X0093300Y0086078D01*
X0093050Y0086078D01*
X0092799Y0085827D01*
X0092799Y0085077D01*
X0093300Y0085077D01*
X0092799Y0085077D02*
X0092299Y0085577D01*
X0092049Y0086078D01*
X0155300Y0269550D02*
X0155801Y0269550D01*
X0156051Y0269800D01*
X0156523Y0269550D02*
X0157524Y0269550D01*
X0157024Y0269550D02*
X0157024Y0271051D01*
X0156523Y0270551D01*
X0156051Y0270801D02*
X0155801Y0271051D01*
X0155300Y0271051D01*
X0155050Y0270801D01*
X0155050Y0269800D01*
X0155300Y0269550D01*
D12*
X0183000Y0239500D02*
X0183000Y0216500D01*
X0273000Y0216500D01*
X0273000Y0224000D01*
X0272874Y0224002D01*
X0272749Y0224008D01*
X0272624Y0224018D01*
X0272499Y0224032D01*
X0272374Y0224049D01*
X0272250Y0224071D01*
X0272127Y0224096D01*
X0272005Y0224126D01*
X0271884Y0224159D01*
X0271764Y0224196D01*
X0271645Y0224236D01*
X0271528Y0224281D01*
X0271411Y0224329D01*
X0271297Y0224381D01*
X0271184Y0224436D01*
X0271073Y0224495D01*
X0270964Y0224557D01*
X0270857Y0224623D01*
X0270752Y0224692D01*
X0270649Y0224764D01*
X0270548Y0224839D01*
X0270450Y0224918D01*
X0270355Y0225000D01*
X0270262Y0225084D01*
X0270172Y0225172D01*
X0270084Y0225262D01*
X0270000Y0225355D01*
X0269918Y0225450D01*
X0269839Y0225548D01*
X0269764Y0225649D01*
X0269692Y0225752D01*
X0269623Y0225857D01*
X0269557Y0225964D01*
X0269495Y0226073D01*
X0269436Y0226184D01*
X0269381Y0226297D01*
X0269329Y0226411D01*
X0269281Y0226528D01*
X0269236Y0226645D01*
X0269196Y0226764D01*
X0269159Y0226884D01*
X0269126Y0227005D01*
X0269096Y0227127D01*
X0269071Y0227250D01*
X0269049Y0227374D01*
X0269032Y0227499D01*
X0269018Y0227624D01*
X0269008Y0227749D01*
X0269002Y0227874D01*
X0269000Y0228000D01*
X0269002Y0228126D01*
X0269008Y0228251D01*
X0269018Y0228376D01*
X0269032Y0228501D01*
X0269049Y0228626D01*
X0269071Y0228750D01*
X0269096Y0228873D01*
X0269126Y0228995D01*
X0269159Y0229116D01*
X0269196Y0229236D01*
X0269236Y0229355D01*
X0269281Y0229472D01*
X0269329Y0229589D01*
X0269381Y0229703D01*
X0269436Y0229816D01*
X0269495Y0229927D01*
X0269557Y0230036D01*
X0269623Y0230143D01*
X0269692Y0230248D01*
X0269764Y0230351D01*
X0269839Y0230452D01*
X0269918Y0230550D01*
X0270000Y0230645D01*
X0270084Y0230738D01*
X0270172Y0230828D01*
X0270262Y0230916D01*
X0270355Y0231000D01*
X0270450Y0231082D01*
X0270548Y0231161D01*
X0270649Y0231236D01*
X0270752Y0231308D01*
X0270857Y0231377D01*
X0270964Y0231443D01*
X0271073Y0231505D01*
X0271184Y0231564D01*
X0271297Y0231619D01*
X0271411Y0231671D01*
X0271528Y0231719D01*
X0271645Y0231764D01*
X0271764Y0231804D01*
X0271884Y0231841D01*
X0272005Y0231874D01*
X0272127Y0231904D01*
X0272250Y0231929D01*
X0272374Y0231951D01*
X0272499Y0231968D01*
X0272624Y0231982D01*
X0272749Y0231992D01*
X0272874Y0231998D01*
X0273000Y0232000D01*
X0273000Y0239500D01*
X0183000Y0239500D01*
D13*
X0185489Y0251050D02*
X0186239Y0251050D01*
X0186990Y0251801D01*
X0186990Y0255554D01*
X0186239Y0255554D02*
X0187741Y0255554D01*
X0189342Y0255554D02*
X0191594Y0255554D01*
X0192345Y0254803D01*
X0192345Y0253302D01*
X0191594Y0252551D01*
X0189342Y0252551D01*
X0189342Y0251050D02*
X0189342Y0255554D01*
X0193946Y0254053D02*
X0195447Y0255554D01*
X0195447Y0251050D01*
X0193946Y0251050D02*
X0196949Y0251050D01*
X0185489Y0251050D02*
X0184738Y0251801D01*
X0222950Y0271201D02*
X0223701Y0270450D01*
X0224451Y0270450D01*
X0225202Y0271201D01*
X0225202Y0274954D01*
X0224451Y0274954D02*
X0225953Y0274954D01*
X0227554Y0274954D02*
X0229806Y0274954D01*
X0230556Y0274203D01*
X0230556Y0272702D01*
X0229806Y0271951D01*
X0227554Y0271951D01*
X0227554Y0270450D02*
X0227554Y0274954D01*
X0232158Y0274203D02*
X0232908Y0274954D01*
X0234410Y0274954D01*
X0235160Y0274203D01*
X0235160Y0273453D01*
X0232158Y0270450D01*
X0235160Y0270450D01*
X0278750Y0238649D02*
X0278750Y0235646D01*
X0278750Y0237147D02*
X0274246Y0237147D01*
X0275747Y0235646D01*
X0274997Y0234045D02*
X0274246Y0233294D01*
X0274246Y0231793D01*
X0274997Y0231042D01*
X0277999Y0231042D01*
X0278750Y0231793D01*
X0278750Y0233294D01*
X0277999Y0234045D01*
X0278750Y0229474D02*
X0278750Y0227973D01*
X0278750Y0228723D02*
X0274246Y0228723D01*
X0274246Y0227973D02*
X0274246Y0229474D01*
X0335992Y0248000D02*
X0336000Y0248663D01*
X0336025Y0249325D01*
X0336065Y0249987D01*
X0336122Y0250647D01*
X0336195Y0251306D01*
X0336284Y0251963D01*
X0336390Y0252617D01*
X0336511Y0253269D01*
X0336648Y0253917D01*
X0336801Y0254562D01*
X0336970Y0255203D01*
X0337155Y0255840D01*
X0337355Y0256472D01*
X0337571Y0257099D01*
X0337802Y0257720D01*
X0338048Y0258336D01*
X0338309Y0258945D01*
X0338585Y0259547D01*
X0338876Y0260143D01*
X0339181Y0260731D01*
X0339501Y0261312D01*
X0339834Y0261885D01*
X0340182Y0262449D01*
X0340544Y0263005D01*
X0340919Y0263551D01*
X0341307Y0264089D01*
X0341708Y0264616D01*
X0342123Y0265134D01*
X0342549Y0265641D01*
X0342988Y0266137D01*
X0343440Y0266623D01*
X0343902Y0267098D01*
X0344377Y0267560D01*
X0344863Y0268012D01*
X0345359Y0268451D01*
X0345866Y0268877D01*
X0346384Y0269292D01*
X0346911Y0269693D01*
X0347449Y0270081D01*
X0347995Y0270456D01*
X0348551Y0270818D01*
X0349115Y0271166D01*
X0349688Y0271499D01*
X0350269Y0271819D01*
X0350857Y0272124D01*
X0351453Y0272415D01*
X0352055Y0272691D01*
X0352664Y0272952D01*
X0353280Y0273198D01*
X0353901Y0273429D01*
X0354528Y0273645D01*
X0355160Y0273845D01*
X0355797Y0274030D01*
X0356438Y0274199D01*
X0357083Y0274352D01*
X0357731Y0274489D01*
X0358383Y0274610D01*
X0359037Y0274716D01*
X0359694Y0274805D01*
X0360353Y0274878D01*
X0361013Y0274935D01*
X0361675Y0274975D01*
X0362337Y0275000D01*
X0363000Y0275008D01*
X0363663Y0275000D01*
X0364325Y0274975D01*
X0364987Y0274935D01*
X0365647Y0274878D01*
X0366306Y0274805D01*
X0366963Y0274716D01*
X0367617Y0274610D01*
X0368269Y0274489D01*
X0368917Y0274352D01*
X0369562Y0274199D01*
X0370203Y0274030D01*
X0370840Y0273845D01*
X0371472Y0273645D01*
X0372099Y0273429D01*
X0372720Y0273198D01*
X0373336Y0272952D01*
X0373945Y0272691D01*
X0374547Y0272415D01*
X0375143Y0272124D01*
X0375731Y0271819D01*
X0376312Y0271499D01*
X0376885Y0271166D01*
X0377449Y0270818D01*
X0378005Y0270456D01*
X0378551Y0270081D01*
X0379089Y0269693D01*
X0379616Y0269292D01*
X0380134Y0268877D01*
X0380641Y0268451D01*
X0381137Y0268012D01*
X0381623Y0267560D01*
X0382098Y0267098D01*
X0382560Y0266623D01*
X0383012Y0266137D01*
X0383451Y0265641D01*
X0383877Y0265134D01*
X0384292Y0264616D01*
X0384693Y0264089D01*
X0385081Y0263551D01*
X0385456Y0263005D01*
X0385818Y0262449D01*
X0386166Y0261885D01*
X0386499Y0261312D01*
X0386819Y0260731D01*
X0387124Y0260143D01*
X0387415Y0259547D01*
X0387691Y0258945D01*
X0387952Y0258336D01*
X0388198Y0257720D01*
X0388429Y0257099D01*
X0388645Y0256472D01*
X0388845Y0255840D01*
X0389030Y0255203D01*
X0389199Y0254562D01*
X0389352Y0253917D01*
X0389489Y0253269D01*
X0389610Y0252617D01*
X0389716Y0251963D01*
X0389805Y0251306D01*
X0389878Y0250647D01*
X0389935Y0249987D01*
X0389975Y0249325D01*
X0390000Y0248663D01*
X0390008Y0248000D01*
X0390000Y0247337D01*
X0389975Y0246675D01*
X0389935Y0246013D01*
X0389878Y0245353D01*
X0389805Y0244694D01*
X0389716Y0244037D01*
X0389610Y0243383D01*
X0389489Y0242731D01*
X0389352Y0242083D01*
X0389199Y0241438D01*
X0389030Y0240797D01*
X0388845Y0240160D01*
X0388645Y0239528D01*
X0388429Y0238901D01*
X0388198Y0238280D01*
X0387952Y0237664D01*
X0387691Y0237055D01*
X0387415Y0236453D01*
X0387124Y0235857D01*
X0386819Y0235269D01*
X0386499Y0234688D01*
X0386166Y0234115D01*
X0385818Y0233551D01*
X0385456Y0232995D01*
X0385081Y0232449D01*
X0384693Y0231911D01*
X0384292Y0231384D01*
X0383877Y0230866D01*
X0383451Y0230359D01*
X0383012Y0229863D01*
X0382560Y0229377D01*
X0382098Y0228902D01*
X0381623Y0228440D01*
X0381137Y0227988D01*
X0380641Y0227549D01*
X0380134Y0227123D01*
X0379616Y0226708D01*
X0379089Y0226307D01*
X0378551Y0225919D01*
X0378005Y0225544D01*
X0377449Y0225182D01*
X0376885Y0224834D01*
X0376312Y0224501D01*
X0375731Y0224181D01*
X0375143Y0223876D01*
X0374547Y0223585D01*
X0373945Y0223309D01*
X0373336Y0223048D01*
X0372720Y0222802D01*
X0372099Y0222571D01*
X0371472Y0222355D01*
X0370840Y0222155D01*
X0370203Y0221970D01*
X0369562Y0221801D01*
X0368917Y0221648D01*
X0368269Y0221511D01*
X0367617Y0221390D01*
X0366963Y0221284D01*
X0366306Y0221195D01*
X0365647Y0221122D01*
X0364987Y0221065D01*
X0364325Y0221025D01*
X0363663Y0221000D01*
X0363000Y0220992D01*
X0362337Y0221000D01*
X0361675Y0221025D01*
X0361013Y0221065D01*
X0360353Y0221122D01*
X0359694Y0221195D01*
X0359037Y0221284D01*
X0358383Y0221390D01*
X0357731Y0221511D01*
X0357083Y0221648D01*
X0356438Y0221801D01*
X0355797Y0221970D01*
X0355160Y0222155D01*
X0354528Y0222355D01*
X0353901Y0222571D01*
X0353280Y0222802D01*
X0352664Y0223048D01*
X0352055Y0223309D01*
X0351453Y0223585D01*
X0350857Y0223876D01*
X0350269Y0224181D01*
X0349688Y0224501D01*
X0349115Y0224834D01*
X0348551Y0225182D01*
X0347995Y0225544D01*
X0347449Y0225919D01*
X0346911Y0226307D01*
X0346384Y0226708D01*
X0345866Y0227123D01*
X0345359Y0227549D01*
X0344863Y0227988D01*
X0344377Y0228440D01*
X0343902Y0228902D01*
X0343440Y0229377D01*
X0342988Y0229863D01*
X0342549Y0230359D01*
X0342123Y0230866D01*
X0341708Y0231384D01*
X0341307Y0231911D01*
X0340919Y0232449D01*
X0340544Y0232995D01*
X0340182Y0233551D01*
X0339834Y0234115D01*
X0339501Y0234688D01*
X0339181Y0235269D01*
X0338876Y0235857D01*
X0338585Y0236453D01*
X0338309Y0237055D01*
X0338048Y0237664D01*
X0337802Y0238280D01*
X0337571Y0238901D01*
X0337355Y0239528D01*
X0337155Y0240160D01*
X0336970Y0240797D01*
X0336801Y0241438D01*
X0336648Y0242083D01*
X0336511Y0242731D01*
X0336390Y0243383D01*
X0336284Y0244037D01*
X0336195Y0244694D01*
X0336122Y0245353D01*
X0336065Y0246013D01*
X0336025Y0246675D01*
X0336000Y0247337D01*
X0335992Y0248000D01*
X0335992Y0183000D02*
X0336000Y0183663D01*
X0336025Y0184325D01*
X0336065Y0184987D01*
X0336122Y0185647D01*
X0336195Y0186306D01*
X0336284Y0186963D01*
X0336390Y0187617D01*
X0336511Y0188269D01*
X0336648Y0188917D01*
X0336801Y0189562D01*
X0336970Y0190203D01*
X0337155Y0190840D01*
X0337355Y0191472D01*
X0337571Y0192099D01*
X0337802Y0192720D01*
X0338048Y0193336D01*
X0338309Y0193945D01*
X0338585Y0194547D01*
X0338876Y0195143D01*
X0339181Y0195731D01*
X0339501Y0196312D01*
X0339834Y0196885D01*
X0340182Y0197449D01*
X0340544Y0198005D01*
X0340919Y0198551D01*
X0341307Y0199089D01*
X0341708Y0199616D01*
X0342123Y0200134D01*
X0342549Y0200641D01*
X0342988Y0201137D01*
X0343440Y0201623D01*
X0343902Y0202098D01*
X0344377Y0202560D01*
X0344863Y0203012D01*
X0345359Y0203451D01*
X0345866Y0203877D01*
X0346384Y0204292D01*
X0346911Y0204693D01*
X0347449Y0205081D01*
X0347995Y0205456D01*
X0348551Y0205818D01*
X0349115Y0206166D01*
X0349688Y0206499D01*
X0350269Y0206819D01*
X0350857Y0207124D01*
X0351453Y0207415D01*
X0352055Y0207691D01*
X0352664Y0207952D01*
X0353280Y0208198D01*
X0353901Y0208429D01*
X0354528Y0208645D01*
X0355160Y0208845D01*
X0355797Y0209030D01*
X0356438Y0209199D01*
X0357083Y0209352D01*
X0357731Y0209489D01*
X0358383Y0209610D01*
X0359037Y0209716D01*
X0359694Y0209805D01*
X0360353Y0209878D01*
X0361013Y0209935D01*
X0361675Y0209975D01*
X0362337Y0210000D01*
X0363000Y0210008D01*
X0363663Y0210000D01*
X0364325Y0209975D01*
X0364987Y0209935D01*
X0365647Y0209878D01*
X0366306Y0209805D01*
X0366963Y0209716D01*
X0367617Y0209610D01*
X0368269Y0209489D01*
X0368917Y0209352D01*
X0369562Y0209199D01*
X0370203Y0209030D01*
X0370840Y0208845D01*
X0371472Y0208645D01*
X0372099Y0208429D01*
X0372720Y0208198D01*
X0373336Y0207952D01*
X0373945Y0207691D01*
X0374547Y0207415D01*
X0375143Y0207124D01*
X0375731Y0206819D01*
X0376312Y0206499D01*
X0376885Y0206166D01*
X0377449Y0205818D01*
X0378005Y0205456D01*
X0378551Y0205081D01*
X0379089Y0204693D01*
X0379616Y0204292D01*
X0380134Y0203877D01*
X0380641Y0203451D01*
X0381137Y0203012D01*
X0381623Y0202560D01*
X0382098Y0202098D01*
X0382560Y0201623D01*
X0383012Y0201137D01*
X0383451Y0200641D01*
X0383877Y0200134D01*
X0384292Y0199616D01*
X0384693Y0199089D01*
X0385081Y0198551D01*
X0385456Y0198005D01*
X0385818Y0197449D01*
X0386166Y0196885D01*
X0386499Y0196312D01*
X0386819Y0195731D01*
X0387124Y0195143D01*
X0387415Y0194547D01*
X0387691Y0193945D01*
X0387952Y0193336D01*
X0388198Y0192720D01*
X0388429Y0192099D01*
X0388645Y0191472D01*
X0388845Y0190840D01*
X0389030Y0190203D01*
X0389199Y0189562D01*
X0389352Y0188917D01*
X0389489Y0188269D01*
X0389610Y0187617D01*
X0389716Y0186963D01*
X0389805Y0186306D01*
X0389878Y0185647D01*
X0389935Y0184987D01*
X0389975Y0184325D01*
X0390000Y0183663D01*
X0390008Y0183000D01*
X0390000Y0182337D01*
X0389975Y0181675D01*
X0389935Y0181013D01*
X0389878Y0180353D01*
X0389805Y0179694D01*
X0389716Y0179037D01*
X0389610Y0178383D01*
X0389489Y0177731D01*
X0389352Y0177083D01*
X0389199Y0176438D01*
X0389030Y0175797D01*
X0388845Y0175160D01*
X0388645Y0174528D01*
X0388429Y0173901D01*
X0388198Y0173280D01*
X0387952Y0172664D01*
X0387691Y0172055D01*
X0387415Y0171453D01*
X0387124Y0170857D01*
X0386819Y0170269D01*
X0386499Y0169688D01*
X0386166Y0169115D01*
X0385818Y0168551D01*
X0385456Y0167995D01*
X0385081Y0167449D01*
X0384693Y0166911D01*
X0384292Y0166384D01*
X0383877Y0165866D01*
X0383451Y0165359D01*
X0383012Y0164863D01*
X0382560Y0164377D01*
X0382098Y0163902D01*
X0381623Y0163440D01*
X0381137Y0162988D01*
X0380641Y0162549D01*
X0380134Y0162123D01*
X0379616Y0161708D01*
X0379089Y0161307D01*
X0378551Y0160919D01*
X0378005Y0160544D01*
X0377449Y0160182D01*
X0376885Y0159834D01*
X0376312Y0159501D01*
X0375731Y0159181D01*
X0375143Y0158876D01*
X0374547Y0158585D01*
X0373945Y0158309D01*
X0373336Y0158048D01*
X0372720Y0157802D01*
X0372099Y0157571D01*
X0371472Y0157355D01*
X0370840Y0157155D01*
X0370203Y0156970D01*
X0369562Y0156801D01*
X0368917Y0156648D01*
X0368269Y0156511D01*
X0367617Y0156390D01*
X0366963Y0156284D01*
X0366306Y0156195D01*
X0365647Y0156122D01*
X0364987Y0156065D01*
X0364325Y0156025D01*
X0363663Y0156000D01*
X0363000Y0155992D01*
X0362337Y0156000D01*
X0361675Y0156025D01*
X0361013Y0156065D01*
X0360353Y0156122D01*
X0359694Y0156195D01*
X0359037Y0156284D01*
X0358383Y0156390D01*
X0357731Y0156511D01*
X0357083Y0156648D01*
X0356438Y0156801D01*
X0355797Y0156970D01*
X0355160Y0157155D01*
X0354528Y0157355D01*
X0353901Y0157571D01*
X0353280Y0157802D01*
X0352664Y0158048D01*
X0352055Y0158309D01*
X0351453Y0158585D01*
X0350857Y0158876D01*
X0350269Y0159181D01*
X0349688Y0159501D01*
X0349115Y0159834D01*
X0348551Y0160182D01*
X0347995Y0160544D01*
X0347449Y0160919D01*
X0346911Y0161307D01*
X0346384Y0161708D01*
X0345866Y0162123D01*
X0345359Y0162549D01*
X0344863Y0162988D01*
X0344377Y0163440D01*
X0343902Y0163902D01*
X0343440Y0164377D01*
X0342988Y0164863D01*
X0342549Y0165359D01*
X0342123Y0165866D01*
X0341708Y0166384D01*
X0341307Y0166911D01*
X0340919Y0167449D01*
X0340544Y0167995D01*
X0340182Y0168551D01*
X0339834Y0169115D01*
X0339501Y0169688D01*
X0339181Y0170269D01*
X0338876Y0170857D01*
X0338585Y0171453D01*
X0338309Y0172055D01*
X0338048Y0172664D01*
X0337802Y0173280D01*
X0337571Y0173901D01*
X0337355Y0174528D01*
X0337155Y0175160D01*
X0336970Y0175797D01*
X0336801Y0176438D01*
X0336648Y0177083D01*
X0336511Y0177731D01*
X0336390Y0178383D01*
X0336284Y0179037D01*
X0336195Y0179694D01*
X0336122Y0180353D01*
X0336065Y0181013D01*
X0336025Y0181675D01*
X0336000Y0182337D01*
X0335992Y0183000D01*
X0335992Y0118000D02*
X0336000Y0118663D01*
X0336025Y0119325D01*
X0336065Y0119987D01*
X0336122Y0120647D01*
X0336195Y0121306D01*
X0336284Y0121963D01*
X0336390Y0122617D01*
X0336511Y0123269D01*
X0336648Y0123917D01*
X0336801Y0124562D01*
X0336970Y0125203D01*
X0337155Y0125840D01*
X0337355Y0126472D01*
X0337571Y0127099D01*
X0337802Y0127720D01*
X0338048Y0128336D01*
X0338309Y0128945D01*
X0338585Y0129547D01*
X0338876Y0130143D01*
X0339181Y0130731D01*
X0339501Y0131312D01*
X0339834Y0131885D01*
X0340182Y0132449D01*
X0340544Y0133005D01*
X0340919Y0133551D01*
X0341307Y0134089D01*
X0341708Y0134616D01*
X0342123Y0135134D01*
X0342549Y0135641D01*
X0342988Y0136137D01*
X0343440Y0136623D01*
X0343902Y0137098D01*
X0344377Y0137560D01*
X0344863Y0138012D01*
X0345359Y0138451D01*
X0345866Y0138877D01*
X0346384Y0139292D01*
X0346911Y0139693D01*
X0347449Y0140081D01*
X0347995Y0140456D01*
X0348551Y0140818D01*
X0349115Y0141166D01*
X0349688Y0141499D01*
X0350269Y0141819D01*
X0350857Y0142124D01*
X0351453Y0142415D01*
X0352055Y0142691D01*
X0352664Y0142952D01*
X0353280Y0143198D01*
X0353901Y0143429D01*
X0354528Y0143645D01*
X0355160Y0143845D01*
X0355797Y0144030D01*
X0356438Y0144199D01*
X0357083Y0144352D01*
X0357731Y0144489D01*
X0358383Y0144610D01*
X0359037Y0144716D01*
X0359694Y0144805D01*
X0360353Y0144878D01*
X0361013Y0144935D01*
X0361675Y0144975D01*
X0362337Y0145000D01*
X0363000Y0145008D01*
X0363663Y0145000D01*
X0364325Y0144975D01*
X0364987Y0144935D01*
X0365647Y0144878D01*
X0366306Y0144805D01*
X0366963Y0144716D01*
X0367617Y0144610D01*
X0368269Y0144489D01*
X0368917Y0144352D01*
X0369562Y0144199D01*
X0370203Y0144030D01*
X0370840Y0143845D01*
X0371472Y0143645D01*
X0372099Y0143429D01*
X0372720Y0143198D01*
X0373336Y0142952D01*
X0373945Y0142691D01*
X0374547Y0142415D01*
X0375143Y0142124D01*
X0375731Y0141819D01*
X0376312Y0141499D01*
X0376885Y0141166D01*
X0377449Y0140818D01*
X0378005Y0140456D01*
X0378551Y0140081D01*
X0379089Y0139693D01*
X0379616Y0139292D01*
X0380134Y0138877D01*
X0380641Y0138451D01*
X0381137Y0138012D01*
X0381623Y0137560D01*
X0382098Y0137098D01*
X0382560Y0136623D01*
X0383012Y0136137D01*
X0383451Y0135641D01*
X0383877Y0135134D01*
X0384292Y0134616D01*
X0384693Y0134089D01*
X0385081Y0133551D01*
X0385456Y0133005D01*
X0385818Y0132449D01*
X0386166Y0131885D01*
X0386499Y0131312D01*
X0386819Y0130731D01*
X0387124Y0130143D01*
X0387415Y0129547D01*
X0387691Y0128945D01*
X0387952Y0128336D01*
X0388198Y0127720D01*
X0388429Y0127099D01*
X0388645Y0126472D01*
X0388845Y0125840D01*
X0389030Y0125203D01*
X0389199Y0124562D01*
X0389352Y0123917D01*
X0389489Y0123269D01*
X0389610Y0122617D01*
X0389716Y0121963D01*
X0389805Y0121306D01*
X0389878Y0120647D01*
X0389935Y0119987D01*
X0389975Y0119325D01*
X0390000Y0118663D01*
X0390008Y0118000D01*
X0390000Y0117337D01*
X0389975Y0116675D01*
X0389935Y0116013D01*
X0389878Y0115353D01*
X0389805Y0114694D01*
X0389716Y0114037D01*
X0389610Y0113383D01*
X0389489Y0112731D01*
X0389352Y0112083D01*
X0389199Y0111438D01*
X0389030Y0110797D01*
X0388845Y0110160D01*
X0388645Y0109528D01*
X0388429Y0108901D01*
X0388198Y0108280D01*
X0387952Y0107664D01*
X0387691Y0107055D01*
X0387415Y0106453D01*
X0387124Y0105857D01*
X0386819Y0105269D01*
X0386499Y0104688D01*
X0386166Y0104115D01*
X0385818Y0103551D01*
X0385456Y0102995D01*
X0385081Y0102449D01*
X0384693Y0101911D01*
X0384292Y0101384D01*
X0383877Y0100866D01*
X0383451Y0100359D01*
X0383012Y0099863D01*
X0382560Y0099377D01*
X0382098Y0098902D01*
X0381623Y0098440D01*
X0381137Y0097988D01*
X0380641Y0097549D01*
X0380134Y0097123D01*
X0379616Y0096708D01*
X0379089Y0096307D01*
X0378551Y0095919D01*
X0378005Y0095544D01*
X0377449Y0095182D01*
X0376885Y0094834D01*
X0376312Y0094501D01*
X0375731Y0094181D01*
X0375143Y0093876D01*
X0374547Y0093585D01*
X0373945Y0093309D01*
X0373336Y0093048D01*
X0372720Y0092802D01*
X0372099Y0092571D01*
X0371472Y0092355D01*
X0370840Y0092155D01*
X0370203Y0091970D01*
X0369562Y0091801D01*
X0368917Y0091648D01*
X0368269Y0091511D01*
X0367617Y0091390D01*
X0366963Y0091284D01*
X0366306Y0091195D01*
X0365647Y0091122D01*
X0364987Y0091065D01*
X0364325Y0091025D01*
X0363663Y0091000D01*
X0363000Y0090992D01*
X0362337Y0091000D01*
X0361675Y0091025D01*
X0361013Y0091065D01*
X0360353Y0091122D01*
X0359694Y0091195D01*
X0359037Y0091284D01*
X0358383Y0091390D01*
X0357731Y0091511D01*
X0357083Y0091648D01*
X0356438Y0091801D01*
X0355797Y0091970D01*
X0355160Y0092155D01*
X0354528Y0092355D01*
X0353901Y0092571D01*
X0353280Y0092802D01*
X0352664Y0093048D01*
X0352055Y0093309D01*
X0351453Y0093585D01*
X0350857Y0093876D01*
X0350269Y0094181D01*
X0349688Y0094501D01*
X0349115Y0094834D01*
X0348551Y0095182D01*
X0347995Y0095544D01*
X0347449Y0095919D01*
X0346911Y0096307D01*
X0346384Y0096708D01*
X0345866Y0097123D01*
X0345359Y0097549D01*
X0344863Y0097988D01*
X0344377Y0098440D01*
X0343902Y0098902D01*
X0343440Y0099377D01*
X0342988Y0099863D01*
X0342549Y0100359D01*
X0342123Y0100866D01*
X0341708Y0101384D01*
X0341307Y0101911D01*
X0340919Y0102449D01*
X0340544Y0102995D01*
X0340182Y0103551D01*
X0339834Y0104115D01*
X0339501Y0104688D01*
X0339181Y0105269D01*
X0338876Y0105857D01*
X0338585Y0106453D01*
X0338309Y0107055D01*
X0338048Y0107664D01*
X0337802Y0108280D01*
X0337571Y0108901D01*
X0337355Y0109528D01*
X0337155Y0110160D01*
X0336970Y0110797D01*
X0336801Y0111438D01*
X0336648Y0112083D01*
X0336511Y0112731D01*
X0336390Y0113383D01*
X0336284Y0114037D01*
X0336195Y0114694D01*
X0336122Y0115353D01*
X0336065Y0116013D01*
X0336025Y0116675D01*
X0336000Y0117337D01*
X0335992Y0118000D01*
X0335992Y0053000D02*
X0336000Y0053663D01*
X0336025Y0054325D01*
X0336065Y0054987D01*
X0336122Y0055647D01*
X0336195Y0056306D01*
X0336284Y0056963D01*
X0336390Y0057617D01*
X0336511Y0058269D01*
X0336648Y0058917D01*
X0336801Y0059562D01*
X0336970Y0060203D01*
X0337155Y0060840D01*
X0337355Y0061472D01*
X0337571Y0062099D01*
X0337802Y0062720D01*
X0338048Y0063336D01*
X0338309Y0063945D01*
X0338585Y0064547D01*
X0338876Y0065143D01*
X0339181Y0065731D01*
X0339501Y0066312D01*
X0339834Y0066885D01*
X0340182Y0067449D01*
X0340544Y0068005D01*
X0340919Y0068551D01*
X0341307Y0069089D01*
X0341708Y0069616D01*
X0342123Y0070134D01*
X0342549Y0070641D01*
X0342988Y0071137D01*
X0343440Y0071623D01*
X0343902Y0072098D01*
X0344377Y0072560D01*
X0344863Y0073012D01*
X0345359Y0073451D01*
X0345866Y0073877D01*
X0346384Y0074292D01*
X0346911Y0074693D01*
X0347449Y0075081D01*
X0347995Y0075456D01*
X0348551Y0075818D01*
X0349115Y0076166D01*
X0349688Y0076499D01*
X0350269Y0076819D01*
X0350857Y0077124D01*
X0351453Y0077415D01*
X0352055Y0077691D01*
X0352664Y0077952D01*
X0353280Y0078198D01*
X0353901Y0078429D01*
X0354528Y0078645D01*
X0355160Y0078845D01*
X0355797Y0079030D01*
X0356438Y0079199D01*
X0357083Y0079352D01*
X0357731Y0079489D01*
X0358383Y0079610D01*
X0359037Y0079716D01*
X0359694Y0079805D01*
X0360353Y0079878D01*
X0361013Y0079935D01*
X0361675Y0079975D01*
X0362337Y0080000D01*
X0363000Y0080008D01*
X0363663Y0080000D01*
X0364325Y0079975D01*
X0364987Y0079935D01*
X0365647Y0079878D01*
X0366306Y0079805D01*
X0366963Y0079716D01*
X0367617Y0079610D01*
X0368269Y0079489D01*
X0368917Y0079352D01*
X0369562Y0079199D01*
X0370203Y0079030D01*
X0370840Y0078845D01*
X0371472Y0078645D01*
X0372099Y0078429D01*
X0372720Y0078198D01*
X0373336Y0077952D01*
X0373945Y0077691D01*
X0374547Y0077415D01*
X0375143Y0077124D01*
X0375731Y0076819D01*
X0376312Y0076499D01*
X0376885Y0076166D01*
X0377449Y0075818D01*
X0378005Y0075456D01*
X0378551Y0075081D01*
X0379089Y0074693D01*
X0379616Y0074292D01*
X0380134Y0073877D01*
X0380641Y0073451D01*
X0381137Y0073012D01*
X0381623Y0072560D01*
X0382098Y0072098D01*
X0382560Y0071623D01*
X0383012Y0071137D01*
X0383451Y0070641D01*
X0383877Y0070134D01*
X0384292Y0069616D01*
X0384693Y0069089D01*
X0385081Y0068551D01*
X0385456Y0068005D01*
X0385818Y0067449D01*
X0386166Y0066885D01*
X0386499Y0066312D01*
X0386819Y0065731D01*
X0387124Y0065143D01*
X0387415Y0064547D01*
X0387691Y0063945D01*
X0387952Y0063336D01*
X0388198Y0062720D01*
X0388429Y0062099D01*
X0388645Y0061472D01*
X0388845Y0060840D01*
X0389030Y0060203D01*
X0389199Y0059562D01*
X0389352Y0058917D01*
X0389489Y0058269D01*
X0389610Y0057617D01*
X0389716Y0056963D01*
X0389805Y0056306D01*
X0389878Y0055647D01*
X0389935Y0054987D01*
X0389975Y0054325D01*
X0390000Y0053663D01*
X0390008Y0053000D01*
X0390000Y0052337D01*
X0389975Y0051675D01*
X0389935Y0051013D01*
X0389878Y0050353D01*
X0389805Y0049694D01*
X0389716Y0049037D01*
X0389610Y0048383D01*
X0389489Y0047731D01*
X0389352Y0047083D01*
X0389199Y0046438D01*
X0389030Y0045797D01*
X0388845Y0045160D01*
X0388645Y0044528D01*
X0388429Y0043901D01*
X0388198Y0043280D01*
X0387952Y0042664D01*
X0387691Y0042055D01*
X0387415Y0041453D01*
X0387124Y0040857D01*
X0386819Y0040269D01*
X0386499Y0039688D01*
X0386166Y0039115D01*
X0385818Y0038551D01*
X0385456Y0037995D01*
X0385081Y0037449D01*
X0384693Y0036911D01*
X0384292Y0036384D01*
X0383877Y0035866D01*
X0383451Y0035359D01*
X0383012Y0034863D01*
X0382560Y0034377D01*
X0382098Y0033902D01*
X0381623Y0033440D01*
X0381137Y0032988D01*
X0380641Y0032549D01*
X0380134Y0032123D01*
X0379616Y0031708D01*
X0379089Y0031307D01*
X0378551Y0030919D01*
X0378005Y0030544D01*
X0377449Y0030182D01*
X0376885Y0029834D01*
X0376312Y0029501D01*
X0375731Y0029181D01*
X0375143Y0028876D01*
X0374547Y0028585D01*
X0373945Y0028309D01*
X0373336Y0028048D01*
X0372720Y0027802D01*
X0372099Y0027571D01*
X0371472Y0027355D01*
X0370840Y0027155D01*
X0370203Y0026970D01*
X0369562Y0026801D01*
X0368917Y0026648D01*
X0368269Y0026511D01*
X0367617Y0026390D01*
X0366963Y0026284D01*
X0366306Y0026195D01*
X0365647Y0026122D01*
X0364987Y0026065D01*
X0364325Y0026025D01*
X0363663Y0026000D01*
X0363000Y0025992D01*
X0362337Y0026000D01*
X0361675Y0026025D01*
X0361013Y0026065D01*
X0360353Y0026122D01*
X0359694Y0026195D01*
X0359037Y0026284D01*
X0358383Y0026390D01*
X0357731Y0026511D01*
X0357083Y0026648D01*
X0356438Y0026801D01*
X0355797Y0026970D01*
X0355160Y0027155D01*
X0354528Y0027355D01*
X0353901Y0027571D01*
X0353280Y0027802D01*
X0352664Y0028048D01*
X0352055Y0028309D01*
X0351453Y0028585D01*
X0350857Y0028876D01*
X0350269Y0029181D01*
X0349688Y0029501D01*
X0349115Y0029834D01*
X0348551Y0030182D01*
X0347995Y0030544D01*
X0347449Y0030919D01*
X0346911Y0031307D01*
X0346384Y0031708D01*
X0345866Y0032123D01*
X0345359Y0032549D01*
X0344863Y0032988D01*
X0344377Y0033440D01*
X0343902Y0033902D01*
X0343440Y0034377D01*
X0342988Y0034863D01*
X0342549Y0035359D01*
X0342123Y0035866D01*
X0341708Y0036384D01*
X0341307Y0036911D01*
X0340919Y0037449D01*
X0340544Y0037995D01*
X0340182Y0038551D01*
X0339834Y0039115D01*
X0339501Y0039688D01*
X0339181Y0040269D01*
X0338876Y0040857D01*
X0338585Y0041453D01*
X0338309Y0042055D01*
X0338048Y0042664D01*
X0337802Y0043280D01*
X0337571Y0043901D01*
X0337355Y0044528D01*
X0337155Y0045160D01*
X0336970Y0045797D01*
X0336801Y0046438D01*
X0336648Y0047083D01*
X0336511Y0047731D01*
X0336390Y0048383D01*
X0336284Y0049037D01*
X0336195Y0049694D01*
X0336122Y0050353D01*
X0336065Y0051013D01*
X0336025Y0051675D01*
X0336000Y0052337D01*
X0335992Y0053000D01*
X0240160Y0049203D02*
X0240160Y0048453D01*
X0239410Y0047702D01*
X0240160Y0046951D01*
X0240160Y0046201D01*
X0239410Y0045450D01*
X0237908Y0045450D01*
X0237158Y0046201D01*
X0238659Y0047702D02*
X0239410Y0047702D01*
X0240160Y0049203D02*
X0239410Y0049954D01*
X0237908Y0049954D01*
X0237158Y0049203D01*
X0235556Y0049203D02*
X0235556Y0047702D01*
X0234806Y0046951D01*
X0232554Y0046951D01*
X0232554Y0045450D02*
X0232554Y0049954D01*
X0234806Y0049954D01*
X0235556Y0049203D01*
X0230953Y0049954D02*
X0229451Y0049954D01*
X0230202Y0049954D02*
X0230202Y0046201D01*
X0229451Y0045450D01*
X0228701Y0045450D01*
X0227950Y0046201D01*
X0110992Y0138000D02*
X0111000Y0138663D01*
X0111025Y0139325D01*
X0111065Y0139987D01*
X0111122Y0140647D01*
X0111195Y0141306D01*
X0111284Y0141963D01*
X0111390Y0142617D01*
X0111511Y0143269D01*
X0111648Y0143917D01*
X0111801Y0144562D01*
X0111970Y0145203D01*
X0112155Y0145840D01*
X0112355Y0146472D01*
X0112571Y0147099D01*
X0112802Y0147720D01*
X0113048Y0148336D01*
X0113309Y0148945D01*
X0113585Y0149547D01*
X0113876Y0150143D01*
X0114181Y0150731D01*
X0114501Y0151312D01*
X0114834Y0151885D01*
X0115182Y0152449D01*
X0115544Y0153005D01*
X0115919Y0153551D01*
X0116307Y0154089D01*
X0116708Y0154616D01*
X0117123Y0155134D01*
X0117549Y0155641D01*
X0117988Y0156137D01*
X0118440Y0156623D01*
X0118902Y0157098D01*
X0119377Y0157560D01*
X0119863Y0158012D01*
X0120359Y0158451D01*
X0120866Y0158877D01*
X0121384Y0159292D01*
X0121911Y0159693D01*
X0122449Y0160081D01*
X0122995Y0160456D01*
X0123551Y0160818D01*
X0124115Y0161166D01*
X0124688Y0161499D01*
X0125269Y0161819D01*
X0125857Y0162124D01*
X0126453Y0162415D01*
X0127055Y0162691D01*
X0127664Y0162952D01*
X0128280Y0163198D01*
X0128901Y0163429D01*
X0129528Y0163645D01*
X0130160Y0163845D01*
X0130797Y0164030D01*
X0131438Y0164199D01*
X0132083Y0164352D01*
X0132731Y0164489D01*
X0133383Y0164610D01*
X0134037Y0164716D01*
X0134694Y0164805D01*
X0135353Y0164878D01*
X0136013Y0164935D01*
X0136675Y0164975D01*
X0137337Y0165000D01*
X0138000Y0165008D01*
X0138663Y0165000D01*
X0139325Y0164975D01*
X0139987Y0164935D01*
X0140647Y0164878D01*
X0141306Y0164805D01*
X0141963Y0164716D01*
X0142617Y0164610D01*
X0143269Y0164489D01*
X0143917Y0164352D01*
X0144562Y0164199D01*
X0145203Y0164030D01*
X0145840Y0163845D01*
X0146472Y0163645D01*
X0147099Y0163429D01*
X0147720Y0163198D01*
X0148336Y0162952D01*
X0148945Y0162691D01*
X0149547Y0162415D01*
X0150143Y0162124D01*
X0150731Y0161819D01*
X0151312Y0161499D01*
X0151885Y0161166D01*
X0152449Y0160818D01*
X0153005Y0160456D01*
X0153551Y0160081D01*
X0154089Y0159693D01*
X0154616Y0159292D01*
X0155134Y0158877D01*
X0155641Y0158451D01*
X0156137Y0158012D01*
X0156623Y0157560D01*
X0157098Y0157098D01*
X0157560Y0156623D01*
X0158012Y0156137D01*
X0158451Y0155641D01*
X0158877Y0155134D01*
X0159292Y0154616D01*
X0159693Y0154089D01*
X0160081Y0153551D01*
X0160456Y0153005D01*
X0160818Y0152449D01*
X0161166Y0151885D01*
X0161499Y0151312D01*
X0161819Y0150731D01*
X0162124Y0150143D01*
X0162415Y0149547D01*
X0162691Y0148945D01*
X0162952Y0148336D01*
X0163198Y0147720D01*
X0163429Y0147099D01*
X0163645Y0146472D01*
X0163845Y0145840D01*
X0164030Y0145203D01*
X0164199Y0144562D01*
X0164352Y0143917D01*
X0164489Y0143269D01*
X0164610Y0142617D01*
X0164716Y0141963D01*
X0164805Y0141306D01*
X0164878Y0140647D01*
X0164935Y0139987D01*
X0164975Y0139325D01*
X0165000Y0138663D01*
X0165008Y0138000D01*
X0165000Y0137337D01*
X0164975Y0136675D01*
X0164935Y0136013D01*
X0164878Y0135353D01*
X0164805Y0134694D01*
X0164716Y0134037D01*
X0164610Y0133383D01*
X0164489Y0132731D01*
X0164352Y0132083D01*
X0164199Y0131438D01*
X0164030Y0130797D01*
X0163845Y0130160D01*
X0163645Y0129528D01*
X0163429Y0128901D01*
X0163198Y0128280D01*
X0162952Y0127664D01*
X0162691Y0127055D01*
X0162415Y0126453D01*
X0162124Y0125857D01*
X0161819Y0125269D01*
X0161499Y0124688D01*
X0161166Y0124115D01*
X0160818Y0123551D01*
X0160456Y0122995D01*
X0160081Y0122449D01*
X0159693Y0121911D01*
X0159292Y0121384D01*
X0158877Y0120866D01*
X0158451Y0120359D01*
X0158012Y0119863D01*
X0157560Y0119377D01*
X0157098Y0118902D01*
X0156623Y0118440D01*
X0156137Y0117988D01*
X0155641Y0117549D01*
X0155134Y0117123D01*
X0154616Y0116708D01*
X0154089Y0116307D01*
X0153551Y0115919D01*
X0153005Y0115544D01*
X0152449Y0115182D01*
X0151885Y0114834D01*
X0151312Y0114501D01*
X0150731Y0114181D01*
X0150143Y0113876D01*
X0149547Y0113585D01*
X0148945Y0113309D01*
X0148336Y0113048D01*
X0147720Y0112802D01*
X0147099Y0112571D01*
X0146472Y0112355D01*
X0145840Y0112155D01*
X0145203Y0111970D01*
X0144562Y0111801D01*
X0143917Y0111648D01*
X0143269Y0111511D01*
X0142617Y0111390D01*
X0141963Y0111284D01*
X0141306Y0111195D01*
X0140647Y0111122D01*
X0139987Y0111065D01*
X0139325Y0111025D01*
X0138663Y0111000D01*
X0138000Y0110992D01*
X0137337Y0111000D01*
X0136675Y0111025D01*
X0136013Y0111065D01*
X0135353Y0111122D01*
X0134694Y0111195D01*
X0134037Y0111284D01*
X0133383Y0111390D01*
X0132731Y0111511D01*
X0132083Y0111648D01*
X0131438Y0111801D01*
X0130797Y0111970D01*
X0130160Y0112155D01*
X0129528Y0112355D01*
X0128901Y0112571D01*
X0128280Y0112802D01*
X0127664Y0113048D01*
X0127055Y0113309D01*
X0126453Y0113585D01*
X0125857Y0113876D01*
X0125269Y0114181D01*
X0124688Y0114501D01*
X0124115Y0114834D01*
X0123551Y0115182D01*
X0122995Y0115544D01*
X0122449Y0115919D01*
X0121911Y0116307D01*
X0121384Y0116708D01*
X0120866Y0117123D01*
X0120359Y0117549D01*
X0119863Y0117988D01*
X0119377Y0118440D01*
X0118902Y0118902D01*
X0118440Y0119377D01*
X0117988Y0119863D01*
X0117549Y0120359D01*
X0117123Y0120866D01*
X0116708Y0121384D01*
X0116307Y0121911D01*
X0115919Y0122449D01*
X0115544Y0122995D01*
X0115182Y0123551D01*
X0114834Y0124115D01*
X0114501Y0124688D01*
X0114181Y0125269D01*
X0113876Y0125857D01*
X0113585Y0126453D01*
X0113309Y0127055D01*
X0113048Y0127664D01*
X0112802Y0128280D01*
X0112571Y0128901D01*
X0112355Y0129528D01*
X0112155Y0130160D01*
X0111970Y0130797D01*
X0111801Y0131438D01*
X0111648Y0132083D01*
X0111511Y0132731D01*
X0111390Y0133383D01*
X0111284Y0134037D01*
X0111195Y0134694D01*
X0111122Y0135353D01*
X0111065Y0136013D01*
X0111025Y0136675D01*
X0111000Y0137337D01*
X0110992Y0138000D01*
X0010992Y0138000D02*
X0011000Y0138663D01*
X0011025Y0139325D01*
X0011065Y0139987D01*
X0011122Y0140647D01*
X0011195Y0141306D01*
X0011284Y0141963D01*
X0011390Y0142617D01*
X0011511Y0143269D01*
X0011648Y0143917D01*
X0011801Y0144562D01*
X0011970Y0145203D01*
X0012155Y0145840D01*
X0012355Y0146472D01*
X0012571Y0147099D01*
X0012802Y0147720D01*
X0013048Y0148336D01*
X0013309Y0148945D01*
X0013585Y0149547D01*
X0013876Y0150143D01*
X0014181Y0150731D01*
X0014501Y0151312D01*
X0014834Y0151885D01*
X0015182Y0152449D01*
X0015544Y0153005D01*
X0015919Y0153551D01*
X0016307Y0154089D01*
X0016708Y0154616D01*
X0017123Y0155134D01*
X0017549Y0155641D01*
X0017988Y0156137D01*
X0018440Y0156623D01*
X0018902Y0157098D01*
X0019377Y0157560D01*
X0019863Y0158012D01*
X0020359Y0158451D01*
X0020866Y0158877D01*
X0021384Y0159292D01*
X0021911Y0159693D01*
X0022449Y0160081D01*
X0022995Y0160456D01*
X0023551Y0160818D01*
X0024115Y0161166D01*
X0024688Y0161499D01*
X0025269Y0161819D01*
X0025857Y0162124D01*
X0026453Y0162415D01*
X0027055Y0162691D01*
X0027664Y0162952D01*
X0028280Y0163198D01*
X0028901Y0163429D01*
X0029528Y0163645D01*
X0030160Y0163845D01*
X0030797Y0164030D01*
X0031438Y0164199D01*
X0032083Y0164352D01*
X0032731Y0164489D01*
X0033383Y0164610D01*
X0034037Y0164716D01*
X0034694Y0164805D01*
X0035353Y0164878D01*
X0036013Y0164935D01*
X0036675Y0164975D01*
X0037337Y0165000D01*
X0038000Y0165008D01*
X0038663Y0165000D01*
X0039325Y0164975D01*
X0039987Y0164935D01*
X0040647Y0164878D01*
X0041306Y0164805D01*
X0041963Y0164716D01*
X0042617Y0164610D01*
X0043269Y0164489D01*
X0043917Y0164352D01*
X0044562Y0164199D01*
X0045203Y0164030D01*
X0045840Y0163845D01*
X0046472Y0163645D01*
X0047099Y0163429D01*
X0047720Y0163198D01*
X0048336Y0162952D01*
X0048945Y0162691D01*
X0049547Y0162415D01*
X0050143Y0162124D01*
X0050731Y0161819D01*
X0051312Y0161499D01*
X0051885Y0161166D01*
X0052449Y0160818D01*
X0053005Y0160456D01*
X0053551Y0160081D01*
X0054089Y0159693D01*
X0054616Y0159292D01*
X0055134Y0158877D01*
X0055641Y0158451D01*
X0056137Y0158012D01*
X0056623Y0157560D01*
X0057098Y0157098D01*
X0057560Y0156623D01*
X0058012Y0156137D01*
X0058451Y0155641D01*
X0058877Y0155134D01*
X0059292Y0154616D01*
X0059693Y0154089D01*
X0060081Y0153551D01*
X0060456Y0153005D01*
X0060818Y0152449D01*
X0061166Y0151885D01*
X0061499Y0151312D01*
X0061819Y0150731D01*
X0062124Y0150143D01*
X0062415Y0149547D01*
X0062691Y0148945D01*
X0062952Y0148336D01*
X0063198Y0147720D01*
X0063429Y0147099D01*
X0063645Y0146472D01*
X0063845Y0145840D01*
X0064030Y0145203D01*
X0064199Y0144562D01*
X0064352Y0143917D01*
X0064489Y0143269D01*
X0064610Y0142617D01*
X0064716Y0141963D01*
X0064805Y0141306D01*
X0064878Y0140647D01*
X0064935Y0139987D01*
X0064975Y0139325D01*
X0065000Y0138663D01*
X0065008Y0138000D01*
X0065000Y0137337D01*
X0064975Y0136675D01*
X0064935Y0136013D01*
X0064878Y0135353D01*
X0064805Y0134694D01*
X0064716Y0134037D01*
X0064610Y0133383D01*
X0064489Y0132731D01*
X0064352Y0132083D01*
X0064199Y0131438D01*
X0064030Y0130797D01*
X0063845Y0130160D01*
X0063645Y0129528D01*
X0063429Y0128901D01*
X0063198Y0128280D01*
X0062952Y0127664D01*
X0062691Y0127055D01*
X0062415Y0126453D01*
X0062124Y0125857D01*
X0061819Y0125269D01*
X0061499Y0124688D01*
X0061166Y0124115D01*
X0060818Y0123551D01*
X0060456Y0122995D01*
X0060081Y0122449D01*
X0059693Y0121911D01*
X0059292Y0121384D01*
X0058877Y0120866D01*
X0058451Y0120359D01*
X0058012Y0119863D01*
X0057560Y0119377D01*
X0057098Y0118902D01*
X0056623Y0118440D01*
X0056137Y0117988D01*
X0055641Y0117549D01*
X0055134Y0117123D01*
X0054616Y0116708D01*
X0054089Y0116307D01*
X0053551Y0115919D01*
X0053005Y0115544D01*
X0052449Y0115182D01*
X0051885Y0114834D01*
X0051312Y0114501D01*
X0050731Y0114181D01*
X0050143Y0113876D01*
X0049547Y0113585D01*
X0048945Y0113309D01*
X0048336Y0113048D01*
X0047720Y0112802D01*
X0047099Y0112571D01*
X0046472Y0112355D01*
X0045840Y0112155D01*
X0045203Y0111970D01*
X0044562Y0111801D01*
X0043917Y0111648D01*
X0043269Y0111511D01*
X0042617Y0111390D01*
X0041963Y0111284D01*
X0041306Y0111195D01*
X0040647Y0111122D01*
X0039987Y0111065D01*
X0039325Y0111025D01*
X0038663Y0111000D01*
X0038000Y0110992D01*
X0037337Y0111000D01*
X0036675Y0111025D01*
X0036013Y0111065D01*
X0035353Y0111122D01*
X0034694Y0111195D01*
X0034037Y0111284D01*
X0033383Y0111390D01*
X0032731Y0111511D01*
X0032083Y0111648D01*
X0031438Y0111801D01*
X0030797Y0111970D01*
X0030160Y0112155D01*
X0029528Y0112355D01*
X0028901Y0112571D01*
X0028280Y0112802D01*
X0027664Y0113048D01*
X0027055Y0113309D01*
X0026453Y0113585D01*
X0025857Y0113876D01*
X0025269Y0114181D01*
X0024688Y0114501D01*
X0024115Y0114834D01*
X0023551Y0115182D01*
X0022995Y0115544D01*
X0022449Y0115919D01*
X0021911Y0116307D01*
X0021384Y0116708D01*
X0020866Y0117123D01*
X0020359Y0117549D01*
X0019863Y0117988D01*
X0019377Y0118440D01*
X0018902Y0118902D01*
X0018440Y0119377D01*
X0017988Y0119863D01*
X0017549Y0120359D01*
X0017123Y0120866D01*
X0016708Y0121384D01*
X0016307Y0121911D01*
X0015919Y0122449D01*
X0015544Y0122995D01*
X0015182Y0123551D01*
X0014834Y0124115D01*
X0014501Y0124688D01*
X0014181Y0125269D01*
X0013876Y0125857D01*
X0013585Y0126453D01*
X0013309Y0127055D01*
X0013048Y0127664D01*
X0012802Y0128280D01*
X0012571Y0128901D01*
X0012355Y0129528D01*
X0012155Y0130160D01*
X0011970Y0130797D01*
X0011801Y0131438D01*
X0011648Y0132083D01*
X0011511Y0132731D01*
X0011390Y0133383D01*
X0011284Y0134037D01*
X0011195Y0134694D01*
X0011122Y0135353D01*
X0011065Y0136013D01*
X0011025Y0136675D01*
X0011000Y0137337D01*
X0010992Y0138000D01*
X0010992Y0198000D02*
X0011000Y0198663D01*
X0011025Y0199325D01*
X0011065Y0199987D01*
X0011122Y0200647D01*
X0011195Y0201306D01*
X0011284Y0201963D01*
X0011390Y0202617D01*
X0011511Y0203269D01*
X0011648Y0203917D01*
X0011801Y0204562D01*
X0011970Y0205203D01*
X0012155Y0205840D01*
X0012355Y0206472D01*
X0012571Y0207099D01*
X0012802Y0207720D01*
X0013048Y0208336D01*
X0013309Y0208945D01*
X0013585Y0209547D01*
X0013876Y0210143D01*
X0014181Y0210731D01*
X0014501Y0211312D01*
X0014834Y0211885D01*
X0015182Y0212449D01*
X0015544Y0213005D01*
X0015919Y0213551D01*
X0016307Y0214089D01*
X0016708Y0214616D01*
X0017123Y0215134D01*
X0017549Y0215641D01*
X0017988Y0216137D01*
X0018440Y0216623D01*
X0018902Y0217098D01*
X0019377Y0217560D01*
X0019863Y0218012D01*
X0020359Y0218451D01*
X0020866Y0218877D01*
X0021384Y0219292D01*
X0021911Y0219693D01*
X0022449Y0220081D01*
X0022995Y0220456D01*
X0023551Y0220818D01*
X0024115Y0221166D01*
X0024688Y0221499D01*
X0025269Y0221819D01*
X0025857Y0222124D01*
X0026453Y0222415D01*
X0027055Y0222691D01*
X0027664Y0222952D01*
X0028280Y0223198D01*
X0028901Y0223429D01*
X0029528Y0223645D01*
X0030160Y0223845D01*
X0030797Y0224030D01*
X0031438Y0224199D01*
X0032083Y0224352D01*
X0032731Y0224489D01*
X0033383Y0224610D01*
X0034037Y0224716D01*
X0034694Y0224805D01*
X0035353Y0224878D01*
X0036013Y0224935D01*
X0036675Y0224975D01*
X0037337Y0225000D01*
X0038000Y0225008D01*
X0038663Y0225000D01*
X0039325Y0224975D01*
X0039987Y0224935D01*
X0040647Y0224878D01*
X0041306Y0224805D01*
X0041963Y0224716D01*
X0042617Y0224610D01*
X0043269Y0224489D01*
X0043917Y0224352D01*
X0044562Y0224199D01*
X0045203Y0224030D01*
X0045840Y0223845D01*
X0046472Y0223645D01*
X0047099Y0223429D01*
X0047720Y0223198D01*
X0048336Y0222952D01*
X0048945Y0222691D01*
X0049547Y0222415D01*
X0050143Y0222124D01*
X0050731Y0221819D01*
X0051312Y0221499D01*
X0051885Y0221166D01*
X0052449Y0220818D01*
X0053005Y0220456D01*
X0053551Y0220081D01*
X0054089Y0219693D01*
X0054616Y0219292D01*
X0055134Y0218877D01*
X0055641Y0218451D01*
X0056137Y0218012D01*
X0056623Y0217560D01*
X0057098Y0217098D01*
X0057560Y0216623D01*
X0058012Y0216137D01*
X0058451Y0215641D01*
X0058877Y0215134D01*
X0059292Y0214616D01*
X0059693Y0214089D01*
X0060081Y0213551D01*
X0060456Y0213005D01*
X0060818Y0212449D01*
X0061166Y0211885D01*
X0061499Y0211312D01*
X0061819Y0210731D01*
X0062124Y0210143D01*
X0062415Y0209547D01*
X0062691Y0208945D01*
X0062952Y0208336D01*
X0063198Y0207720D01*
X0063429Y0207099D01*
X0063645Y0206472D01*
X0063845Y0205840D01*
X0064030Y0205203D01*
X0064199Y0204562D01*
X0064352Y0203917D01*
X0064489Y0203269D01*
X0064610Y0202617D01*
X0064716Y0201963D01*
X0064805Y0201306D01*
X0064878Y0200647D01*
X0064935Y0199987D01*
X0064975Y0199325D01*
X0065000Y0198663D01*
X0065008Y0198000D01*
X0065000Y0197337D01*
X0064975Y0196675D01*
X0064935Y0196013D01*
X0064878Y0195353D01*
X0064805Y0194694D01*
X0064716Y0194037D01*
X0064610Y0193383D01*
X0064489Y0192731D01*
X0064352Y0192083D01*
X0064199Y0191438D01*
X0064030Y0190797D01*
X0063845Y0190160D01*
X0063645Y0189528D01*
X0063429Y0188901D01*
X0063198Y0188280D01*
X0062952Y0187664D01*
X0062691Y0187055D01*
X0062415Y0186453D01*
X0062124Y0185857D01*
X0061819Y0185269D01*
X0061499Y0184688D01*
X0061166Y0184115D01*
X0060818Y0183551D01*
X0060456Y0182995D01*
X0060081Y0182449D01*
X0059693Y0181911D01*
X0059292Y0181384D01*
X0058877Y0180866D01*
X0058451Y0180359D01*
X0058012Y0179863D01*
X0057560Y0179377D01*
X0057098Y0178902D01*
X0056623Y0178440D01*
X0056137Y0177988D01*
X0055641Y0177549D01*
X0055134Y0177123D01*
X0054616Y0176708D01*
X0054089Y0176307D01*
X0053551Y0175919D01*
X0053005Y0175544D01*
X0052449Y0175182D01*
X0051885Y0174834D01*
X0051312Y0174501D01*
X0050731Y0174181D01*
X0050143Y0173876D01*
X0049547Y0173585D01*
X0048945Y0173309D01*
X0048336Y0173048D01*
X0047720Y0172802D01*
X0047099Y0172571D01*
X0046472Y0172355D01*
X0045840Y0172155D01*
X0045203Y0171970D01*
X0044562Y0171801D01*
X0043917Y0171648D01*
X0043269Y0171511D01*
X0042617Y0171390D01*
X0041963Y0171284D01*
X0041306Y0171195D01*
X0040647Y0171122D01*
X0039987Y0171065D01*
X0039325Y0171025D01*
X0038663Y0171000D01*
X0038000Y0170992D01*
X0037337Y0171000D01*
X0036675Y0171025D01*
X0036013Y0171065D01*
X0035353Y0171122D01*
X0034694Y0171195D01*
X0034037Y0171284D01*
X0033383Y0171390D01*
X0032731Y0171511D01*
X0032083Y0171648D01*
X0031438Y0171801D01*
X0030797Y0171970D01*
X0030160Y0172155D01*
X0029528Y0172355D01*
X0028901Y0172571D01*
X0028280Y0172802D01*
X0027664Y0173048D01*
X0027055Y0173309D01*
X0026453Y0173585D01*
X0025857Y0173876D01*
X0025269Y0174181D01*
X0024688Y0174501D01*
X0024115Y0174834D01*
X0023551Y0175182D01*
X0022995Y0175544D01*
X0022449Y0175919D01*
X0021911Y0176307D01*
X0021384Y0176708D01*
X0020866Y0177123D01*
X0020359Y0177549D01*
X0019863Y0177988D01*
X0019377Y0178440D01*
X0018902Y0178902D01*
X0018440Y0179377D01*
X0017988Y0179863D01*
X0017549Y0180359D01*
X0017123Y0180866D01*
X0016708Y0181384D01*
X0016307Y0181911D01*
X0015919Y0182449D01*
X0015544Y0182995D01*
X0015182Y0183551D01*
X0014834Y0184115D01*
X0014501Y0184688D01*
X0014181Y0185269D01*
X0013876Y0185857D01*
X0013585Y0186453D01*
X0013309Y0187055D01*
X0013048Y0187664D01*
X0012802Y0188280D01*
X0012571Y0188901D01*
X0012355Y0189528D01*
X0012155Y0190160D01*
X0011970Y0190797D01*
X0011801Y0191438D01*
X0011648Y0192083D01*
X0011511Y0192731D01*
X0011390Y0193383D01*
X0011284Y0194037D01*
X0011195Y0194694D01*
X0011122Y0195353D01*
X0011065Y0196013D01*
X0011025Y0196675D01*
X0011000Y0197337D01*
X0010992Y0198000D01*
X0110992Y0198000D02*
X0111000Y0198663D01*
X0111025Y0199325D01*
X0111065Y0199987D01*
X0111122Y0200647D01*
X0111195Y0201306D01*
X0111284Y0201963D01*
X0111390Y0202617D01*
X0111511Y0203269D01*
X0111648Y0203917D01*
X0111801Y0204562D01*
X0111970Y0205203D01*
X0112155Y0205840D01*
X0112355Y0206472D01*
X0112571Y0207099D01*
X0112802Y0207720D01*
X0113048Y0208336D01*
X0113309Y0208945D01*
X0113585Y0209547D01*
X0113876Y0210143D01*
X0114181Y0210731D01*
X0114501Y0211312D01*
X0114834Y0211885D01*
X0115182Y0212449D01*
X0115544Y0213005D01*
X0115919Y0213551D01*
X0116307Y0214089D01*
X0116708Y0214616D01*
X0117123Y0215134D01*
X0117549Y0215641D01*
X0117988Y0216137D01*
X0118440Y0216623D01*
X0118902Y0217098D01*
X0119377Y0217560D01*
X0119863Y0218012D01*
X0120359Y0218451D01*
X0120866Y0218877D01*
X0121384Y0219292D01*
X0121911Y0219693D01*
X0122449Y0220081D01*
X0122995Y0220456D01*
X0123551Y0220818D01*
X0124115Y0221166D01*
X0124688Y0221499D01*
X0125269Y0221819D01*
X0125857Y0222124D01*
X0126453Y0222415D01*
X0127055Y0222691D01*
X0127664Y0222952D01*
X0128280Y0223198D01*
X0128901Y0223429D01*
X0129528Y0223645D01*
X0130160Y0223845D01*
X0130797Y0224030D01*
X0131438Y0224199D01*
X0132083Y0224352D01*
X0132731Y0224489D01*
X0133383Y0224610D01*
X0134037Y0224716D01*
X0134694Y0224805D01*
X0135353Y0224878D01*
X0136013Y0224935D01*
X0136675Y0224975D01*
X0137337Y0225000D01*
X0138000Y0225008D01*
X0138663Y0225000D01*
X0139325Y0224975D01*
X0139987Y0224935D01*
X0140647Y0224878D01*
X0141306Y0224805D01*
X0141963Y0224716D01*
X0142617Y0224610D01*
X0143269Y0224489D01*
X0143917Y0224352D01*
X0144562Y0224199D01*
X0145203Y0224030D01*
X0145840Y0223845D01*
X0146472Y0223645D01*
X0147099Y0223429D01*
X0147720Y0223198D01*
X0148336Y0222952D01*
X0148945Y0222691D01*
X0149547Y0222415D01*
X0150143Y0222124D01*
X0150731Y0221819D01*
X0151312Y0221499D01*
X0151885Y0221166D01*
X0152449Y0220818D01*
X0153005Y0220456D01*
X0153551Y0220081D01*
X0154089Y0219693D01*
X0154616Y0219292D01*
X0155134Y0218877D01*
X0155641Y0218451D01*
X0156137Y0218012D01*
X0156623Y0217560D01*
X0157098Y0217098D01*
X0157560Y0216623D01*
X0158012Y0216137D01*
X0158451Y0215641D01*
X0158877Y0215134D01*
X0159292Y0214616D01*
X0159693Y0214089D01*
X0160081Y0213551D01*
X0160456Y0213005D01*
X0160818Y0212449D01*
X0161166Y0211885D01*
X0161499Y0211312D01*
X0161819Y0210731D01*
X0162124Y0210143D01*
X0162415Y0209547D01*
X0162691Y0208945D01*
X0162952Y0208336D01*
X0163198Y0207720D01*
X0163429Y0207099D01*
X0163645Y0206472D01*
X0163845Y0205840D01*
X0164030Y0205203D01*
X0164199Y0204562D01*
X0164352Y0203917D01*
X0164489Y0203269D01*
X0164610Y0202617D01*
X0164716Y0201963D01*
X0164805Y0201306D01*
X0164878Y0200647D01*
X0164935Y0199987D01*
X0164975Y0199325D01*
X0165000Y0198663D01*
X0165008Y0198000D01*
X0165000Y0197337D01*
X0164975Y0196675D01*
X0164935Y0196013D01*
X0164878Y0195353D01*
X0164805Y0194694D01*
X0164716Y0194037D01*
X0164610Y0193383D01*
X0164489Y0192731D01*
X0164352Y0192083D01*
X0164199Y0191438D01*
X0164030Y0190797D01*
X0163845Y0190160D01*
X0163645Y0189528D01*
X0163429Y0188901D01*
X0163198Y0188280D01*
X0162952Y0187664D01*
X0162691Y0187055D01*
X0162415Y0186453D01*
X0162124Y0185857D01*
X0161819Y0185269D01*
X0161499Y0184688D01*
X0161166Y0184115D01*
X0160818Y0183551D01*
X0160456Y0182995D01*
X0160081Y0182449D01*
X0159693Y0181911D01*
X0159292Y0181384D01*
X0158877Y0180866D01*
X0158451Y0180359D01*
X0158012Y0179863D01*
X0157560Y0179377D01*
X0157098Y0178902D01*
X0156623Y0178440D01*
X0156137Y0177988D01*
X0155641Y0177549D01*
X0155134Y0177123D01*
X0154616Y0176708D01*
X0154089Y0176307D01*
X0153551Y0175919D01*
X0153005Y0175544D01*
X0152449Y0175182D01*
X0151885Y0174834D01*
X0151312Y0174501D01*
X0150731Y0174181D01*
X0150143Y0173876D01*
X0149547Y0173585D01*
X0148945Y0173309D01*
X0148336Y0173048D01*
X0147720Y0172802D01*
X0147099Y0172571D01*
X0146472Y0172355D01*
X0145840Y0172155D01*
X0145203Y0171970D01*
X0144562Y0171801D01*
X0143917Y0171648D01*
X0143269Y0171511D01*
X0142617Y0171390D01*
X0141963Y0171284D01*
X0141306Y0171195D01*
X0140647Y0171122D01*
X0139987Y0171065D01*
X0139325Y0171025D01*
X0138663Y0171000D01*
X0138000Y0170992D01*
X0137337Y0171000D01*
X0136675Y0171025D01*
X0136013Y0171065D01*
X0135353Y0171122D01*
X0134694Y0171195D01*
X0134037Y0171284D01*
X0133383Y0171390D01*
X0132731Y0171511D01*
X0132083Y0171648D01*
X0131438Y0171801D01*
X0130797Y0171970D01*
X0130160Y0172155D01*
X0129528Y0172355D01*
X0128901Y0172571D01*
X0128280Y0172802D01*
X0127664Y0173048D01*
X0127055Y0173309D01*
X0126453Y0173585D01*
X0125857Y0173876D01*
X0125269Y0174181D01*
X0124688Y0174501D01*
X0124115Y0174834D01*
X0123551Y0175182D01*
X0122995Y0175544D01*
X0122449Y0175919D01*
X0121911Y0176307D01*
X0121384Y0176708D01*
X0120866Y0177123D01*
X0120359Y0177549D01*
X0119863Y0177988D01*
X0119377Y0178440D01*
X0118902Y0178902D01*
X0118440Y0179377D01*
X0117988Y0179863D01*
X0117549Y0180359D01*
X0117123Y0180866D01*
X0116708Y0181384D01*
X0116307Y0181911D01*
X0115919Y0182449D01*
X0115544Y0182995D01*
X0115182Y0183551D01*
X0114834Y0184115D01*
X0114501Y0184688D01*
X0114181Y0185269D01*
X0113876Y0185857D01*
X0113585Y0186453D01*
X0113309Y0187055D01*
X0113048Y0187664D01*
X0112802Y0188280D01*
X0112571Y0188901D01*
X0112355Y0189528D01*
X0112155Y0190160D01*
X0111970Y0190797D01*
X0111801Y0191438D01*
X0111648Y0192083D01*
X0111511Y0192731D01*
X0111390Y0193383D01*
X0111284Y0194037D01*
X0111195Y0194694D01*
X0111122Y0195353D01*
X0111065Y0196013D01*
X0111025Y0196675D01*
X0111000Y0197337D01*
X0110992Y0198000D01*
D14*
X0128200Y0223200D02*
X0131269Y0227804D01*
X0132804Y0225502D02*
X0135873Y0225502D01*
X0135106Y0227804D02*
X0132804Y0225502D01*
X0131269Y0223200D02*
X0128200Y0227804D01*
X0135106Y0227804D02*
X0135106Y0223200D01*
X0135106Y0167804D02*
X0135873Y0167037D01*
X0135873Y0166269D01*
X0135106Y0165502D01*
X0135873Y0164735D01*
X0135873Y0163967D01*
X0135106Y0163200D01*
X0133571Y0163200D01*
X0132804Y0163967D01*
X0131269Y0163200D02*
X0128200Y0167804D01*
X0131269Y0167804D02*
X0128200Y0163200D01*
X0132804Y0167037D02*
X0133571Y0167804D01*
X0135106Y0167804D01*
X0135106Y0165502D02*
X0134339Y0165502D01*
X0188200Y0152804D02*
X0188200Y0148200D01*
X0188200Y0149735D02*
X0191269Y0152804D01*
X0192804Y0150502D02*
X0195873Y0150502D01*
X0195106Y0148200D02*
X0195106Y0152804D01*
X0192804Y0150502D01*
X0191269Y0148200D02*
X0188967Y0150502D01*
X0273200Y0149735D02*
X0276269Y0152804D01*
X0277804Y0150502D02*
X0280106Y0150502D01*
X0280873Y0149735D01*
X0280873Y0148967D01*
X0280106Y0148200D01*
X0278571Y0148200D01*
X0277804Y0148967D01*
X0277804Y0150502D01*
X0279339Y0152037D01*
X0280873Y0152804D01*
X0276269Y0148200D02*
X0273967Y0150502D01*
X0273200Y0152804D02*
X0273200Y0148200D01*
X0353200Y0147804D02*
X0356269Y0143200D01*
X0357804Y0143200D02*
X0357804Y0143967D01*
X0360873Y0147037D01*
X0360873Y0147804D01*
X0357804Y0147804D01*
X0356269Y0147804D02*
X0353200Y0143200D01*
X0280873Y0087037D02*
X0280106Y0087804D01*
X0278571Y0087804D01*
X0277804Y0087037D01*
X0276269Y0087804D02*
X0273200Y0084735D01*
X0273967Y0085502D02*
X0276269Y0083200D01*
X0277804Y0083200D02*
X0280873Y0086269D01*
X0280873Y0087037D01*
X0280873Y0083200D02*
X0277804Y0083200D01*
X0273200Y0083200D02*
X0273200Y0087804D01*
X0195873Y0087804D02*
X0192804Y0087804D01*
X0192804Y0085502D01*
X0194339Y0086269D01*
X0195106Y0086269D01*
X0195873Y0085502D01*
X0195873Y0083967D01*
X0195106Y0083200D01*
X0193571Y0083200D01*
X0192804Y0083967D01*
X0191269Y0083200D02*
X0188967Y0085502D01*
X0188200Y0084735D02*
X0191269Y0087804D01*
X0188200Y0087804D02*
X0188200Y0083200D01*
X0110873Y0072037D02*
X0110873Y0071269D01*
X0110106Y0070502D01*
X0110873Y0069735D01*
X0110873Y0068967D01*
X0110106Y0068200D01*
X0108571Y0068200D01*
X0107804Y0068967D01*
X0106269Y0068200D02*
X0103967Y0070502D01*
X0103200Y0069735D02*
X0106269Y0072804D01*
X0107804Y0072037D02*
X0108571Y0072804D01*
X0110106Y0072804D01*
X0110873Y0072037D01*
X0110106Y0070502D02*
X0109339Y0070502D01*
X0103200Y0072804D02*
X0103200Y0068200D01*
X0035873Y0068200D02*
X0032804Y0068200D01*
X0034339Y0068200D02*
X0034339Y0072804D01*
X0032804Y0071269D01*
X0031269Y0072804D02*
X0028200Y0069735D01*
X0028967Y0070502D02*
X0031269Y0068200D01*
X0028200Y0068200D02*
X0028200Y0072804D01*
X0028200Y0163200D02*
X0031269Y0167804D01*
X0032804Y0167037D02*
X0033571Y0167804D01*
X0035106Y0167804D01*
X0035873Y0167037D01*
X0035873Y0166269D01*
X0032804Y0163200D01*
X0035873Y0163200D01*
X0031269Y0163200D02*
X0028200Y0167804D01*
X0028200Y0223200D02*
X0031269Y0227804D01*
X0032804Y0226269D02*
X0034339Y0227804D01*
X0034339Y0223200D01*
X0035873Y0223200D02*
X0032804Y0223200D01*
X0031269Y0223200D02*
X0028200Y0227804D01*
X0353200Y0212804D02*
X0356269Y0208200D01*
X0357804Y0208967D02*
X0358571Y0208200D01*
X0360106Y0208200D01*
X0360873Y0208967D01*
X0360873Y0209735D01*
X0360106Y0210502D01*
X0357804Y0210502D01*
X0357804Y0208967D01*
X0357804Y0210502D02*
X0359339Y0212037D01*
X0360873Y0212804D01*
X0356269Y0212804D02*
X0353200Y0208200D01*
X0353200Y0273200D02*
X0356269Y0277804D01*
X0357804Y0277804D02*
X0357804Y0275502D01*
X0359339Y0276269D01*
X0360106Y0276269D01*
X0360873Y0275502D01*
X0360873Y0273967D01*
X0360106Y0273200D01*
X0358571Y0273200D01*
X0357804Y0273967D01*
X0356269Y0273200D02*
X0353200Y0277804D01*
X0357804Y0277804D02*
X0360873Y0277804D01*
X0360106Y0082804D02*
X0358571Y0082804D01*
X0357804Y0082037D01*
X0357804Y0081269D01*
X0358571Y0080502D01*
X0360106Y0080502D01*
X0360873Y0079735D01*
X0360873Y0078967D01*
X0360106Y0078200D01*
X0358571Y0078200D01*
X0357804Y0078967D01*
X0357804Y0079735D01*
X0358571Y0080502D01*
X0360106Y0080502D02*
X0360873Y0081269D01*
X0360873Y0082037D01*
X0360106Y0082804D01*
X0356269Y0082804D02*
X0353200Y0078200D01*
X0356269Y0078200D02*
X0353200Y0082804D01*
D15*
X0253000Y0093000D03*
X0253000Y0153000D03*
X0168000Y0158000D03*
X0155500Y0095500D03*
D16*
X0093000Y0038000D03*
X0018000Y0038000D03*
D17*
X0170500Y0227500D02*
X0180500Y0227500D01*
X0180500Y0248500D01*
X0170500Y0248500D01*
X0170500Y0227500D01*
X0173000Y0238000D02*
X0178000Y0238000D01*
M02*
