G75*
%MOIN*%
%OFA0B0*%
%FSLAX25Y25*%
%IPPOS*%
%LPD*%
%AMOC8*
5,1,8,0,0,1.08239X$1,22.5*
%
%ADD10C,0.05200*%
%ADD11C,0.07400*%
%ADD12C,0.05150*%
%ADD13C,0.07677*%
%ADD14C,0.13606*%
%ADD15C,0.06500*%
%ADD16R,0.06500X0.06500*%
%ADD17R,0.07400X0.07400*%
%ADD18C,0.04000*%
%ADD19R,0.05906X0.05906*%
D10*
X0308000Y0232900D02*
X0308000Y0238100D01*
X0318000Y0238100D02*
X0318000Y0232900D01*
X0328000Y0232900D02*
X0328000Y0238100D01*
X0338000Y0238100D02*
X0338000Y0232900D01*
X0348000Y0232900D02*
X0348000Y0238100D01*
X0358000Y0238100D02*
X0358000Y0232900D01*
X0368000Y0232900D02*
X0368000Y0238100D01*
X0378000Y0238100D02*
X0378000Y0232900D01*
X0388000Y0232900D02*
X0388000Y0238100D01*
X0388000Y0262900D02*
X0388000Y0268100D01*
X0378000Y0268100D02*
X0378000Y0262900D01*
X0368000Y0262900D02*
X0368000Y0268100D01*
X0358000Y0268100D02*
X0358000Y0262900D01*
X0348000Y0262900D02*
X0348000Y0268100D01*
X0338000Y0268100D02*
X0338000Y0262900D01*
X0328000Y0262900D02*
X0328000Y0268100D01*
X0318000Y0268100D02*
X0318000Y0262900D01*
X0308000Y0262900D02*
X0308000Y0268100D01*
D11*
X0308000Y0278000D03*
X0298000Y0278000D03*
X0338000Y0278000D03*
X0348000Y0278000D03*
X0358000Y0278000D03*
X0368000Y0278000D03*
X0378000Y0278000D03*
X0388000Y0278000D03*
X0213000Y0093000D03*
X0213000Y0083000D03*
X0213000Y0073000D03*
D12*
X0213000Y0160425D02*
X0213000Y0165575D01*
X0223000Y0165575D02*
X0223000Y0160425D01*
X0233000Y0160425D02*
X0233000Y0165575D01*
X0233000Y0180425D02*
X0233000Y0185575D01*
X0223000Y0185575D02*
X0223000Y0180425D01*
X0213000Y0180425D02*
X0213000Y0185575D01*
X0193000Y0185575D02*
X0193000Y0180425D01*
X0193000Y0165575D02*
X0193000Y0160425D01*
X0163000Y0160425D02*
X0163000Y0165575D01*
X0153000Y0165575D02*
X0153000Y0160425D01*
X0143000Y0160425D02*
X0143000Y0165575D01*
X0123000Y0165575D02*
X0123000Y0160425D01*
X0123000Y0180425D02*
X0123000Y0185575D01*
X0143000Y0185575D02*
X0143000Y0180425D01*
X0153000Y0180425D02*
X0153000Y0185575D01*
X0163000Y0185575D02*
X0163000Y0180425D01*
X0080575Y0183000D02*
X0075425Y0183000D01*
X0075425Y0173000D02*
X0080575Y0173000D01*
X0060575Y0173000D02*
X0055425Y0173000D01*
X0055425Y0183000D02*
X0060575Y0183000D01*
X0060575Y0193000D02*
X0055425Y0193000D01*
X0075425Y0193000D02*
X0080575Y0193000D01*
X0080575Y0223000D02*
X0075425Y0223000D01*
X0060575Y0223000D02*
X0055425Y0223000D01*
X0055425Y0243000D02*
X0060575Y0243000D01*
X0075425Y0243000D02*
X0080575Y0243000D01*
X0080575Y0253000D02*
X0075425Y0253000D01*
X0075425Y0263000D02*
X0080575Y0263000D01*
X0060575Y0263000D02*
X0055425Y0263000D01*
X0055425Y0253000D02*
X0060575Y0253000D01*
X0060575Y0153000D02*
X0055425Y0153000D01*
X0075425Y0153000D02*
X0080575Y0153000D01*
X0263000Y0160425D02*
X0263000Y0165575D01*
X0263000Y0180425D02*
X0263000Y0185575D01*
X0283000Y0185575D02*
X0283000Y0180425D01*
X0293000Y0180425D02*
X0293000Y0185575D01*
X0303000Y0185575D02*
X0303000Y0180425D01*
X0303000Y0165575D02*
X0303000Y0160425D01*
X0293000Y0160425D02*
X0293000Y0165575D01*
X0283000Y0165575D02*
X0283000Y0160425D01*
X0333000Y0160425D02*
X0333000Y0165575D01*
X0353000Y0165575D02*
X0353000Y0160425D01*
X0363000Y0160425D02*
X0363000Y0165575D01*
X0373000Y0165575D02*
X0373000Y0160425D01*
X0373000Y0180425D02*
X0373000Y0185575D01*
X0363000Y0185575D02*
X0363000Y0180425D01*
X0353000Y0180425D02*
X0353000Y0185575D01*
X0333000Y0185575D02*
X0333000Y0180425D01*
D13*
X0353000Y0108000D03*
X0278000Y0108000D03*
X0278000Y0038000D03*
X0355500Y0038000D03*
X0148000Y0038000D03*
X0068000Y0038000D03*
X0068000Y0105500D03*
X0148000Y0105500D03*
D14*
X0134496Y0119004D03*
X0161504Y0119004D03*
X0161504Y0091996D03*
X0134496Y0091996D03*
X0081504Y0091996D03*
X0054496Y0091996D03*
X0054496Y0119004D03*
X0081504Y0119004D03*
X0081504Y0051504D03*
X0054496Y0051504D03*
X0054496Y0024496D03*
X0081504Y0024496D03*
X0134496Y0024496D03*
X0161504Y0024496D03*
X0161504Y0051504D03*
X0134496Y0051504D03*
X0264496Y0051504D03*
X0291504Y0051504D03*
X0291504Y0024496D03*
X0264496Y0024496D03*
X0341996Y0024496D03*
X0369004Y0024496D03*
X0369004Y0051504D03*
X0341996Y0051504D03*
X0339496Y0094496D03*
X0366504Y0094496D03*
X0366504Y0121504D03*
X0339496Y0121504D03*
X0291504Y0121504D03*
X0264496Y0121504D03*
X0264496Y0094496D03*
X0291504Y0094496D03*
D15*
X0268000Y0268000D03*
D16*
X0278000Y0268000D03*
D17*
X0213000Y0063000D03*
D18*
X0027067Y0011043D02*
X0026024Y0010000D01*
X0394976Y0010000D01*
X0393933Y0011043D01*
X0392441Y0013627D01*
X0391669Y0016508D01*
X0391669Y0019492D01*
X0392441Y0022373D01*
X0393933Y0024957D01*
X0396043Y0027067D01*
X0398627Y0028559D01*
X0401508Y0029331D01*
X0404492Y0029331D01*
X0407373Y0028559D01*
X0409701Y0027215D01*
X0409701Y0158000D01*
X0382359Y0158000D01*
X0382000Y0157133D01*
X0382000Y0141210D01*
X0380630Y0137902D01*
X0378098Y0135370D01*
X0374790Y0134000D01*
X0359728Y0134000D01*
X0360630Y0133098D01*
X0361853Y0130145D01*
X0362747Y0130575D01*
X0363786Y0130939D01*
X0364859Y0131184D01*
X0365953Y0131307D01*
X0366102Y0131307D01*
X0366102Y0121906D01*
X0366906Y0121906D01*
X0366906Y0131307D01*
X0367054Y0131307D01*
X0368149Y0131184D01*
X0369222Y0130939D01*
X0370261Y0130575D01*
X0371253Y0130097D01*
X0372186Y0129512D01*
X0373047Y0128825D01*
X0373825Y0128047D01*
X0374512Y0127186D01*
X0375097Y0126253D01*
X0375575Y0125261D01*
X0375939Y0124222D01*
X0376184Y0123149D01*
X0376307Y0122054D01*
X0376307Y0121906D01*
X0366906Y0121906D01*
X0366906Y0121102D01*
X0376307Y0121102D01*
X0376307Y0120953D01*
X0376184Y0119859D01*
X0375939Y0118786D01*
X0375575Y0117747D01*
X0375097Y0116754D01*
X0374512Y0115822D01*
X0373825Y0114961D01*
X0373047Y0114183D01*
X0372186Y0113496D01*
X0371253Y0112910D01*
X0370261Y0112433D01*
X0369222Y0112069D01*
X0368149Y0111824D01*
X0367054Y0111701D01*
X0366906Y0111701D01*
X0366906Y0121102D01*
X0366102Y0121102D01*
X0366102Y0111701D01*
X0365953Y0111701D01*
X0364859Y0111824D01*
X0363786Y0112069D01*
X0363009Y0112341D01*
X0363100Y0112184D01*
X0363839Y0109427D01*
X0363839Y0106573D01*
X0363100Y0103816D01*
X0363009Y0103659D01*
X0363786Y0103931D01*
X0364859Y0104176D01*
X0365953Y0104299D01*
X0366102Y0104299D01*
X0366102Y0094898D01*
X0366906Y0094898D01*
X0376307Y0094898D01*
X0376307Y0095047D01*
X0376184Y0096141D01*
X0375939Y0097214D01*
X0375575Y0098253D01*
X0375097Y0099245D01*
X0374512Y0100178D01*
X0373825Y0101039D01*
X0373047Y0101817D01*
X0372186Y0102504D01*
X0371253Y0103090D01*
X0370261Y0103567D01*
X0369222Y0103931D01*
X0368149Y0104176D01*
X0367054Y0104299D01*
X0366906Y0104299D01*
X0366906Y0094898D01*
X0366906Y0094094D01*
X0376307Y0094094D01*
X0376307Y0093946D01*
X0376184Y0092851D01*
X0375939Y0091778D01*
X0375575Y0090739D01*
X0375097Y0089747D01*
X0374512Y0088814D01*
X0373825Y0087953D01*
X0373047Y0087175D01*
X0372186Y0086488D01*
X0371253Y0085903D01*
X0370261Y0085425D01*
X0369222Y0085061D01*
X0368149Y0084816D01*
X0367054Y0084693D01*
X0366906Y0084693D01*
X0366906Y0094094D01*
X0366102Y0094094D01*
X0366102Y0084693D01*
X0365953Y0084693D01*
X0364859Y0084816D01*
X0363786Y0085061D01*
X0362747Y0085425D01*
X0361754Y0085903D01*
X0360822Y0086488D01*
X0359961Y0087175D01*
X0359183Y0087953D01*
X0358496Y0088814D01*
X0357910Y0089747D01*
X0357433Y0090739D01*
X0357069Y0091778D01*
X0356824Y0092851D01*
X0356701Y0093946D01*
X0356701Y0094094D01*
X0366102Y0094094D01*
X0366102Y0094898D01*
X0356701Y0094898D01*
X0356701Y0095047D01*
X0356824Y0096141D01*
X0357069Y0097214D01*
X0357341Y0097991D01*
X0357184Y0097900D01*
X0354427Y0097161D01*
X0351573Y0097161D01*
X0348816Y0097900D01*
X0348659Y0097991D01*
X0348931Y0097214D01*
X0349176Y0096141D01*
X0349299Y0095047D01*
X0349299Y0094898D01*
X0339898Y0094898D01*
X0339898Y0094094D01*
X0349299Y0094094D01*
X0349299Y0093946D01*
X0349176Y0092851D01*
X0348931Y0091778D01*
X0348567Y0090739D01*
X0348090Y0089747D01*
X0347504Y0088814D01*
X0346817Y0087953D01*
X0346039Y0087175D01*
X0345178Y0086488D01*
X0344245Y0085903D01*
X0343253Y0085425D01*
X0342214Y0085061D01*
X0341831Y0084974D01*
X0341887Y0084918D01*
X0342953Y0082345D01*
X0342953Y0073655D01*
X0341887Y0071082D01*
X0339918Y0069113D01*
X0337345Y0068047D01*
X0328655Y0068047D01*
X0327000Y0068733D01*
X0327000Y0056210D01*
X0325630Y0052902D01*
X0305630Y0032902D01*
X0305630Y0032902D01*
X0303098Y0030370D01*
X0300145Y0029147D01*
X0300575Y0028253D01*
X0300939Y0027214D01*
X0301184Y0026141D01*
X0301307Y0025047D01*
X0301307Y0024898D01*
X0291906Y0024898D01*
X0291906Y0024094D01*
X0301307Y0024094D01*
X0301307Y0023946D01*
X0301184Y0022851D01*
X0300939Y0021778D01*
X0300575Y0020739D01*
X0300097Y0019747D01*
X0299512Y0018814D01*
X0298825Y0017953D01*
X0298047Y0017175D01*
X0297186Y0016488D01*
X0296253Y0015903D01*
X0295261Y0015425D01*
X0294222Y0015061D01*
X0293149Y0014816D01*
X0292054Y0014693D01*
X0291906Y0014693D01*
X0291906Y0024094D01*
X0291102Y0024094D01*
X0291102Y0014693D01*
X0290953Y0014693D01*
X0289859Y0014816D01*
X0288786Y0015061D01*
X0287747Y0015425D01*
X0286754Y0015903D01*
X0285822Y0016488D01*
X0284961Y0017175D01*
X0284183Y0017953D01*
X0283496Y0018814D01*
X0282910Y0019747D01*
X0282433Y0020739D01*
X0282069Y0021778D01*
X0281824Y0022851D01*
X0281701Y0023946D01*
X0281701Y0024094D01*
X0291102Y0024094D01*
X0291102Y0024898D01*
X0281701Y0024898D01*
X0281701Y0025047D01*
X0281824Y0026141D01*
X0282069Y0027214D01*
X0282341Y0027991D01*
X0282184Y0027900D01*
X0279427Y0027161D01*
X0276573Y0027161D01*
X0273816Y0027900D01*
X0273659Y0027991D01*
X0273931Y0027214D01*
X0274176Y0026141D01*
X0274299Y0025047D01*
X0274299Y0024898D01*
X0264898Y0024898D01*
X0264898Y0024094D01*
X0264898Y0014693D01*
X0265047Y0014693D01*
X0266141Y0014816D01*
X0267214Y0015061D01*
X0268253Y0015425D01*
X0269245Y0015903D01*
X0270178Y0016488D01*
X0271039Y0017175D01*
X0271817Y0017953D01*
X0272504Y0018814D01*
X0273090Y0019747D01*
X0273567Y0020739D01*
X0273931Y0021778D01*
X0274176Y0022851D01*
X0274299Y0023946D01*
X0274299Y0024094D01*
X0264898Y0024094D01*
X0264094Y0024094D01*
X0264094Y0014693D01*
X0263946Y0014693D01*
X0262851Y0014816D01*
X0261778Y0015061D01*
X0260739Y0015425D01*
X0259747Y0015903D01*
X0258814Y0016488D01*
X0257953Y0017175D01*
X0257175Y0017953D01*
X0256488Y0018814D01*
X0255903Y0019747D01*
X0255425Y0020739D01*
X0255061Y0021778D01*
X0254816Y0022851D01*
X0254693Y0023946D01*
X0254693Y0024094D01*
X0264094Y0024094D01*
X0264094Y0024898D01*
X0254693Y0024898D01*
X0254693Y0025047D01*
X0254816Y0026141D01*
X0255061Y0027214D01*
X0255425Y0028253D01*
X0255903Y0029245D01*
X0256488Y0030178D01*
X0257175Y0031039D01*
X0257953Y0031817D01*
X0258814Y0032504D01*
X0259747Y0033090D01*
X0260739Y0033567D01*
X0261778Y0033931D01*
X0262851Y0034176D01*
X0263946Y0034299D01*
X0264094Y0034299D01*
X0264094Y0024898D01*
X0264898Y0024898D01*
X0264898Y0034299D01*
X0265047Y0034299D01*
X0266141Y0034176D01*
X0267214Y0033931D01*
X0267991Y0033659D01*
X0267900Y0033816D01*
X0267161Y0036573D01*
X0267161Y0039427D01*
X0267900Y0042184D01*
X0267991Y0042341D01*
X0267214Y0042069D01*
X0266141Y0041824D01*
X0265047Y0041701D01*
X0264898Y0041701D01*
X0264898Y0051102D01*
X0264898Y0051906D01*
X0264094Y0051906D01*
X0264094Y0061307D01*
X0263946Y0061307D01*
X0262851Y0061184D01*
X0261778Y0060939D01*
X0260739Y0060575D01*
X0259747Y0060097D01*
X0258814Y0059512D01*
X0257953Y0058825D01*
X0257175Y0058047D01*
X0256488Y0057186D01*
X0255903Y0056253D01*
X0255425Y0055261D01*
X0255061Y0054222D01*
X0254816Y0053149D01*
X0254693Y0052054D01*
X0254693Y0051906D01*
X0264094Y0051906D01*
X0264094Y0051102D01*
X0254693Y0051102D01*
X0254693Y0050953D01*
X0254816Y0049859D01*
X0255061Y0048786D01*
X0255425Y0047747D01*
X0255903Y0046754D01*
X0256488Y0045822D01*
X0257175Y0044961D01*
X0257953Y0044183D01*
X0258814Y0043496D01*
X0259747Y0042910D01*
X0260739Y0042433D01*
X0261778Y0042069D01*
X0262851Y0041824D01*
X0263946Y0041701D01*
X0264094Y0041701D01*
X0264094Y0051102D01*
X0264898Y0051102D01*
X0274299Y0051102D01*
X0274299Y0050953D01*
X0274176Y0049859D01*
X0273931Y0048786D01*
X0273659Y0048009D01*
X0273816Y0048100D01*
X0276573Y0048839D01*
X0279427Y0048839D01*
X0282184Y0048100D01*
X0282341Y0048009D01*
X0282069Y0048786D01*
X0281824Y0049859D01*
X0281701Y0050953D01*
X0281701Y0051102D01*
X0291102Y0051102D01*
X0291102Y0051906D01*
X0291102Y0061307D01*
X0290953Y0061307D01*
X0289859Y0061184D01*
X0288786Y0060939D01*
X0287747Y0060575D01*
X0286754Y0060097D01*
X0285822Y0059512D01*
X0284961Y0058825D01*
X0284183Y0058047D01*
X0283496Y0057186D01*
X0282910Y0056253D01*
X0282433Y0055261D01*
X0282069Y0054222D01*
X0281824Y0053149D01*
X0281701Y0052054D01*
X0281701Y0051906D01*
X0291102Y0051906D01*
X0291906Y0051906D01*
X0291906Y0061307D01*
X0292054Y0061307D01*
X0293149Y0061184D01*
X0294222Y0060939D01*
X0295261Y0060575D01*
X0296253Y0060097D01*
X0297186Y0059512D01*
X0298047Y0058825D01*
X0298825Y0058047D01*
X0299512Y0057186D01*
X0300097Y0056253D01*
X0300575Y0055261D01*
X0300939Y0054222D01*
X0301042Y0053770D01*
X0309000Y0061728D01*
X0309000Y0076272D01*
X0307953Y0075225D01*
X0307953Y0073655D01*
X0306887Y0071082D01*
X0304918Y0069113D01*
X0302345Y0068047D01*
X0293655Y0068047D01*
X0291082Y0069113D01*
X0289113Y0071082D01*
X0288047Y0073655D01*
X0288047Y0082345D01*
X0289113Y0084918D01*
X0289169Y0084974D01*
X0288786Y0085061D01*
X0287747Y0085425D01*
X0286754Y0085903D01*
X0285822Y0086488D01*
X0284961Y0087175D01*
X0284183Y0087953D01*
X0283496Y0088814D01*
X0282910Y0089747D01*
X0282433Y0090739D01*
X0282069Y0091778D01*
X0281824Y0092851D01*
X0281701Y0093946D01*
X0281701Y0094094D01*
X0291102Y0094094D01*
X0291102Y0094898D01*
X0291102Y0104299D01*
X0290953Y0104299D01*
X0289859Y0104176D01*
X0288786Y0103931D01*
X0288009Y0103659D01*
X0288100Y0103816D01*
X0288839Y0106573D01*
X0288839Y0109427D01*
X0288100Y0112184D01*
X0288009Y0112341D01*
X0288786Y0112069D01*
X0289859Y0111824D01*
X0290953Y0111701D01*
X0291102Y0111701D01*
X0291102Y0121102D01*
X0281701Y0121102D01*
X0281701Y0120953D01*
X0281824Y0119859D01*
X0282069Y0118786D01*
X0282341Y0118009D01*
X0282184Y0118100D01*
X0279427Y0118839D01*
X0276573Y0118839D01*
X0273816Y0118100D01*
X0273659Y0118009D01*
X0273931Y0118786D01*
X0274176Y0119859D01*
X0274299Y0120953D01*
X0274299Y0121102D01*
X0264898Y0121102D01*
X0264898Y0121906D01*
X0264094Y0121906D01*
X0264094Y0131307D01*
X0263946Y0131307D01*
X0262851Y0131184D01*
X0261778Y0130939D01*
X0260739Y0130575D01*
X0259747Y0130097D01*
X0258814Y0129512D01*
X0257953Y0128825D01*
X0257175Y0128047D01*
X0256488Y0127186D01*
X0255903Y0126253D01*
X0255425Y0125261D01*
X0255061Y0124222D01*
X0254816Y0123149D01*
X0254693Y0122054D01*
X0254693Y0121906D01*
X0264094Y0121906D01*
X0264094Y0121102D01*
X0254693Y0121102D01*
X0254693Y0120953D01*
X0254816Y0119859D01*
X0255061Y0118786D01*
X0255425Y0117747D01*
X0255784Y0117000D01*
X0241728Y0117000D01*
X0229728Y0129000D01*
X0229790Y0129000D01*
X0233098Y0130370D01*
X0235630Y0132902D01*
X0240630Y0137902D01*
X0242000Y0141210D01*
X0242000Y0146355D01*
X0242953Y0148655D01*
X0242953Y0157345D01*
X0242681Y0158000D01*
X0245330Y0158000D01*
X0245370Y0157902D01*
X0247902Y0155370D01*
X0251210Y0154000D01*
X0255884Y0154000D01*
X0257576Y0152308D01*
X0261095Y0150850D01*
X0264905Y0150850D01*
X0268424Y0152308D01*
X0271117Y0155002D01*
X0272359Y0158000D01*
X0273641Y0158000D01*
X0274000Y0157133D01*
X0274000Y0151210D01*
X0275370Y0147902D01*
X0277902Y0145370D01*
X0291965Y0131307D01*
X0291906Y0131307D01*
X0291906Y0121906D01*
X0291102Y0121906D01*
X0291102Y0131307D01*
X0290953Y0131307D01*
X0289859Y0131184D01*
X0288786Y0130939D01*
X0287747Y0130575D01*
X0286754Y0130097D01*
X0285822Y0129512D01*
X0284961Y0128825D01*
X0284183Y0128047D01*
X0283496Y0127186D01*
X0282910Y0126253D01*
X0282433Y0125261D01*
X0282069Y0124222D01*
X0281824Y0123149D01*
X0281701Y0122054D01*
X0281701Y0121906D01*
X0291102Y0121906D01*
X0291102Y0121102D01*
X0291906Y0121102D01*
X0291906Y0111701D01*
X0292054Y0111701D01*
X0293149Y0111824D01*
X0294222Y0112069D01*
X0295261Y0112433D01*
X0296253Y0112910D01*
X0297186Y0113496D01*
X0298047Y0114183D01*
X0298825Y0114961D01*
X0299000Y0115181D01*
X0299000Y0100819D01*
X0298825Y0101039D01*
X0298047Y0101817D01*
X0297186Y0102504D01*
X0296253Y0103090D01*
X0295261Y0103567D01*
X0294222Y0103931D01*
X0293149Y0104176D01*
X0292054Y0104299D01*
X0291906Y0104299D01*
X0291906Y0094898D01*
X0291102Y0094898D01*
X0281701Y0094898D01*
X0281701Y0095047D01*
X0281824Y0096141D01*
X0282069Y0097214D01*
X0282341Y0097991D01*
X0282184Y0097900D01*
X0279427Y0097161D01*
X0276573Y0097161D01*
X0273816Y0097900D01*
X0273659Y0097991D01*
X0273931Y0097214D01*
X0274176Y0096141D01*
X0274299Y0095047D01*
X0274299Y0094898D01*
X0264898Y0094898D01*
X0264898Y0094094D01*
X0274299Y0094094D01*
X0274299Y0093946D01*
X0274176Y0092851D01*
X0273931Y0091778D01*
X0273567Y0090739D01*
X0273090Y0089747D01*
X0272504Y0088814D01*
X0271817Y0087953D01*
X0271039Y0087175D01*
X0270255Y0086550D01*
X0271887Y0084918D01*
X0272953Y0082345D01*
X0272953Y0073655D01*
X0271887Y0071082D01*
X0269918Y0069113D01*
X0267345Y0068047D01*
X0258655Y0068047D01*
X0256082Y0069113D01*
X0254113Y0071082D01*
X0253047Y0073655D01*
X0253047Y0074000D01*
X0223700Y0074000D01*
X0223700Y0071591D01*
X0223131Y0069467D01*
X0223700Y0068092D01*
X0223700Y0057908D01*
X0222634Y0055335D01*
X0220665Y0053366D01*
X0218092Y0052300D01*
X0207908Y0052300D01*
X0205335Y0053366D01*
X0204701Y0054000D01*
X0196210Y0054000D01*
X0192902Y0055370D01*
X0172902Y0075370D01*
X0170370Y0077902D01*
X0169000Y0081210D01*
X0169000Y0085673D01*
X0168825Y0085453D01*
X0168047Y0084675D01*
X0167186Y0083988D01*
X0166253Y0083403D01*
X0165261Y0082925D01*
X0164222Y0082561D01*
X0163149Y0082316D01*
X0162054Y0082193D01*
X0161906Y0082193D01*
X0161906Y0091594D01*
X0161102Y0091594D01*
X0161102Y0082193D01*
X0160953Y0082193D01*
X0159859Y0082316D01*
X0158786Y0082561D01*
X0157747Y0082925D01*
X0156754Y0083403D01*
X0155822Y0083988D01*
X0154961Y0084675D01*
X0154183Y0085453D01*
X0153496Y0086314D01*
X0152910Y0087247D01*
X0152433Y0088239D01*
X0152069Y0089278D01*
X0151824Y0090351D01*
X0151701Y0091446D01*
X0151701Y0091594D01*
X0161102Y0091594D01*
X0161102Y0092398D01*
X0161102Y0101799D01*
X0160953Y0101799D01*
X0159859Y0101676D01*
X0158786Y0101431D01*
X0158009Y0101159D01*
X0158100Y0101316D01*
X0158839Y0104073D01*
X0158839Y0106927D01*
X0158100Y0109684D01*
X0158009Y0109841D01*
X0158786Y0109569D01*
X0159859Y0109324D01*
X0160953Y0109201D01*
X0161102Y0109201D01*
X0161102Y0118602D01*
X0151701Y0118602D01*
X0151701Y0118453D01*
X0151824Y0117359D01*
X0152069Y0116286D01*
X0152341Y0115509D01*
X0152184Y0115600D01*
X0149427Y0116339D01*
X0146573Y0116339D01*
X0143816Y0115600D01*
X0143659Y0115509D01*
X0143931Y0116286D01*
X0144176Y0117359D01*
X0144299Y0118453D01*
X0144299Y0118602D01*
X0134898Y0118602D01*
X0134898Y0119406D01*
X0134094Y0119406D01*
X0134094Y0128807D01*
X0133946Y0128807D01*
X0132851Y0128684D01*
X0131778Y0128439D01*
X0130739Y0128075D01*
X0129747Y0127597D01*
X0128814Y0127012D01*
X0127953Y0126325D01*
X0127175Y0125547D01*
X0126488Y0124686D01*
X0125903Y0123753D01*
X0125425Y0122761D01*
X0125061Y0121722D01*
X0124816Y0120649D01*
X0124693Y0119554D01*
X0124693Y0119406D01*
X0134094Y0119406D01*
X0134094Y0118602D01*
X0124693Y0118602D01*
X0124693Y0118453D01*
X0124816Y0117359D01*
X0125061Y0116286D01*
X0125425Y0115247D01*
X0125784Y0114500D01*
X0114228Y0114500D01*
X0085630Y0143098D01*
X0084728Y0144000D01*
X0101355Y0144000D01*
X0103655Y0143047D01*
X0112345Y0143047D01*
X0114645Y0144000D01*
X0124790Y0144000D01*
X0128098Y0145370D01*
X0130630Y0147902D01*
X0132000Y0151210D01*
X0132000Y0157133D01*
X0132359Y0158000D01*
X0133641Y0158000D01*
X0134000Y0157133D01*
X0134000Y0151210D01*
X0135370Y0147902D01*
X0137902Y0145370D01*
X0156091Y0127181D01*
X0155822Y0127012D01*
X0154961Y0126325D01*
X0154183Y0125547D01*
X0153496Y0124686D01*
X0152910Y0123753D01*
X0152433Y0122761D01*
X0152069Y0121722D01*
X0151824Y0120649D01*
X0151701Y0119554D01*
X0151701Y0119406D01*
X0161102Y0119406D01*
X0161102Y0118602D01*
X0161906Y0118602D01*
X0161906Y0109201D01*
X0162054Y0109201D01*
X0163149Y0109324D01*
X0164222Y0109569D01*
X0165261Y0109933D01*
X0166253Y0110410D01*
X0167186Y0110996D01*
X0168047Y0111683D01*
X0168825Y0112461D01*
X0169000Y0112681D01*
X0169000Y0098319D01*
X0168825Y0098539D01*
X0168047Y0099317D01*
X0167186Y0100004D01*
X0166253Y0100590D01*
X0165261Y0101067D01*
X0164222Y0101431D01*
X0163149Y0101676D01*
X0162054Y0101799D01*
X0161906Y0101799D01*
X0161906Y0092398D01*
X0161102Y0092398D01*
X0151701Y0092398D01*
X0151701Y0092547D01*
X0151824Y0093641D01*
X0152069Y0094714D01*
X0152341Y0095491D01*
X0152184Y0095400D01*
X0149427Y0094661D01*
X0146573Y0094661D01*
X0143816Y0095400D01*
X0143659Y0095491D01*
X0143931Y0094714D01*
X0144176Y0093641D01*
X0144299Y0092547D01*
X0144299Y0092398D01*
X0134898Y0092398D01*
X0134898Y0091594D01*
X0134898Y0082193D01*
X0135047Y0082193D01*
X0136141Y0082316D01*
X0137214Y0082561D01*
X0138253Y0082925D01*
X0139245Y0083403D01*
X0140178Y0083988D01*
X0141039Y0084675D01*
X0141817Y0085453D01*
X0142504Y0086314D01*
X0143090Y0087247D01*
X0143567Y0088239D01*
X0143931Y0089278D01*
X0144176Y0090351D01*
X0144299Y0091446D01*
X0144299Y0091594D01*
X0134898Y0091594D01*
X0134094Y0091594D01*
X0134094Y0082193D01*
X0133946Y0082193D01*
X0132851Y0082316D01*
X0131778Y0082561D01*
X0130739Y0082925D01*
X0129747Y0083403D01*
X0128814Y0083988D01*
X0127953Y0084675D01*
X0127175Y0085453D01*
X0126488Y0086314D01*
X0125903Y0087247D01*
X0125425Y0088239D01*
X0125061Y0089278D01*
X0124816Y0090351D01*
X0124693Y0091446D01*
X0124693Y0091594D01*
X0134094Y0091594D01*
X0134094Y0092398D01*
X0124693Y0092398D01*
X0124693Y0092547D01*
X0124816Y0093641D01*
X0125061Y0094714D01*
X0125425Y0095753D01*
X0125784Y0096500D01*
X0108710Y0096500D01*
X0105402Y0097870D01*
X0089681Y0113591D01*
X0089512Y0113322D01*
X0088825Y0112461D01*
X0088047Y0111683D01*
X0087186Y0110996D01*
X0086253Y0110410D01*
X0085261Y0109933D01*
X0084222Y0109569D01*
X0083149Y0109324D01*
X0082054Y0109201D01*
X0081906Y0109201D01*
X0081906Y0118602D01*
X0081102Y0118602D01*
X0081102Y0109201D01*
X0080953Y0109201D01*
X0079859Y0109324D01*
X0078786Y0109569D01*
X0078009Y0109841D01*
X0078100Y0109684D01*
X0078839Y0106927D01*
X0078839Y0104073D01*
X0078100Y0101316D01*
X0078009Y0101159D01*
X0078786Y0101431D01*
X0079859Y0101676D01*
X0080953Y0101799D01*
X0081102Y0101799D01*
X0081102Y0092398D01*
X0081906Y0092398D01*
X0091307Y0092398D01*
X0091307Y0092547D01*
X0091184Y0093641D01*
X0090939Y0094714D01*
X0090575Y0095753D01*
X0090097Y0096745D01*
X0089512Y0097678D01*
X0088825Y0098539D01*
X0088047Y0099317D01*
X0087186Y0100004D01*
X0086253Y0100590D01*
X0085261Y0101067D01*
X0084222Y0101431D01*
X0083149Y0101676D01*
X0082054Y0101799D01*
X0081906Y0101799D01*
X0081906Y0092398D01*
X0081906Y0091594D01*
X0091307Y0091594D01*
X0091307Y0091446D01*
X0091184Y0090351D01*
X0090939Y0089278D01*
X0090575Y0088239D01*
X0090097Y0087247D01*
X0089512Y0086314D01*
X0088825Y0085453D01*
X0088047Y0084675D01*
X0087186Y0083988D01*
X0086253Y0083403D01*
X0085261Y0082925D01*
X0084222Y0082561D01*
X0083149Y0082316D01*
X0082054Y0082193D01*
X0081906Y0082193D01*
X0081906Y0091594D01*
X0081102Y0091594D01*
X0081102Y0082193D01*
X0080953Y0082193D01*
X0079859Y0082316D01*
X0078786Y0082561D01*
X0077747Y0082925D01*
X0076754Y0083403D01*
X0075822Y0083988D01*
X0074961Y0084675D01*
X0074183Y0085453D01*
X0073496Y0086314D01*
X0072910Y0087247D01*
X0072433Y0088239D01*
X0072069Y0089278D01*
X0071824Y0090351D01*
X0071701Y0091446D01*
X0071701Y0091594D01*
X0081102Y0091594D01*
X0081102Y0092398D01*
X0071701Y0092398D01*
X0071701Y0092547D01*
X0071824Y0093641D01*
X0072069Y0094714D01*
X0072341Y0095491D01*
X0072184Y0095400D01*
X0069427Y0094661D01*
X0066573Y0094661D01*
X0063816Y0095400D01*
X0063659Y0095491D01*
X0063931Y0094714D01*
X0064176Y0093641D01*
X0064299Y0092547D01*
X0064299Y0092398D01*
X0054898Y0092398D01*
X0054898Y0091594D01*
X0054898Y0082193D01*
X0055047Y0082193D01*
X0056141Y0082316D01*
X0057214Y0082561D01*
X0058253Y0082925D01*
X0059245Y0083403D01*
X0060178Y0083988D01*
X0061039Y0084675D01*
X0061817Y0085453D01*
X0062504Y0086314D01*
X0063090Y0087247D01*
X0063567Y0088239D01*
X0063931Y0089278D01*
X0064176Y0090351D01*
X0064299Y0091446D01*
X0064299Y0091594D01*
X0054898Y0091594D01*
X0054094Y0091594D01*
X0054094Y0082193D01*
X0053946Y0082193D01*
X0052851Y0082316D01*
X0051778Y0082561D01*
X0050739Y0082925D01*
X0049747Y0083403D01*
X0048814Y0083988D01*
X0047953Y0084675D01*
X0047175Y0085453D01*
X0046488Y0086314D01*
X0045903Y0087247D01*
X0045425Y0088239D01*
X0045061Y0089278D01*
X0044816Y0090351D01*
X0044693Y0091446D01*
X0044693Y0091594D01*
X0054094Y0091594D01*
X0054094Y0092398D01*
X0044693Y0092398D01*
X0044693Y0092547D01*
X0044816Y0093641D01*
X0044744Y0093000D01*
X0022000Y0093000D01*
X0022000Y0196272D01*
X0038891Y0179381D01*
X0038047Y0177345D01*
X0038047Y0168655D01*
X0039000Y0166355D01*
X0039000Y0146210D01*
X0040370Y0142902D01*
X0042902Y0140370D01*
X0052902Y0130370D01*
X0056210Y0129000D01*
X0068000Y0129000D01*
X0068000Y0116339D01*
X0066573Y0116339D01*
X0063816Y0115600D01*
X0063659Y0115509D01*
X0063931Y0116286D01*
X0064176Y0117359D01*
X0064299Y0118453D01*
X0064299Y0118602D01*
X0054898Y0118602D01*
X0054898Y0119406D01*
X0054094Y0119406D01*
X0054094Y0128807D01*
X0053946Y0128807D01*
X0052851Y0128684D01*
X0051778Y0128439D01*
X0050739Y0128075D01*
X0049747Y0127597D01*
X0048814Y0127012D01*
X0047953Y0126325D01*
X0047175Y0125547D01*
X0046488Y0124686D01*
X0045903Y0123753D01*
X0045425Y0122761D01*
X0045061Y0121722D01*
X0044816Y0120649D01*
X0044693Y0119554D01*
X0044693Y0119406D01*
X0054094Y0119406D01*
X0054094Y0128807D01*
X0053946Y0128807D01*
X0052851Y0128684D01*
X0051778Y0128439D01*
X0050739Y0128075D01*
X0049747Y0127597D01*
X0048814Y0127012D01*
X0047953Y0126325D01*
X0047175Y0125547D01*
X0046488Y0124686D01*
X0045903Y0123753D01*
X0045425Y0122761D01*
X0045061Y0121722D01*
X0044816Y0120649D01*
X0044693Y0119554D01*
X0044693Y0119406D01*
X0054094Y0119406D01*
X0054898Y0119406D01*
X0054898Y0128807D01*
X0055047Y0128807D01*
X0056141Y0128684D01*
X0057214Y0128439D01*
X0058253Y0128075D01*
X0059245Y0127597D01*
X0060178Y0127012D01*
X0061039Y0126325D01*
X0061817Y0125547D01*
X0062504Y0124686D01*
X0063090Y0123753D01*
X0063567Y0122761D01*
X0063931Y0121722D01*
X0064176Y0120649D01*
X0064299Y0119554D01*
X0064299Y0119406D01*
X0054898Y0119406D01*
X0054898Y0128807D01*
X0055047Y0128807D01*
X0056141Y0128684D01*
X0057214Y0128439D01*
X0058253Y0128075D01*
X0059245Y0127597D01*
X0060178Y0127012D01*
X0061039Y0126325D01*
X0061817Y0125547D01*
X0062504Y0124686D01*
X0063090Y0123753D01*
X0063567Y0122761D01*
X0063931Y0121722D01*
X0064176Y0120649D01*
X0064299Y0119554D01*
X0064299Y0119406D01*
X0054898Y0119406D01*
X0054898Y0118602D01*
X0064299Y0118602D01*
X0064299Y0118453D01*
X0064176Y0117359D01*
X0063931Y0116286D01*
X0063659Y0115509D01*
X0063816Y0115600D01*
X0066573Y0116339D01*
X0069427Y0116339D01*
X0072184Y0115600D01*
X0072341Y0115509D01*
X0072069Y0116286D01*
X0071824Y0117359D01*
X0071701Y0118453D01*
X0071701Y0118602D01*
X0081102Y0118602D01*
X0081102Y0119406D01*
X0071701Y0119406D01*
X0071701Y0119554D01*
X0071824Y0120649D01*
X0072069Y0121722D01*
X0072433Y0122761D01*
X0072910Y0123753D01*
X0073496Y0124686D01*
X0074183Y0125547D01*
X0074961Y0126325D01*
X0075822Y0127012D01*
X0076091Y0127181D01*
X0074272Y0129000D01*
X0056210Y0129000D01*
X0052902Y0130370D01*
X0042902Y0140370D01*
X0040370Y0142902D01*
X0039000Y0146210D01*
X0039000Y0158000D01*
X0022000Y0158000D01*
X0022000Y0071728D01*
X0045125Y0048603D01*
X0045061Y0048786D01*
X0044816Y0049859D01*
X0044693Y0050953D01*
X0044693Y0051102D01*
X0054094Y0051102D01*
X0054094Y0051906D01*
X0054094Y0061307D01*
X0053946Y0061307D01*
X0052851Y0061184D01*
X0051778Y0060939D01*
X0050739Y0060575D01*
X0049747Y0060097D01*
X0048814Y0059512D01*
X0047953Y0058825D01*
X0047175Y0058047D01*
X0046488Y0057186D01*
X0045903Y0056253D01*
X0045425Y0055261D01*
X0045061Y0054222D01*
X0044816Y0053149D01*
X0044693Y0052054D01*
X0044693Y0051906D01*
X0054094Y0051906D01*
X0054898Y0051906D01*
X0054898Y0061307D01*
X0055047Y0061307D01*
X0056141Y0061184D01*
X0057214Y0060939D01*
X0058253Y0060575D01*
X0059245Y0060097D01*
X0060178Y0059512D01*
X0061039Y0058825D01*
X0061817Y0058047D01*
X0062504Y0057186D01*
X0063090Y0056253D01*
X0063567Y0055261D01*
X0063931Y0054222D01*
X0064176Y0053149D01*
X0064299Y0052054D01*
X0064299Y0051906D01*
X0054898Y0051906D01*
X0054898Y0051102D01*
X0064299Y0051102D01*
X0064299Y0050953D01*
X0064176Y0049859D01*
X0063931Y0048786D01*
X0063659Y0048009D01*
X0063816Y0048100D01*
X0066573Y0048839D01*
X0069427Y0048839D01*
X0072184Y0048100D01*
X0072341Y0048009D01*
X0072069Y0048786D01*
X0071824Y0049859D01*
X0071701Y0050953D01*
X0071701Y0051102D01*
X0081102Y0051102D01*
X0081102Y0051906D01*
X0081102Y0061307D01*
X0080953Y0061307D01*
X0079859Y0061184D01*
X0078786Y0060939D01*
X0077747Y0060575D01*
X0076754Y0060097D01*
X0075822Y0059512D01*
X0074961Y0058825D01*
X0074183Y0058047D01*
X0073496Y0057186D01*
X0072910Y0056253D01*
X0072433Y0055261D01*
X0072069Y0054222D01*
X0071824Y0053149D01*
X0071701Y0052054D01*
X0071701Y0051906D01*
X0081102Y0051906D01*
X0081906Y0051906D01*
X0081906Y0061307D01*
X0082054Y0061307D01*
X0083149Y0061184D01*
X0084222Y0060939D01*
X0085261Y0060575D01*
X0086253Y0060097D01*
X0087186Y0059512D01*
X0088047Y0058825D01*
X0088825Y0058047D01*
X0089512Y0057186D01*
X0090097Y0056253D01*
X0090575Y0055261D01*
X0090939Y0054222D01*
X0091184Y0053149D01*
X0091307Y0052054D01*
X0091307Y0051906D01*
X0081906Y0051906D01*
X0081906Y0051102D01*
X0091307Y0051102D01*
X0091307Y0050953D01*
X0091184Y0049859D01*
X0090939Y0048786D01*
X0090575Y0047747D01*
X0090097Y0046754D01*
X0089512Y0045822D01*
X0088825Y0044961D01*
X0088047Y0044183D01*
X0087186Y0043496D01*
X0086253Y0042910D01*
X0085261Y0042433D01*
X0084222Y0042069D01*
X0083149Y0041824D01*
X0082054Y0041701D01*
X0081906Y0041701D01*
X0081906Y0051102D01*
X0081102Y0051102D01*
X0081102Y0041701D01*
X0080953Y0041701D01*
X0079859Y0041824D01*
X0078786Y0042069D01*
X0078009Y0042341D01*
X0078100Y0042184D01*
X0078839Y0039427D01*
X0078839Y0036573D01*
X0078100Y0033816D01*
X0078009Y0033659D01*
X0078786Y0033931D01*
X0079859Y0034176D01*
X0080953Y0034299D01*
X0081102Y0034299D01*
X0081102Y0024898D01*
X0081906Y0024898D01*
X0091307Y0024898D01*
X0091307Y0025047D01*
X0091184Y0026141D01*
X0090939Y0027214D01*
X0090575Y0028253D01*
X0090097Y0029245D01*
X0089512Y0030178D01*
X0088825Y0031039D01*
X0088047Y0031817D01*
X0087186Y0032504D01*
X0086253Y0033090D01*
X0085261Y0033567D01*
X0084222Y0033931D01*
X0083149Y0034176D01*
X0082054Y0034299D01*
X0081906Y0034299D01*
X0081906Y0024898D01*
X0081906Y0024094D01*
X0091307Y0024094D01*
X0091307Y0023946D01*
X0091184Y0022851D01*
X0090939Y0021778D01*
X0090575Y0020739D01*
X0090097Y0019747D01*
X0089512Y0018814D01*
X0088825Y0017953D01*
X0088047Y0017175D01*
X0087186Y0016488D01*
X0086253Y0015903D01*
X0085261Y0015425D01*
X0084222Y0015061D01*
X0083149Y0014816D01*
X0082054Y0014693D01*
X0081906Y0014693D01*
X0081906Y0024094D01*
X0081102Y0024094D01*
X0081102Y0014693D01*
X0080953Y0014693D01*
X0079859Y0014816D01*
X0078786Y0015061D01*
X0077747Y0015425D01*
X0076754Y0015903D01*
X0075822Y0016488D01*
X0074961Y0017175D01*
X0074183Y0017953D01*
X0073496Y0018814D01*
X0072910Y0019747D01*
X0072433Y0020739D01*
X0072069Y0021778D01*
X0071824Y0022851D01*
X0071701Y0023946D01*
X0071701Y0024094D01*
X0081102Y0024094D01*
X0081102Y0024898D01*
X0071701Y0024898D01*
X0071701Y0025047D01*
X0071824Y0026141D01*
X0072069Y0027214D01*
X0072341Y0027991D01*
X0072184Y0027900D01*
X0069427Y0027161D01*
X0066573Y0027161D01*
X0063816Y0027900D01*
X0063659Y0027991D01*
X0063931Y0027214D01*
X0064176Y0026141D01*
X0064299Y0025047D01*
X0064299Y0024898D01*
X0054898Y0024898D01*
X0054898Y0024094D01*
X0054898Y0014693D01*
X0055047Y0014693D01*
X0056141Y0014816D01*
X0057214Y0015061D01*
X0058253Y0015425D01*
X0059245Y0015903D01*
X0060178Y0016488D01*
X0061039Y0017175D01*
X0061817Y0017953D01*
X0062504Y0018814D01*
X0063090Y0019747D01*
X0063567Y0020739D01*
X0063931Y0021778D01*
X0064176Y0022851D01*
X0064299Y0023946D01*
X0064299Y0024094D01*
X0054898Y0024094D01*
X0054094Y0024094D01*
X0054094Y0014693D01*
X0053946Y0014693D01*
X0052851Y0014816D01*
X0051778Y0015061D01*
X0050739Y0015425D01*
X0049747Y0015903D01*
X0048814Y0016488D01*
X0047953Y0017175D01*
X0047175Y0017953D01*
X0046488Y0018814D01*
X0045903Y0019747D01*
X0045425Y0020739D01*
X0045061Y0021778D01*
X0044816Y0022851D01*
X0044693Y0023946D01*
X0044693Y0024094D01*
X0054094Y0024094D01*
X0054094Y0024898D01*
X0044693Y0024898D01*
X0044693Y0025047D01*
X0044816Y0026141D01*
X0045061Y0027214D01*
X0045425Y0028253D01*
X0045784Y0029000D01*
X0041210Y0029000D01*
X0037902Y0030370D01*
X0010000Y0058272D01*
X0010000Y0026024D01*
X0011043Y0027067D01*
X0013627Y0028559D01*
X0016508Y0029331D01*
X0019492Y0029331D01*
X0022373Y0028559D01*
X0024957Y0027067D01*
X0027067Y0024957D01*
X0028559Y0022373D01*
X0029331Y0019492D01*
X0029331Y0016508D01*
X0028559Y0013627D01*
X0027067Y0011043D01*
X0026027Y0010003D02*
X0394973Y0010003D01*
X0392341Y0014001D02*
X0028659Y0014001D01*
X0029331Y0018000D02*
X0047138Y0018000D01*
X0045011Y0021999D02*
X0028659Y0021999D01*
X0026027Y0025997D02*
X0044800Y0025997D01*
X0038806Y0029996D02*
X0010000Y0029996D01*
X0010000Y0033994D02*
X0034278Y0033994D01*
X0030280Y0037993D02*
X0010000Y0037993D01*
X0010000Y0041991D02*
X0026281Y0041991D01*
X0022282Y0045990D02*
X0010000Y0045990D01*
X0010000Y0049988D02*
X0018284Y0049988D01*
X0014285Y0053987D02*
X0010000Y0053987D01*
X0010000Y0057985D02*
X0010287Y0057985D01*
X0013000Y0068000D02*
X0013000Y0243000D01*
X0043000Y0273000D01*
X0063000Y0273000D01*
X0068000Y0268000D01*
X0068000Y0258000D01*
X0073000Y0253000D01*
X0078000Y0253000D01*
X0088000Y0258000D02*
X0088000Y0188000D01*
X0083000Y0183000D01*
X0078000Y0183000D01*
X0068000Y0178000D02*
X0073000Y0173000D01*
X0078000Y0173000D01*
X0158000Y0173000D01*
X0163000Y0168000D01*
X0163000Y0163000D01*
X0188000Y0138000D01*
X0228000Y0138000D01*
X0233000Y0143000D01*
X0233000Y0153000D01*
X0233000Y0163000D01*
X0242703Y0157948D02*
X0245351Y0157948D01*
X0242953Y0153949D02*
X0255935Y0153949D01*
X0253000Y0163000D02*
X0253000Y0183000D01*
X0263000Y0183000D02*
X0268000Y0183000D01*
X0278000Y0193000D01*
X0368000Y0193000D01*
X0378000Y0203000D01*
X0378000Y0235500D01*
X0368000Y0235500D02*
X0368000Y0213000D01*
X0358000Y0203000D01*
X0213000Y0203000D01*
X0193000Y0183000D01*
X0193000Y0193000D01*
X0183000Y0193000D02*
X0183000Y0163000D01*
X0193000Y0163000D01*
X0213000Y0163000D02*
X0213000Y0153000D01*
X0223000Y0153000D02*
X0223000Y0163000D01*
X0242953Y0149951D02*
X0274521Y0149951D01*
X0274000Y0153949D02*
X0270065Y0153949D01*
X0272338Y0157948D02*
X0273662Y0157948D01*
X0283000Y0153000D02*
X0283000Y0163000D01*
X0293000Y0163000D02*
X0293000Y0158000D01*
X0318000Y0133000D01*
X0318000Y0058000D01*
X0298000Y0038000D01*
X0278000Y0038000D01*
X0267161Y0037993D02*
X0158839Y0037993D01*
X0158839Y0036573D02*
X0158839Y0039427D01*
X0158100Y0042184D01*
X0158009Y0042341D01*
X0158786Y0042069D01*
X0159859Y0041824D01*
X0160953Y0041701D01*
X0161102Y0041701D01*
X0161102Y0051102D01*
X0151701Y0051102D01*
X0151701Y0050953D01*
X0151824Y0049859D01*
X0152069Y0048786D01*
X0152341Y0048009D01*
X0152184Y0048100D01*
X0149427Y0048839D01*
X0146573Y0048839D01*
X0143816Y0048100D01*
X0143659Y0048009D01*
X0143931Y0048786D01*
X0144176Y0049859D01*
X0144299Y0050953D01*
X0144299Y0051102D01*
X0134898Y0051102D01*
X0134898Y0051906D01*
X0134094Y0051906D01*
X0134094Y0061307D01*
X0133946Y0061307D01*
X0132851Y0061184D01*
X0131778Y0060939D01*
X0130739Y0060575D01*
X0129747Y0060097D01*
X0128814Y0059512D01*
X0127953Y0058825D01*
X0127175Y0058047D01*
X0126488Y0057186D01*
X0125903Y0056253D01*
X0125425Y0055261D01*
X0125061Y0054222D01*
X0124816Y0053149D01*
X0124693Y0052054D01*
X0124693Y0051906D01*
X0134094Y0051906D01*
X0134094Y0051102D01*
X0124693Y0051102D01*
X0124693Y0050953D01*
X0124816Y0049859D01*
X0125061Y0048786D01*
X0125425Y0047747D01*
X0125784Y0047000D01*
X0121728Y0047000D01*
X0117953Y0050775D01*
X0117953Y0052345D01*
X0116887Y0054918D01*
X0114918Y0056887D01*
X0112345Y0057953D01*
X0103655Y0057953D01*
X0101082Y0056887D01*
X0099113Y0054918D01*
X0098047Y0052345D01*
X0098047Y0043655D01*
X0099113Y0041082D01*
X0101082Y0039113D01*
X0103655Y0038047D01*
X0105225Y0038047D01*
X0112902Y0030370D01*
X0116210Y0029000D01*
X0125784Y0029000D01*
X0125425Y0028253D01*
X0125061Y0027214D01*
X0124816Y0026141D01*
X0124693Y0025047D01*
X0124693Y0024898D01*
X0134094Y0024898D01*
X0134094Y0024094D01*
X0134898Y0024094D01*
X0134898Y0014693D01*
X0135047Y0014693D01*
X0136141Y0014816D01*
X0137214Y0015061D01*
X0138253Y0015425D01*
X0139245Y0015903D01*
X0140178Y0016488D01*
X0141039Y0017175D01*
X0141817Y0017953D01*
X0142504Y0018814D01*
X0143090Y0019747D01*
X0143567Y0020739D01*
X0143931Y0021778D01*
X0144176Y0022851D01*
X0144299Y0023946D01*
X0144299Y0024094D01*
X0134898Y0024094D01*
X0134898Y0024898D01*
X0144299Y0024898D01*
X0144299Y0025047D01*
X0144176Y0026141D01*
X0143931Y0027214D01*
X0143659Y0027991D01*
X0143816Y0027900D01*
X0146573Y0027161D01*
X0149427Y0027161D01*
X0152184Y0027900D01*
X0152341Y0027991D01*
X0152069Y0027214D01*
X0151824Y0026141D01*
X0151701Y0025047D01*
X0151701Y0024898D01*
X0161102Y0024898D01*
X0161102Y0034299D01*
X0160953Y0034299D01*
X0159859Y0034176D01*
X0158786Y0033931D01*
X0158009Y0033659D01*
X0158100Y0033816D01*
X0158839Y0036573D01*
X0159062Y0033994D02*
X0158148Y0033994D01*
X0161102Y0033994D02*
X0161906Y0033994D01*
X0161906Y0034299D02*
X0162054Y0034299D01*
X0163149Y0034176D01*
X0164222Y0033931D01*
X0165261Y0033567D01*
X0166253Y0033090D01*
X0167186Y0032504D01*
X0168047Y0031817D01*
X0168825Y0031039D01*
X0169512Y0030178D01*
X0170097Y0029245D01*
X0170575Y0028253D01*
X0170939Y0027214D01*
X0171184Y0026141D01*
X0171307Y0025047D01*
X0171307Y0024898D01*
X0161906Y0024898D01*
X0161906Y0024094D01*
X0171307Y0024094D01*
X0171307Y0023946D01*
X0171184Y0022851D01*
X0170939Y0021778D01*
X0170575Y0020739D01*
X0170097Y0019747D01*
X0169512Y0018814D01*
X0168825Y0017953D01*
X0168047Y0017175D01*
X0167186Y0016488D01*
X0166253Y0015903D01*
X0165261Y0015425D01*
X0164222Y0015061D01*
X0163149Y0014816D01*
X0162054Y0014693D01*
X0161906Y0014693D01*
X0161906Y0024094D01*
X0161102Y0024094D01*
X0161102Y0014693D01*
X0160953Y0014693D01*
X0159859Y0014816D01*
X0158786Y0015061D01*
X0157747Y0015425D01*
X0156754Y0015903D01*
X0155822Y0016488D01*
X0154961Y0017175D01*
X0154183Y0017953D01*
X0153496Y0018814D01*
X0152910Y0019747D01*
X0152433Y0020739D01*
X0152069Y0021778D01*
X0151824Y0022851D01*
X0151701Y0023946D01*
X0151701Y0024094D01*
X0161102Y0024094D01*
X0161102Y0024898D01*
X0161906Y0024898D01*
X0161906Y0034299D01*
X0163945Y0033994D02*
X0262055Y0033994D01*
X0264094Y0033994D02*
X0264898Y0033994D01*
X0266938Y0033994D02*
X0267852Y0033994D01*
X0264898Y0029996D02*
X0264094Y0029996D01*
X0264094Y0025997D02*
X0264898Y0025997D01*
X0264898Y0021999D02*
X0264094Y0021999D01*
X0264094Y0018000D02*
X0264898Y0018000D01*
X0257138Y0018000D02*
X0168862Y0018000D01*
X0170989Y0021999D02*
X0255011Y0021999D01*
X0254800Y0025997D02*
X0171200Y0025997D01*
X0169626Y0029996D02*
X0256374Y0029996D01*
X0262120Y0041991D02*
X0163880Y0041991D01*
X0164222Y0042069D02*
X0163149Y0041824D01*
X0162054Y0041701D01*
X0161906Y0041701D01*
X0161906Y0051102D01*
X0161906Y0051906D01*
X0161102Y0051906D01*
X0161102Y0061307D01*
X0160953Y0061307D01*
X0159859Y0061184D01*
X0158786Y0060939D01*
X0157747Y0060575D01*
X0156754Y0060097D01*
X0155822Y0059512D01*
X0154961Y0058825D01*
X0154183Y0058047D01*
X0153496Y0057186D01*
X0152910Y0056253D01*
X0152433Y0055261D01*
X0152069Y0054222D01*
X0151824Y0053149D01*
X0151701Y0052054D01*
X0151701Y0051906D01*
X0161102Y0051906D01*
X0161102Y0051102D01*
X0161906Y0051102D01*
X0171307Y0051102D01*
X0171307Y0050953D01*
X0171184Y0049859D01*
X0170939Y0048786D01*
X0170575Y0047747D01*
X0170097Y0046754D01*
X0169512Y0045822D01*
X0168825Y0044961D01*
X0168047Y0044183D01*
X0167186Y0043496D01*
X0166253Y0042910D01*
X0165261Y0042433D01*
X0164222Y0042069D01*
X0161906Y0041991D02*
X0161102Y0041991D01*
X0159128Y0041991D02*
X0158152Y0041991D01*
X0161102Y0045990D02*
X0161906Y0045990D01*
X0161906Y0049988D02*
X0161102Y0049988D01*
X0161906Y0051906D02*
X0171307Y0051906D01*
X0171307Y0052054D01*
X0171184Y0053149D01*
X0170939Y0054222D01*
X0170575Y0055261D01*
X0170097Y0056253D01*
X0169512Y0057186D01*
X0168825Y0058047D01*
X0168047Y0058825D01*
X0167186Y0059512D01*
X0166253Y0060097D01*
X0165261Y0060575D01*
X0164222Y0060939D01*
X0163149Y0061184D01*
X0162054Y0061307D01*
X0161906Y0061307D01*
X0161906Y0051906D01*
X0161906Y0053987D02*
X0161102Y0053987D01*
X0161102Y0057985D02*
X0161906Y0057985D01*
X0168874Y0057985D02*
X0190287Y0057985D01*
X0186288Y0061984D02*
X0031744Y0061984D01*
X0027746Y0065982D02*
X0182290Y0065982D01*
X0178291Y0069981D02*
X0023747Y0069981D01*
X0022000Y0073979D02*
X0174293Y0073979D01*
X0170339Y0077978D02*
X0022000Y0077978D01*
X0022000Y0081976D02*
X0169000Y0081976D01*
X0161906Y0085975D02*
X0161102Y0085975D01*
X0161102Y0089973D02*
X0161906Y0089973D01*
X0161906Y0093972D02*
X0161102Y0093972D01*
X0161102Y0097970D02*
X0161906Y0097970D01*
X0158275Y0101969D02*
X0169000Y0101969D01*
X0169000Y0105967D02*
X0158839Y0105967D01*
X0161102Y0109966D02*
X0161906Y0109966D01*
X0165330Y0109966D02*
X0169000Y0109966D01*
X0161906Y0113964D02*
X0161102Y0113964D01*
X0161102Y0117963D02*
X0161906Y0117963D01*
X0151756Y0117963D02*
X0144244Y0117963D01*
X0144299Y0119406D02*
X0144299Y0119554D01*
X0144176Y0120649D01*
X0143931Y0121722D01*
X0143567Y0122761D01*
X0143090Y0123753D01*
X0142504Y0124686D01*
X0141817Y0125547D01*
X0141039Y0126325D01*
X0140178Y0127012D01*
X0139245Y0127597D01*
X0138253Y0128075D01*
X0137214Y0128439D01*
X0136141Y0128684D01*
X0135047Y0128807D01*
X0134898Y0128807D01*
X0134898Y0119406D01*
X0144299Y0119406D01*
X0143847Y0121961D02*
X0152153Y0121961D01*
X0154596Y0125960D02*
X0141404Y0125960D01*
X0134898Y0125960D02*
X0134094Y0125960D01*
X0127588Y0125960D02*
X0102768Y0125960D01*
X0098770Y0129958D02*
X0153314Y0129958D01*
X0149315Y0133957D02*
X0094771Y0133957D01*
X0090773Y0137955D02*
X0145317Y0137955D01*
X0141318Y0141954D02*
X0086774Y0141954D01*
X0078000Y0138000D02*
X0058000Y0138000D01*
X0048000Y0148000D01*
X0048000Y0173000D01*
X0058000Y0173000D01*
X0058000Y0183000D02*
X0048000Y0183000D01*
X0023000Y0208000D01*
X0023000Y0238000D01*
X0048000Y0263000D01*
X0058000Y0263000D01*
X0058000Y0253000D02*
X0053000Y0253000D01*
X0033000Y0233000D01*
X0048000Y0228000D02*
X0058000Y0238000D01*
X0058000Y0243000D01*
X0068000Y0238000D02*
X0068000Y0203000D01*
X0070500Y0200500D01*
X0078000Y0193000D01*
X0068000Y0188000D02*
X0068000Y0178000D01*
X0068000Y0188000D02*
X0063000Y0193000D01*
X0058000Y0193000D01*
X0036333Y0181939D02*
X0022000Y0181939D01*
X0022000Y0185937D02*
X0032335Y0185937D01*
X0028336Y0189936D02*
X0022000Y0189936D01*
X0022000Y0193934D02*
X0024338Y0193934D01*
X0022000Y0177940D02*
X0038294Y0177940D01*
X0038047Y0173942D02*
X0022000Y0173942D01*
X0022000Y0169943D02*
X0038047Y0169943D01*
X0039000Y0165945D02*
X0022000Y0165945D01*
X0022000Y0161946D02*
X0039000Y0161946D01*
X0039000Y0157948D02*
X0022000Y0157948D01*
X0039000Y0157948D01*
X0039000Y0153949D02*
X0022000Y0153949D01*
X0039000Y0153949D01*
X0039000Y0149951D02*
X0022000Y0149951D01*
X0039000Y0149951D01*
X0039107Y0145952D02*
X0022000Y0145952D01*
X0039107Y0145952D01*
X0041318Y0141954D02*
X0022000Y0141954D01*
X0041318Y0141954D01*
X0045317Y0137955D02*
X0022000Y0137955D01*
X0045317Y0137955D01*
X0049315Y0133957D02*
X0022000Y0133957D01*
X0049315Y0133957D01*
X0053896Y0129958D02*
X0022000Y0129958D01*
X0053896Y0129958D01*
X0054094Y0125960D02*
X0054898Y0125960D01*
X0054094Y0125960D01*
X0047588Y0125960D02*
X0022000Y0125960D01*
X0047588Y0125960D01*
X0045145Y0121961D02*
X0022000Y0121961D01*
X0045145Y0121961D01*
X0044693Y0118602D02*
X0044693Y0118453D01*
X0044816Y0117359D01*
X0045061Y0116286D01*
X0045353Y0115453D01*
X0041155Y0115453D01*
X0038582Y0114387D01*
X0036613Y0112418D01*
X0035547Y0109845D01*
X0035547Y0101155D01*
X0036613Y0098582D01*
X0038582Y0096613D01*
X0041155Y0095547D01*
X0045353Y0095547D01*
X0045061Y0094714D01*
X0044816Y0093641D01*
X0045061Y0094714D01*
X0045353Y0095547D01*
X0041155Y0095547D01*
X0038582Y0096613D01*
X0036613Y0098582D01*
X0035547Y0101155D01*
X0035547Y0109845D01*
X0036613Y0112418D01*
X0038582Y0114387D01*
X0041155Y0115453D01*
X0045353Y0115453D01*
X0045061Y0116286D01*
X0044816Y0117359D01*
X0044693Y0118453D01*
X0044693Y0118602D01*
X0054094Y0118602D01*
X0054094Y0119406D01*
X0054094Y0118602D01*
X0044693Y0118602D01*
X0044748Y0117963D02*
X0022000Y0117963D01*
X0044748Y0117963D01*
X0038159Y0113964D02*
X0022000Y0113964D01*
X0038159Y0113964D01*
X0035597Y0109966D02*
X0022000Y0109966D01*
X0035597Y0109966D01*
X0035547Y0105967D02*
X0022000Y0105967D01*
X0035547Y0105967D01*
X0035547Y0101969D02*
X0022000Y0101969D01*
X0035547Y0101969D01*
X0037225Y0097970D02*
X0022000Y0097970D01*
X0037225Y0097970D01*
X0044892Y0093972D02*
X0022000Y0093972D01*
X0044892Y0093972D01*
X0044902Y0089973D02*
X0022000Y0089973D01*
X0022000Y0085975D02*
X0046759Y0085975D01*
X0054094Y0085975D02*
X0054898Y0085975D01*
X0054898Y0089973D02*
X0054094Y0089973D01*
X0062233Y0085975D02*
X0073767Y0085975D01*
X0071910Y0089973D02*
X0064090Y0089973D01*
X0064100Y0093972D02*
X0071900Y0093972D01*
X0081102Y0093972D02*
X0081906Y0093972D01*
X0081906Y0097970D02*
X0081102Y0097970D01*
X0078275Y0101969D02*
X0101303Y0101969D01*
X0105302Y0097970D02*
X0089278Y0097970D01*
X0091108Y0093972D02*
X0124892Y0093972D01*
X0124902Y0089973D02*
X0091097Y0089973D01*
X0089241Y0085975D02*
X0126759Y0085975D01*
X0134094Y0085975D02*
X0134898Y0085975D01*
X0134898Y0089973D02*
X0134094Y0089973D01*
X0142233Y0085975D02*
X0153767Y0085975D01*
X0151910Y0089973D02*
X0144090Y0089973D01*
X0144100Y0093972D02*
X0151900Y0093972D01*
X0148000Y0105500D02*
X0110500Y0105500D01*
X0078000Y0138000D01*
X0074596Y0125960D02*
X0061404Y0125960D01*
X0068000Y0125960D01*
X0068000Y0121961D02*
X0063847Y0121961D01*
X0072153Y0121961D01*
X0071756Y0117963D02*
X0064244Y0117963D01*
X0068000Y0117963D01*
X0081102Y0117963D02*
X0081906Y0117963D01*
X0081906Y0113964D02*
X0081102Y0113964D01*
X0081102Y0109966D02*
X0081906Y0109966D01*
X0085330Y0109966D02*
X0093306Y0109966D01*
X0097305Y0105967D02*
X0078839Y0105967D01*
X0068000Y0105500D02*
X0045500Y0105500D01*
X0054094Y0121961D02*
X0054898Y0121961D01*
X0054094Y0121961D01*
X0058000Y0153000D02*
X0058000Y0163000D01*
X0098000Y0163000D01*
X0108000Y0153000D02*
X0123000Y0153000D01*
X0123000Y0163000D01*
X0132338Y0157948D02*
X0133662Y0157948D01*
X0134000Y0153949D02*
X0132000Y0153949D01*
X0131479Y0149951D02*
X0134521Y0149951D01*
X0137320Y0145952D02*
X0128680Y0145952D01*
X0143000Y0153000D02*
X0143000Y0163000D01*
X0143000Y0153000D02*
X0178000Y0118000D01*
X0178000Y0083000D01*
X0198000Y0063000D01*
X0213000Y0063000D01*
X0213000Y0073000D02*
X0203000Y0073000D01*
X0213000Y0083000D02*
X0258000Y0083000D01*
X0263000Y0078000D01*
X0272953Y0077978D02*
X0288047Y0077978D01*
X0288047Y0081976D02*
X0272953Y0081976D01*
X0270830Y0085975D02*
X0286640Y0085975D01*
X0282801Y0089973D02*
X0273199Y0089973D01*
X0274299Y0093972D02*
X0281701Y0093972D01*
X0282305Y0097970D02*
X0282334Y0097970D01*
X0273695Y0097970D02*
X0273666Y0097970D01*
X0264094Y0094898D02*
X0264094Y0094094D01*
X0254693Y0094094D01*
X0254693Y0093946D01*
X0254816Y0092851D01*
X0255011Y0092000D01*
X0247953Y0092000D01*
X0247953Y0097345D01*
X0247267Y0099000D01*
X0255784Y0099000D01*
X0255425Y0098253D01*
X0255061Y0097214D01*
X0254816Y0096141D01*
X0254693Y0095047D01*
X0254693Y0094898D01*
X0264094Y0094898D01*
X0255326Y0097970D02*
X0247694Y0097970D01*
X0247953Y0093972D02*
X0254693Y0093972D01*
X0238000Y0093000D02*
X0213000Y0093000D01*
X0223700Y0073979D02*
X0253047Y0073979D01*
X0255214Y0069981D02*
X0223268Y0069981D01*
X0223700Y0065982D02*
X0309000Y0065982D01*
X0309000Y0061984D02*
X0223700Y0061984D01*
X0223700Y0057985D02*
X0257126Y0057985D01*
X0255007Y0053987D02*
X0221286Y0053987D01*
X0204714Y0053987D02*
X0170993Y0053987D01*
X0171198Y0049988D02*
X0254802Y0049988D01*
X0256383Y0045990D02*
X0169617Y0045990D01*
X0151810Y0049988D02*
X0144190Y0049988D01*
X0144299Y0051906D02*
X0144299Y0052054D01*
X0144176Y0053149D01*
X0143931Y0054222D01*
X0143567Y0055261D01*
X0143090Y0056253D01*
X0142504Y0057186D01*
X0141817Y0058047D01*
X0141039Y0058825D01*
X0140178Y0059512D01*
X0139245Y0060097D01*
X0138253Y0060575D01*
X0137214Y0060939D01*
X0136141Y0061184D01*
X0135047Y0061307D01*
X0134898Y0061307D01*
X0134898Y0051906D01*
X0144299Y0051906D01*
X0143985Y0053987D02*
X0152015Y0053987D01*
X0154134Y0057985D02*
X0141866Y0057985D01*
X0134898Y0057985D02*
X0134094Y0057985D01*
X0134094Y0053987D02*
X0134898Y0053987D01*
X0127126Y0057985D02*
X0088874Y0057985D01*
X0090993Y0053987D02*
X0098727Y0053987D01*
X0098047Y0049988D02*
X0091198Y0049988D01*
X0089617Y0045990D02*
X0098047Y0045990D01*
X0098736Y0041991D02*
X0083880Y0041991D01*
X0081906Y0041991D02*
X0081102Y0041991D01*
X0079128Y0041991D02*
X0078152Y0041991D01*
X0081102Y0045990D02*
X0081906Y0045990D01*
X0081906Y0049988D02*
X0081102Y0049988D01*
X0081102Y0053987D02*
X0081906Y0053987D01*
X0081906Y0057985D02*
X0081102Y0057985D01*
X0074134Y0057985D02*
X0061866Y0057985D01*
X0063985Y0053987D02*
X0072015Y0053987D01*
X0071810Y0049988D02*
X0064190Y0049988D01*
X0054898Y0053987D02*
X0054094Y0053987D01*
X0054094Y0057985D02*
X0054898Y0057985D01*
X0047126Y0057985D02*
X0035743Y0057985D01*
X0039741Y0053987D02*
X0045007Y0053987D01*
X0044802Y0049988D02*
X0043740Y0049988D01*
X0043000Y0038000D02*
X0013000Y0068000D01*
X0043000Y0038000D02*
X0068000Y0038000D01*
X0078839Y0037993D02*
X0105280Y0037993D01*
X0109278Y0033994D02*
X0083945Y0033994D01*
X0081906Y0033994D02*
X0081102Y0033994D01*
X0079062Y0033994D02*
X0078148Y0033994D01*
X0081102Y0029996D02*
X0081906Y0029996D01*
X0081906Y0025997D02*
X0081102Y0025997D01*
X0081102Y0021999D02*
X0081906Y0021999D01*
X0081906Y0018000D02*
X0081102Y0018000D01*
X0074146Y0018000D02*
X0061854Y0018000D01*
X0063981Y0021999D02*
X0072019Y0021999D01*
X0071808Y0025997D02*
X0064192Y0025997D01*
X0054898Y0021999D02*
X0054094Y0021999D01*
X0054094Y0018000D02*
X0054898Y0018000D01*
X0088862Y0018000D02*
X0127138Y0018000D01*
X0127175Y0017953D02*
X0127953Y0017175D01*
X0128814Y0016488D01*
X0129747Y0015903D01*
X0130739Y0015425D01*
X0131778Y0015061D01*
X0132851Y0014816D01*
X0133946Y0014693D01*
X0134094Y0014693D01*
X0134094Y0024094D01*
X0124693Y0024094D01*
X0124693Y0023946D01*
X0124816Y0022851D01*
X0125061Y0021778D01*
X0125425Y0020739D01*
X0125903Y0019747D01*
X0126488Y0018814D01*
X0127175Y0017953D01*
X0125011Y0021999D02*
X0090989Y0021999D01*
X0091200Y0025997D02*
X0124800Y0025997D01*
X0134094Y0021999D02*
X0134898Y0021999D01*
X0134898Y0018000D02*
X0134094Y0018000D01*
X0141854Y0018000D02*
X0154146Y0018000D01*
X0152019Y0021999D02*
X0143981Y0021999D01*
X0144192Y0025997D02*
X0151808Y0025997D01*
X0161102Y0025997D02*
X0161906Y0025997D01*
X0161906Y0021999D02*
X0161102Y0021999D01*
X0161102Y0018000D02*
X0161906Y0018000D01*
X0161906Y0029996D02*
X0161102Y0029996D01*
X0148000Y0038000D02*
X0118000Y0038000D01*
X0108000Y0048000D01*
X0117273Y0053987D02*
X0125007Y0053987D01*
X0124802Y0049988D02*
X0118740Y0049988D01*
X0113806Y0029996D02*
X0089626Y0029996D01*
X0081906Y0085975D02*
X0081102Y0085975D01*
X0081102Y0089973D02*
X0081906Y0089973D01*
X0110765Y0117963D02*
X0124748Y0117963D01*
X0125145Y0121961D02*
X0106767Y0121961D01*
X0134094Y0121961D02*
X0134898Y0121961D01*
X0153000Y0158000D02*
X0183000Y0128000D01*
X0218000Y0128000D01*
X0238000Y0108000D01*
X0278000Y0108000D01*
X0288676Y0105967D02*
X0299000Y0105967D01*
X0299000Y0109966D02*
X0288694Y0109966D01*
X0291102Y0113964D02*
X0291906Y0113964D01*
X0297773Y0113964D02*
X0299000Y0113964D01*
X0291906Y0117963D02*
X0291102Y0117963D01*
X0291102Y0121961D02*
X0291906Y0121961D01*
X0291906Y0125960D02*
X0291102Y0125960D01*
X0291102Y0129958D02*
X0291906Y0129958D01*
X0289315Y0133957D02*
X0236685Y0133957D01*
X0232104Y0129958D02*
X0259525Y0129958D01*
X0264094Y0129958D02*
X0264898Y0129958D01*
X0264898Y0131307D02*
X0264898Y0121906D01*
X0274299Y0121906D01*
X0274299Y0122054D01*
X0274176Y0123149D01*
X0273931Y0124222D01*
X0273567Y0125261D01*
X0273090Y0126253D01*
X0272504Y0127186D01*
X0271817Y0128047D01*
X0271039Y0128825D01*
X0270178Y0129512D01*
X0269245Y0130097D01*
X0268253Y0130575D01*
X0267214Y0130939D01*
X0266141Y0131184D01*
X0265047Y0131307D01*
X0264898Y0131307D01*
X0264898Y0125960D02*
X0264094Y0125960D01*
X0264094Y0121961D02*
X0264898Y0121961D01*
X0273231Y0125960D02*
X0282769Y0125960D01*
X0286533Y0129958D02*
X0269467Y0129958D01*
X0274299Y0121961D02*
X0281701Y0121961D01*
X0285317Y0137955D02*
X0240652Y0137955D01*
X0242000Y0141954D02*
X0281318Y0141954D01*
X0277320Y0145952D02*
X0242000Y0145952D01*
X0253000Y0163000D02*
X0263000Y0163000D01*
X0283000Y0153000D02*
X0308000Y0128000D01*
X0308000Y0088000D01*
X0298000Y0078000D01*
X0288047Y0073979D02*
X0272953Y0073979D01*
X0270786Y0069981D02*
X0290214Y0069981D01*
X0291102Y0057985D02*
X0291906Y0057985D01*
X0291906Y0053987D02*
X0291102Y0053987D01*
X0298874Y0057985D02*
X0305257Y0057985D01*
X0301259Y0053987D02*
X0300993Y0053987D01*
X0284134Y0057985D02*
X0271866Y0057985D01*
X0271817Y0058047D02*
X0271039Y0058825D01*
X0270178Y0059512D01*
X0269245Y0060097D01*
X0268253Y0060575D01*
X0267214Y0060939D01*
X0266141Y0061184D01*
X0265047Y0061307D01*
X0264898Y0061307D01*
X0264898Y0051906D01*
X0274299Y0051906D01*
X0274299Y0052054D01*
X0274176Y0053149D01*
X0273931Y0054222D01*
X0273567Y0055261D01*
X0273090Y0056253D01*
X0272504Y0057186D01*
X0271817Y0058047D01*
X0273985Y0053987D02*
X0282015Y0053987D01*
X0281810Y0049988D02*
X0274190Y0049988D01*
X0264898Y0049988D02*
X0264094Y0049988D01*
X0264094Y0053987D02*
X0264898Y0053987D01*
X0264898Y0057985D02*
X0264094Y0057985D01*
X0264094Y0045990D02*
X0264898Y0045990D01*
X0264898Y0041991D02*
X0264094Y0041991D01*
X0266872Y0041991D02*
X0267848Y0041991D01*
X0274192Y0025997D02*
X0281808Y0025997D01*
X0282019Y0021999D02*
X0273981Y0021999D01*
X0271854Y0018000D02*
X0284146Y0018000D01*
X0291102Y0018000D02*
X0291906Y0018000D01*
X0291906Y0021999D02*
X0291102Y0021999D01*
X0298862Y0018000D02*
X0334638Y0018000D01*
X0334675Y0017953D02*
X0335453Y0017175D01*
X0336314Y0016488D01*
X0337247Y0015903D01*
X0338239Y0015425D01*
X0339278Y0015061D01*
X0340351Y0014816D01*
X0341446Y0014693D01*
X0341594Y0014693D01*
X0341594Y0024094D01*
X0342398Y0024094D01*
X0342398Y0014693D01*
X0342547Y0014693D01*
X0343641Y0014816D01*
X0344714Y0015061D01*
X0345753Y0015425D01*
X0346745Y0015903D01*
X0347678Y0016488D01*
X0348539Y0017175D01*
X0349317Y0017953D01*
X0350004Y0018814D01*
X0350590Y0019747D01*
X0351067Y0020739D01*
X0351431Y0021778D01*
X0351676Y0022851D01*
X0351799Y0023946D01*
X0351799Y0024094D01*
X0342398Y0024094D01*
X0342398Y0024898D01*
X0351799Y0024898D01*
X0351799Y0025047D01*
X0351676Y0026141D01*
X0351431Y0027214D01*
X0351159Y0027991D01*
X0351316Y0027900D01*
X0354073Y0027161D01*
X0356927Y0027161D01*
X0359684Y0027900D01*
X0359841Y0027991D01*
X0359569Y0027214D01*
X0359324Y0026141D01*
X0359201Y0025047D01*
X0359201Y0024898D01*
X0368602Y0024898D01*
X0368602Y0024094D01*
X0369406Y0024094D01*
X0369406Y0024898D01*
X0378807Y0024898D01*
X0378807Y0025047D01*
X0378684Y0026141D01*
X0378439Y0027214D01*
X0378075Y0028253D01*
X0377716Y0029000D01*
X0389790Y0029000D01*
X0393098Y0030370D01*
X0395775Y0033047D01*
X0397345Y0033047D01*
X0399918Y0034113D01*
X0401887Y0036082D01*
X0402953Y0038655D01*
X0402953Y0047345D01*
X0401887Y0049918D01*
X0399918Y0051887D01*
X0397345Y0052953D01*
X0388655Y0052953D01*
X0386082Y0051887D01*
X0384113Y0049918D01*
X0383047Y0047345D01*
X0383047Y0047000D01*
X0377716Y0047000D01*
X0378075Y0047747D01*
X0378439Y0048786D01*
X0378684Y0049859D01*
X0378807Y0050953D01*
X0378807Y0051102D01*
X0369406Y0051102D01*
X0369406Y0051906D01*
X0368602Y0051906D01*
X0368602Y0061307D01*
X0368453Y0061307D01*
X0367359Y0061184D01*
X0366286Y0060939D01*
X0365247Y0060575D01*
X0364254Y0060097D01*
X0363322Y0059512D01*
X0362461Y0058825D01*
X0361683Y0058047D01*
X0360996Y0057186D01*
X0360410Y0056253D01*
X0359933Y0055261D01*
X0359569Y0054222D01*
X0359324Y0053149D01*
X0359201Y0052054D01*
X0359201Y0051906D01*
X0368602Y0051906D01*
X0368602Y0051102D01*
X0359201Y0051102D01*
X0359201Y0050953D01*
X0359324Y0049859D01*
X0359569Y0048786D01*
X0359841Y0048009D01*
X0359684Y0048100D01*
X0356927Y0048839D01*
X0354073Y0048839D01*
X0351316Y0048100D01*
X0351159Y0048009D01*
X0351431Y0048786D01*
X0351676Y0049859D01*
X0351799Y0050953D01*
X0351799Y0051102D01*
X0342398Y0051102D01*
X0342398Y0051906D01*
X0341594Y0051906D01*
X0341594Y0061307D01*
X0341446Y0061307D01*
X0340351Y0061184D01*
X0339278Y0060939D01*
X0338239Y0060575D01*
X0337247Y0060097D01*
X0336314Y0059512D01*
X0335453Y0058825D01*
X0334675Y0058047D01*
X0333988Y0057186D01*
X0333403Y0056253D01*
X0332925Y0055261D01*
X0332561Y0054222D01*
X0332316Y0053149D01*
X0332193Y0052054D01*
X0332193Y0051906D01*
X0341594Y0051906D01*
X0341594Y0051102D01*
X0332193Y0051102D01*
X0332193Y0050953D01*
X0332316Y0049859D01*
X0332561Y0048786D01*
X0332925Y0047747D01*
X0333403Y0046754D01*
X0333988Y0045822D01*
X0334675Y0044961D01*
X0335453Y0044183D01*
X0336314Y0043496D01*
X0337247Y0042910D01*
X0338239Y0042433D01*
X0339278Y0042069D01*
X0340351Y0041824D01*
X0341446Y0041701D01*
X0341594Y0041701D01*
X0341594Y0051102D01*
X0342398Y0051102D01*
X0342398Y0041701D01*
X0342547Y0041701D01*
X0343641Y0041824D01*
X0344714Y0042069D01*
X0345491Y0042341D01*
X0345400Y0042184D01*
X0344661Y0039427D01*
X0344661Y0036573D01*
X0345400Y0033816D01*
X0345491Y0033659D01*
X0344714Y0033931D01*
X0343641Y0034176D01*
X0342547Y0034299D01*
X0342398Y0034299D01*
X0342398Y0024898D01*
X0341594Y0024898D01*
X0341594Y0024094D01*
X0332193Y0024094D01*
X0332193Y0023946D01*
X0332316Y0022851D01*
X0332561Y0021778D01*
X0332925Y0020739D01*
X0333403Y0019747D01*
X0333988Y0018814D01*
X0334675Y0017953D01*
X0332511Y0021999D02*
X0300989Y0021999D01*
X0301200Y0025997D02*
X0332300Y0025997D01*
X0332316Y0026141D02*
X0332193Y0025047D01*
X0332193Y0024898D01*
X0341594Y0024898D01*
X0341594Y0034299D01*
X0341446Y0034299D01*
X0340351Y0034176D01*
X0339278Y0033931D01*
X0338239Y0033567D01*
X0337247Y0033090D01*
X0336314Y0032504D01*
X0335453Y0031817D01*
X0334675Y0031039D01*
X0333988Y0030178D01*
X0333403Y0029245D01*
X0332925Y0028253D01*
X0332561Y0027214D01*
X0332316Y0026141D01*
X0333874Y0029996D02*
X0302194Y0029996D01*
X0306722Y0033994D02*
X0339555Y0033994D01*
X0341594Y0033994D02*
X0342398Y0033994D01*
X0344438Y0033994D02*
X0345352Y0033994D01*
X0344661Y0037993D02*
X0310720Y0037993D01*
X0314719Y0041991D02*
X0339620Y0041991D01*
X0341594Y0041991D02*
X0342398Y0041991D01*
X0344372Y0041991D02*
X0345348Y0041991D01*
X0342398Y0045990D02*
X0341594Y0045990D01*
X0341594Y0049988D02*
X0342398Y0049988D01*
X0342398Y0051906D02*
X0351799Y0051906D01*
X0351799Y0052054D01*
X0351676Y0053149D01*
X0351431Y0054222D01*
X0351067Y0055261D01*
X0350590Y0056253D01*
X0350004Y0057186D01*
X0349317Y0058047D01*
X0348539Y0058825D01*
X0347678Y0059512D01*
X0346745Y0060097D01*
X0345753Y0060575D01*
X0344714Y0060939D01*
X0343641Y0061184D01*
X0342547Y0061307D01*
X0342398Y0061307D01*
X0342398Y0051906D01*
X0342398Y0053987D02*
X0341594Y0053987D01*
X0341594Y0057985D02*
X0342398Y0057985D01*
X0349366Y0057985D02*
X0361634Y0057985D01*
X0359515Y0053987D02*
X0351485Y0053987D01*
X0351690Y0049988D02*
X0359310Y0049988D01*
X0368602Y0053987D02*
X0369406Y0053987D01*
X0369406Y0051906D02*
X0369406Y0061307D01*
X0369554Y0061307D01*
X0370649Y0061184D01*
X0371722Y0060939D01*
X0372761Y0060575D01*
X0373753Y0060097D01*
X0374686Y0059512D01*
X0375547Y0058825D01*
X0376325Y0058047D01*
X0377012Y0057186D01*
X0377597Y0056253D01*
X0378075Y0055261D01*
X0378439Y0054222D01*
X0378684Y0053149D01*
X0378807Y0052054D01*
X0378807Y0051906D01*
X0369406Y0051906D01*
X0369406Y0057985D02*
X0368602Y0057985D01*
X0376374Y0057985D02*
X0409701Y0057985D01*
X0409701Y0053987D02*
X0378493Y0053987D01*
X0378698Y0049988D02*
X0384183Y0049988D01*
X0393000Y0043000D02*
X0388000Y0038000D01*
X0355500Y0038000D01*
X0342398Y0029996D02*
X0341594Y0029996D01*
X0341594Y0025997D02*
X0342398Y0025997D01*
X0342398Y0021999D02*
X0341594Y0021999D01*
X0341594Y0018000D02*
X0342398Y0018000D01*
X0349354Y0018000D02*
X0361646Y0018000D01*
X0361683Y0017953D02*
X0362461Y0017175D01*
X0363322Y0016488D01*
X0364254Y0015903D01*
X0365247Y0015425D01*
X0366286Y0015061D01*
X0367359Y0014816D01*
X0368453Y0014693D01*
X0368602Y0014693D01*
X0368602Y0024094D01*
X0359201Y0024094D01*
X0359201Y0023946D01*
X0359324Y0022851D01*
X0359569Y0021778D01*
X0359933Y0020739D01*
X0360410Y0019747D01*
X0360996Y0018814D01*
X0361683Y0017953D01*
X0359519Y0021999D02*
X0351481Y0021999D01*
X0351692Y0025997D02*
X0359308Y0025997D01*
X0368602Y0021999D02*
X0369406Y0021999D01*
X0369406Y0024094D02*
X0369406Y0014693D01*
X0369554Y0014693D01*
X0370649Y0014816D01*
X0371722Y0015061D01*
X0372761Y0015425D01*
X0373753Y0015903D01*
X0374686Y0016488D01*
X0375547Y0017175D01*
X0376325Y0017953D01*
X0377012Y0018814D01*
X0377597Y0019747D01*
X0378075Y0020739D01*
X0378439Y0021778D01*
X0378684Y0022851D01*
X0378807Y0023946D01*
X0378807Y0024094D01*
X0369406Y0024094D01*
X0369406Y0018000D02*
X0368602Y0018000D01*
X0376362Y0018000D02*
X0391669Y0018000D01*
X0392341Y0021999D02*
X0378489Y0021999D01*
X0378700Y0025997D02*
X0394973Y0025997D01*
X0392194Y0029996D02*
X0409701Y0029996D01*
X0409701Y0033994D02*
X0399631Y0033994D01*
X0402678Y0037993D02*
X0409701Y0037993D01*
X0409701Y0041991D02*
X0402953Y0041991D01*
X0402953Y0045990D02*
X0409701Y0045990D01*
X0409701Y0049988D02*
X0401817Y0049988D01*
X0409701Y0061984D02*
X0327000Y0061984D01*
X0327000Y0065982D02*
X0409701Y0065982D01*
X0409701Y0069981D02*
X0340786Y0069981D01*
X0342953Y0073979D02*
X0409701Y0073979D01*
X0409701Y0077978D02*
X0342953Y0077978D01*
X0342953Y0081976D02*
X0409701Y0081976D01*
X0409701Y0085975D02*
X0371368Y0085975D01*
X0366906Y0085975D02*
X0366102Y0085975D01*
X0366102Y0089973D02*
X0366906Y0089973D01*
X0366906Y0093972D02*
X0366102Y0093972D01*
X0366102Y0097970D02*
X0366906Y0097970D01*
X0366906Y0101969D02*
X0366102Y0101969D01*
X0363676Y0105967D02*
X0409701Y0105967D01*
X0409701Y0109966D02*
X0363694Y0109966D01*
X0366102Y0113964D02*
X0366906Y0113964D01*
X0372773Y0113964D02*
X0409701Y0113964D01*
X0409701Y0117963D02*
X0375651Y0117963D01*
X0376307Y0121961D02*
X0409701Y0121961D01*
X0409701Y0125960D02*
X0375239Y0125960D01*
X0371475Y0129958D02*
X0409701Y0129958D01*
X0409701Y0133957D02*
X0359771Y0133957D01*
X0366102Y0129958D02*
X0366906Y0129958D01*
X0366906Y0125960D02*
X0366102Y0125960D01*
X0366102Y0121961D02*
X0366906Y0121961D01*
X0366906Y0117963D02*
X0366102Y0117963D01*
X0353000Y0108000D02*
X0353000Y0128000D01*
X0348000Y0133000D01*
X0333000Y0133000D01*
X0329805Y0123047D02*
X0329693Y0122054D01*
X0329693Y0121906D01*
X0339094Y0121906D01*
X0339094Y0121102D01*
X0329693Y0121102D01*
X0329693Y0120953D01*
X0329816Y0119859D01*
X0330061Y0118786D01*
X0330425Y0117747D01*
X0330903Y0116754D01*
X0331488Y0115822D01*
X0332175Y0114961D01*
X0332953Y0114183D01*
X0333814Y0113496D01*
X0334747Y0112910D01*
X0335739Y0112433D01*
X0336778Y0112069D01*
X0337851Y0111824D01*
X0338946Y0111701D01*
X0339094Y0111701D01*
X0339094Y0121102D01*
X0339898Y0121102D01*
X0339898Y0111701D01*
X0340047Y0111701D01*
X0341141Y0111824D01*
X0342214Y0112069D01*
X0342991Y0112341D01*
X0342900Y0112184D01*
X0342161Y0109427D01*
X0342161Y0106573D01*
X0342900Y0103816D01*
X0342991Y0103659D01*
X0342214Y0103931D01*
X0341141Y0104176D01*
X0340047Y0104299D01*
X0339898Y0104299D01*
X0339898Y0094898D01*
X0339094Y0094898D01*
X0339094Y0094094D01*
X0329693Y0094094D01*
X0329693Y0093946D01*
X0329816Y0092851D01*
X0330061Y0091778D01*
X0330425Y0090739D01*
X0330903Y0089747D01*
X0331488Y0088814D01*
X0332175Y0087953D01*
X0332176Y0087953D01*
X0328655Y0087953D01*
X0327000Y0087267D01*
X0327000Y0123733D01*
X0328655Y0123047D01*
X0329805Y0123047D01*
X0329693Y0121961D02*
X0327000Y0121961D01*
X0327000Y0117963D02*
X0330349Y0117963D01*
X0333227Y0113964D02*
X0327000Y0113964D01*
X0327000Y0109966D02*
X0342306Y0109966D01*
X0342324Y0105967D02*
X0327000Y0105967D01*
X0327000Y0101969D02*
X0333143Y0101969D01*
X0332953Y0101817D02*
X0332175Y0101039D01*
X0331488Y0100178D01*
X0330903Y0099245D01*
X0330425Y0098253D01*
X0330061Y0097214D01*
X0329816Y0096141D01*
X0329693Y0095047D01*
X0329693Y0094898D01*
X0339094Y0094898D01*
X0339094Y0104299D01*
X0338946Y0104299D01*
X0337851Y0104176D01*
X0336778Y0103931D01*
X0335739Y0103567D01*
X0334747Y0103090D01*
X0333814Y0102504D01*
X0332953Y0101817D01*
X0330326Y0097970D02*
X0327000Y0097970D01*
X0327000Y0093972D02*
X0329693Y0093972D01*
X0330793Y0089973D02*
X0327000Y0089973D01*
X0339094Y0097970D02*
X0339898Y0097970D01*
X0339898Y0101969D02*
X0339094Y0101969D01*
X0348666Y0097970D02*
X0348695Y0097970D01*
X0349299Y0093972D02*
X0356701Y0093972D01*
X0357305Y0097970D02*
X0357334Y0097970D01*
X0357801Y0089973D02*
X0348199Y0089973D01*
X0344360Y0085975D02*
X0361640Y0085975D01*
X0375207Y0089973D02*
X0409701Y0089973D01*
X0409701Y0093972D02*
X0376307Y0093972D01*
X0375674Y0097970D02*
X0409701Y0097970D01*
X0409701Y0101969D02*
X0372857Y0101969D01*
X0339898Y0113964D02*
X0339094Y0113964D01*
X0339094Y0117963D02*
X0339898Y0117963D01*
X0323000Y0143000D02*
X0373000Y0143000D01*
X0373000Y0163000D01*
X0373000Y0158000D01*
X0382338Y0157948D02*
X0409701Y0157948D01*
X0409701Y0153949D02*
X0382000Y0153949D01*
X0382000Y0149951D02*
X0409701Y0149951D01*
X0409701Y0145952D02*
X0382000Y0145952D01*
X0382000Y0141954D02*
X0409701Y0141954D01*
X0409701Y0137955D02*
X0380652Y0137955D01*
X0363000Y0153000D02*
X0363000Y0163000D01*
X0353000Y0163000D02*
X0353000Y0153000D01*
X0333000Y0163000D02*
X0323000Y0163000D01*
X0323000Y0183000D01*
X0333000Y0183000D02*
X0343000Y0173000D01*
X0378000Y0173000D01*
X0388000Y0183000D01*
X0388000Y0235500D01*
X0358000Y0235500D02*
X0358000Y0218000D01*
X0353000Y0213000D01*
X0173000Y0213000D01*
X0168000Y0218000D01*
X0148000Y0218000D01*
X0115500Y0200500D01*
X0115500Y0190500D01*
X0115500Y0185500D01*
X0118000Y0183000D01*
X0123000Y0183000D01*
X0103000Y0183000D02*
X0103000Y0203000D01*
X0133000Y0233000D01*
X0138000Y0233000D01*
X0178000Y0233000D01*
X0188000Y0223000D01*
X0343000Y0223000D01*
X0348000Y0228000D01*
X0348000Y0235500D01*
X0348000Y0233000D01*
X0338000Y0235500D02*
X0338000Y0243000D01*
X0333000Y0248000D01*
X0213000Y0248000D01*
X0203047Y0249914D02*
X0098000Y0249914D01*
X0098000Y0253912D02*
X0203696Y0253912D01*
X0204113Y0254918D02*
X0203047Y0252345D01*
X0203047Y0243655D01*
X0204113Y0241082D01*
X0206082Y0239113D01*
X0208655Y0238047D01*
X0217345Y0238047D01*
X0219645Y0239000D01*
X0290547Y0239000D01*
X0290547Y0232000D01*
X0191728Y0232000D01*
X0185630Y0238098D01*
X0183098Y0240630D01*
X0179790Y0242000D01*
X0144645Y0242000D01*
X0142345Y0242953D01*
X0133655Y0242953D01*
X0131355Y0242000D01*
X0131210Y0242000D01*
X0127902Y0240630D01*
X0125370Y0238098D01*
X0098000Y0210728D01*
X0098000Y0280961D01*
X0287716Y0280961D01*
X0287300Y0279409D01*
X0287300Y0277953D01*
X0283655Y0277953D01*
X0283507Y0277892D01*
X0282642Y0278250D01*
X0273358Y0278250D01*
X0270785Y0277184D01*
X0268816Y0275215D01*
X0268416Y0274250D01*
X0268000Y0274250D01*
X0268000Y0273246D01*
X0268000Y0273246D01*
X0268000Y0274250D01*
X0267508Y0274250D01*
X0266536Y0274096D01*
X0265601Y0273792D01*
X0264724Y0273345D01*
X0263928Y0272767D01*
X0263233Y0272072D01*
X0262655Y0271276D01*
X0262208Y0270399D01*
X0261904Y0269464D01*
X0261750Y0268492D01*
X0261750Y0268000D01*
X0267750Y0268000D01*
X0267750Y0268000D01*
X0261750Y0268000D01*
X0261750Y0267508D01*
X0261904Y0266536D01*
X0262208Y0265601D01*
X0262655Y0264724D01*
X0263233Y0263928D01*
X0263928Y0263233D01*
X0264724Y0262655D01*
X0265601Y0262208D01*
X0266536Y0261904D01*
X0267508Y0261750D01*
X0268000Y0261750D01*
X0268416Y0261750D01*
X0268816Y0260785D01*
X0270785Y0258816D01*
X0273358Y0257750D01*
X0282642Y0257750D01*
X0283507Y0258108D01*
X0283655Y0258047D01*
X0292345Y0258047D01*
X0294918Y0259113D01*
X0296887Y0261082D01*
X0297953Y0263655D01*
X0297953Y0267300D01*
X0299409Y0267300D01*
X0302130Y0268029D01*
X0302400Y0268185D01*
X0302400Y0265500D01*
X0308000Y0265500D01*
X0308000Y0278000D01*
X0308700Y0278000D02*
X0314700Y0278000D01*
X0314700Y0278439D01*
X0314585Y0279310D01*
X0314358Y0280158D01*
X0314026Y0280961D01*
X0327716Y0280961D01*
X0327300Y0279409D01*
X0327300Y0277700D01*
X0326090Y0277700D01*
X0323000Y0276420D01*
X0319910Y0277700D01*
X0316090Y0277700D01*
X0314639Y0277099D01*
X0314700Y0277561D01*
X0314700Y0278000D01*
X0308700Y0278000D01*
X0308700Y0278000D01*
X0314700Y0277903D02*
X0327300Y0277903D01*
X0338000Y0278000D02*
X0338000Y0265500D01*
X0348000Y0265500D02*
X0348000Y0278000D01*
X0358000Y0278000D02*
X0358000Y0265500D01*
X0368000Y0265500D02*
X0368000Y0278000D01*
X0378000Y0278000D02*
X0378000Y0265500D01*
X0388000Y0265500D02*
X0388000Y0278000D01*
X0310324Y0257000D02*
X0219645Y0257000D01*
X0217345Y0257953D01*
X0208655Y0257953D01*
X0206082Y0256887D01*
X0204113Y0254918D01*
X0208553Y0257911D02*
X0098000Y0257911D01*
X0098000Y0261909D02*
X0266520Y0261909D01*
X0268000Y0261909D02*
X0268000Y0261909D01*
X0268000Y0261750D02*
X0268000Y0262754D01*
X0268000Y0262754D01*
X0268000Y0261750D01*
X0272970Y0257911D02*
X0217447Y0257911D01*
X0203047Y0245915D02*
X0098000Y0245915D01*
X0098000Y0241917D02*
X0131009Y0241917D01*
X0125190Y0237918D02*
X0098000Y0237918D01*
X0098000Y0233920D02*
X0121192Y0233920D01*
X0117193Y0229921D02*
X0098000Y0229921D01*
X0098000Y0225923D02*
X0113195Y0225923D01*
X0109196Y0221924D02*
X0098000Y0221924D01*
X0098000Y0217926D02*
X0105198Y0217926D01*
X0101199Y0213927D02*
X0098000Y0213927D01*
X0078000Y0223000D02*
X0078000Y0233000D01*
X0073000Y0243000D02*
X0068000Y0238000D01*
X0073000Y0243000D02*
X0078000Y0243000D01*
X0088000Y0258000D02*
X0083000Y0263000D01*
X0078000Y0263000D01*
X0098000Y0265908D02*
X0262108Y0265908D01*
X0262048Y0269906D02*
X0098000Y0269906D01*
X0098000Y0273905D02*
X0265947Y0273905D01*
X0268000Y0273905D02*
X0268000Y0273905D01*
X0272520Y0277903D02*
X0098000Y0277903D01*
X0058000Y0223000D02*
X0058000Y0213000D01*
X0098000Y0183000D02*
X0103000Y0183000D01*
X0108000Y0153000D02*
X0078000Y0153000D01*
X0153000Y0158000D02*
X0153000Y0163000D01*
X0232768Y0125960D02*
X0255761Y0125960D01*
X0254693Y0121961D02*
X0236767Y0121961D01*
X0240765Y0117963D02*
X0255349Y0117963D01*
X0291102Y0101969D02*
X0291906Y0101969D01*
X0291906Y0097970D02*
X0291102Y0097970D01*
X0297857Y0101969D02*
X0299000Y0101969D01*
X0307953Y0073979D02*
X0309000Y0073979D01*
X0309000Y0069981D02*
X0305786Y0069981D01*
X0327000Y0057985D02*
X0334626Y0057985D01*
X0332507Y0053987D02*
X0326079Y0053987D01*
X0322716Y0049988D02*
X0332302Y0049988D01*
X0333883Y0045990D02*
X0318717Y0045990D01*
X0323000Y0143000D02*
X0313000Y0153000D01*
X0303000Y0163000D01*
X0333000Y0183000D02*
X0343000Y0183000D01*
X0290547Y0233920D02*
X0189808Y0233920D01*
X0185810Y0237918D02*
X0290547Y0237918D01*
X0300500Y0235500D02*
X0308000Y0235500D01*
X0310324Y0257000D02*
X0309862Y0257462D01*
X0309805Y0257598D01*
X0309311Y0257438D01*
X0308441Y0257300D01*
X0308000Y0257300D01*
X0308000Y0265500D01*
X0308000Y0265500D01*
X0308000Y0265500D01*
X0308000Y0257300D01*
X0307559Y0257300D01*
X0306689Y0257438D01*
X0305850Y0257710D01*
X0305065Y0258110D01*
X0304352Y0258629D01*
X0303729Y0259252D01*
X0303210Y0259965D01*
X0302810Y0260750D01*
X0302538Y0261589D01*
X0302400Y0262459D01*
X0302400Y0265500D01*
X0308000Y0265500D01*
X0308000Y0261909D02*
X0308000Y0261909D01*
X0308000Y0257911D02*
X0308000Y0257911D01*
X0305457Y0257911D02*
X0283030Y0257911D01*
X0297230Y0261909D02*
X0302487Y0261909D01*
X0302400Y0265908D02*
X0297953Y0265908D01*
X0283535Y0277903D02*
X0283480Y0277903D01*
X0275500Y0235500D02*
X0273000Y0233000D01*
X0263000Y0193000D02*
X0263000Y0183000D01*
X0185630Y0238098D02*
X0185630Y0238098D01*
X0179991Y0241917D02*
X0203767Y0241917D01*
D19*
X0213000Y0248000D03*
X0275500Y0235500D03*
X0300500Y0235500D03*
X0288000Y0268000D03*
X0263000Y0193000D03*
X0253000Y0183000D03*
X0233000Y0153000D03*
X0223000Y0153000D03*
X0213000Y0153000D03*
X0243000Y0123000D03*
X0238000Y0093000D03*
X0263000Y0078000D03*
X0298000Y0078000D03*
X0333000Y0078000D03*
X0393000Y0043000D03*
X0333000Y0133000D03*
X0313000Y0153000D03*
X0353000Y0153000D03*
X0363000Y0153000D03*
X0343000Y0183000D03*
X0323000Y0183000D03*
X0193000Y0193000D03*
X0183000Y0193000D03*
X0148000Y0218000D03*
X0138000Y0233000D03*
X0115500Y0190500D03*
X0098000Y0183000D03*
X0098000Y0163000D03*
X0108000Y0153000D03*
X0048000Y0173000D03*
X0070500Y0200500D03*
X0058000Y0213000D03*
X0048000Y0228000D03*
X0033000Y0233000D03*
X0078000Y0233000D03*
X0045500Y0105500D03*
X0108000Y0048000D03*
X0203000Y0073000D03*
M02*
