G75*
%MOIN*%
%OFA0B0*%
%FSLAX25Y25*%
%IPPOS*%
%LPD*%
%AMOC8*
5,1,8,0,0,1.08239X$1,22.5*
%
%ADD10C,0.09461*%
%ADD11R,0.05524X0.06312*%
%ADD12R,0.04068X0.03280*%
%ADD13C,0.06000*%
%ADD14C,0.08200*%
%ADD15C,0.05950*%
%ADD16R,0.04737X0.05131*%
%ADD17R,0.05131X0.04737*%
%ADD18C,0.08477*%
%ADD19C,0.14406*%
%ADD20C,0.07300*%
%ADD21R,0.07300X0.07300*%
%ADD22C,0.00500*%
%ADD23R,0.08200X0.08200*%
%ADD24R,0.06706X0.06706*%
D10*
X0023000Y0018000D03*
X0023000Y0263000D03*
X0393000Y0018000D03*
X0398000Y0263000D03*
D11*
X0276406Y0123000D03*
X0264594Y0123000D03*
X0191406Y0123000D03*
X0179594Y0123000D03*
X0179594Y0058000D03*
X0191406Y0058000D03*
X0123906Y0038000D03*
X0112094Y0038000D03*
X0048906Y0038000D03*
X0037094Y0038000D03*
X0264594Y0058000D03*
X0276406Y0058000D03*
D12*
X0263000Y0088472D03*
X0263000Y0097528D03*
X0263000Y0143472D03*
X0263000Y0152528D03*
X0178000Y0153472D03*
X0178000Y0162528D03*
X0178000Y0092528D03*
X0178000Y0083472D03*
X0088000Y0087528D03*
X0088000Y0078472D03*
X0013000Y0078472D03*
X0013000Y0087528D03*
D13*
X0188000Y0210400D02*
X0188000Y0215600D01*
X0198000Y0215600D02*
X0198000Y0210400D01*
X0208000Y0210400D02*
X0208000Y0215600D01*
X0218000Y0215600D02*
X0218000Y0210400D01*
X0228000Y0210400D02*
X0228000Y0215600D01*
X0238000Y0215600D02*
X0238000Y0210400D01*
X0248000Y0210400D02*
X0248000Y0215600D01*
X0258000Y0215600D02*
X0258000Y0210400D01*
X0268000Y0210400D02*
X0268000Y0215600D01*
X0268000Y0240400D02*
X0268000Y0245600D01*
X0258000Y0245600D02*
X0258000Y0240400D01*
X0248000Y0240400D02*
X0248000Y0245600D01*
X0238000Y0245600D02*
X0238000Y0240400D01*
X0228000Y0240400D02*
X0228000Y0245600D01*
X0218000Y0245600D02*
X0218000Y0240400D01*
X0208000Y0240400D02*
X0208000Y0245600D01*
X0198000Y0245600D02*
X0198000Y0240400D01*
X0188000Y0240400D02*
X0188000Y0245600D01*
D14*
X0183000Y0263000D03*
X0193000Y0263000D03*
X0228000Y0263000D03*
X0238000Y0263000D03*
X0248000Y0263000D03*
X0258000Y0263000D03*
X0268000Y0263000D03*
X0263000Y0038000D03*
X0253000Y0038000D03*
X0243000Y0038000D03*
D15*
X0228000Y0070425D02*
X0228000Y0075575D01*
X0218000Y0075575D02*
X0218000Y0070425D01*
X0208000Y0070425D02*
X0208000Y0075575D01*
X0208000Y0090425D02*
X0208000Y0095575D01*
X0218000Y0095575D02*
X0218000Y0090425D01*
X0228000Y0090425D02*
X0228000Y0095575D01*
X0188000Y0095575D02*
X0188000Y0090425D01*
X0188000Y0075575D02*
X0188000Y0070425D01*
X0143000Y0075425D02*
X0143000Y0080575D01*
X0133000Y0080575D02*
X0133000Y0075425D01*
X0123000Y0075425D02*
X0123000Y0080575D01*
X0103000Y0080575D02*
X0103000Y0075425D01*
X0103000Y0060575D02*
X0103000Y0055425D01*
X0123000Y0055425D02*
X0123000Y0060575D01*
X0133000Y0060575D02*
X0133000Y0055425D01*
X0143000Y0055425D02*
X0143000Y0060575D01*
X0068000Y0060575D02*
X0068000Y0055425D01*
X0058000Y0055425D02*
X0058000Y0060575D01*
X0048000Y0060575D02*
X0048000Y0055425D01*
X0028000Y0055425D02*
X0028000Y0060575D01*
X0028000Y0075425D02*
X0028000Y0080575D01*
X0048000Y0080575D02*
X0048000Y0075425D01*
X0058000Y0075425D02*
X0058000Y0080575D01*
X0068000Y0080575D02*
X0068000Y0075425D01*
X0188000Y0135425D02*
X0188000Y0140575D01*
X0188000Y0155425D02*
X0188000Y0160575D01*
X0208000Y0160575D02*
X0208000Y0155425D01*
X0218000Y0155425D02*
X0218000Y0160575D01*
X0228000Y0160575D02*
X0228000Y0155425D01*
X0228000Y0140575D02*
X0228000Y0135425D01*
X0218000Y0135425D02*
X0218000Y0140575D01*
X0208000Y0140575D02*
X0208000Y0135425D01*
X0273000Y0135425D02*
X0273000Y0140575D01*
X0293000Y0140575D02*
X0293000Y0135425D01*
X0303000Y0135425D02*
X0303000Y0140575D01*
X0313000Y0140575D02*
X0313000Y0135425D01*
X0313000Y0155425D02*
X0313000Y0160575D01*
X0303000Y0160575D02*
X0303000Y0155425D01*
X0293000Y0155425D02*
X0293000Y0160575D01*
X0273000Y0160575D02*
X0273000Y0155425D01*
X0273000Y0095575D02*
X0273000Y0090425D01*
X0293000Y0090425D02*
X0293000Y0095575D01*
X0303000Y0095575D02*
X0303000Y0090425D01*
X0313000Y0090425D02*
X0313000Y0095575D01*
X0313000Y0075575D02*
X0313000Y0070425D01*
X0303000Y0070425D02*
X0303000Y0075575D01*
X0293000Y0075575D02*
X0293000Y0070425D01*
X0273000Y0070425D02*
X0273000Y0075575D01*
D16*
X0253000Y0089654D03*
X0253000Y0096346D03*
X0253000Y0149654D03*
X0253000Y0156346D03*
X0168000Y0154654D03*
X0168000Y0161346D03*
X0155500Y0098846D03*
X0155500Y0092154D03*
D17*
X0096346Y0038000D03*
X0089654Y0038000D03*
X0021346Y0038000D03*
X0014654Y0038000D03*
D18*
X0038000Y0138000D03*
X0038000Y0198000D03*
X0138000Y0198000D03*
X0138000Y0138000D03*
X0363000Y0118000D03*
X0363000Y0183000D03*
X0363000Y0248000D03*
X0363000Y0053000D03*
D19*
X0349496Y0039496D03*
X0376504Y0039496D03*
X0376504Y0066504D03*
X0349496Y0066504D03*
X0349496Y0104496D03*
X0376504Y0104496D03*
X0376504Y0131504D03*
X0349496Y0131504D03*
X0349496Y0169496D03*
X0376504Y0169496D03*
X0376504Y0196504D03*
X0349496Y0196504D03*
X0349496Y0234496D03*
X0376504Y0234496D03*
X0376504Y0261504D03*
X0349496Y0261504D03*
X0151504Y0211504D03*
X0124496Y0211504D03*
X0124496Y0184496D03*
X0151504Y0184496D03*
X0151504Y0151504D03*
X0124496Y0151504D03*
X0124496Y0124496D03*
X0151504Y0124496D03*
X0051504Y0124496D03*
X0024496Y0124496D03*
X0024496Y0151504D03*
X0051504Y0151504D03*
X0051504Y0184496D03*
X0024496Y0184496D03*
X0024496Y0211504D03*
X0051504Y0211504D03*
D20*
X0153000Y0263000D03*
D21*
X0163000Y0263000D03*
D22*
X0174410Y0244862D02*
X0174749Y0245068D01*
X0175126Y0245192D01*
X0175520Y0245230D01*
X0175904Y0245183D01*
X0176267Y0245053D01*
X0176592Y0244844D01*
X0176863Y0244569D01*
X0177066Y0244240D01*
X0177190Y0243874D01*
X0177230Y0243490D01*
X0177196Y0243109D01*
X0177078Y0242744D01*
X0176882Y0242415D01*
X0176618Y0242138D01*
X0176298Y0241927D01*
X0175940Y0241792D01*
X0175560Y0241740D01*
X0175160Y0241775D01*
X0174777Y0241898D01*
X0174431Y0242104D01*
X0174140Y0242381D01*
X0173918Y0242716D01*
X0173775Y0243092D01*
X0173720Y0243490D01*
X0173772Y0243883D01*
X0173909Y0244255D01*
X0174125Y0244587D01*
X0174410Y0244862D01*
X0174369Y0244823D02*
X0176614Y0244823D01*
X0177014Y0244324D02*
X0173954Y0244324D01*
X0173764Y0243826D02*
X0177195Y0243826D01*
X0177216Y0243327D02*
X0173743Y0243327D01*
X0173875Y0242829D02*
X0177106Y0242829D01*
X0176801Y0242330D02*
X0174193Y0242330D01*
X0174985Y0241832D02*
X0176045Y0241832D01*
X0175520Y0234210D02*
X0175904Y0234163D01*
X0176267Y0234033D01*
X0176592Y0233824D01*
X0176863Y0233549D01*
X0177066Y0233220D01*
X0177190Y0232854D01*
X0177230Y0232470D01*
X0177196Y0232089D01*
X0177078Y0231724D01*
X0176882Y0231395D01*
X0176618Y0231118D01*
X0176298Y0230907D01*
X0175940Y0230772D01*
X0175560Y0230720D01*
X0175160Y0230755D01*
X0174777Y0230878D01*
X0174431Y0231084D01*
X0174140Y0231361D01*
X0173918Y0231696D01*
X0173775Y0232072D01*
X0173720Y0232470D01*
X0173772Y0232863D01*
X0173909Y0233235D01*
X0174125Y0233567D01*
X0174410Y0233842D01*
X0174749Y0234048D01*
X0175126Y0234172D01*
X0175520Y0234210D01*
X0176544Y0233855D02*
X0174432Y0233855D01*
X0173988Y0233357D02*
X0176982Y0233357D01*
X0177189Y0232858D02*
X0173771Y0232858D01*
X0173736Y0232360D02*
X0177221Y0232360D01*
X0177123Y0231861D02*
X0173855Y0231861D01*
X0174139Y0231363D02*
X0176851Y0231363D01*
X0176186Y0230864D02*
X0174821Y0230864D01*
D23*
X0233000Y0038000D03*
D24*
X0228000Y0058000D03*
X0235500Y0080500D03*
X0268000Y0103000D03*
X0278000Y0113000D03*
X0313000Y0113000D03*
X0323000Y0083000D03*
X0280500Y0073000D03*
X0235500Y0113000D03*
X0208000Y0128000D03*
X0198000Y0135500D03*
X0218000Y0148000D03*
X0235500Y0140500D03*
X0262500Y0161500D03*
X0280500Y0145500D03*
X0308000Y0148000D03*
X0363000Y0128000D03*
X0383000Y0183000D03*
X0323000Y0248000D03*
X0183000Y0168000D03*
X0108000Y0168000D03*
X0108000Y0118000D03*
X0098000Y0098000D03*
X0118000Y0088000D03*
X0128000Y0088000D03*
X0123000Y0068000D03*
X0110500Y0058000D03*
X0088000Y0063000D03*
X0048000Y0085500D03*
X0013000Y0098000D03*
X0013000Y0063000D03*
X0035500Y0058000D03*
X0078000Y0108000D03*
X0173000Y0113000D03*
X0198000Y0098000D03*
X0178000Y0078000D03*
X0078000Y0228000D03*
X0163000Y0233000D03*
M02*
