G75*
%MOIN*%
%OFA0B0*%
%FSLAX25Y25*%
%IPPOS*%
%LPD*%
%AMOC8*
5,1,8,0,0,1.08239X$1,22.5*
%
%ADD10C,0.00900*%
%ADD11R,0.05512X0.04724*%
%ADD12R,0.03268X0.02480*%
%ADD13R,0.04724X0.05512*%
%ADD14R,0.02480X0.03268*%
%ADD15C,0.05200*%
%ADD16C,0.07400*%
%ADD17C,0.05150*%
%ADD18R,0.03937X0.04331*%
%ADD19C,0.07677*%
%ADD20C,0.13606*%
%ADD21C,0.06500*%
%ADD22R,0.06500X0.06500*%
%ADD23R,0.04331X0.03937*%
%ADD24R,0.07400X0.07400*%
%ADD25C,0.04000*%
%ADD26R,0.05906X0.05906*%
D10*
X0035950Y0018450D02*
X0035950Y0023554D01*
X0038502Y0023554D01*
X0039353Y0022704D01*
X0039353Y0021853D01*
X0038502Y0021002D01*
X0035950Y0021002D01*
X0035950Y0018450D02*
X0038502Y0018450D01*
X0039353Y0019301D01*
X0039353Y0020151D01*
X0038502Y0021002D01*
X0118450Y0021002D02*
X0121002Y0021002D01*
X0121853Y0020151D01*
X0121853Y0019301D01*
X0121002Y0018450D01*
X0118450Y0018450D01*
X0118450Y0023554D01*
X0121002Y0023554D01*
X0121853Y0022704D01*
X0121853Y0021853D01*
X0121002Y0021002D01*
X0122550Y0083450D02*
X0122550Y0086853D01*
X0120849Y0088554D01*
X0119147Y0086853D01*
X0119147Y0083450D01*
X0119147Y0086002D02*
X0122550Y0086002D01*
X0040050Y0086002D02*
X0036647Y0086002D01*
X0036647Y0086853D02*
X0036647Y0083450D01*
X0036647Y0086853D02*
X0038349Y0088554D01*
X0040050Y0086853D01*
X0040050Y0083450D01*
X0222446Y0083952D02*
X0227550Y0083952D01*
X0225849Y0082250D01*
X0227550Y0080549D01*
X0222446Y0080549D01*
X0223296Y0072902D02*
X0222446Y0072052D01*
X0222446Y0070350D01*
X0223296Y0069499D01*
X0226699Y0069499D01*
X0227550Y0070350D01*
X0227550Y0072052D01*
X0226699Y0072902D01*
X0224998Y0072902D01*
X0224998Y0071201D01*
X0224998Y0061853D02*
X0225849Y0061002D01*
X0225849Y0058450D01*
X0227550Y0058450D02*
X0222446Y0058450D01*
X0222446Y0061002D01*
X0223296Y0061853D01*
X0224998Y0061853D01*
X0225849Y0060151D02*
X0227550Y0061853D01*
X0227550Y0091598D02*
X0222446Y0091598D01*
X0222446Y0094150D01*
X0223296Y0095001D01*
X0224147Y0095001D01*
X0224998Y0094150D01*
X0224998Y0091598D01*
X0227550Y0091598D02*
X0227550Y0094150D01*
X0226699Y0095001D01*
X0225849Y0095001D01*
X0224998Y0094150D01*
X0250950Y0130950D02*
X0250950Y0136054D01*
X0253502Y0136054D01*
X0254353Y0135204D01*
X0254353Y0133502D01*
X0253502Y0132651D01*
X0250950Y0132651D01*
X0252651Y0132651D02*
X0254353Y0130950D01*
X0318450Y0122704D02*
X0318450Y0119301D01*
X0319301Y0118450D01*
X0321002Y0118450D01*
X0321853Y0119301D01*
X0321853Y0121002D01*
X0320151Y0121002D01*
X0318450Y0122704D02*
X0319301Y0123554D01*
X0321002Y0123554D01*
X0321853Y0122704D01*
X0323450Y0023554D02*
X0326002Y0023554D01*
X0326853Y0022704D01*
X0326853Y0021853D01*
X0326002Y0021002D01*
X0323450Y0021002D01*
X0323450Y0018450D02*
X0326002Y0018450D01*
X0326853Y0019301D01*
X0326853Y0020151D01*
X0326002Y0021002D01*
X0323450Y0018450D02*
X0323450Y0023554D01*
X0246853Y0023554D02*
X0246853Y0018450D01*
X0245151Y0020151D01*
X0243450Y0018450D01*
X0243450Y0023554D01*
D11*
X0165500Y0197094D03*
X0165500Y0208906D03*
X0108000Y0213906D03*
X0108000Y0202094D03*
X0108000Y0252094D03*
X0108000Y0263906D03*
D12*
X0098000Y0237528D03*
X0098000Y0228472D03*
X0098000Y0202528D03*
X0098000Y0193472D03*
X0193000Y0203472D03*
X0193000Y0212528D03*
X0263000Y0212528D03*
X0263000Y0203472D03*
X0333000Y0203472D03*
X0333000Y0212528D03*
D13*
X0303906Y0198000D03*
X0292094Y0198000D03*
X0233906Y0195500D03*
X0222094Y0195500D03*
X0362094Y0198000D03*
X0373906Y0198000D03*
D14*
X0132528Y0193000D03*
X0123472Y0193000D03*
D15*
X0308000Y0232900D02*
X0308000Y0238100D01*
X0318000Y0238100D02*
X0318000Y0232900D01*
X0328000Y0232900D02*
X0328000Y0238100D01*
X0338000Y0238100D02*
X0338000Y0232900D01*
X0348000Y0232900D02*
X0348000Y0238100D01*
X0358000Y0238100D02*
X0358000Y0232900D01*
X0368000Y0232900D02*
X0368000Y0238100D01*
X0378000Y0238100D02*
X0378000Y0232900D01*
X0388000Y0232900D02*
X0388000Y0238100D01*
X0388000Y0262900D02*
X0388000Y0268100D01*
X0378000Y0268100D02*
X0378000Y0262900D01*
X0368000Y0262900D02*
X0368000Y0268100D01*
X0358000Y0268100D02*
X0358000Y0262900D01*
X0348000Y0262900D02*
X0348000Y0268100D01*
X0338000Y0268100D02*
X0338000Y0262900D01*
X0328000Y0262900D02*
X0328000Y0268100D01*
X0318000Y0268100D02*
X0318000Y0262900D01*
X0308000Y0262900D02*
X0308000Y0268100D01*
D16*
X0308000Y0278000D03*
X0298000Y0278000D03*
X0338000Y0278000D03*
X0348000Y0278000D03*
X0358000Y0278000D03*
X0368000Y0278000D03*
X0378000Y0278000D03*
X0388000Y0278000D03*
X0213000Y0093000D03*
X0213000Y0083000D03*
X0213000Y0073000D03*
D17*
X0213000Y0160425D02*
X0213000Y0165575D01*
X0223000Y0165575D02*
X0223000Y0160425D01*
X0233000Y0160425D02*
X0233000Y0165575D01*
X0233000Y0180425D02*
X0233000Y0185575D01*
X0223000Y0185575D02*
X0223000Y0180425D01*
X0213000Y0180425D02*
X0213000Y0185575D01*
X0193000Y0185575D02*
X0193000Y0180425D01*
X0193000Y0165575D02*
X0193000Y0160425D01*
X0163000Y0160425D02*
X0163000Y0165575D01*
X0153000Y0165575D02*
X0153000Y0160425D01*
X0143000Y0160425D02*
X0143000Y0165575D01*
X0123000Y0165575D02*
X0123000Y0160425D01*
X0123000Y0180425D02*
X0123000Y0185575D01*
X0143000Y0185575D02*
X0143000Y0180425D01*
X0153000Y0180425D02*
X0153000Y0185575D01*
X0163000Y0185575D02*
X0163000Y0180425D01*
X0080575Y0183000D02*
X0075425Y0183000D01*
X0075425Y0173000D02*
X0080575Y0173000D01*
X0060575Y0173000D02*
X0055425Y0173000D01*
X0055425Y0183000D02*
X0060575Y0183000D01*
X0060575Y0193000D02*
X0055425Y0193000D01*
X0075425Y0193000D02*
X0080575Y0193000D01*
X0080575Y0223000D02*
X0075425Y0223000D01*
X0060575Y0223000D02*
X0055425Y0223000D01*
X0055425Y0243000D02*
X0060575Y0243000D01*
X0075425Y0243000D02*
X0080575Y0243000D01*
X0080575Y0253000D02*
X0075425Y0253000D01*
X0075425Y0263000D02*
X0080575Y0263000D01*
X0060575Y0263000D02*
X0055425Y0263000D01*
X0055425Y0253000D02*
X0060575Y0253000D01*
X0060575Y0153000D02*
X0055425Y0153000D01*
X0075425Y0153000D02*
X0080575Y0153000D01*
X0263000Y0160425D02*
X0263000Y0165575D01*
X0263000Y0180425D02*
X0263000Y0185575D01*
X0283000Y0185575D02*
X0283000Y0180425D01*
X0293000Y0180425D02*
X0293000Y0185575D01*
X0303000Y0185575D02*
X0303000Y0180425D01*
X0303000Y0165575D02*
X0303000Y0160425D01*
X0293000Y0160425D02*
X0293000Y0165575D01*
X0283000Y0165575D02*
X0283000Y0160425D01*
X0333000Y0160425D02*
X0333000Y0165575D01*
X0353000Y0165575D02*
X0353000Y0160425D01*
X0363000Y0160425D02*
X0363000Y0165575D01*
X0373000Y0165575D02*
X0373000Y0160425D01*
X0373000Y0180425D02*
X0373000Y0185575D01*
X0363000Y0185575D02*
X0363000Y0180425D01*
X0353000Y0180425D02*
X0353000Y0185575D01*
X0333000Y0185575D02*
X0333000Y0180425D01*
D18*
X0348000Y0202154D03*
X0348000Y0208846D03*
X0278000Y0208846D03*
X0278000Y0202154D03*
X0208000Y0202154D03*
X0208000Y0208846D03*
X0148000Y0211346D03*
X0148000Y0204654D03*
X0125500Y0229654D03*
X0125500Y0236346D03*
X0123000Y0254654D03*
X0123000Y0261346D03*
D19*
X0148000Y0105500D03*
X0068000Y0105500D03*
X0068000Y0038000D03*
X0148000Y0038000D03*
X0278000Y0038000D03*
X0355500Y0038000D03*
X0353000Y0108000D03*
X0278000Y0108000D03*
D20*
X0264496Y0094496D03*
X0291504Y0094496D03*
X0291504Y0121504D03*
X0264496Y0121504D03*
X0339496Y0121504D03*
X0366504Y0121504D03*
X0366504Y0094496D03*
X0339496Y0094496D03*
X0341996Y0051504D03*
X0369004Y0051504D03*
X0369004Y0024496D03*
X0341996Y0024496D03*
X0291504Y0024496D03*
X0264496Y0024496D03*
X0264496Y0051504D03*
X0291504Y0051504D03*
X0161504Y0051504D03*
X0134496Y0051504D03*
X0134496Y0024496D03*
X0161504Y0024496D03*
X0081504Y0024496D03*
X0054496Y0024496D03*
X0054496Y0051504D03*
X0081504Y0051504D03*
X0081504Y0091996D03*
X0054496Y0091996D03*
X0054496Y0119004D03*
X0081504Y0119004D03*
X0134496Y0119004D03*
X0161504Y0119004D03*
X0161504Y0091996D03*
X0134496Y0091996D03*
D21*
X0268000Y0268000D03*
D22*
X0278000Y0268000D03*
D23*
X0287154Y0235500D03*
X0293846Y0235500D03*
D24*
X0213000Y0063000D03*
D25*
X0027067Y0011043D02*
X0026024Y0010000D01*
X0394976Y0010000D01*
X0393933Y0011043D01*
X0392441Y0013627D01*
X0391669Y0016508D01*
X0391669Y0019492D01*
X0392441Y0022373D01*
X0393933Y0024957D01*
X0396043Y0027067D01*
X0398627Y0028559D01*
X0401508Y0029331D01*
X0404492Y0029331D01*
X0407373Y0028559D01*
X0409701Y0027215D01*
X0409701Y0168000D01*
X0382359Y0168000D01*
X0382575Y0167479D01*
X0382575Y0158521D01*
X0381945Y0157000D01*
X0384790Y0157000D01*
X0388098Y0155630D01*
X0398098Y0145630D01*
X0400630Y0143098D01*
X0402000Y0139790D01*
X0402000Y0049645D01*
X0402953Y0047345D01*
X0402953Y0038655D01*
X0401887Y0036082D01*
X0399918Y0034113D01*
X0397345Y0033047D01*
X0388655Y0033047D01*
X0386082Y0034113D01*
X0384113Y0036082D01*
X0383047Y0038655D01*
X0383047Y0047345D01*
X0384000Y0049645D01*
X0384000Y0071272D01*
X0375630Y0062902D01*
X0373127Y0060399D01*
X0373753Y0060097D01*
X0374686Y0059512D01*
X0375547Y0058825D01*
X0376325Y0058047D01*
X0377012Y0057186D01*
X0377597Y0056253D01*
X0378075Y0055261D01*
X0378439Y0054222D01*
X0378684Y0053149D01*
X0378807Y0052054D01*
X0378807Y0051906D01*
X0369406Y0051906D01*
X0369406Y0051102D01*
X0378807Y0051102D01*
X0378807Y0050953D01*
X0378684Y0049859D01*
X0378439Y0048786D01*
X0378075Y0047747D01*
X0377597Y0046754D01*
X0377012Y0045822D01*
X0376325Y0044961D01*
X0375547Y0044183D01*
X0374686Y0043496D01*
X0373753Y0042910D01*
X0372761Y0042433D01*
X0371722Y0042069D01*
X0370649Y0041824D01*
X0369554Y0041701D01*
X0369406Y0041701D01*
X0369406Y0051102D01*
X0368602Y0051102D01*
X0368602Y0041701D01*
X0368453Y0041701D01*
X0367359Y0041824D01*
X0366286Y0042069D01*
X0365509Y0042341D01*
X0365600Y0042184D01*
X0366339Y0039427D01*
X0366339Y0036573D01*
X0365600Y0033816D01*
X0365509Y0033659D01*
X0366286Y0033931D01*
X0367359Y0034176D01*
X0368453Y0034299D01*
X0368602Y0034299D01*
X0368602Y0024898D01*
X0369406Y0024898D01*
X0378807Y0024898D01*
X0378807Y0025047D01*
X0378684Y0026141D01*
X0378439Y0027214D01*
X0378075Y0028253D01*
X0377597Y0029245D01*
X0377012Y0030178D01*
X0376325Y0031039D01*
X0375547Y0031817D01*
X0374686Y0032504D01*
X0373753Y0033090D01*
X0372761Y0033567D01*
X0371722Y0033931D01*
X0370649Y0034176D01*
X0369554Y0034299D01*
X0369406Y0034299D01*
X0369406Y0024898D01*
X0369406Y0024094D01*
X0378807Y0024094D01*
X0378807Y0023946D01*
X0378684Y0022851D01*
X0378439Y0021778D01*
X0378075Y0020739D01*
X0377597Y0019747D01*
X0377012Y0018814D01*
X0376325Y0017953D01*
X0375547Y0017175D01*
X0374686Y0016488D01*
X0373753Y0015903D01*
X0372761Y0015425D01*
X0371722Y0015061D01*
X0370649Y0014816D01*
X0369554Y0014693D01*
X0369406Y0014693D01*
X0369406Y0024094D01*
X0368602Y0024094D01*
X0368602Y0014693D01*
X0368453Y0014693D01*
X0367359Y0014816D01*
X0366286Y0015061D01*
X0365247Y0015425D01*
X0364254Y0015903D01*
X0363322Y0016488D01*
X0362461Y0017175D01*
X0361683Y0017953D01*
X0360996Y0018814D01*
X0360410Y0019747D01*
X0359933Y0020739D01*
X0359569Y0021778D01*
X0359324Y0022851D01*
X0359201Y0023946D01*
X0359201Y0024094D01*
X0368602Y0024094D01*
X0368602Y0024898D01*
X0359201Y0024898D01*
X0359201Y0025047D01*
X0359324Y0026141D01*
X0359569Y0027214D01*
X0359841Y0027991D01*
X0359684Y0027900D01*
X0356927Y0027161D01*
X0354073Y0027161D01*
X0351316Y0027900D01*
X0351159Y0027991D01*
X0351431Y0027214D01*
X0351676Y0026141D01*
X0351799Y0025047D01*
X0351799Y0024898D01*
X0342398Y0024898D01*
X0342398Y0024094D01*
X0342398Y0014693D01*
X0342547Y0014693D01*
X0343641Y0014816D01*
X0344714Y0015061D01*
X0345753Y0015425D01*
X0346745Y0015903D01*
X0347678Y0016488D01*
X0348539Y0017175D01*
X0349317Y0017953D01*
X0350004Y0018814D01*
X0350590Y0019747D01*
X0351067Y0020739D01*
X0351431Y0021778D01*
X0351676Y0022851D01*
X0351799Y0023946D01*
X0351799Y0024094D01*
X0342398Y0024094D01*
X0341594Y0024094D01*
X0341594Y0014693D01*
X0341446Y0014693D01*
X0340351Y0014816D01*
X0339278Y0015061D01*
X0338239Y0015425D01*
X0337247Y0015903D01*
X0336314Y0016488D01*
X0335453Y0017175D01*
X0334675Y0017953D01*
X0334303Y0018420D01*
X0334303Y0017819D01*
X0333169Y0015081D01*
X0332318Y0014230D01*
X0330222Y0012134D01*
X0327484Y0011000D01*
X0321968Y0011000D01*
X0319230Y0012134D01*
X0317134Y0014230D01*
X0316000Y0016968D01*
X0316000Y0025036D01*
X0317134Y0027774D01*
X0319230Y0029870D01*
X0321968Y0031004D01*
X0327484Y0031004D01*
X0330222Y0029870D01*
X0331073Y0029019D01*
X0332643Y0027449D01*
X0332925Y0028253D01*
X0333403Y0029245D01*
X0333988Y0030178D01*
X0334675Y0031039D01*
X0335453Y0031817D01*
X0336314Y0032504D01*
X0337247Y0033090D01*
X0338239Y0033567D01*
X0339278Y0033931D01*
X0340351Y0034176D01*
X0341446Y0034299D01*
X0341594Y0034299D01*
X0341594Y0024898D01*
X0342398Y0024898D01*
X0342398Y0034299D01*
X0342547Y0034299D01*
X0343641Y0034176D01*
X0344714Y0033931D01*
X0345491Y0033659D01*
X0345400Y0033816D01*
X0344661Y0036573D01*
X0344661Y0039427D01*
X0345400Y0042184D01*
X0345491Y0042341D01*
X0344714Y0042069D01*
X0343641Y0041824D01*
X0342547Y0041701D01*
X0342398Y0041701D01*
X0342398Y0051102D01*
X0342398Y0051906D01*
X0351799Y0051906D01*
X0351799Y0052054D01*
X0351676Y0053149D01*
X0351431Y0054222D01*
X0351067Y0055261D01*
X0350590Y0056253D01*
X0350004Y0057186D01*
X0349317Y0058047D01*
X0348539Y0058825D01*
X0348319Y0059000D01*
X0362681Y0059000D01*
X0362461Y0058825D01*
X0361683Y0058047D01*
X0360996Y0057186D01*
X0360410Y0056253D01*
X0359933Y0055261D01*
X0359569Y0054222D01*
X0359324Y0053149D01*
X0359201Y0052054D01*
X0359201Y0051906D01*
X0368602Y0051906D01*
X0368602Y0051102D01*
X0359201Y0051102D01*
X0359201Y0050953D01*
X0359324Y0049859D01*
X0359569Y0048786D01*
X0359841Y0048009D01*
X0359684Y0048100D01*
X0356927Y0048839D01*
X0354073Y0048839D01*
X0351316Y0048100D01*
X0351159Y0048009D01*
X0351431Y0048786D01*
X0351676Y0049859D01*
X0351799Y0050953D01*
X0351799Y0051102D01*
X0342398Y0051102D01*
X0341594Y0051102D01*
X0332193Y0051102D01*
X0332193Y0050953D01*
X0332316Y0049859D01*
X0332561Y0048786D01*
X0332925Y0047747D01*
X0333403Y0046754D01*
X0333988Y0045822D01*
X0334675Y0044961D01*
X0335453Y0044183D01*
X0336314Y0043496D01*
X0337247Y0042910D01*
X0338239Y0042433D01*
X0339278Y0042069D01*
X0340351Y0041824D01*
X0341446Y0041701D01*
X0341594Y0041701D01*
X0341594Y0051102D01*
X0341594Y0051906D01*
X0332193Y0051906D01*
X0332193Y0052054D01*
X0332316Y0053149D01*
X0332561Y0054222D01*
X0332925Y0055261D01*
X0333403Y0056253D01*
X0333988Y0057186D01*
X0334675Y0058047D01*
X0335453Y0058825D01*
X0335673Y0059000D01*
X0297827Y0059000D01*
X0298047Y0058825D01*
X0298825Y0058047D01*
X0299512Y0057186D01*
X0300097Y0056253D01*
X0300575Y0055261D01*
X0300939Y0054222D01*
X0301184Y0053149D01*
X0301307Y0052054D01*
X0301307Y0051906D01*
X0291906Y0051906D01*
X0291906Y0051102D01*
X0301307Y0051102D01*
X0301307Y0050953D01*
X0301184Y0049859D01*
X0300939Y0048786D01*
X0300575Y0047747D01*
X0300097Y0046754D01*
X0299512Y0045822D01*
X0298825Y0044961D01*
X0298047Y0044183D01*
X0297186Y0043496D01*
X0296253Y0042910D01*
X0295261Y0042433D01*
X0294222Y0042069D01*
X0293149Y0041824D01*
X0292054Y0041701D01*
X0291906Y0041701D01*
X0291906Y0051102D01*
X0291102Y0051102D01*
X0291102Y0041701D01*
X0290953Y0041701D01*
X0289859Y0041824D01*
X0288786Y0042069D01*
X0288009Y0042341D01*
X0288100Y0042184D01*
X0288839Y0039427D01*
X0288839Y0036573D01*
X0288100Y0033816D01*
X0288009Y0033659D01*
X0288786Y0033931D01*
X0289859Y0034176D01*
X0290953Y0034299D01*
X0291102Y0034299D01*
X0291102Y0024898D01*
X0291906Y0024898D01*
X0301307Y0024898D01*
X0301307Y0025047D01*
X0301184Y0026141D01*
X0300939Y0027214D01*
X0300575Y0028253D01*
X0300097Y0029245D01*
X0299512Y0030178D01*
X0298825Y0031039D01*
X0298047Y0031817D01*
X0297186Y0032504D01*
X0296253Y0033090D01*
X0295261Y0033567D01*
X0294222Y0033931D01*
X0293149Y0034176D01*
X0292054Y0034299D01*
X0291906Y0034299D01*
X0291906Y0024898D01*
X0291906Y0024094D01*
X0301307Y0024094D01*
X0301307Y0023946D01*
X0301184Y0022851D01*
X0300939Y0021778D01*
X0300575Y0020739D01*
X0300097Y0019747D01*
X0299512Y0018814D01*
X0298825Y0017953D01*
X0298047Y0017175D01*
X0297186Y0016488D01*
X0296253Y0015903D01*
X0295261Y0015425D01*
X0294222Y0015061D01*
X0293149Y0014816D01*
X0292054Y0014693D01*
X0291906Y0014693D01*
X0291906Y0024094D01*
X0291102Y0024094D01*
X0291102Y0014693D01*
X0290953Y0014693D01*
X0289859Y0014816D01*
X0288786Y0015061D01*
X0287747Y0015425D01*
X0286754Y0015903D01*
X0285822Y0016488D01*
X0284961Y0017175D01*
X0284183Y0017953D01*
X0283496Y0018814D01*
X0282910Y0019747D01*
X0282433Y0020739D01*
X0282069Y0021778D01*
X0281824Y0022851D01*
X0281701Y0023946D01*
X0281701Y0024094D01*
X0291102Y0024094D01*
X0291102Y0024898D01*
X0281701Y0024898D01*
X0281701Y0025047D01*
X0281824Y0026141D01*
X0282069Y0027214D01*
X0282341Y0027991D01*
X0282184Y0027900D01*
X0279427Y0027161D01*
X0276573Y0027161D01*
X0273816Y0027900D01*
X0273659Y0027991D01*
X0273931Y0027214D01*
X0274176Y0026141D01*
X0274299Y0025047D01*
X0274299Y0024898D01*
X0264898Y0024898D01*
X0264898Y0024094D01*
X0264898Y0014693D01*
X0265047Y0014693D01*
X0266141Y0014816D01*
X0267214Y0015061D01*
X0268253Y0015425D01*
X0269245Y0015903D01*
X0270178Y0016488D01*
X0271039Y0017175D01*
X0271817Y0017953D01*
X0272504Y0018814D01*
X0273090Y0019747D01*
X0273567Y0020739D01*
X0273931Y0021778D01*
X0274176Y0022851D01*
X0274299Y0023946D01*
X0274299Y0024094D01*
X0264898Y0024094D01*
X0264094Y0024094D01*
X0264094Y0014693D01*
X0263946Y0014693D01*
X0262851Y0014816D01*
X0261778Y0015061D01*
X0260739Y0015425D01*
X0259747Y0015903D01*
X0258814Y0016488D01*
X0257953Y0017175D01*
X0257175Y0017953D01*
X0256488Y0018814D01*
X0255903Y0019747D01*
X0255425Y0020739D01*
X0255061Y0021778D01*
X0254816Y0022851D01*
X0254693Y0023946D01*
X0254693Y0024094D01*
X0264094Y0024094D01*
X0264094Y0024898D01*
X0254693Y0024898D01*
X0254693Y0025047D01*
X0254816Y0026141D01*
X0255061Y0027214D01*
X0255425Y0028253D01*
X0255903Y0029245D01*
X0256488Y0030178D01*
X0257175Y0031039D01*
X0257953Y0031817D01*
X0258814Y0032504D01*
X0259747Y0033090D01*
X0260739Y0033567D01*
X0261778Y0033931D01*
X0262851Y0034176D01*
X0263946Y0034299D01*
X0264094Y0034299D01*
X0264094Y0024898D01*
X0264898Y0024898D01*
X0264898Y0034299D01*
X0265047Y0034299D01*
X0266141Y0034176D01*
X0267214Y0033931D01*
X0267991Y0033659D01*
X0267900Y0033816D01*
X0267161Y0036573D01*
X0267161Y0039427D01*
X0267900Y0042184D01*
X0267991Y0042341D01*
X0267214Y0042069D01*
X0266141Y0041824D01*
X0265047Y0041701D01*
X0264898Y0041701D01*
X0264898Y0051102D01*
X0264898Y0051906D01*
X0274299Y0051906D01*
X0274299Y0052054D01*
X0274176Y0053149D01*
X0273931Y0054222D01*
X0273567Y0055261D01*
X0273090Y0056253D01*
X0272504Y0057186D01*
X0271817Y0058047D01*
X0271039Y0058825D01*
X0270819Y0059000D01*
X0285181Y0059000D01*
X0284961Y0058825D01*
X0284183Y0058047D01*
X0283496Y0057186D01*
X0282910Y0056253D01*
X0282433Y0055261D01*
X0282069Y0054222D01*
X0281824Y0053149D01*
X0281701Y0052054D01*
X0281701Y0051906D01*
X0291102Y0051906D01*
X0291102Y0051102D01*
X0281701Y0051102D01*
X0281701Y0050953D01*
X0281824Y0049859D01*
X0282069Y0048786D01*
X0282341Y0048009D01*
X0282184Y0048100D01*
X0279427Y0048839D01*
X0276573Y0048839D01*
X0273816Y0048100D01*
X0273659Y0048009D01*
X0273931Y0048786D01*
X0274176Y0049859D01*
X0274299Y0050953D01*
X0274299Y0051102D01*
X0264898Y0051102D01*
X0264094Y0051102D01*
X0254693Y0051102D01*
X0254693Y0050953D01*
X0254816Y0049859D01*
X0255061Y0048786D01*
X0255425Y0047747D01*
X0255903Y0046754D01*
X0256488Y0045822D01*
X0257175Y0044961D01*
X0257953Y0044183D01*
X0258814Y0043496D01*
X0259747Y0042910D01*
X0260739Y0042433D01*
X0261778Y0042069D01*
X0262851Y0041824D01*
X0263946Y0041701D01*
X0264094Y0041701D01*
X0264094Y0051102D01*
X0264094Y0051906D01*
X0254693Y0051906D01*
X0254693Y0052054D01*
X0254816Y0053149D01*
X0255061Y0054222D01*
X0255425Y0055261D01*
X0255903Y0056253D01*
X0256488Y0057186D01*
X0257175Y0058047D01*
X0257953Y0058825D01*
X0258814Y0059512D01*
X0259275Y0059801D01*
X0257902Y0060370D01*
X0255370Y0062902D01*
X0235225Y0083047D01*
X0235000Y0083047D01*
X0235000Y0082470D01*
X0234909Y0082250D01*
X0235000Y0082031D01*
X0235000Y0079067D01*
X0233866Y0076329D01*
X0233837Y0076300D01*
X0233866Y0076272D01*
X0235000Y0073534D01*
X0235000Y0068868D01*
X0233866Y0066130D01*
X0233837Y0066102D01*
X0233866Y0066073D01*
X0235000Y0063335D01*
X0235000Y0060371D01*
X0234909Y0060151D01*
X0235000Y0059932D01*
X0235000Y0056968D01*
X0233866Y0054230D01*
X0231770Y0052134D01*
X0229032Y0051000D01*
X0220964Y0051000D01*
X0218226Y0052134D01*
X0218060Y0052300D01*
X0207908Y0052300D01*
X0205335Y0053366D01*
X0203366Y0055335D01*
X0202300Y0057908D01*
X0202300Y0063047D01*
X0198655Y0063047D01*
X0196082Y0064113D01*
X0194113Y0066082D01*
X0193047Y0068655D01*
X0193047Y0070225D01*
X0180370Y0082902D01*
X0179000Y0086210D01*
X0179000Y0099790D01*
X0180370Y0103098D01*
X0182902Y0105630D01*
X0182902Y0105630D01*
X0204000Y0126728D01*
X0204000Y0146355D01*
X0203047Y0148655D01*
X0203047Y0157345D01*
X0203480Y0158389D01*
X0203425Y0158521D01*
X0203425Y0167479D01*
X0203641Y0168000D01*
X0202359Y0168000D01*
X0202575Y0167479D01*
X0202575Y0158521D01*
X0201117Y0155002D01*
X0198424Y0152308D01*
X0194905Y0150850D01*
X0191095Y0150850D01*
X0187576Y0152308D01*
X0184883Y0155002D01*
X0183425Y0158521D01*
X0183425Y0167479D01*
X0183641Y0168000D01*
X0172359Y0168000D01*
X0172575Y0167479D01*
X0172575Y0158521D01*
X0171117Y0155002D01*
X0168424Y0152308D01*
X0164905Y0150850D01*
X0161095Y0150850D01*
X0158000Y0152133D01*
X0154905Y0150850D01*
X0151095Y0150850D01*
X0148000Y0152133D01*
X0144905Y0150850D01*
X0141095Y0150850D01*
X0137576Y0152308D01*
X0134883Y0155002D01*
X0133425Y0158521D01*
X0133425Y0167479D01*
X0133641Y0168000D01*
X0132359Y0168000D01*
X0132575Y0167479D01*
X0132575Y0158521D01*
X0131117Y0155002D01*
X0128424Y0152308D01*
X0124905Y0150850D01*
X0121095Y0150850D01*
X0117953Y0152152D01*
X0117953Y0148655D01*
X0116887Y0146082D01*
X0114918Y0144113D01*
X0112345Y0143047D01*
X0103655Y0143047D01*
X0101082Y0144113D01*
X0099113Y0146082D01*
X0098047Y0148655D01*
X0098047Y0153047D01*
X0093655Y0153047D01*
X0091082Y0154113D01*
X0090050Y0155145D01*
X0090150Y0154905D01*
X0090150Y0151095D01*
X0088692Y0147576D01*
X0085998Y0144883D01*
X0084476Y0144252D01*
X0115630Y0113098D01*
X0117000Y0109790D01*
X0117000Y0095024D01*
X0119367Y0096004D01*
X0122330Y0096004D01*
X0125069Y0094870D01*
X0125104Y0094835D01*
X0125425Y0095753D01*
X0125903Y0096745D01*
X0126488Y0097678D01*
X0127175Y0098539D01*
X0127953Y0099317D01*
X0128814Y0100004D01*
X0129747Y0100590D01*
X0130739Y0101067D01*
X0131778Y0101431D01*
X0132851Y0101676D01*
X0133946Y0101799D01*
X0134094Y0101799D01*
X0134094Y0092398D01*
X0134898Y0092398D01*
X0134898Y0101799D01*
X0135047Y0101799D01*
X0136141Y0101676D01*
X0137214Y0101431D01*
X0137991Y0101159D01*
X0137900Y0101316D01*
X0137161Y0104073D01*
X0137161Y0106927D01*
X0137900Y0109684D01*
X0137991Y0109841D01*
X0137214Y0109569D01*
X0136141Y0109324D01*
X0135047Y0109201D01*
X0134898Y0109201D01*
X0134898Y0118602D01*
X0134898Y0119406D01*
X0134094Y0119406D01*
X0134094Y0128807D01*
X0133946Y0128807D01*
X0132851Y0128684D01*
X0131778Y0128439D01*
X0130739Y0128075D01*
X0129747Y0127597D01*
X0128814Y0127012D01*
X0127953Y0126325D01*
X0127175Y0125547D01*
X0126488Y0124686D01*
X0125903Y0123753D01*
X0125425Y0122761D01*
X0125061Y0121722D01*
X0124816Y0120649D01*
X0124693Y0119554D01*
X0124693Y0119406D01*
X0134094Y0119406D01*
X0134094Y0118602D01*
X0124693Y0118602D01*
X0124693Y0118453D01*
X0124816Y0117359D01*
X0125061Y0116286D01*
X0125425Y0115247D01*
X0125903Y0114254D01*
X0126488Y0113322D01*
X0127175Y0112461D01*
X0127953Y0111683D01*
X0128814Y0110996D01*
X0129747Y0110410D01*
X0130739Y0109933D01*
X0131778Y0109569D01*
X0132851Y0109324D01*
X0133946Y0109201D01*
X0134094Y0109201D01*
X0134094Y0118602D01*
X0134898Y0118602D01*
X0144299Y0118602D01*
X0144299Y0118453D01*
X0144176Y0117359D01*
X0143931Y0116286D01*
X0143659Y0115509D01*
X0143816Y0115600D01*
X0146573Y0116339D01*
X0149427Y0116339D01*
X0152184Y0115600D01*
X0152341Y0115509D01*
X0152069Y0116286D01*
X0151824Y0117359D01*
X0151701Y0118453D01*
X0151701Y0118602D01*
X0161102Y0118602D01*
X0161102Y0119406D01*
X0161102Y0128807D01*
X0160953Y0128807D01*
X0159859Y0128684D01*
X0158786Y0128439D01*
X0157747Y0128075D01*
X0156754Y0127597D01*
X0155822Y0127012D01*
X0154961Y0126325D01*
X0154183Y0125547D01*
X0153496Y0124686D01*
X0152910Y0123753D01*
X0152433Y0122761D01*
X0152069Y0121722D01*
X0151824Y0120649D01*
X0151701Y0119554D01*
X0151701Y0119406D01*
X0161102Y0119406D01*
X0161906Y0119406D01*
X0161906Y0128807D01*
X0162054Y0128807D01*
X0163149Y0128684D01*
X0164222Y0128439D01*
X0165261Y0128075D01*
X0166253Y0127597D01*
X0167186Y0127012D01*
X0168047Y0126325D01*
X0168825Y0125547D01*
X0169512Y0124686D01*
X0170097Y0123753D01*
X0170575Y0122761D01*
X0170939Y0121722D01*
X0171184Y0120649D01*
X0171307Y0119554D01*
X0171307Y0119406D01*
X0161906Y0119406D01*
X0161906Y0118602D01*
X0171307Y0118602D01*
X0171307Y0118453D01*
X0171184Y0117359D01*
X0170939Y0116286D01*
X0170575Y0115247D01*
X0170097Y0114254D01*
X0169512Y0113322D01*
X0168825Y0112461D01*
X0168047Y0111683D01*
X0167186Y0110996D01*
X0166253Y0110410D01*
X0165261Y0109933D01*
X0164222Y0109569D01*
X0163149Y0109324D01*
X0162054Y0109201D01*
X0161906Y0109201D01*
X0161906Y0118602D01*
X0161102Y0118602D01*
X0161102Y0109201D01*
X0160953Y0109201D01*
X0159859Y0109324D01*
X0158786Y0109569D01*
X0158009Y0109841D01*
X0158100Y0109684D01*
X0158839Y0106927D01*
X0158839Y0104073D01*
X0158100Y0101316D01*
X0158009Y0101159D01*
X0158786Y0101431D01*
X0159859Y0101676D01*
X0160953Y0101799D01*
X0161102Y0101799D01*
X0161102Y0092398D01*
X0161906Y0092398D01*
X0171307Y0092398D01*
X0171307Y0092547D01*
X0171184Y0093641D01*
X0170939Y0094714D01*
X0170575Y0095753D01*
X0170097Y0096745D01*
X0169512Y0097678D01*
X0168825Y0098539D01*
X0168047Y0099317D01*
X0167186Y0100004D01*
X0166253Y0100590D01*
X0165261Y0101067D01*
X0164222Y0101431D01*
X0163149Y0101676D01*
X0162054Y0101799D01*
X0161906Y0101799D01*
X0161906Y0092398D01*
X0161906Y0091594D01*
X0171307Y0091594D01*
X0171307Y0091446D01*
X0171184Y0090351D01*
X0170939Y0089278D01*
X0170575Y0088239D01*
X0170097Y0087247D01*
X0169512Y0086314D01*
X0168825Y0085453D01*
X0168047Y0084675D01*
X0167186Y0083988D01*
X0166253Y0083403D01*
X0165261Y0082925D01*
X0164222Y0082561D01*
X0163149Y0082316D01*
X0162054Y0082193D01*
X0161906Y0082193D01*
X0161906Y0091594D01*
X0161102Y0091594D01*
X0161102Y0082193D01*
X0160953Y0082193D01*
X0159859Y0082316D01*
X0158786Y0082561D01*
X0157747Y0082925D01*
X0156754Y0083403D01*
X0155822Y0083988D01*
X0154961Y0084675D01*
X0154183Y0085453D01*
X0153496Y0086314D01*
X0152910Y0087247D01*
X0152433Y0088239D01*
X0152069Y0089278D01*
X0151824Y0090351D01*
X0151701Y0091446D01*
X0151701Y0091594D01*
X0161102Y0091594D01*
X0161102Y0092398D01*
X0151701Y0092398D01*
X0151701Y0092547D01*
X0151824Y0093641D01*
X0152069Y0094714D01*
X0152341Y0095491D01*
X0152184Y0095400D01*
X0149427Y0094661D01*
X0146573Y0094661D01*
X0143816Y0095400D01*
X0143659Y0095491D01*
X0143931Y0094714D01*
X0144176Y0093641D01*
X0144299Y0092547D01*
X0144299Y0092398D01*
X0134898Y0092398D01*
X0134898Y0091594D01*
X0134898Y0082193D01*
X0135047Y0082193D01*
X0136141Y0082316D01*
X0137214Y0082561D01*
X0138253Y0082925D01*
X0139245Y0083403D01*
X0140178Y0083988D01*
X0141039Y0084675D01*
X0141817Y0085453D01*
X0142504Y0086314D01*
X0143090Y0087247D01*
X0143567Y0088239D01*
X0143931Y0089278D01*
X0144176Y0090351D01*
X0144299Y0091446D01*
X0144299Y0091594D01*
X0134898Y0091594D01*
X0134094Y0091594D01*
X0134094Y0082193D01*
X0133946Y0082193D01*
X0132851Y0082316D01*
X0131778Y0082561D01*
X0130739Y0082925D01*
X0130000Y0083281D01*
X0130000Y0081968D01*
X0128866Y0079230D01*
X0126770Y0077134D01*
X0124032Y0076000D01*
X0121068Y0076000D01*
X0120849Y0076091D01*
X0120629Y0076000D01*
X0117665Y0076000D01*
X0117000Y0076276D01*
X0117000Y0054645D01*
X0117953Y0052345D01*
X0117953Y0043655D01*
X0116887Y0041082D01*
X0114918Y0039113D01*
X0112345Y0038047D01*
X0103655Y0038047D01*
X0101082Y0039113D01*
X0099113Y0041082D01*
X0098047Y0043655D01*
X0098047Y0052345D01*
X0099000Y0054645D01*
X0099000Y0104272D01*
X0089681Y0113591D01*
X0089512Y0113322D01*
X0088825Y0112461D01*
X0088047Y0111683D01*
X0087186Y0110996D01*
X0088000Y0111646D01*
X0088000Y0099354D01*
X0087186Y0100004D01*
X0086253Y0100590D01*
X0085261Y0101067D01*
X0084222Y0101431D01*
X0083149Y0101676D01*
X0082054Y0101799D01*
X0081906Y0101799D01*
X0081906Y0092398D01*
X0091307Y0092398D01*
X0091307Y0092547D01*
X0091184Y0093641D01*
X0090939Y0094714D01*
X0090575Y0095753D01*
X0090097Y0096745D01*
X0089512Y0097678D01*
X0088825Y0098539D01*
X0088047Y0099317D01*
X0087186Y0100004D01*
X0086253Y0100590D01*
X0085261Y0101067D01*
X0084222Y0101431D01*
X0083149Y0101676D01*
X0082054Y0101799D01*
X0081906Y0101799D01*
X0081906Y0092398D01*
X0081906Y0091594D01*
X0091307Y0091594D01*
X0091307Y0091446D01*
X0091184Y0090351D01*
X0090939Y0089278D01*
X0090575Y0088239D01*
X0090097Y0087247D01*
X0089512Y0086314D01*
X0088825Y0085453D01*
X0088047Y0084675D01*
X0087186Y0083988D01*
X0088000Y0084638D01*
X0088000Y0058862D01*
X0087186Y0059512D01*
X0086253Y0060097D01*
X0085261Y0060575D01*
X0084222Y0060939D01*
X0083149Y0061184D01*
X0082054Y0061307D01*
X0081906Y0061307D01*
X0081906Y0051906D01*
X0081102Y0051906D01*
X0081102Y0061307D01*
X0080953Y0061307D01*
X0079859Y0061184D01*
X0078786Y0060939D01*
X0077747Y0060575D01*
X0076754Y0060097D01*
X0075822Y0059512D01*
X0074961Y0058825D01*
X0074183Y0058047D01*
X0073496Y0057186D01*
X0072910Y0056253D01*
X0072433Y0055261D01*
X0072069Y0054222D01*
X0071824Y0053149D01*
X0071701Y0052054D01*
X0071701Y0051906D01*
X0081102Y0051906D01*
X0081102Y0061307D01*
X0080953Y0061307D01*
X0079859Y0061184D01*
X0078786Y0060939D01*
X0077747Y0060575D01*
X0076754Y0060097D01*
X0075822Y0059512D01*
X0074961Y0058825D01*
X0074183Y0058047D01*
X0073496Y0057186D01*
X0072910Y0056253D01*
X0072433Y0055261D01*
X0072069Y0054222D01*
X0071824Y0053149D01*
X0071701Y0052054D01*
X0071701Y0051906D01*
X0081102Y0051906D01*
X0081906Y0051906D01*
X0081906Y0061307D01*
X0082054Y0061307D01*
X0083149Y0061184D01*
X0084222Y0060939D01*
X0085261Y0060575D01*
X0086253Y0060097D01*
X0087186Y0059512D01*
X0088047Y0058825D01*
X0088825Y0058047D01*
X0089512Y0057186D01*
X0090097Y0056253D01*
X0090575Y0055261D01*
X0090939Y0054222D01*
X0091184Y0053149D01*
X0091307Y0052054D01*
X0091307Y0051906D01*
X0081906Y0051906D01*
X0081906Y0051102D01*
X0091307Y0051102D01*
X0091307Y0050953D01*
X0091184Y0049859D01*
X0090939Y0048786D01*
X0090575Y0047747D01*
X0090097Y0046754D01*
X0089512Y0045822D01*
X0088825Y0044961D01*
X0088047Y0044183D01*
X0087186Y0043496D01*
X0086253Y0042910D01*
X0085261Y0042433D01*
X0084222Y0042069D01*
X0083149Y0041824D01*
X0082054Y0041701D01*
X0081906Y0041701D01*
X0081906Y0051102D01*
X0081102Y0051102D01*
X0071701Y0051102D01*
X0071701Y0050953D01*
X0071824Y0049859D01*
X0072069Y0048786D01*
X0072341Y0048009D01*
X0072184Y0048100D01*
X0069427Y0048839D01*
X0066573Y0048839D01*
X0063816Y0048100D01*
X0063659Y0048009D01*
X0063931Y0048786D01*
X0064176Y0049859D01*
X0064299Y0050953D01*
X0064299Y0051102D01*
X0054898Y0051102D01*
X0054898Y0051906D01*
X0054094Y0051906D01*
X0054094Y0061307D01*
X0053946Y0061307D01*
X0052851Y0061184D01*
X0051778Y0060939D01*
X0050739Y0060575D01*
X0049747Y0060097D01*
X0048814Y0059512D01*
X0047953Y0058825D01*
X0047175Y0058047D01*
X0046488Y0057186D01*
X0045903Y0056253D01*
X0045425Y0055261D01*
X0045061Y0054222D01*
X0044816Y0053149D01*
X0044693Y0052054D01*
X0044693Y0051906D01*
X0054094Y0051906D01*
X0054094Y0061307D01*
X0053946Y0061307D01*
X0052851Y0061184D01*
X0051778Y0060939D01*
X0050739Y0060575D01*
X0049747Y0060097D01*
X0048814Y0059512D01*
X0047953Y0058825D01*
X0047175Y0058047D01*
X0046488Y0057186D01*
X0045903Y0056253D01*
X0045425Y0055261D01*
X0045061Y0054222D01*
X0044816Y0053149D01*
X0044693Y0052054D01*
X0044693Y0051906D01*
X0054094Y0051906D01*
X0054898Y0051906D01*
X0054898Y0061307D01*
X0055047Y0061307D01*
X0056141Y0061184D01*
X0057214Y0060939D01*
X0058253Y0060575D01*
X0059245Y0060097D01*
X0060178Y0059512D01*
X0061039Y0058825D01*
X0061817Y0058047D01*
X0062504Y0057186D01*
X0063090Y0056253D01*
X0063567Y0055261D01*
X0063931Y0054222D01*
X0064176Y0053149D01*
X0064299Y0052054D01*
X0064299Y0051906D01*
X0054898Y0051906D01*
X0054898Y0061307D01*
X0055047Y0061307D01*
X0056141Y0061184D01*
X0057214Y0060939D01*
X0058253Y0060575D01*
X0059245Y0060097D01*
X0060178Y0059512D01*
X0061039Y0058825D01*
X0061817Y0058047D01*
X0062504Y0057186D01*
X0063090Y0056253D01*
X0063567Y0055261D01*
X0063931Y0054222D01*
X0064176Y0053149D01*
X0064299Y0052054D01*
X0064299Y0051906D01*
X0054898Y0051906D01*
X0054898Y0051102D01*
X0064299Y0051102D01*
X0064299Y0050953D01*
X0064176Y0049859D01*
X0063931Y0048786D01*
X0063659Y0048009D01*
X0063816Y0048100D01*
X0066573Y0048839D01*
X0069427Y0048839D01*
X0072184Y0048100D01*
X0072341Y0048009D01*
X0072069Y0048786D01*
X0071824Y0049859D01*
X0071701Y0050953D01*
X0071701Y0051102D01*
X0081102Y0051102D01*
X0081102Y0051906D01*
X0081102Y0051102D01*
X0081102Y0041701D01*
X0080953Y0041701D01*
X0079859Y0041824D01*
X0078786Y0042069D01*
X0078009Y0042341D01*
X0078100Y0042184D01*
X0078839Y0039427D01*
X0078839Y0036573D01*
X0078100Y0033816D01*
X0078009Y0033659D01*
X0078786Y0033931D01*
X0079859Y0034176D01*
X0080953Y0034299D01*
X0081102Y0034299D01*
X0081102Y0024898D01*
X0081906Y0024898D01*
X0091307Y0024898D01*
X0091307Y0025047D01*
X0091184Y0026141D01*
X0090939Y0027214D01*
X0090575Y0028253D01*
X0090097Y0029245D01*
X0089512Y0030178D01*
X0088825Y0031039D01*
X0088047Y0031817D01*
X0087186Y0032504D01*
X0086253Y0033090D01*
X0085261Y0033567D01*
X0084222Y0033931D01*
X0083149Y0034176D01*
X0082054Y0034299D01*
X0081906Y0034299D01*
X0081906Y0024898D01*
X0081906Y0024094D01*
X0091307Y0024094D01*
X0091307Y0023946D01*
X0091184Y0022851D01*
X0090939Y0021778D01*
X0090575Y0020739D01*
X0090097Y0019747D01*
X0089512Y0018814D01*
X0088825Y0017953D01*
X0088047Y0017175D01*
X0087186Y0016488D01*
X0086253Y0015903D01*
X0085261Y0015425D01*
X0084222Y0015061D01*
X0083149Y0014816D01*
X0082054Y0014693D01*
X0081906Y0014693D01*
X0081906Y0024094D01*
X0081102Y0024094D01*
X0081102Y0014693D01*
X0080953Y0014693D01*
X0079859Y0014816D01*
X0078786Y0015061D01*
X0077747Y0015425D01*
X0076754Y0015903D01*
X0075822Y0016488D01*
X0074961Y0017175D01*
X0074183Y0017953D01*
X0073496Y0018814D01*
X0072910Y0019747D01*
X0072433Y0020739D01*
X0072069Y0021778D01*
X0071824Y0022851D01*
X0071701Y0023946D01*
X0071701Y0024094D01*
X0081102Y0024094D01*
X0081102Y0024898D01*
X0071701Y0024898D01*
X0071701Y0025047D01*
X0071824Y0026141D01*
X0072069Y0027214D01*
X0072341Y0027991D01*
X0072184Y0027900D01*
X0069427Y0027161D01*
X0066573Y0027161D01*
X0063816Y0027900D01*
X0063659Y0027991D01*
X0063931Y0027214D01*
X0064176Y0026141D01*
X0064299Y0025047D01*
X0064299Y0024898D01*
X0054898Y0024898D01*
X0054094Y0024898D01*
X0054094Y0034299D01*
X0053946Y0034299D01*
X0052851Y0034176D01*
X0051778Y0033931D01*
X0050739Y0033567D01*
X0049747Y0033090D01*
X0048814Y0032504D01*
X0047953Y0031817D01*
X0047175Y0031039D01*
X0046488Y0030178D01*
X0045903Y0029245D01*
X0045425Y0028253D01*
X0045143Y0027449D01*
X0043573Y0029019D01*
X0042722Y0029870D01*
X0039984Y0031004D01*
X0034468Y0031004D01*
X0031730Y0029870D01*
X0029634Y0027774D01*
X0028500Y0025036D01*
X0028500Y0022475D01*
X0027067Y0024957D01*
X0024957Y0027067D01*
X0022373Y0028559D01*
X0019492Y0029331D01*
X0016508Y0029331D01*
X0013627Y0028559D01*
X0011043Y0027067D01*
X0010000Y0026024D01*
X0010000Y0168000D01*
X0024000Y0168000D01*
X0024000Y0116210D01*
X0025370Y0112902D01*
X0035547Y0102725D01*
X0035547Y0101155D01*
X0036613Y0098582D01*
X0038582Y0096613D01*
X0041155Y0095547D01*
X0045353Y0095547D01*
X0045061Y0094714D01*
X0044816Y0093641D01*
X0044713Y0092726D01*
X0044664Y0092774D01*
X0042569Y0094870D01*
X0039830Y0096004D01*
X0036867Y0096004D01*
X0034128Y0094870D01*
X0032427Y0093169D01*
X0030331Y0091073D01*
X0029197Y0088335D01*
X0029197Y0081968D01*
X0030331Y0079230D01*
X0032427Y0077134D01*
X0035165Y0076000D01*
X0038129Y0076000D01*
X0038349Y0076091D01*
X0038568Y0076000D01*
X0041532Y0076000D01*
X0044270Y0077134D01*
X0046366Y0079230D01*
X0047500Y0081968D01*
X0047500Y0085128D01*
X0047953Y0084675D01*
X0048814Y0083988D01*
X0049747Y0083403D01*
X0050739Y0082925D01*
X0051778Y0082561D01*
X0052851Y0082316D01*
X0053946Y0082193D01*
X0054094Y0082193D01*
X0054094Y0091594D01*
X0054898Y0091594D01*
X0054898Y0082193D01*
X0055047Y0082193D01*
X0056141Y0082316D01*
X0057214Y0082561D01*
X0058253Y0082925D01*
X0059245Y0083403D01*
X0060178Y0083988D01*
X0061039Y0084675D01*
X0061817Y0085453D01*
X0062504Y0086314D01*
X0063090Y0087247D01*
X0063567Y0088239D01*
X0063931Y0089278D01*
X0064176Y0090351D01*
X0064299Y0091446D01*
X0064299Y0091594D01*
X0054898Y0091594D01*
X0054898Y0082193D01*
X0055047Y0082193D01*
X0056141Y0082316D01*
X0057214Y0082561D01*
X0058253Y0082925D01*
X0059245Y0083403D01*
X0060178Y0083988D01*
X0061039Y0084675D01*
X0061817Y0085453D01*
X0062504Y0086314D01*
X0063090Y0087247D01*
X0063567Y0088239D01*
X0063931Y0089278D01*
X0064176Y0090351D01*
X0064299Y0091446D01*
X0064299Y0091594D01*
X0054898Y0091594D01*
X0054094Y0091594D01*
X0054094Y0082193D01*
X0053946Y0082193D01*
X0052851Y0082316D01*
X0051778Y0082561D01*
X0050739Y0082925D01*
X0049747Y0083403D01*
X0048814Y0083988D01*
X0047953Y0084675D01*
X0047500Y0085128D01*
X0047500Y0081968D01*
X0046366Y0079230D01*
X0044270Y0077134D01*
X0041532Y0076000D01*
X0038568Y0076000D01*
X0038349Y0076091D01*
X0038129Y0076000D01*
X0035165Y0076000D01*
X0032427Y0077134D01*
X0030331Y0079230D01*
X0029197Y0081968D01*
X0029197Y0088335D01*
X0030331Y0091073D01*
X0032427Y0093169D01*
X0034128Y0094870D01*
X0036867Y0096004D01*
X0039830Y0096004D01*
X0042569Y0094870D01*
X0044664Y0092774D01*
X0044713Y0092726D01*
X0044816Y0093641D01*
X0045061Y0094714D01*
X0045353Y0095547D01*
X0041155Y0095547D01*
X0038582Y0096613D01*
X0036613Y0098582D01*
X0035547Y0101155D01*
X0035547Y0102725D01*
X0025370Y0112902D01*
X0024000Y0116210D01*
X0024000Y0226355D01*
X0023047Y0228655D01*
X0023047Y0237345D01*
X0024113Y0239918D01*
X0026082Y0241887D01*
X0028655Y0242953D01*
X0037345Y0242953D01*
X0039918Y0241887D01*
X0041887Y0239918D01*
X0042841Y0237616D01*
X0043655Y0237953D01*
X0047152Y0237953D01*
X0045850Y0241095D01*
X0045850Y0244905D01*
X0047133Y0248000D01*
X0045850Y0251095D01*
X0045850Y0254905D01*
X0047133Y0258000D01*
X0045850Y0261095D01*
X0045850Y0264905D01*
X0047308Y0268424D01*
X0050002Y0271117D01*
X0053521Y0272575D01*
X0062479Y0272575D01*
X0065998Y0271117D01*
X0068000Y0269116D01*
X0070002Y0271117D01*
X0073521Y0272575D01*
X0082479Y0272575D01*
X0085998Y0271117D01*
X0088000Y0269116D01*
X0088000Y0280961D01*
X0026063Y0280961D01*
X0027067Y0279957D01*
X0028559Y0277373D01*
X0029331Y0274492D01*
X0029331Y0271508D01*
X0028559Y0268627D01*
X0027067Y0266043D01*
X0024957Y0263933D01*
X0022373Y0262441D01*
X0019492Y0261669D01*
X0016508Y0261669D01*
X0013627Y0262441D01*
X0011043Y0263933D01*
X0010000Y0264976D01*
X0010000Y0048000D01*
X0045336Y0048000D01*
X0045061Y0048786D01*
X0044816Y0049859D01*
X0044693Y0050953D01*
X0044693Y0051102D01*
X0054094Y0051102D01*
X0054094Y0051906D01*
X0054094Y0051102D01*
X0044693Y0051102D01*
X0044693Y0050953D01*
X0044816Y0049859D01*
X0045061Y0048786D01*
X0045425Y0047747D01*
X0045903Y0046754D01*
X0046488Y0045822D01*
X0047175Y0044961D01*
X0047953Y0044183D01*
X0048814Y0043496D01*
X0049747Y0042910D01*
X0050739Y0042433D01*
X0051778Y0042069D01*
X0052851Y0041824D01*
X0053946Y0041701D01*
X0054094Y0041701D01*
X0054094Y0051102D01*
X0054898Y0051102D01*
X0054898Y0041701D01*
X0055047Y0041701D01*
X0056141Y0041824D01*
X0057214Y0042069D01*
X0057991Y0042341D01*
X0057900Y0042184D01*
X0057161Y0039427D01*
X0057161Y0036573D01*
X0057900Y0033816D01*
X0057991Y0033659D01*
X0057214Y0033931D01*
X0056141Y0034176D01*
X0055047Y0034299D01*
X0054898Y0034299D01*
X0054898Y0024898D01*
X0054898Y0024094D01*
X0054898Y0014693D01*
X0055047Y0014693D01*
X0056141Y0014816D01*
X0057214Y0015061D01*
X0058253Y0015425D01*
X0059245Y0015903D01*
X0060178Y0016488D01*
X0061039Y0017175D01*
X0061817Y0017953D01*
X0062504Y0018814D01*
X0063090Y0019747D01*
X0063567Y0020739D01*
X0063931Y0021778D01*
X0064176Y0022851D01*
X0064299Y0023946D01*
X0064299Y0024094D01*
X0054898Y0024094D01*
X0054094Y0024094D01*
X0054094Y0014693D01*
X0053946Y0014693D01*
X0052851Y0014816D01*
X0051778Y0015061D01*
X0050739Y0015425D01*
X0049747Y0015903D01*
X0048814Y0016488D01*
X0047953Y0017175D01*
X0047175Y0017953D01*
X0046803Y0018420D01*
X0046803Y0017819D01*
X0045669Y0015081D01*
X0044818Y0014230D01*
X0042722Y0012134D01*
X0039984Y0011000D01*
X0034468Y0011000D01*
X0031730Y0012134D01*
X0029634Y0014230D01*
X0029079Y0015570D01*
X0028559Y0013627D01*
X0027067Y0011043D01*
X0026027Y0010003D02*
X0394973Y0010003D01*
X0392341Y0014001D02*
X0332090Y0014001D01*
X0334303Y0018000D02*
X0334638Y0018000D01*
X0341594Y0018000D02*
X0342398Y0018000D01*
X0342398Y0021999D02*
X0341594Y0021999D01*
X0341594Y0025997D02*
X0342398Y0025997D01*
X0342398Y0029996D02*
X0341594Y0029996D01*
X0341594Y0033994D02*
X0342398Y0033994D01*
X0344438Y0033994D02*
X0345352Y0033994D01*
X0344661Y0037993D02*
X0288839Y0037993D01*
X0289062Y0033994D02*
X0288148Y0033994D01*
X0291102Y0033994D02*
X0291906Y0033994D01*
X0293945Y0033994D02*
X0339555Y0033994D01*
X0333874Y0029996D02*
X0329920Y0029996D01*
X0319533Y0029996D02*
X0299626Y0029996D01*
X0301200Y0025997D02*
X0316398Y0025997D01*
X0316000Y0021999D02*
X0300989Y0021999D01*
X0298862Y0018000D02*
X0316000Y0018000D01*
X0317363Y0014001D02*
X0252940Y0014001D01*
X0253169Y0014230D02*
X0254303Y0016968D01*
X0254303Y0025036D01*
X0253169Y0027774D01*
X0251073Y0029870D01*
X0248335Y0031004D01*
X0245371Y0031004D01*
X0245151Y0030913D01*
X0244932Y0031004D01*
X0241968Y0031004D01*
X0239230Y0029870D01*
X0237134Y0027774D01*
X0236000Y0025036D01*
X0236000Y0016968D01*
X0237134Y0014230D01*
X0239230Y0012134D01*
X0241968Y0011000D01*
X0244932Y0011000D01*
X0245151Y0011091D01*
X0245371Y0011000D01*
X0248335Y0011000D01*
X0251073Y0012134D01*
X0253169Y0014230D01*
X0254303Y0018000D02*
X0257138Y0018000D01*
X0255011Y0021999D02*
X0254303Y0021999D01*
X0253905Y0025997D02*
X0254800Y0025997D01*
X0256374Y0029996D02*
X0250770Y0029996D01*
X0239533Y0029996D02*
X0169626Y0029996D01*
X0169512Y0030178D02*
X0168825Y0031039D01*
X0168047Y0031817D01*
X0167186Y0032504D01*
X0166253Y0033090D01*
X0165261Y0033567D01*
X0164222Y0033931D01*
X0163149Y0034176D01*
X0162054Y0034299D01*
X0161906Y0034299D01*
X0161906Y0024898D01*
X0171307Y0024898D01*
X0171307Y0025047D01*
X0171184Y0026141D01*
X0170939Y0027214D01*
X0170575Y0028253D01*
X0170097Y0029245D01*
X0169512Y0030178D01*
X0171200Y0025997D02*
X0236398Y0025997D01*
X0236000Y0021999D02*
X0170989Y0021999D01*
X0170939Y0021778D02*
X0171184Y0022851D01*
X0171307Y0023946D01*
X0171307Y0024094D01*
X0161906Y0024094D01*
X0161906Y0024898D01*
X0161102Y0024898D01*
X0161102Y0034299D01*
X0160953Y0034299D01*
X0159859Y0034176D01*
X0158786Y0033931D01*
X0158009Y0033659D01*
X0158100Y0033816D01*
X0158839Y0036573D01*
X0158839Y0039427D01*
X0158100Y0042184D01*
X0158009Y0042341D01*
X0158786Y0042069D01*
X0159859Y0041824D01*
X0160953Y0041701D01*
X0161102Y0041701D01*
X0161102Y0051102D01*
X0151701Y0051102D01*
X0151701Y0050953D01*
X0151824Y0049859D01*
X0152069Y0048786D01*
X0152341Y0048009D01*
X0152184Y0048100D01*
X0149427Y0048839D01*
X0146573Y0048839D01*
X0143816Y0048100D01*
X0143659Y0048009D01*
X0143931Y0048786D01*
X0144176Y0049859D01*
X0144299Y0050953D01*
X0144299Y0051102D01*
X0134898Y0051102D01*
X0134898Y0051906D01*
X0134094Y0051906D01*
X0134094Y0061307D01*
X0133946Y0061307D01*
X0132851Y0061184D01*
X0131778Y0060939D01*
X0130739Y0060575D01*
X0129747Y0060097D01*
X0128814Y0059512D01*
X0127953Y0058825D01*
X0127175Y0058047D01*
X0126488Y0057186D01*
X0125903Y0056253D01*
X0125425Y0055261D01*
X0125061Y0054222D01*
X0124816Y0053149D01*
X0124693Y0052054D01*
X0124693Y0051906D01*
X0134094Y0051906D01*
X0134094Y0051102D01*
X0124693Y0051102D01*
X0124693Y0050953D01*
X0124816Y0049859D01*
X0125061Y0048786D01*
X0125425Y0047747D01*
X0125903Y0046754D01*
X0126488Y0045822D01*
X0127175Y0044961D01*
X0127953Y0044183D01*
X0128814Y0043496D01*
X0129747Y0042910D01*
X0130739Y0042433D01*
X0131778Y0042069D01*
X0132851Y0041824D01*
X0133946Y0041701D01*
X0134094Y0041701D01*
X0134094Y0051102D01*
X0134898Y0051102D01*
X0134898Y0041701D01*
X0135047Y0041701D01*
X0136141Y0041824D01*
X0137214Y0042069D01*
X0137991Y0042341D01*
X0137900Y0042184D01*
X0137161Y0039427D01*
X0137161Y0036573D01*
X0137900Y0033816D01*
X0137991Y0033659D01*
X0137214Y0033931D01*
X0136141Y0034176D01*
X0135047Y0034299D01*
X0134898Y0034299D01*
X0134898Y0024898D01*
X0144299Y0024898D01*
X0144299Y0025047D01*
X0144176Y0026141D01*
X0143931Y0027214D01*
X0143659Y0027991D01*
X0143816Y0027900D01*
X0146573Y0027161D01*
X0149427Y0027161D01*
X0152184Y0027900D01*
X0152341Y0027991D01*
X0152069Y0027214D01*
X0151824Y0026141D01*
X0151701Y0025047D01*
X0151701Y0024898D01*
X0161102Y0024898D01*
X0161102Y0024094D01*
X0161906Y0024094D01*
X0161906Y0014693D01*
X0162054Y0014693D01*
X0163149Y0014816D01*
X0164222Y0015061D01*
X0165261Y0015425D01*
X0166253Y0015903D01*
X0167186Y0016488D01*
X0168047Y0017175D01*
X0168825Y0017953D01*
X0169512Y0018814D01*
X0170097Y0019747D01*
X0170575Y0020739D01*
X0170939Y0021778D01*
X0168862Y0018000D02*
X0236000Y0018000D01*
X0237363Y0014001D02*
X0127090Y0014001D01*
X0127318Y0014230D02*
X0128169Y0015081D01*
X0128767Y0016526D01*
X0128814Y0016488D01*
X0129747Y0015903D01*
X0130739Y0015425D01*
X0131778Y0015061D01*
X0132851Y0014816D01*
X0133946Y0014693D01*
X0134094Y0014693D01*
X0134094Y0024094D01*
X0134898Y0024094D01*
X0134898Y0014693D01*
X0135047Y0014693D01*
X0136141Y0014816D01*
X0137214Y0015061D01*
X0138253Y0015425D01*
X0139245Y0015903D01*
X0140178Y0016488D01*
X0141039Y0017175D01*
X0141817Y0017953D01*
X0142504Y0018814D01*
X0143090Y0019747D01*
X0143567Y0020739D01*
X0143931Y0021778D01*
X0144176Y0022851D01*
X0144299Y0023946D01*
X0144299Y0024094D01*
X0134898Y0024094D01*
X0134898Y0024898D01*
X0134094Y0024898D01*
X0134094Y0034299D01*
X0133946Y0034299D01*
X0132851Y0034176D01*
X0131778Y0033931D01*
X0130739Y0033567D01*
X0129747Y0033090D01*
X0128814Y0032504D01*
X0127953Y0031817D01*
X0127175Y0031039D01*
X0126488Y0030178D01*
X0125903Y0029245D01*
X0125884Y0029208D01*
X0125222Y0029870D01*
X0122484Y0031004D01*
X0116968Y0031004D01*
X0114230Y0029870D01*
X0112134Y0027774D01*
X0111000Y0025036D01*
X0111000Y0016968D01*
X0112134Y0014230D01*
X0114230Y0012134D01*
X0116968Y0011000D01*
X0122484Y0011000D01*
X0125222Y0012134D01*
X0127318Y0014230D01*
X0134094Y0018000D02*
X0134898Y0018000D01*
X0134898Y0021999D02*
X0134094Y0021999D01*
X0134094Y0025997D02*
X0134898Y0025997D01*
X0134898Y0029996D02*
X0134094Y0029996D01*
X0134094Y0033994D02*
X0134898Y0033994D01*
X0136938Y0033994D02*
X0137852Y0033994D01*
X0137161Y0037993D02*
X0078839Y0037993D01*
X0079062Y0033994D02*
X0078148Y0033994D01*
X0081102Y0033994D02*
X0081906Y0033994D01*
X0083945Y0033994D02*
X0132055Y0033994D01*
X0126374Y0029996D02*
X0124920Y0029996D01*
X0114533Y0029996D02*
X0089626Y0029996D01*
X0091200Y0025997D02*
X0111398Y0025997D01*
X0111000Y0021999D02*
X0090989Y0021999D01*
X0088862Y0018000D02*
X0111000Y0018000D01*
X0112363Y0014001D02*
X0044590Y0014001D01*
X0046803Y0018000D02*
X0047138Y0018000D01*
X0054094Y0018000D02*
X0054898Y0018000D01*
X0054898Y0021999D02*
X0054094Y0021999D01*
X0054094Y0025997D02*
X0054898Y0025997D01*
X0054898Y0029996D02*
X0054094Y0029996D01*
X0054094Y0033994D02*
X0054898Y0033994D01*
X0056938Y0033994D02*
X0057852Y0033994D01*
X0057161Y0037993D02*
X0010000Y0037993D01*
X0010000Y0033994D02*
X0052055Y0033994D01*
X0046374Y0029996D02*
X0042420Y0029996D01*
X0032033Y0029996D02*
X0010000Y0029996D01*
X0010000Y0041991D02*
X0052120Y0041991D01*
X0054094Y0041991D02*
X0054898Y0041991D01*
X0056872Y0041991D02*
X0057848Y0041991D01*
X0054898Y0045990D02*
X0054094Y0045990D01*
X0046383Y0045990D02*
X0010000Y0045990D01*
X0010000Y0049988D02*
X0044802Y0049988D01*
X0010000Y0049988D01*
X0010000Y0053987D02*
X0045007Y0053987D01*
X0010000Y0053987D01*
X0010000Y0057985D02*
X0047126Y0057985D01*
X0010000Y0057985D01*
X0010000Y0061984D02*
X0088000Y0061984D01*
X0088000Y0065982D02*
X0010000Y0065982D01*
X0099000Y0065982D01*
X0099000Y0061984D02*
X0010000Y0061984D01*
X0010000Y0069981D02*
X0088000Y0069981D01*
X0088000Y0073979D02*
X0010000Y0073979D01*
X0099000Y0073979D01*
X0099000Y0077978D02*
X0045114Y0077978D01*
X0088000Y0077978D01*
X0088000Y0081976D02*
X0047500Y0081976D01*
X0099000Y0081976D01*
X0099000Y0085975D02*
X0089241Y0085975D01*
X0087186Y0083988D02*
X0086253Y0083403D01*
X0085261Y0082925D01*
X0084222Y0082561D01*
X0083149Y0082316D01*
X0082054Y0082193D01*
X0081906Y0082193D01*
X0081906Y0091594D01*
X0081102Y0091594D01*
X0081102Y0082193D01*
X0080953Y0082193D01*
X0079859Y0082316D01*
X0078786Y0082561D01*
X0077747Y0082925D01*
X0076754Y0083403D01*
X0075822Y0083988D01*
X0074961Y0084675D01*
X0074183Y0085453D01*
X0073496Y0086314D01*
X0072910Y0087247D01*
X0072433Y0088239D01*
X0072069Y0089278D01*
X0071824Y0090351D01*
X0071701Y0091446D01*
X0071701Y0091594D01*
X0081102Y0091594D01*
X0081906Y0091594D01*
X0081906Y0082193D01*
X0082054Y0082193D01*
X0083149Y0082316D01*
X0084222Y0082561D01*
X0085261Y0082925D01*
X0086253Y0083403D01*
X0087186Y0083988D01*
X0081906Y0085975D02*
X0081102Y0085975D01*
X0081906Y0085975D01*
X0081102Y0082193D02*
X0081102Y0091594D01*
X0081102Y0092398D01*
X0081102Y0101799D01*
X0080953Y0101799D01*
X0079859Y0101676D01*
X0078786Y0101431D01*
X0078009Y0101159D01*
X0078100Y0101316D01*
X0078839Y0104073D01*
X0078839Y0106927D01*
X0078100Y0109684D01*
X0078009Y0109841D01*
X0078786Y0109569D01*
X0079859Y0109324D01*
X0080953Y0109201D01*
X0081102Y0109201D01*
X0081102Y0118602D01*
X0071701Y0118602D01*
X0071701Y0118453D01*
X0071824Y0117359D01*
X0072069Y0116286D01*
X0072341Y0115509D01*
X0072184Y0115600D01*
X0069427Y0116339D01*
X0066573Y0116339D01*
X0063816Y0115600D01*
X0063659Y0115509D01*
X0063931Y0116286D01*
X0064176Y0117359D01*
X0064299Y0118453D01*
X0064299Y0118602D01*
X0054898Y0118602D01*
X0054898Y0119406D01*
X0054094Y0119406D01*
X0054094Y0128807D01*
X0053946Y0128807D01*
X0052851Y0128684D01*
X0051778Y0128439D01*
X0050739Y0128075D01*
X0049747Y0127597D01*
X0048814Y0127012D01*
X0047953Y0126325D01*
X0047175Y0125547D01*
X0046488Y0124686D01*
X0045903Y0123753D01*
X0045425Y0122761D01*
X0045061Y0121722D01*
X0044816Y0120649D01*
X0044693Y0119554D01*
X0044693Y0119406D01*
X0054094Y0119406D01*
X0054094Y0128807D01*
X0053946Y0128807D01*
X0052851Y0128684D01*
X0051778Y0128439D01*
X0050739Y0128075D01*
X0049747Y0127597D01*
X0048814Y0127012D01*
X0047953Y0126325D01*
X0047175Y0125547D01*
X0046488Y0124686D01*
X0045903Y0123753D01*
X0045425Y0122761D01*
X0045061Y0121722D01*
X0044816Y0120649D01*
X0044693Y0119554D01*
X0044693Y0119406D01*
X0054094Y0119406D01*
X0054898Y0119406D01*
X0054898Y0128807D01*
X0055047Y0128807D01*
X0056141Y0128684D01*
X0057214Y0128439D01*
X0058253Y0128075D01*
X0059245Y0127597D01*
X0060178Y0127012D01*
X0061039Y0126325D01*
X0061817Y0125547D01*
X0062504Y0124686D01*
X0063090Y0123753D01*
X0063567Y0122761D01*
X0063931Y0121722D01*
X0064176Y0120649D01*
X0064299Y0119554D01*
X0064299Y0119406D01*
X0054898Y0119406D01*
X0054898Y0128807D01*
X0055047Y0128807D01*
X0056141Y0128684D01*
X0057214Y0128439D01*
X0058253Y0128075D01*
X0059245Y0127597D01*
X0060178Y0127012D01*
X0061039Y0126325D01*
X0061817Y0125547D01*
X0062504Y0124686D01*
X0063090Y0123753D01*
X0063567Y0122761D01*
X0063931Y0121722D01*
X0064176Y0120649D01*
X0064299Y0119554D01*
X0064299Y0119406D01*
X0054898Y0119406D01*
X0054898Y0118602D01*
X0064299Y0118602D01*
X0064299Y0118453D01*
X0064176Y0117359D01*
X0063931Y0116286D01*
X0063659Y0115509D01*
X0063816Y0115600D01*
X0066573Y0116339D01*
X0069427Y0116339D01*
X0072184Y0115600D01*
X0072341Y0115509D01*
X0072069Y0116286D01*
X0071824Y0117359D01*
X0071701Y0118453D01*
X0071701Y0118602D01*
X0081102Y0118602D01*
X0081102Y0119406D01*
X0071701Y0119406D01*
X0071701Y0119554D01*
X0071824Y0120649D01*
X0072069Y0121722D01*
X0072433Y0122761D01*
X0072910Y0123753D01*
X0073496Y0124686D01*
X0074183Y0125547D01*
X0074961Y0126325D01*
X0075822Y0127012D01*
X0076091Y0127181D01*
X0062902Y0140370D01*
X0060370Y0142902D01*
X0060153Y0143425D01*
X0053521Y0143425D01*
X0050002Y0144883D01*
X0047308Y0147576D01*
X0045850Y0151095D01*
X0045850Y0154905D01*
X0047308Y0158424D01*
X0050002Y0161117D01*
X0053521Y0162575D01*
X0059000Y0162575D01*
X0059000Y0163425D01*
X0053521Y0163425D01*
X0053389Y0163480D01*
X0052345Y0163047D01*
X0043655Y0163047D01*
X0042000Y0163733D01*
X0042000Y0121728D01*
X0045126Y0118602D01*
X0054094Y0118602D01*
X0054094Y0119406D01*
X0054094Y0118602D01*
X0045126Y0118602D01*
X0042000Y0121728D01*
X0042000Y0163733D01*
X0043655Y0163047D01*
X0052345Y0163047D01*
X0053389Y0163480D01*
X0053521Y0163425D01*
X0059000Y0163425D01*
X0059000Y0162575D01*
X0053521Y0162575D01*
X0050002Y0161117D01*
X0047308Y0158424D01*
X0045850Y0154905D01*
X0045850Y0151095D01*
X0047308Y0147576D01*
X0050002Y0144883D01*
X0053521Y0143425D01*
X0060153Y0143425D01*
X0060370Y0142902D01*
X0062902Y0140370D01*
X0076091Y0127181D01*
X0075822Y0127012D01*
X0074961Y0126325D01*
X0074183Y0125547D01*
X0073496Y0124686D01*
X0072910Y0123753D01*
X0072433Y0122761D01*
X0072069Y0121722D01*
X0071824Y0120649D01*
X0071701Y0119554D01*
X0071701Y0119406D01*
X0081102Y0119406D01*
X0081102Y0118602D01*
X0081906Y0118602D01*
X0081906Y0109201D01*
X0082054Y0109201D01*
X0083149Y0109324D01*
X0084222Y0109569D01*
X0085261Y0109933D01*
X0086253Y0110410D01*
X0087186Y0110996D01*
X0086253Y0110410D01*
X0085261Y0109933D01*
X0084222Y0109569D01*
X0083149Y0109324D01*
X0082054Y0109201D01*
X0081906Y0109201D01*
X0081906Y0118602D01*
X0081102Y0118602D01*
X0081102Y0109201D01*
X0080953Y0109201D01*
X0079859Y0109324D01*
X0078786Y0109569D01*
X0078009Y0109841D01*
X0078100Y0109684D01*
X0078839Y0106927D01*
X0078839Y0104073D01*
X0078100Y0101316D01*
X0078009Y0101159D01*
X0078786Y0101431D01*
X0079859Y0101676D01*
X0080953Y0101799D01*
X0081102Y0101799D01*
X0081102Y0092398D01*
X0081906Y0092398D01*
X0081102Y0092398D01*
X0071701Y0092398D01*
X0071701Y0092547D01*
X0071824Y0093641D01*
X0072069Y0094714D01*
X0072341Y0095491D01*
X0072184Y0095400D01*
X0069427Y0094661D01*
X0066573Y0094661D01*
X0063816Y0095400D01*
X0063659Y0095491D01*
X0063931Y0094714D01*
X0064176Y0093641D01*
X0064299Y0092547D01*
X0064299Y0092398D01*
X0054898Y0092398D01*
X0054898Y0091594D01*
X0054898Y0092398D01*
X0064299Y0092398D01*
X0064299Y0092547D01*
X0064176Y0093641D01*
X0063931Y0094714D01*
X0063659Y0095491D01*
X0063816Y0095400D01*
X0066573Y0094661D01*
X0069427Y0094661D01*
X0072184Y0095400D01*
X0072341Y0095491D01*
X0072069Y0094714D01*
X0071824Y0093641D01*
X0071701Y0092547D01*
X0071701Y0092398D01*
X0081102Y0092398D01*
X0081102Y0091594D01*
X0071701Y0091594D01*
X0071701Y0091446D01*
X0071824Y0090351D01*
X0072069Y0089278D01*
X0072433Y0088239D01*
X0072910Y0087247D01*
X0073496Y0086314D01*
X0074183Y0085453D01*
X0074961Y0084675D01*
X0075822Y0083988D01*
X0076754Y0083403D01*
X0077747Y0082925D01*
X0078786Y0082561D01*
X0079859Y0082316D01*
X0080953Y0082193D01*
X0081102Y0082193D01*
X0081102Y0089973D02*
X0081906Y0089973D01*
X0081102Y0089973D01*
X0081102Y0093972D02*
X0081906Y0093972D01*
X0081102Y0093972D01*
X0081102Y0097970D02*
X0081906Y0097970D01*
X0081102Y0097970D01*
X0078275Y0101969D02*
X0088000Y0101969D01*
X0089278Y0097970D02*
X0099000Y0097970D01*
X0099000Y0093972D02*
X0091108Y0093972D01*
X0091097Y0089973D02*
X0099000Y0089973D01*
X0099000Y0101969D02*
X0078275Y0101969D01*
X0078839Y0105967D02*
X0088000Y0105967D01*
X0088000Y0109966D02*
X0085330Y0109966D01*
X0093306Y0109966D01*
X0097305Y0105967D02*
X0078839Y0105967D01*
X0081102Y0109966D02*
X0081906Y0109966D01*
X0081102Y0109966D01*
X0081102Y0113964D02*
X0081906Y0113964D01*
X0081102Y0113964D01*
X0081102Y0117963D02*
X0081906Y0117963D01*
X0081102Y0117963D01*
X0071756Y0117963D02*
X0064244Y0117963D01*
X0071756Y0117963D01*
X0072153Y0121961D02*
X0063847Y0121961D01*
X0072153Y0121961D01*
X0074596Y0125960D02*
X0061404Y0125960D01*
X0074596Y0125960D01*
X0073314Y0129958D02*
X0042000Y0129958D01*
X0073314Y0129958D01*
X0069315Y0133957D02*
X0042000Y0133957D01*
X0069315Y0133957D01*
X0065317Y0137955D02*
X0042000Y0137955D01*
X0065317Y0137955D01*
X0061318Y0141954D02*
X0042000Y0141954D01*
X0061318Y0141954D01*
X0068000Y0148000D02*
X0068000Y0198000D01*
X0070500Y0200500D01*
X0058000Y0213000D02*
X0098000Y0213000D01*
X0098000Y0228472D01*
X0103472Y0228472D01*
X0123000Y0248000D01*
X0213000Y0248000D01*
X0222953Y0249914D02*
X0409701Y0249914D01*
X0409701Y0253912D02*
X0391387Y0253912D01*
X0389910Y0253300D02*
X0393438Y0254762D01*
X0396138Y0257462D01*
X0397600Y0260990D01*
X0397600Y0264876D01*
X0398543Y0263933D01*
X0401127Y0262441D01*
X0404008Y0261669D01*
X0406992Y0261669D01*
X0409701Y0262395D01*
X0409701Y0193000D01*
X0379116Y0193000D01*
X0378672Y0193443D01*
X0378926Y0193823D01*
X0379152Y0194369D01*
X0379268Y0194949D01*
X0379268Y0198000D01*
X0379268Y0201051D01*
X0379152Y0201631D01*
X0378926Y0202177D01*
X0378598Y0202668D01*
X0378180Y0203086D01*
X0377689Y0203414D01*
X0377143Y0203641D01*
X0376563Y0203756D01*
X0373906Y0203756D01*
X0373906Y0198000D01*
X0379268Y0198000D01*
X0373906Y0198000D01*
X0373906Y0198000D01*
X0373905Y0198000D01*
X0373905Y0203756D01*
X0372000Y0203756D01*
X0372000Y0204790D01*
X0370630Y0208098D01*
X0368098Y0210630D01*
X0362252Y0216476D01*
X0358944Y0217846D01*
X0351760Y0217846D01*
X0351361Y0218012D01*
X0344639Y0218012D01*
X0342066Y0216946D01*
X0340097Y0214977D01*
X0339031Y0212404D01*
X0339031Y0210713D01*
X0339000Y0210637D01*
X0339000Y0210246D01*
X0338599Y0210647D01*
X0338521Y0210679D01*
X0338098Y0211102D01*
X0337634Y0211295D01*
X0337634Y0212527D01*
X0333000Y0212527D01*
X0328366Y0212527D01*
X0328366Y0211295D01*
X0327902Y0211102D01*
X0327479Y0210679D01*
X0327401Y0210647D01*
X0325432Y0208678D01*
X0325400Y0208600D01*
X0325370Y0208571D01*
X0324000Y0205263D01*
X0324000Y0196210D01*
X0325330Y0193000D01*
X0309116Y0193000D01*
X0308672Y0193443D01*
X0308926Y0193823D01*
X0309152Y0194369D01*
X0309268Y0194949D01*
X0309268Y0198000D01*
X0309268Y0201051D01*
X0309152Y0201631D01*
X0308926Y0202177D01*
X0308598Y0202668D01*
X0308180Y0203086D01*
X0307689Y0203414D01*
X0307143Y0203641D01*
X0306563Y0203756D01*
X0303906Y0203756D01*
X0303906Y0198000D01*
X0309268Y0198000D01*
X0303906Y0198000D01*
X0303906Y0198000D01*
X0303905Y0198000D01*
X0303905Y0203756D01*
X0302000Y0203756D01*
X0302000Y0204790D01*
X0300630Y0208098D01*
X0298098Y0210630D01*
X0292252Y0216476D01*
X0288944Y0217846D01*
X0281760Y0217846D01*
X0281361Y0218012D01*
X0274639Y0218012D01*
X0272066Y0216946D01*
X0270097Y0214977D01*
X0269031Y0212404D01*
X0269031Y0210713D01*
X0269000Y0210637D01*
X0269000Y0210246D01*
X0268599Y0210647D01*
X0268521Y0210679D01*
X0268098Y0211102D01*
X0267634Y0211295D01*
X0267634Y0212527D01*
X0263000Y0212527D01*
X0258366Y0212527D01*
X0258366Y0211295D01*
X0257902Y0211102D01*
X0257479Y0210679D01*
X0257401Y0210647D01*
X0255432Y0208678D01*
X0255400Y0208600D01*
X0255370Y0208571D01*
X0254000Y0205263D01*
X0254000Y0199645D01*
X0253047Y0197345D01*
X0253047Y0193000D01*
X0239268Y0193000D01*
X0239268Y0195500D01*
X0239268Y0198551D01*
X0239152Y0199131D01*
X0238926Y0199677D01*
X0238598Y0200168D01*
X0238180Y0200586D01*
X0237689Y0200914D01*
X0237143Y0201141D01*
X0236563Y0201256D01*
X0233906Y0201256D01*
X0233906Y0195500D01*
X0239268Y0195500D01*
X0233906Y0195500D01*
X0233906Y0195500D01*
X0233905Y0195500D01*
X0233905Y0201256D01*
X0232000Y0201256D01*
X0232000Y0202290D01*
X0230630Y0205598D01*
X0228098Y0208130D01*
X0224752Y0211476D01*
X0223206Y0212117D01*
X0218846Y0216476D01*
X0215538Y0217846D01*
X0211760Y0217846D01*
X0211361Y0218012D01*
X0204639Y0218012D01*
X0202066Y0216946D01*
X0200097Y0214977D01*
X0199031Y0212404D01*
X0199031Y0210713D01*
X0199000Y0210637D01*
X0199000Y0210246D01*
X0198599Y0210647D01*
X0198521Y0210679D01*
X0198098Y0211102D01*
X0197634Y0211295D01*
X0197634Y0212527D01*
X0193000Y0212527D01*
X0188366Y0212527D01*
X0188366Y0211295D01*
X0187902Y0211102D01*
X0187479Y0210679D01*
X0187401Y0210647D01*
X0185432Y0208678D01*
X0185400Y0208600D01*
X0185370Y0208571D01*
X0184000Y0205263D01*
X0184000Y0199645D01*
X0183047Y0197345D01*
X0183047Y0193000D01*
X0170706Y0193000D01*
X0170914Y0193311D01*
X0171141Y0193857D01*
X0171256Y0194437D01*
X0171256Y0197094D01*
X0165500Y0197094D01*
X0165500Y0197095D01*
X0171256Y0197095D01*
X0171256Y0199752D01*
X0171172Y0200174D01*
X0172221Y0200609D01*
X0174190Y0202578D01*
X0175256Y0205151D01*
X0175256Y0212660D01*
X0174190Y0215233D01*
X0172221Y0217202D01*
X0169648Y0218268D01*
X0161352Y0218268D01*
X0158779Y0217202D01*
X0158577Y0217000D01*
X0157953Y0217000D01*
X0157953Y0222345D01*
X0156887Y0224918D01*
X0154918Y0226887D01*
X0152345Y0227953D01*
X0147662Y0227953D01*
X0147953Y0228655D01*
X0147953Y0237345D01*
X0147267Y0239000D01*
X0206355Y0239000D01*
X0208655Y0238047D01*
X0217345Y0238047D01*
X0219918Y0239113D01*
X0221887Y0241082D01*
X0222953Y0243655D01*
X0222953Y0252345D01*
X0221887Y0254918D01*
X0219918Y0256887D01*
X0217345Y0257953D01*
X0208655Y0257953D01*
X0206355Y0257000D01*
X0131968Y0257000D01*
X0131968Y0260400D01*
X0132173Y0261598D01*
X0131968Y0262496D01*
X0131968Y0264904D01*
X0130903Y0267477D01*
X0128934Y0269446D01*
X0126361Y0270512D01*
X0122793Y0270512D01*
X0115099Y0271824D01*
X0114721Y0272202D01*
X0112148Y0273268D01*
X0103852Y0273268D01*
X0101279Y0272202D01*
X0099310Y0270233D01*
X0098244Y0267660D01*
X0098244Y0260151D01*
X0099310Y0257578D01*
X0101279Y0255609D01*
X0102328Y0255174D01*
X0102244Y0254752D01*
X0102244Y0252095D01*
X0108000Y0252095D01*
X0108000Y0252094D01*
X0108000Y0246732D01*
X0108000Y0252094D01*
X0108000Y0252094D01*
X0102244Y0252094D01*
X0102244Y0249437D01*
X0102359Y0248857D01*
X0102586Y0248311D01*
X0102914Y0247820D01*
X0103332Y0247402D01*
X0103823Y0247074D01*
X0104369Y0246848D01*
X0104949Y0246732D01*
X0108000Y0246732D01*
X0109004Y0246732D01*
X0102342Y0240070D01*
X0102292Y0240189D01*
X0101964Y0240680D01*
X0101546Y0241098D01*
X0101055Y0241426D01*
X0100509Y0241652D01*
X0099929Y0241768D01*
X0098000Y0241768D01*
X0098000Y0237528D01*
X0098000Y0280961D01*
X0291974Y0280961D01*
X0291642Y0280158D01*
X0291415Y0279310D01*
X0291300Y0278439D01*
X0291300Y0278000D01*
X0297300Y0278000D01*
X0297300Y0278000D01*
X0291300Y0278000D01*
X0291300Y0277561D01*
X0291415Y0276690D01*
X0291642Y0275842D01*
X0291978Y0275030D01*
X0292417Y0274270D01*
X0292952Y0273573D01*
X0293573Y0272952D01*
X0294270Y0272417D01*
X0295030Y0271978D01*
X0295842Y0271642D01*
X0296690Y0271415D01*
X0297561Y0271300D01*
X0298000Y0271300D01*
X0298439Y0271300D01*
X0298963Y0271369D01*
X0298400Y0270010D01*
X0298400Y0260990D01*
X0299862Y0257462D01*
X0302562Y0254762D01*
X0306090Y0253300D01*
X0309910Y0253300D01*
X0313000Y0254580D01*
X0316090Y0253300D01*
X0319910Y0253300D01*
X0323000Y0254580D01*
X0326090Y0253300D01*
X0329910Y0253300D01*
X0333000Y0254580D01*
X0336090Y0253300D01*
X0339910Y0253300D01*
X0343000Y0254580D01*
X0346090Y0253300D01*
X0349910Y0253300D01*
X0353000Y0254580D01*
X0356090Y0253300D01*
X0359910Y0253300D01*
X0363000Y0254580D01*
X0366090Y0253300D01*
X0369910Y0253300D01*
X0373000Y0254580D01*
X0376090Y0253300D01*
X0379910Y0253300D01*
X0383000Y0254580D01*
X0386090Y0253300D01*
X0389910Y0253300D01*
X0384613Y0253912D02*
X0381387Y0253912D01*
X0379910Y0247700D02*
X0376090Y0247700D01*
X0373000Y0246420D01*
X0369910Y0247700D01*
X0366090Y0247700D01*
X0363000Y0246420D01*
X0359910Y0247700D01*
X0356090Y0247700D01*
X0353000Y0246420D01*
X0349910Y0247700D01*
X0346090Y0247700D01*
X0343000Y0246420D01*
X0339910Y0247700D01*
X0336090Y0247700D01*
X0333000Y0246420D01*
X0329910Y0247700D01*
X0326090Y0247700D01*
X0323000Y0246420D01*
X0319910Y0247700D01*
X0316090Y0247700D01*
X0312562Y0246238D01*
X0309862Y0243538D01*
X0309805Y0243402D01*
X0309311Y0243562D01*
X0308441Y0243700D01*
X0308000Y0243700D01*
X0308000Y0235500D01*
X0308000Y0235500D01*
X0308000Y0235500D01*
X0302400Y0235500D01*
X0302400Y0238541D01*
X0302538Y0239411D01*
X0302810Y0240250D01*
X0303210Y0241035D01*
X0303729Y0241748D01*
X0304352Y0242371D01*
X0305065Y0242890D01*
X0305850Y0243290D01*
X0306689Y0243562D01*
X0307559Y0243700D01*
X0308000Y0243700D01*
X0308000Y0235500D01*
X0308000Y0227300D01*
X0308441Y0227300D01*
X0309311Y0227438D01*
X0309805Y0227598D01*
X0309862Y0227462D01*
X0312562Y0224762D01*
X0316090Y0223300D01*
X0319910Y0223300D01*
X0323000Y0224580D01*
X0326090Y0223300D01*
X0329910Y0223300D01*
X0333000Y0224580D01*
X0336090Y0223300D01*
X0339910Y0223300D01*
X0343000Y0224580D01*
X0346090Y0223300D01*
X0349910Y0223300D01*
X0353000Y0224580D01*
X0356090Y0223300D01*
X0359910Y0223300D01*
X0363000Y0224580D01*
X0366090Y0223300D01*
X0369910Y0223300D01*
X0373000Y0224580D01*
X0376090Y0223300D01*
X0379910Y0223300D01*
X0383000Y0224580D01*
X0386090Y0223300D01*
X0389910Y0223300D01*
X0393438Y0224762D01*
X0396138Y0227462D01*
X0397600Y0230990D01*
X0397600Y0240010D01*
X0396138Y0243538D01*
X0393438Y0246238D01*
X0389910Y0247700D01*
X0386090Y0247700D01*
X0383000Y0246420D01*
X0379910Y0247700D01*
X0374613Y0253912D02*
X0371387Y0253912D01*
X0364613Y0253912D02*
X0361387Y0253912D01*
X0354613Y0253912D02*
X0351387Y0253912D01*
X0344613Y0253912D02*
X0341387Y0253912D01*
X0334613Y0253912D02*
X0331387Y0253912D01*
X0324613Y0253912D02*
X0321387Y0253912D01*
X0314613Y0253912D02*
X0311387Y0253912D01*
X0304613Y0253912D02*
X0222304Y0253912D01*
X0217447Y0257911D02*
X0266051Y0257911D01*
X0266651Y0257750D02*
X0269349Y0257750D01*
X0271956Y0258449D01*
X0274294Y0259798D01*
X0276202Y0261706D01*
X0276227Y0261750D01*
X0278000Y0261750D01*
X0281545Y0261750D01*
X0282125Y0261865D01*
X0282671Y0262091D01*
X0283162Y0262420D01*
X0283580Y0262838D01*
X0283909Y0263329D01*
X0284135Y0263875D01*
X0284250Y0264455D01*
X0284250Y0268000D01*
X0284250Y0271545D01*
X0284135Y0272125D01*
X0283909Y0272671D01*
X0283580Y0273162D01*
X0283162Y0273580D01*
X0282671Y0273909D01*
X0282125Y0274135D01*
X0281545Y0274250D01*
X0278000Y0274250D01*
X0278000Y0270282D01*
X0278000Y0270283D01*
X0278000Y0274250D01*
X0276227Y0274250D01*
X0276202Y0274294D01*
X0274294Y0276202D01*
X0271956Y0277551D01*
X0269349Y0278250D01*
X0266651Y0278250D01*
X0264044Y0277551D01*
X0261706Y0276202D01*
X0259798Y0274294D01*
X0258449Y0271956D01*
X0257750Y0269349D01*
X0257750Y0266651D01*
X0258449Y0264044D01*
X0259798Y0261706D01*
X0261706Y0259798D01*
X0264044Y0258449D01*
X0266651Y0257750D01*
X0269949Y0257911D02*
X0299676Y0257911D01*
X0298400Y0261909D02*
X0282231Y0261909D01*
X0278000Y0261909D02*
X0278000Y0261909D01*
X0278000Y0261750D02*
X0278000Y0265718D01*
X0278000Y0265717D01*
X0278000Y0261750D01*
X0284250Y0265908D02*
X0298400Y0265908D01*
X0298400Y0269906D02*
X0284250Y0269906D01*
X0284250Y0268000D02*
X0278250Y0268000D01*
X0278250Y0268000D01*
X0284250Y0268000D01*
X0288000Y0268000D02*
X0278000Y0268000D01*
X0278000Y0273905D02*
X0278000Y0273905D01*
X0282677Y0273905D02*
X0292697Y0273905D01*
X0291300Y0277903D02*
X0270644Y0277903D01*
X0265356Y0277903D02*
X0098000Y0277903D01*
X0098000Y0278000D02*
X0098000Y0248000D01*
X0098000Y0249914D02*
X0102244Y0249914D01*
X0102244Y0253912D02*
X0098000Y0253912D01*
X0098000Y0257911D02*
X0099172Y0257911D01*
X0098244Y0261909D02*
X0098000Y0261909D01*
X0098000Y0265908D02*
X0098244Y0265908D01*
X0098000Y0269906D02*
X0099174Y0269906D01*
X0098000Y0273905D02*
X0259573Y0273905D01*
X0257899Y0269906D02*
X0127823Y0269906D01*
X0131553Y0265908D02*
X0257949Y0265908D01*
X0259681Y0261909D02*
X0132102Y0261909D01*
X0131968Y0257911D02*
X0208553Y0257911D01*
X0222953Y0245915D02*
X0312239Y0245915D01*
X0308000Y0241917D02*
X0308000Y0241917D01*
X0308000Y0237918D02*
X0308000Y0237918D01*
X0308000Y0235500D02*
X0302400Y0235500D01*
X0302400Y0232459D01*
X0302538Y0231589D01*
X0302810Y0230750D01*
X0303210Y0229965D01*
X0303729Y0229252D01*
X0304352Y0228629D01*
X0305065Y0228110D01*
X0305850Y0227710D01*
X0306689Y0227438D01*
X0307559Y0227300D01*
X0308000Y0227300D01*
X0308000Y0235500D01*
X0308000Y0235500D01*
X0308000Y0233920D02*
X0308000Y0233920D01*
X0308000Y0229921D02*
X0308000Y0229921D01*
X0303242Y0229921D02*
X0295400Y0229921D01*
X0295253Y0229566D02*
X0295653Y0230531D01*
X0296307Y0230531D01*
X0296887Y0230647D01*
X0297433Y0230873D01*
X0297924Y0231201D01*
X0298342Y0231619D01*
X0298670Y0232110D01*
X0298897Y0232656D01*
X0299012Y0233236D01*
X0299012Y0235500D01*
X0299012Y0237764D01*
X0298897Y0238344D01*
X0298670Y0238890D01*
X0298342Y0239381D01*
X0297924Y0239799D01*
X0297433Y0240127D01*
X0296887Y0240353D01*
X0296307Y0240468D01*
X0295653Y0240468D01*
X0295253Y0241434D01*
X0293284Y0243403D01*
X0290711Y0244468D01*
X0289020Y0244468D01*
X0288944Y0244500D01*
X0282145Y0244500D01*
X0279845Y0245453D01*
X0271155Y0245453D01*
X0268582Y0244387D01*
X0266613Y0242418D01*
X0265547Y0239845D01*
X0265547Y0231155D01*
X0266613Y0228582D01*
X0268582Y0226613D01*
X0271155Y0225547D01*
X0279845Y0225547D01*
X0282145Y0226500D01*
X0288944Y0226500D01*
X0289020Y0226531D01*
X0290711Y0226531D01*
X0293284Y0227597D01*
X0295253Y0229566D01*
X0293000Y0233846D02*
X0293846Y0235500D01*
X0293000Y0233846D02*
X0300500Y0235500D01*
X0299012Y0235500D02*
X0296319Y0235500D01*
X0296319Y0235500D01*
X0299012Y0235500D01*
X0299012Y0233920D02*
X0302400Y0233920D01*
X0302400Y0237918D02*
X0298981Y0237918D01*
X0294770Y0241917D02*
X0303897Y0241917D01*
X0287154Y0235500D02*
X0275500Y0235500D01*
X0265547Y0233920D02*
X0147953Y0233920D01*
X0147953Y0229921D02*
X0266058Y0229921D01*
X0270249Y0225923D02*
X0155882Y0225923D01*
X0157953Y0221924D02*
X0409701Y0221924D01*
X0409701Y0217926D02*
X0351569Y0217926D01*
X0344431Y0217926D02*
X0281569Y0217926D01*
X0274431Y0217926D02*
X0211569Y0217926D01*
X0204431Y0217926D02*
X0170474Y0217926D01*
X0174731Y0213927D02*
X0188366Y0213927D01*
X0188366Y0214063D02*
X0188366Y0212528D01*
X0193000Y0212528D01*
X0193000Y0216768D01*
X0191071Y0216768D01*
X0190491Y0216652D01*
X0189945Y0216426D01*
X0189454Y0216098D01*
X0189036Y0215680D01*
X0188708Y0215189D01*
X0188481Y0214643D01*
X0188366Y0214063D01*
X0193000Y0213927D02*
X0193000Y0213927D01*
X0193000Y0212528D02*
X0193000Y0212528D01*
X0193000Y0216768D01*
X0194929Y0216768D01*
X0195509Y0216652D01*
X0196055Y0216426D01*
X0196546Y0216098D01*
X0196964Y0215680D01*
X0197292Y0215189D01*
X0197519Y0214643D01*
X0197634Y0214063D01*
X0197634Y0212528D01*
X0193000Y0212528D01*
X0193000Y0212527D01*
X0193000Y0212528D01*
X0197634Y0213927D02*
X0199662Y0213927D01*
X0208000Y0208846D02*
X0213748Y0208846D01*
X0218748Y0203846D01*
X0219654Y0203846D01*
X0223000Y0200500D01*
X0223000Y0196406D01*
X0222094Y0195500D01*
X0232000Y0201932D02*
X0254000Y0201932D01*
X0253291Y0197933D02*
X0239268Y0197933D01*
X0239268Y0193934D02*
X0253047Y0193934D01*
X0253000Y0193000D02*
X0253000Y0183000D01*
X0263000Y0193000D02*
X0278000Y0193000D01*
X0278000Y0202154D01*
X0278000Y0208846D02*
X0287154Y0208846D01*
X0293000Y0203000D01*
X0293000Y0198906D01*
X0292094Y0198000D01*
X0301528Y0205930D02*
X0324276Y0205930D01*
X0326683Y0209929D02*
X0298799Y0209929D01*
X0294801Y0213927D02*
X0328366Y0213927D01*
X0328366Y0214063D02*
X0328366Y0212528D01*
X0333000Y0212528D01*
X0333000Y0216768D01*
X0331071Y0216768D01*
X0330491Y0216652D01*
X0329945Y0216426D01*
X0329454Y0216098D01*
X0329036Y0215680D01*
X0328708Y0215189D01*
X0328481Y0214643D01*
X0328366Y0214063D01*
X0333000Y0213927D02*
X0333000Y0213927D01*
X0333000Y0212528D02*
X0333000Y0212528D01*
X0333000Y0216768D01*
X0334929Y0216768D01*
X0335509Y0216652D01*
X0336055Y0216426D01*
X0336546Y0216098D01*
X0336964Y0215680D01*
X0337292Y0215189D01*
X0337519Y0214643D01*
X0337634Y0214063D01*
X0337634Y0212528D01*
X0333000Y0212528D01*
X0333000Y0212527D01*
X0333000Y0212528D01*
X0337634Y0213927D02*
X0339662Y0213927D01*
X0348000Y0208846D02*
X0357154Y0208846D01*
X0363000Y0203000D01*
X0363000Y0198906D01*
X0362094Y0198000D01*
X0373905Y0201932D02*
X0373906Y0201932D01*
X0371528Y0205930D02*
X0409701Y0205930D01*
X0409701Y0209929D02*
X0368799Y0209929D01*
X0364801Y0213927D02*
X0409701Y0213927D01*
X0409701Y0225923D02*
X0394599Y0225923D01*
X0397157Y0229921D02*
X0409701Y0229921D01*
X0409701Y0233920D02*
X0397600Y0233920D01*
X0397600Y0237918D02*
X0409701Y0237918D01*
X0409701Y0241917D02*
X0396810Y0241917D01*
X0393761Y0245915D02*
X0409701Y0245915D01*
X0409701Y0257911D02*
X0396324Y0257911D01*
X0397600Y0261909D02*
X0403113Y0261909D01*
X0407887Y0261909D02*
X0409701Y0261909D01*
X0348000Y0202154D02*
X0348000Y0193000D01*
X0343000Y0188000D01*
X0333000Y0198000D01*
X0333000Y0203472D01*
X0324000Y0201932D02*
X0309028Y0201932D01*
X0309268Y0197933D02*
X0324000Y0197933D01*
X0324942Y0193934D02*
X0308972Y0193934D01*
X0303905Y0201932D02*
X0303906Y0201932D01*
X0323000Y0193000D02*
X0323000Y0183000D01*
X0323641Y0168000D02*
X0312359Y0168000D01*
X0312575Y0167479D01*
X0312575Y0162953D01*
X0317345Y0162953D01*
X0319918Y0161887D01*
X0321887Y0159918D01*
X0322953Y0157345D01*
X0322953Y0152000D01*
X0324790Y0152000D01*
X0328098Y0150630D01*
X0335775Y0142953D01*
X0337345Y0142953D01*
X0339918Y0141887D01*
X0341887Y0139918D01*
X0342953Y0137345D01*
X0342953Y0130680D01*
X0343253Y0130575D01*
X0344245Y0130097D01*
X0345178Y0129512D01*
X0346039Y0128825D01*
X0346817Y0128047D01*
X0347504Y0127186D01*
X0348090Y0126253D01*
X0348567Y0125261D01*
X0348931Y0124222D01*
X0349176Y0123149D01*
X0349299Y0122054D01*
X0349299Y0121906D01*
X0339898Y0121906D01*
X0339898Y0121102D01*
X0349299Y0121102D01*
X0349299Y0120953D01*
X0349176Y0119859D01*
X0348931Y0118786D01*
X0348659Y0118009D01*
X0348816Y0118100D01*
X0351573Y0118839D01*
X0354427Y0118839D01*
X0357184Y0118100D01*
X0357341Y0118009D01*
X0357069Y0118786D01*
X0356824Y0119859D01*
X0356701Y0120953D01*
X0356701Y0121102D01*
X0366102Y0121102D01*
X0366102Y0121906D01*
X0356701Y0121906D01*
X0356701Y0122054D01*
X0356824Y0123149D01*
X0357069Y0124222D01*
X0357433Y0125261D01*
X0357910Y0126253D01*
X0358496Y0127186D01*
X0359183Y0128047D01*
X0359961Y0128825D01*
X0360181Y0129000D01*
X0356210Y0129000D01*
X0352902Y0130370D01*
X0350370Y0132902D01*
X0345370Y0137902D01*
X0344000Y0141210D01*
X0344000Y0146355D01*
X0343047Y0148655D01*
X0343047Y0157345D01*
X0343480Y0158389D01*
X0343425Y0158521D01*
X0343425Y0167479D01*
X0343641Y0168000D01*
X0342359Y0168000D01*
X0342575Y0167479D01*
X0342575Y0158521D01*
X0341117Y0155002D01*
X0338424Y0152308D01*
X0334905Y0150850D01*
X0331095Y0150850D01*
X0327576Y0152308D01*
X0324883Y0155002D01*
X0323425Y0158521D01*
X0323425Y0167479D01*
X0323641Y0168000D01*
X0323425Y0165945D02*
X0312575Y0165945D01*
X0319775Y0161946D02*
X0323425Y0161946D01*
X0323662Y0157948D02*
X0322703Y0157948D01*
X0322953Y0153949D02*
X0325935Y0153949D01*
X0328777Y0149951D02*
X0343047Y0149951D01*
X0343047Y0153949D02*
X0340065Y0153949D01*
X0342338Y0157948D02*
X0343297Y0157948D01*
X0343425Y0161946D02*
X0342575Y0161946D01*
X0342575Y0165945D02*
X0343425Y0165945D01*
X0353000Y0153000D02*
X0353000Y0143000D01*
X0358000Y0138000D01*
X0378000Y0138000D01*
X0383000Y0133000D01*
X0383000Y0083000D01*
X0368000Y0068000D01*
X0263000Y0068000D01*
X0238000Y0093000D01*
X0247953Y0095775D02*
X0247953Y0097345D01*
X0246887Y0099918D01*
X0244918Y0101887D01*
X0242345Y0102953D01*
X0233655Y0102953D01*
X0231082Y0101887D01*
X0230631Y0101436D01*
X0228181Y0102451D01*
X0221814Y0102451D01*
X0219599Y0101533D01*
X0219570Y0101562D01*
X0217130Y0102971D01*
X0214409Y0103700D01*
X0211591Y0103700D01*
X0208870Y0102971D01*
X0206430Y0101562D01*
X0204438Y0099570D01*
X0203029Y0097130D01*
X0202300Y0094409D01*
X0202300Y0091591D01*
X0203029Y0088870D01*
X0203531Y0088000D01*
X0203029Y0087130D01*
X0202727Y0086001D01*
X0197000Y0091728D01*
X0197000Y0094272D01*
X0220630Y0117902D01*
X0222000Y0121210D01*
X0222000Y0136272D01*
X0222902Y0135370D01*
X0226210Y0134000D01*
X0243500Y0134000D01*
X0243500Y0129468D01*
X0244634Y0126730D01*
X0246730Y0124634D01*
X0249468Y0123500D01*
X0252432Y0123500D01*
X0252651Y0123591D01*
X0252871Y0123500D01*
X0254896Y0123500D01*
X0254816Y0123149D01*
X0254693Y0122054D01*
X0254693Y0121906D01*
X0264094Y0121906D01*
X0264094Y0131307D01*
X0263946Y0131307D01*
X0262851Y0131184D01*
X0261803Y0130944D01*
X0261803Y0134000D01*
X0319272Y0134000D01*
X0322268Y0131004D01*
X0317819Y0131004D01*
X0315081Y0129870D01*
X0314230Y0129019D01*
X0312134Y0126924D01*
X0311000Y0124186D01*
X0311000Y0117819D01*
X0312134Y0115081D01*
X0312985Y0114230D01*
X0315081Y0112134D01*
X0317819Y0111000D01*
X0322484Y0111000D01*
X0325222Y0112134D01*
X0326073Y0112985D01*
X0328169Y0115081D01*
X0329303Y0117819D01*
X0329303Y0123047D01*
X0329805Y0123047D01*
X0329693Y0122054D01*
X0329693Y0121906D01*
X0339094Y0121906D01*
X0339094Y0121102D01*
X0329693Y0121102D01*
X0329693Y0120953D01*
X0329816Y0119859D01*
X0330061Y0118786D01*
X0330425Y0117747D01*
X0330903Y0116754D01*
X0331488Y0115822D01*
X0332175Y0114961D01*
X0332953Y0114183D01*
X0333814Y0113496D01*
X0334747Y0112910D01*
X0335739Y0112433D01*
X0336778Y0112069D01*
X0337851Y0111824D01*
X0338946Y0111701D01*
X0339094Y0111701D01*
X0339094Y0121102D01*
X0339898Y0121102D01*
X0339898Y0111701D01*
X0340047Y0111701D01*
X0341141Y0111824D01*
X0342214Y0112069D01*
X0342991Y0112341D01*
X0342900Y0112184D01*
X0342161Y0109427D01*
X0342161Y0106573D01*
X0342900Y0103816D01*
X0342991Y0103659D01*
X0342214Y0103931D01*
X0341141Y0104176D01*
X0340047Y0104299D01*
X0339898Y0104299D01*
X0339898Y0094898D01*
X0339094Y0094898D01*
X0339094Y0094094D01*
X0329693Y0094094D01*
X0329693Y0093946D01*
X0329816Y0092851D01*
X0330061Y0091778D01*
X0330425Y0090739D01*
X0330903Y0089747D01*
X0331488Y0088814D01*
X0332175Y0087953D01*
X0332176Y0087953D01*
X0328655Y0087953D01*
X0326082Y0086887D01*
X0324113Y0084918D01*
X0323047Y0082345D01*
X0323047Y0077000D01*
X0307953Y0077000D01*
X0307953Y0082345D01*
X0306887Y0084918D01*
X0304918Y0086887D01*
X0302345Y0087953D01*
X0298824Y0087953D01*
X0298825Y0087953D01*
X0299512Y0088814D01*
X0300097Y0089747D01*
X0300575Y0090739D01*
X0300939Y0091778D01*
X0301184Y0092851D01*
X0301307Y0093946D01*
X0301307Y0094094D01*
X0291906Y0094094D01*
X0291906Y0094898D01*
X0301307Y0094898D01*
X0301307Y0095047D01*
X0301184Y0096141D01*
X0300939Y0097214D01*
X0300575Y0098253D01*
X0300097Y0099245D01*
X0299512Y0100178D01*
X0298825Y0101039D01*
X0298047Y0101817D01*
X0297186Y0102504D01*
X0296253Y0103090D01*
X0295261Y0103567D01*
X0294222Y0103931D01*
X0293149Y0104176D01*
X0292054Y0104299D01*
X0291906Y0104299D01*
X0291906Y0094898D01*
X0291102Y0094898D01*
X0291102Y0104299D01*
X0290953Y0104299D01*
X0289859Y0104176D01*
X0288786Y0103931D01*
X0288009Y0103659D01*
X0288100Y0103816D01*
X0288839Y0106573D01*
X0288839Y0109427D01*
X0288100Y0112184D01*
X0288009Y0112341D01*
X0288786Y0112069D01*
X0289859Y0111824D01*
X0290953Y0111701D01*
X0291102Y0111701D01*
X0291102Y0121102D01*
X0281701Y0121102D01*
X0281701Y0120953D01*
X0281824Y0119859D01*
X0282069Y0118786D01*
X0282341Y0118009D01*
X0282184Y0118100D01*
X0279427Y0118839D01*
X0276573Y0118839D01*
X0273816Y0118100D01*
X0273659Y0118009D01*
X0273931Y0118786D01*
X0274176Y0119859D01*
X0274299Y0120953D01*
X0274299Y0121102D01*
X0264898Y0121102D01*
X0264898Y0121906D01*
X0264094Y0121906D01*
X0264094Y0121102D01*
X0254693Y0121102D01*
X0254693Y0120953D01*
X0254816Y0119859D01*
X0255061Y0118786D01*
X0255425Y0117747D01*
X0255903Y0116754D01*
X0256488Y0115822D01*
X0257175Y0114961D01*
X0257953Y0114183D01*
X0258814Y0113496D01*
X0259747Y0112910D01*
X0260739Y0112433D01*
X0261778Y0112069D01*
X0262851Y0111824D01*
X0263946Y0111701D01*
X0264094Y0111701D01*
X0264094Y0121102D01*
X0264898Y0121102D01*
X0264898Y0111701D01*
X0265047Y0111701D01*
X0266141Y0111824D01*
X0267214Y0112069D01*
X0267991Y0112341D01*
X0267900Y0112184D01*
X0267161Y0109427D01*
X0267161Y0106573D01*
X0267900Y0103816D01*
X0267991Y0103659D01*
X0267214Y0103931D01*
X0266141Y0104176D01*
X0265047Y0104299D01*
X0264898Y0104299D01*
X0264898Y0094898D01*
X0274299Y0094898D01*
X0274299Y0095047D01*
X0274176Y0096141D01*
X0273931Y0097214D01*
X0273659Y0097991D01*
X0273816Y0097900D01*
X0276573Y0097161D01*
X0279427Y0097161D01*
X0282184Y0097900D01*
X0282341Y0097991D01*
X0282069Y0097214D01*
X0281824Y0096141D01*
X0281701Y0095047D01*
X0281701Y0094898D01*
X0291102Y0094898D01*
X0291102Y0094094D01*
X0281701Y0094094D01*
X0281701Y0093946D01*
X0281824Y0092851D01*
X0282069Y0091778D01*
X0282433Y0090739D01*
X0282910Y0089747D01*
X0283496Y0088814D01*
X0284183Y0087953D01*
X0284961Y0087175D01*
X0285181Y0087000D01*
X0270819Y0087000D01*
X0271039Y0087175D01*
X0271817Y0087953D01*
X0272504Y0088814D01*
X0273090Y0089747D01*
X0273567Y0090739D01*
X0273931Y0091778D01*
X0274176Y0092851D01*
X0274299Y0093946D01*
X0274299Y0094094D01*
X0264898Y0094094D01*
X0264898Y0094898D01*
X0264094Y0094898D01*
X0264094Y0094094D01*
X0254693Y0094094D01*
X0254693Y0093946D01*
X0254816Y0092851D01*
X0255061Y0091778D01*
X0255425Y0090739D01*
X0255903Y0089747D01*
X0256488Y0088814D01*
X0257175Y0087953D01*
X0257609Y0087519D01*
X0256619Y0087109D01*
X0247953Y0095775D01*
X0247694Y0097970D02*
X0255326Y0097970D01*
X0255425Y0098253D02*
X0255061Y0097214D01*
X0254816Y0096141D01*
X0254693Y0095047D01*
X0254693Y0094898D01*
X0264094Y0094898D01*
X0264094Y0104299D01*
X0263946Y0104299D01*
X0262851Y0104176D01*
X0261778Y0103931D01*
X0260739Y0103567D01*
X0259747Y0103090D01*
X0258814Y0102504D01*
X0257953Y0101817D01*
X0257175Y0101039D01*
X0256488Y0100178D01*
X0255903Y0099245D01*
X0255425Y0098253D01*
X0254693Y0093972D02*
X0249756Y0093972D01*
X0253755Y0089973D02*
X0255793Y0089973D01*
X0264094Y0097970D02*
X0264898Y0097970D01*
X0264898Y0101969D02*
X0264094Y0101969D01*
X0258143Y0101969D02*
X0244721Y0101969D01*
X0231279Y0101969D02*
X0229346Y0101969D01*
X0220650Y0101969D02*
X0218866Y0101969D01*
X0208695Y0105967D02*
X0267324Y0105967D01*
X0267306Y0109966D02*
X0212694Y0109966D01*
X0216692Y0113964D02*
X0258227Y0113964D01*
X0264094Y0113964D02*
X0264898Y0113964D01*
X0264898Y0117963D02*
X0264094Y0117963D01*
X0264094Y0121961D02*
X0264898Y0121961D01*
X0264898Y0121906D02*
X0264898Y0131307D01*
X0265047Y0131307D01*
X0266141Y0131184D01*
X0267214Y0130939D01*
X0268253Y0130575D01*
X0269245Y0130097D01*
X0270178Y0129512D01*
X0271039Y0128825D01*
X0271817Y0128047D01*
X0272504Y0127186D01*
X0273090Y0126253D01*
X0273567Y0125261D01*
X0273931Y0124222D01*
X0274176Y0123149D01*
X0274299Y0122054D01*
X0274299Y0121906D01*
X0264898Y0121906D01*
X0264898Y0125960D02*
X0264094Y0125960D01*
X0264094Y0129958D02*
X0264898Y0129958D01*
X0261803Y0133957D02*
X0319315Y0133957D01*
X0315293Y0129958D02*
X0296475Y0129958D01*
X0296253Y0130097D02*
X0295261Y0130575D01*
X0294222Y0130939D01*
X0293149Y0131184D01*
X0292054Y0131307D01*
X0291906Y0131307D01*
X0291906Y0121906D01*
X0291102Y0121906D01*
X0291102Y0131307D01*
X0290953Y0131307D01*
X0289859Y0131184D01*
X0288786Y0130939D01*
X0287747Y0130575D01*
X0286754Y0130097D01*
X0285822Y0129512D01*
X0284961Y0128825D01*
X0284183Y0128047D01*
X0283496Y0127186D01*
X0282910Y0126253D01*
X0282433Y0125261D01*
X0282069Y0124222D01*
X0281824Y0123149D01*
X0281701Y0122054D01*
X0281701Y0121906D01*
X0291102Y0121906D01*
X0291102Y0121102D01*
X0291906Y0121102D01*
X0291906Y0121906D01*
X0301307Y0121906D01*
X0301307Y0122054D01*
X0301184Y0123149D01*
X0300939Y0124222D01*
X0300575Y0125261D01*
X0300097Y0126253D01*
X0299512Y0127186D01*
X0298825Y0128047D01*
X0298047Y0128825D01*
X0297186Y0129512D01*
X0296253Y0130097D01*
X0291906Y0129958D02*
X0291102Y0129958D01*
X0291102Y0125960D02*
X0291906Y0125960D01*
X0286533Y0129958D02*
X0269467Y0129958D01*
X0273231Y0125960D02*
X0282769Y0125960D01*
X0281701Y0121961D02*
X0274299Y0121961D01*
X0291102Y0121961D02*
X0291906Y0121961D01*
X0291906Y0121102D02*
X0301307Y0121102D01*
X0301307Y0120953D01*
X0301184Y0119859D01*
X0300939Y0118786D01*
X0300575Y0117747D01*
X0300097Y0116754D01*
X0299512Y0115822D01*
X0298825Y0114961D01*
X0298047Y0114183D01*
X0297186Y0113496D01*
X0296253Y0112910D01*
X0295261Y0112433D01*
X0294222Y0112069D01*
X0293149Y0111824D01*
X0292054Y0111701D01*
X0291906Y0111701D01*
X0291906Y0121102D01*
X0291906Y0117963D02*
X0291102Y0117963D01*
X0291102Y0113964D02*
X0291906Y0113964D01*
X0288694Y0109966D02*
X0342306Y0109966D01*
X0342324Y0105967D02*
X0288676Y0105967D01*
X0291102Y0101969D02*
X0291906Y0101969D01*
X0291906Y0097970D02*
X0291102Y0097970D01*
X0297857Y0101969D02*
X0333143Y0101969D01*
X0332953Y0101817D02*
X0332175Y0101039D01*
X0331488Y0100178D01*
X0330903Y0099245D01*
X0330425Y0098253D01*
X0330061Y0097214D01*
X0329816Y0096141D01*
X0329693Y0095047D01*
X0329693Y0094898D01*
X0339094Y0094898D01*
X0339094Y0104299D01*
X0338946Y0104299D01*
X0337851Y0104176D01*
X0336778Y0103931D01*
X0335739Y0103567D01*
X0334747Y0103090D01*
X0333814Y0102504D01*
X0332953Y0101817D01*
X0330326Y0097970D02*
X0300674Y0097970D01*
X0301307Y0093972D02*
X0329693Y0093972D01*
X0330793Y0089973D02*
X0300207Y0089973D01*
X0305830Y0085975D02*
X0325170Y0085975D01*
X0323047Y0081976D02*
X0307953Y0081976D01*
X0307953Y0077978D02*
X0323047Y0077978D01*
X0342953Y0077978D02*
X0365250Y0077978D01*
X0364272Y0077000D02*
X0342953Y0077000D01*
X0342953Y0082345D01*
X0341887Y0084918D01*
X0341831Y0084974D01*
X0342214Y0085061D01*
X0343253Y0085425D01*
X0344245Y0085903D01*
X0345178Y0086488D01*
X0346039Y0087175D01*
X0346817Y0087953D01*
X0347504Y0088814D01*
X0348090Y0089747D01*
X0348567Y0090739D01*
X0348931Y0091778D01*
X0349176Y0092851D01*
X0349299Y0093946D01*
X0349299Y0094094D01*
X0339898Y0094094D01*
X0339898Y0094898D01*
X0349299Y0094898D01*
X0349299Y0095047D01*
X0349176Y0096141D01*
X0348931Y0097214D01*
X0348659Y0097991D01*
X0348816Y0097900D01*
X0351573Y0097161D01*
X0354427Y0097161D01*
X0357184Y0097900D01*
X0357341Y0097991D01*
X0357069Y0097214D01*
X0356824Y0096141D01*
X0356701Y0095047D01*
X0356701Y0094898D01*
X0366102Y0094898D01*
X0366102Y0104299D01*
X0365953Y0104299D01*
X0364859Y0104176D01*
X0363786Y0103931D01*
X0363009Y0103659D01*
X0363100Y0103816D01*
X0363839Y0106573D01*
X0363839Y0109427D01*
X0363100Y0112184D01*
X0363009Y0112341D01*
X0363786Y0112069D01*
X0364859Y0111824D01*
X0365953Y0111701D01*
X0366102Y0111701D01*
X0366102Y0121102D01*
X0366906Y0121102D01*
X0366906Y0111701D01*
X0367054Y0111701D01*
X0368149Y0111824D01*
X0369222Y0112069D01*
X0370261Y0112433D01*
X0371253Y0112910D01*
X0372186Y0113496D01*
X0373047Y0114183D01*
X0373825Y0114961D01*
X0374000Y0115181D01*
X0374000Y0100819D01*
X0373825Y0101039D01*
X0373047Y0101817D01*
X0372186Y0102504D01*
X0371253Y0103090D01*
X0370261Y0103567D01*
X0369222Y0103931D01*
X0368149Y0104176D01*
X0367054Y0104299D01*
X0366906Y0104299D01*
X0366906Y0094898D01*
X0366102Y0094898D01*
X0366102Y0094094D01*
X0366906Y0094094D01*
X0366906Y0084693D01*
X0367054Y0084693D01*
X0368149Y0084816D01*
X0369222Y0085061D01*
X0370261Y0085425D01*
X0371253Y0085903D01*
X0372186Y0086488D01*
X0373047Y0087175D01*
X0373825Y0087953D01*
X0374000Y0088173D01*
X0374000Y0086728D01*
X0364272Y0077000D01*
X0369248Y0081976D02*
X0342953Y0081976D01*
X0344360Y0085975D02*
X0361640Y0085975D01*
X0361754Y0085903D02*
X0362747Y0085425D01*
X0363786Y0085061D01*
X0364859Y0084816D01*
X0365953Y0084693D01*
X0366102Y0084693D01*
X0366102Y0094094D01*
X0356701Y0094094D01*
X0356701Y0093946D01*
X0356824Y0092851D01*
X0357069Y0091778D01*
X0357433Y0090739D01*
X0357910Y0089747D01*
X0358496Y0088814D01*
X0359183Y0087953D01*
X0359961Y0087175D01*
X0360822Y0086488D01*
X0361754Y0085903D01*
X0366102Y0085975D02*
X0366906Y0085975D01*
X0366906Y0089973D02*
X0366102Y0089973D01*
X0366102Y0093972D02*
X0366906Y0093972D01*
X0366906Y0097970D02*
X0366102Y0097970D01*
X0366102Y0101969D02*
X0366906Y0101969D01*
X0372857Y0101969D02*
X0374000Y0101969D01*
X0374000Y0105967D02*
X0363676Y0105967D01*
X0363694Y0109966D02*
X0374000Y0109966D01*
X0374000Y0113964D02*
X0372773Y0113964D01*
X0366906Y0113964D02*
X0366102Y0113964D01*
X0366102Y0117963D02*
X0366906Y0117963D01*
X0356701Y0121961D02*
X0349299Y0121961D01*
X0348231Y0125960D02*
X0357769Y0125960D01*
X0353896Y0129958D02*
X0344467Y0129958D01*
X0342953Y0133957D02*
X0349315Y0133957D01*
X0345348Y0137955D02*
X0342700Y0137955D01*
X0344000Y0141954D02*
X0339757Y0141954D01*
X0344000Y0145952D02*
X0332776Y0145952D01*
X0323000Y0143000D02*
X0333000Y0133000D01*
X0323000Y0143000D02*
X0228000Y0143000D01*
X0223000Y0148000D01*
X0223000Y0153000D01*
X0213000Y0153000D02*
X0213000Y0123000D01*
X0188000Y0098000D01*
X0188000Y0088000D01*
X0203000Y0073000D01*
X0194213Y0065982D02*
X0117000Y0065982D01*
X0117000Y0061984D02*
X0202300Y0061984D01*
X0202300Y0057985D02*
X0168874Y0057985D01*
X0168825Y0058047D02*
X0168047Y0058825D01*
X0167186Y0059512D01*
X0166253Y0060097D01*
X0165261Y0060575D01*
X0164222Y0060939D01*
X0163149Y0061184D01*
X0162054Y0061307D01*
X0161906Y0061307D01*
X0161906Y0051906D01*
X0161102Y0051906D01*
X0161102Y0061307D01*
X0160953Y0061307D01*
X0159859Y0061184D01*
X0158786Y0060939D01*
X0157747Y0060575D01*
X0156754Y0060097D01*
X0155822Y0059512D01*
X0154961Y0058825D01*
X0154183Y0058047D01*
X0153496Y0057186D01*
X0152910Y0056253D01*
X0152433Y0055261D01*
X0152069Y0054222D01*
X0151824Y0053149D01*
X0151701Y0052054D01*
X0151701Y0051906D01*
X0161102Y0051906D01*
X0161102Y0051102D01*
X0161906Y0051102D01*
X0161906Y0051906D01*
X0171307Y0051906D01*
X0171307Y0052054D01*
X0171184Y0053149D01*
X0170939Y0054222D01*
X0170575Y0055261D01*
X0170097Y0056253D01*
X0169512Y0057186D01*
X0168825Y0058047D01*
X0170993Y0053987D02*
X0204714Y0053987D01*
X0193047Y0069981D02*
X0117000Y0069981D01*
X0117000Y0073979D02*
X0189293Y0073979D01*
X0185294Y0077978D02*
X0127614Y0077978D01*
X0130000Y0081976D02*
X0181296Y0081976D01*
X0179097Y0085975D02*
X0169241Y0085975D01*
X0171097Y0089973D02*
X0179000Y0089973D01*
X0179000Y0093972D02*
X0171108Y0093972D01*
X0169278Y0097970D02*
X0179000Y0097970D01*
X0179902Y0101969D02*
X0158275Y0101969D01*
X0161102Y0097970D02*
X0161906Y0097970D01*
X0161906Y0093972D02*
X0161102Y0093972D01*
X0161102Y0089973D02*
X0161906Y0089973D01*
X0161906Y0085975D02*
X0161102Y0085975D01*
X0153767Y0085975D02*
X0142233Y0085975D01*
X0144090Y0089973D02*
X0151910Y0089973D01*
X0151900Y0093972D02*
X0144100Y0093972D01*
X0134898Y0093972D02*
X0134094Y0093972D01*
X0134094Y0097970D02*
X0134898Y0097970D01*
X0137725Y0101969D02*
X0117000Y0101969D01*
X0117000Y0097970D02*
X0126722Y0097970D01*
X0134094Y0089973D02*
X0134898Y0089973D01*
X0134898Y0085975D02*
X0134094Y0085975D01*
X0137161Y0105967D02*
X0117000Y0105967D01*
X0116927Y0109966D02*
X0130670Y0109966D01*
X0134094Y0109966D02*
X0134898Y0109966D01*
X0134898Y0113964D02*
X0134094Y0113964D01*
X0134094Y0117963D02*
X0134898Y0117963D01*
X0134898Y0119406D02*
X0144299Y0119406D01*
X0144299Y0119554D01*
X0144176Y0120649D01*
X0143931Y0121722D01*
X0143567Y0122761D01*
X0143090Y0123753D01*
X0142504Y0124686D01*
X0141817Y0125547D01*
X0141039Y0126325D01*
X0140178Y0127012D01*
X0139245Y0127597D01*
X0138253Y0128075D01*
X0137214Y0128439D01*
X0136141Y0128684D01*
X0135047Y0128807D01*
X0134898Y0128807D01*
X0134898Y0119406D01*
X0134898Y0121961D02*
X0134094Y0121961D01*
X0134094Y0125960D02*
X0134898Y0125960D01*
X0141404Y0125960D02*
X0154596Y0125960D01*
X0152153Y0121961D02*
X0143847Y0121961D01*
X0144244Y0117963D02*
X0151756Y0117963D01*
X0161102Y0117963D02*
X0161906Y0117963D01*
X0161906Y0121961D02*
X0161102Y0121961D01*
X0161102Y0125960D02*
X0161906Y0125960D01*
X0168412Y0125960D02*
X0203232Y0125960D01*
X0204000Y0129958D02*
X0098770Y0129958D01*
X0102768Y0125960D02*
X0127588Y0125960D01*
X0125145Y0121961D02*
X0106767Y0121961D01*
X0110765Y0117963D02*
X0124748Y0117963D01*
X0126085Y0113964D02*
X0114764Y0113964D01*
X0108000Y0108000D02*
X0068000Y0148000D01*
X0087068Y0145952D02*
X0099243Y0145952D01*
X0098047Y0149951D02*
X0089675Y0149951D01*
X0090150Y0153949D02*
X0091477Y0153949D01*
X0098000Y0163000D02*
X0098000Y0168000D01*
X0098000Y0183000D01*
X0098000Y0193472D01*
X0098000Y0202528D02*
X0107567Y0202528D01*
X0108000Y0202094D01*
X0108000Y0202095D01*
X0113756Y0202095D01*
X0113756Y0204752D01*
X0113725Y0204906D01*
X0115696Y0204906D01*
X0119004Y0206276D01*
X0126700Y0213972D01*
X0126917Y0214000D01*
X0128137Y0214000D01*
X0128677Y0214224D01*
X0129258Y0214298D01*
X0130317Y0214903D01*
X0131445Y0215370D01*
X0131858Y0215784D01*
X0132367Y0216075D01*
X0133114Y0217039D01*
X0133976Y0217902D01*
X0134200Y0218443D01*
X0134559Y0218906D01*
X0134880Y0220083D01*
X0135346Y0221210D01*
X0135346Y0221795D01*
X0135500Y0222360D01*
X0135413Y0223047D01*
X0138338Y0223047D01*
X0138047Y0222345D01*
X0138047Y0213655D01*
X0139000Y0211355D01*
X0139000Y0209556D01*
X0139031Y0209480D01*
X0139031Y0206520D01*
X0139000Y0206444D01*
X0139000Y0202863D01*
X0139031Y0202787D01*
X0139031Y0201096D01*
X0140097Y0198523D01*
X0142066Y0196554D01*
X0144639Y0195488D01*
X0151361Y0195488D01*
X0151760Y0195654D01*
X0156444Y0195654D01*
X0159744Y0197021D01*
X0159744Y0194590D01*
X0158000Y0193867D01*
X0154905Y0195150D01*
X0151095Y0195150D01*
X0148000Y0193867D01*
X0144905Y0195150D01*
X0141095Y0195150D01*
X0137576Y0193692D01*
X0136884Y0193000D01*
X0132528Y0193000D01*
X0136768Y0193000D01*
X0136768Y0194929D01*
X0136652Y0195509D01*
X0136426Y0196055D01*
X0136098Y0196546D01*
X0135680Y0196964D01*
X0135189Y0197292D01*
X0134643Y0197519D01*
X0134063Y0197634D01*
X0132528Y0197634D01*
X0132528Y0194202D01*
X0132527Y0194202D01*
X0132527Y0197634D01*
X0131330Y0197634D01*
X0131260Y0197717D01*
X0131102Y0198098D01*
X0130679Y0198521D01*
X0130647Y0198599D01*
X0129886Y0199360D01*
X0129227Y0200147D01*
X0128957Y0200288D01*
X0128678Y0200568D01*
X0128600Y0200600D01*
X0128571Y0200630D01*
X0127286Y0201162D01*
X0126054Y0201806D01*
X0125643Y0201842D01*
X0125263Y0202000D01*
X0123872Y0202000D01*
X0122488Y0202123D01*
X0122094Y0202000D01*
X0116210Y0202000D01*
X0113756Y0200984D01*
X0113756Y0202094D01*
X0108000Y0202094D01*
X0108000Y0153000D01*
X0117953Y0149951D02*
X0203047Y0149951D01*
X0203047Y0153949D02*
X0200065Y0153949D01*
X0202338Y0157948D02*
X0203297Y0157948D01*
X0203425Y0161946D02*
X0202575Y0161946D01*
X0202575Y0165945D02*
X0203425Y0165945D01*
X0185935Y0153949D02*
X0170065Y0153949D01*
X0172338Y0157948D02*
X0183662Y0157948D01*
X0183425Y0161946D02*
X0172575Y0161946D01*
X0172575Y0165945D02*
X0183425Y0165945D01*
X0204000Y0145952D02*
X0116757Y0145952D01*
X0130065Y0153949D02*
X0135935Y0153949D01*
X0133662Y0157948D02*
X0132338Y0157948D01*
X0132575Y0161946D02*
X0133425Y0161946D01*
X0133425Y0165945D02*
X0132575Y0165945D01*
X0132528Y0193000D02*
X0133000Y0193000D01*
X0138000Y0198000D01*
X0140500Y0195500D01*
X0168000Y0195500D01*
X0168000Y0194594D01*
X0165500Y0197094D01*
X0168000Y0194594D02*
X0168000Y0193000D01*
X0171156Y0193934D02*
X0183047Y0193934D01*
X0183291Y0197933D02*
X0171256Y0197933D01*
X0173544Y0201932D02*
X0184000Y0201932D01*
X0184276Y0205930D02*
X0175256Y0205930D01*
X0175256Y0209929D02*
X0186683Y0209929D01*
X0193000Y0203472D02*
X0193000Y0193000D01*
X0208000Y0193000D01*
X0208000Y0202154D01*
X0221395Y0213927D02*
X0258366Y0213927D01*
X0258366Y0214063D02*
X0258366Y0212528D01*
X0263000Y0212528D01*
X0263000Y0216768D01*
X0261071Y0216768D01*
X0260491Y0216652D01*
X0259945Y0216426D01*
X0259454Y0216098D01*
X0259036Y0215680D01*
X0258708Y0215189D01*
X0258481Y0214643D01*
X0258366Y0214063D01*
X0263000Y0213927D02*
X0263000Y0213927D01*
X0263000Y0212528D02*
X0263000Y0212528D01*
X0263000Y0216768D01*
X0264929Y0216768D01*
X0265509Y0216652D01*
X0266055Y0216426D01*
X0266546Y0216098D01*
X0266964Y0215680D01*
X0267292Y0215189D01*
X0267519Y0214643D01*
X0267634Y0214063D01*
X0267634Y0212528D01*
X0263000Y0212528D01*
X0263000Y0212527D01*
X0263000Y0212528D01*
X0267634Y0213927D02*
X0269662Y0213927D01*
X0263000Y0203472D02*
X0263000Y0193000D01*
X0254276Y0205930D02*
X0230298Y0205930D01*
X0226299Y0209929D02*
X0256683Y0209929D01*
X0233906Y0197933D02*
X0233905Y0197933D01*
X0280751Y0225923D02*
X0311401Y0225923D01*
X0265547Y0237918D02*
X0147715Y0237918D01*
X0138000Y0233000D02*
X0134654Y0236346D01*
X0125500Y0236346D01*
X0125500Y0229654D02*
X0126346Y0223000D01*
X0123000Y0223000D01*
X0113906Y0213906D01*
X0108000Y0213906D01*
X0118169Y0205930D02*
X0139000Y0205930D01*
X0139000Y0209929D02*
X0122656Y0209929D01*
X0126655Y0213927D02*
X0138047Y0213927D01*
X0138047Y0217926D02*
X0133986Y0217926D01*
X0135382Y0221924D02*
X0138047Y0221924D01*
X0148000Y0218000D02*
X0148000Y0211346D01*
X0154654Y0204654D02*
X0158000Y0208000D01*
X0164594Y0208000D01*
X0165500Y0208906D01*
X0160526Y0217926D02*
X0157953Y0217926D01*
X0154654Y0204654D02*
X0148000Y0204654D01*
X0139031Y0201932D02*
X0125428Y0201932D01*
X0131171Y0197933D02*
X0140687Y0197933D01*
X0138162Y0193934D02*
X0136768Y0193934D01*
X0132528Y0193000D02*
X0132528Y0193000D01*
X0123472Y0193000D02*
X0118000Y0193000D01*
X0115500Y0190500D01*
X0123472Y0193000D01*
X0116044Y0201932D02*
X0113756Y0201932D01*
X0147838Y0193934D02*
X0148162Y0193934D01*
X0157838Y0193934D02*
X0158162Y0193934D01*
X0098000Y0237528D02*
X0098000Y0237528D01*
X0098000Y0237918D02*
X0098000Y0237918D01*
X0098000Y0241917D02*
X0104189Y0241917D01*
X0108187Y0245915D02*
X0098000Y0245915D01*
X0098000Y0243000D02*
X0088000Y0233000D01*
X0078000Y0233000D01*
X0048000Y0228000D02*
X0048000Y0173000D01*
X0052004Y0161946D02*
X0042000Y0161946D01*
X0052004Y0161946D01*
X0047111Y0157948D02*
X0042000Y0157948D01*
X0047111Y0157948D01*
X0045850Y0153949D02*
X0042000Y0153949D01*
X0045850Y0153949D01*
X0046324Y0149951D02*
X0042000Y0149951D01*
X0046324Y0149951D01*
X0048932Y0145952D02*
X0042000Y0145952D01*
X0048932Y0145952D01*
X0047588Y0125960D02*
X0042000Y0125960D01*
X0047588Y0125960D01*
X0054094Y0125960D02*
X0054898Y0125960D01*
X0054094Y0125960D01*
X0054094Y0121961D02*
X0054898Y0121961D01*
X0054094Y0121961D01*
X0045145Y0121961D02*
X0042000Y0121961D01*
X0045145Y0121961D01*
X0033000Y0118000D02*
X0045500Y0105500D01*
X0035547Y0101969D02*
X0010000Y0101969D01*
X0035547Y0101969D01*
X0037225Y0097970D02*
X0010000Y0097970D01*
X0037225Y0097970D01*
X0033230Y0093972D02*
X0010000Y0093972D01*
X0033230Y0093972D01*
X0029876Y0089973D02*
X0010000Y0089973D01*
X0029876Y0089973D01*
X0029197Y0085975D02*
X0010000Y0085975D01*
X0029197Y0085975D01*
X0029197Y0081976D02*
X0010000Y0081976D01*
X0029197Y0081976D01*
X0031584Y0077978D02*
X0010000Y0077978D01*
X0031584Y0077978D01*
X0010000Y0069981D02*
X0099000Y0069981D01*
X0099000Y0057985D02*
X0088874Y0057985D01*
X0090993Y0053987D02*
X0098727Y0053987D01*
X0098047Y0049988D02*
X0091198Y0049988D01*
X0089617Y0045990D02*
X0098047Y0045990D01*
X0098736Y0041991D02*
X0083880Y0041991D01*
X0081906Y0041991D02*
X0081102Y0041991D01*
X0079128Y0041991D02*
X0078152Y0041991D01*
X0081102Y0045990D02*
X0081906Y0045990D01*
X0081906Y0049988D02*
X0081102Y0049988D01*
X0081102Y0053987D02*
X0081906Y0053987D01*
X0081102Y0053987D01*
X0081102Y0057985D02*
X0081906Y0057985D01*
X0081102Y0057985D01*
X0074134Y0057985D02*
X0061866Y0057985D01*
X0074134Y0057985D01*
X0072015Y0053987D02*
X0063985Y0053987D01*
X0072015Y0053987D01*
X0071810Y0049988D02*
X0064190Y0049988D01*
X0071810Y0049988D01*
X0054898Y0049988D02*
X0054094Y0049988D01*
X0054094Y0053987D02*
X0054898Y0053987D01*
X0054094Y0053987D01*
X0054094Y0057985D02*
X0054898Y0057985D01*
X0054094Y0057985D01*
X0081102Y0029996D02*
X0081906Y0029996D01*
X0081906Y0025997D02*
X0081102Y0025997D01*
X0081102Y0021999D02*
X0081906Y0021999D01*
X0081906Y0018000D02*
X0081102Y0018000D01*
X0074146Y0018000D02*
X0061854Y0018000D01*
X0063981Y0021999D02*
X0072019Y0021999D01*
X0071808Y0025997D02*
X0064192Y0025997D01*
X0029863Y0014001D02*
X0028659Y0014001D01*
X0028898Y0025997D02*
X0026027Y0025997D01*
X0108000Y0048000D02*
X0108000Y0108000D01*
X0071900Y0093972D02*
X0064100Y0093972D01*
X0071900Y0093972D01*
X0071910Y0089973D02*
X0064090Y0089973D01*
X0071910Y0089973D01*
X0073767Y0085975D02*
X0062233Y0085975D01*
X0073767Y0085975D01*
X0054898Y0085975D02*
X0054094Y0085975D01*
X0054898Y0085975D01*
X0054898Y0089973D02*
X0054094Y0089973D01*
X0054898Y0089973D01*
X0044892Y0093972D02*
X0043467Y0093972D01*
X0044892Y0093972D01*
X0032305Y0105967D02*
X0010000Y0105967D01*
X0032305Y0105967D01*
X0028306Y0109966D02*
X0010000Y0109966D01*
X0028306Y0109966D01*
X0024930Y0113964D02*
X0010000Y0113964D01*
X0024930Y0113964D01*
X0024000Y0117963D02*
X0010000Y0117963D01*
X0024000Y0117963D01*
X0024000Y0121961D02*
X0010000Y0121961D01*
X0024000Y0121961D01*
X0024000Y0125960D02*
X0010000Y0125960D01*
X0024000Y0125960D01*
X0024000Y0129958D02*
X0010000Y0129958D01*
X0024000Y0129958D01*
X0024000Y0133957D02*
X0010000Y0133957D01*
X0024000Y0133957D01*
X0024000Y0137955D02*
X0010000Y0137955D01*
X0024000Y0137955D01*
X0024000Y0141954D02*
X0010000Y0141954D01*
X0024000Y0141954D01*
X0024000Y0145952D02*
X0010000Y0145952D01*
X0024000Y0145952D01*
X0024000Y0149951D02*
X0010000Y0149951D01*
X0024000Y0149951D01*
X0024000Y0153949D02*
X0010000Y0153949D01*
X0024000Y0153949D01*
X0024000Y0157948D02*
X0010000Y0157948D01*
X0024000Y0157948D01*
X0024000Y0161946D02*
X0010000Y0161946D01*
X0024000Y0161946D01*
X0024000Y0165945D02*
X0010000Y0165945D01*
X0024000Y0165945D01*
X0024000Y0169943D02*
X0010000Y0169943D01*
X0010000Y0173942D02*
X0024000Y0173942D01*
X0024000Y0177940D02*
X0010000Y0177940D01*
X0010000Y0181939D02*
X0024000Y0181939D01*
X0024000Y0185937D02*
X0010000Y0185937D01*
X0010000Y0189936D02*
X0024000Y0189936D01*
X0024000Y0193934D02*
X0010000Y0193934D01*
X0010000Y0197933D02*
X0024000Y0197933D01*
X0024000Y0201932D02*
X0010000Y0201932D01*
X0010000Y0205930D02*
X0024000Y0205930D01*
X0024000Y0209929D02*
X0010000Y0209929D01*
X0010000Y0213927D02*
X0024000Y0213927D01*
X0024000Y0217926D02*
X0010000Y0217926D01*
X0010000Y0221924D02*
X0024000Y0221924D01*
X0024000Y0225923D02*
X0010000Y0225923D01*
X0010000Y0229921D02*
X0023047Y0229921D01*
X0023047Y0233920D02*
X0010000Y0233920D01*
X0010000Y0237918D02*
X0023285Y0237918D01*
X0026153Y0241917D02*
X0010000Y0241917D01*
X0010000Y0245915D02*
X0046269Y0245915D01*
X0045850Y0241917D02*
X0039847Y0241917D01*
X0042715Y0237918D02*
X0043571Y0237918D01*
X0033000Y0233000D02*
X0033000Y0118000D01*
X0086774Y0141954D02*
X0204000Y0141954D01*
X0204000Y0137955D02*
X0090773Y0137955D01*
X0094771Y0133957D02*
X0204000Y0133957D01*
X0199233Y0121961D02*
X0170855Y0121961D01*
X0171252Y0117963D02*
X0195235Y0117963D01*
X0191236Y0113964D02*
X0169915Y0113964D01*
X0165330Y0109966D02*
X0187238Y0109966D01*
X0183239Y0105967D02*
X0158839Y0105967D01*
X0161102Y0109966D02*
X0161906Y0109966D01*
X0161906Y0113964D02*
X0161102Y0113964D01*
X0197000Y0093972D02*
X0202300Y0093972D01*
X0203514Y0097970D02*
X0200698Y0097970D01*
X0204697Y0101969D02*
X0207134Y0101969D01*
X0202734Y0089973D02*
X0198755Y0089973D01*
X0235000Y0081976D02*
X0236296Y0081976D01*
X0234549Y0077978D02*
X0240294Y0077978D01*
X0244293Y0073979D02*
X0234815Y0073979D01*
X0235000Y0069981D02*
X0248291Y0069981D01*
X0252290Y0065982D02*
X0233903Y0065982D01*
X0235000Y0061984D02*
X0256288Y0061984D01*
X0257126Y0057985D02*
X0235000Y0057985D01*
X0233622Y0053987D02*
X0255007Y0053987D01*
X0254802Y0049988D02*
X0171198Y0049988D01*
X0171184Y0049859D02*
X0171307Y0050953D01*
X0171307Y0051102D01*
X0161906Y0051102D01*
X0161906Y0041701D01*
X0162054Y0041701D01*
X0163149Y0041824D01*
X0164222Y0042069D01*
X0165261Y0042433D01*
X0166253Y0042910D01*
X0167186Y0043496D01*
X0168047Y0044183D01*
X0168825Y0044961D01*
X0169512Y0045822D01*
X0170097Y0046754D01*
X0170575Y0047747D01*
X0170939Y0048786D01*
X0171184Y0049859D01*
X0169617Y0045990D02*
X0256383Y0045990D01*
X0262120Y0041991D02*
X0163880Y0041991D01*
X0161906Y0041991D02*
X0161102Y0041991D01*
X0159128Y0041991D02*
X0158152Y0041991D01*
X0161102Y0045990D02*
X0161906Y0045990D01*
X0161906Y0049988D02*
X0161102Y0049988D01*
X0161102Y0053987D02*
X0161906Y0053987D01*
X0161906Y0057985D02*
X0161102Y0057985D01*
X0154134Y0057985D02*
X0141866Y0057985D01*
X0141817Y0058047D02*
X0141039Y0058825D01*
X0140178Y0059512D01*
X0139245Y0060097D01*
X0138253Y0060575D01*
X0137214Y0060939D01*
X0136141Y0061184D01*
X0135047Y0061307D01*
X0134898Y0061307D01*
X0134898Y0051906D01*
X0144299Y0051906D01*
X0144299Y0052054D01*
X0144176Y0053149D01*
X0143931Y0054222D01*
X0143567Y0055261D01*
X0143090Y0056253D01*
X0142504Y0057186D01*
X0141817Y0058047D01*
X0143985Y0053987D02*
X0152015Y0053987D01*
X0151810Y0049988D02*
X0144190Y0049988D01*
X0134898Y0049988D02*
X0134094Y0049988D01*
X0134094Y0053987D02*
X0134898Y0053987D01*
X0134898Y0057985D02*
X0134094Y0057985D01*
X0127126Y0057985D02*
X0117000Y0057985D01*
X0117273Y0053987D02*
X0125007Y0053987D01*
X0124802Y0049988D02*
X0117953Y0049988D01*
X0117953Y0045990D02*
X0126383Y0045990D01*
X0132120Y0041991D02*
X0117264Y0041991D01*
X0134094Y0041991D02*
X0134898Y0041991D01*
X0136872Y0041991D02*
X0137848Y0041991D01*
X0134898Y0045990D02*
X0134094Y0045990D01*
X0158839Y0037993D02*
X0267161Y0037993D01*
X0266938Y0033994D02*
X0267852Y0033994D01*
X0264898Y0033994D02*
X0264094Y0033994D01*
X0262055Y0033994D02*
X0163945Y0033994D01*
X0161906Y0033994D02*
X0161102Y0033994D01*
X0159062Y0033994D02*
X0158148Y0033994D01*
X0161102Y0029996D02*
X0161906Y0029996D01*
X0161906Y0025997D02*
X0161102Y0025997D01*
X0161102Y0024094D02*
X0151701Y0024094D01*
X0151701Y0023946D01*
X0151824Y0022851D01*
X0152069Y0021778D01*
X0152433Y0020739D01*
X0152910Y0019747D01*
X0153496Y0018814D01*
X0154183Y0017953D01*
X0154961Y0017175D01*
X0155822Y0016488D01*
X0156754Y0015903D01*
X0157747Y0015425D01*
X0158786Y0015061D01*
X0159859Y0014816D01*
X0160953Y0014693D01*
X0161102Y0014693D01*
X0161102Y0024094D01*
X0161102Y0021999D02*
X0161906Y0021999D01*
X0161906Y0018000D02*
X0161102Y0018000D01*
X0154146Y0018000D02*
X0141854Y0018000D01*
X0143981Y0021999D02*
X0152019Y0021999D01*
X0151808Y0025997D02*
X0144192Y0025997D01*
X0264094Y0025997D02*
X0264898Y0025997D01*
X0264898Y0021999D02*
X0264094Y0021999D01*
X0264094Y0018000D02*
X0264898Y0018000D01*
X0271854Y0018000D02*
X0284146Y0018000D01*
X0282019Y0021999D02*
X0273981Y0021999D01*
X0274192Y0025997D02*
X0281808Y0025997D01*
X0291102Y0025997D02*
X0291906Y0025997D01*
X0291906Y0021999D02*
X0291102Y0021999D01*
X0291102Y0018000D02*
X0291906Y0018000D01*
X0291906Y0029996D02*
X0291102Y0029996D01*
X0291102Y0041991D02*
X0291906Y0041991D01*
X0293880Y0041991D02*
X0339620Y0041991D01*
X0341594Y0041991D02*
X0342398Y0041991D01*
X0344372Y0041991D02*
X0345348Y0041991D01*
X0342398Y0045990D02*
X0341594Y0045990D01*
X0341594Y0049988D02*
X0342398Y0049988D01*
X0351690Y0049988D02*
X0359310Y0049988D01*
X0359515Y0053987D02*
X0351485Y0053987D01*
X0349366Y0057985D02*
X0361634Y0057985D01*
X0368602Y0049988D02*
X0369406Y0049988D01*
X0369406Y0045990D02*
X0368602Y0045990D01*
X0368602Y0041991D02*
X0369406Y0041991D01*
X0371380Y0041991D02*
X0383047Y0041991D01*
X0383047Y0045990D02*
X0377117Y0045990D01*
X0378698Y0049988D02*
X0384000Y0049988D01*
X0384000Y0053987D02*
X0378493Y0053987D01*
X0376374Y0057985D02*
X0384000Y0057985D01*
X0384000Y0061984D02*
X0374712Y0061984D01*
X0378710Y0065982D02*
X0384000Y0065982D01*
X0384000Y0069981D02*
X0382709Y0069981D01*
X0402000Y0069981D02*
X0409701Y0069981D01*
X0409701Y0065982D02*
X0402000Y0065982D01*
X0402000Y0061984D02*
X0409701Y0061984D01*
X0409701Y0057985D02*
X0402000Y0057985D01*
X0402000Y0053987D02*
X0409701Y0053987D01*
X0409701Y0049988D02*
X0402000Y0049988D01*
X0402953Y0045990D02*
X0409701Y0045990D01*
X0409701Y0041991D02*
X0402953Y0041991D01*
X0402678Y0037993D02*
X0409701Y0037993D01*
X0409701Y0033994D02*
X0399631Y0033994D01*
X0394973Y0025997D02*
X0378700Y0025997D01*
X0378489Y0021999D02*
X0392341Y0021999D01*
X0391669Y0018000D02*
X0376362Y0018000D01*
X0369406Y0018000D02*
X0368602Y0018000D01*
X0368602Y0021999D02*
X0369406Y0021999D01*
X0369406Y0025997D02*
X0368602Y0025997D01*
X0368602Y0029996D02*
X0369406Y0029996D01*
X0369406Y0033994D02*
X0368602Y0033994D01*
X0366562Y0033994D02*
X0365648Y0033994D01*
X0366339Y0037993D02*
X0383322Y0037993D01*
X0386369Y0033994D02*
X0371445Y0033994D01*
X0377126Y0029996D02*
X0409701Y0029996D01*
X0393000Y0043000D02*
X0393000Y0138000D01*
X0383000Y0148000D01*
X0363000Y0148000D01*
X0363000Y0153000D01*
X0382338Y0157948D02*
X0409701Y0157948D01*
X0409701Y0153949D02*
X0389779Y0153949D01*
X0393777Y0149951D02*
X0409701Y0149951D01*
X0409701Y0145952D02*
X0397776Y0145952D01*
X0401104Y0141954D02*
X0409701Y0141954D01*
X0409701Y0137955D02*
X0402000Y0137955D01*
X0402000Y0133957D02*
X0409701Y0133957D01*
X0409701Y0129958D02*
X0402000Y0129958D01*
X0402000Y0125960D02*
X0409701Y0125960D01*
X0409701Y0121961D02*
X0402000Y0121961D01*
X0402000Y0117963D02*
X0409701Y0117963D01*
X0409701Y0113964D02*
X0402000Y0113964D01*
X0402000Y0109966D02*
X0409701Y0109966D01*
X0409701Y0105967D02*
X0402000Y0105967D01*
X0402000Y0101969D02*
X0409701Y0101969D01*
X0409701Y0097970D02*
X0402000Y0097970D01*
X0402000Y0093972D02*
X0409701Y0093972D01*
X0409701Y0089973D02*
X0402000Y0089973D01*
X0402000Y0085975D02*
X0409701Y0085975D01*
X0409701Y0081976D02*
X0402000Y0081976D01*
X0402000Y0077978D02*
X0409701Y0077978D01*
X0409701Y0073979D02*
X0402000Y0073979D01*
X0373247Y0085975D02*
X0371368Y0085975D01*
X0357801Y0089973D02*
X0348199Y0089973D01*
X0349299Y0093972D02*
X0356701Y0093972D01*
X0357305Y0097970D02*
X0357334Y0097970D01*
X0348695Y0097970D02*
X0348666Y0097970D01*
X0339898Y0097970D02*
X0339094Y0097970D01*
X0339094Y0101969D02*
X0339898Y0101969D01*
X0339898Y0113964D02*
X0339094Y0113964D01*
X0333227Y0113964D02*
X0327052Y0113964D01*
X0329303Y0117963D02*
X0330349Y0117963D01*
X0329693Y0121961D02*
X0329303Y0121961D01*
X0339094Y0117963D02*
X0339898Y0117963D01*
X0313251Y0113964D02*
X0297773Y0113964D01*
X0300651Y0117963D02*
X0311000Y0117963D01*
X0311000Y0121961D02*
X0301307Y0121961D01*
X0300239Y0125960D02*
X0311735Y0125960D01*
X0313000Y0153000D02*
X0233000Y0153000D01*
X0243500Y0133957D02*
X0222000Y0133957D01*
X0222000Y0129958D02*
X0243500Y0129958D01*
X0245404Y0125960D02*
X0222000Y0125960D01*
X0222000Y0121961D02*
X0254693Y0121961D01*
X0255349Y0117963D02*
X0220655Y0117963D01*
X0273199Y0089973D02*
X0282801Y0089973D01*
X0281701Y0093972D02*
X0274299Y0093972D01*
X0273695Y0097970D02*
X0273666Y0097970D01*
X0282305Y0097970D02*
X0282334Y0097970D01*
X0298000Y0078000D02*
X0263000Y0078000D01*
X0271866Y0057985D02*
X0284134Y0057985D01*
X0282015Y0053987D02*
X0273985Y0053987D01*
X0274190Y0049988D02*
X0281810Y0049988D01*
X0291102Y0049988D02*
X0291906Y0049988D01*
X0291906Y0045990D02*
X0291102Y0045990D01*
X0289128Y0041991D02*
X0288152Y0041991D01*
X0299617Y0045990D02*
X0333883Y0045990D01*
X0332302Y0049988D02*
X0301198Y0049988D01*
X0300993Y0053987D02*
X0332507Y0053987D01*
X0334626Y0057985D02*
X0298874Y0057985D01*
X0267848Y0041991D02*
X0266872Y0041991D01*
X0264898Y0041991D02*
X0264094Y0041991D01*
X0264094Y0045990D02*
X0264898Y0045990D01*
X0264898Y0049988D02*
X0264094Y0049988D01*
X0264094Y0029996D02*
X0264898Y0029996D01*
X0349354Y0018000D02*
X0361646Y0018000D01*
X0359519Y0021999D02*
X0351481Y0021999D01*
X0351692Y0025997D02*
X0359308Y0025997D01*
X0365652Y0041991D02*
X0366628Y0041991D01*
X0382575Y0161946D02*
X0409701Y0161946D01*
X0409701Y0165945D02*
X0382575Y0165945D01*
X0343000Y0183000D02*
X0343000Y0188000D01*
X0378972Y0193934D02*
X0409701Y0193934D01*
X0409701Y0197933D02*
X0379268Y0197933D01*
X0379028Y0201932D02*
X0409701Y0201932D01*
X0298000Y0271300D02*
X0298000Y0273979D01*
X0298000Y0273979D01*
X0298000Y0271300D01*
X0298000Y0273905D02*
X0298000Y0273905D01*
X0266405Y0241917D02*
X0222233Y0241917D01*
X0123000Y0248000D02*
X0123000Y0254654D01*
X0123000Y0261346D02*
X0108000Y0263906D01*
X0108000Y0249914D02*
X0108000Y0249914D01*
X0088000Y0269906D02*
X0087209Y0269906D01*
X0088000Y0273905D02*
X0029331Y0273905D01*
X0028901Y0269906D02*
X0048791Y0269906D01*
X0046266Y0265908D02*
X0026932Y0265908D01*
X0020387Y0261909D02*
X0045850Y0261909D01*
X0047096Y0257911D02*
X0010000Y0257911D01*
X0010000Y0261909D02*
X0015613Y0261909D01*
X0010000Y0253912D02*
X0045850Y0253912D01*
X0046340Y0249914D02*
X0010000Y0249914D01*
X0028253Y0277903D02*
X0088000Y0277903D01*
X0068791Y0269906D02*
X0067209Y0269906D01*
D26*
X0078000Y0233000D03*
X0058000Y0213000D03*
X0070500Y0200500D03*
X0098000Y0183000D03*
X0115500Y0190500D03*
X0148000Y0218000D03*
X0138000Y0233000D03*
X0183000Y0193000D03*
X0193000Y0193000D03*
X0213000Y0153000D03*
X0223000Y0153000D03*
X0233000Y0153000D03*
X0253000Y0183000D03*
X0263000Y0193000D03*
X0313000Y0153000D03*
X0333000Y0133000D03*
X0353000Y0153000D03*
X0363000Y0153000D03*
X0343000Y0183000D03*
X0323000Y0183000D03*
X0300500Y0235500D03*
X0275500Y0235500D03*
X0288000Y0268000D03*
X0213000Y0248000D03*
X0098000Y0163000D03*
X0108000Y0153000D03*
X0048000Y0173000D03*
X0048000Y0228000D03*
X0033000Y0233000D03*
X0045500Y0105500D03*
X0108000Y0048000D03*
X0203000Y0073000D03*
X0238000Y0093000D03*
X0263000Y0078000D03*
X0298000Y0078000D03*
X0333000Y0078000D03*
X0393000Y0043000D03*
X0243000Y0123000D03*
M02*
