G75*
%MOIN*%
%OFA0B0*%
%FSLAX25Y25*%
%IPPOS*%
%LPD*%
%AMOC8*
5,1,8,0,0,1.08239X$1,22.5*
%
%ADD10C,0.09461*%
%ADD11C,0.06000*%
%ADD12C,0.08200*%
%ADD13C,0.05950*%
%ADD14C,0.08477*%
%ADD15C,0.14406*%
%ADD16C,0.07300*%
%ADD17R,0.07300X0.07300*%
%ADD18C,0.00500*%
%ADD19R,0.08200X0.08200*%
%ADD20R,0.06706X0.06706*%
D10*
X0023000Y0018000D03*
X0023000Y0263000D03*
X0393000Y0018000D03*
X0398000Y0263000D03*
D11*
X0268000Y0245600D02*
X0268000Y0240400D01*
X0258000Y0240400D02*
X0258000Y0245600D01*
X0248000Y0245600D02*
X0248000Y0240400D01*
X0238000Y0240400D02*
X0238000Y0245600D01*
X0228000Y0245600D02*
X0228000Y0240400D01*
X0218000Y0240400D02*
X0218000Y0245600D01*
X0208000Y0245600D02*
X0208000Y0240400D01*
X0198000Y0240400D02*
X0198000Y0245600D01*
X0188000Y0245600D02*
X0188000Y0240400D01*
X0188000Y0215600D02*
X0188000Y0210400D01*
X0198000Y0210400D02*
X0198000Y0215600D01*
X0208000Y0215600D02*
X0208000Y0210400D01*
X0218000Y0210400D02*
X0218000Y0215600D01*
X0228000Y0215600D02*
X0228000Y0210400D01*
X0238000Y0210400D02*
X0238000Y0215600D01*
X0248000Y0215600D02*
X0248000Y0210400D01*
X0258000Y0210400D02*
X0258000Y0215600D01*
X0268000Y0215600D02*
X0268000Y0210400D01*
D12*
X0268000Y0263000D03*
X0258000Y0263000D03*
X0248000Y0263000D03*
X0238000Y0263000D03*
X0228000Y0263000D03*
X0193000Y0263000D03*
X0183000Y0263000D03*
X0243000Y0038000D03*
X0253000Y0038000D03*
X0263000Y0038000D03*
D13*
X0273000Y0070425D02*
X0273000Y0075575D01*
X0293000Y0075575D02*
X0293000Y0070425D01*
X0303000Y0070425D02*
X0303000Y0075575D01*
X0313000Y0075575D02*
X0313000Y0070425D01*
X0313000Y0090425D02*
X0313000Y0095575D01*
X0303000Y0095575D02*
X0303000Y0090425D01*
X0293000Y0090425D02*
X0293000Y0095575D01*
X0273000Y0095575D02*
X0273000Y0090425D01*
X0228000Y0090425D02*
X0228000Y0095575D01*
X0218000Y0095575D02*
X0218000Y0090425D01*
X0208000Y0090425D02*
X0208000Y0095575D01*
X0188000Y0095575D02*
X0188000Y0090425D01*
X0188000Y0075575D02*
X0188000Y0070425D01*
X0208000Y0070425D02*
X0208000Y0075575D01*
X0218000Y0075575D02*
X0218000Y0070425D01*
X0228000Y0070425D02*
X0228000Y0075575D01*
X0228000Y0135425D02*
X0228000Y0140575D01*
X0218000Y0140575D02*
X0218000Y0135425D01*
X0208000Y0135425D02*
X0208000Y0140575D01*
X0208000Y0155425D02*
X0208000Y0160575D01*
X0218000Y0160575D02*
X0218000Y0155425D01*
X0228000Y0155425D02*
X0228000Y0160575D01*
X0188000Y0160575D02*
X0188000Y0155425D01*
X0188000Y0140575D02*
X0188000Y0135425D01*
X0143000Y0080575D02*
X0143000Y0075425D01*
X0133000Y0075425D02*
X0133000Y0080575D01*
X0123000Y0080575D02*
X0123000Y0075425D01*
X0123000Y0060575D02*
X0123000Y0055425D01*
X0133000Y0055425D02*
X0133000Y0060575D01*
X0143000Y0060575D02*
X0143000Y0055425D01*
X0103000Y0055425D02*
X0103000Y0060575D01*
X0103000Y0075425D02*
X0103000Y0080575D01*
X0068000Y0080575D02*
X0068000Y0075425D01*
X0058000Y0075425D02*
X0058000Y0080575D01*
X0048000Y0080575D02*
X0048000Y0075425D01*
X0048000Y0060575D02*
X0048000Y0055425D01*
X0058000Y0055425D02*
X0058000Y0060575D01*
X0068000Y0060575D02*
X0068000Y0055425D01*
X0028000Y0055425D02*
X0028000Y0060575D01*
X0028000Y0075425D02*
X0028000Y0080575D01*
X0273000Y0135425D02*
X0273000Y0140575D01*
X0293000Y0140575D02*
X0293000Y0135425D01*
X0303000Y0135425D02*
X0303000Y0140575D01*
X0313000Y0140575D02*
X0313000Y0135425D01*
X0313000Y0155425D02*
X0313000Y0160575D01*
X0303000Y0160575D02*
X0303000Y0155425D01*
X0293000Y0155425D02*
X0293000Y0160575D01*
X0273000Y0160575D02*
X0273000Y0155425D01*
D14*
X0363000Y0183000D03*
X0363000Y0118000D03*
X0363000Y0053000D03*
X0138000Y0138000D03*
X0138000Y0198000D03*
X0038000Y0198000D03*
X0038000Y0138000D03*
X0363000Y0248000D03*
D15*
X0349496Y0234496D03*
X0376504Y0234496D03*
X0376504Y0261504D03*
X0349496Y0261504D03*
X0349496Y0196504D03*
X0376504Y0196504D03*
X0376504Y0169496D03*
X0349496Y0169496D03*
X0349496Y0131504D03*
X0376504Y0131504D03*
X0376504Y0104496D03*
X0349496Y0104496D03*
X0349496Y0066504D03*
X0376504Y0066504D03*
X0376504Y0039496D03*
X0349496Y0039496D03*
X0151504Y0124496D03*
X0124496Y0124496D03*
X0124496Y0151504D03*
X0151504Y0151504D03*
X0151504Y0184496D03*
X0124496Y0184496D03*
X0124496Y0211504D03*
X0151504Y0211504D03*
X0051504Y0211504D03*
X0024496Y0211504D03*
X0024496Y0184496D03*
X0051504Y0184496D03*
X0051504Y0151504D03*
X0024496Y0151504D03*
X0024496Y0124496D03*
X0051504Y0124496D03*
D16*
X0153000Y0263000D03*
D17*
X0163000Y0263000D03*
D18*
X0173675Y0246749D02*
X0173128Y0246378D01*
X0172653Y0245917D01*
X0172266Y0245380D01*
X0171978Y0244785D01*
X0171797Y0244148D01*
X0171730Y0243490D01*
X0171795Y0242832D01*
X0171974Y0242195D01*
X0172261Y0241599D01*
X0172647Y0241061D01*
X0173120Y0240599D01*
X0173666Y0240226D01*
X0174269Y0239954D01*
X0174910Y0239790D01*
X0175570Y0239741D01*
X0176293Y0239822D01*
X0176986Y0240042D01*
X0177623Y0240393D01*
X0178179Y0240862D01*
X0178633Y0241431D01*
X0178967Y0242077D01*
X0179169Y0242775D01*
X0179230Y0243500D01*
X0179167Y0244221D01*
X0178965Y0244915D01*
X0178631Y0245557D01*
X0178178Y0246121D01*
X0177624Y0246586D01*
X0176990Y0246934D01*
X0176300Y0247152D01*
X0175580Y0247230D01*
X0174920Y0247182D01*
X0174279Y0247020D01*
X0173675Y0246749D01*
X0173825Y0246817D02*
X0177204Y0246817D01*
X0177943Y0246318D02*
X0173066Y0246318D01*
X0172583Y0245820D02*
X0178420Y0245820D01*
X0178754Y0245321D02*
X0172237Y0245321D01*
X0171996Y0244823D02*
X0178992Y0244823D01*
X0179137Y0244324D02*
X0171847Y0244324D01*
X0171764Y0243826D02*
X0179202Y0243826D01*
X0179216Y0243327D02*
X0171746Y0243327D01*
X0171796Y0242829D02*
X0179173Y0242829D01*
X0179040Y0242330D02*
X0171936Y0242330D01*
X0172149Y0241832D02*
X0178840Y0241832D01*
X0178555Y0241333D02*
X0172452Y0241333D01*
X0172879Y0240835D02*
X0178146Y0240835D01*
X0177519Y0240336D02*
X0173506Y0240336D01*
X0174725Y0239838D02*
X0176343Y0239838D01*
X0176300Y0236132D02*
X0176990Y0235914D01*
X0177624Y0235566D01*
X0178178Y0235101D01*
X0178631Y0234537D01*
X0178965Y0233895D01*
X0179167Y0233201D01*
X0179230Y0232480D01*
X0179169Y0231755D01*
X0178967Y0231056D01*
X0178633Y0230410D01*
X0178179Y0229842D01*
X0177623Y0229373D01*
X0176986Y0229022D01*
X0176293Y0228801D01*
X0175570Y0228720D01*
X0174910Y0228770D01*
X0174269Y0228934D01*
X0173666Y0229206D01*
X0173120Y0229579D01*
X0172647Y0230041D01*
X0172261Y0230579D01*
X0171974Y0231175D01*
X0171795Y0231812D01*
X0171730Y0232470D01*
X0171797Y0233128D01*
X0171978Y0233765D01*
X0172266Y0234360D01*
X0172653Y0234897D01*
X0173128Y0235358D01*
X0173675Y0235729D01*
X0174279Y0236000D01*
X0174920Y0236162D01*
X0175580Y0236210D01*
X0176300Y0236132D01*
X0177108Y0235849D02*
X0173943Y0235849D01*
X0173121Y0235351D02*
X0177881Y0235351D01*
X0178378Y0234852D02*
X0172621Y0234852D01*
X0172263Y0234354D02*
X0178726Y0234354D01*
X0178977Y0233855D02*
X0172022Y0233855D01*
X0171862Y0233357D02*
X0179122Y0233357D01*
X0179197Y0232858D02*
X0171770Y0232858D01*
X0171741Y0232360D02*
X0179220Y0232360D01*
X0179178Y0231861D02*
X0171790Y0231861D01*
X0171921Y0231363D02*
X0179055Y0231363D01*
X0178868Y0230864D02*
X0172123Y0230864D01*
X0172414Y0230366D02*
X0178597Y0230366D01*
X0178199Y0229867D02*
X0172825Y0229867D01*
X0173428Y0229369D02*
X0177615Y0229369D01*
X0176509Y0228870D02*
X0174518Y0228870D01*
D19*
X0233000Y0038000D03*
D20*
X0228000Y0058000D03*
X0235500Y0080500D03*
X0268000Y0103000D03*
X0278000Y0113000D03*
X0313000Y0113000D03*
X0323000Y0083000D03*
X0280500Y0073000D03*
X0235500Y0113000D03*
X0208000Y0128000D03*
X0198000Y0135500D03*
X0218000Y0148000D03*
X0235500Y0140500D03*
X0262500Y0161500D03*
X0280500Y0145500D03*
X0308000Y0148000D03*
X0363000Y0128000D03*
X0383000Y0183000D03*
X0323000Y0248000D03*
X0183000Y0168000D03*
X0108000Y0168000D03*
X0108000Y0118000D03*
X0098000Y0098000D03*
X0118000Y0088000D03*
X0128000Y0088000D03*
X0123000Y0068000D03*
X0110500Y0058000D03*
X0088000Y0063000D03*
X0048000Y0085500D03*
X0013000Y0098000D03*
X0013000Y0063000D03*
X0035500Y0058000D03*
X0078000Y0108000D03*
X0173000Y0113000D03*
X0198000Y0098000D03*
X0178000Y0078000D03*
X0078000Y0228000D03*
X0163000Y0233000D03*
M02*
