G75*
%MOIN*%
%OFA0B0*%
%FSLAX25Y25*%
%IPPOS*%
%LPD*%
%AMOC8*
5,1,8,0,0,1.08239X$1,22.5*
%
%ADD10C,0.09461*%
%ADD11C,0.06000*%
%ADD12C,0.08200*%
%ADD13C,0.05950*%
%ADD14C,0.08477*%
%ADD15C,0.14406*%
%ADD16C,0.07300*%
%ADD17R,0.07300X0.07300*%
%ADD18R,0.08200X0.08200*%
%ADD19R,0.06706X0.06706*%
D10*
X0018000Y0018000D03*
X0018000Y0273000D03*
X0403000Y0018000D03*
X0405500Y0273000D03*
D11*
X0388000Y0268100D02*
X0388000Y0262900D01*
X0378000Y0262900D02*
X0378000Y0268100D01*
X0368000Y0268100D02*
X0368000Y0262900D01*
X0358000Y0262900D02*
X0358000Y0268100D01*
X0348000Y0268100D02*
X0348000Y0262900D01*
X0338000Y0262900D02*
X0338000Y0268100D01*
X0328000Y0268100D02*
X0328000Y0262900D01*
X0318000Y0262900D02*
X0318000Y0268100D01*
X0308000Y0268100D02*
X0308000Y0262900D01*
X0308000Y0238100D02*
X0308000Y0232900D01*
X0318000Y0232900D02*
X0318000Y0238100D01*
X0328000Y0238100D02*
X0328000Y0232900D01*
X0338000Y0232900D02*
X0338000Y0238100D01*
X0348000Y0238100D02*
X0348000Y0232900D01*
X0358000Y0232900D02*
X0358000Y0238100D01*
X0368000Y0238100D02*
X0368000Y0232900D01*
X0378000Y0232900D02*
X0378000Y0238100D01*
X0388000Y0238100D02*
X0388000Y0232900D01*
D12*
X0388000Y0278000D03*
X0378000Y0278000D03*
X0368000Y0278000D03*
X0358000Y0278000D03*
X0348000Y0278000D03*
X0338000Y0278000D03*
X0308000Y0278000D03*
X0298000Y0278000D03*
X0213000Y0093000D03*
X0213000Y0083000D03*
X0213000Y0073000D03*
D13*
X0213000Y0160425D02*
X0213000Y0165575D01*
X0223000Y0165575D02*
X0223000Y0160425D01*
X0233000Y0160425D02*
X0233000Y0165575D01*
X0233000Y0180425D02*
X0233000Y0185575D01*
X0223000Y0185575D02*
X0223000Y0180425D01*
X0213000Y0180425D02*
X0213000Y0185575D01*
X0193000Y0185575D02*
X0193000Y0180425D01*
X0193000Y0165575D02*
X0193000Y0160425D01*
X0163000Y0160425D02*
X0163000Y0165575D01*
X0153000Y0165575D02*
X0153000Y0160425D01*
X0143000Y0160425D02*
X0143000Y0165575D01*
X0123000Y0165575D02*
X0123000Y0160425D01*
X0123000Y0180425D02*
X0123000Y0185575D01*
X0143000Y0185575D02*
X0143000Y0180425D01*
X0153000Y0180425D02*
X0153000Y0185575D01*
X0163000Y0185575D02*
X0163000Y0180425D01*
X0080575Y0183000D02*
X0075425Y0183000D01*
X0075425Y0173000D02*
X0080575Y0173000D01*
X0060575Y0173000D02*
X0055425Y0173000D01*
X0055425Y0183000D02*
X0060575Y0183000D01*
X0060575Y0193000D02*
X0055425Y0193000D01*
X0075425Y0193000D02*
X0080575Y0193000D01*
X0080575Y0223000D02*
X0075425Y0223000D01*
X0060575Y0223000D02*
X0055425Y0223000D01*
X0055425Y0243000D02*
X0060575Y0243000D01*
X0075425Y0243000D02*
X0080575Y0243000D01*
X0080575Y0253000D02*
X0075425Y0253000D01*
X0075425Y0263000D02*
X0080575Y0263000D01*
X0060575Y0263000D02*
X0055425Y0263000D01*
X0055425Y0253000D02*
X0060575Y0253000D01*
X0060575Y0153000D02*
X0055425Y0153000D01*
X0075425Y0153000D02*
X0080575Y0153000D01*
X0263000Y0160425D02*
X0263000Y0165575D01*
X0263000Y0180425D02*
X0263000Y0185575D01*
X0283000Y0185575D02*
X0283000Y0180425D01*
X0293000Y0180425D02*
X0293000Y0185575D01*
X0303000Y0185575D02*
X0303000Y0180425D01*
X0303000Y0165575D02*
X0303000Y0160425D01*
X0293000Y0160425D02*
X0293000Y0165575D01*
X0283000Y0165575D02*
X0283000Y0160425D01*
X0333000Y0160425D02*
X0333000Y0165575D01*
X0353000Y0165575D02*
X0353000Y0160425D01*
X0363000Y0160425D02*
X0363000Y0165575D01*
X0373000Y0165575D02*
X0373000Y0160425D01*
X0373000Y0180425D02*
X0373000Y0185575D01*
X0363000Y0185575D02*
X0363000Y0180425D01*
X0353000Y0180425D02*
X0353000Y0185575D01*
X0333000Y0185575D02*
X0333000Y0180425D01*
D14*
X0353000Y0108000D03*
X0278000Y0108000D03*
X0278000Y0038000D03*
X0355500Y0038000D03*
X0148000Y0038000D03*
X0068000Y0038000D03*
X0068000Y0105500D03*
X0148000Y0105500D03*
D15*
X0134496Y0119004D03*
X0161504Y0119004D03*
X0161504Y0091996D03*
X0134496Y0091996D03*
X0081504Y0091996D03*
X0054496Y0091996D03*
X0054496Y0119004D03*
X0081504Y0119004D03*
X0081504Y0051504D03*
X0054496Y0051504D03*
X0054496Y0024496D03*
X0081504Y0024496D03*
X0134496Y0024496D03*
X0161504Y0024496D03*
X0161504Y0051504D03*
X0134496Y0051504D03*
X0264496Y0051504D03*
X0291504Y0051504D03*
X0291504Y0024496D03*
X0264496Y0024496D03*
X0341996Y0024496D03*
X0369004Y0024496D03*
X0369004Y0051504D03*
X0341996Y0051504D03*
X0339496Y0094496D03*
X0366504Y0094496D03*
X0366504Y0121504D03*
X0339496Y0121504D03*
X0291504Y0121504D03*
X0264496Y0121504D03*
X0264496Y0094496D03*
X0291504Y0094496D03*
D16*
X0268000Y0268000D03*
D17*
X0278000Y0268000D03*
D18*
X0213000Y0063000D03*
D19*
X0203000Y0073000D03*
X0238000Y0093000D03*
X0263000Y0078000D03*
X0298000Y0078000D03*
X0333000Y0078000D03*
X0393000Y0043000D03*
X0333000Y0133000D03*
X0313000Y0153000D03*
X0353000Y0153000D03*
X0363000Y0153000D03*
X0343000Y0183000D03*
X0323000Y0183000D03*
X0263000Y0193000D03*
X0253000Y0183000D03*
X0233000Y0153000D03*
X0223000Y0153000D03*
X0213000Y0153000D03*
X0243000Y0123000D03*
X0193000Y0193000D03*
X0183000Y0193000D03*
X0148000Y0218000D03*
X0138000Y0233000D03*
X0115500Y0190500D03*
X0098000Y0183000D03*
X0098000Y0163000D03*
X0108000Y0153000D03*
X0048000Y0173000D03*
X0070500Y0200500D03*
X0058000Y0213000D03*
X0048000Y0228000D03*
X0033000Y0233000D03*
X0078000Y0233000D03*
X0213000Y0248000D03*
X0275500Y0235500D03*
X0300500Y0235500D03*
X0288000Y0268000D03*
X0045500Y0105500D03*
X0108000Y0048000D03*
M02*
