%
M48
M72
T01C0.02756
T02C0.03150
T03C0.03200
T04C0.03937
T05C0.04000
T06C0.05118
T07C0.08661
T08C0.09606
%
T01
X153000Y263000
X163000Y263000
T02
X188000Y158000
X208000Y158000
X218000Y158000
X228000Y158000
X228000Y138000
X218000Y138000
X208000Y138000
X188000Y138000
X188000Y93000
X208000Y93000
X218000Y93000
X228000Y93000
X228000Y73000
X218000Y73000
X208000Y73000
X188000Y73000
X143000Y78000
X133000Y78000
X123000Y78000
X103000Y78000
X103000Y58000
X123000Y58000
X133000Y58000
X143000Y58000
X68000Y58000
X58000Y58000
X48000Y58000
X28000Y58000
X28000Y78000
X48000Y78000
X58000Y78000
X68000Y78000
X273000Y73000
X293000Y73000
X303000Y73000
X313000Y73000
X313000Y93000
X303000Y93000
X293000Y93000
X273000Y93000
X273000Y138000
X293000Y138000
X303000Y138000
X313000Y138000
X313000Y158000
X303000Y158000
X293000Y158000
X273000Y158000
T03
X268000Y213000
X258000Y213000
X248000Y213000
X238000Y213000
X228000Y213000
X218000Y213000
X208000Y213000
X198000Y213000
X188000Y213000
X188000Y243000
X198000Y243000
X208000Y243000
X218000Y243000
X228000Y243000
X238000Y243000
X248000Y243000
X258000Y243000
X268000Y243000
T04
X323000Y248000
X383000Y183000
X308000Y148000
X280500Y145500
X262500Y161500
X235500Y140500
X218000Y148000
X198000Y135500
X208000Y128000
X235500Y113000
X268000Y103000
X278000Y113000
X313000Y113000
X323000Y83000
X280500Y73000
X235500Y80500
X228000Y58000
X178000Y78000
X198000Y98000
X173000Y113000
X128000Y88000
X118000Y88000
X98000Y98000
X78000Y108000
X108000Y118000
X48000Y85500
X13000Y98000
X13000Y63000
X35500Y58000
X88000Y63000
X110500Y58000
X123000Y68000
X108000Y168000
X183000Y168000
X163000Y233000
X78000Y228000
X363000Y128000
T05
X263000Y38000
X253000Y38000
X243000Y38000
X233000Y38000
X175500Y232500
X175500Y243500
X183000Y263000
X193000Y263000
X228000Y263000
X238000Y263000
X248000Y263000
X258000Y263000
X268000Y263000
T06
X363000Y248000
X363000Y183000
X363000Y118000
X363000Y53000
X138000Y138000
X138000Y198000
X38000Y198000
X38000Y138000
T07
X23000Y18000
X23000Y263000
X393000Y18000
X398000Y263000
T08
X376504Y261504
X349496Y261504
X349496Y234496
X376504Y234496
X376504Y196504
X349496Y196504
X349496Y169496
X376504Y169496
X376504Y131504
X349496Y131504
X349496Y104496
X376504Y104496
X376504Y66504
X349496Y66504
X349496Y39496
X376504Y39496
X151504Y124496
X124496Y124496
X124496Y151504
X151504Y151504
X151504Y184496
X124496Y184496
X124496Y211504
X151504Y211504
X51504Y211504
X24496Y211504
X24496Y184496
X51504Y184496
X51504Y151504
X24496Y151504
X24496Y124496
X51504Y124496
M30
