G75*
%MOIN*%
%OFA0B0*%
%FSLAX25Y25*%
%IPPOS*%
%LPD*%
%AMOC8*
5,1,8,0,0,1.08239X$1,22.5*
%
%ADD10C,0.01100*%
%ADD11R,0.04724X0.05512*%
%ADD12R,0.03268X0.02480*%
%ADD13C,0.05200*%
%ADD14C,0.07400*%
%ADD15C,0.05150*%
%ADD16R,0.03937X0.04331*%
%ADD17R,0.04331X0.03937*%
%ADD18C,0.07677*%
%ADD19C,0.13606*%
%ADD20C,0.06500*%
%ADD21R,0.06500X0.06500*%
%ADD22C,0.08000*%
%ADD23R,0.07400X0.07400*%
%ADD24C,0.04000*%
%ADD25R,0.05906X0.05906*%
D10*
X0063550Y0158550D02*
X0063550Y0162487D01*
X0065518Y0164455D01*
X0067487Y0162487D01*
X0067487Y0158550D01*
X0067487Y0161503D02*
X0063550Y0161503D01*
X0093550Y0161503D02*
X0097487Y0161503D01*
X0097487Y0162487D02*
X0097487Y0158550D01*
X0097487Y0162487D02*
X0095518Y0164455D01*
X0093550Y0162487D01*
X0093550Y0158550D01*
X0103550Y0213550D02*
X0106503Y0213550D01*
X0107487Y0214534D01*
X0107487Y0215518D01*
X0106503Y0216503D01*
X0103550Y0216503D01*
X0103550Y0219455D02*
X0103550Y0213550D01*
X0106503Y0216503D02*
X0107487Y0217487D01*
X0107487Y0218471D01*
X0106503Y0219455D01*
X0103550Y0219455D01*
X0113550Y0238550D02*
X0116503Y0238550D01*
X0117487Y0239534D01*
X0117487Y0240518D01*
X0116503Y0241503D01*
X0113550Y0241503D01*
X0113550Y0244455D02*
X0113550Y0238550D01*
X0116503Y0241503D02*
X0117487Y0242487D01*
X0117487Y0243471D01*
X0116503Y0244455D01*
X0113550Y0244455D01*
X0119995Y0244455D02*
X0119995Y0243471D01*
X0121964Y0241503D01*
X0121964Y0238550D01*
X0121964Y0241503D02*
X0123932Y0243471D01*
X0123932Y0244455D01*
X0126441Y0244455D02*
X0129394Y0244455D01*
X0130378Y0243471D01*
X0130378Y0241503D01*
X0129394Y0240518D01*
X0126441Y0240518D01*
X0126441Y0238550D02*
X0126441Y0244455D01*
X0132886Y0242487D02*
X0132886Y0238550D01*
X0132886Y0241503D02*
X0136823Y0241503D01*
X0136823Y0242487D02*
X0136823Y0238550D01*
X0139332Y0239534D02*
X0140316Y0238550D01*
X0142285Y0238550D01*
X0143269Y0239534D01*
X0143269Y0240518D01*
X0142285Y0241503D01*
X0140316Y0241503D01*
X0139332Y0242487D01*
X0139332Y0243471D01*
X0140316Y0244455D01*
X0142285Y0244455D01*
X0143269Y0243471D01*
X0145777Y0243471D02*
X0145777Y0242487D01*
X0146762Y0241503D01*
X0148730Y0241503D01*
X0149714Y0240518D01*
X0149714Y0239534D01*
X0148730Y0238550D01*
X0146762Y0238550D01*
X0145777Y0239534D01*
X0145777Y0243471D02*
X0146762Y0244455D01*
X0148730Y0244455D01*
X0149714Y0243471D01*
X0136823Y0242487D02*
X0134855Y0244455D01*
X0132886Y0242487D01*
X0072487Y0218471D02*
X0072487Y0217487D01*
X0071503Y0216503D01*
X0068550Y0216503D01*
X0068550Y0219455D02*
X0068550Y0213550D01*
X0071503Y0213550D01*
X0072487Y0214534D01*
X0072487Y0215518D01*
X0071503Y0216503D01*
X0072487Y0218471D02*
X0071503Y0219455D01*
X0068550Y0219455D01*
X0041784Y0238550D02*
X0041784Y0244455D01*
X0037847Y0244455D02*
X0041784Y0238550D01*
X0037847Y0238550D02*
X0037847Y0244455D01*
X0035518Y0244455D02*
X0033550Y0244455D01*
X0034534Y0244455D02*
X0034534Y0238550D01*
X0033550Y0238550D02*
X0035518Y0238550D01*
D11*
X0179594Y0123000D03*
X0191406Y0123000D03*
X0264594Y0123000D03*
X0276406Y0123000D03*
X0276406Y0058000D03*
X0264594Y0058000D03*
X0191406Y0058000D03*
X0179594Y0058000D03*
X0123906Y0038000D03*
X0112094Y0038000D03*
X0048906Y0038000D03*
X0037094Y0038000D03*
D12*
X0013000Y0078472D03*
X0013000Y0087528D03*
X0088000Y0087528D03*
X0088000Y0078472D03*
X0178000Y0083472D03*
X0178000Y0092528D03*
X0263000Y0088472D03*
X0263000Y0097528D03*
X0263000Y0143472D03*
X0263000Y0152528D03*
X0178000Y0153472D03*
X0178000Y0162528D03*
D13*
X0188000Y0210400D02*
X0188000Y0215600D01*
X0198000Y0215600D02*
X0198000Y0210400D01*
X0208000Y0210400D02*
X0208000Y0215600D01*
X0218000Y0215600D02*
X0218000Y0210400D01*
X0228000Y0210400D02*
X0228000Y0215600D01*
X0238000Y0215600D02*
X0238000Y0210400D01*
X0248000Y0210400D02*
X0248000Y0215600D01*
X0258000Y0215600D02*
X0258000Y0210400D01*
X0268000Y0210400D02*
X0268000Y0215600D01*
X0268000Y0240400D02*
X0268000Y0245600D01*
X0258000Y0245600D02*
X0258000Y0240400D01*
X0248000Y0240400D02*
X0248000Y0245600D01*
X0238000Y0245600D02*
X0238000Y0240400D01*
X0228000Y0240400D02*
X0228000Y0245600D01*
X0218000Y0245600D02*
X0218000Y0240400D01*
X0208000Y0240400D02*
X0208000Y0245600D01*
X0198000Y0245600D02*
X0198000Y0240400D01*
X0188000Y0240400D02*
X0188000Y0245600D01*
D14*
X0183000Y0263000D03*
X0193000Y0263000D03*
X0228000Y0263000D03*
X0238000Y0263000D03*
X0248000Y0263000D03*
X0258000Y0263000D03*
X0268000Y0263000D03*
X0263000Y0038000D03*
X0253000Y0038000D03*
X0243000Y0038000D03*
D15*
X0228000Y0070425D02*
X0228000Y0075575D01*
X0218000Y0075575D02*
X0218000Y0070425D01*
X0208000Y0070425D02*
X0208000Y0075575D01*
X0208000Y0090425D02*
X0208000Y0095575D01*
X0218000Y0095575D02*
X0218000Y0090425D01*
X0228000Y0090425D02*
X0228000Y0095575D01*
X0188000Y0095575D02*
X0188000Y0090425D01*
X0188000Y0075575D02*
X0188000Y0070425D01*
X0143000Y0075425D02*
X0143000Y0080575D01*
X0133000Y0080575D02*
X0133000Y0075425D01*
X0123000Y0075425D02*
X0123000Y0080575D01*
X0103000Y0080575D02*
X0103000Y0075425D01*
X0103000Y0060575D02*
X0103000Y0055425D01*
X0123000Y0055425D02*
X0123000Y0060575D01*
X0133000Y0060575D02*
X0133000Y0055425D01*
X0143000Y0055425D02*
X0143000Y0060575D01*
X0068000Y0060575D02*
X0068000Y0055425D01*
X0058000Y0055425D02*
X0058000Y0060575D01*
X0048000Y0060575D02*
X0048000Y0055425D01*
X0028000Y0055425D02*
X0028000Y0060575D01*
X0028000Y0075425D02*
X0028000Y0080575D01*
X0048000Y0080575D02*
X0048000Y0075425D01*
X0058000Y0075425D02*
X0058000Y0080575D01*
X0068000Y0080575D02*
X0068000Y0075425D01*
X0188000Y0135425D02*
X0188000Y0140575D01*
X0188000Y0155425D02*
X0188000Y0160575D01*
X0208000Y0160575D02*
X0208000Y0155425D01*
X0218000Y0155425D02*
X0218000Y0160575D01*
X0228000Y0160575D02*
X0228000Y0155425D01*
X0228000Y0140575D02*
X0228000Y0135425D01*
X0218000Y0135425D02*
X0218000Y0140575D01*
X0208000Y0140575D02*
X0208000Y0135425D01*
X0273000Y0135425D02*
X0273000Y0140575D01*
X0293000Y0140575D02*
X0293000Y0135425D01*
X0303000Y0135425D02*
X0303000Y0140575D01*
X0313000Y0140575D02*
X0313000Y0135425D01*
X0313000Y0155425D02*
X0313000Y0160575D01*
X0303000Y0160575D02*
X0303000Y0155425D01*
X0293000Y0155425D02*
X0293000Y0160575D01*
X0273000Y0160575D02*
X0273000Y0155425D01*
X0273000Y0095575D02*
X0273000Y0090425D01*
X0293000Y0090425D02*
X0293000Y0095575D01*
X0303000Y0095575D02*
X0303000Y0090425D01*
X0313000Y0090425D02*
X0313000Y0095575D01*
X0313000Y0075575D02*
X0313000Y0070425D01*
X0303000Y0070425D02*
X0303000Y0075575D01*
X0293000Y0075575D02*
X0293000Y0070425D01*
X0273000Y0070425D02*
X0273000Y0075575D01*
D16*
X0253000Y0089654D03*
X0253000Y0096346D03*
X0253000Y0149654D03*
X0253000Y0156346D03*
X0168000Y0154654D03*
X0168000Y0161346D03*
X0155500Y0098846D03*
X0155500Y0092154D03*
D17*
X0096346Y0038000D03*
X0089654Y0038000D03*
X0021346Y0038000D03*
X0014654Y0038000D03*
D18*
X0038000Y0138000D03*
X0038000Y0198000D03*
X0138000Y0198000D03*
X0138000Y0138000D03*
X0363000Y0118000D03*
X0363000Y0183000D03*
X0363000Y0248000D03*
X0363000Y0053000D03*
D19*
X0349496Y0039496D03*
X0376504Y0039496D03*
X0376504Y0066504D03*
X0349496Y0066504D03*
X0349496Y0104496D03*
X0376504Y0104496D03*
X0376504Y0131504D03*
X0349496Y0131504D03*
X0349496Y0169496D03*
X0376504Y0169496D03*
X0376504Y0196504D03*
X0349496Y0196504D03*
X0349496Y0234496D03*
X0376504Y0234496D03*
X0376504Y0261504D03*
X0349496Y0261504D03*
X0151504Y0211504D03*
X0124496Y0211504D03*
X0124496Y0184496D03*
X0151504Y0184496D03*
X0151504Y0151504D03*
X0124496Y0151504D03*
X0124496Y0124496D03*
X0151504Y0124496D03*
X0051504Y0124496D03*
X0024496Y0124496D03*
X0024496Y0151504D03*
X0051504Y0151504D03*
X0051504Y0184496D03*
X0024496Y0184496D03*
X0024496Y0211504D03*
X0051504Y0211504D03*
D20*
X0153000Y0263000D03*
D21*
X0163000Y0263000D03*
D22*
X0175500Y0243500D03*
X0175500Y0232500D03*
D23*
X0233000Y0038000D03*
D24*
X0032067Y0011043D02*
X0031024Y0010000D01*
X0384976Y0010000D01*
X0383933Y0011043D01*
X0382441Y0013627D01*
X0381669Y0016508D01*
X0381669Y0019492D01*
X0382441Y0022373D01*
X0383933Y0024957D01*
X0386043Y0027067D01*
X0388627Y0028559D01*
X0391508Y0029331D01*
X0394492Y0029331D01*
X0397373Y0028559D01*
X0399957Y0027067D01*
X0402067Y0024957D01*
X0403559Y0022373D01*
X0404331Y0019492D01*
X0404331Y0016508D01*
X0403559Y0013627D01*
X0402067Y0011043D01*
X0401024Y0010000D01*
X0404701Y0010000D01*
X0404701Y0101973D01*
X0403098Y0100370D01*
X0381998Y0079270D01*
X0384979Y0077549D01*
X0387549Y0074979D01*
X0389366Y0071832D01*
X0390307Y0068321D01*
X0390307Y0064687D01*
X0389366Y0061176D01*
X0387549Y0058029D01*
X0384979Y0055459D01*
X0381832Y0053641D01*
X0379438Y0053000D01*
X0381832Y0052359D01*
X0384979Y0050541D01*
X0387549Y0047971D01*
X0389366Y0044824D01*
X0390307Y0041313D01*
X0390307Y0037679D01*
X0389366Y0034168D01*
X0387549Y0031021D01*
X0384979Y0028451D01*
X0381832Y0026634D01*
X0378321Y0025693D01*
X0374687Y0025693D01*
X0371176Y0026634D01*
X0368029Y0028451D01*
X0365459Y0031021D01*
X0363641Y0034168D01*
X0363000Y0036562D01*
X0362359Y0034168D01*
X0360541Y0031021D01*
X0357971Y0028451D01*
X0354824Y0026634D01*
X0351313Y0025693D01*
X0347679Y0025693D01*
X0344168Y0026634D01*
X0341021Y0028451D01*
X0338451Y0031021D01*
X0336634Y0034168D01*
X0335693Y0037679D01*
X0335693Y0038054D01*
X0335630Y0037902D01*
X0333098Y0035370D01*
X0318098Y0020370D01*
X0314790Y0019000D01*
X0226210Y0019000D01*
X0222902Y0020370D01*
X0215370Y0027902D01*
X0214000Y0031210D01*
X0214000Y0041272D01*
X0205630Y0032902D01*
X0203098Y0030370D01*
X0199790Y0029000D01*
X0176210Y0029000D01*
X0172902Y0030370D01*
X0151748Y0051524D01*
X0151117Y0050002D01*
X0148424Y0047308D01*
X0144905Y0045850D01*
X0141095Y0045850D01*
X0138000Y0047133D01*
X0134905Y0045850D01*
X0131095Y0045850D01*
X0128000Y0047133D01*
X0124905Y0045850D01*
X0121095Y0045850D01*
X0117576Y0047308D01*
X0114883Y0050002D01*
X0113425Y0053521D01*
X0113425Y0062479D01*
X0113480Y0062611D01*
X0113047Y0063655D01*
X0113047Y0072345D01*
X0113480Y0073389D01*
X0113425Y0073521D01*
X0113425Y0078142D01*
X0112575Y0078495D01*
X0112575Y0073521D01*
X0111117Y0070002D01*
X0108424Y0067308D01*
X0104905Y0065850D01*
X0104804Y0065850D01*
X0105140Y0065741D01*
X0105922Y0065343D01*
X0106632Y0064827D01*
X0107252Y0064207D01*
X0107768Y0063497D01*
X0108166Y0062715D01*
X0108438Y0061880D01*
X0108575Y0061014D01*
X0108575Y0058000D01*
X0103000Y0058000D01*
X0103000Y0058000D01*
X0108575Y0058000D01*
X0108575Y0054986D01*
X0108438Y0054120D01*
X0108166Y0053285D01*
X0107768Y0052503D01*
X0107252Y0051793D01*
X0106632Y0051173D01*
X0105922Y0050657D01*
X0105140Y0050259D01*
X0104305Y0049988D01*
X0103439Y0049850D01*
X0103000Y0049850D01*
X0103000Y0058000D01*
X0103000Y0058000D01*
X0103000Y0049850D01*
X0102561Y0049850D01*
X0101695Y0049988D01*
X0100860Y0050259D01*
X0100078Y0050657D01*
X0099368Y0051173D01*
X0098748Y0051793D01*
X0098232Y0052503D01*
X0097834Y0053285D01*
X0097562Y0054120D01*
X0097425Y0054986D01*
X0097425Y0057381D01*
X0097000Y0056355D01*
X0097000Y0047000D01*
X0106515Y0047000D01*
X0108340Y0047756D01*
X0115849Y0047756D01*
X0118422Y0046690D01*
X0120391Y0044721D01*
X0120826Y0043672D01*
X0121248Y0043756D01*
X0123905Y0043756D01*
X0123905Y0038000D01*
X0123906Y0038000D01*
X0129268Y0038000D01*
X0129268Y0041051D01*
X0129152Y0041631D01*
X0128926Y0042177D01*
X0128598Y0042668D01*
X0128180Y0043086D01*
X0127689Y0043414D01*
X0127143Y0043641D01*
X0126563Y0043756D01*
X0123906Y0043756D01*
X0123906Y0038000D01*
X0123906Y0038000D01*
X0129268Y0038000D01*
X0129268Y0034949D01*
X0129152Y0034369D01*
X0128926Y0033823D01*
X0128598Y0033332D01*
X0128180Y0032914D01*
X0127689Y0032586D01*
X0127143Y0032359D01*
X0126563Y0032244D01*
X0123906Y0032244D01*
X0123906Y0038000D01*
X0123905Y0038000D01*
X0123905Y0032244D01*
X0121248Y0032244D01*
X0120826Y0032328D01*
X0120391Y0031279D01*
X0118422Y0029310D01*
X0115849Y0028244D01*
X0108340Y0028244D01*
X0106515Y0029000D01*
X0094556Y0029000D01*
X0094480Y0029031D01*
X0091520Y0029031D01*
X0091444Y0029000D01*
X0086210Y0029000D01*
X0086134Y0029031D01*
X0086096Y0029031D01*
X0083523Y0030097D01*
X0083496Y0030124D01*
X0082902Y0030370D01*
X0080370Y0032902D01*
X0079000Y0036210D01*
X0079000Y0056355D01*
X0078047Y0058655D01*
X0078047Y0067345D01*
X0079000Y0069645D01*
X0079000Y0080263D01*
X0080370Y0083571D01*
X0080400Y0083600D01*
X0080432Y0083678D01*
X0082401Y0085647D01*
X0082479Y0085679D01*
X0082902Y0086102D01*
X0083366Y0086295D01*
X0083366Y0087527D01*
X0088000Y0087527D01*
X0088000Y0087528D01*
X0083366Y0087528D01*
X0083366Y0089000D01*
X0072680Y0089000D01*
X0073424Y0088692D01*
X0076117Y0085998D01*
X0077575Y0082479D01*
X0077575Y0073521D01*
X0076117Y0070002D01*
X0074116Y0068000D01*
X0076117Y0065998D01*
X0077575Y0062479D01*
X0077575Y0053521D01*
X0076117Y0050002D01*
X0073424Y0047308D01*
X0069905Y0045850D01*
X0066095Y0045850D01*
X0063000Y0047133D01*
X0059905Y0045850D01*
X0056095Y0045850D01*
X0053000Y0047133D01*
X0049905Y0045850D01*
X0046095Y0045850D01*
X0042576Y0047308D01*
X0039883Y0050002D01*
X0038425Y0053521D01*
X0038425Y0062479D01*
X0039883Y0065998D01*
X0041884Y0068000D01*
X0039883Y0070002D01*
X0038425Y0073521D01*
X0038425Y0080242D01*
X0038047Y0081155D01*
X0038047Y0089845D01*
X0039113Y0092418D01*
X0041082Y0094387D01*
X0043655Y0095453D01*
X0047725Y0095453D01*
X0057902Y0105630D01*
X0061210Y0107000D01*
X0068047Y0107000D01*
X0068047Y0112345D01*
X0069113Y0114918D01*
X0071082Y0116887D01*
X0073655Y0117953D01*
X0082345Y0117953D01*
X0084645Y0117000D01*
X0098047Y0117000D01*
X0098047Y0122345D01*
X0099000Y0124645D01*
X0099000Y0151005D01*
X0098988Y0151000D01*
X0095985Y0151000D01*
X0095518Y0151193D01*
X0095052Y0151000D01*
X0092048Y0151000D01*
X0089273Y0152149D01*
X0087149Y0154273D01*
X0086000Y0157048D01*
X0086000Y0163988D01*
X0086664Y0165591D01*
X0087149Y0166763D01*
X0089118Y0168732D01*
X0089118Y0168732D01*
X0090216Y0169830D01*
X0091242Y0170856D01*
X0091242Y0170856D01*
X0092126Y0171222D01*
X0094017Y0172005D01*
X0097020Y0172005D01*
X0098047Y0171580D01*
X0098047Y0172345D01*
X0099113Y0174918D01*
X0101082Y0176887D01*
X0103655Y0177953D01*
X0112335Y0177953D01*
X0111634Y0179168D01*
X0110693Y0182679D01*
X0110693Y0186313D01*
X0111634Y0189824D01*
X0113451Y0192971D01*
X0116021Y0195541D01*
X0119168Y0197359D01*
X0121562Y0198000D01*
X0119168Y0198641D01*
X0116021Y0200459D01*
X0113451Y0203029D01*
X0111634Y0206176D01*
X0111247Y0207618D01*
X0110779Y0207149D01*
X0108004Y0206000D01*
X0102048Y0206000D01*
X0099273Y0207149D01*
X0097149Y0209273D01*
X0096000Y0212048D01*
X0096000Y0220957D01*
X0097149Y0223732D01*
X0099273Y0225856D01*
X0102048Y0227005D01*
X0105001Y0227005D01*
X0105001Y0227005D01*
X0106519Y0227005D01*
X0108004Y0227005D01*
X0108004Y0227005D01*
X0108004Y0227005D01*
X0109316Y0226462D01*
X0110779Y0225856D01*
X0110779Y0225856D01*
X0110779Y0225856D01*
X0112357Y0224278D01*
X0112903Y0223732D01*
X0112903Y0223732D01*
X0113863Y0222771D01*
X0113887Y0222748D01*
X0113887Y0222748D01*
X0113887Y0222748D01*
X0114570Y0221099D01*
X0116021Y0222549D01*
X0119168Y0224366D01*
X0122679Y0225307D01*
X0126313Y0225307D01*
X0129824Y0224366D01*
X0132971Y0222549D01*
X0135541Y0219979D01*
X0137359Y0216832D01*
X0138000Y0214438D01*
X0138641Y0216832D01*
X0140459Y0219979D01*
X0143029Y0222549D01*
X0146176Y0224366D01*
X0149687Y0225307D01*
X0153321Y0225307D01*
X0156832Y0224366D01*
X0159979Y0222549D01*
X0162549Y0219979D01*
X0164366Y0216832D01*
X0165307Y0213321D01*
X0165307Y0209687D01*
X0164366Y0206176D01*
X0162549Y0203029D01*
X0159979Y0200459D01*
X0156832Y0198641D01*
X0154438Y0198000D01*
X0156832Y0197359D01*
X0159979Y0195541D01*
X0162549Y0192971D01*
X0164366Y0189824D01*
X0165307Y0186313D01*
X0165307Y0182679D01*
X0164366Y0179168D01*
X0162549Y0176021D01*
X0159979Y0173451D01*
X0156832Y0171634D01*
X0153321Y0170693D01*
X0149687Y0170693D01*
X0146176Y0171634D01*
X0143029Y0173451D01*
X0140459Y0176021D01*
X0138641Y0179168D01*
X0138000Y0181562D01*
X0137359Y0179168D01*
X0135541Y0176021D01*
X0132971Y0173451D01*
X0129824Y0171634D01*
X0126313Y0170693D01*
X0122679Y0170693D01*
X0119168Y0171634D01*
X0117953Y0172335D01*
X0117953Y0163665D01*
X0119168Y0164366D01*
X0122679Y0165307D01*
X0126313Y0165307D01*
X0129824Y0164366D01*
X0132971Y0162549D01*
X0135541Y0159979D01*
X0137359Y0156832D01*
X0138000Y0154438D01*
X0138641Y0156832D01*
X0140459Y0159979D01*
X0143029Y0162549D01*
X0146176Y0164366D01*
X0149687Y0165307D01*
X0153321Y0165307D01*
X0156832Y0164366D01*
X0159000Y0163115D01*
X0159000Y0163137D01*
X0159031Y0163213D01*
X0159031Y0164904D01*
X0160097Y0167477D01*
X0162066Y0169446D01*
X0164639Y0170512D01*
X0169299Y0170512D01*
X0170370Y0173098D01*
X0172902Y0175630D01*
X0176210Y0177000D01*
X0176355Y0177000D01*
X0178655Y0177953D01*
X0187345Y0177953D01*
X0189918Y0176887D01*
X0191887Y0174918D01*
X0192953Y0172345D01*
X0192953Y0168887D01*
X0193424Y0168692D01*
X0196117Y0165998D01*
X0197575Y0162479D01*
X0197575Y0153521D01*
X0196117Y0150002D01*
X0193424Y0147308D01*
X0189905Y0145850D01*
X0189804Y0145850D01*
X0190140Y0145741D01*
X0190922Y0145343D01*
X0191632Y0144827D01*
X0192252Y0144207D01*
X0192768Y0143497D01*
X0193166Y0142715D01*
X0193438Y0141880D01*
X0193575Y0141014D01*
X0193575Y0138000D01*
X0188000Y0138000D01*
X0188000Y0138000D01*
X0188000Y0138000D01*
X0182425Y0138000D01*
X0182425Y0141014D01*
X0182562Y0141880D01*
X0182834Y0142715D01*
X0183232Y0143497D01*
X0183748Y0144207D01*
X0184368Y0144827D01*
X0185078Y0145343D01*
X0185860Y0145741D01*
X0186196Y0145850D01*
X0186095Y0145850D01*
X0182576Y0147308D01*
X0180529Y0149356D01*
X0180509Y0149348D01*
X0179929Y0149232D01*
X0178000Y0149232D01*
X0178000Y0152346D01*
X0178000Y0152346D01*
X0178000Y0149232D01*
X0177000Y0149232D01*
X0177000Y0136728D01*
X0178081Y0135647D01*
X0181753Y0132756D01*
X0183103Y0132756D01*
X0182834Y0133285D01*
X0182562Y0134120D01*
X0182425Y0134986D01*
X0182425Y0138000D01*
X0188000Y0138000D01*
X0193575Y0138000D01*
X0193575Y0134986D01*
X0193438Y0134120D01*
X0193166Y0133285D01*
X0192768Y0132503D01*
X0192252Y0131793D01*
X0191632Y0131173D01*
X0190922Y0130657D01*
X0190140Y0130259D01*
X0189305Y0129988D01*
X0188439Y0129850D01*
X0188000Y0129850D01*
X0188000Y0138000D01*
X0188000Y0138000D01*
X0188000Y0129850D01*
X0187762Y0129850D01*
X0187891Y0129721D01*
X0188326Y0128672D01*
X0188748Y0128756D01*
X0191405Y0128756D01*
X0191405Y0123000D01*
X0191406Y0123000D01*
X0196768Y0123000D01*
X0196768Y0126051D01*
X0196652Y0126631D01*
X0196426Y0127177D01*
X0196098Y0127668D01*
X0195680Y0128086D01*
X0195189Y0128414D01*
X0194643Y0128641D01*
X0194063Y0128756D01*
X0191406Y0128756D01*
X0191406Y0123000D01*
X0191406Y0123000D01*
X0196768Y0123000D01*
X0196768Y0119949D01*
X0196652Y0119369D01*
X0196426Y0118823D01*
X0196098Y0118332D01*
X0195680Y0117914D01*
X0195189Y0117586D01*
X0194643Y0117359D01*
X0194063Y0117244D01*
X0191406Y0117244D01*
X0191406Y0123000D01*
X0191405Y0123000D01*
X0191405Y0117244D01*
X0188748Y0117244D01*
X0188326Y0117328D01*
X0187891Y0116279D01*
X0185922Y0114310D01*
X0183349Y0113244D01*
X0182953Y0113244D01*
X0182953Y0108655D01*
X0181887Y0106082D01*
X0179918Y0104113D01*
X0177345Y0103047D01*
X0168655Y0103047D01*
X0166619Y0103891D01*
X0164500Y0101772D01*
X0164500Y0097056D01*
X0164468Y0096980D01*
X0164468Y0094020D01*
X0164500Y0093944D01*
X0164500Y0085822D01*
X0182566Y0067756D01*
X0183103Y0067756D01*
X0182834Y0068285D01*
X0182562Y0069120D01*
X0182425Y0069986D01*
X0182425Y0073000D01*
X0188000Y0073000D01*
X0193575Y0073000D01*
X0193575Y0076014D01*
X0193438Y0076880D01*
X0193166Y0077715D01*
X0192768Y0078497D01*
X0192252Y0079207D01*
X0191632Y0079827D01*
X0190922Y0080343D01*
X0190140Y0080741D01*
X0189804Y0080850D01*
X0189905Y0080850D01*
X0193424Y0082308D01*
X0196117Y0085002D01*
X0197379Y0088047D01*
X0198621Y0088047D01*
X0199883Y0085002D01*
X0201884Y0083000D01*
X0199883Y0080998D01*
X0198425Y0077479D01*
X0198425Y0068521D01*
X0199883Y0065002D01*
X0202576Y0062308D01*
X0206095Y0060850D01*
X0208122Y0060850D01*
X0194272Y0047000D01*
X0181728Y0047000D01*
X0180484Y0048244D01*
X0183349Y0048244D01*
X0185922Y0049310D01*
X0187891Y0051279D01*
X0188326Y0052328D01*
X0188748Y0052244D01*
X0191405Y0052244D01*
X0191405Y0058000D01*
X0191405Y0063756D01*
X0188748Y0063756D01*
X0188326Y0063672D01*
X0187891Y0064721D01*
X0187762Y0064850D01*
X0188000Y0064850D01*
X0188439Y0064850D01*
X0189305Y0064988D01*
X0190140Y0065259D01*
X0190922Y0065657D01*
X0191632Y0066173D01*
X0192252Y0066793D01*
X0192768Y0067503D01*
X0193166Y0068285D01*
X0193438Y0069120D01*
X0193575Y0069986D01*
X0193575Y0073000D01*
X0188000Y0073000D01*
X0188000Y0073000D01*
X0188000Y0073000D01*
X0188000Y0064850D01*
X0188000Y0073000D01*
X0188000Y0073000D01*
X0182425Y0073000D01*
X0182425Y0076014D01*
X0182562Y0076880D01*
X0182834Y0077715D01*
X0183232Y0078497D01*
X0183748Y0079207D01*
X0184368Y0079827D01*
X0185078Y0080343D01*
X0185860Y0080741D01*
X0186196Y0080850D01*
X0186095Y0080850D01*
X0182634Y0082284D01*
X0182634Y0081937D01*
X0182519Y0081357D01*
X0182292Y0080811D01*
X0181964Y0080320D01*
X0181546Y0079902D01*
X0181055Y0079574D01*
X0180509Y0079348D01*
X0179929Y0079232D01*
X0178000Y0079232D01*
X0178000Y0083472D01*
X0178000Y0083472D01*
X0178000Y0079232D01*
X0176071Y0079232D01*
X0175491Y0079348D01*
X0174945Y0079574D01*
X0174454Y0079902D01*
X0174036Y0080320D01*
X0173708Y0080811D01*
X0173481Y0081357D01*
X0173366Y0081937D01*
X0173366Y0083472D01*
X0178000Y0083472D01*
X0178000Y0083472D01*
X0173366Y0083472D01*
X0173366Y0084705D01*
X0172902Y0084898D01*
X0172479Y0085321D01*
X0172401Y0085353D01*
X0170432Y0087322D01*
X0170400Y0087400D01*
X0170370Y0087429D01*
X0169000Y0090737D01*
X0169000Y0094318D01*
X0170370Y0097626D01*
X0170400Y0097655D01*
X0170432Y0097733D01*
X0172401Y0099702D01*
X0172479Y0099734D01*
X0172902Y0100157D01*
X0176210Y0101528D01*
X0180412Y0101528D01*
X0182576Y0103692D01*
X0186095Y0105150D01*
X0189345Y0105150D01*
X0191082Y0106887D01*
X0193655Y0107953D01*
X0195225Y0107953D01*
X0199000Y0111728D01*
X0199000Y0121355D01*
X0198047Y0123655D01*
X0198047Y0132345D01*
X0198480Y0133389D01*
X0198425Y0133521D01*
X0198425Y0142479D01*
X0199883Y0145998D01*
X0201884Y0148000D01*
X0199883Y0150002D01*
X0198425Y0153521D01*
X0198425Y0162479D01*
X0199883Y0165998D01*
X0202576Y0168692D01*
X0206095Y0170150D01*
X0209905Y0170150D01*
X0213000Y0168867D01*
X0216095Y0170150D01*
X0219905Y0170150D01*
X0223000Y0168867D01*
X0226095Y0170150D01*
X0229149Y0170150D01*
X0230370Y0173098D01*
X0235370Y0178098D01*
X0237902Y0180630D01*
X0241210Y0182000D01*
X0264272Y0182000D01*
X0314000Y0231728D01*
X0314000Y0241355D01*
X0313047Y0243655D01*
X0313047Y0252345D01*
X0314113Y0254918D01*
X0316082Y0256887D01*
X0318655Y0257953D01*
X0327345Y0257953D01*
X0329918Y0256887D01*
X0331887Y0254918D01*
X0332953Y0252345D01*
X0332953Y0243655D01*
X0332000Y0241355D01*
X0332000Y0226210D01*
X0330630Y0222902D01*
X0328098Y0220370D01*
X0277007Y0169279D01*
X0278424Y0168692D01*
X0281117Y0165998D01*
X0282575Y0162479D01*
X0282575Y0153521D01*
X0281117Y0150002D01*
X0278424Y0147308D01*
X0274905Y0145850D01*
X0274804Y0145850D01*
X0275140Y0145741D01*
X0275922Y0145343D01*
X0276632Y0144827D01*
X0277252Y0144207D01*
X0277768Y0143497D01*
X0278166Y0142715D01*
X0278438Y0141880D01*
X0278575Y0141014D01*
X0278575Y0138000D01*
X0273000Y0138000D01*
X0273000Y0138000D01*
X0278575Y0138000D01*
X0278575Y0134986D01*
X0278438Y0134120D01*
X0278166Y0133285D01*
X0277768Y0132503D01*
X0277252Y0131793D01*
X0276632Y0131173D01*
X0275922Y0130657D01*
X0275140Y0130259D01*
X0274305Y0129988D01*
X0273439Y0129850D01*
X0273000Y0129850D01*
X0273000Y0138000D01*
X0273000Y0138000D01*
X0273000Y0138000D01*
X0267425Y0138000D01*
X0267425Y0141014D01*
X0267456Y0141205D01*
X0267292Y0140811D01*
X0266964Y0140320D01*
X0266546Y0139902D01*
X0266055Y0139574D01*
X0265509Y0139348D01*
X0264929Y0139232D01*
X0263000Y0139232D01*
X0262000Y0139232D01*
X0262000Y0138322D01*
X0267566Y0132756D01*
X0268103Y0132756D01*
X0267834Y0133285D01*
X0267562Y0134120D01*
X0267425Y0134986D01*
X0267425Y0138000D01*
X0273000Y0138000D01*
X0273000Y0129850D01*
X0272762Y0129850D01*
X0272891Y0129721D01*
X0273326Y0128672D01*
X0273748Y0128756D01*
X0276405Y0128756D01*
X0276405Y0123000D01*
X0276406Y0123000D01*
X0281768Y0123000D01*
X0281768Y0126051D01*
X0281652Y0126631D01*
X0281426Y0127177D01*
X0281098Y0127668D01*
X0280680Y0128086D01*
X0280189Y0128414D01*
X0279643Y0128641D01*
X0279063Y0128756D01*
X0276406Y0128756D01*
X0276406Y0123000D01*
X0276406Y0123000D01*
X0281768Y0123000D01*
X0281768Y0122953D01*
X0282345Y0122953D01*
X0284918Y0121887D01*
X0286887Y0119918D01*
X0287953Y0117345D01*
X0287953Y0108655D01*
X0286887Y0106082D01*
X0284918Y0104113D01*
X0282345Y0103047D01*
X0279068Y0103047D01*
X0281117Y0100998D01*
X0282575Y0097479D01*
X0282575Y0088521D01*
X0281117Y0085002D01*
X0278424Y0082308D01*
X0274905Y0080850D01*
X0274804Y0080850D01*
X0275140Y0080741D01*
X0275922Y0080343D01*
X0276632Y0079827D01*
X0277252Y0079207D01*
X0277768Y0078497D01*
X0278166Y0077715D01*
X0278438Y0076880D01*
X0278575Y0076014D01*
X0278575Y0073000D01*
X0273000Y0073000D01*
X0273000Y0073000D01*
X0278575Y0073000D01*
X0278575Y0069986D01*
X0278438Y0069120D01*
X0278166Y0068285D01*
X0277768Y0067503D01*
X0277252Y0066793D01*
X0276632Y0066173D01*
X0275922Y0065657D01*
X0275140Y0065259D01*
X0274305Y0064988D01*
X0273439Y0064850D01*
X0273000Y0064850D01*
X0273000Y0073000D01*
X0273000Y0073000D01*
X0273000Y0073000D01*
X0267425Y0073000D01*
X0267425Y0076014D01*
X0267562Y0076880D01*
X0267834Y0077715D01*
X0268232Y0078497D01*
X0268748Y0079207D01*
X0269368Y0079827D01*
X0270078Y0080343D01*
X0270860Y0080741D01*
X0271196Y0080850D01*
X0271095Y0080850D01*
X0267576Y0082308D01*
X0265529Y0084356D01*
X0265509Y0084348D01*
X0264929Y0084232D01*
X0263000Y0084232D01*
X0262000Y0084232D01*
X0262000Y0073322D01*
X0267566Y0067756D01*
X0268103Y0067756D01*
X0267834Y0068285D01*
X0267562Y0069120D01*
X0267425Y0069986D01*
X0267425Y0073000D01*
X0273000Y0073000D01*
X0273000Y0064850D01*
X0272762Y0064850D01*
X0272891Y0064721D01*
X0273326Y0063672D01*
X0273748Y0063756D01*
X0276405Y0063756D01*
X0276405Y0058000D01*
X0276406Y0058000D01*
X0281768Y0058000D01*
X0281768Y0061051D01*
X0281652Y0061631D01*
X0281426Y0062177D01*
X0281098Y0062668D01*
X0280680Y0063086D01*
X0280189Y0063414D01*
X0279643Y0063641D01*
X0279063Y0063756D01*
X0276406Y0063756D01*
X0276406Y0058000D01*
X0276406Y0058000D01*
X0281768Y0058000D01*
X0281768Y0054949D01*
X0281652Y0054369D01*
X0281426Y0053823D01*
X0281098Y0053332D01*
X0280680Y0052914D01*
X0280189Y0052586D01*
X0279643Y0052359D01*
X0279063Y0052244D01*
X0276406Y0052244D01*
X0276406Y0058000D01*
X0276405Y0058000D01*
X0276405Y0052244D01*
X0273748Y0052244D01*
X0273326Y0052328D01*
X0272891Y0051279D01*
X0270922Y0049310D01*
X0268349Y0048244D01*
X0266110Y0048244D01*
X0267130Y0047971D01*
X0269570Y0046562D01*
X0271562Y0044570D01*
X0272971Y0042130D01*
X0273700Y0039409D01*
X0273700Y0037000D01*
X0309272Y0037000D01*
X0319000Y0046728D01*
X0319000Y0062884D01*
X0318424Y0062308D01*
X0314905Y0060850D01*
X0311095Y0060850D01*
X0308000Y0062133D01*
X0304905Y0060850D01*
X0301095Y0060850D01*
X0298000Y0062133D01*
X0294905Y0060850D01*
X0291095Y0060850D01*
X0287576Y0062308D01*
X0284883Y0065002D01*
X0283425Y0068521D01*
X0283425Y0077479D01*
X0284883Y0080998D01*
X0286884Y0083000D01*
X0284883Y0085002D01*
X0283425Y0088521D01*
X0283425Y0097479D01*
X0284883Y0100998D01*
X0287576Y0103692D01*
X0291095Y0105150D01*
X0294905Y0105150D01*
X0298000Y0103867D01*
X0301095Y0105150D01*
X0304905Y0105150D01*
X0305145Y0105050D01*
X0304113Y0106082D01*
X0303047Y0108655D01*
X0303047Y0117345D01*
X0304113Y0119918D01*
X0306082Y0121887D01*
X0308655Y0122953D01*
X0317345Y0122953D01*
X0319918Y0121887D01*
X0321887Y0119918D01*
X0322953Y0117345D01*
X0322953Y0115775D01*
X0330630Y0108098D01*
X0332000Y0104790D01*
X0332000Y0089645D01*
X0332708Y0087936D01*
X0337902Y0093130D01*
X0340334Y0094137D01*
X0338451Y0096021D01*
X0336634Y0099168D01*
X0335693Y0102679D01*
X0335693Y0106313D01*
X0336634Y0109824D01*
X0338451Y0112971D01*
X0341021Y0115541D01*
X0344168Y0117359D01*
X0346562Y0118000D01*
X0344168Y0118641D01*
X0341021Y0120459D01*
X0338451Y0123029D01*
X0336634Y0126176D01*
X0335693Y0129687D01*
X0335693Y0133321D01*
X0336634Y0136832D01*
X0337885Y0139000D01*
X0322575Y0139000D01*
X0322575Y0133521D01*
X0321117Y0130002D01*
X0318424Y0127308D01*
X0314905Y0125850D01*
X0311095Y0125850D01*
X0308000Y0127133D01*
X0304905Y0125850D01*
X0301095Y0125850D01*
X0298000Y0127133D01*
X0294905Y0125850D01*
X0291095Y0125850D01*
X0287576Y0127308D01*
X0284883Y0130002D01*
X0283425Y0133521D01*
X0283425Y0142479D01*
X0284883Y0145998D01*
X0286884Y0148000D01*
X0284883Y0150002D01*
X0283425Y0153521D01*
X0283425Y0162479D01*
X0284883Y0165998D01*
X0287576Y0168692D01*
X0291095Y0170150D01*
X0294905Y0170150D01*
X0298000Y0168867D01*
X0301095Y0170150D01*
X0304905Y0170150D01*
X0308000Y0168867D01*
X0311095Y0170150D01*
X0314905Y0170150D01*
X0318424Y0168692D01*
X0321117Y0165998D01*
X0322575Y0162479D01*
X0322575Y0157000D01*
X0343534Y0157000D01*
X0341021Y0158451D01*
X0338451Y0161021D01*
X0336634Y0164168D01*
X0335693Y0167679D01*
X0335693Y0171313D01*
X0336634Y0174824D01*
X0338451Y0177971D01*
X0341021Y0180541D01*
X0344168Y0182359D01*
X0346562Y0183000D01*
X0344168Y0183641D01*
X0341021Y0185459D01*
X0338451Y0188029D01*
X0336634Y0191176D01*
X0335693Y0194687D01*
X0335693Y0198321D01*
X0336634Y0201832D01*
X0338451Y0204979D01*
X0341021Y0207549D01*
X0344168Y0209366D01*
X0347679Y0210307D01*
X0351313Y0210307D01*
X0354824Y0209366D01*
X0357971Y0207549D01*
X0360541Y0204979D01*
X0362359Y0201832D01*
X0363000Y0199438D01*
X0363641Y0201832D01*
X0365459Y0204979D01*
X0368029Y0207549D01*
X0371176Y0209366D01*
X0374687Y0210307D01*
X0378321Y0210307D01*
X0381832Y0209366D01*
X0384979Y0207549D01*
X0387549Y0204979D01*
X0389366Y0201832D01*
X0390307Y0198321D01*
X0390307Y0194687D01*
X0389593Y0192022D01*
X0389918Y0191887D01*
X0391887Y0189918D01*
X0392953Y0187345D01*
X0392953Y0185775D01*
X0404701Y0174027D01*
X0404701Y0253785D01*
X0402373Y0252441D01*
X0399492Y0251669D01*
X0396508Y0251669D01*
X0393627Y0252441D01*
X0391043Y0253933D01*
X0389159Y0255817D01*
X0387549Y0253029D01*
X0384979Y0250459D01*
X0381832Y0248641D01*
X0379438Y0248000D01*
X0381832Y0247359D01*
X0384979Y0245541D01*
X0387549Y0242971D01*
X0389366Y0239824D01*
X0390307Y0236313D01*
X0390307Y0232679D01*
X0389366Y0229168D01*
X0387549Y0226021D01*
X0384979Y0223451D01*
X0381832Y0221634D01*
X0378321Y0220693D01*
X0374687Y0220693D01*
X0371176Y0221634D01*
X0368029Y0223451D01*
X0365459Y0226021D01*
X0363641Y0229168D01*
X0363000Y0231562D01*
X0362359Y0229168D01*
X0360541Y0226021D01*
X0357971Y0223451D01*
X0354824Y0221634D01*
X0351313Y0220693D01*
X0347679Y0220693D01*
X0344168Y0221634D01*
X0341021Y0223451D01*
X0338451Y0226021D01*
X0336634Y0229168D01*
X0335693Y0232679D01*
X0335693Y0236313D01*
X0336634Y0239824D01*
X0338451Y0242971D01*
X0341021Y0245541D01*
X0344168Y0247359D01*
X0346562Y0248000D01*
X0344168Y0248641D01*
X0341021Y0250459D01*
X0338451Y0253029D01*
X0336634Y0256176D01*
X0335693Y0259687D01*
X0335693Y0263321D01*
X0336634Y0266832D01*
X0338451Y0269979D01*
X0341021Y0272549D01*
X0344168Y0274366D01*
X0347679Y0275307D01*
X0351313Y0275307D01*
X0354824Y0274366D01*
X0357971Y0272549D01*
X0360541Y0269979D01*
X0362359Y0266832D01*
X0363000Y0264438D01*
X0363641Y0266832D01*
X0365459Y0269979D01*
X0368029Y0272549D01*
X0371176Y0274366D01*
X0374687Y0275307D01*
X0378321Y0275307D01*
X0381832Y0274366D01*
X0384979Y0272549D01*
X0387549Y0269979D01*
X0388248Y0268770D01*
X0388933Y0269957D01*
X0391043Y0272067D01*
X0393627Y0273559D01*
X0396508Y0274331D01*
X0399492Y0274331D01*
X0402373Y0273559D01*
X0404701Y0272215D01*
X0404701Y0275961D01*
X0010000Y0275961D01*
X0010000Y0236499D01*
X0011210Y0237000D01*
X0026020Y0237000D01*
X0026000Y0237048D01*
X0026000Y0240052D01*
X0026601Y0241503D01*
X0026000Y0242953D01*
X0026000Y0245957D01*
X0027149Y0248732D01*
X0029273Y0250856D01*
X0032048Y0252005D01*
X0037107Y0252005D01*
X0037855Y0252153D01*
X0038595Y0252005D01*
X0039349Y0252005D01*
X0039815Y0251812D01*
X0040282Y0252005D01*
X0043285Y0252005D01*
X0046060Y0250856D01*
X0048184Y0248732D01*
X0049334Y0245957D01*
X0049334Y0239290D01*
X0049482Y0238542D01*
X0049334Y0237802D01*
X0049334Y0237048D01*
X0049314Y0237000D01*
X0071355Y0237000D01*
X0073655Y0237953D01*
X0082345Y0237953D01*
X0084918Y0236887D01*
X0086887Y0234918D01*
X0087953Y0232345D01*
X0087953Y0223655D01*
X0086887Y0221082D01*
X0084918Y0219113D01*
X0082345Y0218047D01*
X0080037Y0218047D01*
X0080037Y0217020D01*
X0080037Y0217020D01*
X0080037Y0215551D01*
X0080037Y0213032D01*
X0078887Y0210257D01*
X0077903Y0209273D01*
X0075779Y0207149D01*
X0073004Y0206000D01*
X0067048Y0206000D01*
X0064592Y0207017D01*
X0064366Y0206176D01*
X0062549Y0203029D01*
X0059979Y0200459D01*
X0056832Y0198641D01*
X0054438Y0198000D01*
X0056832Y0197359D01*
X0059979Y0195541D01*
X0062549Y0192971D01*
X0064366Y0189824D01*
X0065307Y0186313D01*
X0065307Y0182679D01*
X0064366Y0179168D01*
X0062549Y0176021D01*
X0059979Y0173451D01*
X0056832Y0171634D01*
X0053321Y0170693D01*
X0049687Y0170693D01*
X0046176Y0171634D01*
X0043029Y0173451D01*
X0040459Y0176021D01*
X0038641Y0179168D01*
X0038000Y0181562D01*
X0037359Y0179168D01*
X0035541Y0176021D01*
X0032971Y0173451D01*
X0029824Y0171634D01*
X0026313Y0170693D01*
X0022679Y0170693D01*
X0022000Y0170875D01*
X0022000Y0165125D01*
X0022679Y0165307D01*
X0026313Y0165307D01*
X0029824Y0164366D01*
X0032971Y0162549D01*
X0035541Y0159979D01*
X0037359Y0156832D01*
X0038000Y0154438D01*
X0038641Y0156832D01*
X0040459Y0159979D01*
X0043029Y0162549D01*
X0046176Y0164366D01*
X0049687Y0165307D01*
X0053321Y0165307D01*
X0056224Y0164529D01*
X0056664Y0165591D01*
X0057149Y0166763D01*
X0059118Y0168732D01*
X0059118Y0168732D01*
X0060216Y0169830D01*
X0061242Y0170856D01*
X0061242Y0170856D01*
X0062126Y0171222D01*
X0064017Y0172005D01*
X0067020Y0172005D01*
X0068938Y0171211D01*
X0069795Y0170856D01*
X0069795Y0170856D01*
X0069795Y0170856D01*
X0070853Y0169797D01*
X0071919Y0168732D01*
X0071919Y0168732D01*
X0073856Y0166795D01*
X0073887Y0166763D01*
X0073887Y0166763D01*
X0074354Y0165637D01*
X0075037Y0163988D01*
X0075037Y0157048D01*
X0073887Y0154273D01*
X0071763Y0152149D01*
X0068988Y0151000D01*
X0065985Y0151000D01*
X0065518Y0151193D01*
X0065307Y0151106D01*
X0065307Y0149687D01*
X0064366Y0146176D01*
X0062549Y0143029D01*
X0059979Y0140459D01*
X0056832Y0138641D01*
X0054438Y0138000D01*
X0056832Y0137359D01*
X0059979Y0135541D01*
X0062549Y0132971D01*
X0064366Y0129824D01*
X0065307Y0126313D01*
X0065307Y0122679D01*
X0064366Y0119168D01*
X0062549Y0116021D01*
X0059979Y0113451D01*
X0056832Y0111634D01*
X0053321Y0110693D01*
X0049687Y0110693D01*
X0046176Y0111634D01*
X0043029Y0113451D01*
X0040459Y0116021D01*
X0038641Y0119168D01*
X0038000Y0121562D01*
X0037359Y0119168D01*
X0035541Y0116021D01*
X0032971Y0113451D01*
X0029824Y0111634D01*
X0026313Y0110693D01*
X0022679Y0110693D01*
X0022000Y0110875D01*
X0022000Y0104645D01*
X0022953Y0102345D01*
X0022953Y0093655D01*
X0021887Y0091082D01*
X0019918Y0089113D01*
X0017634Y0088167D01*
X0017634Y0087528D01*
X0013000Y0087528D01*
X0013000Y0087527D01*
X0017634Y0087527D01*
X0017634Y0086295D01*
X0018098Y0086102D01*
X0018521Y0085679D01*
X0018599Y0085647D01*
X0019404Y0084842D01*
X0019883Y0085998D01*
X0022576Y0088692D01*
X0026095Y0090150D01*
X0029905Y0090150D01*
X0033424Y0088692D01*
X0036117Y0085998D01*
X0037575Y0082479D01*
X0037575Y0073521D01*
X0036117Y0070002D01*
X0033424Y0067308D01*
X0029905Y0065850D01*
X0029804Y0065850D01*
X0030140Y0065741D01*
X0030922Y0065343D01*
X0031632Y0064827D01*
X0032252Y0064207D01*
X0032768Y0063497D01*
X0033166Y0062715D01*
X0033438Y0061880D01*
X0033575Y0061014D01*
X0033575Y0058000D01*
X0028000Y0058000D01*
X0028000Y0058000D01*
X0033575Y0058000D01*
X0033575Y0054986D01*
X0033438Y0054120D01*
X0033166Y0053285D01*
X0032768Y0052503D01*
X0032252Y0051793D01*
X0031632Y0051173D01*
X0030922Y0050657D01*
X0030140Y0050259D01*
X0029305Y0049988D01*
X0028439Y0049850D01*
X0028000Y0049850D01*
X0028000Y0058000D01*
X0028000Y0058000D01*
X0028000Y0049850D01*
X0027561Y0049850D01*
X0026695Y0049988D01*
X0025860Y0050259D01*
X0025078Y0050657D01*
X0024368Y0051173D01*
X0023748Y0051793D01*
X0023232Y0052503D01*
X0022834Y0053285D01*
X0022562Y0054120D01*
X0022425Y0054986D01*
X0022425Y0057381D01*
X0022000Y0056355D01*
X0022000Y0047000D01*
X0031515Y0047000D01*
X0033340Y0047756D01*
X0040849Y0047756D01*
X0043422Y0046690D01*
X0045391Y0044721D01*
X0045826Y0043672D01*
X0046248Y0043756D01*
X0048905Y0043756D01*
X0048905Y0038000D01*
X0048906Y0038000D01*
X0054268Y0038000D01*
X0054268Y0041051D01*
X0054152Y0041631D01*
X0053926Y0042177D01*
X0053598Y0042668D01*
X0053180Y0043086D01*
X0052689Y0043414D01*
X0052143Y0043641D01*
X0051563Y0043756D01*
X0048906Y0043756D01*
X0048906Y0038000D01*
X0048906Y0038000D01*
X0054268Y0038000D01*
X0054268Y0034949D01*
X0054152Y0034369D01*
X0053926Y0033823D01*
X0053598Y0033332D01*
X0053180Y0032914D01*
X0052689Y0032586D01*
X0052143Y0032359D01*
X0051563Y0032244D01*
X0048906Y0032244D01*
X0048906Y0038000D01*
X0048905Y0038000D01*
X0048905Y0032244D01*
X0046248Y0032244D01*
X0045826Y0032328D01*
X0045391Y0031279D01*
X0043422Y0029310D01*
X0040849Y0028244D01*
X0033340Y0028244D01*
X0031515Y0029000D01*
X0025726Y0029000D01*
X0027373Y0028559D01*
X0029957Y0027067D01*
X0032067Y0024957D01*
X0033559Y0022373D01*
X0034331Y0019492D01*
X0034331Y0016508D01*
X0033559Y0013627D01*
X0032067Y0011043D01*
X0031027Y0010003D02*
X0384973Y0010003D01*
X0382341Y0014001D02*
X0033659Y0014001D01*
X0034331Y0018000D02*
X0381669Y0018000D01*
X0382341Y0021999D02*
X0319726Y0021999D01*
X0323725Y0025997D02*
X0346544Y0025997D01*
X0339476Y0029996D02*
X0327723Y0029996D01*
X0331722Y0033994D02*
X0336734Y0033994D01*
X0335693Y0037993D02*
X0335667Y0037993D01*
X0328000Y0043000D02*
X0328000Y0070500D01*
X0343000Y0085500D01*
X0375500Y0085500D01*
X0398000Y0108000D01*
X0398000Y0168000D01*
X0383000Y0183000D01*
X0392953Y0185937D02*
X0404701Y0185937D01*
X0404701Y0189936D02*
X0391869Y0189936D01*
X0390106Y0193934D02*
X0404701Y0193934D01*
X0404701Y0197933D02*
X0390307Y0197933D01*
X0389309Y0201932D02*
X0404701Y0201932D01*
X0404701Y0205930D02*
X0386598Y0205930D01*
X0379734Y0209929D02*
X0404701Y0209929D01*
X0404701Y0213927D02*
X0321655Y0213927D01*
X0317656Y0209929D02*
X0346266Y0209929D01*
X0339402Y0205930D02*
X0313658Y0205930D01*
X0309659Y0201932D02*
X0336691Y0201932D01*
X0335693Y0197933D02*
X0305661Y0197933D01*
X0301662Y0193934D02*
X0335894Y0193934D01*
X0337350Y0189936D02*
X0297664Y0189936D01*
X0293665Y0185937D02*
X0340542Y0185937D01*
X0343442Y0181939D02*
X0289667Y0181939D01*
X0285668Y0177940D02*
X0338433Y0177940D01*
X0336397Y0173942D02*
X0281670Y0173942D01*
X0277671Y0169943D02*
X0290598Y0169943D01*
X0295402Y0169943D02*
X0300598Y0169943D01*
X0305402Y0169943D02*
X0310598Y0169943D01*
X0315402Y0169943D02*
X0335693Y0169943D01*
X0336158Y0165945D02*
X0321139Y0165945D01*
X0322575Y0161946D02*
X0337916Y0161946D01*
X0341892Y0157948D02*
X0322575Y0157948D01*
X0308000Y0148000D02*
X0353000Y0148000D01*
X0363000Y0138000D01*
X0363000Y0128000D01*
X0346423Y0117963D02*
X0322697Y0117963D01*
X0319739Y0121961D02*
X0339518Y0121961D01*
X0336758Y0125960D02*
X0315169Y0125960D01*
X0310831Y0125960D02*
X0305169Y0125960D01*
X0300831Y0125960D02*
X0295169Y0125960D01*
X0290831Y0125960D02*
X0281768Y0125960D01*
X0284926Y0129958D02*
X0274120Y0129958D01*
X0273000Y0129958D02*
X0273000Y0129958D01*
X0273000Y0133957D02*
X0273000Y0133957D01*
X0278385Y0133957D02*
X0283425Y0133957D01*
X0283425Y0137955D02*
X0278575Y0137955D01*
X0278414Y0141954D02*
X0283425Y0141954D01*
X0284864Y0145952D02*
X0275151Y0145952D01*
X0281066Y0149951D02*
X0284934Y0149951D01*
X0283425Y0153949D02*
X0282575Y0153949D01*
X0282575Y0157948D02*
X0283425Y0157948D01*
X0283425Y0161946D02*
X0282575Y0161946D01*
X0281139Y0165945D02*
X0284861Y0165945D01*
X0268000Y0173000D02*
X0323000Y0228000D01*
X0323000Y0248000D01*
X0332953Y0249914D02*
X0341965Y0249914D01*
X0337941Y0253912D02*
X0332304Y0253912D01*
X0336169Y0257911D02*
X0327447Y0257911D01*
X0318553Y0257911D02*
X0277417Y0257911D01*
X0277971Y0258870D02*
X0278700Y0261591D01*
X0278700Y0264409D01*
X0277971Y0267130D01*
X0276562Y0269570D01*
X0274570Y0271562D01*
X0272130Y0272971D01*
X0269409Y0273700D01*
X0266591Y0273700D01*
X0263870Y0272971D01*
X0263000Y0272469D01*
X0262130Y0272971D01*
X0259409Y0273700D01*
X0256591Y0273700D01*
X0253870Y0272971D01*
X0253000Y0272469D01*
X0252130Y0272971D01*
X0249409Y0273700D01*
X0246591Y0273700D01*
X0243870Y0272971D01*
X0243000Y0272469D01*
X0242130Y0272971D01*
X0239409Y0273700D01*
X0236591Y0273700D01*
X0233870Y0272971D01*
X0233000Y0272469D01*
X0232130Y0272971D01*
X0229409Y0273700D01*
X0226591Y0273700D01*
X0223870Y0272971D01*
X0221430Y0271562D01*
X0219438Y0269570D01*
X0218029Y0267130D01*
X0217300Y0264409D01*
X0217300Y0261591D01*
X0218029Y0258870D01*
X0219438Y0256430D01*
X0221204Y0254664D01*
X0219910Y0255200D01*
X0216090Y0255200D01*
X0213000Y0253920D01*
X0209910Y0255200D01*
X0206090Y0255200D01*
X0203000Y0253920D01*
X0200208Y0255076D01*
X0201562Y0256430D01*
X0202971Y0258870D01*
X0203700Y0261591D01*
X0203700Y0264409D01*
X0202971Y0267130D01*
X0201562Y0269570D01*
X0199570Y0271562D01*
X0197130Y0272971D01*
X0194409Y0273700D01*
X0191591Y0273700D01*
X0188870Y0272971D01*
X0186430Y0271562D01*
X0184438Y0269570D01*
X0184428Y0269554D01*
X0184310Y0269585D01*
X0183439Y0269700D01*
X0183000Y0269700D01*
X0183000Y0267021D01*
X0183000Y0269700D01*
X0182561Y0269700D01*
X0181690Y0269585D01*
X0180842Y0269358D01*
X0180030Y0269022D01*
X0179270Y0268583D01*
X0178573Y0268048D01*
X0177952Y0267427D01*
X0177417Y0266730D01*
X0176978Y0265970D01*
X0176642Y0265158D01*
X0176415Y0264310D01*
X0176300Y0263439D01*
X0176300Y0263000D01*
X0182300Y0263000D01*
X0182300Y0263000D01*
X0176300Y0263000D01*
X0176300Y0262561D01*
X0176415Y0261690D01*
X0176642Y0260842D01*
X0176978Y0260030D01*
X0177417Y0259270D01*
X0177952Y0258573D01*
X0178573Y0257952D01*
X0179270Y0257417D01*
X0180030Y0256978D01*
X0180842Y0256642D01*
X0181690Y0256415D01*
X0182561Y0256300D01*
X0183000Y0256300D01*
X0183439Y0256300D01*
X0184310Y0256415D01*
X0184428Y0256446D01*
X0184438Y0256430D01*
X0185792Y0255076D01*
X0182562Y0253738D01*
X0181539Y0252715D01*
X0179746Y0253750D01*
X0176948Y0254500D01*
X0174052Y0254500D01*
X0171254Y0253750D01*
X0168746Y0252302D01*
X0166698Y0250254D01*
X0165250Y0247746D01*
X0164500Y0244948D01*
X0164500Y0242052D01*
X0165250Y0239254D01*
X0166698Y0236746D01*
X0168746Y0234698D01*
X0168829Y0234650D01*
X0168620Y0233869D01*
X0168500Y0232959D01*
X0168500Y0232500D01*
X0174052Y0232500D01*
X0175500Y0232500D01*
X0175500Y0232500D01*
X0175500Y0225500D01*
X0175959Y0225500D01*
X0176869Y0225620D01*
X0177755Y0225857D01*
X0178603Y0226208D01*
X0179397Y0226667D01*
X0180125Y0227226D01*
X0180774Y0227875D01*
X0181333Y0228603D01*
X0181792Y0229397D01*
X0182143Y0230245D01*
X0182380Y0231131D01*
X0182500Y0232041D01*
X0182500Y0232324D01*
X0182562Y0232262D01*
X0186090Y0230800D01*
X0189910Y0230800D01*
X0193000Y0232080D01*
X0196090Y0230800D01*
X0199910Y0230800D01*
X0203000Y0232080D01*
X0206090Y0230800D01*
X0209910Y0230800D01*
X0213000Y0232080D01*
X0216090Y0230800D01*
X0219910Y0230800D01*
X0223000Y0232080D01*
X0226090Y0230800D01*
X0229910Y0230800D01*
X0233000Y0232080D01*
X0236090Y0230800D01*
X0239910Y0230800D01*
X0243000Y0232080D01*
X0246090Y0230800D01*
X0249910Y0230800D01*
X0253000Y0232080D01*
X0256090Y0230800D01*
X0259910Y0230800D01*
X0263000Y0232080D01*
X0266090Y0230800D01*
X0269910Y0230800D01*
X0273438Y0232262D01*
X0276138Y0234962D01*
X0277600Y0238490D01*
X0277600Y0247510D01*
X0276138Y0251038D01*
X0273438Y0253738D01*
X0273392Y0253758D01*
X0274570Y0254438D01*
X0276562Y0256430D01*
X0277971Y0258870D01*
X0278700Y0261909D02*
X0335693Y0261909D01*
X0336386Y0265908D02*
X0278298Y0265908D01*
X0276226Y0269906D02*
X0338409Y0269906D01*
X0343369Y0273905D02*
X0026081Y0273905D01*
X0027373Y0273559D02*
X0024492Y0274331D01*
X0021508Y0274331D01*
X0018627Y0273559D01*
X0016043Y0272067D01*
X0013933Y0269957D01*
X0012441Y0267373D01*
X0011669Y0264492D01*
X0011669Y0261508D01*
X0012441Y0258627D01*
X0013933Y0256043D01*
X0016043Y0253933D01*
X0018627Y0252441D01*
X0021508Y0251669D01*
X0024492Y0251669D01*
X0027373Y0252441D01*
X0029957Y0253933D01*
X0032067Y0256043D01*
X0033559Y0258627D01*
X0034331Y0261508D01*
X0034331Y0264492D01*
X0033559Y0267373D01*
X0032067Y0269957D01*
X0029957Y0272067D01*
X0027373Y0273559D01*
X0032096Y0269906D02*
X0145411Y0269906D01*
X0144798Y0269294D02*
X0143449Y0266956D01*
X0142750Y0264349D01*
X0142750Y0261651D01*
X0143449Y0259044D01*
X0144798Y0256706D01*
X0146706Y0254798D01*
X0149044Y0253449D01*
X0151651Y0252750D01*
X0154349Y0252750D01*
X0156956Y0253449D01*
X0159294Y0254798D01*
X0161202Y0256706D01*
X0161227Y0256750D01*
X0163000Y0256750D01*
X0166545Y0256750D01*
X0167125Y0256865D01*
X0167671Y0257091D01*
X0168162Y0257420D01*
X0168580Y0257838D01*
X0168909Y0258329D01*
X0169135Y0258875D01*
X0169250Y0259455D01*
X0169250Y0263000D01*
X0169250Y0266545D01*
X0169135Y0267125D01*
X0168909Y0267671D01*
X0168580Y0268162D01*
X0168162Y0268580D01*
X0167671Y0268909D01*
X0167125Y0269135D01*
X0166545Y0269250D01*
X0163000Y0269250D01*
X0163000Y0265282D01*
X0163000Y0265283D01*
X0163000Y0269250D01*
X0161227Y0269250D01*
X0161202Y0269294D01*
X0159294Y0271202D01*
X0156956Y0272551D01*
X0154349Y0273250D01*
X0151651Y0273250D01*
X0149044Y0272551D01*
X0146706Y0271202D01*
X0144798Y0269294D01*
X0143168Y0265908D02*
X0033951Y0265908D01*
X0034331Y0261909D02*
X0142750Y0261909D01*
X0144103Y0257911D02*
X0033145Y0257911D01*
X0029921Y0253912D02*
X0148241Y0253912D01*
X0148263Y0252005D02*
X0147729Y0252005D01*
X0147228Y0252005D01*
X0145260Y0252005D01*
X0145260Y0252005D01*
X0145260Y0252005D01*
X0144523Y0251700D01*
X0143786Y0252005D01*
X0141818Y0252005D01*
X0141818Y0252005D01*
X0141284Y0252005D01*
X0140783Y0252005D01*
X0140783Y0252005D01*
X0138814Y0252005D01*
X0137585Y0251496D01*
X0136357Y0252005D01*
X0133353Y0252005D01*
X0132124Y0251496D01*
X0130895Y0252005D01*
X0129410Y0252005D01*
X0127892Y0252005D01*
X0127892Y0252005D01*
X0122430Y0252005D01*
X0121964Y0251812D01*
X0121497Y0252005D01*
X0118494Y0252005D01*
X0118249Y0251904D01*
X0118004Y0252005D01*
X0116519Y0252005D01*
X0115001Y0252005D01*
X0115001Y0252005D01*
X0112048Y0252005D01*
X0109273Y0250856D01*
X0107149Y0248732D01*
X0106000Y0245957D01*
X0106000Y0237048D01*
X0107149Y0234273D01*
X0109273Y0232149D01*
X0112048Y0231000D01*
X0118004Y0231000D01*
X0119233Y0231509D01*
X0120462Y0231000D01*
X0123466Y0231000D01*
X0124202Y0231305D01*
X0124939Y0231000D01*
X0127943Y0231000D01*
X0129664Y0231713D01*
X0131385Y0231000D01*
X0134388Y0231000D01*
X0134855Y0231193D01*
X0135321Y0231000D01*
X0138325Y0231000D01*
X0138570Y0231101D01*
X0138814Y0231000D01*
X0143786Y0231000D01*
X0144523Y0231305D01*
X0145260Y0231000D01*
X0150232Y0231000D01*
X0153007Y0232149D01*
X0155131Y0234273D01*
X0156115Y0235257D01*
X0157264Y0238032D01*
X0157264Y0240551D01*
X0157264Y0242020D01*
X0157264Y0242020D01*
X0157264Y0242020D01*
X0157264Y0244973D01*
X0156115Y0247748D01*
X0155131Y0248732D01*
X0154537Y0249326D01*
X0153007Y0250856D01*
X0151498Y0251481D01*
X0150232Y0252005D01*
X0150232Y0252005D01*
X0150232Y0252005D01*
X0148263Y0252005D01*
X0148263Y0252005D01*
X0147228Y0252005D02*
X0147228Y0252005D01*
X0143786Y0252005D02*
X0143786Y0252005D01*
X0143786Y0252005D01*
X0138814Y0252005D02*
X0138814Y0252005D01*
X0138814Y0252005D01*
X0130895Y0252005D02*
X0130895Y0252005D01*
X0130895Y0252005D01*
X0118004Y0252005D02*
X0118004Y0252005D01*
X0118004Y0252005D01*
X0108331Y0249914D02*
X0047002Y0249914D01*
X0049334Y0245915D02*
X0106000Y0245915D01*
X0106000Y0241917D02*
X0049334Y0241917D01*
X0049357Y0237918D02*
X0073571Y0237918D01*
X0082429Y0237918D02*
X0106000Y0237918D01*
X0107503Y0233920D02*
X0087301Y0233920D01*
X0087953Y0229921D02*
X0168991Y0229921D01*
X0168857Y0230245D02*
X0169208Y0229397D01*
X0169667Y0228603D01*
X0170226Y0227875D01*
X0170875Y0227226D01*
X0171603Y0226667D01*
X0172397Y0226208D01*
X0173245Y0225857D01*
X0174131Y0225620D01*
X0175041Y0225500D01*
X0175500Y0225500D01*
X0175500Y0232500D01*
X0175500Y0232500D01*
X0168500Y0232500D01*
X0168500Y0232041D01*
X0168620Y0231131D01*
X0168857Y0230245D01*
X0168633Y0233920D02*
X0154777Y0233920D01*
X0157217Y0237918D02*
X0166021Y0237918D01*
X0164536Y0241917D02*
X0157264Y0241917D01*
X0157264Y0242020D02*
X0157264Y0242020D01*
X0156874Y0245915D02*
X0164759Y0245915D01*
X0166501Y0249914D02*
X0153949Y0249914D01*
X0153007Y0250856D02*
X0153007Y0250856D01*
X0153007Y0250856D01*
X0155131Y0248732D02*
X0155131Y0248732D01*
X0157759Y0253912D02*
X0171858Y0253912D01*
X0168629Y0257911D02*
X0178627Y0257911D01*
X0183000Y0257911D02*
X0183000Y0257911D01*
X0183000Y0258979D02*
X0183000Y0256300D01*
X0183000Y0258979D01*
X0183000Y0258979D01*
X0182981Y0253912D02*
X0179142Y0253912D01*
X0176386Y0261909D02*
X0169250Y0261909D01*
X0169250Y0263000D02*
X0163250Y0263000D01*
X0169250Y0263000D01*
X0169250Y0265908D02*
X0176952Y0265908D01*
X0183000Y0267021D02*
X0183000Y0267021D01*
X0184774Y0269906D02*
X0160589Y0269906D01*
X0163000Y0265908D02*
X0163000Y0265908D01*
X0163250Y0263000D02*
X0163250Y0263000D01*
X0163000Y0260718D02*
X0163000Y0256750D01*
X0163000Y0260717D01*
X0163000Y0260718D01*
X0163000Y0257911D02*
X0163000Y0257911D01*
X0174052Y0232500D02*
X0174052Y0232500D01*
X0175500Y0229921D02*
X0175500Y0229921D01*
X0175500Y0225923D02*
X0175500Y0225923D01*
X0177913Y0225923D02*
X0308195Y0225923D01*
X0304196Y0221924D02*
X0275252Y0221924D01*
X0276138Y0221038D02*
X0273438Y0223738D01*
X0269910Y0225200D01*
X0266090Y0225200D01*
X0263000Y0223920D01*
X0259910Y0225200D01*
X0256090Y0225200D01*
X0253000Y0223920D01*
X0249910Y0225200D01*
X0246090Y0225200D01*
X0243000Y0223920D01*
X0239910Y0225200D01*
X0236090Y0225200D01*
X0233000Y0223920D01*
X0229910Y0225200D01*
X0226090Y0225200D01*
X0223000Y0223920D01*
X0219910Y0225200D01*
X0216090Y0225200D01*
X0213000Y0223920D01*
X0209910Y0225200D01*
X0206090Y0225200D01*
X0203000Y0223920D01*
X0199910Y0225200D01*
X0196090Y0225200D01*
X0192562Y0223738D01*
X0189862Y0221038D01*
X0189805Y0220902D01*
X0189311Y0221062D01*
X0188441Y0221200D01*
X0188000Y0221200D01*
X0188000Y0213000D01*
X0188000Y0213000D01*
X0188000Y0213000D01*
X0182400Y0213000D01*
X0182400Y0216041D01*
X0182538Y0216911D01*
X0182810Y0217750D01*
X0183210Y0218535D01*
X0183729Y0219248D01*
X0184352Y0219871D01*
X0185065Y0220390D01*
X0185850Y0220790D01*
X0186689Y0221062D01*
X0187559Y0221200D01*
X0188000Y0221200D01*
X0188000Y0213000D01*
X0188000Y0204800D01*
X0188441Y0204800D01*
X0189311Y0204938D01*
X0189805Y0205098D01*
X0189862Y0204962D01*
X0192562Y0202262D01*
X0196090Y0200800D01*
X0199910Y0200800D01*
X0203000Y0202080D01*
X0206090Y0200800D01*
X0209910Y0200800D01*
X0213000Y0202080D01*
X0216090Y0200800D01*
X0219910Y0200800D01*
X0223000Y0202080D01*
X0226090Y0200800D01*
X0229910Y0200800D01*
X0233000Y0202080D01*
X0236090Y0200800D01*
X0239910Y0200800D01*
X0243000Y0202080D01*
X0246090Y0200800D01*
X0249910Y0200800D01*
X0253000Y0202080D01*
X0256090Y0200800D01*
X0259910Y0200800D01*
X0263000Y0202080D01*
X0266090Y0200800D01*
X0269910Y0200800D01*
X0273438Y0202262D01*
X0276138Y0204962D01*
X0277600Y0208490D01*
X0277600Y0217510D01*
X0276138Y0221038D01*
X0277428Y0217926D02*
X0300198Y0217926D01*
X0296199Y0213927D02*
X0277600Y0213927D01*
X0277600Y0209929D02*
X0292201Y0209929D01*
X0288202Y0205930D02*
X0276539Y0205930D01*
X0272641Y0201932D02*
X0284204Y0201932D01*
X0280205Y0197933D02*
X0154688Y0197933D01*
X0161452Y0201932D02*
X0193359Y0201932D01*
X0188000Y0204800D02*
X0188000Y0213000D01*
X0188000Y0213000D01*
X0182400Y0213000D01*
X0182400Y0209959D01*
X0182538Y0209089D01*
X0182810Y0208250D01*
X0183210Y0207465D01*
X0183729Y0206752D01*
X0184352Y0206129D01*
X0185065Y0205610D01*
X0185850Y0205210D01*
X0186689Y0204938D01*
X0187559Y0204800D01*
X0188000Y0204800D01*
X0188000Y0205930D02*
X0188000Y0205930D01*
X0184625Y0205930D02*
X0164224Y0205930D01*
X0165307Y0209929D02*
X0182405Y0209929D01*
X0182400Y0213927D02*
X0165145Y0213927D01*
X0163735Y0217926D02*
X0182900Y0217926D01*
X0188000Y0217926D02*
X0188000Y0217926D01*
X0190748Y0221924D02*
X0160604Y0221924D01*
X0173087Y0225923D02*
X0110618Y0225923D01*
X0114228Y0221924D02*
X0115396Y0221924D01*
X0099435Y0225923D02*
X0087953Y0225923D01*
X0087236Y0221924D02*
X0096401Y0221924D01*
X0096000Y0217926D02*
X0080037Y0217926D01*
X0080037Y0213927D02*
X0096000Y0213927D01*
X0096878Y0209929D02*
X0078558Y0209929D01*
X0064224Y0205930D02*
X0111776Y0205930D01*
X0114548Y0201932D02*
X0061452Y0201932D01*
X0054688Y0197933D02*
X0121312Y0197933D01*
X0114414Y0193934D02*
X0061586Y0193934D01*
X0064302Y0189936D02*
X0111698Y0189936D01*
X0110693Y0185937D02*
X0065307Y0185937D01*
X0065109Y0181939D02*
X0110891Y0181939D01*
X0103625Y0177940D02*
X0063658Y0177940D01*
X0060470Y0173942D02*
X0098709Y0173942D01*
X0091242Y0170856D02*
X0091242Y0170856D01*
X0090329Y0169943D02*
X0070707Y0169943D01*
X0074226Y0165945D02*
X0086810Y0165945D01*
X0086000Y0161946D02*
X0075037Y0161946D01*
X0075037Y0157948D02*
X0086000Y0157948D01*
X0087473Y0153949D02*
X0073563Y0153949D01*
X0065307Y0149951D02*
X0099000Y0149951D01*
X0099000Y0145952D02*
X0064237Y0145952D01*
X0061474Y0141954D02*
X0099000Y0141954D01*
X0099000Y0137955D02*
X0054604Y0137955D01*
X0061564Y0133957D02*
X0099000Y0133957D01*
X0099000Y0129958D02*
X0064289Y0129958D01*
X0065307Y0125960D02*
X0099000Y0125960D01*
X0098047Y0121961D02*
X0065115Y0121961D01*
X0063670Y0117963D02*
X0098047Y0117963D01*
X0108000Y0118000D02*
X0108000Y0168000D01*
X0117953Y0169943D02*
X0163267Y0169943D01*
X0160470Y0173942D02*
X0171214Y0173942D01*
X0178625Y0177940D02*
X0163658Y0177940D01*
X0165109Y0181939D02*
X0241062Y0181939D01*
X0235213Y0177940D02*
X0187375Y0177940D01*
X0192291Y0173942D02*
X0231214Y0173942D01*
X0225598Y0169943D02*
X0220402Y0169943D01*
X0215598Y0169943D02*
X0210402Y0169943D01*
X0205598Y0169943D02*
X0192953Y0169943D01*
X0196139Y0165945D02*
X0199861Y0165945D01*
X0198425Y0161946D02*
X0197575Y0161946D01*
X0197575Y0157948D02*
X0198425Y0157948D01*
X0198425Y0153949D02*
X0197575Y0153949D01*
X0196066Y0149951D02*
X0199934Y0149951D01*
X0199864Y0145952D02*
X0190151Y0145952D01*
X0185849Y0145952D02*
X0177000Y0145952D01*
X0178000Y0149951D02*
X0178000Y0149951D01*
X0177000Y0141954D02*
X0182586Y0141954D01*
X0182425Y0137955D02*
X0177000Y0137955D01*
X0180227Y0133957D02*
X0182615Y0133957D01*
X0188000Y0133957D02*
X0188000Y0133957D01*
X0188000Y0129958D02*
X0188000Y0129958D01*
X0189120Y0129958D02*
X0198047Y0129958D01*
X0198047Y0125960D02*
X0196768Y0125960D01*
X0191406Y0125960D02*
X0191405Y0125960D01*
X0191406Y0126406D02*
X0191406Y0123000D01*
X0191405Y0121961D02*
X0191406Y0121961D01*
X0191405Y0117963D02*
X0191406Y0117963D01*
X0195729Y0117963D02*
X0199000Y0117963D01*
X0198749Y0121961D02*
X0196768Y0121961D01*
X0199000Y0113964D02*
X0185088Y0113964D01*
X0182953Y0109966D02*
X0197238Y0109966D01*
X0190162Y0105967D02*
X0181772Y0105967D01*
X0180853Y0101969D02*
X0164697Y0101969D01*
X0164500Y0097970D02*
X0170669Y0097970D01*
X0169000Y0093972D02*
X0164488Y0093972D01*
X0164500Y0089973D02*
X0169317Y0089973D01*
X0171779Y0085975D02*
X0164500Y0085975D01*
X0168346Y0081976D02*
X0173366Y0081976D01*
X0172345Y0077978D02*
X0182968Y0077978D01*
X0182634Y0081976D02*
X0183378Y0081976D01*
X0178000Y0081976D02*
X0178000Y0081976D01*
X0178000Y0078000D02*
X0178000Y0071406D01*
X0191406Y0058000D01*
X0196768Y0058000D01*
X0196768Y0061051D01*
X0196652Y0061631D01*
X0196426Y0062177D01*
X0196098Y0062668D01*
X0195680Y0063086D01*
X0195189Y0063414D01*
X0194643Y0063641D01*
X0194063Y0063756D01*
X0191406Y0063756D01*
X0191406Y0058000D01*
X0191406Y0058000D01*
X0196768Y0058000D01*
X0196768Y0054949D01*
X0196652Y0054369D01*
X0196426Y0053823D01*
X0196098Y0053332D01*
X0195680Y0052914D01*
X0195189Y0052586D01*
X0194643Y0052359D01*
X0194063Y0052244D01*
X0191406Y0052244D01*
X0191406Y0058000D01*
X0191405Y0058000D01*
X0191406Y0058000D01*
X0191405Y0057985D02*
X0191406Y0057985D01*
X0191405Y0061984D02*
X0191406Y0061984D01*
X0196506Y0061984D02*
X0203360Y0061984D01*
X0205257Y0057985D02*
X0196768Y0057985D01*
X0196494Y0053987D02*
X0201259Y0053987D01*
X0197260Y0049988D02*
X0186600Y0049988D01*
X0191405Y0053987D02*
X0191406Y0053987D01*
X0179594Y0058000D02*
X0155500Y0082094D01*
X0155500Y0092154D01*
X0155500Y0098846D02*
X0155500Y0105500D01*
X0163000Y0113000D01*
X0173000Y0113000D01*
X0179594Y0123000D02*
X0172094Y0128906D01*
X0168000Y0133000D01*
X0168000Y0154654D01*
X0168000Y0161346D02*
X0176819Y0161346D01*
X0178000Y0162528D01*
X0178000Y0168000D01*
X0183000Y0168000D01*
X0159463Y0165945D02*
X0117953Y0165945D01*
X0133574Y0161946D02*
X0142426Y0161946D01*
X0139286Y0157948D02*
X0136714Y0157948D01*
X0133463Y0173942D02*
X0142537Y0173942D01*
X0139350Y0177940D02*
X0136650Y0177940D01*
X0161586Y0193934D02*
X0276207Y0193934D01*
X0272208Y0189936D02*
X0164302Y0189936D01*
X0165307Y0185937D02*
X0268210Y0185937D01*
X0268000Y0173000D02*
X0243000Y0173000D01*
X0238000Y0168000D01*
X0238000Y0148000D01*
X0218000Y0148000D01*
X0198425Y0141954D02*
X0193414Y0141954D01*
X0193575Y0137955D02*
X0198425Y0137955D01*
X0198425Y0133957D02*
X0193385Y0133957D01*
X0188000Y0137955D02*
X0188000Y0137955D01*
X0208000Y0128000D02*
X0208000Y0108000D01*
X0198000Y0098000D01*
X0188000Y0093000D02*
X0187528Y0092528D01*
X0178000Y0092528D01*
X0192622Y0081976D02*
X0200861Y0081976D01*
X0198632Y0077978D02*
X0193032Y0077978D01*
X0193575Y0073979D02*
X0198425Y0073979D01*
X0198425Y0069981D02*
X0193574Y0069981D01*
X0191369Y0065982D02*
X0199477Y0065982D01*
X0188000Y0065982D02*
X0188000Y0065982D01*
X0188000Y0069981D02*
X0188000Y0069981D01*
X0182426Y0069981D02*
X0180342Y0069981D01*
X0182425Y0073979D02*
X0176343Y0073979D01*
X0196520Y0085975D02*
X0199480Y0085975D01*
X0228000Y0073000D02*
X0228000Y0068000D01*
X0198000Y0038000D01*
X0178000Y0038000D01*
X0148000Y0068000D01*
X0123000Y0068000D01*
X0123000Y0058000D01*
X0113425Y0057985D02*
X0108575Y0057985D01*
X0108404Y0061984D02*
X0113425Y0061984D01*
X0113047Y0065982D02*
X0105223Y0065982D01*
X0111096Y0069981D02*
X0113047Y0069981D01*
X0113425Y0073979D02*
X0112575Y0073979D01*
X0112575Y0077978D02*
X0113425Y0077978D01*
X0118000Y0088000D02*
X0113000Y0098000D01*
X0098000Y0098000D01*
X0063000Y0098000D01*
X0050500Y0085500D01*
X0048000Y0085500D01*
X0038047Y0085975D02*
X0036127Y0085975D01*
X0038100Y0089973D02*
X0030330Y0089973D01*
X0025670Y0089973D02*
X0020778Y0089973D01*
X0019873Y0085975D02*
X0018226Y0085975D01*
X0022953Y0093972D02*
X0040667Y0093972D01*
X0050242Y0097970D02*
X0022953Y0097970D01*
X0022953Y0101969D02*
X0054241Y0101969D01*
X0058717Y0105967D02*
X0022000Y0105967D01*
X0022000Y0109966D02*
X0068047Y0109966D01*
X0068718Y0113964D02*
X0060493Y0113964D01*
X0042515Y0113964D02*
X0033485Y0113964D01*
X0036663Y0117963D02*
X0039337Y0117963D01*
X0013000Y0098000D02*
X0013000Y0228000D01*
X0078000Y0228000D01*
X0026000Y0237918D02*
X0010000Y0237918D01*
X0010000Y0241917D02*
X0026429Y0241917D01*
X0026000Y0245915D02*
X0010000Y0245915D01*
X0010000Y0249914D02*
X0028331Y0249914D01*
X0016079Y0253912D02*
X0010000Y0253912D01*
X0010000Y0257911D02*
X0012855Y0257911D01*
X0011669Y0261909D02*
X0010000Y0261909D01*
X0010000Y0265908D02*
X0012049Y0265908D01*
X0013904Y0269906D02*
X0010000Y0269906D01*
X0010000Y0273905D02*
X0019919Y0273905D01*
X0133597Y0221924D02*
X0142403Y0221924D01*
X0139273Y0217926D02*
X0136727Y0217926D01*
X0182009Y0229921D02*
X0312193Y0229921D01*
X0314000Y0233920D02*
X0275096Y0233920D01*
X0277363Y0237918D02*
X0314000Y0237918D01*
X0313767Y0241917D02*
X0277600Y0241917D01*
X0277600Y0245915D02*
X0313047Y0245915D01*
X0313047Y0249914D02*
X0276604Y0249914D01*
X0273659Y0253912D02*
X0313696Y0253912D01*
X0332953Y0245915D02*
X0341668Y0245915D01*
X0337842Y0241917D02*
X0332233Y0241917D01*
X0332000Y0237918D02*
X0336123Y0237918D01*
X0335693Y0233920D02*
X0332000Y0233920D01*
X0332000Y0229921D02*
X0336432Y0229921D01*
X0338549Y0225923D02*
X0331881Y0225923D01*
X0329652Y0221924D02*
X0343665Y0221924D01*
X0355327Y0221924D02*
X0370673Y0221924D01*
X0365557Y0225923D02*
X0360443Y0225923D01*
X0362560Y0229921D02*
X0363440Y0229921D01*
X0382335Y0221924D02*
X0404701Y0221924D01*
X0404701Y0217926D02*
X0325653Y0217926D01*
X0352726Y0209929D02*
X0373274Y0209929D01*
X0366409Y0205930D02*
X0359591Y0205930D01*
X0362301Y0201932D02*
X0363699Y0201932D01*
X0387451Y0225923D02*
X0404701Y0225923D01*
X0404701Y0229921D02*
X0389568Y0229921D01*
X0390307Y0233920D02*
X0404701Y0233920D01*
X0404701Y0237918D02*
X0389877Y0237918D01*
X0388158Y0241917D02*
X0404701Y0241917D01*
X0404701Y0245915D02*
X0384332Y0245915D01*
X0384035Y0249914D02*
X0404701Y0249914D01*
X0391079Y0253912D02*
X0388059Y0253912D01*
X0387591Y0269906D02*
X0388904Y0269906D01*
X0394919Y0273905D02*
X0382631Y0273905D01*
X0370376Y0273905D02*
X0355624Y0273905D01*
X0360584Y0269906D02*
X0365416Y0269906D01*
X0363394Y0265908D02*
X0362606Y0265908D01*
X0401081Y0273905D02*
X0404701Y0273905D01*
X0404701Y0181939D02*
X0396789Y0181939D01*
X0400787Y0177940D02*
X0404701Y0177940D01*
X0337282Y0137955D02*
X0322575Y0137955D01*
X0322575Y0133957D02*
X0335863Y0133957D01*
X0335693Y0129958D02*
X0321074Y0129958D01*
X0306261Y0121961D02*
X0284739Y0121961D01*
X0287697Y0117963D02*
X0303303Y0117963D01*
X0303047Y0113964D02*
X0287953Y0113964D01*
X0287953Y0109966D02*
X0303047Y0109966D01*
X0304228Y0105967D02*
X0286772Y0105967D01*
X0285853Y0101969D02*
X0280147Y0101969D01*
X0282371Y0097970D02*
X0283629Y0097970D01*
X0283425Y0093972D02*
X0282575Y0093972D01*
X0282575Y0089973D02*
X0283425Y0089973D01*
X0284480Y0085975D02*
X0281520Y0085975D01*
X0277622Y0081976D02*
X0285861Y0081976D01*
X0283632Y0077978D02*
X0278032Y0077978D01*
X0278575Y0073979D02*
X0283425Y0073979D01*
X0283425Y0069981D02*
X0278574Y0069981D01*
X0276369Y0065982D02*
X0284477Y0065982D01*
X0281506Y0061984D02*
X0288360Y0061984D01*
X0281768Y0057985D02*
X0319000Y0057985D01*
X0319000Y0061984D02*
X0317640Y0061984D01*
X0308360Y0061984D02*
X0307640Y0061984D01*
X0298360Y0061984D02*
X0297640Y0061984D01*
X0281494Y0053987D02*
X0319000Y0053987D01*
X0319000Y0049988D02*
X0271600Y0049988D01*
X0270142Y0045990D02*
X0318262Y0045990D01*
X0314263Y0041991D02*
X0273008Y0041991D01*
X0273700Y0037993D02*
X0310265Y0037993D01*
X0313000Y0028000D02*
X0328000Y0043000D01*
X0313000Y0028000D02*
X0228000Y0028000D01*
X0223000Y0033000D01*
X0223000Y0048000D01*
X0228000Y0053000D01*
X0228000Y0058000D01*
X0228000Y0073000D02*
X0235500Y0080500D01*
X0253000Y0089654D02*
X0253000Y0069594D01*
X0264594Y0058000D01*
X0276405Y0057985D02*
X0276406Y0057985D01*
X0276405Y0061984D02*
X0276406Y0061984D01*
X0273000Y0065982D02*
X0273000Y0065982D01*
X0273000Y0069981D02*
X0273000Y0069981D01*
X0267426Y0069981D02*
X0265342Y0069981D01*
X0267425Y0073979D02*
X0262000Y0073979D01*
X0262000Y0077978D02*
X0267968Y0077978D01*
X0268378Y0081976D02*
X0262000Y0081976D01*
X0263000Y0084232D02*
X0263000Y0087346D01*
X0263000Y0084232D01*
X0263000Y0085975D02*
X0263000Y0085975D01*
X0263000Y0087346D02*
X0263000Y0087346D01*
X0261819Y0096346D02*
X0253000Y0096346D01*
X0261819Y0096346D02*
X0263000Y0097528D01*
X0263000Y0098000D01*
X0268000Y0103000D01*
X0278000Y0113000D02*
X0235500Y0113000D01*
X0235500Y0140500D01*
X0253000Y0134594D02*
X0264594Y0123000D01*
X0276405Y0125960D02*
X0276406Y0125960D01*
X0267615Y0133957D02*
X0266366Y0133957D01*
X0267425Y0137955D02*
X0262367Y0137955D01*
X0263000Y0139232D02*
X0263000Y0143410D01*
X0263000Y0139232D01*
X0263000Y0141954D02*
X0263000Y0141954D01*
X0263000Y0143410D02*
X0263000Y0143410D01*
X0253000Y0149654D02*
X0253000Y0134594D01*
X0273000Y0137955D02*
X0273000Y0137955D01*
X0263000Y0152528D02*
X0256819Y0156346D01*
X0253000Y0156346D01*
X0262500Y0152528D02*
X0262500Y0161500D01*
X0262500Y0152528D02*
X0263000Y0152528D01*
X0313000Y0113000D02*
X0323000Y0103000D01*
X0323000Y0083000D01*
X0332000Y0089973D02*
X0334745Y0089973D01*
X0332000Y0093972D02*
X0339934Y0093972D01*
X0337325Y0097970D02*
X0332000Y0097970D01*
X0332000Y0101969D02*
X0335883Y0101969D01*
X0335693Y0105967D02*
X0331512Y0105967D01*
X0328762Y0109966D02*
X0336716Y0109966D01*
X0339444Y0113964D02*
X0324764Y0113964D01*
X0384704Y0081976D02*
X0404701Y0081976D01*
X0404701Y0077978D02*
X0384237Y0077978D01*
X0388127Y0073979D02*
X0404701Y0073979D01*
X0404701Y0069981D02*
X0389862Y0069981D01*
X0390307Y0065982D02*
X0404701Y0065982D01*
X0404701Y0061984D02*
X0389583Y0061984D01*
X0387506Y0057985D02*
X0404701Y0057985D01*
X0404701Y0053987D02*
X0382430Y0053987D01*
X0385532Y0049988D02*
X0404701Y0049988D01*
X0404701Y0045990D02*
X0388693Y0045990D01*
X0390125Y0041991D02*
X0404701Y0041991D01*
X0404701Y0037993D02*
X0390307Y0037993D01*
X0389266Y0033994D02*
X0404701Y0033994D01*
X0404701Y0029996D02*
X0386524Y0029996D01*
X0384973Y0025997D02*
X0379456Y0025997D01*
X0373552Y0025997D02*
X0352448Y0025997D01*
X0359516Y0029996D02*
X0366484Y0029996D01*
X0363742Y0033994D02*
X0362258Y0033994D01*
X0401027Y0025997D02*
X0404701Y0025997D01*
X0404701Y0021999D02*
X0403659Y0021999D01*
X0404331Y0018000D02*
X0404701Y0018000D01*
X0404701Y0014001D02*
X0403659Y0014001D01*
X0404701Y0010003D02*
X0401027Y0010003D01*
X0404701Y0085975D02*
X0388703Y0085975D01*
X0392701Y0089973D02*
X0404701Y0089973D01*
X0404701Y0093972D02*
X0396700Y0093972D01*
X0400698Y0097970D02*
X0404701Y0097970D01*
X0404697Y0101969D02*
X0404701Y0101969D01*
X0276405Y0053987D02*
X0276406Y0053987D01*
X0221274Y0021999D02*
X0033659Y0021999D01*
X0031027Y0025997D02*
X0217275Y0025997D01*
X0214503Y0029996D02*
X0202194Y0029996D01*
X0206722Y0033994D02*
X0214000Y0033994D01*
X0214000Y0037993D02*
X0210720Y0037993D01*
X0173806Y0029996D02*
X0119108Y0029996D01*
X0123905Y0033994D02*
X0123906Y0033994D01*
X0128997Y0033994D02*
X0169278Y0033994D01*
X0165280Y0037993D02*
X0129268Y0037993D01*
X0129003Y0041991D02*
X0161281Y0041991D01*
X0157282Y0045990D02*
X0145241Y0045990D01*
X0140759Y0045990D02*
X0135241Y0045990D01*
X0130759Y0045990D02*
X0125241Y0045990D01*
X0120759Y0045990D02*
X0119122Y0045990D01*
X0114896Y0049988D02*
X0104307Y0049988D01*
X0103000Y0049988D02*
X0103000Y0049988D01*
X0101693Y0049988D02*
X0097000Y0049988D01*
X0097000Y0053987D02*
X0097606Y0053987D01*
X0103000Y0053987D02*
X0103000Y0053987D01*
X0103000Y0057985D02*
X0103000Y0057985D01*
X0108394Y0053987D02*
X0113425Y0053987D01*
X0123905Y0041991D02*
X0123906Y0041991D01*
X0123905Y0037993D02*
X0123906Y0037993D01*
X0112094Y0038000D02*
X0096346Y0038000D01*
X0089654Y0038000D02*
X0088000Y0038000D01*
X0088000Y0063000D01*
X0088000Y0078472D01*
X0079710Y0081976D02*
X0077575Y0081976D01*
X0077575Y0077978D02*
X0079000Y0077978D01*
X0079000Y0073979D02*
X0077575Y0073979D01*
X0079000Y0069981D02*
X0076096Y0069981D01*
X0076124Y0065982D02*
X0078047Y0065982D01*
X0078047Y0061984D02*
X0077575Y0061984D01*
X0077575Y0057985D02*
X0078325Y0057985D01*
X0079000Y0053987D02*
X0077575Y0053987D01*
X0079000Y0049988D02*
X0076104Y0049988D01*
X0079000Y0045990D02*
X0070241Y0045990D01*
X0065759Y0045990D02*
X0060241Y0045990D01*
X0055759Y0045990D02*
X0050241Y0045990D01*
X0045759Y0045990D02*
X0044122Y0045990D01*
X0039896Y0049988D02*
X0029307Y0049988D01*
X0028000Y0049988D02*
X0028000Y0049988D01*
X0026693Y0049988D02*
X0022000Y0049988D01*
X0022000Y0053987D02*
X0022606Y0053987D01*
X0028000Y0053987D02*
X0028000Y0053987D01*
X0028000Y0057985D02*
X0028000Y0057985D01*
X0033575Y0057985D02*
X0038425Y0057985D01*
X0038425Y0061984D02*
X0033404Y0061984D01*
X0030223Y0065982D02*
X0039876Y0065982D01*
X0039904Y0069981D02*
X0036096Y0069981D01*
X0037575Y0073979D02*
X0038425Y0073979D01*
X0038425Y0077978D02*
X0037575Y0077978D01*
X0037575Y0081976D02*
X0038047Y0081976D01*
X0013000Y0078472D02*
X0013000Y0063000D01*
X0013000Y0078472D02*
X0013000Y0039654D01*
X0014654Y0038000D01*
X0021346Y0038000D02*
X0037094Y0038000D01*
X0044108Y0029996D02*
X0083768Y0029996D01*
X0079918Y0033994D02*
X0053997Y0033994D01*
X0054268Y0037993D02*
X0079000Y0037993D01*
X0079000Y0041991D02*
X0054003Y0041991D01*
X0048906Y0041991D02*
X0048905Y0041991D01*
X0048905Y0037993D02*
X0048906Y0037993D01*
X0048905Y0033994D02*
X0048906Y0033994D01*
X0038425Y0053987D02*
X0033394Y0053987D01*
X0076127Y0085975D02*
X0082774Y0085975D01*
X0088000Y0087527D02*
X0088000Y0087528D01*
X0092634Y0087528D01*
X0092634Y0088470D01*
X0093655Y0088047D01*
X0096932Y0088047D01*
X0094883Y0085998D01*
X0094404Y0084842D01*
X0093599Y0085647D01*
X0093521Y0085679D01*
X0093098Y0086102D01*
X0092634Y0086295D01*
X0092634Y0087527D01*
X0088000Y0087527D01*
X0093226Y0085975D02*
X0094873Y0085975D01*
X0078000Y0108000D02*
X0115500Y0108000D01*
X0128000Y0095500D01*
X0128000Y0088000D01*
X0151104Y0049988D02*
X0153284Y0049988D01*
X0039286Y0157948D02*
X0036714Y0157948D01*
X0033574Y0161946D02*
X0042426Y0161946D01*
X0056810Y0165945D02*
X0022000Y0165945D01*
X0022000Y0169943D02*
X0060329Y0169943D01*
X0061242Y0170856D02*
X0061242Y0170856D01*
X0042537Y0173942D02*
X0033463Y0173942D01*
X0036650Y0177940D02*
X0039350Y0177940D01*
X0188000Y0209929D02*
X0188000Y0209929D01*
X0188000Y0213927D02*
X0188000Y0213927D01*
X0202641Y0201932D02*
X0203359Y0201932D01*
X0212641Y0201932D02*
X0213359Y0201932D01*
X0222641Y0201932D02*
X0223359Y0201932D01*
X0232641Y0201932D02*
X0233359Y0201932D01*
X0242641Y0201932D02*
X0243359Y0201932D01*
X0252641Y0201932D02*
X0253359Y0201932D01*
X0262641Y0201932D02*
X0263359Y0201932D01*
X0218583Y0257911D02*
X0202417Y0257911D01*
X0203700Y0261909D02*
X0217300Y0261909D01*
X0217702Y0265908D02*
X0203298Y0265908D01*
X0201226Y0269906D02*
X0219774Y0269906D01*
D25*
X0163000Y0233000D03*
X0078000Y0228000D03*
X0108000Y0168000D03*
X0108000Y0118000D03*
X0098000Y0098000D03*
X0118000Y0088000D03*
X0128000Y0088000D03*
X0123000Y0068000D03*
X0110500Y0058000D03*
X0088000Y0063000D03*
X0048000Y0085500D03*
X0013000Y0098000D03*
X0013000Y0063000D03*
X0035500Y0058000D03*
X0078000Y0108000D03*
X0173000Y0113000D03*
X0198000Y0098000D03*
X0178000Y0078000D03*
X0228000Y0058000D03*
X0235500Y0080500D03*
X0268000Y0103000D03*
X0278000Y0113000D03*
X0313000Y0113000D03*
X0323000Y0083000D03*
X0280500Y0073000D03*
X0235500Y0113000D03*
X0208000Y0128000D03*
X0198000Y0135500D03*
X0218000Y0148000D03*
X0235500Y0140500D03*
X0262500Y0161500D03*
X0280500Y0145500D03*
X0308000Y0148000D03*
X0363000Y0128000D03*
X0383000Y0183000D03*
X0323000Y0248000D03*
X0183000Y0168000D03*
M02*
