%
M48
M72
T01C0.02756
T02C0.03150
T03C0.03200
T04C0.03937
T05C0.04000
T06C0.05118
T07C0.08661
T08C0.09606
%
T01
X268000Y268000
X278000Y268000
T02
X283000Y183000
X293000Y183000
X303000Y183000
X303000Y163000
X293000Y163000
X283000Y163000
X263000Y163000
X263000Y183000
X233000Y183000
X223000Y183000
X213000Y183000
X193000Y183000
X193000Y163000
X213000Y163000
X223000Y163000
X233000Y163000
X163000Y163000
X153000Y163000
X143000Y163000
X123000Y163000
X123000Y183000
X143000Y183000
X153000Y183000
X163000Y183000
X78000Y183000
X78000Y173000
X58000Y173000
X58000Y183000
X58000Y193000
X78000Y193000
X78000Y223000
X58000Y223000
X58000Y243000
X58000Y253000
X58000Y263000
X78000Y263000
X78000Y253000
X78000Y243000
X78000Y153000
X58000Y153000
X333000Y163000
X353000Y163000
X363000Y163000
X373000Y163000
X373000Y183000
X363000Y183000
X353000Y183000
X333000Y183000
T03
X328000Y235500
X318000Y235500
X308000Y235500
X338000Y235500
X348000Y235500
X358000Y235500
X368000Y235500
X378000Y235500
X388000Y235500
X388000Y265500
X378000Y265500
X368000Y265500
X358000Y265500
X348000Y265500
X338000Y265500
X328000Y265500
X318000Y265500
X308000Y265500
T04
X288000Y268000
X275500Y235500
X300500Y235500
X263000Y193000
X253000Y183000
X233000Y153000
X223000Y153000
X213000Y153000
X243000Y123000
X238000Y93000
X263000Y78000
X298000Y78000
X333000Y78000
X393000Y43000
X333000Y133000
X313000Y153000
X353000Y153000
X363000Y153000
X343000Y183000
X323000Y183000
X213000Y248000
X148000Y218000
X138000Y233000
X115500Y190500
X98000Y183000
X98000Y163000
X108000Y153000
X48000Y173000
X70500Y200500
X58000Y213000
X48000Y228000
X33000Y233000
X78000Y233000
X183000Y193000
X193000Y193000
X45500Y105500
X108000Y48000
X203000Y73000
T05
X213000Y73000
X213000Y63000
X213000Y83000
X213000Y93000
X298000Y278000
X308000Y278000
X338000Y278000
X348000Y278000
X358000Y278000
X368000Y278000
X378000Y278000
X388000Y278000
T06
X353000Y108000
X278000Y108000
X278000Y38000
X355500Y38000
X148000Y38000
X68000Y38000
X68000Y105500
X148000Y105500
T07
X18000Y18000
X18000Y273000
X403000Y18000
X405500Y273000
T08
X366504Y121504
X339496Y121504
X339496Y94496
X366504Y94496
X369004Y51504
X341996Y51504
X341996Y24496
X369004Y24496
X291504Y24496
X264496Y24496
X264496Y51504
X291504Y51504
X291504Y94496
X264496Y94496
X264496Y121504
X291504Y121504
X161504Y119004
X134496Y119004
X134496Y91996
X161504Y91996
X161504Y51504
X134496Y51504
X134496Y24496
X161504Y24496
X81504Y24496
X54496Y24496
X54496Y51504
X81504Y51504
X81504Y91996
X54496Y91996
X54496Y119004
X81504Y119004
M30
